<svg width="65" height="65" viewBox="0 0 65 65" fill="none" xmlns="http://www.w3.org/2000/svg">
<path d="M32.7584 64C30.0209 64 27.364 63.2763 25.1095 61.8288C16.3334 56.441 9.00657 48.882 3.93413 40.0363C1.27714 35.3722 1.35766 29.6628 4.17568 25.0791C9.57017 16.3139 17.1386 8.99612 25.9952 3.92997C28.1691 2.64333 30.7456 2 33.2415 2C35.979 2 38.636 2.72373 40.8905 4.1712C49.6666 9.55901 56.9934 17.118 62.0659 25.9637C64.7229 30.6278 64.6423 36.3372 61.8243 40.9209C56.4298 49.6861 48.8614 57.0039 40.0048 62.07C37.8309 63.2763 35.3349 64 32.7584 64ZM33.2415 3.20623C30.9066 3.20623 28.5717 3.84954 26.5588 4.97535C17.8632 9.96109 10.4558 17.118 5.14186 25.642C2.56538 29.8236 2.48486 35.0506 4.90031 39.3126C9.89223 47.9974 17.0581 55.3956 25.5926 60.703C27.686 61.9896 30.1015 62.7134 32.5974 62.7134C34.9324 62.7134 37.2673 62.07 39.2802 60.9442C47.9758 55.9585 55.3831 48.8016 60.6971 40.2776C63.2736 36.096 63.3541 30.869 60.9387 26.607C55.9467 17.9222 48.7809 10.524 40.2463 5.2166C38.1529 3.92996 35.7375 3.20623 33.2415 3.20623Z" fill="#666666"/>
<path d="M59.1678 27.6524C54.3369 19.2088 47.4127 12.1323 39.2001 7.06614C35.6575 4.89494 31.2292 4.81452 27.6865 6.90531C19.2324 11.7302 12.1471 18.6459 7.07471 26.8482C4.90081 30.3865 4.82029 34.8093 6.91368 38.3476C11.7446 46.7912 18.6688 53.8677 26.8814 58.9338C30.424 61.105 34.8523 61.1855 38.395 59.0947C46.849 54.2698 53.9344 47.3541 59.0068 39.1517C61.1807 35.6135 61.2612 31.1907 59.1678 27.6524Z" fill="white"/>
<path d="M32.7589 61.0246C30.6655 61.0246 28.4916 60.4617 26.6398 59.2555C18.3467 54.1089 11.3419 46.952 6.51103 38.5084C4.41765 34.8093 4.49816 30.2257 6.67207 26.607C11.825 18.3243 18.9908 11.3281 27.4449 6.50325C31.1486 4.41245 35.7379 4.49287 39.3611 6.66407C47.6541 11.8106 54.6589 18.9676 59.4898 27.4112C61.5832 31.1102 61.5027 35.6939 59.3288 39.3126C54.1758 47.5953 47.01 54.5914 38.5559 59.4163C36.7846 60.4617 34.7717 61.0246 32.7589 61.0246ZM33.242 5.6991C31.3901 5.6991 29.5383 6.18159 27.8475 7.14657C19.4739 11.8911 12.3886 18.8067 7.31618 27.0091C5.2228 30.3865 5.14228 34.6485 7.15515 38.1064C11.9055 46.4695 18.8298 53.546 27.0423 58.6122C30.424 60.703 34.6912 60.7834 38.1534 58.773C46.5269 54.0285 53.6122 47.1128 58.6847 38.9105C60.778 35.5331 60.8586 31.2711 58.8457 27.8132C54.0953 19.4501 47.171 12.3735 38.9585 7.3074C37.2677 6.262 35.2548 5.6991 33.242 5.6991Z" fill="#666666"/>
<path d="M32.7333 41.1405C28.6317 41.1405 15 40.7786 15 36.0739C15 35.8326 15.1206 35.4707 15.2413 35.2295L17.654 28.112C18.0159 26.0612 21.273 24.7343 27.7872 24.2517C29.9587 24.1311 36.2317 24.1311 37.7999 24.2517C44.3142 24.7343 47.5713 26.0612 47.8126 28.2327L50.3459 35.4707C50.4665 35.5914 50.4665 35.8326 50.4665 36.0739C50.4665 40.7786 36.8348 41.1405 32.7333 41.1405ZM32.492 25.4581C30.6825 25.4581 28.7523 25.4581 27.7872 25.5787C22.3587 26.0612 18.9809 27.147 18.7397 28.4739L16.2063 35.712C16.0857 35.8326 16.0857 35.9533 16.0857 36.0739C16.0857 38.6072 24.4095 39.9342 32.6126 39.9342C40.8158 39.9342 49.1395 38.6072 49.1395 36.0739V35.9533L46.6062 28.5946C46.3649 27.0263 42.9872 25.9406 37.6793 25.5787C36.8348 25.4581 34.6634 25.4581 32.492 25.4581Z" fill="#666666"/>
<path d="M32.733 30.766C31.2853 30.766 18.2568 30.6454 18.2568 27.7501C18.2568 24.8549 31.2853 24.7343 32.733 24.7343C34.1806 24.7343 47.2091 24.8549 47.2091 27.7501C47.2091 30.6454 34.1806 30.766 32.733 30.766ZM32.733 25.9406C24.5298 25.9406 19.8251 27.147 19.4632 27.7501C19.8251 28.3533 24.5298 29.5597 32.733 29.5597C40.6948 29.5597 45.3996 28.4739 46.0027 27.7501C45.3996 27.147 40.6948 25.9406 32.733 25.9406Z" fill="#666666"/>
<path d="M38.4028 27.7502C39.4688 27.7502 40.333 27.2641 40.333 26.6644C40.333 26.0648 39.4688 25.5787 38.4028 25.5787C37.3368 25.5787 36.4727 26.0648 36.4727 26.6644C36.4727 27.2641 37.3368 27.7502 38.4028 27.7502Z" fill="#666666"/>
<path d="M38.4033 27.9914C37.197 27.9914 36.3525 27.3883 36.3525 26.7851C36.3525 26.1819 37.3176 25.5787 38.4033 25.5787C39.6097 25.5787 40.4541 26.1819 40.4541 26.7851C40.4541 27.3883 39.489 27.9914 38.4033 27.9914ZM38.4033 25.6994C37.4382 25.6994 36.5938 26.1819 36.5938 26.6644C36.5938 27.147 37.4382 27.6295 38.4033 27.6295C39.3684 27.6295 40.2128 27.147 40.2128 26.6644C40.2128 26.1819 39.3684 25.6994 38.4033 25.6994Z" fill="white"/>
<path d="M43.108 27.0264C42.9874 27.0264 42.8668 27.0264 42.7461 27.0264C42.7461 26.6645 42.143 26.4232 41.4192 26.4232C41.2985 26.4232 41.1779 26.4232 41.0572 26.4232V26.3026C41.0572 25.9407 40.4541 25.6994 39.7303 25.6994C39.6096 25.6994 39.489 25.6994 39.3684 25.6994V25.5788C39.3684 25.2169 38.7652 24.855 38.0414 24.855C37.9208 24.855 37.8001 24.855 37.6795 24.855V24.7343C37.6795 24.3724 37.0763 24.1311 36.3525 24.1311C36.2319 24.1311 36.1112 24.1311 35.9906 24.1311V24.0105C35.9906 23.6486 35.3874 23.4073 34.6636 23.4073C34.4224 23.4073 34.3017 23.4073 34.1811 23.4073C34.1811 23.0454 33.5779 22.8042 32.8541 22.8042C32.7335 22.8042 32.6128 22.8042 32.4922 22.8042C32.2509 22.6835 31.889 22.6835 31.6478 22.6835C30.924 22.6835 30.3208 22.9248 30.3208 23.2867C30.2002 23.2867 30.0795 23.2867 29.9589 23.2867C29.2351 23.2867 28.6319 23.6486 28.6319 23.8899V24.0105C28.5113 24.0105 28.3906 24.0105 28.27 24.0105C27.5462 24.0105 26.943 24.2518 26.943 24.6137V24.7343C26.8224 24.7343 26.7018 24.7343 26.5811 24.7343C25.8573 24.7343 25.2541 24.9756 25.2541 25.4581V25.5788C25.1335 25.5788 25.0129 25.5788 24.8922 25.5788C24.1684 25.5788 23.5653 25.82 23.5653 26.1819V26.3026C23.4446 26.3026 23.324 26.3026 23.2034 26.3026C22.4796 26.3026 21.8764 26.5438 21.8764 26.9057C21.7557 26.9057 21.6351 26.9057 21.5145 26.9057C20.7907 26.9057 20.1875 27.147 20.1875 27.5089C20.1875 27.8708 20.7907 28.1121 21.5145 28.3533C21.8764 28.474 22.3589 28.5946 22.9621 28.8359C24.2891 29.3184 26.943 29.5597 28.27 29.4391L35.6287 29.5597C35.87 29.5597 36.1112 29.5597 36.2319 29.5597C37.3176 29.4391 39.9715 29.1978 40.816 28.9565C41.4192 28.8359 42.2636 28.3533 42.5049 28.2327C43.2287 27.9914 43.8318 27.9914 43.8318 27.5089C44.435 27.2676 43.8318 27.0264 43.108 27.0264Z" fill="#666666"/>
<path d="M36.2323 29.8009L28.8736 29.6803C27.426 29.6803 24.772 29.5597 23.445 28.9565C23.0831 28.8359 22.8419 28.7152 22.6006 28.7152C22.3593 28.5946 22.2387 28.5946 21.9974 28.4739C21.153 28.112 20.5498 27.8708 20.5498 27.3882C20.5498 26.9057 21.153 26.5438 21.9974 26.5438C22.1181 26.5438 22.1181 26.5438 22.2387 26.5438C22.3593 26.1819 22.9625 25.9406 23.6863 25.9406H23.8069C23.8069 25.4581 24.4101 25.2168 25.2545 25.2168C25.3752 25.2168 25.3752 25.2168 25.3752 25.2168C25.4958 24.7343 26.099 24.493 26.8228 24.493C26.9434 24.493 26.9434 24.493 26.9434 24.493C26.9434 24.0105 27.6672 23.7692 28.391 23.7692H28.5117C28.6323 23.4073 29.2355 23.0454 29.9593 23.0454C30.0799 23.0454 30.0799 23.0454 30.2006 23.0454C30.3212 22.6835 30.9244 22.4422 31.6482 22.4422C32.0101 22.4422 32.2513 22.4422 32.4926 22.5629C32.6132 22.5629 32.7339 22.5629 32.8545 22.5629C33.5783 22.5629 34.1815 22.8041 34.3021 23.166C34.4228 23.166 34.5434 23.166 34.664 23.166C35.3878 23.166 36.1116 23.5279 36.1116 23.8898H36.2323C37.0767 23.8898 37.6799 24.2517 37.6799 24.6136H37.8005C38.5243 24.6136 39.2481 24.9756 39.2481 25.3375H39.3688C40.2132 25.3375 40.8164 25.6994 40.8164 26.0613C40.937 26.0613 40.937 26.0613 41.0576 26.0613C41.7815 26.0613 42.3846 26.3025 42.5053 26.6644C42.5053 26.6644 42.6259 26.6644 42.7465 26.6644C43.591 26.6644 44.1941 27.0263 44.1941 27.5089C44.1941 27.9914 43.7116 28.112 43.1084 28.2327L42.8672 28.3533C42.7465 28.3533 42.5053 28.474 42.264 28.5946C41.9021 28.8359 41.4196 28.9565 41.0576 29.0771C40.5751 29.1978 39.3688 29.3184 38.1624 29.439C37.4386 29.5597 36.8354 29.5597 36.4735 29.6803C36.5942 29.8009 36.4735 29.8009 36.2323 29.8009ZM28.7529 29.439L36.1116 29.5597C36.3529 29.5597 36.4735 29.5597 36.7148 29.5597C37.1973 29.5597 37.8005 29.439 38.4037 29.3184C39.4894 29.1978 40.6957 29.0771 41.1783 28.9565C41.5402 28.8359 41.9021 28.7152 42.264 28.4739C42.5053 28.3533 42.7465 28.2327 42.8672 28.2327L43.1084 28.112C43.591 27.9914 43.9529 27.8708 43.9529 27.6295C43.9529 27.3882 43.4703 27.147 42.7465 27.147C42.6259 27.147 42.5053 27.147 42.5053 27.147H42.3846V27.0263C42.3846 26.7851 41.9021 26.5438 41.2989 26.5438C41.1783 26.5438 41.0576 26.5438 40.937 26.5438H40.6957L40.8164 26.3025C40.8164 26.0613 40.3338 25.82 39.7307 25.82C39.61 25.82 39.4894 25.82 39.3688 25.82L39.2481 25.9406L39.3688 25.6994C39.3688 25.4581 38.8862 25.2168 38.1624 25.2168H38.0418H37.9212H37.8005V25.0962V24.9756C37.8005 24.7343 37.318 24.493 36.7148 24.493C36.5942 24.493 36.4735 24.493 36.4735 24.493L36.2323 24.6136V24.3724V24.2517C36.2323 24.0105 35.7497 23.7692 35.1466 23.7692C35.0259 23.7692 34.7847 23.7692 34.664 23.7692H34.4228V23.5279C34.4228 23.2867 33.9402 23.0454 33.2164 23.0454C33.0958 23.0454 32.9751 23.0454 32.8545 23.0454C32.6132 22.9248 32.372 22.9248 32.0101 22.9248C31.2863 22.9248 30.9244 23.166 30.9244 23.4073V23.6486H30.6831C30.5625 23.6486 30.5625 23.6486 30.4418 23.6486C29.8387 23.6486 29.2355 23.8898 29.2355 24.1311V24.2517V24.493H28.9942C28.8736 24.493 28.7529 24.493 28.6323 24.493C28.0291 24.493 27.5466 24.7343 27.5466 24.9756V25.0962V25.2168H27.3053C27.1847 25.2168 27.1847 25.2168 27.0641 25.2168C26.3403 25.2168 25.8577 25.4581 25.8577 25.6994L25.9784 25.9406H25.7371C25.6164 25.9406 25.4958 25.9406 25.3752 25.9406C24.6514 25.9406 24.2895 26.1819 24.2895 26.4232L24.4101 26.6644H24.1688C24.0482 26.6644 23.9276 26.6644 23.8069 26.6644C23.0831 26.6644 22.7212 26.9057 22.7212 27.147V27.2676H22.6006H22.48C22.48 27.2676 22.3593 27.2676 22.2387 27.2676C21.5149 27.2676 21.153 27.5089 21.153 27.7501C21.153 27.9914 21.9974 28.3533 22.3593 28.4739C22.48 28.4739 22.7212 28.5946 22.8419 28.5946C23.0831 28.7152 23.445 28.7152 23.6863 28.9565C24.772 29.1978 27.426 29.439 28.7529 29.439Z" fill="white"/>
<path d="M32.973 28.1121C33.7725 28.1121 34.4206 27.788 34.4206 27.3883C34.4206 26.9885 33.7725 26.6645 32.973 26.6645C32.1735 26.6645 31.5254 26.9885 31.5254 27.3883C31.5254 27.788 32.1735 28.1121 32.973 28.1121Z" fill="#666666"/>
<path d="M32.9735 28.2327C32.1291 28.2327 31.4053 27.8708 31.4053 27.3882C31.4053 26.9057 32.1291 26.5438 32.9735 26.5438C33.818 26.5438 34.5418 26.9057 34.5418 27.3882C34.5418 27.8708 33.818 28.2327 32.9735 28.2327ZM32.9735 26.7851C32.2497 26.7851 31.7672 27.0263 31.7672 27.3882C31.7672 27.7501 32.2497 27.9914 32.9735 27.9914C33.6973 27.9914 34.1799 27.7501 34.1799 27.3882C34.1799 27.0263 33.6973 26.7851 32.9735 26.7851Z" fill="white"/>
<path d="M34.6616 25.6993C35.7276 25.6993 36.5917 25.2133 36.5917 24.6136C36.5917 24.014 35.7276 23.5279 34.6616 23.5279C33.5956 23.5279 32.7314 24.014 32.7314 24.6136C32.7314 25.2133 33.5956 25.6993 34.6616 25.6993Z" fill="#666666"/>
<path d="M34.6621 25.82C33.4558 25.82 32.6113 25.2168 32.6113 24.6136C32.6113 23.8898 33.5764 23.4073 34.6621 23.4073C35.8685 23.4073 36.7129 24.0105 36.7129 24.6136C36.7129 25.3374 35.7478 25.82 34.6621 25.82ZM34.6621 23.6486C33.697 23.6486 32.8526 24.1311 32.8526 24.6136C32.8526 25.0962 33.697 25.5787 34.6621 25.5787C35.6272 25.5787 36.4716 25.0962 36.4716 24.6136C36.351 24.1311 35.5066 23.6486 34.6621 23.6486Z" fill="white"/>
<path d="M35.9907 26.5438C37.0567 26.5438 37.9208 26.0577 37.9208 25.4581C37.9208 24.8585 37.0567 24.3724 35.9907 24.3724C34.9247 24.3724 34.0605 24.8585 34.0605 25.4581C34.0605 26.0577 34.9247 26.5438 35.9907 26.5438Z" fill="#666666"/>
<path d="M35.9912 26.7851C34.7849 26.7851 33.9404 26.1819 33.9404 25.5787C33.9404 24.9756 34.9055 24.3724 35.9912 24.3724C37.1976 24.3724 38.042 24.9756 38.042 25.5787C38.042 26.1819 37.1976 26.7851 35.9912 26.7851ZM35.9912 24.6137C35.0261 24.6137 34.1817 25.0962 34.1817 25.5787C34.1817 26.0613 35.0261 26.5438 35.9912 26.5438C36.9563 26.5438 37.8007 26.0613 37.8007 25.5787C37.8007 25.0962 36.9563 24.6137 35.9912 24.6137Z" fill="white"/>
<path d="M39.6162 25.0049C39.7042 24.5469 39.0329 24.033 38.1168 23.857C37.2008 23.6811 36.3869 23.9098 36.2989 24.3679C36.211 24.8259 36.8823 25.3398 37.7983 25.5157C38.7143 25.6916 39.5283 25.4629 39.6162 25.0049Z" fill="#666666"/>
<path d="M38.2818 25.82C38.0405 25.82 37.9199 25.82 37.6786 25.6994C36.9548 25.5787 36.4723 25.2168 36.231 24.8549C36.1104 24.6137 36.1104 24.493 36.1104 24.2518C36.1104 24.0105 36.231 23.8899 36.4723 23.7692C36.8342 23.5279 37.558 23.4073 38.1611 23.5279C39.2468 23.7692 39.9707 24.3724 39.85 24.9756C39.85 25.2168 39.7294 25.3375 39.4881 25.4581C39.1262 25.6994 38.7643 25.82 38.2818 25.82ZM37.4373 24.0105C37.0754 24.0105 36.7135 24.1311 36.5929 24.2518C36.4723 24.3724 36.4723 24.3724 36.4723 24.493C36.4723 24.6137 36.4723 24.7343 36.5929 24.7343C36.8342 24.9756 37.3167 25.3375 37.7992 25.4581C38.4024 25.5787 38.8849 25.4581 39.2468 25.3375C39.3675 25.2168 39.3675 25.2168 39.3675 25.0962C39.3675 24.7343 38.8849 24.2518 38.0405 24.1311C37.7992 24.0105 37.6786 24.0105 37.4373 24.0105Z" fill="white"/>
<path d="M34.0609 25.5787C34.8604 25.5787 35.5085 25.2547 35.5085 24.8549C35.5085 24.4552 34.8604 24.1311 34.0609 24.1311C33.2614 24.1311 32.6133 24.4552 32.6133 24.8549C32.6133 25.2547 33.2614 25.5787 34.0609 25.5787Z" fill="#666666"/>
<path d="M34.0614 25.6993C33.217 25.6993 32.4932 25.3374 32.4932 24.8549C32.4932 24.3724 33.217 24.0105 34.0614 24.0105C34.9059 24.0105 35.6297 24.3724 35.6297 24.8549C35.6297 25.3374 34.9059 25.6993 34.0614 25.6993ZM34.0614 24.2517C33.3376 24.2517 32.8551 24.493 32.8551 24.8549C32.8551 25.2168 33.3376 25.4581 34.0614 25.4581C34.7852 25.4581 35.2678 25.2168 35.2678 24.8549C35.2678 24.493 34.7852 24.2517 34.0614 24.2517Z" fill="white"/>
<path d="M36.472 27.0263C37.2715 27.0263 37.9196 26.7023 37.9196 26.3025C37.9196 25.9028 37.2715 25.5787 36.472 25.5787C35.6725 25.5787 35.0244 25.9028 35.0244 26.3025C35.0244 26.7023 35.6725 27.0263 36.472 27.0263Z" fill="#666666"/>
<path d="M36.4725 27.2676C35.6281 27.2676 34.9043 26.9057 34.9043 26.4232C34.9043 25.9406 35.6281 25.5787 36.4725 25.5787C37.317 25.5787 38.0408 25.9406 38.0408 26.4232C38.0408 26.9057 37.317 27.2676 36.4725 27.2676ZM36.4725 25.82C35.7487 25.82 35.2662 26.0613 35.2662 26.4232C35.2662 26.6644 35.7487 27.0263 36.4725 27.0263C37.1964 27.0263 37.6789 26.7851 37.6789 26.4232C37.6789 26.0613 37.1964 25.82 36.4725 25.82Z" fill="white"/>
<path d="M37.9203 27.9914C38.7198 27.9914 39.3679 27.6673 39.3679 27.2676C39.3679 26.8679 38.7198 26.5438 37.9203 26.5438C37.1208 26.5438 36.4727 26.8679 36.4727 27.2676C36.4727 27.6673 37.1208 27.9914 37.9203 27.9914Z" fill="#666666"/>
<path d="M37.9208 28.112C37.0763 28.112 36.3525 27.7501 36.3525 27.2676C36.3525 26.7851 37.0763 26.4232 37.9208 26.4232C38.7652 26.4232 39.489 26.7851 39.489 27.2676C39.489 27.7501 38.7652 28.112 37.9208 28.112ZM37.9208 26.6644C37.197 26.6644 36.7144 26.9057 36.7144 27.2676C36.7144 27.5089 37.197 27.8708 37.9208 27.8708C38.6446 27.8708 39.1271 27.6295 39.1271 27.2676C39.1271 27.0263 38.6446 26.6644 37.9208 26.6644Z" fill="white"/>
<path d="M35.8685 29.3184C36.668 29.3184 37.3161 28.9943 37.3161 28.5946C37.3161 28.1948 36.668 27.8708 35.8685 27.8708C35.069 27.8708 34.4209 28.1948 34.4209 28.5946C34.4209 28.9943 35.069 29.3184 35.8685 29.3184Z" fill="#666666"/>
<path d="M35.869 29.5596C35.0246 29.5596 34.3008 29.1977 34.3008 28.7152C34.3008 28.2327 35.0246 27.8708 35.869 27.8708C36.7135 27.8708 37.4373 28.2327 37.4373 28.7152C37.4373 29.1977 36.7135 29.5596 35.869 29.5596ZM35.869 28.112C35.1452 28.112 34.6627 28.3533 34.6627 28.7152C34.6627 28.9565 35.1452 29.3184 35.869 29.3184C36.5928 29.3184 37.0754 29.0771 37.0754 28.7152C37.0754 28.3533 36.5928 28.112 35.869 28.112Z" fill="white"/>
<path d="M34.0609 26.9057C34.8604 26.9057 35.5085 26.5816 35.5085 26.1819C35.5085 25.7821 34.8604 25.4581 34.0609 25.4581C33.2614 25.4581 32.6133 25.7821 32.6133 26.1819C32.6133 26.5816 33.2614 26.9057 34.0609 26.9057Z" fill="#666666"/>
<path d="M34.0614 27.0263C33.217 27.0263 32.4932 26.6644 32.4932 26.1818C32.4932 25.6993 33.217 25.3374 34.0614 25.3374C34.9059 25.3374 35.6297 25.6993 35.6297 26.1818C35.6297 26.6644 34.9059 27.0263 34.0614 27.0263ZM34.0614 25.5787C33.3376 25.5787 32.8551 25.8199 32.8551 26.1818C32.8551 26.4231 33.3376 26.785 34.0614 26.785C34.7852 26.785 35.2678 26.5437 35.2678 26.1818C35.2678 25.9406 34.7852 25.5787 34.0614 25.5787Z" fill="white"/>
<path d="M35.3872 28.7152C36.4532 28.7152 37.3173 28.2291 37.3173 27.6295C37.3173 27.0299 36.4532 26.5438 35.3872 26.5438C34.3212 26.5438 33.457 27.0299 33.457 27.6295C33.457 28.2291 34.3212 28.7152 35.3872 28.7152Z" fill="#666666"/>
<path d="M35.3877 28.9565C34.1814 28.9565 33.3369 28.3533 33.3369 27.7501C33.3369 27.147 34.302 26.5438 35.3877 26.5438C36.594 26.5438 37.4385 27.147 37.4385 27.7501C37.4385 28.3533 36.4734 28.9565 35.3877 28.9565ZM35.3877 26.6644C34.4226 26.6644 33.5782 27.147 33.5782 27.6295C33.5782 28.112 34.4226 28.5946 35.3877 28.5946C36.3528 28.5946 37.1972 28.112 37.1972 27.6295C37.1972 27.147 36.3528 26.6644 35.3877 26.6644Z" fill="white"/>
<path d="M35.9907 27.147C37.0567 27.147 37.9208 26.6609 37.9208 26.0613C37.9208 25.4616 37.0567 24.9756 35.9907 24.9756C34.9247 24.9756 34.0605 25.4616 34.0605 26.0613C34.0605 26.6609 34.9247 27.147 35.9907 27.147Z" fill="#666666"/>
<path d="M35.9912 27.2676C34.7849 27.2676 33.9404 26.7851 33.9404 26.0613C33.9404 25.3375 34.9055 24.8549 35.9912 24.8549C37.0769 24.8549 38.042 25.3375 38.042 26.0613C38.042 26.7851 37.0769 27.2676 35.9912 27.2676ZM35.9912 25.2168C35.0261 25.2168 34.1817 25.5787 34.1817 26.1819C34.1817 26.7851 35.0261 27.147 35.9912 27.147C36.9563 27.147 37.8007 26.7851 37.8007 26.1819C37.8007 25.5787 36.9563 25.2168 35.9912 25.2168Z" fill="white"/>
<path d="M39.2485 27.2676C40.3145 27.2676 41.1787 26.7816 41.1787 26.1819C41.1787 25.5823 40.3145 25.0962 39.2485 25.0962C38.1825 25.0962 37.3184 25.5823 37.3184 26.1819C37.3184 26.7816 38.1825 27.2676 39.2485 27.2676Z" fill="#666666"/>
<path d="M39.249 27.3882C38.0427 27.3882 37.1982 26.7851 37.1982 26.1819C37.1982 25.5787 38.1633 24.9756 39.249 24.9756C40.4554 24.9756 41.2998 25.5787 41.2998 26.1819C41.2998 26.7851 40.4554 27.3882 39.249 27.3882ZM39.249 25.2168C38.284 25.2168 37.4395 25.6994 37.4395 26.1819C37.4395 26.6644 38.284 27.147 39.249 27.147C40.2141 27.147 41.0585 26.6644 41.0585 26.1819C41.0585 25.6994 40.2141 25.2168 39.249 25.2168Z" fill="white"/>
<path d="M42.5038 27.6295C43.3699 27.6295 44.072 27.1974 44.072 26.6644C44.072 26.1315 43.3699 25.6994 42.5038 25.6994C41.6377 25.6994 40.9355 26.1315 40.9355 26.6644C40.9355 27.1974 41.6377 27.6295 42.5038 27.6295Z" fill="#666666"/>
<path d="M42.5038 27.7502C41.5388 27.7502 40.6943 27.2676 40.6943 26.6644C40.6943 26.0613 41.4181 25.5787 42.5038 25.5787C43.5896 25.5787 44.3134 26.0613 44.3134 26.6644C44.3134 27.2676 43.4689 27.7502 42.5038 27.7502ZM42.5038 25.9406C41.6594 25.9406 41.0562 26.3025 41.0562 26.6644C41.0562 27.0263 41.78 27.3883 42.5038 27.3883C43.3483 27.3883 43.9515 27.0263 43.9515 26.6644C43.9515 26.3025 43.3483 25.9406 42.5038 25.9406Z" fill="white"/>
<path d="M42.6259 28.3533C43.492 28.3533 44.1941 27.9213 44.1941 27.3883C44.1941 26.8553 43.492 26.4232 42.6259 26.4232C41.7597 26.4232 41.0576 26.8553 41.0576 27.3883C41.0576 27.9213 41.7597 28.3533 42.6259 28.3533Z" fill="#666666"/>
<path d="M42.6259 28.4739C41.6608 28.4739 40.8164 27.9914 40.8164 27.3882C40.8164 26.7851 41.5402 26.3025 42.6259 26.3025C43.7116 26.3025 44.4354 26.7851 44.4354 27.3882C44.4354 27.9914 43.591 28.4739 42.6259 28.4739ZM42.6259 26.6644C41.7815 26.6644 41.1783 27.0263 41.1783 27.3882C41.1783 27.7501 41.9021 28.112 42.6259 28.112C43.4704 28.112 44.0735 27.7501 44.0735 27.3882C44.0735 27.0263 43.4704 26.6644 42.6259 26.6644Z" fill="white"/>
<path d="M40.3339 28.7152C41.2 28.7152 41.9021 28.2831 41.9021 27.7501C41.9021 27.2171 41.2 26.7851 40.3339 26.7851C39.4678 26.7851 38.7656 27.2171 38.7656 27.7501C38.7656 28.2831 39.4678 28.7152 40.3339 28.7152Z" fill="#666666"/>
<path d="M40.3339 28.9565C39.3689 28.9565 38.5244 28.4739 38.5244 27.8708C38.5244 27.2676 39.2482 26.7851 40.3339 26.7851C41.4196 26.7851 42.1434 27.2676 42.1434 27.8708C42.0228 28.4739 41.299 28.9565 40.3339 28.9565ZM40.3339 27.0263C39.4895 27.0263 38.8863 27.3882 38.8863 27.7501C38.8863 28.112 39.6101 28.4739 40.3339 28.4739C41.1784 28.4739 41.7815 28.112 41.7815 27.7501C41.7815 27.3882 41.0577 27.0263 40.3339 27.0263Z" fill="white"/>
<path d="M36.955 29.439C37.8211 29.439 38.5232 29.007 38.5232 28.474C38.5232 27.941 37.8211 27.5089 36.955 27.5089C36.0888 27.5089 35.3867 27.941 35.3867 28.474C35.3867 29.007 36.0888 29.439 36.955 29.439Z" fill="#666666"/>
<path d="M36.955 29.5597C35.9899 29.5597 35.1455 29.0771 35.1455 28.474C35.1455 27.8708 35.8693 27.3882 36.955 27.3882C38.0407 27.3882 38.7645 27.8708 38.7645 28.474C38.7645 29.0771 38.0407 29.5597 36.955 29.5597ZM36.955 27.6295C36.1106 27.6295 35.5074 27.9914 35.5074 28.3533C35.5074 28.7152 36.2312 29.0771 36.955 29.0771C37.7995 29.0771 38.4026 28.7152 38.4026 28.3533C38.4026 27.9914 37.7995 27.6295 36.955 27.6295Z" fill="white"/>
<path d="M38.4042 26.1819C39.2703 26.1819 39.9724 25.7498 39.9724 25.2168C39.9724 24.6838 39.2703 24.2518 38.4042 24.2518C37.5381 24.2518 36.8359 24.6838 36.8359 25.2168C36.8359 25.7498 37.5381 26.1819 38.4042 26.1819Z" fill="#666666"/>
<path d="M38.4042 26.3025C37.4392 26.3025 36.5947 25.82 36.5947 25.2168C36.5947 24.6136 37.3185 24.1311 38.4042 24.1311C39.49 24.1311 40.2138 24.6136 40.2138 25.2168C40.2138 25.82 39.3693 26.3025 38.4042 26.3025ZM38.4042 24.493C37.5598 24.493 36.9566 24.8549 36.9566 25.2168C36.9566 25.5787 37.5598 25.9406 38.4042 25.9406C39.2487 25.9406 39.8519 25.5787 39.8519 25.2168C39.8519 24.8549 39.128 24.493 38.4042 24.493Z" fill="white"/>
<path d="M40.9369 26.9057C41.7364 26.9057 42.3845 26.5817 42.3845 26.1819C42.3845 25.7822 41.7364 25.4581 40.9369 25.4581C40.1374 25.4581 39.4893 25.7822 39.4893 26.1819C39.4893 26.5817 40.1374 26.9057 40.9369 26.9057Z" fill="#666666"/>
<path d="M40.9374 27.147C40.0929 27.147 39.3691 26.7851 39.3691 26.3025C39.3691 25.82 40.0929 25.4581 40.9374 25.4581C41.7818 25.4581 42.5056 25.82 42.5056 26.3025C42.5056 26.7851 41.7818 27.147 40.9374 27.147ZM40.9374 25.6994C40.2136 25.6994 39.731 25.9406 39.731 26.3025C39.731 26.6644 40.2136 26.9057 40.9374 26.9057C41.6612 26.9057 42.1437 26.6644 42.1437 26.3025C42.1437 25.9406 41.6612 25.6994 40.9374 25.6994Z" fill="white"/>
<path d="M33.2152 28.8359C34.0147 28.8359 34.6628 28.5118 34.6628 28.112C34.6628 27.7123 34.0147 27.3882 33.2152 27.3882C32.4157 27.3882 31.7676 27.7123 31.7676 28.112C31.7676 28.5118 32.4157 28.8359 33.2152 28.8359Z" fill="#666666"/>
<path d="M33.2157 29.0771C32.3713 29.0771 31.6475 28.7152 31.6475 28.2327C31.6475 27.7501 32.3713 27.3882 33.2157 27.3882C34.0601 27.3882 34.784 27.7501 34.784 28.2327C34.784 28.7152 34.0601 29.0771 33.2157 29.0771ZM33.2157 27.6295C32.4919 27.6295 32.0094 27.8708 32.0094 28.2327C32.0094 28.5946 32.4919 28.8359 33.2157 28.8359C33.9395 28.8359 34.4221 28.5946 34.4221 28.2327C34.4221 27.8708 33.9395 27.6295 33.2157 27.6295Z" fill="white"/>
<path d="M34.9038 29.5597C35.9698 29.5597 36.8339 28.8575 36.8339 27.9914C36.8339 27.1253 35.9698 26.4232 34.9038 26.4232C33.8378 26.4232 32.9736 27.1253 32.9736 27.9914C32.9736 28.8575 33.8378 29.5597 34.9038 29.5597Z" fill="#666666"/>
<path d="M34.9043 29.8009C33.698 29.8009 32.8535 28.9565 32.8535 28.112C32.8535 27.2676 33.8186 26.4232 34.9043 26.4232C35.99 26.4232 36.9551 27.2676 36.9551 28.112C36.9551 28.9565 35.99 29.8009 34.9043 29.8009ZM34.9043 26.6644C33.9392 26.6644 33.2154 27.2676 33.2154 27.9914C33.2154 28.7152 33.9392 29.3184 34.9043 29.3184C35.8694 29.3184 36.5932 28.7152 36.5932 27.9914C36.5932 27.2676 35.8694 26.6644 34.9043 26.6644Z" fill="white"/>
<path d="M26.7011 46.0865C26.5805 46.0865 26.5805 46.0865 26.4599 46.0865C26.098 45.9659 25.9773 45.604 26.098 45.3627L35.7487 17.6168C35.8694 17.2549 36.2313 17.1343 36.4725 17.2549C36.8344 17.3756 36.9551 17.7375 36.8344 17.9787L27.1837 45.7246C27.1837 45.8453 26.9424 46.0865 26.7011 46.0865Z" fill="#666666"/>
<path fill-rule="evenodd" clip-rule="evenodd" d="M26.2638 47.2929L26.0781 47.231C25.1115 46.9088 24.5767 45.8469 24.9764 44.9145L34.6072 17.226C34.9343 16.2617 35.9992 15.7311 36.9312 16.1383C37.8486 16.4901 38.3444 17.5198 37.9555 18.427L28.3522 46.0364C28.2984 46.258 28.1998 46.42 28.1457 46.5012C28.0459 46.651 27.9258 46.7769 27.8049 46.8776C27.5853 47.0606 27.2 47.2929 26.7009 47.2929H26.2638ZM36.8342 17.9787C36.9548 17.7375 36.8342 17.3756 36.4723 17.2549C36.2671 17.1524 35.9748 17.2242 35.8177 17.4705C35.7924 17.5101 35.7706 17.5542 35.7533 17.6028C35.7516 17.6074 35.75 17.6121 35.7485 17.6168L26.0977 45.3627C26.044 45.4701 26.0381 45.6014 26.08 45.7247C26.1322 45.8784 26.2588 46.0196 26.4596 46.0866H26.7009C26.8625 46.0866 27.0242 45.9783 27.1132 45.8705C27.1517 45.824 27.1767 45.7775 27.1822 45.74C27.183 45.7347 27.1834 45.7296 27.1834 45.7247L36.8342 17.9787Z" fill="white"/>
</svg>
