<svg width="62" height="62" viewBox="0 0 62 62" fill="none" xmlns="http://www.w3.org/2000/svg">
<path d="M30.7189 62C27.9705 62 25.3838 61.2725 23.0396 59.8175C14.3095 54.4824 7.03438 46.884 1.94181 37.9922C-0.725722 33.3038 -0.644897 27.6454 2.18431 23.0378C7.51938 14.3077 15.1178 7.0326 24.0096 1.94003C26.1921 0.646677 28.698 0 31.2847 0C34.0331 0 36.6198 0.72751 38.964 2.18253C47.6941 7.5176 54.9692 15.116 60.0618 24.0078C62.7293 28.6962 62.6485 34.3546 59.8193 38.9622C54.4842 47.6923 46.8858 54.9674 37.994 60.06C35.7306 61.3533 33.2247 62 30.7189 62ZM31.2039 1.37419C28.8597 1.37419 26.5963 2.02086 24.5755 3.15254C15.8453 8.16428 8.48941 15.2777 3.23517 23.8462C0.648468 27.9687 0.567619 33.2229 2.99265 37.5072C8.00439 46.2373 15.1178 53.5932 23.6863 58.8475C25.788 60.1408 28.213 60.7875 30.7189 60.7875C33.0631 60.7875 35.3264 60.1408 37.3473 59.0091C46.0774 54.0782 53.4334 46.884 58.6876 38.3155C61.2743 34.193 61.3551 28.9387 58.9301 24.6545C53.9184 15.9244 46.8049 8.56845 38.2365 3.31421C36.1348 2.10169 33.7098 1.37419 31.2039 1.37419Z" fill="#575756"/>
<path d="M57.0715 25.7053C52.3023 17.2985 45.3505 10.1851 37.1054 5.0925C33.6295 2.90997 29.1836 2.90997 25.6269 4.93083C17.2201 9.70007 10.1067 16.6518 5.01413 24.8969C2.8316 28.3728 2.83161 32.8187 4.85247 36.3754C9.6217 44.7822 16.5735 51.8956 24.8186 56.9882C28.2944 59.1707 32.7403 59.1707 36.2971 57.1499C44.7038 52.3806 51.8173 45.4289 56.9098 37.1838C59.0115 33.7079 59.0924 29.3428 57.0715 25.7053Z" fill="white"/>
<path d="M30.7193 59.09C28.6176 59.09 26.516 58.5241 24.5759 57.3925C16.25 52.2999 9.29823 45.1056 4.529 36.618C2.4273 32.8996 2.50812 28.3729 4.69065 24.7353C9.78322 16.4094 16.9775 9.45764 25.4651 4.68841C29.1835 2.58672 33.7102 2.66755 37.3478 4.85008C45.6737 9.94265 52.6255 17.1369 57.3947 25.6245C59.4964 29.3429 59.4156 33.8696 57.233 37.5072C52.1405 45.8331 44.9462 52.7849 36.4586 57.5541C34.6802 58.605 32.7402 59.09 30.7193 59.09ZM31.2044 3.88007C29.3452 3.88007 27.486 4.36507 25.7884 5.33509C17.4625 10.1043 10.3491 16.9752 5.33734 25.1395C3.23565 28.5346 3.1548 32.738 5.17566 36.2138C9.94489 44.5398 16.8158 51.6532 24.9801 56.6649C28.3751 58.7666 32.5785 58.8475 36.0544 56.8266C44.3804 52.0574 51.4938 45.1865 56.5055 37.0222C58.6072 33.6271 58.6881 29.4237 56.6672 25.9479C51.898 17.6219 45.027 10.5085 36.8628 5.49676C35.1652 4.44591 33.2252 3.88007 31.2044 3.88007Z" fill="#575756"/>
<path d="M35.4078 49.1472C35.1653 49.1472 35.0037 49.1472 34.842 49.1472C33.0637 48.9047 31.6895 47.3689 31.6895 45.5097C31.6895 43.1655 31.6895 37.8304 31.6895 32.4145C31.6895 28.3728 31.6895 18.511 31.6895 16.4093V16.0051C31.6895 14.9543 31.932 14.2268 32.4978 13.7417C33.2253 13.0951 34.2762 13.3376 34.842 13.4184C43.7338 15.2776 45.2696 19.3193 45.593 20.5318C47.048 21.3402 47.2097 22.7952 47.048 23.6844C48.7455 25.0586 48.503 27.5644 48.3413 28.5345C49.3922 29.8278 48.8264 31.5253 48.5839 32.2528C49.7964 34.7587 48.7455 36.5371 48.3413 37.1029C48.3413 40.9021 46.563 42.1146 45.593 42.5188C45.3505 45.348 41.0663 47.1264 40.5004 47.3689C38.4796 48.5005 36.8629 49.1472 35.4078 49.1472ZM32.902 32.4145C32.902 37.8304 32.902 43.1655 32.902 45.5097C32.902 46.7222 33.7912 47.773 35.0037 47.9347C36.297 48.0964 37.9137 47.5305 39.7729 46.318L39.9346 46.2372C41.2279 45.7522 44.4613 44.1355 44.3805 42.1146V41.5488L44.9463 41.468C45.0272 41.468 47.2097 40.9829 47.1288 36.9412V36.6987L47.2905 36.5371C47.3713 36.4562 48.6647 34.9204 47.3714 32.5762L47.2097 32.2528L47.3714 31.9295C47.3714 31.9295 48.3414 30.1511 47.2905 29.1003L47.048 28.8578L47.1288 28.5345C47.1288 28.5345 47.8564 25.5436 46.078 24.4119L45.6738 24.1694L45.8355 23.6844C45.9163 23.5227 46.3205 22.1485 44.8655 21.421L44.5421 21.2593V20.936C44.5421 20.936 44.138 16.4901 34.7612 14.5501C34.2762 14.4693 33.7103 14.3076 33.387 14.6309C33.1445 14.7926 32.9828 15.2776 32.9828 15.9243V16.3285C32.902 18.511 32.902 28.2919 32.902 32.4145Z" fill="#575756"/>
<path d="M27.2433 48.9856C26.3541 48.9856 25.2224 48.7431 24.0908 48.2581C23.5249 48.2581 21.1807 48.0964 19.6449 45.7522C19.2407 45.7522 18.594 45.5906 17.9473 45.1056C17.3007 44.5397 16.8965 43.6506 16.8157 42.438C16.169 42.1147 15.0373 41.468 14.4715 40.2555C14.1481 39.528 14.0673 38.7197 14.3098 37.9113C13.8248 37.3455 13.0164 36.1329 13.0973 34.7588C13.1781 34.0313 13.4206 33.4654 13.9056 32.8996C13.5014 32.3337 12.8548 31.4446 12.9356 30.3937C12.9356 29.5854 13.259 28.8579 13.9865 28.2112C13.5823 27.0795 13.4206 25.1395 14.8756 23.927C14.7948 23.2803 14.714 21.9061 15.4415 21.0169C15.7648 20.5319 16.3307 20.2086 16.8965 20.0469C16.9773 18.7535 17.5432 16.9752 19.8065 16.4093C20.1299 15.5202 21.3424 13.4185 24.9799 13.4993C25.6266 13.2568 27.89 12.4485 29.4258 13.4185C30.2342 13.9035 30.5575 14.7927 30.5575 16.0052V45.9139C30.5575 47.2881 29.5875 48.5006 28.2942 48.7431C27.89 48.9048 27.5666 48.9856 27.2433 48.9856ZM24.2524 47.0456L24.4141 47.1264C25.8691 47.6923 27.0008 47.8539 27.9708 47.6923C28.6983 47.5306 29.2642 46.8031 29.2642 45.9948V16.086C29.2642 15.2777 29.0217 14.7927 28.6175 14.5502C27.7283 13.9035 25.8691 14.4693 25.2224 14.7927L25.0608 14.8735H24.8991C21.2616 14.631 20.6957 17.056 20.6957 17.1369L20.6149 17.541L20.2107 17.6219C17.7857 18.026 17.9473 20.2894 17.9473 20.5319L18.0282 21.1786H17.3815C16.8157 21.1786 16.4923 21.3402 16.2498 21.6636C15.7648 22.3103 15.8457 23.6036 16.0073 24.0078L16.0882 24.412L15.7648 24.6545C14.1481 25.7861 15.1181 27.9687 15.199 28.1303L15.3607 28.5345L15.0373 28.8578C14.4715 29.3429 14.1481 29.8279 14.1481 30.3937C14.1481 31.5254 15.199 32.4954 15.199 32.4954L15.7648 32.9804L15.199 33.4654C14.6331 33.8696 14.3906 34.3546 14.3098 34.8396C14.229 36.0521 15.4415 37.3455 15.4415 37.3455L15.684 37.588L15.5223 37.9921C15.2798 38.6388 15.2798 39.2047 15.5223 39.7705C16.0882 40.9022 17.5432 41.468 17.624 41.468L18.0282 41.6297V42.0339C18.0282 43.0847 18.2707 43.8122 18.7557 44.2164C19.2407 44.6206 19.8874 44.6206 19.8874 44.6206L20.2916 44.5397L20.5341 44.8631C21.8274 47.1264 24.0908 47.0456 24.1716 47.0456H24.2524Z" fill="#575756"/>
<path d="M17.3818 25.3013C16.0077 25.3013 14.876 24.1696 14.876 22.7954C14.876 21.4212 16.0077 20.2896 17.3818 20.2896C18.756 20.2896 19.8877 21.4212 19.8877 22.7954C19.8877 24.1696 18.756 25.3013 17.3818 25.3013ZM17.3818 21.5021C16.6543 21.5021 16.0885 22.0679 16.0885 22.7954C16.0885 23.5229 16.6543 24.0888 17.3818 24.0888C18.1094 24.0888 18.6752 23.5229 18.6752 22.7954C18.6752 22.0679 18.1094 21.5021 17.3818 21.5021Z" fill="#575756"/>
<path d="M24.8175 19.7237C23.6858 19.7237 22.7158 18.7536 22.7158 17.622C22.7158 16.4903 23.6858 15.5203 24.8175 15.5203C25.9492 15.5203 26.9192 16.4903 26.9192 17.622C26.9192 18.7536 26.03 19.7237 24.8175 19.7237ZM24.8175 16.7328C24.3325 16.7328 23.9283 17.137 23.9283 17.622C23.9283 18.107 24.3325 18.5111 24.8175 18.5111C25.3025 18.5111 25.7067 18.107 25.7067 17.622C25.7067 17.137 25.3025 16.7328 24.8175 16.7328Z" fill="#575756"/>
<path d="M23.5249 32.0911C21.6657 32.0911 20.1299 30.5553 20.1299 28.6961C20.1299 26.8369 21.6657 25.301 23.5249 25.301C25.3841 25.301 26.92 26.8369 26.92 28.6961C26.92 30.5553 25.465 32.0911 23.5249 32.0911ZM23.5249 26.5135C22.3124 26.5135 21.3424 27.4836 21.3424 28.6961C21.3424 29.9086 22.3124 30.8786 23.5249 30.8786C24.7375 30.8786 25.7075 29.9086 25.7075 28.6961C25.7075 27.4836 24.7375 26.5135 23.5249 26.5135Z" fill="#575756"/>
<path d="M15.8455 37.9114C14.4713 37.9114 13.2588 36.7798 13.2588 35.3247C13.2588 33.8697 14.3905 32.738 15.8455 32.738C17.3005 32.738 18.4322 33.8697 18.4322 35.3247C18.4322 36.7798 17.2197 37.9114 15.8455 37.9114ZM15.8455 33.9506C15.118 33.9506 14.4713 34.5164 14.4713 35.3247C14.4713 36.1331 15.0372 36.6989 15.8455 36.6989C16.6538 36.6989 17.2197 36.1331 17.2197 35.3247C17.2197 34.5164 16.573 33.9506 15.8455 33.9506Z" fill="#575756"/>
<path d="M24.3337 46.2371C22.717 46.2371 21.3428 44.9438 21.3428 43.2462C21.3428 41.6296 22.6361 40.2554 24.3337 40.2554C25.9503 40.2554 27.3245 41.5487 27.3245 43.2462C27.3245 44.8629 26.0312 46.2371 24.3337 46.2371ZM24.3337 41.5487C23.3636 41.5487 22.5553 42.3571 22.5553 43.3271C22.5553 44.2971 23.3636 45.1054 24.3337 45.1054C25.3037 45.1054 26.112 44.2971 26.112 43.3271C26.112 42.2762 25.3037 41.5487 24.3337 41.5487Z" fill="#575756"/>
<path d="M37.9135 45.5904C36.216 45.5904 34.8418 44.2162 34.8418 42.5187C34.8418 40.8212 36.216 39.447 37.9135 39.447C39.611 39.447 40.9852 40.8212 40.9852 42.5187C40.9044 44.2162 39.5302 45.5904 37.9135 45.5904ZM37.9135 40.7404C36.9435 40.7404 36.0543 41.5487 36.0543 42.5996C36.0543 43.5696 36.8626 44.4588 37.9135 44.4588C38.8835 44.4588 39.7727 43.6504 39.7727 42.5996C39.6918 41.5487 38.8835 40.7404 37.9135 40.7404Z" fill="#575756"/>
<path d="M36.9431 33.6273C35.4881 33.6273 34.3564 32.4956 34.3564 31.0406C34.3564 29.6664 35.4881 28.4539 36.9431 28.4539C38.3173 28.4539 39.5298 29.5855 39.5298 31.0406C39.5298 32.4956 38.3982 33.6273 36.9431 33.6273ZM36.9431 29.7472C36.2156 29.7472 35.569 30.3939 35.569 31.1214C35.569 31.8489 36.2156 32.4956 36.9431 32.4956C37.6706 32.4956 38.3173 31.8489 38.3173 31.1214C38.3173 30.3131 37.6706 29.7472 36.9431 29.7472Z" fill="#575756"/>
<path d="M43.8131 26.2713C42.1156 26.2713 40.8223 24.8971 40.8223 23.2804C40.8223 21.5829 42.1964 20.2896 43.8131 20.2896C45.5106 20.2896 46.804 21.6637 46.804 23.2804C46.804 24.9779 45.4298 26.2713 43.8131 26.2713ZM43.8131 21.5021C42.8431 21.5021 42.0348 22.3104 42.0348 23.2804C42.0348 24.2504 42.8431 25.0588 43.8131 25.0588C44.7831 25.0588 45.5915 24.2504 45.5915 23.2804C45.5915 22.3104 44.7831 21.5021 43.8131 21.5021Z" fill="#575756"/>
<path d="M36.2962 23.038C34.7604 23.038 33.5479 21.8255 33.5479 20.2896C33.5479 18.7538 34.7604 17.5413 36.2962 17.5413C37.8321 17.5413 39.0446 18.7538 39.0446 20.2896C39.0446 21.8255 37.8321 23.038 36.2962 23.038ZM36.2962 18.7538C35.407 18.7538 34.7604 19.4813 34.7604 20.2896C34.7604 21.098 35.4879 21.8255 36.2962 21.8255C37.1854 21.8255 37.8321 21.098 37.8321 20.2896C37.8321 19.4813 37.1046 18.7538 36.2962 18.7538Z" fill="#575756"/>
<path d="M23.9866 19.2206L22.9639 25.7695L24.1618 25.9566L25.1846 19.4077L23.9866 19.2206Z" fill="#575756"/>
<path d="M26.4307 28.539L26.1846 29.7263L34.9706 31.5478L35.2167 30.3605L26.4307 28.539Z" fill="#575756"/>
<path d="M24.3585 31.739L23.1484 31.8149L23.7256 41.0116L24.9357 40.9357L24.3585 31.739Z" fill="#575756"/>
<path d="M21.0485 30.0802L17.0195 33.4524L17.7977 34.3822L21.8267 31.01L21.0485 30.0802Z" fill="#575756"/>
<path d="M19.3126 23.8497L18.4785 24.7297L20.884 27.0096L21.7181 26.1295L19.3126 23.8497Z" fill="#575756"/>
<path d="M37.8168 33.0266L36.6074 33.1133L37.093 39.8857L38.3024 39.799L37.8168 33.0266Z" fill="#575756"/>
<path d="M41.6162 24.7031L37.8262 29.3306L38.7642 30.0988L42.5542 25.4713L41.6162 24.7031Z" fill="#575756"/>
<path d="M37.1177 22.518L35.9082 22.604L36.3726 29.1352L37.5821 29.0492L37.1177 22.518Z" fill="#575756"/>
<path d="M43.2485 38.2349C43.1676 38.2349 43.0868 38.2349 43.0059 38.154C42.6826 37.9924 42.6018 37.669 42.7635 37.3457C43.1676 36.6182 43.7335 36.0524 44.461 35.8907C46.0777 35.4057 47.856 36.3757 47.9369 36.3757C48.2602 36.5374 48.341 36.8607 48.1794 37.184C48.0177 37.5074 47.6944 37.5882 47.371 37.4265C47.371 37.4265 45.916 36.699 44.8652 37.0224C44.461 37.184 44.0568 37.4265 43.8951 37.9115C43.6526 38.0732 43.491 38.2349 43.2485 38.2349Z" fill="#575756"/>
<path d="M44.7039 32.3341C44.4614 32.3341 44.2189 32.1724 44.1381 31.9299C43.7339 30.9599 43.9764 30.2324 44.2189 29.8282C45.0272 28.454 47.2097 28.0498 47.4522 28.0498C47.7756 27.969 48.0989 28.2115 48.1798 28.5349C48.2606 28.8582 48.0181 29.1815 47.6948 29.2624C47.2098 29.3432 45.7547 29.7474 45.2697 30.4749C45.1889 30.6365 45.0272 30.9599 45.2697 31.5257C45.4314 31.8491 45.2697 32.1724 44.9464 32.3341C44.8656 32.3341 44.7847 32.3341 44.7039 32.3341Z" fill="#575756"/>
<path d="M29.8297 39.5281C29.5872 39.5281 29.4255 39.4473 29.2639 39.2048C29.2639 39.2048 28.213 37.2648 26.8388 36.7797C26.5155 36.6989 26.3538 36.2947 26.4347 35.9714C26.5155 35.6481 26.9197 35.4864 27.243 35.5672C29.1022 36.2139 30.3147 38.4773 30.3956 38.5581C30.5572 38.8814 30.4764 39.2048 30.1531 39.3664C30.0722 39.5281 29.9106 39.5281 29.8297 39.5281Z" fill="#575756"/>
<path d="M17.4619 29.747C17.2194 29.747 17.0577 29.6661 16.8961 29.4236C16.6536 28.8578 16.3302 28.6153 16.0069 28.5345C15.6027 28.4536 15.1986 28.777 15.0369 28.8578C14.7944 29.1003 14.3902 29.1003 14.1477 28.8578C13.9052 28.6153 13.9052 28.2111 14.1477 27.9686C14.2285 27.8878 15.1177 27.1603 16.1686 27.3219C16.8961 27.4836 17.5427 27.9686 17.9469 28.8578C18.1086 29.1811 17.9469 29.5045 17.7044 29.6661C17.7044 29.6661 17.5427 29.747 17.4619 29.747Z" fill="#575756"/>
<path d="M32.2551 44.5398C31.9317 44.5398 31.6892 44.2973 31.6084 43.974C31.6084 43.8123 31.6084 40.4173 34.1142 38.5581C34.3567 38.3964 34.7609 38.3964 34.9226 38.7198C35.0843 38.9623 35.0843 39.3664 34.7609 39.5281C32.7401 41.064 32.7401 43.8932 32.7401 43.974C32.9017 44.2165 32.5784 44.5398 32.2551 44.5398Z" fill="#575756"/>
<path d="M38.3176 17.2178C37.9134 17.137 37.6709 16.8945 37.7518 16.5711C37.8326 16.0861 36.9434 15.2778 36.2159 14.9544C35.8926 14.7928 35.8117 14.3886 35.9734 14.1461C36.1351 13.8228 36.5393 13.7419 36.7818 13.9036C37.1859 14.1461 39.0451 15.2778 38.8835 16.7328C38.8835 16.9753 38.6409 17.2178 38.3176 17.2178Z" fill="#575756"/>
<path d="M17.3813 42.5995C17.1388 42.5995 16.8155 42.4379 16.8155 42.1145C16.7346 41.7912 16.9771 41.4679 17.3005 41.387C17.3813 41.387 19.6447 40.8212 19.4022 36.8603C19.4022 36.537 19.6447 36.2136 19.968 36.2136C20.2913 36.2136 20.6147 36.4561 20.6147 36.7795C20.938 41.7912 17.7046 42.5187 17.543 42.5995C17.4621 42.5995 17.4622 42.5995 17.3813 42.5995Z" fill="#575756"/>
<path d="M44.8645 42.5994C44.7837 42.5994 44.7029 42.5994 44.622 42.5185C44.4603 42.4377 41.5503 41.306 40.4995 38.5576C39.8528 37.0218 39.9336 35.2434 40.742 33.3842C40.9036 33.0609 41.227 32.9801 41.5503 33.0609C41.8737 33.2226 42.0353 33.5459 41.8737 33.8692C41.227 35.4051 41.1462 36.8601 41.6312 38.0726C42.5203 40.336 45.107 41.306 45.107 41.306C45.4304 41.4677 45.592 41.791 45.4304 42.1143C45.3495 42.5185 45.107 42.5994 44.8645 42.5994Z" fill="#575756"/>
<path d="M28.0511 21.6635C27.8894 21.6635 27.7278 21.6635 27.5661 21.5827C27.2428 21.5019 27.0003 21.1785 27.0811 20.8552C27.1619 20.5319 27.4853 20.2894 27.8086 20.3702C28.8594 20.5319 29.1828 19.2385 29.2636 19.0768C29.3444 18.7535 29.6678 18.511 29.9911 18.5918C30.3145 18.6727 30.4761 18.996 30.4761 19.3193C30.2336 20.2894 29.5061 21.6635 28.0511 21.6635Z" fill="#575756"/>
</svg>
