<svg width="65" height="65" viewBox="0 0 65 65" fill="none" xmlns="http://www.w3.org/2000/svg">
<path d="M31.9171 63.8999C29.1687 63.8999 26.582 63.1724 24.2378 61.7174C15.5077 56.3823 8.23262 48.7839 3.14005 39.8921C0.472515 35.2037 0.553351 29.5453 3.38256 24.9377C8.71763 16.2076 16.3161 8.9325 25.2078 3.83994C27.3904 2.54658 29.8962 1.8999 32.4829 1.8999C35.2313 1.8999 37.818 2.62742 40.1622 4.08244C48.8923 9.41751 56.1674 17.0159 61.26 25.9077C63.9275 30.5961 63.8467 36.2545 61.0175 40.8621C55.6824 49.5922 48.084 56.8673 39.1922 61.9599C36.9288 63.1724 34.423 63.8999 31.9171 63.8999ZM32.4021 3.19326C30.0579 3.19326 27.7945 3.83993 25.7737 4.97161C17.0436 9.98335 9.68764 17.0968 4.4334 25.6652C1.8467 29.8686 1.76587 35.042 4.1909 39.3262C9.20263 48.0564 16.3161 55.4123 24.8845 60.6665C26.9862 61.9599 29.4112 62.6065 31.9171 62.6065C34.2613 62.6065 36.5247 61.9599 38.5455 60.8282C47.2756 55.8164 54.6316 48.703 59.8858 40.1346C62.4725 36.012 62.5533 30.7578 60.1283 26.4736C55.1974 17.7434 48.0031 10.3875 39.4347 5.13328C37.333 3.92076 34.908 3.19326 32.4021 3.19326Z" fill="#666666"/>
<path d="M58.2697 27.6054C53.5005 19.1987 46.5488 12.0852 38.3036 6.99265C34.8278 4.81012 30.3819 4.81012 26.8251 6.83098C18.4184 11.6002 11.3049 18.552 6.21238 26.7971C4.02985 30.273 4.02985 34.7188 6.05071 38.2756C10.8199 46.6823 17.7717 53.7958 26.0168 58.8883C29.4927 61.0709 33.9386 61.0709 37.4953 59.05C45.9021 54.2808 53.0155 47.329 58.1081 39.0839C60.2098 35.608 60.2906 31.1621 58.2697 27.6054Z" fill="white"/>
<path d="M31.9176 60.909C29.8159 60.909 27.7142 60.3432 25.7742 59.2115C17.4482 54.119 10.4965 46.9247 5.72723 38.4371C3.62554 34.7187 3.70637 30.192 5.8889 26.5544C10.9815 18.2285 18.1757 11.2767 26.6633 6.50751C30.3817 4.40581 34.9084 4.48664 38.546 6.66917C46.8719 11.7617 53.8237 18.956 58.5929 27.4436C60.6946 31.162 60.6138 35.6887 58.4313 39.3263C53.3387 47.6522 46.1444 54.604 37.6568 59.3732C35.8785 60.424 33.9384 60.909 31.9176 60.909ZM32.4026 5.69916C30.5434 5.69916 28.6842 6.18416 26.9867 7.15417C18.6607 11.9234 11.5473 18.7943 6.53558 26.9586C4.43388 30.3536 4.35304 34.557 6.3739 38.0329C11.1431 46.3589 18.0141 53.4723 26.1783 58.484C29.5734 60.5857 33.7768 60.6666 37.2527 58.6457C45.5786 53.8765 52.692 47.0055 57.7038 38.8413C59.8055 35.4462 59.8863 31.2428 57.8654 27.7669C53.0962 19.441 46.2253 12.3276 38.061 7.31585C36.3635 6.265 34.4234 5.69916 32.4026 5.69916Z" fill="#666666"/>
<path d="M18.6601 36.1737C17.8518 36.1737 17.2051 35.527 17.2051 34.7186V25.746C17.2051 24.9377 17.8518 24.291 18.6601 24.291C19.4684 24.291 20.1959 24.9377 20.1959 25.746V34.7186C20.1151 35.527 19.4684 36.1737 18.6601 36.1737Z" fill="#666666"/>
<path d="M18.6603 24.8566C19.1453 24.8566 19.5495 25.2607 19.5495 25.7457V34.7184C19.5495 35.2034 19.1453 35.6075 18.6603 35.6075C18.1753 35.6075 17.7711 35.2034 17.7711 34.7184V25.7457C17.7711 25.2607 18.1753 24.8566 18.6603 24.8566ZM18.6603 23.644C17.4478 23.644 16.5586 24.6141 16.5586 25.7457V34.7184C16.5586 35.85 17.5286 36.8201 18.6603 36.8201C19.792 36.8201 20.762 35.85 20.762 34.7184V25.7457C20.762 24.5332 19.792 23.644 18.6603 23.644Z" fill="#666666"/>
<path d="M25.1259 36.1733C24.3176 36.1733 23.6709 35.5266 23.6709 34.7182V23.8056C23.6709 22.9973 24.3176 22.3506 25.1259 22.3506C25.9343 22.3506 26.6618 22.9973 26.6618 23.8056V34.7182C26.5809 35.5266 25.9343 36.1733 25.1259 36.1733Z" fill="#666666"/>
<path d="M25.1261 22.9171C25.6111 22.9171 26.0153 23.3213 26.0153 23.8063V34.7189C26.0153 35.2039 25.6111 35.6081 25.1261 35.6081C24.6411 35.6081 24.2369 35.2039 24.2369 34.7189V23.8063C24.2369 23.3213 24.6411 22.9171 25.1261 22.9171ZM25.1261 21.7046C23.9136 21.7046 23.0244 22.6746 23.0244 23.8063V34.7189C23.0244 35.8506 23.9944 36.8206 25.1261 36.8206C26.2578 36.8206 27.2278 35.8506 27.2278 34.7189V23.8063C27.2278 22.5938 26.2578 21.7046 25.1261 21.7046Z" fill="#666666"/>
<path d="M31.5927 36.1734C30.7844 36.1734 30.1377 35.5267 30.1377 34.7183V21.8657C30.1377 21.0573 30.7844 20.4106 31.5927 20.4106C32.4011 20.4106 33.1286 21.0573 33.1286 21.8657V34.7183C33.0477 35.5267 32.4011 36.1734 31.5927 36.1734Z" fill="#666666"/>
<path d="M31.5929 20.9772C32.0779 20.9772 32.4821 21.3813 32.4821 21.8663V34.719C32.4821 35.204 32.0779 35.6082 31.5929 35.6082C31.1079 35.6082 30.7037 35.204 30.7037 34.719V21.8663C30.7037 21.3813 31.1079 20.9772 31.5929 20.9772ZM31.5929 19.7646C30.3804 19.7646 29.4912 20.7347 29.4912 21.8663V34.719C29.4912 35.8507 30.4612 36.8207 31.5929 36.8207C32.7246 36.8207 33.6946 35.8507 33.6946 34.719V21.8663C33.6946 20.6538 32.7246 19.7646 31.5929 19.7646Z" fill="#666666"/>
<path d="M38.0595 36.1734C37.2512 36.1734 36.6045 35.5268 36.6045 34.7184V19.9257C36.6045 19.1174 37.2512 18.4707 38.0595 18.4707C38.8679 18.4707 39.5954 19.1174 39.5954 19.9257V34.7184C39.5145 35.5268 38.8679 36.1734 38.0595 36.1734Z" fill="white"/>
<path d="M38.0597 19.0372C38.5447 19.0372 38.9489 19.4414 38.9489 19.9264V34.7191C38.9489 35.2041 38.5447 35.6083 38.0597 35.6083C37.5747 35.6083 37.1705 35.2041 37.1705 34.7191V19.9264C37.1705 19.4414 37.5747 19.0372 38.0597 19.0372ZM38.0597 17.8247C36.8472 17.8247 35.958 18.7947 35.958 19.9264V34.7191C35.958 35.8508 36.928 36.8208 38.0597 36.8208C39.1914 36.8208 40.1614 35.8508 40.1614 34.7191V19.9264C40.1614 18.7139 39.1914 17.8247 38.0597 17.8247Z" fill="#666666"/>
<path d="M44.5263 36.173C43.718 36.173 43.0713 35.5264 43.0713 34.718V17.9853C43.0713 17.1769 43.718 16.5303 44.5263 16.5303C45.3347 16.5303 46.0622 17.1769 46.0622 17.9853V34.718C45.9813 35.5264 45.3347 36.173 44.5263 36.173Z" fill="white"/>
<path d="M44.5265 17.0963C45.0115 17.0963 45.4157 17.5005 45.4157 17.9855V34.7182C45.4157 35.2032 45.0115 35.6074 44.5265 35.6074C44.0415 35.6074 43.6373 35.2032 43.6373 34.7182V17.9855C43.6373 17.5005 44.0415 17.0963 44.5265 17.0963ZM44.5265 15.8838C43.314 15.8838 42.4248 16.8538 42.4248 17.9855V34.7182C42.4248 35.8499 43.3948 36.8199 44.5265 36.8199C45.6582 36.8199 46.6282 35.8499 46.6282 34.7182V17.9855C46.6282 16.7729 45.6582 15.8838 44.5265 15.8838Z" fill="#666666"/>
<path d="M29.3301 46.6015L32.2401 41.9131L35.0693 46.6015H29.3301Z" fill="#666666"/>
<path d="M52.4492 40.2153H12.032C11.6278 40.2153 11.2236 39.892 11.2236 39.407C11.2236 38.922 11.547 38.5986 12.032 38.5986H52.4492C52.8534 38.5986 53.2575 38.922 53.2575 39.407C53.2575 39.892 52.8534 40.2153 52.4492 40.2153Z" fill="#666666"/>
</svg>
