<svg width="63" height="63" viewBox="0 0 63 63" fill="none" xmlns="http://www.w3.org/2000/svg">
<path d="M31.6163 62.8999C28.8679 62.8999 26.2812 62.1724 23.937 60.7174C15.2069 55.3823 7.93184 47.7839 2.83927 38.8921C0.171733 34.2037 0.25257 28.5453 3.08177 23.9377C8.41685 15.2076 16.0153 7.9325 24.9071 2.83994C27.0896 1.54658 29.5955 0.899902 32.1822 0.899902C34.9305 0.899902 37.5172 1.62742 39.8614 3.08244C48.5915 8.41751 55.8666 16.0159 60.9592 24.9077C63.6268 29.5961 63.5459 35.2545 60.7167 39.8621C55.3816 48.5922 47.7832 55.8673 38.8914 60.9599C36.628 62.1724 34.1222 62.8999 31.6163 62.8999ZM32.1013 2.19326C29.7571 2.19326 27.4938 2.83993 25.4729 3.97161C16.7428 8.98335 9.38685 16.0968 4.13261 24.6652C1.54591 28.7878 1.46509 34.042 3.89012 38.3262C8.82102 47.0564 16.0153 54.4123 24.5837 59.6665C26.6854 60.9599 29.1104 61.6065 31.6163 61.6065C33.9605 61.6065 36.2239 60.9599 38.2447 59.8282C46.9749 54.8164 54.3308 47.703 59.585 39.1346C62.1717 35.012 62.2525 29.7578 59.8275 25.4736C54.8966 16.7434 47.7024 9.38752 39.1339 4.13328C37.0322 2.92076 34.6072 2.19326 32.1013 2.19326Z" fill="#666666"/>
<path d="M57.969 26.6054C53.1997 18.1987 46.248 11.0852 38.0028 5.99265C34.527 3.81012 30.0811 3.81012 26.5244 5.83098C18.1176 10.6002 11.0042 17.552 5.9116 25.7971C3.72907 29.273 3.72906 33.7188 5.74992 37.2756C10.5192 45.6823 17.4709 52.7958 25.716 57.8883C29.1919 60.0709 33.6378 60.0709 37.1945 58.05C45.6013 53.2808 52.7147 46.329 57.8073 38.0839C59.909 34.608 59.9898 30.1621 57.969 26.6054Z" fill="white"/>
<path d="M31.6168 59.909C29.5151 59.909 27.4134 59.3432 25.4734 58.2115C17.1474 53.119 10.1957 45.9247 5.42645 37.4371C3.32476 33.7187 3.40559 29.192 5.58812 25.5544C10.6807 17.2285 17.8749 10.2767 26.3626 5.50751C30.0809 3.40581 34.6077 3.48664 38.2452 5.66917C46.5712 10.7617 53.5229 17.956 58.2921 26.4436C60.3938 30.162 60.313 34.6887 58.1305 38.3263C53.0379 46.6522 45.8437 53.604 37.356 58.3732C35.5777 59.424 33.6377 59.909 31.6168 59.909ZM32.1018 4.69916C30.2426 4.69916 28.3834 5.18416 26.6859 6.15417C18.36 10.9234 11.2465 17.7943 6.2348 25.9586C4.1331 29.3536 4.05227 33.557 6.07313 37.0329C10.8424 45.3589 17.7133 52.4723 25.8776 57.484C29.2726 59.5857 33.476 59.6666 36.9519 57.6457C45.2778 52.8765 52.3912 46.0055 57.403 37.8413C59.5047 34.4462 59.5855 30.2428 57.5646 26.7669C52.7954 18.441 45.9245 11.3276 37.7602 6.31585C36.0627 5.265 34.1227 4.69916 32.1018 4.69916Z" fill="#666666"/>
<mask id="mask0_4227_616" style="mask-type:luminance" maskUnits="userSpaceOnUse" x="23" y="9" width="18" height="21">
<path d="M40.0231 9.7915H23.0479V29.5151H40.0231V9.7915Z" fill="white"/>
</mask>
<g mask="url(#mask0_4227_616)">
<path d="M36.0617 11.4893C33.96 12.5401 31.1308 13.5909 28.9483 13.8335L31.2924 14.8035C31.2116 14.8843 31.1308 14.9651 31.0499 15.1268C30.8074 15.4501 30.5649 15.9352 30.2416 16.4202C29.9183 16.9052 29.5949 17.5518 29.2716 18.1985C29.1099 18.5218 28.9482 18.8452 28.7866 19.2494C28.6249 19.5727 28.4632 19.9769 28.3016 20.381C28.1399 20.7852 27.9782 21.1894 27.8166 21.5936C27.6549 21.9977 27.5741 22.4827 27.4124 22.8869C27.2507 23.2911 27.1699 23.7761 27.0891 24.2611C27.0082 24.5036 27.0082 24.7461 26.9274 24.9886C26.9274 25.2311 26.8466 25.4736 26.8466 25.7161C26.7657 26.2011 26.6849 26.6861 26.604 27.1711V27.4136V27.5753V27.8986L26.5232 28.6262L26.4424 29.3537C26.4424 29.5962 26.4424 29.8387 26.4424 30.0812C26.4424 30.5662 26.4424 31.0512 26.4424 31.5362C26.5232 32.0212 26.5232 32.5062 26.604 32.9104C26.604 33.1529 26.6849 33.3954 26.6849 33.6379C26.6849 33.8804 26.7657 34.1229 26.7657 34.2846C26.8465 34.6887 26.9274 35.1737 27.0082 35.5779C27.0891 35.9821 27.2507 36.3862 27.3316 36.7904C27.4932 37.5988 27.8166 38.3263 27.9782 38.973C28.2207 39.6196 28.4632 40.2663 28.7057 40.7513C28.7866 40.9938 28.9482 41.2363 29.0291 41.4788C29.1099 41.7213 29.2716 41.883 29.3524 42.1255C29.7566 42.853 29.9991 43.2572 29.9991 43.2572C29.9991 43.338 30.0799 43.338 30.1608 43.338C30.2416 43.338 30.2416 43.2572 30.2416 43.1764C30.2416 43.1764 30.0799 42.7722 29.7566 41.9638C29.6758 41.8022 29.5949 41.5597 29.5141 41.3171C29.4333 41.0746 29.3524 40.8321 29.2716 40.5896C29.1099 40.0238 28.8674 39.458 28.7057 38.7305C28.5441 38.0838 28.3824 37.3563 28.2207 36.5479C28.1399 36.1438 28.0591 35.7396 28.0591 35.3354C28.0591 34.9312 27.9782 34.5271 27.9782 34.0421C27.9782 33.7995 27.9782 33.6379 27.8974 33.3954C27.8974 33.1529 27.8974 32.9912 27.8974 32.7487C27.8974 32.3445 27.8974 31.8595 27.8974 31.3745C27.8974 30.9704 27.9782 30.4853 27.9782 30.0003C27.9782 29.7578 27.9782 29.5962 28.0591 29.3537L28.1399 28.6262L28.2207 27.8986L28.3016 27.5753V27.4136V27.3328V27.252C28.3824 26.767 28.4632 26.3628 28.6249 25.9586C28.7057 25.7161 28.7057 25.5544 28.7866 25.3119C28.8674 25.0694 28.9483 24.9078 28.9483 24.6653C29.1099 24.2611 29.1908 23.8569 29.3524 23.4527C29.5141 23.0486 29.6758 22.6444 29.7566 22.3211C29.9183 21.9169 30.0799 21.5936 30.2416 21.2702C30.4033 20.9469 30.5649 20.6235 30.7266 20.3002C30.8883 19.9769 31.0499 19.6535 31.2116 19.411C31.5349 18.8452 31.8583 18.2793 32.1816 17.8752C32.505 17.471 32.7475 17.0668 32.99 16.7435L34.1217 18.8452C34.2833 16.501 35.1725 13.591 36.0617 11.4893Z" fill="#808285"/>
<path d="M30.0802 43.4998C29.9186 43.4998 29.7569 43.4189 29.6761 43.2573L28.7869 41.4789C28.7061 41.3173 28.6252 41.1556 28.5444 40.9939L28.4636 40.7514C28.3827 40.5898 28.3019 40.4281 28.2211 40.2664C28.0594 39.8622 27.8169 39.3772 27.6552 38.8922L27.5744 38.5689C27.3319 38.0031 27.1702 37.3564 27.0085 36.6289L26.9277 36.3055C26.8469 35.9822 26.766 35.7397 26.6852 35.4164L26.3619 33.3955L26.2002 31.1321V29.5963C26.2002 29.4346 26.2002 29.2729 26.2002 29.1113L26.3619 26.9287C26.3619 26.6054 26.4427 26.2821 26.5235 25.9587L26.8469 24.0995C26.8469 23.9379 26.9277 23.7762 26.9277 23.6954C27.0085 23.372 27.0894 23.0487 27.1702 22.7253L27.6552 21.1895L28.0594 20.2195C28.1402 19.8961 28.3019 19.6537 28.3827 19.3303L28.4636 19.0878C28.5444 18.9261 28.5444 18.8453 28.6252 18.6836C28.7061 18.4411 28.8677 18.1986 28.9486 17.9561C29.0294 17.7944 29.1102 17.5519 29.2719 17.3903C29.5144 16.9861 29.6761 16.5011 29.9186 16.1778L30.2419 15.6928C30.4036 15.3694 30.6461 15.0461 30.8078 14.8844L28.8677 14.0761C28.7061 13.9952 28.6252 13.9144 28.7061 13.7527C28.7869 13.5911 28.8677 13.5102 29.0294 13.5102C31.3736 13.2677 34.2836 12.136 36.062 11.2469C36.1428 11.166 36.3045 11.2469 36.4662 11.3277C36.547 11.4085 36.6278 11.5702 36.547 11.651C35.7387 13.5102 34.8495 16.5011 34.7686 18.8453C34.7686 19.007 34.6878 19.0878 34.5261 19.1686C34.3645 19.1686 34.2028 19.1686 34.2028 19.007L33.3136 17.3095C33.2328 17.3903 33.152 17.4711 33.0711 17.6328C32.9903 17.7945 32.9095 17.9561 32.7478 18.037C32.5053 18.2795 32.3436 18.6836 32.1011 19.007C32.0203 19.1686 31.8586 19.3303 31.7778 19.5728C31.6969 19.7345 31.5353 19.977 31.4544 20.1387C31.3736 20.2195 31.3736 20.3812 31.2928 20.462L31.1311 20.7045C30.9694 20.947 30.8886 21.1895 30.7269 21.432L30.0802 23.0487L29.8377 23.6954C29.7569 23.9379 29.6761 24.1804 29.5952 24.5037C29.5144 24.6654 29.5144 24.827 29.4336 24.9079L28.9486 26.6054C28.8677 26.9287 28.7869 27.1712 28.7869 27.4946V27.5754L28.4636 29.4346C28.4636 29.5963 28.4636 29.6771 28.4636 29.8388L28.3827 31.4555L28.4636 34.5272L28.5444 35.2547C28.5444 35.4972 28.6252 35.7397 28.6252 35.9822C28.6252 36.1439 28.7061 36.3055 28.7061 36.4672C28.7869 37.1139 28.9486 37.7606 29.1102 38.3264L29.1911 38.6497C29.2719 39.1347 29.4336 39.5389 29.5144 39.9431C29.5952 40.1048 29.5952 40.2664 29.6761 40.4281L29.7569 40.7514C29.8378 40.9131 29.8377 41.0747 29.9186 41.2364L30.6461 43.0148C30.7269 43.0956 30.7269 43.2573 30.6461 43.3381C30.5653 43.419 30.4844 43.4998 30.4036 43.5806C30.1611 43.4998 30.0802 43.4998 30.0802 43.4998ZM30.0802 13.9144L31.3736 14.4802C31.4544 14.4802 31.5353 14.5611 31.5353 14.7227C31.5353 14.8844 31.5353 14.8844 31.4544 14.9652L31.2119 15.2886C31.0503 15.5311 30.8886 15.7736 30.6461 16.0969L30.3228 16.5819C30.0803 16.9053 29.9186 17.3094 29.6761 17.7944C29.5952 17.9561 29.5144 18.1986 29.3527 18.3603C29.2719 18.6028 29.1102 18.7645 29.0294 19.007C28.9486 19.1686 28.9486 19.2495 28.8677 19.4111L28.7869 19.6536C28.7061 19.8961 28.5444 20.2195 28.4636 20.462L27.9785 21.6745L27.5744 22.887C27.4935 23.2104 27.4127 23.5337 27.3319 23.7762C27.3319 23.9379 27.251 24.0995 27.251 24.2612L26.9277 26.0396C26.8469 26.3629 26.8469 26.6862 26.766 27.0096L26.6044 29.1113C26.6044 29.2729 26.6044 29.4346 26.6044 29.5963V31.2938L26.9277 34.0422L27.1702 35.3355C27.251 35.6589 27.3319 35.9014 27.4127 36.2247L27.4936 36.548C27.6552 37.1947 27.8169 37.8414 28.0594 38.4072L28.1402 38.7306C28.2211 38.8922 28.2211 39.0539 28.3019 39.2156C28.2211 39.0539 28.2211 38.8922 28.2211 38.7306L28.1402 38.4072C27.9786 37.8414 27.8169 37.1947 27.7361 36.4672C27.7361 36.3055 27.6552 36.1439 27.6552 35.9822C27.6552 35.7397 27.5744 35.4972 27.5744 35.2547L27.4127 32.668V31.2938L27.4936 29.6771C27.4936 29.5154 27.4935 29.3538 27.5744 29.1921L27.8977 27.2521V27.1712V27.0904C27.9786 26.7671 28.0594 26.4437 28.1402 26.2012L28.6252 24.5037C28.7061 24.342 28.7061 24.1804 28.7869 24.0995C28.8677 23.857 28.9486 23.5337 29.0294 23.2912L29.6761 21.6745L29.9994 21.0278C30.0802 20.7853 30.2419 20.462 30.4036 20.2195L30.5653 19.977C30.6461 19.8961 30.6461 19.7345 30.7269 19.6536C30.8078 19.4111 30.9694 19.2495 31.0503 19.007C31.1311 18.8453 31.2928 18.6836 31.3736 18.4411C31.6161 18.037 31.7778 17.7136 32.0203 17.3903C32.1011 17.2286 32.2628 17.0669 32.3436 16.9861C32.5053 16.7436 32.667 16.5011 32.9095 16.2586C32.9903 16.1778 33.0711 16.0969 33.2328 16.1778C33.3136 16.1778 33.4753 16.2586 33.4753 16.3394L34.0411 17.4711C34.2836 15.6119 34.8495 13.5911 35.4962 11.9744C33.8795 12.8636 31.8586 13.5911 30.0802 13.9144Z" fill="#808285"/>
</g>
<mask id="mask1_4227_616" style="mask-type:luminance" maskUnits="userSpaceOnUse" x="26" y="33" width="19" height="20">
<path d="M44.0637 33.9614H26.6035V52.3108H44.0637V33.9614Z" fill="white"/>
</mask>
<g mask="url(#mask1_4227_616)">
<path d="M40.1843 49.9662C37.9209 49.3195 34.93 48.7537 32.7475 48.9153L34.8492 47.5412C34.7684 47.4603 34.6875 47.3795 34.6067 47.2986C34.2834 47.0561 33.96 46.5711 33.5558 46.167C33.1517 45.682 32.7475 45.197 32.3433 44.5503C32.1008 44.2269 31.9392 43.9036 31.6967 43.5803C31.4542 43.2569 31.2116 42.9336 31.05 42.5294C30.8075 42.1252 30.6458 41.8019 30.4033 41.3977C30.2416 40.9936 29.9991 40.5894 29.8375 40.1852C29.595 39.781 29.4333 39.3769 29.2716 38.8919C29.1908 38.6494 29.11 38.4877 29.0291 38.2452C28.9483 38.0027 28.8674 37.7602 28.7866 37.5985C28.6249 37.1135 28.4633 36.7093 28.3016 36.2243L28.2208 35.9818L28.1399 35.8202L28.0591 35.4968L27.8974 34.8501L27.7358 34.2035C27.6549 33.961 27.6549 33.7185 27.5741 33.476C27.4933 32.991 27.4124 32.5059 27.3316 32.0209C27.3316 31.5359 27.2508 31.0509 27.2508 30.6468C27.2508 30.4043 27.2508 30.1617 27.1699 29.9192C27.1699 29.6767 27.1699 29.4342 27.1699 29.2726C27.1699 28.7876 27.1699 28.3834 27.1699 27.9792C27.1699 27.575 27.2508 27.09 27.2508 26.6859C27.3316 25.8775 27.4124 25.0692 27.5741 24.4225C27.6549 23.695 27.8974 23.0483 27.9783 22.5633C28.0591 22.3208 28.1399 21.9975 28.1399 21.755C28.2208 21.5125 28.3016 21.27 28.3824 21.1083C28.6249 20.3 28.7866 19.8958 28.7866 19.8958C28.7866 19.8149 28.8675 19.8149 28.9483 19.8149C29.0291 19.8149 29.0291 19.8958 29.0291 19.9766C29.0291 19.9766 28.9483 20.4616 28.7866 21.27C28.7058 21.4316 28.7058 21.6741 28.6249 21.9166C28.5441 22.1591 28.5441 22.4016 28.5441 22.725C28.4633 23.2908 28.3824 23.9375 28.3016 24.5842C28.2208 25.3117 28.2208 26.0392 28.2208 26.8475C28.2208 27.2517 28.2208 27.6559 28.2208 28.0601C28.2208 28.4642 28.3016 28.8684 28.3016 29.3534C28.3016 29.5959 28.3016 29.7576 28.3824 30.0001C28.3824 30.2426 28.4633 30.4043 28.4633 30.6468C28.5441 31.0509 28.6249 31.5359 28.7058 31.9401C28.7866 32.3443 28.9483 32.8293 29.0291 33.2335C29.11 33.476 29.1099 33.6376 29.1908 33.8801L29.4333 34.5268L29.6758 35.1735L29.7566 35.4968L29.8375 35.6585V35.7393V35.8202C29.9991 36.3052 30.1608 36.6285 30.3225 37.0327C30.4033 37.2752 30.4841 37.4368 30.565 37.6793C30.6458 37.841 30.7266 38.0835 30.8883 38.2452C31.1308 38.6494 31.2925 39.0535 31.4541 39.3769C31.6967 39.781 31.8583 40.1044 32.1008 40.4277C32.3433 40.7511 32.5858 41.0744 32.7475 41.3977C32.99 41.7211 33.2325 42.0444 33.3942 42.2869C33.6367 42.6103 33.7983 42.8528 34.0408 43.0953C34.5259 43.5803 34.8492 44.0653 35.2534 44.4694C35.6575 44.8736 35.9 45.197 36.2234 45.4395L36.9509 43.1761C37.5976 45.197 38.8909 47.9453 40.1843 49.9662Z" fill="#808285"/>
<path d="M40.1846 50.2899H40.1037C38.1637 49.724 35.092 49.0774 32.7478 49.239C32.5861 49.239 32.5053 49.1582 32.4245 48.9965C32.3436 48.8349 32.4245 48.6732 32.5861 48.5924L34.3645 47.4607C34.2028 47.299 33.9603 46.9757 33.7178 46.7332L33.3136 46.2482C32.9903 45.9248 32.7478 45.5207 32.4245 45.1973C32.2628 45.0357 32.182 44.874 32.0203 44.7123C31.8586 44.5506 31.697 44.3081 31.6161 44.0656C31.5353 43.9848 31.4545 43.8231 31.3736 43.7423L31.2119 43.4998C31.0503 43.2573 30.8886 42.934 30.7269 42.6915L30.0803 41.5598L29.4336 40.3473C29.2719 40.1048 29.1911 39.7814 29.0294 39.4581C28.9486 39.2964 28.9486 39.2156 28.8678 39.0539L28.2211 37.2755C28.1402 36.9522 27.9786 36.6289 27.8977 36.3055L27.4127 34.2038C27.4127 34.0422 27.3319 33.8805 27.3319 33.7188L27.0894 32.0213L26.9277 29.1921V27.8987C26.9277 27.5754 26.9277 27.2521 27.0086 26.9287V26.6054C27.0086 25.8779 27.1702 25.2312 27.2511 24.6654L27.3319 24.342C27.4127 23.857 27.4936 23.372 27.6552 22.887C27.7361 22.7254 27.7361 22.5637 27.8169 22.402L27.8977 22.0787C27.9786 21.917 27.9786 21.7553 28.0594 21.5937L28.7061 19.7345C28.7869 19.492 29.0294 19.4111 29.1911 19.4111C29.2719 19.4111 29.4336 19.492 29.4336 19.5728C29.5144 19.6536 29.5144 19.8153 29.5144 19.8961L29.1103 21.8362C29.1103 21.9978 29.0294 22.1595 29.0294 22.3212L28.9486 22.6445C28.9486 22.8062 28.8678 22.9679 28.8678 23.1295C28.7869 23.5337 28.7061 24.0187 28.7061 24.4229V24.7462C28.7061 25.312 28.6252 25.9587 28.6252 26.6054V27.0904C28.6252 27.3329 28.6252 27.5754 28.6252 27.8179L28.8678 30.3238L29.1103 31.6171L29.5144 33.153C29.5144 33.3147 29.5953 33.3955 29.5953 33.5572L30.1611 35.3355L30.2419 35.4972C30.3228 35.8205 30.4844 36.063 30.5653 36.3055L31.2928 37.9222C31.3736 38.0839 31.4545 38.1647 31.5353 38.3264C31.697 38.5689 31.7778 38.8114 31.9395 39.0539L32.5861 40.1047L33.2328 41.0748C33.3945 41.3173 33.5562 41.5598 33.7178 41.7214L33.8795 41.964C33.9603 42.0448 34.0412 42.1256 34.122 42.2873C34.2837 42.449 34.3645 42.6106 34.5262 42.7723C34.6878 42.934 34.8495 43.0956 34.9303 43.2573C35.1728 43.5806 35.4962 43.904 35.7387 44.0656C35.9003 44.2273 35.9812 44.3081 36.1429 44.4698C36.2237 44.5506 36.3045 44.6315 36.3854 44.7123L36.9512 42.934C37.032 42.7723 37.1129 42.6915 37.2745 42.6915C37.4362 42.6915 37.517 42.7723 37.5979 42.934C38.0829 45.1973 39.4571 48.0265 40.5887 49.724C40.6696 49.8049 40.6696 49.9665 40.5887 50.1282C40.3462 50.209 40.2654 50.2899 40.1846 50.2899ZM33.8795 48.5115C35.7387 48.5924 37.8404 48.9157 39.4571 49.4007C38.5679 47.9457 37.6787 46.0057 37.1129 44.2273L36.7087 45.4398C36.7087 45.5207 36.6279 45.6015 36.4662 45.6823C36.3854 45.6823 36.2237 45.6823 36.1429 45.6015C35.9003 45.4398 35.6578 45.1973 35.4962 44.9548C35.4153 44.874 35.2537 44.7123 35.092 44.5506C34.8495 44.3081 34.5262 43.9848 34.2837 43.6615C34.122 43.4998 34.0412 43.3381 33.8795 43.1765C33.7178 43.0148 33.5561 42.8531 33.4753 42.6106C33.3945 42.5298 33.3136 42.449 33.2328 42.2873L33.0711 42.0448C32.9095 41.8023 32.7478 41.5598 32.5861 41.3173L31.697 39.8623L31.2928 39.2156C31.1311 38.9731 31.0503 38.7306 30.8886 38.4881C30.8078 38.3264 30.7269 38.2456 30.7269 38.0839L29.9994 36.4672C29.9186 36.2247 29.7569 35.9014 29.6761 35.578V35.4972C29.6761 35.4972 29.6761 35.4972 29.6761 35.4164L29.0294 33.5572C28.9486 33.3955 28.9486 33.2338 28.9486 33.153L28.4636 31.1321L28.1403 28.9496L28.0594 27.6563C28.0594 27.4137 28.0594 27.1713 28.0594 26.9287V26.4437C28.0594 25.7971 28.0594 25.1504 28.1403 24.5037V24.1804C28.1403 24.0187 28.1403 23.857 28.1403 23.6954C28.1403 23.857 28.0594 24.0187 28.0594 24.1804L27.9786 24.5037C27.8977 25.1504 27.7361 25.7162 27.7361 26.4437V26.7671C27.7361 27.0904 27.6552 27.4137 27.6552 27.6563L27.7361 30.3238L27.8977 32.0213L28.1403 33.3955C28.1403 33.5572 28.2211 33.7188 28.2211 33.8805L28.7061 35.9822C28.7869 36.3055 28.8678 36.6289 29.0294 36.9522L29.6761 38.6497C29.7569 38.8114 29.7569 38.8922 29.8378 39.0539C29.9186 39.2964 30.0803 39.6197 30.2419 39.8623L30.8078 41.0748L31.4545 42.2064C31.6161 42.4489 31.7778 42.7723 31.9395 43.0148L32.1011 43.2573C32.182 43.3381 32.2628 43.4998 32.3436 43.5806C32.5053 43.8231 32.5861 43.9848 32.7478 44.1465C32.9095 44.3081 32.9903 44.4698 33.152 44.6315C33.4753 45.0357 33.7178 45.359 33.9603 45.6823C34.122 45.844 34.2028 46.0057 34.3645 46.0865C34.607 46.4098 34.8495 46.6523 35.0112 46.814L35.2537 47.0565C35.3345 47.1373 35.3345 47.2182 35.3345 47.299C35.3345 47.3798 35.2537 47.4607 35.1728 47.5415L33.8795 48.5115Z" fill="#808285"/>
</g>
<path d="M52.3097 24.746C45.6813 26.0393 40.9929 23.1293 35.8195 22.9676C33.7178 22.8868 31.6161 23.1293 29.5144 23.5335H29.4336H29.3528C27.3319 24.0185 25.311 24.746 23.4519 25.716C18.8443 28.141 15.9343 32.7486 9.38666 34.5269C9.225 34.5269 9.38667 35.6586 9.71001 36.952C10.0333 38.2453 10.3567 39.2962 10.5184 39.2153C17.1468 37.922 21.8352 40.832 27.0086 40.9937C29.1103 41.0745 31.212 40.832 33.3137 40.4278H33.3945H33.4753C35.4962 39.9428 37.517 39.2153 39.3762 38.2453C43.9838 35.8203 46.8938 31.2127 53.4414 29.4344C53.6031 29.4344 53.4414 28.3027 53.1181 27.0094C52.7139 25.716 52.3906 24.6651 52.3097 24.746Z" fill="white"/>
<path d="M27.8171 41.8019C27.4937 41.8019 27.2513 41.8019 26.9279 41.8019C24.9071 41.721 22.967 41.236 20.9462 40.751C17.7936 40.0235 14.5603 39.2152 10.5185 39.9427C9.79102 40.1044 9.54851 39.296 9.38684 38.811C9.22517 38.326 9.06351 37.7602 8.90184 37.1135C8.336 34.6884 8.5785 34.3651 8.65934 34.2034C8.74017 34.0418 8.98268 33.8801 9.14435 33.8801C13.0244 32.8293 15.6111 30.7276 18.117 28.6259C19.7336 27.3325 21.1887 26.0391 23.0479 25.15C24.9879 24.0991 27.0087 23.3716 29.1104 22.8866H29.1913C31.3738 22.4016 33.5563 22.1591 35.7389 22.2399C37.7597 22.3208 39.6997 22.8058 41.7206 23.2908C44.8731 24.0183 48.1065 24.8266 52.0674 24.0991C52.7949 23.9375 53.0374 24.7458 53.1991 25.2308C53.3608 25.7158 53.5224 26.2817 53.6841 26.9283C54.25 29.3534 54.1691 30.0001 53.4416 30.2426C49.5615 31.2934 46.9748 33.3951 44.469 35.4968C42.8523 36.7901 41.3973 38.0835 39.5381 38.9727C37.5981 40.0235 35.5772 40.751 33.4755 41.236H33.3947C31.6163 41.5594 29.6763 41.8019 27.8171 41.8019ZM13.9136 38.1643C16.6619 38.1643 19.0061 38.7302 21.3503 39.296C23.2904 39.781 25.1496 40.1852 27.0087 40.266C29.0296 40.3468 31.1313 40.1043 33.0713 39.7002H33.1522C35.173 39.2152 37.113 38.4877 38.9722 37.5176C40.6698 36.6285 42.1248 35.4159 43.6606 34.2034C46.1665 32.1017 48.7532 30 52.7141 28.8684C52.6333 28.545 52.5524 27.9792 52.3908 27.1708C52.2291 26.4433 52.0674 25.8775 51.9057 25.5541C47.864 26.2008 44.6306 25.3925 41.3973 24.665C39.4572 24.18 37.5981 23.7758 35.7389 23.695C33.718 23.6141 31.6163 23.8566 29.6763 24.2608H29.5954C27.5746 24.7458 25.6346 25.4733 23.7754 26.4433C22.0778 27.3325 20.6228 28.545 19.087 29.7575C16.5811 31.8592 13.9944 33.9609 10.0335 35.0926C10.1144 35.416 10.1952 35.9818 10.3569 36.7901C10.5185 37.5176 10.6802 38.0835 10.8419 38.4068C11.8927 38.2451 12.9436 38.1643 13.9136 38.1643Z" fill="#666666"/>
<path d="M45.7622 30.8089C42.8522 32.1022 40.1038 33.4764 37.0321 34.6081C35.0113 35.3356 32.9904 35.9014 30.8079 36.3056C28.6253 36.7098 26.4428 36.9523 24.3411 37.0331C21.1886 37.1948 18.036 37.1139 14.8027 37.4373C13.2668 37.599 11.6501 37.8415 10.1143 38.1648C11.6501 37.8415 13.2668 37.6798 14.8027 37.5181C18.036 37.2756 21.1886 37.5181 24.4219 37.5181C26.6045 37.5181 28.787 37.3564 30.9695 36.9523C33.1521 36.5481 35.0921 35.9823 37.1129 35.1739C40.1847 34.0422 42.8522 32.4256 45.7622 30.9705C48.1064 29.8389 50.774 28.9497 53.3607 28.2222C50.8548 28.8688 48.1064 29.758 45.7622 30.8089Z" fill="#666666"/>
<path d="M10.1951 38.3263L10.1143 37.9221C10.1143 37.9221 10.1143 37.9221 10.1951 37.9221C11.5693 37.6796 13.0243 37.4371 14.8027 37.2754C16.9852 37.0329 19.1677 36.9521 21.3502 36.9521C22.3202 36.9521 23.3711 36.9521 24.3411 36.8712C26.4428 36.7904 28.6253 36.5479 30.8079 36.1437C32.7479 35.8204 34.6879 35.2545 36.9513 34.4462C39.053 33.7187 40.993 32.8295 42.933 31.9403C43.8222 31.5361 44.7922 31.132 45.6814 30.7278C47.7022 29.8386 50.2081 28.9495 53.3607 28.1411L53.4415 28.5453H53.3607C50.2889 29.4345 47.8639 30.3236 45.9239 31.2937C45.0347 31.7787 44.0647 32.1828 43.1755 32.6678C41.2355 33.6379 39.2955 34.6887 37.1938 35.497C34.9304 36.3862 32.9904 36.9521 30.9695 37.2754C28.787 37.6796 26.6045 37.8412 24.4219 37.8412C23.3711 37.8412 22.3202 37.8412 21.3502 37.7604C19.2485 37.6796 16.9852 37.6796 14.8027 37.8412C13.0243 37.8412 11.5693 38.0838 10.1951 38.3263ZM23.0478 37.2754C23.5328 37.2754 23.9369 37.2754 24.4219 37.2754C26.5236 37.2754 28.7062 37.1137 30.8887 36.7096C32.8287 36.3862 34.7688 35.8204 37.0321 34.9312C38.4063 34.3654 39.7805 33.7187 41.1547 33.072C39.8613 33.6379 38.4871 34.2845 37.0321 34.7695C34.7688 35.5779 32.7479 36.1437 30.8079 36.467C28.6253 36.8712 26.4428 37.1137 24.2603 37.1946C23.9369 37.1946 23.4519 37.2754 23.0478 37.2754Z" fill="#666666"/>
<path d="M45.5185 29.5963C42.5277 30.4855 39.6176 31.5363 36.5459 32.3447C34.4442 32.9105 32.4234 33.3956 30.3217 33.8806C28.1391 34.3656 26.0374 34.6889 23.9357 35.0122C20.864 35.4972 17.7923 35.9014 14.6398 36.4673C13.1039 36.7098 11.5681 37.0331 10.0322 37.3564C11.5681 37.0331 13.1848 36.7906 14.7206 36.5481C17.8732 36.0631 20.9449 35.8206 24.0974 35.4973C26.1991 35.2548 28.3816 34.9314 30.4833 34.5272C32.6659 34.1231 34.6059 33.5572 36.7076 32.9105C39.7793 31.9405 42.6085 30.8089 45.5994 29.758C48.0244 28.8688 50.7728 28.1413 53.2786 27.4946C50.7728 28.0605 48.0244 28.788 45.5185 29.5963Z" fill="#666666"/>
<path d="M10.033 37.5987L9.95215 37.1945C9.95215 37.1945 9.95214 37.1945 10.033 37.1945C11.4072 36.8712 12.8622 36.6287 14.6405 36.3054C16.8231 35.9012 18.9248 35.5778 20.9456 35.3353C21.9156 35.1737 22.8856 35.0928 23.9365 34.9312C26.0382 34.6078 28.1399 34.2037 30.3224 33.7995C32.2624 33.3953 34.2025 32.9103 36.5467 32.2636C38.6484 31.6978 40.6692 31.0511 42.6901 30.4044C43.6601 30.0811 44.5493 29.8386 45.5193 29.5152C47.621 28.8686 50.1269 28.1411 53.2794 27.4136L53.3602 27.8177H53.2794C50.2077 28.6261 47.7018 29.3536 45.6809 30.0811C44.7109 30.4044 43.8218 30.7278 42.8517 31.1319C40.9117 31.8594 38.8909 32.587 36.7892 33.2336C34.5258 33.9611 32.5049 34.4462 30.5649 34.8503C28.3824 35.2545 26.1999 35.6587 24.0982 35.9012C23.1282 35.982 22.0773 36.1437 21.1073 36.2245C19.0056 36.467 16.9039 36.6287 14.7214 36.952C12.943 37.0329 11.4072 37.2754 10.033 37.5987ZM40.6692 31.2936C39.3759 31.6978 38.0017 32.102 36.6275 32.5061C34.2833 33.1528 32.3433 33.6378 30.4032 34.042C28.2207 34.527 26.119 34.9312 24.0173 35.1737C23.6132 35.2545 23.2898 35.2545 22.8857 35.3353C23.2898 35.3353 23.694 35.2545 24.0173 35.1737C26.119 34.9312 28.2207 34.6078 30.4032 34.2037C32.3433 33.7995 34.2833 33.3145 36.6275 32.587C38.0017 32.2636 39.3759 31.7786 40.6692 31.2936Z" fill="#666666"/>
<path d="M37.5168 36.9519C40.5077 35.5777 43.1752 33.6377 46.0044 31.9401C48.2678 30.5659 50.9353 29.5959 53.4412 28.7876C50.9353 29.5151 48.2678 30.566 46.0044 31.7785C43.1752 33.3143 40.4268 35.1735 37.436 36.386C35.4151 37.1944 33.4751 37.8411 31.2926 38.2452C29.11 38.5686 26.9275 38.7302 24.745 38.6494C21.5116 38.4877 18.2782 38.0027 15.0448 38.2452C13.509 38.3261 11.8923 38.4877 10.3564 38.7302C11.8923 38.4877 13.509 38.3261 15.0448 38.3261C18.359 38.2452 21.5924 38.8919 24.8258 39.1344C27.0083 39.2961 29.2717 39.2152 31.4542 38.8919C33.5559 38.5686 35.496 37.8411 37.5168 36.9519Z" fill="#666666"/>
<path d="M27.1696 39.3772C26.3612 39.3772 25.5529 39.3772 24.7445 39.2964C23.6937 39.2155 22.6428 39.0539 21.592 38.973C19.4095 38.7305 17.1461 38.4072 14.9636 38.488C13.1852 38.5689 11.6494 38.6497 10.2752 38.8922L10.1943 38.488H10.2752C11.6494 38.2455 13.1044 38.0839 14.8827 38.003C17.1461 37.8414 19.3286 38.0839 21.5112 38.2455C22.562 38.3264 23.532 38.4072 24.5829 38.488C26.7654 38.5689 28.9479 38.488 31.1305 38.0839C33.0705 37.7605 35.0105 37.1947 37.2739 36.2247C39.2947 35.3355 41.2348 34.2038 43.0939 33.153C43.9831 32.668 44.8723 32.1021 45.7615 31.6171C47.7823 30.4854 50.2074 29.5154 53.2791 28.6262L53.5216 28.5454V28.9496L53.3599 29.0304C50.369 30.0004 47.944 31.0513 46.004 32.183C45.1148 32.7488 44.2256 33.3146 43.3364 33.8805C41.4773 35.093 39.5372 36.3055 37.5164 37.1947C35.253 38.1647 33.313 38.8114 31.2921 39.1347C29.9988 39.2964 28.5437 39.3772 27.1696 39.3772ZM23.7745 38.8114C24.0979 38.8114 24.4212 38.8922 24.7445 38.8922C26.9271 39.0539 29.1096 38.973 31.2921 38.6497C33.2321 38.3264 35.1722 37.7605 37.3547 36.7905C38.6481 36.2247 39.8606 35.578 40.9923 34.8505C39.8606 35.4972 38.6481 36.1438 37.3547 36.6289C35.0913 37.5989 33.1513 38.1647 31.1305 38.488C28.9479 38.8114 26.6846 38.973 24.502 38.8922C24.3404 38.8114 24.0979 38.8114 23.7745 38.8114Z" fill="#666666"/>
<path d="M44.7914 27.8981C41.6389 28.2214 38.5672 28.4639 35.4146 28.9489C33.313 29.2723 31.2113 29.6764 29.1096 30.2423C27.0079 30.8081 24.9062 31.4548 22.8853 32.1015C19.8944 33.1523 17.0652 34.284 13.9935 35.254C12.4577 35.739 11.0027 36.1432 9.4668 36.5474C11.0027 36.1432 12.5385 35.739 14.0744 35.3348C17.1461 34.4457 20.0561 33.4757 23.047 32.5865C25.0678 31.9398 27.1695 31.374 29.2712 30.8889C31.3729 30.3231 33.3938 29.9189 35.5763 29.5956C38.7289 29.0297 41.8005 28.6256 44.8723 28.1406C47.3781 27.7364 50.2073 27.1706 52.794 26.6855C50.1265 27.1706 47.2973 27.6556 44.7914 27.8981Z" fill="#666666"/>
<path d="M9.46756 36.7902L9.38672 36.386C9.38672 36.386 9.38672 36.386 9.46756 36.386C10.8417 36.0626 12.2159 35.6585 13.9943 35.0927C16.096 34.446 18.1168 33.7185 20.0569 32.991C21.0269 32.6676 21.9161 32.2634 22.8861 31.9401C24.9069 31.2126 27.0086 30.5659 29.1103 30.0809C31.0503 29.5959 33.0712 29.1917 35.4154 28.7876C37.5979 28.4642 39.7805 28.2217 41.8013 28.06C42.7713 27.9792 43.7414 27.8984 44.7922 27.7367C46.9747 27.4942 49.5614 27.09 52.714 26.4434L52.7948 26.8475C49.6423 27.4942 47.0555 27.9792 44.873 28.3025C43.903 28.4642 42.933 28.6259 41.8822 28.7067C39.8613 29.0301 37.6788 29.2726 35.5771 29.6767C33.2329 30.0809 31.212 30.4851 29.3528 30.9701C27.2511 31.5359 25.1494 32.1018 23.1286 32.6676C22.1586 32.991 21.1885 33.2334 20.2994 33.5568C18.3593 34.2035 16.2577 34.8501 14.156 35.416C12.2968 36.0627 10.8417 36.4668 9.46756 36.7902ZM39.6996 28.6259C38.3254 28.7876 36.8704 28.9492 35.4962 29.1917C33.152 29.5959 31.1312 30.0001 29.1912 30.4851C27.0895 31.0509 24.9878 31.6976 22.9669 32.3443C22.5627 32.5059 22.2394 32.5868 21.8352 32.7484C22.1586 32.6676 22.5627 32.5059 22.8861 32.4251C24.9069 31.7784 27.0086 31.2126 29.1103 30.6468C31.0503 30.1618 33.0712 29.7576 35.4154 29.3534C36.8704 29.1109 38.3254 28.8684 39.6996 28.6259Z" fill="#666666"/>
<path d="M44.3888 25.4739C41.1554 25.1505 37.8412 24.5847 34.6078 24.6655C32.4253 24.7464 30.3236 24.9889 28.2219 25.6355C26.1202 26.2822 24.0993 27.1714 22.1593 28.3031C19.3301 30.0006 16.6626 31.9406 13.6717 33.3148C12.2167 33.9615 10.7617 34.5273 9.30664 35.0123C10.8425 34.6082 12.2975 34.0423 13.7525 33.3957C16.7434 32.1023 19.4918 30.3239 22.321 28.7881C24.261 27.7372 26.2819 26.8481 28.3836 26.2822C30.4852 25.6355 32.5061 25.393 34.6886 25.2314C37.922 25.0697 41.1554 25.4739 44.3888 25.6355C46.9755 25.7972 49.8047 25.4739 52.4722 25.0697C49.8855 25.4739 47.0563 25.7164 44.3888 25.4739Z" fill="#666666"/>
<path d="M9.38747 35.1738L9.30664 34.7696C9.30664 34.7696 9.30663 34.7696 9.38747 34.7696C10.6808 34.3654 12.055 33.8804 13.7525 33.1529C15.7734 32.2637 17.7134 31.0512 19.4918 29.8387C20.3809 29.2729 21.2701 28.707 22.1593 28.1412C24.0993 27.0095 26.1202 26.1203 28.2219 25.3928C30.1619 24.827 32.1828 24.5037 34.6078 24.4228C36.8712 24.342 39.1345 24.6653 41.3171 24.9078C42.3679 25.0695 43.4187 25.1503 44.4696 25.2312C46.733 25.3928 49.4005 25.312 52.4722 24.827L52.553 25.2312H52.4722C49.3197 25.7162 46.733 25.8778 44.4696 25.797C43.4187 25.7162 42.3679 25.6353 41.3979 25.5545C39.2154 25.3928 37.0328 25.2312 34.7695 25.312C32.3444 25.4737 30.3236 25.797 28.4644 26.3628C26.3627 27.0095 24.3418 27.8179 22.4018 28.8687C21.5126 29.3537 20.6235 29.9196 19.7343 30.4046C17.8751 31.5362 15.9351 32.6679 13.8334 33.4763C12.1358 34.2846 10.7617 34.7696 9.38747 35.1738ZM35.3353 24.827C35.0928 24.827 34.8503 24.827 34.6078 24.827C32.1828 24.9078 30.1619 25.2312 28.3027 25.797C26.201 26.4437 24.1802 27.3329 22.321 28.4645C22.0785 28.6262 21.7551 28.7879 21.5126 28.9495C21.7551 28.7879 21.9976 28.707 22.2401 28.5454C24.1802 27.4945 26.201 26.6053 28.3836 25.9587C30.3236 25.3928 32.3444 25.0695 34.7695 24.9078C36.1437 24.827 37.437 24.9078 38.8112 24.9078C37.5987 24.9078 36.467 24.827 35.3353 24.827Z" fill="#666666"/>
<path d="M44.5504 26.5244C41.3171 26.5244 38.1645 26.2819 34.9311 26.5244C32.7486 26.686 30.7278 27.0094 28.6261 27.6561C26.5244 28.2219 24.4227 29.0302 22.4827 30.0002C19.5726 31.3744 16.8242 32.9911 13.8334 34.2036C12.3783 34.7695 10.8425 35.2545 9.30664 35.7395C10.8425 35.3353 12.3783 34.8503 13.8334 34.2845C16.9051 33.2336 19.6534 31.7786 22.5635 30.4853C24.5035 29.5961 26.6052 28.8686 28.7069 28.3027C30.8086 27.7369 32.8295 27.4135 35.012 27.171C38.2454 26.8477 41.3979 26.9285 44.5504 26.7669C47.1371 26.686 49.9663 26.2819 52.553 25.7969C50.0472 26.201 47.218 26.5244 44.5504 26.5244Z" fill="#666666"/>
<path d="M9.46756 35.9012L9.38672 35.4971C9.38672 35.4971 9.38672 35.4971 9.46756 35.4971C10.7609 35.0929 12.2159 34.6887 13.9135 34.042C15.9343 33.2337 17.9552 32.2637 19.8144 31.2937C20.7035 30.8087 21.5927 30.3236 22.5627 29.9195C24.5028 28.9495 26.6045 28.222 28.7062 27.5753C30.6462 27.0094 32.667 26.6861 35.0921 26.4436C37.2746 26.2819 39.538 26.2819 41.6396 26.3628C42.6097 26.3628 43.6605 26.4436 44.7114 26.4436C46.9747 26.4436 49.5614 26.2011 52.714 25.6353L52.7948 26.0394H52.714C49.5614 26.6053 46.9747 26.9286 44.7922 27.0094C43.7414 27.0903 42.7713 27.0903 41.7205 27.0903C39.6188 27.1711 37.4363 27.1711 35.2537 27.4136C32.9095 27.6561 30.8887 28.0603 28.9487 28.5453C26.847 29.1111 24.7453 29.8386 22.8052 30.7278C21.9161 31.132 20.946 31.5362 20.0569 31.9403C18.1168 32.8295 16.1768 33.7187 14.0751 34.4462C12.2159 35.0929 10.7609 35.4971 9.46756 35.9012ZM38.4871 26.6053C37.3554 26.6053 36.1429 26.6053 35.0112 26.7669C32.5862 27.0094 30.6462 27.3328 28.7062 27.8986C26.6045 28.4644 24.5836 29.2728 22.6436 30.2428C22.2394 30.4045 21.8352 30.647 21.4311 30.8895C21.8352 30.7278 22.2394 30.5661 22.6436 30.4045C24.5836 29.5153 26.6853 28.7878 28.787 28.222C30.727 27.6561 32.7479 27.3328 35.0921 27.0094C36.5471 26.8478 38.083 26.7669 39.538 26.7669C39.1338 26.6053 38.8104 26.6053 38.4871 26.6053Z" fill="#666666"/>
</svg>
