<svg width="65" height="65" viewBox="0 0 65 65" fill="none" xmlns="http://www.w3.org/2000/svg">
<path d="M32.7189 63C29.9705 63 27.3838 62.2725 25.0396 60.8175C16.3095 55.4824 9.03438 47.884 3.94181 38.9922C1.27427 34.3038 1.35511 28.6454 4.18431 24.0378C9.51938 15.3077 17.1178 8.0326 26.0096 2.94003C28.1921 1.64668 30.698 1 33.2847 1C36.0331 1 38.6198 1.72752 40.964 3.18254C49.6941 8.51761 56.9692 16.116 62.0617 25.0078C64.7293 29.6962 64.6484 35.3546 61.8192 39.9622C56.4842 48.6923 48.8857 55.9674 39.994 61.06C37.7306 62.2725 35.2247 63 32.7189 63ZM33.2039 2.29336C30.8597 2.29336 28.5963 2.94003 26.5754 4.07171C17.8453 9.08344 10.4894 16.1969 5.23516 24.7653C2.64846 28.8879 2.56762 34.1421 4.99266 38.4263C10.0044 47.1565 17.1178 54.5124 25.6863 59.7666C27.788 61.06 30.213 61.7066 32.7189 61.7066C35.0631 61.7066 37.3264 61.06 39.3473 59.9283C48.0774 54.9165 55.4333 47.8031 60.6876 39.2347C63.2743 35.1121 63.3551 29.8579 60.9301 25.5737C55.9992 16.8435 48.8049 9.48761 40.2365 4.23338C38.1348 3.02086 35.7097 2.29336 33.2039 2.29336Z" fill="#666666"/>
<path d="M59.0715 26.7055C54.3023 18.2988 47.3505 11.1853 39.1054 6.09275C35.6295 3.91022 31.1836 3.91022 27.6269 5.93108C19.2201 10.7003 12.1067 17.6521 7.01413 25.8972C4.8316 29.3731 4.8316 33.8189 6.85246 37.3757C11.6217 45.7824 18.5735 52.8959 26.8186 57.9884C30.2944 60.171 34.7403 60.171 38.2971 58.1501C46.7038 53.3809 53.8173 46.4291 58.9098 38.184C61.0115 34.7081 61.0924 30.2622 59.0715 26.7055Z" fill="white"/>
<path d="M32.7193 60.0091C30.6176 60.0091 28.5159 59.4433 26.5759 58.3116C18.25 53.2191 11.2982 46.0248 6.52899 37.5372C4.4273 33.8188 4.50813 29.2921 6.69066 25.6545C11.7832 17.3286 18.9775 10.3768 27.4651 5.6076C31.1835 3.50591 35.7102 3.58674 39.3478 5.76927C47.6737 10.8618 54.6255 18.0561 59.3947 26.5437C61.4964 30.2621 61.4156 34.7888 59.233 38.4264C54.1405 46.6715 46.9462 53.6232 38.5394 58.4733C36.6802 59.5241 34.7402 60.0091 32.7193 60.0091ZM33.2043 4.79926C31.3452 4.79926 29.486 5.28426 27.7884 6.25427C19.4625 11.0235 12.3491 17.8944 7.33733 26.0587C5.23564 29.4537 5.1548 33.6571 7.17566 37.133C11.9449 45.459 18.8158 52.5724 26.9801 57.5841C30.3751 59.6858 34.5785 59.7667 38.0544 57.7458C46.3804 52.9766 53.4938 46.1056 58.5055 37.9414C60.6072 34.5463 60.688 30.3429 58.6672 26.867C53.898 18.5411 47.027 11.4277 38.8628 6.41595C37.1652 5.3651 35.2252 4.79926 33.2043 4.79926Z" fill="#666666"/>
<path d="M45.7319 16.6001H44.1152V46.428H45.7319V16.6001Z" fill="#808285"/>
<path d="M39.5083 16.6001H37.8916V46.428H39.5083V16.6001Z" fill="#808285"/>
<path d="M33.2026 32.605H31.5859V46.4277H33.2026V32.605Z" fill="#808285"/>
<path d="M26.8989 32.605H25.2822V46.4277H26.8989V32.605Z" fill="#808285"/>
<path d="M20.6733 32.605H19.0566V46.4277H20.6733V32.605Z" fill="#808285"/>
<path d="M50.1781 41.417H15.1768V43.0337H50.1781V41.417Z" fill="#808285"/>
<path d="M50.8246 18.5405C48.7229 19.9955 45.732 21.5314 43.3878 22.0164L45.9745 22.7439C34.2535 35.7582 33.041 37.0516 18.1675 45.5392C16.7125 46.3476 18.6525 47.6409 19.2992 47.2367C34.981 37.9408 35.3044 38.0216 48.3187 24.3606L49.8546 26.7048C49.6121 24.2798 50.0971 21.0464 50.8246 18.5405Z" fill="#666666"/>
<path d="M18.9761 47.7214C18.6527 47.7214 18.4102 47.6406 18.1677 47.4789C17.7635 47.2364 17.3594 46.8322 17.3594 46.2664C17.3594 46.0239 17.4402 45.6197 18.006 45.2964C32.7987 36.8896 34.0921 35.4346 45.3281 22.9053L43.2264 22.3394C43.0647 22.3394 42.9839 22.1777 42.9839 22.0161C42.9839 21.8544 43.0647 21.7736 43.2264 21.6927C45.7323 21.1269 48.7231 19.4294 50.5823 18.2169C50.6632 18.136 50.8248 18.136 50.9865 18.2169C51.0673 18.2977 51.1482 18.4594 51.1482 18.5402C50.5015 20.8036 49.9356 24.1178 50.1781 26.6236C50.1781 26.7853 50.0973 26.947 49.9356 26.947C49.774 27.0278 49.6123 26.947 49.5315 26.7853L48.1573 24.8453C35.9513 37.6171 34.9813 38.183 21.3203 46.2664L19.2994 47.4789C19.2994 47.7214 19.1377 47.7214 18.9761 47.7214ZM44.5197 22.0969L45.9748 22.5011C46.0556 22.5011 46.1364 22.5819 46.2173 22.7436C46.2173 22.8244 46.2173 22.9861 46.1364 23.0669C34.4963 36.0004 33.2838 37.3746 18.2486 45.9431C18.0869 46.0239 17.9252 46.1856 17.9252 46.3472C17.9252 46.5089 18.1677 46.7514 18.4102 46.9939C18.7336 47.1556 18.9761 47.1556 19.0569 47.1556L21.0778 45.9431C34.7388 37.8596 35.5471 37.3746 47.9956 24.2795C48.0765 24.1986 48.1573 24.1986 48.2381 24.1986C48.319 24.1986 48.3998 24.2794 48.4806 24.3603L49.3698 25.7345C49.3698 23.6328 49.6931 21.2886 50.1781 19.4294C48.6423 20.3186 46.5406 21.4502 44.5197 22.0969Z" fill="#666666"/>
<path d="M16.4697 21.6123H17.5206V25.4924C17.7631 25.169 17.9247 24.9265 18.1672 24.6032L20.5923 21.6123H21.8856L18.9756 25.0074L22.1281 29.6149H20.9156L18.2481 25.654L17.5206 26.5432V29.6149H16.4697V21.6123Z" fill="#666666"/>
<path d="M26.9777 29.5342C26.7352 29.6958 26.0885 29.8575 25.2802 29.8575C23.5018 29.8575 22.3701 28.645 22.3701 26.8666C22.3701 25.0883 23.5826 23.7949 25.4418 23.7949C26.0885 23.7949 26.6543 23.9566 26.8968 24.1183L26.6543 24.9266C26.4118 24.7649 26.0077 24.6841 25.4418 24.6841C24.1485 24.6841 23.421 25.6541 23.421 26.8666C23.421 28.2408 24.3101 29.0492 25.4418 29.0492C26.0077 29.0492 26.4118 28.8875 26.7352 28.7258L26.9777 29.5342Z" fill="#666666"/>
<path d="M31.4237 29.6956L31.3428 28.9681C31.0195 29.4531 30.3728 29.8573 29.5645 29.8573C28.352 29.8573 27.7861 29.0489 27.7861 28.1598C27.7861 26.7856 28.9986 25.9772 31.262 25.9772V25.8964C31.262 25.4114 31.1003 24.5222 29.9687 24.5222C29.4028 24.5222 28.837 24.6839 28.4328 24.9264L28.1903 24.1989C28.6753 23.8755 29.4028 23.7139 30.1303 23.7139C31.9087 23.7139 32.3129 24.9264 32.3129 26.0581V28.2406C32.3129 28.7256 32.3129 29.2106 32.3937 29.6148H31.4237V29.6956ZM31.262 26.7856C30.1303 26.7856 28.837 26.9472 28.837 28.0789C28.837 28.7256 29.322 29.0489 29.807 29.0489C30.5345 29.0489 31.0195 28.5639 31.1812 28.0789C31.1812 27.9981 31.262 27.8364 31.262 27.7556V26.7856Z" fill="#666666"/>
<path d="M34.0107 21.208H35.0616V29.6956H34.0107V21.208Z" fill="#666666"/>
</svg>
