<svg width="65" height="65" viewBox="0 0 65 65" fill="none" xmlns="http://www.w3.org/2000/svg">
<path d="M32.7171 62.9964C29.9689 62.9964 27.3823 62.269 25.0383 60.814C16.3087 55.4793 9.03397 47.8813 3.94169 38.99C1.27431 34.3019 1.35515 28.6438 4.18419 24.0365C9.51896 15.3069 17.117 8.03219 26.0082 2.93992C28.1906 1.64664 30.6964 1 33.2829 1C36.0311 1 38.6177 1.72747 40.9617 3.1824C49.6914 8.51717 56.966 16.1152 62.0583 25.0064C64.7257 29.6946 64.6449 35.3527 61.8158 39.96C56.4811 48.6896 48.8831 55.9643 39.9918 61.0565C37.8094 62.3498 35.3037 62.9964 32.7171 62.9964ZM33.2829 2.37411C30.9389 2.37411 28.6756 3.02075 26.6549 4.15236C17.9252 9.16381 10.5697 16.2768 5.31581 24.8448C2.72925 29.0479 2.64841 34.221 5.0733 38.505C10.0847 47.2346 17.1978 54.5901 25.7657 59.8441C27.8673 61.1374 30.2922 61.784 32.7979 61.784C35.142 61.784 37.4052 61.1374 39.426 60.0057C48.1556 54.9943 55.5111 47.8813 60.765 39.3133C63.3516 35.191 63.4324 29.9371 61.0075 25.6531C56.0769 16.9235 48.883 9.56796 40.3151 4.31402C38.1327 3.10157 35.7078 2.37411 33.2829 2.37411Z" fill="#575756"/>
<path d="M59.0674 26.7043C54.2985 18.298 47.3471 11.1849 39.1025 6.09265C35.6268 3.91025 31.1812 3.91025 27.6247 5.93099C19.2184 10.6999 12.1053 17.6513 7.01307 25.896C4.83066 29.3716 4.83065 33.8173 6.8514 37.3738C11.6204 45.7801 18.5717 52.8931 26.8164 57.9854C30.292 60.1678 34.7377 60.1678 38.2942 58.147C46.7005 53.3781 53.8135 46.4267 58.9058 38.1821C61.0882 34.7064 61.169 30.3416 59.0674 26.7043Z" fill="white"/>
<path d="M32.7168 60.0868C30.6152 60.0868 28.5136 59.521 26.5737 58.3893C18.2482 53.2971 11.2969 46.1032 6.52793 37.6161C4.42636 33.8979 4.50717 29.3715 6.68958 25.7341C11.7819 17.4086 18.9757 10.4573 27.4628 5.68833C31.181 3.58675 35.7075 3.66758 39.3448 5.84999C47.6703 10.9423 54.6217 18.1361 59.3906 26.6232C61.4922 30.3414 61.4113 34.8679 59.2289 38.5052C54.1367 46.8307 46.9428 53.782 38.4557 58.551C36.7583 59.6018 34.7375 60.0868 32.7168 60.0868ZM33.2826 4.88003C31.4235 4.88003 29.5644 5.36501 27.867 6.33496C19.5415 11.1039 12.4285 17.9745 7.41707 26.1383C5.31549 29.5331 5.23465 33.7363 7.2554 37.2119C12.0244 45.5374 18.8949 52.6504 27.0587 57.6619C30.4535 59.7634 34.7375 59.8443 38.1324 57.8235C46.4579 53.0546 53.5709 46.184 58.5823 38.0202C60.6839 34.6254 60.7647 30.4222 58.744 26.9466C53.975 18.6211 47.1045 11.5081 38.9407 6.49662C37.1624 5.44584 35.2225 4.88003 33.2826 4.88003Z" fill="#575756"/>
<path fill-rule="evenodd" clip-rule="evenodd" d="M32.9605 51.1148C31.8289 51.1148 30.9397 50.2257 30.9397 49.0941V45.4567H28.6765C27.5449 45.4567 26.6558 44.5676 26.6558 43.436C26.6558 42.3043 27.5449 41.4152 28.6765 41.4152H30.9397V39.5561C25.2816 38.5862 21.0785 33.6556 21.1593 27.8358C21.1593 21.2886 26.4941 16.0347 33.0413 16.0347C39.5885 16.0347 44.9233 21.3694 44.9233 27.9167C44.9233 33.7364 40.7201 38.5862 35.0621 39.5561V41.4152H37.3253C38.4569 41.4152 39.3461 42.3043 39.3461 43.436C39.3461 44.5676 38.4569 45.4567 37.3253 45.4567H35.0621V49.0941C34.9004 50.2257 34.0113 51.1148 32.9605 51.1148ZM32.9605 20.157C28.6765 20.157 25.12 23.6327 25.12 27.9975C25.12 30.0991 25.9283 32.039 27.3832 33.5747C28.8382 35.0297 30.8589 35.9188 32.9605 35.9188C37.3253 35.9188 40.801 32.4431 40.8818 28.0783C40.8818 25.9767 40.0735 24.0368 38.6186 22.5011C37.0828 21.0461 35.1429 20.157 32.9605 20.157Z" fill="#575756"/>
<path d="M32.9595 16.762C33.0403 16.762 33.0403 16.762 32.9595 16.762C39.1834 16.762 44.2757 21.8543 44.1949 28.0782C44.1949 33.8171 39.83 38.5052 34.3336 39.2327V42.1425H37.1627C37.971 42.1425 38.5368 42.7892 38.5368 43.5166C38.5368 44.3249 37.8901 44.8908 37.1627 44.8908H34.3336V49.0939C34.3336 49.9022 33.687 50.468 32.9595 50.468C32.1512 50.468 31.5854 49.8214 31.5854 49.0939V44.8908H28.7564C27.9481 44.8908 27.3823 44.2441 27.3823 43.5166C27.3823 42.7083 28.0289 42.1425 28.7564 42.1425H31.5854V39.2327C26.0082 38.5052 21.7242 33.8171 21.7242 28.0782C21.7242 21.7734 26.8164 16.762 32.9595 16.762ZM32.9595 36.4845C37.6476 36.4845 41.3658 32.6855 41.3658 28.0782C41.3658 23.39 37.6476 19.591 32.9595 19.591C28.2714 19.591 24.5532 23.39 24.5532 27.9973C24.5532 32.6855 28.2714 36.4845 32.9595 36.4845ZM32.9595 15.6304C26.089 15.6304 20.5117 21.2076 20.5117 27.9973C20.5117 33.8979 24.634 38.9902 30.2921 40.2026V40.9301H28.6755C27.2206 40.9301 26.089 42.0617 26.089 43.5166C26.089 44.2441 26.3315 44.8908 26.8165 45.3757C27.3014 45.8607 27.9481 46.1032 28.6755 46.1032H30.2921V49.1747C30.2921 49.9022 30.5346 50.5488 31.0196 51.0338C31.5046 51.5188 32.1512 51.7613 32.8787 51.7613C34.3336 51.7613 35.4652 50.6297 35.4652 49.1747V46.1032H37.0818C38.5368 46.1032 39.6684 44.9716 39.6684 43.5166C39.6684 42.7892 39.4259 42.1425 38.9409 41.6576C38.4559 41.1726 37.8093 40.9301 37.0818 40.9301H35.4652V40.2026C41.1233 38.9902 45.3265 33.9787 45.3265 28.0782C45.3265 24.7641 44.0332 21.6118 41.6891 19.2677C39.4259 16.9236 36.3544 15.6304 32.9595 15.6304ZM32.9595 36.4845V35.3528C28.918 35.3528 25.6848 32.0388 25.6848 28.0782C25.6848 24.1175 28.9988 20.8035 32.9595 20.8035C34.8994 20.8035 36.7585 21.5309 38.1326 22.9859C39.5067 24.36 40.2342 26.2191 40.2342 28.159C40.2342 32.1196 36.9202 35.4337 32.9595 35.4337V36.4845Z" fill="white"/>
</svg>
