<svg width="62" height="62" viewBox="0 0 62 62" fill="none" xmlns="http://www.w3.org/2000/svg">
<path d="M30.7584 62C28.0209 62 25.364 61.2763 23.1095 59.8288C14.3334 54.441 7.00657 46.882 1.93413 38.0363C-0.722856 33.3722 -0.642345 27.6628 2.17568 23.0791C7.57017 14.3139 15.1386 6.99612 23.9952 1.92997C26.1691 0.643328 28.7456 0 31.2415 0C33.979 0 36.636 0.723733 38.8905 2.1712C47.6666 7.55901 54.9934 15.118 60.0659 23.9637C62.7229 28.6278 62.6423 34.3372 59.8243 38.9209C54.4298 47.6861 46.8614 55.0039 38.0048 60.07C35.8309 61.2763 33.3349 62 30.7584 62ZM31.2415 1.20623C28.9066 1.20623 26.5717 1.84954 24.5588 2.97535C15.8632 7.96109 8.45584 15.118 3.14186 23.642C0.565382 27.8236 0.484864 33.0506 2.90031 37.3126C7.89223 45.9974 15.0581 53.3956 23.5926 58.703C25.686 59.9896 28.1015 60.7134 30.5974 60.7134C32.9324 60.7134 35.2673 60.07 37.2802 58.9442C45.9758 53.9585 53.3831 46.8016 58.6971 38.2776C61.2736 34.096 61.3541 28.869 58.9387 24.607C53.9467 15.9222 46.7809 8.52399 38.2463 3.2166C36.1529 1.92996 33.7375 1.20623 31.2415 1.20623Z" fill="#666666"/>
<path d="M57.1678 25.6524C52.3369 17.2088 45.4126 10.1323 37.2001 5.06614C33.6575 2.89494 29.2292 2.81452 25.6865 4.90531C17.2324 9.73022 10.1471 16.6459 5.07471 24.8482C2.90081 28.3865 2.82029 32.8093 4.91368 36.3476C9.74457 44.7912 16.6688 51.8677 24.8814 56.9338C28.424 59.105 32.8523 59.1855 36.395 57.0947C44.849 52.2698 51.9344 45.3541 57.0068 37.1517C59.1807 33.6135 59.2612 29.1907 57.1678 25.6524Z" fill="white"/>
<path d="M30.7589 59.0246C28.6655 59.0246 26.4916 58.4617 24.6398 57.2555C16.3467 52.1089 9.34192 44.952 4.51103 36.5084C2.41765 32.8093 2.49816 28.2257 4.67207 24.607C9.82502 16.3243 16.9908 9.32815 25.4449 4.50325C29.1486 2.41245 33.7379 2.49287 37.3611 4.66407C45.6541 9.81064 52.6589 16.9676 57.4898 25.4112C59.5832 29.1102 59.5027 33.6939 57.3288 37.3126C52.1758 45.5953 45.01 52.5914 36.5559 57.4163C34.7846 58.4617 32.7717 59.0246 30.7589 59.0246ZM31.242 3.6991C29.3901 3.6991 27.5383 4.18159 25.8475 5.14657C17.4739 9.89106 10.3886 16.8067 5.31618 25.0091C3.2228 28.3865 3.14228 32.6485 5.15515 36.1064C9.90553 44.4695 16.8298 51.546 25.0423 56.6122C28.424 58.703 32.6912 58.7834 36.1534 56.773C44.5269 52.0285 51.6122 45.1128 56.6847 36.9105C58.778 33.5331 58.8586 29.2711 56.8457 25.8132C52.0953 17.4501 45.171 10.3735 36.9585 5.3074C35.2677 4.262 33.2548 3.6991 31.242 3.6991Z" fill="#666666"/>
<path d="M46.6208 35.7847C44.9299 35.7847 43.1586 35.7043 42.7561 35.4631C42.595 35.3022 42.5145 35.061 42.6755 34.9002C42.8366 34.7393 43.0781 34.6589 43.2391 34.8197C43.6417 34.9806 46.1377 35.061 48.5531 34.9806C48.4726 34.7393 48.1505 34.4981 47.5869 34.4177H46.5402C46.1377 34.4177 45.7351 34.4177 45.3325 34.3372C44.2053 34.1764 42.0314 33.7743 40.7432 33.2114C40.5016 33.131 40.4211 32.8898 40.5016 32.6485C40.5822 32.4073 40.8237 32.3269 41.0652 32.4073C42.273 32.9702 44.5274 33.3723 45.4936 33.4527C45.8156 33.5331 46.2182 33.5331 46.5402 33.5331H47.6675C49.1167 33.6939 49.4388 34.7393 49.4388 35.3022C49.4388 35.5435 49.2778 35.7043 49.0362 35.7043C48.3921 35.7847 47.5869 35.7847 46.6208 35.7847Z" fill="#666666"/>
<path d="M33.2539 40.0467C31.4826 40.0467 29.3892 39.6446 27.0543 38.5992C21.9818 39.1621 18.4392 38.2776 17.9561 38.1167C17.473 38.1167 17.0704 37.7951 16.9094 37.3126C16.8289 37.3126 16.5873 37.1518 16.3458 37.0713C13.7693 37.0713 11.9175 36.5084 10.8708 36.0259C10.0656 35.6239 9.50202 34.9001 9.50202 34.0156C9.50202 33.5331 9.58253 33.131 9.90459 32.8093C10.4682 32.2464 11.2733 32.166 11.3539 32.166C11.5149 32.166 11.5954 32.2464 11.6759 32.3268C11.7564 32.4073 11.7564 32.5681 11.7564 32.7289C11.5149 33.4527 11.7564 33.6939 11.7564 33.7743C12.32 34.4176 14.2524 34.2568 15.5406 34.0156C15.7822 31.6031 17.5535 30.1556 17.634 30.0752C19.4859 28.3061 23.1895 27.9844 25.927 28.0649C29.7918 28.1453 34.7837 25.7328 36.9576 22.677C37.3602 22.1141 37.6017 21.7121 37.6017 21.7121L38.4068 20.0233C38.9705 18.8975 39.8561 18.1738 40.9833 17.8521C42.3521 17.5305 43.7208 17.8521 45.1701 18.7367C45.4922 18.9779 45.8142 19.2996 45.8947 19.7017L46.0558 20.345L48.9543 20.8275C49.1958 20.8275 49.2764 21.0687 49.2764 21.2296C49.1153 22.9183 48.7127 24.0441 47.8271 24.607C46.6999 25.4112 45.1701 24.9287 44.2039 24.6874C43.8819 24.607 43.6403 24.607 43.4793 24.7678C43.0767 25.1699 42.8352 25.8132 42.6741 26.3761L42.1105 28.9494C42.1105 29.1907 41.7885 31.8444 41.3054 32.6485C41.2249 32.7289 41.2249 32.8093 41.2249 32.8898C41.0638 33.2114 40.9833 33.7743 41.3054 33.8547C41.3859 33.8547 44.0429 35.3022 47.5855 35.8651C47.7466 35.8651 47.9076 35.8651 48.0686 35.8651H49.4374C50.8866 36.0259 51.2087 37.0713 51.2087 37.6342C51.2087 37.8755 51.0477 38.0363 50.8061 38.0363C47.344 38.2776 45.7337 38.0363 45.7337 38.0363L43.8819 37.7951C43.5598 37.7951 43.2377 37.7951 42.9157 37.7951L39.212 38.2776C38.8899 38.7601 36.6355 40.0467 33.2539 40.0467ZM27.5373 37.8755C34.059 40.8508 38.8899 37.7147 38.9704 37.7147C39.051 37.7147 39.051 37.6342 39.1315 37.6342L42.9157 37.0713C43.3183 36.9909 43.6403 36.9909 44.0429 37.0713L45.8947 37.3126C45.8947 37.3126 47.344 37.5538 50.4036 37.3126C50.3231 37.0713 50.001 36.8301 49.4374 36.7497H48.0686C47.9076 36.7497 47.6661 36.7497 47.505 36.6693C43.8819 36.1064 41.1444 34.6589 40.9833 34.6589C40.3392 34.3372 40.0977 33.6135 40.5002 32.6485C40.5808 32.5681 40.5808 32.4073 40.6613 32.3268C40.9833 31.7639 41.3054 29.5927 41.3859 28.869L42.03 26.2153C42.191 25.4916 42.5936 24.7678 43.0767 24.2049L43.1572 24.1245C43.5598 23.8028 44.1234 23.7224 44.6065 23.8833C45.4922 24.1245 46.7804 24.5266 47.5855 23.9637C48.1492 23.5616 48.5517 22.7575 48.6322 21.5512L45.8142 21.0687C45.6532 21.0687 45.5727 20.9079 45.4922 20.8275L45.2506 20.0233C45.1701 19.7821 45.0091 19.6213 44.848 19.4604C43.6403 18.6563 42.4326 18.415 41.3054 18.6563C40.4197 18.8975 39.6951 19.4604 39.212 20.345L38.3263 22.0337C38.3263 22.1141 38.0848 22.4358 37.6017 23.0791C35.2668 26.2957 29.9528 28.869 25.927 28.7886C22.2234 28.7082 19.4859 29.3515 18.1976 30.6381C18.1976 30.6381 16.4263 32.166 16.3458 34.3372C16.3458 34.498 16.1847 34.6589 16.0237 34.7393C15.6211 34.8197 12.32 35.5434 11.1928 34.3372C10.9513 34.096 10.7903 33.7743 10.8708 33.2114C10.7903 33.2918 10.6292 33.3722 10.5487 33.4527C10.3877 33.6135 10.3072 33.8547 10.3877 34.096C10.3877 34.6589 10.7903 35.1414 11.3539 35.3826C12.32 35.8651 14.0109 36.3476 16.5873 36.3476C16.6678 36.3476 16.6678 36.3476 16.6678 36.3476C17.0704 36.428 17.7145 36.6693 17.8756 37.0713C17.9561 37.2322 18.1171 37.3126 18.2781 37.3126H18.3587C18.3587 37.3126 21.9013 38.2776 26.8932 37.7951C26.8127 37.5538 26.5712 37.2322 25.927 37.1517H24.8803C24.4778 37.1517 24.0752 37.1518 23.6726 37.0713C22.5454 36.9105 20.3715 36.5084 19.0833 35.9455C18.8417 35.8651 18.7612 35.6239 18.8417 35.3826C18.9222 35.1414 19.1638 35.061 19.4053 35.1414C20.6131 35.7043 22.8675 36.1064 23.7531 36.1868C24.0752 36.2672 24.4778 36.2672 24.8803 36.2672H26.0076C26.9737 36.5888 27.4568 37.3126 27.5373 37.8755Z" fill="#666666"/>
<path d="M48.0704 21.31C48.0704 21.31 47.99 22.1142 48.6334 22.1946L48.7942 21.4708L48.0704 21.31Z" fill="#666666"/>
<path d="M48.6338 22.5966C48.3118 22.5966 48.0702 22.5162 47.9092 22.275C47.5871 21.8729 47.5871 21.31 47.5871 21.31C47.5871 21.2296 47.6677 21.0687 47.7482 20.9883C47.8287 20.9079 47.9897 20.9079 48.0702 20.9079L48.7949 21.0687C49.0364 21.1491 49.1169 21.31 49.1169 21.5512L48.9559 22.275C48.9559 22.4358 48.7949 22.5966 48.6338 22.5966Z" fill="#666666"/>
<path d="M42.5932 18.1738C42.7542 18.1738 42.8348 18.3346 42.7543 18.4955C42.4322 18.7367 42.1907 19.1388 42.1101 19.38C41.9491 19.7017 41.9491 20.1038 41.9491 20.5058C42.1907 23.1595 41.2245 23.2399 41.2245 23.2399C40.0167 23.3204 39.1311 21.9533 38.648 21.2296C38.487 20.9079 38.4064 20.4254 38.5675 20.1038C38.9701 19.2996 39.9362 18.1738 42.5932 18.1738Z" fill="white"/>
<path d="M41.0642 23.642C39.776 23.642 38.8098 22.275 38.3267 21.3904C38.0851 20.9079 38.0046 20.345 38.2462 19.8625C38.6487 19.0584 39.6954 17.7717 42.5135 17.7717C42.5135 17.7717 42.5135 17.7717 42.594 17.7717C42.8355 17.7717 43.0771 17.9326 43.1576 18.0934C43.2381 18.3346 43.1576 18.5759 42.9965 18.7367C42.755 18.978 42.5135 19.2996 42.4329 19.4604C42.3524 19.7017 42.2719 20.0234 42.3524 20.4254C42.6745 23.3204 41.3862 23.5616 41.2252 23.642C41.2252 23.642 41.1447 23.642 41.0642 23.642ZM42.1109 18.5759C40.0175 18.7367 39.2929 19.6213 38.9708 20.2646C38.8903 20.5058 38.8903 20.8275 38.9708 21.0687C39.2929 21.6316 40.1785 22.9987 41.1447 22.9183C41.3057 22.8379 41.7083 22.3554 41.5473 20.5863C41.4668 20.1038 41.5473 19.6213 41.7083 19.2192C41.7888 19.0584 41.9499 18.8171 42.1109 18.5759Z" fill="#666666"/>
</svg>
