<svg width="65" height="65" viewBox="0 0 65 65" fill="none" xmlns="http://www.w3.org/2000/svg">
<path d="M31.7203 64C28.9862 64 26.3325 63.2763 24.0809 61.8288C15.3157 56.441 7.99788 48.882 2.93173 40.0363C0.278038 35.3723 0.358454 29.6628 3.17298 25.0791C8.56079 16.3139 16.1198 8.99615 24.9655 3.93C27.1367 2.64336 29.7099 2.00003 32.2028 2.00003C34.9369 2.00003 37.5906 2.72376 39.9227 4.17123C48.6879 9.55904 56.0057 17.1181 61.0718 25.9637C63.7255 30.6278 63.6451 36.3373 60.8306 40.9209C55.4428 49.6862 47.8837 57.0039 39.0381 62.0701C36.7865 63.2763 34.2132 64 31.7203 64ZM32.2028 3.28668C29.8708 3.28668 27.6192 3.92999 25.5284 5.0558C16.8435 10.0415 9.44535 17.1985 4.13796 25.7225C1.56468 29.904 1.48426 35.131 3.89672 39.393C8.88245 48.0779 16.0394 55.476 24.5634 60.7834C26.6542 62.0701 29.0666 62.7938 31.5595 62.7938C33.8915 62.7938 36.1431 62.1505 38.2339 61.0247C46.9188 56.0389 54.3169 48.882 59.6243 40.358C62.1976 36.1764 62.278 30.9494 59.8656 26.6874C54.8798 18.0026 47.7229 10.6044 39.1989 5.29705C37.1081 3.93 34.6957 3.28668 32.2028 3.28668Z" fill="#666666"/>
<path d="M58.0962 27.6524C53.2713 19.2088 46.3556 12.1323 38.1532 7.06617C34.615 4.89497 30.1922 4.81455 26.6539 6.90535C18.2103 11.7302 11.1338 18.6459 6.06764 26.8483C3.89643 30.3865 3.81602 34.8094 5.90681 38.3476C10.7317 46.7912 17.6474 53.8677 25.8497 58.9339C29.388 61.1051 33.8108 61.1855 37.3491 59.0947C45.7927 54.2698 52.8692 47.3541 57.9353 39.1518C60.0261 35.6135 60.1065 31.1907 58.0962 27.6524Z" fill="white"/>
<path d="M31.7207 61.0247C29.63 61.0247 27.4587 60.4618 25.6092 59.2555C17.3265 54.109 10.3303 46.952 5.50544 38.5085C3.41465 34.8094 3.49507 30.2257 5.66627 26.607C10.8128 18.3243 17.9698 11.3282 26.4134 6.50328C30.1124 4.41249 34.6961 4.4929 38.3148 6.6641C46.5975 11.8107 53.5936 18.9676 58.4185 27.4112C60.5093 31.1103 60.4289 35.6939 58.2577 39.3126C53.1111 47.5954 45.9542 54.5915 37.5106 59.4164C35.6611 60.4618 33.6507 61.0247 31.7207 61.0247ZM32.2032 5.69913C30.3537 5.69913 28.5041 6.18162 26.8154 7.1466C18.4523 11.8911 11.3757 18.8068 6.30959 27.0091C4.2188 30.3865 4.13839 34.6485 6.14876 38.1064C10.8932 46.4696 17.8089 53.5461 26.0113 58.6122C29.3887 60.703 33.6507 60.7834 37.1086 58.7731C45.4717 54.0286 52.5482 47.1129 57.6144 38.9105C59.7052 35.5331 59.7856 31.2711 57.7752 27.8133C53.0307 19.4501 46.115 12.3736 37.9127 7.30743C36.1436 6.26203 34.2136 5.69913 32.2032 5.69913Z" fill="#666666"/>
<path d="M38.1543 34.166L37.7522 41.4838C37.7522 41.4838 39.1192 42.288 39.1192 42.9313C39.1192 43.5746 37.2697 43.3334 37.2697 43.3334L24.6445 43.2529" fill="white"/>
<path d="M38.1539 43.8963C37.7518 43.8963 37.4302 43.8158 37.2694 43.8158L24.7246 43.7354V42.8509L37.3498 42.9313C37.9127 43.0117 38.4756 43.0117 38.7168 42.9313C38.6364 42.69 38.0735 42.2075 37.591 41.9663C37.4302 41.8859 37.3498 41.7251 37.3498 41.5642L37.7518 34.2465L38.6364 34.3269L38.3148 41.4034C38.7972 41.7251 39.6818 42.3684 39.6818 43.0921C39.6818 43.3334 39.6014 43.4942 39.4406 43.655C39.0385 43.8158 38.556 43.8963 38.1539 43.8963Z" fill="#666666"/>
<path d="M33.0069 39.8755C33.0069 39.8755 31.3182 40.8405 29.9512 41.0013L33.0069 39.8755Z" fill="white"/>
<path d="M30.0316 41.4034L29.9512 40.5188C31.1574 40.4384 32.7657 39.4734 32.7657 39.4734L33.2482 40.2776C33.1678 40.2776 31.3986 41.2426 30.0316 41.4034Z" fill="#666666"/>
<path d="M27.6993 35.5331C27.6993 35.5331 29.8705 36.4981 29.8705 36.9002C29.9509 37.3022 29.8705 37.9456 30.1118 38.1868C30.353 38.5085 30.9159 39.3126 30.8355 39.7147C30.7551 40.1168 29.9509 40.1168 29.9509 40.9209V41.6446C29.9509 41.6446 32.9263 41.7251 33.1675 42.3684L33.4088 43.0117L23.8394 43.2529L22.3919 42.69C22.3919 42.69 19.5774 43.4942 18.7732 43.4942C17.9691 43.4942 14.5917 43.3334 13.2246 39.9559C15.1546 41.4838 16.2 41.5642 16.2 41.5642V41.0817C16.2 41.0817 18.1299 41.8055 19.2557 41.8055C20.462 41.8055 21.4269 41.4034 21.4269 41.4034C21.4269 41.4034 21.4269 36.1764 24.4023 32.3969C27.3777 28.6174 31.0767 25.3204 30.9963 25.0791C30.9159 24.7575 29.7097 21.2192 30.0314 19.7718C30.4334 18.4047 33.65 16.2335 34.7758 16.3139C35.9821 16.3943 37.1883 17.681 37.1883 17.681C37.1883 17.681 40.2441 16.6356 40.6461 16.8768C41.0482 17.1181 41.3699 19.7718 41.0482 20.4151C40.7266 21.0584 37.912 23.31 37.912 23.31C37.912 23.31 39.5203 24.7575 39.5203 25.24C39.5203 25.6421 38.7162 25.5616 38.7162 25.5616C38.7162 25.5616 39.9224 28.0545 39.9224 28.4566C39.9224 28.8587 39.1183 28.4566 39.1183 28.4566L39.4399 31.7536H38.6358C38.6358 31.7536 38.2337 34.0052 38.1533 34.2465C38.0729 34.4877 36.8666 34.3269 36.6254 35.2114C36.3841 36.096 36.3037 36.9002 36.3841 37.6239C36.4646 38.3476 36.6254 42.0467 36.6254 42.0467C36.6254 42.0467 37.51 42.3684 37.5904 42.9313L37.6708 43.4942L34.7758 43.2529L33.4892 40.1972C33.4892 40.1972 33.0067 40.4384 33.0871 39.8755C33.1675 39.393 33.1675 38.7497 33.1675 38.7497C33.1675 38.7497 32.7655 38.6693 32.685 37.9455C32.6046 37.2218 33.0871 35.7743 33.0871 35.7743" fill="white"/>
<path d="M18.7743 43.9767C17.7289 43.9767 14.1906 43.7354 12.8235 40.1168C12.7431 39.9559 12.8235 39.7147 12.9844 39.5538C13.1452 39.393 13.3864 39.4734 13.5473 39.5538C14.5927 40.358 15.3164 40.7601 15.7185 40.9209C15.7185 40.8405 15.7989 40.6797 15.8793 40.5992C16.0401 40.5188 16.201 40.5188 16.2814 40.5188C16.2814 40.5188 18.1309 41.2426 19.1763 41.2426C19.9001 41.2426 20.5434 41.0817 20.865 40.9209C20.9455 39.7147 21.2671 35.2918 23.9208 31.9948C25.6899 29.7432 27.7003 27.7328 29.0674 26.3658C29.6303 25.8029 30.2736 25.1596 30.4344 24.9183V24.8379C29.8715 23.1492 29.2282 20.7367 29.5499 19.5305C29.9519 17.9222 33.4098 15.6706 34.7768 15.751C35.8222 15.8314 36.8676 16.716 37.2697 17.118C40.3255 16.1531 40.6471 16.3139 40.808 16.4747C41.4513 16.8768 41.773 19.8522 41.4513 20.5759C41.2101 21.1388 39.5213 22.5863 38.5564 23.31C39.4409 24.1946 39.9234 24.8379 39.9234 25.1596C39.9234 25.4008 39.843 25.5616 39.6822 25.7225C39.6017 25.8029 39.5213 25.8833 39.3605 25.8833C39.843 26.9287 40.3255 27.9741 40.3255 28.2957C40.3255 28.537 40.2451 28.6978 40.0842 28.7782C39.9234 28.8586 39.7626 28.8587 39.6017 28.8587L39.843 31.5123C39.843 31.6732 39.843 31.7536 39.7626 31.834C39.6822 31.9144 39.5213 31.9948 39.4409 31.9948H39.0388C38.878 32.7186 38.6368 34.0052 38.5564 34.166C38.4759 34.4877 38.1543 34.5681 37.8326 34.6485C37.4305 34.7289 37.1089 34.8094 37.0285 35.131C36.7872 35.9352 36.7872 36.7393 36.7872 37.3826C36.8676 38.026 36.948 40.6797 37.0285 41.5642C37.3501 41.725 37.913 42.1271 37.9934 42.69L38.0739 43.2529C38.0739 43.4138 38.0739 43.4942 37.913 43.655C37.8326 43.7354 37.6718 43.8158 37.511 43.8158L34.616 43.5746C34.4552 43.5746 34.2944 43.4942 34.2139 43.3334L33.0077 40.5992C32.8469 40.5992 32.7665 40.5188 32.6056 40.4384C32.5252 40.358 32.284 40.1168 32.3644 39.7147C32.3644 39.4734 32.4448 39.1518 32.4448 38.9105C32.2036 38.7497 31.9623 38.428 31.9623 37.8651C31.8819 37.061 32.3644 35.6939 32.4448 35.5331C32.5252 35.2918 32.7665 35.2114 33.0077 35.2919C33.249 35.3723 33.3294 35.6135 33.249 35.8548C33.0881 36.3372 32.7665 37.3022 32.8469 37.7847C32.8469 38.1064 33.0077 38.1868 33.0077 38.1868C33.249 38.1868 33.3294 38.428 33.3294 38.5889C33.3294 38.5889 33.3294 39.0714 33.249 39.5538C33.4098 39.5538 33.5706 39.6343 33.651 39.7951L34.8573 42.6096L36.8676 42.7704C36.8676 42.6096 36.4656 42.3684 36.2243 42.288C36.0635 42.2075 35.9027 42.0467 35.9027 41.8859C35.9027 41.8859 35.7418 38.1868 35.6614 37.4631C35.581 36.6589 35.6614 35.7743 35.9027 34.8898C36.1439 34.0052 36.948 33.8444 37.4305 33.764H37.511C37.5914 33.3619 37.8326 32.3969 37.9934 31.5123C38.0739 31.2711 38.2347 31.1103 38.4759 31.1103H38.7976L38.5564 28.2957C38.5564 28.1349 38.6368 27.9741 38.7172 27.8937C38.878 27.8132 39.0388 27.8133 39.1997 27.8133C38.9584 27.2503 38.5564 26.3658 38.2347 25.5616C38.1543 25.4008 38.1543 25.24 38.3151 25.0791C38.3955 24.9183 38.5564 24.8379 38.7976 24.9183C38.878 24.9183 38.878 24.9183 38.9584 24.9183C38.7172 24.5966 38.1543 24.0337 37.5914 23.4708C37.511 23.3904 37.4305 23.2296 37.4305 23.1492C37.4305 22.9883 37.511 22.9079 37.5914 22.8275C38.9584 21.7821 40.4863 20.4955 40.6471 20.1738C40.808 19.7717 40.6471 17.7614 40.4059 17.2789C39.9234 17.2789 38.5564 17.681 37.3501 18.083C37.1893 18.1634 37.0285 18.083 36.8676 18.0026C36.546 17.681 35.581 16.7964 34.7768 16.716C33.7314 16.6356 30.7561 18.7263 30.4344 19.8522C30.2736 20.3346 30.354 21.5409 31.319 24.5967C31.3994 24.7575 31.3994 24.8379 31.3994 24.9183C31.4798 25.3204 31.319 25.4812 29.7107 27.0895C28.3436 28.4566 26.4137 30.4669 24.6446 32.7186C21.83 36.2568 21.83 41.323 21.83 41.4034C21.83 41.5642 21.7496 41.725 21.5888 41.8055C21.5084 41.8055 20.5434 42.288 19.2567 42.288C18.4526 42.288 17.3268 41.9663 16.603 41.7251C16.603 41.8055 16.5226 41.8859 16.4422 41.9663C16.3618 42.0467 16.201 42.1271 16.1206 42.1271C16.0401 42.1271 15.5576 42.0467 14.7535 41.6446C16.0401 42.9313 17.8093 43.0921 18.6938 43.0921C19.2567 43.0921 21.1063 42.6096 22.1517 42.288C22.2321 42.288 22.3929 42.288 22.4733 42.288L23.8404 42.8509L32.6861 42.6096V42.5292C32.5252 42.3684 31.1582 42.1271 29.8715 42.1271C29.6303 42.1271 29.389 41.8859 29.389 41.6446V40.9209C29.389 40.2776 29.8715 39.9559 30.1128 39.7951C30.1932 39.7147 30.2736 39.7147 30.2736 39.6343C30.2736 39.6343 30.2736 39.393 29.6303 38.5085C29.389 38.1868 29.389 37.7847 29.389 37.3826C29.389 37.2218 29.389 37.1414 29.389 36.9806C29.2282 36.7393 28.3436 36.2568 27.4591 35.8548C27.2178 35.7743 27.1374 35.4527 27.2178 35.2114C27.2982 34.9702 27.6199 34.8898 27.8612 34.9702C30.1932 36.0156 30.2736 36.4981 30.354 36.7393C30.354 36.9001 30.354 37.061 30.4344 37.3022C30.4344 37.5435 30.4344 37.7847 30.5148 37.8651C31.1582 38.7497 31.3994 39.3126 31.319 39.7951C31.2386 40.1972 30.9973 40.358 30.7561 40.5188C30.5148 40.6797 30.4344 40.7601 30.4344 40.9209V41.2426C31.8819 41.323 33.4098 41.5642 33.651 42.288L33.8923 42.9313C33.9727 43.0921 33.8923 43.2529 33.8119 43.3334C33.7314 43.4138 33.5706 43.4942 33.4098 43.4942L23.8404 43.7354C23.76 43.7354 23.6796 43.7354 23.6796 43.7354L22.3929 43.1725C21.7496 43.3333 19.5784 43.9767 18.7743 43.9767Z" fill="#666666"/>
<path d="M17.2452 45.6654C16.9236 45.6654 16.6823 45.585 16.4411 45.4242L16.1998 45.1025C16.1998 45.1025 16.1194 45.0221 16.039 44.9417C15.9586 45.1025 15.9586 45.1829 15.7978 45.3438C15.7174 45.4242 15.6369 45.4242 15.5565 45.5046C15.5565 45.5046 14.9936 45.6654 14.5915 45.6654C14.2699 45.6654 14.0286 45.585 13.8678 45.4242C13.7874 45.3437 13.7874 45.3437 13.7874 45.2633C13.5461 45.1025 13.4657 44.9417 13.4657 44.5396C13.2245 44.0571 12.6616 42.6096 13.3049 41.9663C13.3853 41.8055 13.5461 41.5642 13.6266 41.4034C13.3853 41.0817 13.2245 40.5188 13.3853 39.7951C13.3853 39.7147 13.4657 38.991 13.707 38.3476C13.0637 38.1868 12.0987 37.8651 11.6966 37.2218C11.5358 36.9002 11.3749 36.4177 11.6162 35.7744C11.6966 35.6135 12.0183 35.3723 12.1791 35.3723C12.5007 35.3723 12.6616 35.5331 12.9028 35.9352C12.9028 35.9352 13.2245 36.4981 14.0286 36.4981H14.7524C15.7174 36.4981 16.4411 36.4177 16.8432 36.3373C16.8432 36.3373 17.8886 36.096 19.0948 36.096C19.6577 36.096 20.2206 36.1764 20.6227 36.2568C20.8639 36.1764 21.5072 36.096 21.9897 36.0156C22.1506 35.8548 22.5526 35.6135 23.0351 35.4527C23.0351 35.4527 23.2764 35.2919 23.598 34.8898C23.6784 34.8094 24.2413 34.166 24.8847 33.9248C24.8847 33.9248 24.9651 33.9248 25.0455 33.764C25.0455 33.764 25.3672 33.2815 26.2517 33.2815C26.4126 33.2815 26.5734 33.2815 26.7342 33.2815C26.895 33.2815 28.0209 33.5227 28.6642 34.0856C28.7446 34.1661 28.9054 34.4877 28.9858 34.8094L29.1467 35.131C29.6292 35.3723 30.1116 35.6135 30.1921 36.0156C30.1921 36.096 30.1921 36.1764 30.1921 36.1764V36.2568C30.1921 36.4177 30.1921 36.5785 30.1116 36.6589C30.1116 36.8198 30.1116 36.9806 30.0312 37.1414C29.9508 37.4631 29.6292 37.7043 29.3075 37.8651L29.2271 37.9456V38.026C29.0662 38.2672 28.825 38.3476 28.5033 38.3476C28.3425 38.3476 28.1817 38.2672 27.9404 38.2672C27.6992 38.2672 27.5384 38.3476 27.3775 38.4281C27.3775 38.5085 27.3775 38.5085 27.2971 38.5889C27.2167 38.6693 27.1363 38.8301 26.9755 38.9105C26.9755 38.991 26.895 38.991 26.8146 39.0714C26.8146 39.1518 26.7342 39.2322 26.7342 39.3126L26.6538 39.4734C26.6538 39.8755 26.4126 40.4384 25.6888 41.2426C25.6888 41.4034 25.6084 41.6447 25.4476 41.8859C25.6084 42.4488 25.7692 43.3334 25.6084 43.8963C25.7692 44.0571 26.0105 44.2984 26.0105 44.5396C26.0105 44.62 25.9301 44.8613 25.9301 44.9417C25.7692 45.2633 25.3672 45.4242 24.7238 45.4242C23.8393 45.4242 23.598 45.1829 23.5176 44.9417C23.4372 44.7808 23.4372 44.5396 23.4372 44.4592L23.0351 42.9313C23.0351 42.9313 22.9547 42.7705 22.8743 42.6096C22.7135 42.6096 22.4722 42.6901 22.3114 42.6901C22.231 43.0117 21.9897 43.5746 21.5876 44.1375C21.7485 44.2179 21.9093 44.4592 21.9093 44.7808C21.9093 45.0221 21.8289 45.2633 21.3464 45.5046C21.266 45.5046 20.9443 45.585 20.6227 45.585C19.7381 45.585 19.336 45.2633 19.1752 44.9417C19.0948 45.0221 19.0948 45.1829 18.934 45.2633C18.8535 45.3437 18.7731 45.3437 18.7731 45.4242C18.4515 45.4242 17.8081 45.6654 17.2452 45.6654ZM17.969 43.0921C17.8886 43.3334 17.8081 43.5746 17.8886 43.655C18.0494 43.655 18.6123 43.8159 18.8535 44.2179C18.8535 44.0571 18.934 43.8159 19.0948 43.5746L19.4969 42.5292C19.4164 42.5292 19.336 42.5292 19.2556 42.5292C19.0144 42.5292 18.6927 42.5292 18.371 42.4488L17.969 43.0921Z" fill="white"/>
<path d="M26.0117 33.764C26.1725 33.764 26.2529 33.764 26.4138 33.764C26.4138 33.764 27.5396 33.9248 28.1025 34.4877C28.1025 34.4877 28.2633 34.729 28.2633 35.0506L28.585 35.5331C28.585 35.5331 29.7108 36.0156 29.4695 36.3373C29.4695 36.3373 29.6304 36.4981 29.3891 36.7393C29.3891 36.7393 29.6304 37.3022 28.9066 37.5435L28.585 37.7043C28.585 37.7043 28.6654 37.9456 28.1829 37.9456C28.1829 37.9456 27.9416 37.8652 27.62 37.8652C27.2983 37.8652 26.8962 37.9456 26.655 38.2672L26.7354 38.4281H26.4138L26.4942 38.5889H26.2529V38.6693L26.1725 38.8301V38.9106L26.0921 39.0714L25.9313 39.3126C25.9313 39.3126 26.2529 39.6343 25.0467 41.0013C25.0467 41.0013 24.9663 41.323 24.725 41.8859C24.725 41.8859 25.2075 43.7355 24.8055 44.1375C24.8055 44.1375 25.2879 44.2984 25.2879 44.62C25.2879 44.62 25.4488 45.0221 24.4034 45.0221H24.323C24.0817 45.0221 23.6796 45.0221 23.6796 44.7808C23.6796 44.7808 23.5992 44.7808 23.5992 44.4592L23.1972 42.8509C23.1972 42.8509 23.0363 42.5292 22.9559 42.0467C22.9559 42.0467 22.3126 42.288 21.6693 42.288C21.6693 42.288 21.5889 43.0921 20.7847 44.0571C20.7847 44.0571 20.7043 44.2179 20.8651 44.3788C20.8651 44.3788 21.5889 44.7808 20.9455 45.0221C20.9455 45.0221 20.7043 45.1025 20.3826 45.1025C19.9001 45.1025 19.3372 45.0221 19.3372 44.4592C19.3372 44.4592 19.3372 44.1375 19.5785 43.655L19.9001 42.7705L20.2218 41.8859C20.2218 41.8859 19.9001 41.9663 19.3372 41.9663C19.0156 41.9663 18.6135 41.9663 18.131 41.8859L17.6485 42.8509C17.6485 42.8509 17.166 43.8159 17.8093 44.0571C17.8093 44.0571 19.0156 44.2984 18.4527 44.9417C18.4527 44.9417 17.8093 45.1829 17.3269 45.1829C17.166 45.1829 17.0052 45.1829 16.8444 45.0221L16.6835 44.7808C16.6835 44.7808 15.6381 44.1375 15.7186 42.6901C15.7186 42.6901 15.7186 42.2076 15.5577 42.0467C15.5577 42.0467 15.2361 42.6901 15.0752 43.4942C15.0752 43.4942 16.1206 44.3788 15.5577 44.9417C15.5577 44.9417 15.0752 45.0221 14.6732 45.0221C14.5123 45.0221 14.3515 45.0221 14.2711 44.9417V44.7808C14.2711 44.7808 14.2711 44.7808 14.1907 44.7808C14.1103 44.7808 13.9494 44.7004 13.9494 44.3788C13.9494 44.3788 13.1453 42.6096 13.6278 42.1272C13.6278 42.1272 14.0298 41.4838 14.0298 41.0818C14.0298 41.0818 13.5473 40.5993 13.7082 39.7147C13.7082 39.7147 13.7886 38.5085 14.1907 38.026L14.2711 37.8652C14.2711 37.8652 11.1349 37.5435 11.8586 35.7744C11.8586 35.7744 11.939 35.694 12.0195 35.694C12.0999 35.694 12.1803 35.7744 12.2607 36.0156C12.2607 36.0156 12.6628 36.8198 13.7886 36.8198C13.869 36.8198 13.869 36.8198 13.9494 36.8198C13.9494 36.8198 14.1907 36.8198 14.5123 36.8198C15.1556 36.8198 16.1206 36.8198 16.6835 36.6589C16.6835 36.6589 17.7289 36.4177 18.7743 36.4177C19.2568 36.4177 19.8197 36.4981 20.3022 36.6589C20.3022 36.6589 21.2672 36.4177 21.8301 36.4177C21.8301 36.4177 22.3126 36.096 22.8755 35.8548C22.8755 35.8548 23.1167 35.6939 23.5188 35.2115C23.5188 35.2115 24.0817 34.5681 24.6446 34.4073C24.6446 34.4073 24.8055 34.4073 25.0467 34.0857C25.1271 34.0857 25.3684 33.764 26.0117 33.764ZM26.0117 32.8794C25.0467 32.8794 24.5642 33.2815 24.4034 33.5227C23.5992 33.764 23.0363 34.4877 22.8755 34.5681C22.6342 34.8094 22.4734 34.9702 22.393 35.0506C21.9909 35.2115 21.6693 35.3723 21.5084 35.5331C21.1064 35.6135 20.6239 35.694 20.3022 35.694C19.8197 35.5331 19.3372 35.5331 18.6939 35.5331C17.4877 35.5331 16.3619 35.7744 16.3619 35.7744C16.0402 35.8548 15.3165 35.9352 14.4319 35.9352C14.1103 35.9352 13.869 35.9352 13.869 35.9352H13.7082C13.1453 35.9352 12.9844 35.6939 12.9844 35.6135C12.6628 34.9702 12.2607 34.8094 11.8586 34.8094C11.3761 34.8094 11.0545 35.131 10.8937 35.3723C10.8937 35.3723 10.8937 35.4527 10.8132 35.4527C10.4916 36.2569 10.7328 36.9002 10.9741 37.3023C11.3761 37.9456 12.1803 38.3476 12.8236 38.5085C12.6628 38.9106 12.6628 39.393 12.6628 39.6343C12.502 40.358 12.6628 40.9209 12.904 41.323C12.8236 41.4034 12.8236 41.5642 12.7432 41.6447C12.0999 42.4488 12.5824 43.8159 12.904 44.7004C12.9844 45.1025 13.1453 45.4242 13.3865 45.585C13.3865 45.6654 13.4669 45.6654 13.5473 45.7458C13.7886 45.9871 14.1103 46.0675 14.5927 46.0675C15.0752 46.0675 15.6381 45.9067 15.6381 45.9067C15.799 45.9067 15.9598 45.8262 16.0402 45.6654C16.0402 45.6654 16.0402 45.7458 16.1206 45.7458C16.3619 45.9871 16.7639 46.0675 17.166 46.0675C17.8093 46.0675 18.4527 45.8262 18.5331 45.8262C18.6135 45.8262 18.7743 45.7458 18.8547 45.6654C19.1764 45.9067 19.6589 46.0675 20.3022 46.0675C20.7043 46.0675 21.0259 45.9871 21.0259 45.9871C21.1064 45.9871 21.1868 45.9871 21.2672 45.9067C21.9909 45.585 22.0713 45.0221 22.0713 44.8613C22.0713 44.62 21.9909 44.3788 21.8301 44.1375C22.0713 43.8159 22.2322 43.4942 22.3126 43.253L22.7147 44.7004C22.7147 44.8613 22.7147 45.0221 22.8755 45.2633C23.0363 45.585 23.358 46.0675 24.4034 46.0675H24.5642C24.8859 46.0675 25.7704 45.9871 26.1725 45.4242C26.3333 45.1829 26.4138 44.8613 26.3333 44.62C26.3333 44.2984 26.1725 44.0571 26.0117 43.8963C26.0117 43.4942 26.0117 42.9313 25.8508 42.1272C25.9313 41.9663 26.0117 41.7251 26.0117 41.6447C26.655 40.9209 26.9767 40.2776 26.9767 39.7951C26.9767 39.7147 27.0571 39.7147 27.0571 39.6343C27.1375 39.5539 27.2179 39.4735 27.2983 39.4735C27.3787 39.393 27.4591 39.3126 27.5396 39.2322C27.5396 39.1518 27.62 39.1518 27.62 39.0714H27.7004C27.8612 39.0714 28.0221 39.0714 28.0221 39.0714C28.1025 39.0714 28.1829 39.0714 28.2633 39.0714H28.3437C28.8262 39.0714 29.2283 38.8301 29.4695 38.5085C30.0324 38.2672 30.2737 37.8652 30.3541 37.6239C30.4345 37.4631 30.4345 37.2218 30.4345 37.061C30.5149 36.8198 30.5953 36.6589 30.5149 36.4981C30.5149 36.4177 30.5149 36.2568 30.5149 36.1764C30.5149 36.0156 30.3541 35.5331 29.3891 35.0506L29.3087 34.8898C29.2283 34.4877 29.0674 34.1661 28.987 34.1661C28.9066 34.0856 28.9066 34.0856 28.8262 34.0052C28.1025 33.3619 26.8962 33.1207 26.655 33.0403C26.3333 32.8794 26.1725 32.8794 26.0117 32.8794ZM18.3722 43.3334L18.5331 42.9313C18.6135 42.9313 18.6939 42.9313 18.7743 42.9313L18.6135 43.4138C18.5331 43.4138 18.4527 43.3334 18.3722 43.3334Z" fill="#666666"/>
<path d="M49.5719 40.8405C49.1699 40.8405 48.6874 40.6797 48.607 40.6797C48.5265 40.6797 48.4461 40.5993 48.4461 40.5188L48.3657 40.4384C48.2049 40.5993 47.8832 40.8405 47.3203 40.8405C47.0791 40.8405 46.8378 40.8405 46.8378 40.8405C46.3553 40.5993 46.2749 40.358 46.2749 40.1972C46.2749 39.9559 46.3553 39.7951 46.4358 39.7147C46.1945 39.393 46.0337 39.0714 45.9533 38.8301C45.8729 38.8301 45.7924 38.8301 45.712 38.8301C45.6316 38.991 45.6316 39.0714 45.6316 39.0714L45.3904 40.1168C45.3904 40.1168 45.3904 40.2776 45.3099 40.4384C45.2295 40.6797 44.9883 40.8405 44.4254 40.8405C44.0233 40.8405 43.5408 40.7601 43.38 40.4384C43.2996 40.2776 43.2192 40.0364 43.2996 39.8755C43.2996 39.7147 43.38 39.5539 43.5408 39.4734C43.5408 39.1518 43.5408 38.6693 43.7016 38.1064C43.6212 37.9456 43.6212 37.7847 43.5408 37.7043C43.0583 37.1414 42.8171 36.7393 42.8171 36.3373C42.7367 36.2568 42.7367 36.1764 42.7367 36.096C42.6563 36.096 42.4954 36.0156 42.4954 35.9352C42.4954 35.8548 42.415 35.8548 42.415 35.7744C42.3346 35.7744 42.2542 35.7744 42.1738 35.7744C42.0129 35.7744 41.9325 35.7744 41.9325 35.7744C41.45 35.7744 41.2892 35.6939 41.1284 35.4527H41.048C40.7263 35.2919 40.5655 35.0506 40.485 34.8898C40.4046 34.729 40.4046 34.6485 40.4046 34.5681C40.3242 34.4877 40.3242 34.3269 40.3242 34.2465V34.1661C40.3242 34.0856 40.3242 34.0052 40.3242 34.0052C40.4046 33.764 40.6459 33.5227 41.1284 33.2815L41.2088 33.1207C41.2892 32.8794 41.3696 32.6382 41.3696 32.6382C41.9325 32.0753 42.8171 31.9144 42.8975 31.9144C43.0583 31.9144 43.1387 31.9144 43.2996 31.9144C44.0233 31.9144 44.2646 32.2361 44.345 32.3165C44.9079 32.4773 45.3904 33.0402 45.3904 33.0402C45.6316 33.2815 45.7924 33.4423 45.7924 33.4423C46.0337 33.5227 46.2749 33.6836 46.4358 33.764C46.7574 33.764 47.1595 33.8444 47.4007 33.9248C47.7224 33.8444 48.1245 33.764 48.5266 33.764C49.4111 33.764 50.1349 33.9248 50.1349 33.9248C50.3761 34.0052 50.939 34.0052 51.5823 34.0052H51.9844C52.6277 34.0052 52.7886 33.6836 52.7886 33.6836C52.9494 33.3619 53.1102 33.2011 53.4319 33.2011C53.5927 33.2011 53.8339 33.3619 53.9144 33.5227C54.1556 34.0856 53.9948 34.4877 53.8339 34.729C53.5123 35.2114 52.9494 35.4527 52.4669 35.6135C52.6277 36.0156 52.6277 36.4981 52.6277 36.5785C52.7081 37.061 52.5473 37.4631 52.4669 37.7043C52.5473 37.7847 52.6277 37.9456 52.6277 38.1064C53.0298 38.5889 52.6277 39.7147 52.4669 40.1972C52.4669 40.4384 52.3865 40.5993 52.1452 40.6797C52.1452 40.6797 52.1452 40.7601 52.0648 40.7601C51.904 40.9209 51.7432 40.9209 51.4215 40.9209C51.0998 40.9209 50.6978 40.8405 50.6978 40.8405C50.6173 40.8405 50.5369 40.7601 50.4565 40.6797C50.3761 40.5993 50.3761 40.5993 50.3761 40.5188C50.2957 40.5993 50.2957 40.5993 50.2957 40.5993V40.6797C50.0544 40.7601 49.8936 40.8405 49.5719 40.8405ZM48.5266 39.393C48.7678 39.2322 49.009 39.1518 49.0895 39.1518C49.009 39.1518 48.9286 38.991 48.9286 38.9105L48.7678 38.5085C48.607 38.5085 48.3657 38.5085 48.2049 38.5085C48.2049 38.5889 48.4461 39.3126 48.5266 39.393Z" fill="white"/>
<path d="M43.3003 32.2361C43.7828 32.2361 43.9436 32.4773 43.9436 32.4773C44.1044 32.6382 44.2653 32.7186 44.2653 32.7186C44.6673 32.8794 45.0694 33.2815 45.0694 33.2815C45.3911 33.6032 45.5519 33.764 45.5519 33.764C45.954 33.9248 46.2756 34.1661 46.2756 34.1661C46.6777 34.1661 47.4014 34.3269 47.4014 34.3269C47.7231 34.2465 48.1252 34.1661 48.5273 34.1661C49.3314 34.1661 50.0551 34.3269 50.0551 34.3269C50.4572 34.4073 51.181 34.4073 51.583 34.4073C51.8243 34.4073 51.9851 34.4073 51.9851 34.4073H52.0655C52.9501 34.4073 53.1913 33.8444 53.1913 33.8444C53.2717 33.6836 53.3522 33.6032 53.3522 33.6032C53.4326 33.6032 53.4326 33.6836 53.4326 33.6836C53.9151 34.9702 51.6634 35.2115 51.6634 35.2115L51.7439 35.3723C52.0655 35.6939 52.1459 36.5785 52.1459 36.5785C52.3068 37.2218 51.9047 37.5435 51.9047 37.5435C51.9047 37.7847 52.2263 38.2672 52.2263 38.2672C52.548 38.6693 51.9851 39.8755 51.9851 39.8755C51.9851 40.1168 51.8243 40.1972 51.8243 40.1972V40.2776C51.7439 40.358 51.6634 40.358 51.5026 40.358C51.2614 40.358 50.8593 40.2776 50.8593 40.2776C50.4572 39.8755 51.181 39.2322 51.181 39.2322C51.1005 38.6693 50.8593 38.1868 50.8593 38.1868C50.7789 38.2672 50.6985 38.5889 50.6985 38.5889C50.7789 39.6343 50.0551 40.0364 50.0551 40.0364L49.8943 40.1972C49.8139 40.2776 49.7335 40.2776 49.5727 40.2776C49.251 40.2776 48.7685 40.1168 48.7685 40.1168C48.3664 39.6343 49.1706 39.4735 49.1706 39.4735C49.5727 39.3126 49.251 38.5889 49.251 38.5889L48.9293 37.8652C48.6077 37.9456 48.286 37.9456 48.1252 37.9456C47.7231 37.9456 47.4819 37.8652 47.4819 37.8652L47.7231 38.5085L47.9644 39.1518C48.1252 39.5539 48.1252 39.7147 48.1252 39.7147C48.1252 40.1168 47.7231 40.1972 47.321 40.1972C47.0798 40.1972 46.919 40.1972 46.919 40.1972C46.4365 39.9559 46.9994 39.7147 46.9994 39.7147C47.1602 39.5539 47.0798 39.4735 47.0798 39.4735C46.5169 38.8301 46.4365 38.1868 46.4365 38.1868C45.954 38.1868 45.4715 38.026 45.4715 38.026C45.4715 38.3476 45.3107 38.5889 45.3107 38.5889L44.989 39.7951C44.989 40.0364 44.9086 40.0364 44.9086 40.0364C44.9086 40.1972 44.5869 40.1972 44.4261 40.1972H44.3457C43.6219 40.1972 43.7024 39.8755 43.7024 39.8755C43.7024 39.6343 44.024 39.5539 44.024 39.5539C43.7828 39.2322 44.1044 37.9456 44.1044 37.9456C43.9436 37.5435 43.8632 37.3023 43.8632 37.3023C42.9786 36.3373 43.2199 36.096 43.2199 36.096L43.1395 35.9352L43.059 35.8548V35.7744L42.9786 35.694V35.6135H42.8178L42.8982 35.4527H42.657L42.7374 35.2919C42.5765 35.0506 42.2549 35.0506 42.0136 35.0506C41.7724 35.0506 41.6116 35.131 41.6116 35.131C41.2095 35.131 41.2899 34.9702 41.2899 34.9702L41.0487 34.8094C40.5662 34.5681 40.727 34.2465 40.727 34.2465C40.5662 34.0052 40.6466 33.9248 40.6466 33.9248C40.4858 33.6836 41.2899 33.3619 41.2899 33.3619L41.5312 32.9598C41.5312 32.7186 41.692 32.5578 41.692 32.5578C42.0941 32.1557 42.8982 32.0753 42.8982 32.0753C43.1395 32.2361 43.2199 32.2361 43.3003 32.2361ZM43.3003 31.3515C43.1395 31.3515 43.059 31.3515 42.8982 31.3515C42.7374 31.3515 41.7724 31.5928 41.2095 32.0753C41.1291 32.1557 41.1291 32.1557 41.0487 32.2361C40.9682 32.3165 40.8878 32.4773 40.8074 32.799C40.0033 33.2011 39.9229 33.6032 39.9229 33.764C39.9229 33.8444 39.9229 33.9248 39.9229 34.0052V34.0857C39.9229 34.2465 39.9229 34.4073 40.0033 34.5681C40.0033 34.729 40.0033 34.8094 40.0837 34.9702C40.1641 35.2115 40.4053 35.5331 40.8074 35.694C40.9682 35.9352 41.2095 36.096 41.7724 36.1764C41.7724 36.1764 41.7724 36.1764 41.8528 36.1764C41.9332 36.1764 42.0136 36.1764 42.0941 36.1764C42.0941 36.1764 42.0941 36.1764 42.1745 36.1764C42.2549 36.2568 42.3353 36.3373 42.3353 36.4177C42.4157 36.4981 42.4157 36.4981 42.4961 36.5785C42.5765 36.9806 42.7374 37.3827 43.2199 37.9456C43.2199 38.026 43.3003 38.1064 43.3003 38.1868C43.2199 38.6693 43.1395 39.0714 43.1395 39.393C42.9786 39.5539 42.8982 39.7147 42.8982 39.9559C42.8178 40.1972 42.8982 40.5188 43.059 40.7601C43.4611 41.323 44.1848 41.323 44.4261 41.4034C44.4261 41.4034 44.5065 41.4034 44.5869 41.4034C45.4715 41.4034 45.7932 41.0013 45.8736 40.6797C45.8736 40.5993 45.954 40.5188 45.954 40.4384C45.954 40.6797 46.1148 41.0818 46.6777 41.323C46.7581 41.323 46.8385 41.4034 46.919 41.4034C46.919 41.4034 47.1602 41.4838 47.4819 41.4838C47.8839 41.4838 48.2056 41.4034 48.5273 41.2426C48.6077 41.2426 48.6077 41.323 48.6881 41.323C48.7685 41.323 49.3314 41.4838 49.7335 41.4838C50.0551 41.4838 50.3768 41.4034 50.5376 41.2426C50.618 41.2426 50.6985 41.323 50.7789 41.323C50.8593 41.323 51.2614 41.4034 51.583 41.4034C51.9851 41.4034 52.3068 41.323 52.548 41.0818L52.6284 41.0013C52.7893 40.8405 52.9501 40.5993 53.0305 40.2776C53.3522 39.4735 53.5934 38.5085 53.1109 37.8652C53.1109 37.8652 53.1109 37.7847 53.0305 37.7847C53.1913 37.4631 53.2717 37.061 53.1913 36.5785C53.1913 36.4177 53.1913 36.2569 53.1109 36.0156C53.5934 35.8548 54.0759 35.5331 54.3171 35.131C54.6388 34.6485 54.6388 34.0856 54.478 33.6032C54.478 33.6032 54.478 33.5227 54.3976 33.5227C54.2367 33.2011 53.8347 32.9598 53.513 32.9598C53.2717 32.9598 52.7893 33.0403 52.4676 33.6836C52.4676 33.6836 52.3872 33.764 52.1459 33.764H52.0655H51.6634C50.9397 33.764 50.4572 33.764 50.2964 33.6836C50.2964 33.6836 49.4922 33.4423 48.5273 33.4423C48.1252 33.4423 47.7231 33.5227 47.4014 33.6032C47.2406 33.6032 46.919 33.5227 46.6777 33.5227C46.5169 33.4423 46.3561 33.2815 46.1148 33.2011C46.0344 33.1207 45.954 33.0403 45.7931 32.8794C45.7127 32.799 45.3107 32.3165 44.6673 32.0753C44.5065 31.6732 44.1044 31.3515 43.3003 31.3515Z" fill="#666666"/>
<path d="M22.1513 32.7186C26.4133 30.0649 27.4587 24.7575 27.6195 21.1388C27.6195 20.6564 27.2174 20.2543 26.7349 20.1739C24.4833 19.8522 22.9554 19.1285 22.2317 18.7264C21.91 18.5656 21.5884 18.5656 21.2667 18.7264C20.543 19.1285 19.0151 19.7718 16.7635 20.1739C16.281 20.2543 15.8789 20.6564 15.8789 21.1388C15.9593 24.7575 16.6831 29.8237 20.9451 32.7186C21.3471 32.8794 21.8296 32.9599 22.1513 32.7186Z" fill="white"/>
<path d="M21.5873 34.729C21.0244 34.729 20.4615 34.5681 19.979 34.2465C16.1191 31.5928 14.1892 27.3308 14.0283 21.1388C14.0283 19.6913 15.0737 18.4851 16.5212 18.2439C18.5316 17.9222 19.8182 17.3593 20.3811 17.0376C21.2657 16.5552 22.3111 16.5552 23.1152 17.0376C23.6781 17.3593 24.9648 17.9222 26.9751 18.2439C28.4226 18.4851 29.468 19.7718 29.468 21.1388C29.3072 24.6771 28.3422 31.0299 23.1152 34.3269C22.7131 34.6485 22.1502 34.729 21.5873 34.729ZM17.8882 21.8626C18.1295 26.0441 19.3357 28.9391 21.6677 30.7886C24.6431 28.6174 25.4473 24.5967 25.6885 21.8626C23.9194 21.5409 22.6327 20.978 21.8286 20.5759C20.944 20.978 19.6574 21.5409 17.8882 21.8626Z" fill="white"/>
<path d="M21.5878 33.2815C21.3465 33.2815 21.0249 33.2011 20.7836 33.0402C17.4062 30.7082 15.6371 26.8483 15.5566 21.1388C15.5566 20.4955 16.0391 19.8522 16.7629 19.7717C19.0145 19.4501 20.462 18.7263 21.1053 18.4047C21.5074 18.1634 21.9898 18.1634 22.3919 18.4047C23.0352 18.8068 24.5631 19.4501 26.7343 19.7717C27.4581 19.8522 27.9406 20.4955 27.9406 21.1388C27.8601 24.3554 26.8952 30.1453 22.3115 33.0402C22.1507 33.2011 21.829 33.2815 21.5878 33.2815ZM21.7486 18.9676C21.6682 18.9676 21.5878 18.9676 21.4269 19.048C20.7032 19.4501 19.1753 20.1738 16.8433 20.4955C16.5216 20.5759 16.2804 20.8171 16.2804 21.0584C16.4412 26.4462 18.0495 30.1453 21.1857 32.3165C21.3465 32.4773 21.6682 32.4773 21.9094 32.3165C26.2518 29.5824 27.056 24.1142 27.1364 20.978C27.1364 20.6563 26.8952 20.4151 26.5735 20.4151C24.2415 20.013 22.7136 19.3697 21.9898 18.9676C21.9898 18.9676 21.829 18.9676 21.7486 18.9676Z" fill="#666666"/>
<path d="M21.1057 28.6174C20.9449 28.6174 20.7036 28.537 20.6232 28.3762L18.2912 25.4812C18.0499 25.1596 18.1303 24.7575 18.3716 24.5162C18.6932 24.275 19.0953 24.3554 19.3366 24.5967L21.1057 26.8483L24.2419 22.4255C24.4831 22.1038 24.8852 22.0234 25.1264 22.2646C25.4481 22.5059 25.5285 22.908 25.2873 23.1492L21.6686 28.2958C21.5078 28.4566 21.3469 28.6174 21.1057 28.6174Z" fill="#666666"/>
</svg>
