<svg width="62" height="62" viewBox="0 0 62 62" fill="none" xmlns="http://www.w3.org/2000/svg">
<path d="M30.7189 62C27.9705 62 25.3838 61.2725 23.0396 59.8175C14.3095 54.4824 7.03438 46.884 1.94181 37.9922C-0.725722 33.3038 -0.644897 27.6454 2.18431 23.0378C7.51938 14.3077 15.1178 7.0326 24.0096 1.94003C26.1921 0.646677 28.698 0 31.2847 0C34.0331 0 36.6198 0.72751 38.964 2.18253C47.6941 7.5176 54.9692 15.116 60.0618 24.0078C62.7293 28.6962 62.6485 34.3546 59.8193 38.9622C54.4842 47.6923 46.8858 54.9674 37.994 60.06C35.7306 61.3533 33.2247 62 30.7189 62ZM31.2039 1.37419C28.8597 1.37419 26.5963 2.02086 24.5755 3.15254C15.8453 8.16428 8.4894 15.2777 3.23516 23.8462C0.648456 28.0495 0.567619 33.2229 2.99265 37.5072C8.00439 46.2373 15.1178 53.5932 23.6863 58.8475C25.788 60.1408 28.213 60.7875 30.7189 60.7875C33.0631 60.7875 35.3264 60.1408 37.3473 59.0091C46.0774 53.9974 53.4333 46.884 58.6876 38.3155C61.2743 34.1121 61.3551 28.9387 58.9301 24.6545C53.9184 15.9244 46.8049 8.56845 38.2365 3.31421C36.1348 2.10169 33.7097 1.37419 31.2039 1.37419Z" fill="#575756"/>
<path d="M57.0715 25.7055C52.3023 17.2987 45.3505 10.1853 37.1054 5.09269C33.6295 2.91016 29.1836 2.91016 25.6269 4.93102C17.2201 9.70025 10.1067 16.652 5.01413 24.8971C2.8316 28.373 2.83161 32.8189 4.85247 36.3756C9.6217 44.7824 16.5735 51.8958 24.8186 56.9884C28.2944 59.1709 32.7403 59.1709 36.2971 57.1501C44.7038 52.3808 51.8173 45.4291 56.9098 37.184C59.0115 33.7081 59.0924 29.343 57.0715 25.7055Z" fill="white"/>
<path d="M30.7193 59.0901C28.6177 59.0901 26.516 58.5242 24.5759 57.3925C16.25 52.3 9.29822 45.1057 4.52899 36.6181C2.4273 32.8997 2.50813 28.373 4.69066 24.7354C9.78323 16.4095 16.9775 9.45774 25.4651 4.6885C29.1835 2.58681 33.7102 2.66764 37.3478 4.85017C45.6737 9.94274 52.6255 17.137 57.3947 25.6246C59.4964 29.343 59.4156 33.8697 57.233 37.5073C52.1405 45.8332 44.9462 52.785 36.4586 57.5542C34.6802 58.6051 32.6594 59.0901 30.7193 59.0901ZM31.2043 3.88016C29.3451 3.88016 27.486 4.36517 25.7884 5.33518C17.4625 10.1044 10.3491 16.9753 5.33733 25.1396C3.23564 28.5347 3.15481 32.7381 5.17567 36.2139C9.9449 44.5399 16.8158 51.6533 24.9801 56.665C28.3751 58.7667 32.5785 58.8476 36.0544 56.8267C44.3803 52.0575 51.4938 45.1866 56.5055 37.0223C58.6072 33.6272 58.688 29.4238 56.6672 25.948C51.9788 17.622 45.1079 10.5086 36.9436 5.49685C35.1652 4.446 33.1444 3.88016 31.2043 3.88016Z" fill="#575756"/>
<path d="M35.3249 49.5507C34.4358 49.5507 33.6274 49.3082 32.8999 48.8232C21.4214 40.9823 19.8856 27.4021 19.7239 21.9862C19.6431 19.8845 21.0981 18.1061 23.1998 17.702C25.4631 17.217 29.8282 16.2469 33.2232 14.3069C34.5166 13.5794 36.0525 13.5794 37.3458 14.3069C40.7409 16.1661 45.1059 17.217 47.3693 17.702C49.3901 18.1061 50.8452 19.8845 50.7643 21.9862C50.6027 27.4829 49.0668 41.0631 37.5883 48.8232C37.0225 49.3082 36.2141 49.5507 35.3249 49.5507ZM35.3249 15.1961C34.8399 15.1961 34.3549 15.3578 33.9508 15.5194C30.3941 17.4595 25.8673 18.5911 23.5231 18.9953C22.1489 19.2378 21.1789 20.4503 21.2598 21.9054C21.4214 27.1596 22.8764 40.1739 33.7891 47.6107C34.7591 48.2574 36.0525 48.2574 37.0225 47.6107C47.9351 40.1739 49.3901 27.1596 49.5518 21.9054C49.5518 20.5312 48.5818 19.3187 47.2885 18.9953C44.9443 18.5103 40.4175 17.4595 36.8608 15.4386C36.295 15.3578 35.8099 15.1961 35.3249 15.1961Z" fill="#575756"/>
<path d="M17.2994 33.6267C17.2994 34.5158 16.5718 35.3242 15.6018 35.3242C14.6318 35.3242 13.9043 34.5967 13.9043 33.6267C13.9043 32.6566 14.6318 31.9291 15.6018 31.9291C16.5718 31.9291 17.2994 32.7375 17.2994 33.6267Z" fill="#575756"/>
<path d="M33.627 35.4049C33.0612 33.7882 31.9295 32.5757 30.232 31.2823C28.777 30.2315 26.9986 29.1806 24.7352 27.9681L25.9478 27.1598L27.9686 25.7856C28.1303 25.7048 28.2111 25.5431 28.292 25.3814C28.3728 25.2198 28.3728 25.0581 28.292 24.8964C28.2111 24.7348 28.1303 24.5731 27.9686 24.4923C27.8069 24.4114 27.6453 24.3306 27.4836 24.3306L22.5527 24.2497L17.6218 24.1689C17.4602 24.1689 17.2985 24.1689 17.2176 24.2497C17.056 24.3306 16.9752 24.4114 16.8943 24.5731C16.8135 24.7348 16.8135 24.8156 16.8135 24.9773C16.8135 25.1389 16.8135 25.2198 16.8943 25.3814L19.3193 29.4232L21.7444 33.4649C21.7444 33.5457 21.8252 33.5457 21.906 33.6265C21.9869 33.7074 21.9869 33.7074 22.0677 33.7882C22.1485 33.869 22.2294 33.869 22.391 33.869C22.4719 33.869 22.6336 33.869 22.7144 33.869C22.8761 33.869 23.0377 33.7882 23.1994 33.6265C23.2802 33.5457 23.3611 33.384 23.4419 33.2224L23.7652 30.8782L23.9269 29.3423C26.1094 30.5548 27.9686 31.6057 29.262 32.5757C30.717 33.6265 31.687 34.6774 32.0912 35.8899C32.8187 38.1533 31.687 40.6591 30.3128 42.5992C28.9387 44.5392 27.3219 45.9942 27.1603 46.075C26.9986 46.2367 26.9178 46.3984 26.9178 46.6409C26.9178 46.8025 26.9986 47.0451 27.1603 47.2067L27.2411 47.2876L27.322 47.3684C27.4836 47.4492 27.6453 47.5301 27.807 47.4492C27.9686 47.4492 28.1303 47.3684 28.292 47.2067C28.6961 46.8834 30.4745 45.2667 31.9295 43.0842C33.3845 40.9016 34.597 38.0724 33.627 35.4049Z" fill="white"/>
<path d="M27.6462 49.2276C27.1612 49.2276 26.6762 49.1468 26.272 48.9043C26.1912 48.9043 26.1103 48.8234 25.9486 48.7426C25.787 48.6618 25.7061 48.5809 25.6253 48.5001C25.1403 48.0151 24.8978 47.2876 24.8978 46.6409C24.8978 45.9134 25.2211 45.2667 25.787 44.7817C25.787 44.7817 27.3228 43.4075 28.6162 41.6292C29.667 40.1741 30.7179 38.1533 30.152 36.5366C29.9095 35.8091 29.182 35.0007 27.9695 34.1116C27.242 33.5457 26.272 32.9799 25.1403 32.3332L24.9786 33.5457C24.8978 34.1116 24.6553 34.6774 24.2511 35.0816C23.847 35.4858 23.362 35.7283 22.8769 35.8091C22.5536 35.8899 22.2303 35.8899 21.9069 35.8091C21.5836 35.7283 21.2603 35.6474 21.0178 35.4858C20.8561 35.4049 20.6136 35.2433 20.4519 35.0816C20.2902 34.9199 20.1286 34.7582 19.9669 34.5157L15.036 26.5131C14.7935 26.109 14.6318 25.624 14.6318 25.1389C14.6318 24.6539 14.7935 24.2498 15.036 23.8456C15.2785 23.4414 15.6019 23.1181 16.0869 22.8756C16.491 22.6331 16.8952 22.5522 17.3802 22.5522L27.242 22.6331C27.8078 22.6331 28.2928 22.7947 28.7778 23.1181C29.2629 23.4414 29.5862 23.8456 29.7479 24.4114C29.9095 24.9773 29.9095 25.5431 29.7479 26.0281C29.5862 26.594 29.182 26.9981 28.7778 27.3215L27.9695 27.8873C29.182 28.6148 30.2329 29.2615 31.1221 29.9082C33.3046 31.444 34.5171 33.0607 35.1638 34.9199C36.1338 37.6683 35.4063 40.9017 33.2237 44.2159C31.6071 46.6409 29.5862 48.4193 29.2629 48.7426C28.8587 49.0659 28.2929 49.3084 27.8078 49.3893C27.8887 49.2276 27.727 49.2276 27.6462 49.2276ZM19.4011 26.0281L21.9069 30.1507L22.0686 29.019C22.1494 28.4532 22.4728 27.9681 22.9578 27.6448C23.0386 27.1598 23.2811 26.6748 23.7661 26.3515L24.332 26.0281H19.4011Z" fill="white"/>
<path d="M17.623 24.9775L22.554 25.0583H27.4849L25.3023 26.5942L23.2006 28.0492L22.8773 30.5551L22.554 33.061L20.0481 29.0192L17.623 24.9775Z" fill="#575756"/>
<path d="M22.5534 33.3033C22.4725 33.3033 22.3109 33.2225 22.3109 33.1416L17.38 25.139C17.2991 25.0582 17.2991 24.8965 17.38 24.8157C17.4608 24.7349 17.5416 24.654 17.6225 24.654L27.4843 24.7349C27.6459 24.7349 27.7268 24.8157 27.8076 24.9774C27.8884 25.139 27.8076 25.2199 27.7268 25.3007L23.5234 28.2107L22.8767 33.0608C22.7959 33.2225 22.715 33.3033 22.5534 33.3033ZM18.1883 25.3007L22.3917 32.1716L22.9575 28.0491C22.9575 27.9682 23.0384 27.8874 23.1192 27.8066L26.6759 25.3815L18.1883 25.3007Z" fill="#575756"/>
<path d="M21.906 33.6265C21.8252 33.5457 21.8252 33.5457 21.7444 33.4649L19.3193 29.4232L16.8943 25.3814C16.8135 25.2198 16.8135 25.1389 16.8135 24.9773C16.8135 24.8156 16.8135 24.7348 16.8943 24.5731C16.9752 24.4114 17.056 24.3306 17.2176 24.2497C17.3793 24.1689 17.4602 24.1689 17.6218 24.1689L22.5527 24.2497L27.4836 24.3306C27.6453 24.3306 27.8069 24.4114 27.9686 24.4923C28.1303 24.5731 28.2111 24.7348 28.292 24.8964C28.3728 25.0581 28.3728 25.2198 28.292 25.3814C28.2111 25.5431 28.1303 25.7048 27.9686 25.7856L25.9478 27.1598L23.9269 28.534L23.6036 30.8782L23.2802 33.2224C23.2802 33.384 23.1994 33.5457 23.0377 33.6265C22.9569 33.7882 22.7952 33.869 22.5527 33.869C22.4719 33.869 22.3102 33.869 22.2294 33.869C22.1485 33.869 22.0677 33.7882 21.906 33.7882C22.0677 33.7074 21.9869 33.6265 21.906 33.6265ZM21.9869 25.8664H19.0768L20.5319 28.2106L21.9869 30.5548L22.1486 29.2615L22.3102 27.9681C22.3102 27.8873 22.391 27.7256 22.391 27.6448C22.4719 27.564 22.5527 27.4831 22.6336 27.4023L23.7652 26.5939L24.8969 25.7856L21.9869 25.8664Z" fill="#575756"/>
<path d="M22.5538 34.1117C22.473 34.1117 22.3921 34.1117 22.3921 34.1117C22.2304 34.1117 22.1496 34.0308 21.9879 33.95C21.9071 33.95 21.8263 33.8692 21.7454 33.7883C21.6646 33.7075 21.5838 33.6267 21.5838 33.5458L16.6529 25.5432C16.572 25.3816 16.4912 25.1391 16.4912 24.9774C16.4912 24.8157 16.572 24.5732 16.6529 24.4115C16.7337 24.2499 16.8954 24.0882 17.057 24.0074C17.2187 23.9265 17.4612 23.8457 17.6229 23.8457L27.4847 23.9265C27.7272 23.9265 27.9697 24.0074 28.1314 24.169C28.293 24.3307 28.4547 24.4924 28.5355 24.7349C28.6164 24.9774 28.6164 25.2199 28.5355 25.3816C28.4547 25.6241 28.293 25.7857 28.1314 25.9474L24.1705 28.6149L23.6855 33.1417C23.6855 33.3842 23.5238 33.6267 23.3621 33.7883C23.2005 33.95 22.958 34.0308 22.7155 34.1117C22.7155 34.1117 22.6346 34.1117 22.5538 34.1117ZM17.6229 24.4924C17.5421 24.4924 17.4612 24.4924 17.3804 24.5732C17.2995 24.654 17.2187 24.654 17.2187 24.7349C17.1379 24.8157 17.1379 24.8966 17.1379 24.9774C17.1379 25.0582 17.1379 25.1391 17.2187 25.2199L22.1496 33.2225L22.2304 33.3033L22.3113 33.3842C22.3921 33.3842 22.473 33.465 22.473 33.465C22.5538 33.465 22.6346 33.465 22.7155 33.465C22.7963 33.465 22.958 33.3842 23.0388 33.3033C23.1196 33.2225 23.2005 33.1417 23.2005 33.0608L23.7663 28.4533C23.7663 28.3724 23.8471 28.2916 23.928 28.2108L27.9697 25.4624C28.0505 25.3816 28.1314 25.3007 28.1314 25.2199C28.1314 25.1391 28.1314 25.0582 28.1314 24.8966C28.1314 24.8157 28.0505 24.7349 27.9697 24.654C27.8889 24.5732 27.7272 24.5732 27.6464 24.5732L17.6229 24.4924ZM21.9879 30.8783C21.9071 30.8783 21.7454 30.7975 21.7454 30.7166L18.8354 25.9474C18.7546 25.8666 18.7546 25.7049 18.8354 25.6241C18.9162 25.5432 18.9971 25.4624 19.0779 25.4624L24.898 25.5432C25.0597 25.5432 25.1405 25.6241 25.2213 25.7857C25.2213 25.9474 25.2213 26.0282 25.1405 26.1091L22.8771 27.6449C22.7963 27.6449 22.7963 27.7258 22.7155 27.8066C22.7155 27.8874 22.6346 27.8874 22.6346 27.9683L22.3113 30.555C22.3113 30.7166 22.1496 30.7975 21.9879 30.8783ZM19.6437 26.1091L21.8263 29.6658L22.0688 27.8874C22.0688 27.7258 22.1496 27.5641 22.2304 27.4833C22.3113 27.3216 22.3921 27.2407 22.5538 27.1599L24.0088 26.1899H22.0688L19.6437 26.1091Z" fill="#575756"/>
<path d="M27.2417 47.2877C27.4033 47.3685 27.565 47.4493 27.7267 47.3685C27.8884 47.3685 28.05 47.2877 28.2117 47.126C28.6159 46.8027 30.3942 45.186 31.8492 43.0034C33.3043 40.8209 34.5168 37.9917 33.6276 35.3242C33.0617 33.7075 31.9301 32.495 30.2326 31.2016C28.535 29.9083 26.1908 28.6149 23.2808 27.0791C22.715 26.7557 22.0683 26.4324 21.4216 26.1091C20.7749 25.7857 20.2091 25.4624 19.5624 25.2199C19.3199 25.139 19.1582 25.139 18.9157 25.2199C18.6732 25.3007 18.5116 25.4624 18.4307 25.624C18.3499 25.7857 18.2691 26.0282 18.3499 26.2707C18.4307 26.4324 18.5924 26.5941 18.8349 26.7557C19.5624 27.0791 20.3708 27.4832 21.0983 27.8874C21.8258 28.2916 22.5533 28.6957 23.2808 29.0999C25.7058 30.4741 27.7267 31.6058 29.1817 32.6566C30.6367 33.7075 31.6067 34.7583 32.0109 35.9708C32.7384 38.2342 31.6067 40.7401 30.2326 42.6801C28.8584 44.6201 27.2417 46.0751 27.08 46.156C26.9184 46.3177 26.8375 46.4793 26.8375 46.7218C26.8375 46.8835 26.9184 47.126 27.08 47.2877L27.1608 47.3685C27.1608 47.2877 27.1608 47.2877 27.2417 47.2877Z" fill="#575756"/>
<path d="M27.646 47.7724C27.4843 47.7724 27.2419 47.6916 27.0802 47.6107C26.9994 47.6107 26.9993 47.5299 26.9185 47.5299C26.8377 47.5299 26.8377 47.4491 26.7568 47.4491C26.5952 47.2874 26.4335 46.9641 26.4335 46.6407C26.4335 46.3174 26.5952 46.0749 26.8377 45.8324C26.9993 45.6707 28.616 44.2965 29.9094 42.3565C31.1219 40.659 32.4152 38.1531 31.6877 35.9706C31.2836 34.9197 30.4752 33.8689 28.9394 32.818C27.4844 31.7672 25.3827 30.5547 23.1193 29.2613C22.3918 28.8572 21.6643 28.453 20.9368 28.1297C20.0476 27.6446 19.3201 27.3213 18.6734 26.998C18.3501 26.9171 18.1884 26.6746 18.0267 26.3513C17.9459 26.1088 17.9459 25.7854 18.1076 25.5429C18.2692 25.3004 18.5117 25.0579 18.7542 24.9771C19.0776 24.8963 19.3201 24.8963 19.6434 25.0579C20.2901 25.3813 20.9368 25.6238 21.5026 25.9471C22.1493 26.2705 22.7151 26.5938 23.3618 26.9171C26.191 28.453 28.616 29.7463 30.3944 31.1205C32.3344 32.4947 33.3853 33.8689 33.8703 35.4047C34.6786 37.7489 34.0319 40.4165 32.0919 43.3265C30.5561 45.5899 28.6969 47.2066 28.3735 47.5299C28.2119 47.6916 27.9694 47.7724 27.7269 47.7724C27.7269 47.6916 27.7269 47.7724 27.646 47.7724ZM19.2392 25.4621C19.1584 25.4621 19.0776 25.4621 19.0776 25.4621C18.9159 25.5429 18.8351 25.6238 18.7542 25.7046C18.6734 25.8663 18.6734 25.9471 18.7542 26.1088C18.7542 26.2705 18.9159 26.3513 18.9967 26.3513C19.7242 26.6746 20.4518 26.998 21.3409 27.483C22.0685 27.8871 22.796 28.2913 23.5235 28.6955C25.9485 30.0697 27.9694 31.1205 29.4244 32.2522C31.0411 33.4647 31.9303 34.5156 32.3344 35.7281C32.9811 37.6681 32.4152 40.0123 30.4752 42.6798C29.101 44.6199 27.4843 46.0749 27.2418 46.2366C27.161 46.3174 27.0802 46.4791 27.0802 46.5599C27.0802 46.7216 27.161 46.8024 27.2418 46.8832L27.0802 47.2066L27.2418 46.9641H27.3227C27.4035 47.0449 27.5652 47.0449 27.646 47.0449C27.8077 47.0449 27.8885 46.9641 27.9694 46.8832C28.2927 46.5599 30.071 45.024 31.6069 42.7607C33.4661 40.0123 34.0319 37.5064 33.3044 35.3239C32.8194 33.8689 31.7686 32.6564 29.9902 31.363C28.2927 30.0697 25.8677 28.7763 23.0385 27.2405C22.4726 26.9171 21.8259 26.5938 21.2601 26.2705C20.6134 25.9471 20.0476 25.7046 19.4009 25.3813C19.4009 25.5429 19.3201 25.4621 19.2392 25.4621Z" fill="#575756"/>
<path d="M10.8329 27.0789C10.7521 27.0789 10.6712 27.0789 10.6712 27.0789C10.4287 26.998 10.3479 26.6747 10.4288 26.4322L12.7729 20.8546C12.8538 20.6121 13.1771 20.5313 13.4196 20.6121C13.6621 20.6929 13.743 21.0163 13.6621 21.2588L11.3179 26.8363C11.1563 26.998 10.9946 27.0789 10.8329 27.0789Z" fill="#575756"/>
<path d="M10.9138 27.1599C10.7521 27.1599 10.5096 27.0791 10.4288 26.8366C10.3479 26.5941 10.4287 26.2707 10.6712 26.1899L14.713 24.654C14.9555 24.5732 15.2788 24.654 15.3596 24.8965C15.4405 25.139 15.3596 25.4624 15.1171 25.5432L11.0754 27.0791C11.0754 27.1599 10.9946 27.1599 10.9138 27.1599Z" fill="#575756"/>
<path d="M10.9135 27.1599C10.7519 27.1599 10.5902 27.0791 10.5094 26.9174L8.16517 23.2799C8.0035 23.0374 8.08433 22.7949 8.32683 22.6332C8.56933 22.4715 8.81184 22.5524 8.97351 22.7949L11.3177 26.4324C11.4794 26.6749 11.3985 26.9174 11.156 27.0791C11.156 27.1599 11.0752 27.1599 10.9135 27.1599Z" fill="#575756"/>
<path d="M10.9948 32.0097C10.7523 32.0097 10.5098 31.7672 10.5098 31.5247V26.6747C10.5098 26.4322 10.7523 26.1897 10.9948 26.1897C11.2373 26.1897 11.4798 26.4322 11.4798 26.6747V31.5247C11.4798 31.7672 11.2373 32.0097 10.9948 32.0097Z" fill="#575756"/>
<path d="M7.43677 31.6864C7.35593 31.6864 7.19427 31.6864 7.11343 31.6056C6.87093 31.4439 6.87092 31.1206 7.03259 30.9589L10.5085 26.513C10.6701 26.2705 10.9935 26.2705 11.1552 26.4322C11.3977 26.5938 11.3977 26.9172 11.236 27.0788L7.76011 31.5247C7.67928 31.6056 7.59843 31.6864 7.43677 31.6864Z" fill="#575756"/>
<path d="M15.6021 29.3425C15.5213 29.3425 15.4405 29.3425 15.3596 29.2617L10.6712 27.0791C10.4287 26.9983 10.3479 26.675 10.4288 26.4325C10.5096 26.1899 10.8329 26.1091 11.0754 26.19L15.7638 28.3725C16.0063 28.4533 16.0872 28.7767 16.0063 29.0192C16.0063 29.2617 15.7638 29.3425 15.6021 29.3425Z" fill="#575756"/>
<path d="M12.6101 30.3123C12.4484 30.3123 12.2867 30.2315 12.2059 30.0698L10.5084 26.9173C10.3467 26.6748 10.5084 26.3514 10.67 26.2706C10.9125 26.1089 11.2359 26.2706 11.3167 26.4322L13.0142 29.5848C13.1759 29.8273 13.0142 30.1506 12.8526 30.2315C12.7717 30.3123 12.6909 30.3123 12.6101 30.3123Z" fill="#575756"/>
<path d="M10.9133 27.1598C10.8325 27.1598 10.8325 27.1598 10.7517 27.1598L7.43745 25.8664C7.19495 25.7856 7.03329 25.4623 7.19496 25.2197C7.2758 24.9772 7.59912 24.8156 7.84163 24.9772L11.1558 26.2706C11.3983 26.3514 11.56 26.6748 11.3983 26.9173C11.3175 27.0789 11.1558 27.1598 10.9133 27.1598Z" fill="#575756"/>
<path d="M10.9138 27.1602C10.6713 27.1602 10.4288 26.9985 10.4288 26.756L10.1055 23.1993C10.1055 22.9568 10.2671 22.7143 10.5096 22.7143C10.7521 22.7143 10.9947 22.876 10.9947 23.1185L11.318 26.6752C11.4797 26.9177 11.2372 27.1602 10.9138 27.1602C10.9946 27.1602 10.9946 27.1602 10.9138 27.1602Z" fill="#575756"/>
<path d="M6.54774 27.9684C6.30524 27.9684 6.14357 27.8067 6.06273 27.5642C5.9819 27.3217 6.2244 27.0792 6.4669 26.9984L10.832 26.1901C11.0745 26.1092 11.317 26.3517 11.3978 26.5942C11.4786 26.8367 11.2361 27.0792 10.9936 27.1601L6.62857 27.9684C6.62857 27.9684 6.62858 27.9684 6.54774 27.9684Z" fill="#575756"/>
<path d="M11.6405 29.1808C10.1855 29.585 8.73045 28.8574 8.24544 27.4024C7.84127 26.0282 8.56879 24.4924 10.0238 24.0074C11.4788 23.6032 12.9338 24.3307 13.4189 25.7857C13.823 27.2408 13.0147 28.7766 11.6405 29.1808Z" fill="white"/>
<path d="M10.8322 30.0701C10.2663 30.0701 9.78131 29.9084 9.21547 29.6659C8.40712 29.2618 7.84128 28.5342 7.51794 27.6451C6.9521 25.8667 8.00295 23.9267 9.7813 23.3608C11.5597 22.795 13.4997 23.765 14.0655 25.6242C14.308 26.5134 14.2272 27.4026 13.823 28.2109C13.4189 29.0193 12.6913 29.5851 11.8022 29.9084C11.4788 29.9893 11.1555 30.0701 10.8322 30.0701ZM10.8322 24.6542C10.6705 24.6542 10.428 24.6542 10.2663 24.735C9.21546 25.0584 8.64962 26.19 8.97296 27.1601C9.13463 27.6451 9.45796 28.0492 9.94297 28.2917C10.428 28.5342 10.913 28.6151 11.398 28.4534C11.883 28.2917 12.2872 27.9684 12.5297 27.4834C12.7722 26.9984 12.853 26.5134 12.6913 26.0284C12.4488 25.22 11.6405 24.6542 10.8322 24.6542Z" fill="#575756"/>
<path d="M17.2992 43.1649C17.2184 43.1649 17.0567 43.1649 16.9759 43.0841L12.3683 39.1232C12.1258 38.9615 12.1258 38.6382 12.2875 38.4765C12.4491 38.234 12.7725 38.234 12.9342 38.3957L17.5417 42.3566C17.7842 42.5182 17.7842 42.8416 17.6226 43.0032C17.5417 43.0841 17.3801 43.1649 17.2992 43.1649Z" fill="#575756"/>
<path d="M17.3798 43.084C17.1373 43.084 16.8948 42.9223 16.8948 42.599L16.6523 38.2339C16.6523 37.9914 16.814 37.7489 17.1373 37.7489C17.3798 37.7489 17.6224 37.9106 17.6224 38.2339L17.8649 42.599C17.8649 42.8415 17.6224 43.0031 17.3798 43.084Z" fill="#575756"/>
<path d="M13.176 44.216C12.9335 44.216 12.7718 44.0543 12.6909 43.8927C12.6101 43.6501 12.7718 43.4076 13.0143 43.3268L17.2177 42.1143C17.4602 42.0335 17.7027 42.1951 17.7835 42.4376C17.8644 42.6801 17.7027 42.9226 17.4602 43.0035L13.2568 44.216H13.176Z" fill="#575756"/>
<path d="M21.9874 44.4585C21.9066 44.4585 21.9066 44.4585 21.8257 44.4585L17.1373 43.0035C16.8948 42.9226 16.7332 42.6801 16.814 42.4376C16.8948 42.1951 17.1373 42.0335 17.3798 42.1143L22.0682 43.5693C22.3107 43.6501 22.4724 43.8926 22.3916 44.1351C22.3916 44.3777 22.2299 44.4585 21.9874 44.4585Z" fill="#575756"/>
<path d="M20.6133 47.7724C20.4516 47.7724 20.2899 47.6916 20.2091 47.5299L16.9757 42.8415C16.814 42.599 16.8949 42.3565 17.1374 42.1948C17.3799 42.0332 17.6224 42.114 17.7841 42.3565L21.0174 47.0449C21.1791 47.2874 21.0983 47.5299 20.8558 47.6916C20.7749 47.7724 20.6941 47.7724 20.6133 47.7724Z" fill="#575756"/>
<path d="M17.3797 43.0842C17.2989 43.0842 17.1372 43.0033 17.0564 42.9225C16.8947 42.7608 16.8139 42.4375 17.0564 42.2758L20.6131 38.4766C20.7748 38.3149 21.0981 38.2341 21.2598 38.4766C21.4214 38.6383 21.5023 38.9616 21.2598 39.1233L17.703 42.9225C17.6222 43.0033 17.4605 43.0842 17.3797 43.0842Z" fill="#575756"/>
<path d="M17.3806 43.0842C17.1381 43.0842 16.9764 42.9225 16.8956 42.68C16.8148 42.4375 16.9764 42.195 17.2998 42.1142L20.8565 41.4675C21.099 41.3867 21.3415 41.5483 21.4223 41.8717C21.5032 42.1142 21.3415 42.3567 21.0181 42.4375L17.4614 43.0842H17.3806Z" fill="#575756"/>
<path d="M15.1165 45.8326C15.0356 45.8326 14.874 45.8326 14.7931 45.7518C14.5506 45.5901 14.5506 45.2668 14.7123 45.1051L16.9756 42.2759C17.1373 42.0334 17.4607 42.0334 17.6223 42.195C17.8648 42.3567 17.8648 42.68 17.7032 42.8417L15.4398 45.6709C15.4398 45.7518 15.2781 45.8326 15.1165 45.8326Z" fill="#575756"/>
<path d="M17.3798 43.0842H17.299L13.8231 42.2759C13.5806 42.195 13.4189 41.9525 13.4189 41.71C13.4998 41.4675 13.7423 41.3058 13.9848 41.3058L17.4607 42.1142C17.7032 42.195 17.8648 42.4375 17.8648 42.68C17.784 42.9225 17.6223 43.0842 17.3798 43.0842Z" fill="#575756"/>
<path d="M16.8141 47.4494C16.4908 47.4494 16.3291 47.2069 16.3291 46.8836L16.895 42.4377C16.895 42.1952 17.1375 41.9527 17.4608 42.0335C17.7033 42.0335 17.9458 42.276 17.865 42.5993L17.2991 47.0452C17.2991 47.2877 17.0566 47.4494 16.8141 47.4494Z" fill="#575756"/>
<path d="M19.9669 42.68C19.9669 44.135 18.7544 45.3475 17.2994 45.3475C15.8444 45.3475 14.6318 44.135 14.6318 42.68C14.6318 41.2249 15.8444 40.0124 17.2994 40.0124C18.7544 40.0124 19.9669 41.1441 19.9669 42.68Z" fill="white"/>
<path d="M17.2994 46.0752C15.4402 46.0752 13.9043 44.5394 13.9043 42.6802C13.9043 40.821 15.4402 39.2852 17.2994 39.2852C19.1585 39.2852 20.6944 40.821 20.6944 42.6802C20.6944 44.5394 19.1585 46.0752 17.2994 46.0752ZM17.2994 40.6593C16.2485 40.6593 15.3593 41.5485 15.3593 42.5994C15.3593 43.6502 16.2485 44.5394 17.2994 44.5394C18.3502 44.5394 19.2394 43.6502 19.2394 42.5994C19.2394 41.5485 18.3502 40.6593 17.2994 40.6593Z" fill="#575756"/>
</svg>
