<svg width="58" height="58" viewBox="0 0 58 58" fill="none" xmlns="http://www.w3.org/2000/svg">
<path d="M29 58C13.0056 58 0 44.9944 0 29C0 13.0056 13.0056 0 29 0C44.9944 0 58 13.0056 58 29C58 44.9944 44.9944 58 29 58ZM29 1.29248C13.7326 1.29248 1.29248 13.7326 1.29248 29C1.29248 44.2674 13.7326 56.7075 29 56.7075C44.2674 56.7075 56.7075 44.2674 56.7075 29C56.7075 13.7326 44.2674 1.29248 29 1.29248Z" fill="#575756"/>
<path d="M29.0004 55.0919C14.6216 55.0919 2.98926 43.3788 2.98926 29.0807C2.98926 14.7827 14.7024 3.06958 29.0004 3.06958C43.2985 3.06958 55.0115 14.7827 55.0115 29.0807C55.0115 43.3788 43.2985 55.0919 29.0004 55.0919ZM29.0004 3.7966C15.1063 3.7966 3.79706 15.1058 3.79706 28.9999C3.79706 42.8941 15.1063 54.2033 29.0004 54.2033C42.8946 54.2033 54.2037 42.8941 54.2037 28.9999C54.2037 15.1058 42.8946 3.7966 29.0004 3.7966Z" fill="#575756"/>
<path d="M36.7557 22.4571C36.6749 22.4571 36.6749 22.5379 36.5941 22.5379C29.9702 26.4153 27.9507 33.9279 27.8699 34.251C27.7083 34.8972 28.1122 35.5434 28.6777 35.705C29.3239 35.8666 29.9702 35.4627 30.1317 34.8972C30.1317 34.8164 31.9897 27.9501 37.725 24.6382C38.2905 24.315 38.4521 23.588 38.1289 23.0226C37.9674 22.4571 37.3211 22.2148 36.7557 22.4571Z" fill="#575756"/>
<path d="M46.5294 15.9945C46.4486 15.9945 46.4487 15.9945 46.3679 15.9945C38.7746 17.0446 34.0085 13.4095 33.7662 13.1672C33.2815 12.7633 33.1199 12.0363 33.5238 11.5516C33.9277 11.0669 34.6548 10.9053 35.1394 11.3092C35.2202 11.39 39.4208 14.6212 46.0447 13.6519C46.691 13.5711 47.2564 13.975 47.3372 14.6212C47.4988 15.2675 47.0949 15.8329 46.5294 15.9945Z" fill="#575756"/>
<path d="M23.589 36.5936L23.5082 36.6744C18.6614 41.1173 12.2798 40.2287 11.9566 40.2287C11.3912 40.2287 10.9873 39.7441 10.9873 39.1786C10.9873 38.6131 11.472 38.2092 12.0374 38.2092C12.1182 38.2092 17.9344 39.0978 22.135 35.2204C22.5389 34.8165 23.1851 34.8973 23.589 35.3012C23.9121 35.6243 23.9121 36.1897 23.589 36.5936Z" fill="#575756"/>
<path d="M46.7719 39.3398L46.6911 39.4206C42.8137 43.0557 39.3402 41.6824 39.0978 41.6824C38.6132 41.6824 38.29 41.2785 38.29 40.8746C38.29 40.3899 38.6939 40.0668 39.0978 40.0668C39.1786 40.0668 42.0867 41.3593 45.4794 38.2089C45.8025 37.8858 46.2872 37.8858 46.6104 38.2089C47.0143 38.532 47.0143 39.0167 46.7719 39.3398Z" fill="#575756"/>
<path d="M23.035 47.5831C23.6343 46.9838 23.4042 45.7818 22.5209 44.8985C21.6376 44.0152 20.4356 43.7851 19.8363 44.3844C19.2369 44.9838 19.467 46.1858 20.3503 47.0691C21.2336 47.9524 22.4356 48.1825 23.035 47.5831Z" fill="#575756"/>
<path d="M45.2172 20.9673C46.367 20.4791 47.0306 19.4509 46.6994 18.6706C46.3681 17.8903 45.1674 17.6535 44.0176 18.1417C42.8677 18.6299 42.2041 19.6582 42.5354 20.4384C42.8666 21.2187 44.0673 21.4555 45.2172 20.9673Z" fill="#575756"/>
<path d="M26.5764 27.8693C25.6071 27.8693 24.7992 27.2231 24.6377 26.2537L23.2644 18.9027L17.4482 14.783C17.0443 14.4598 16.7212 14.0559 16.6405 13.4905C16.5597 13.0058 16.6405 12.4403 16.9636 12.0364C17.3675 11.5518 17.9329 11.2286 18.5792 11.2286C18.9831 11.2286 19.387 11.3902 19.7101 11.5518L24.7184 15.1061L28.2728 10.9055C28.6767 10.5016 29.1613 10.2593 29.7268 10.2593C30.2115 10.2593 30.6154 10.4208 31.0193 10.744C31.4232 11.0671 31.6655 11.5518 31.6655 12.1172C31.6655 12.6827 31.5039 13.1674 31.1808 13.5713L27.0611 18.3373L28.4343 25.6075C28.5959 26.6576 27.9496 27.7077 26.8995 27.8693C26.8187 27.8693 26.6572 27.8693 26.5764 27.8693Z" fill="white"/>
<path d="M29.8074 11.067C30.0497 11.067 30.3728 11.1478 30.5344 11.3902C31.019 11.7941 31.0998 12.5211 30.6959 13.0058L26.3338 18.0949L27.7879 25.6882C27.8687 26.3345 27.4647 26.8999 26.8185 27.0615C26.7377 27.0615 26.657 27.0615 26.5762 27.0615C26.0107 27.0615 25.526 26.6576 25.4452 26.0921L23.9912 18.418L17.9327 14.1367C17.3672 13.7328 17.2865 13.0058 17.6904 12.5211C17.9327 12.198 18.2558 12.0364 18.6597 12.0364C18.902 12.0364 19.1444 12.1172 19.306 12.2787L24.8798 16.237L28.9188 11.5517C29.1611 11.2286 29.4842 11.067 29.8074 11.067ZM29.8074 9.53223C28.9996 9.53223 28.2725 9.85535 27.7071 10.5016L24.5567 14.1367L20.1138 10.9863C19.6291 10.6631 19.0636 10.5016 18.4982 10.5016C17.6096 10.5016 16.721 10.9055 16.2363 11.6325C15.8324 12.198 15.6709 13.0058 15.7516 13.7328C15.9132 14.4598 16.3171 15.106 16.8826 15.5099L22.4564 19.3874L23.7489 26.496C23.9912 27.7885 25.1221 28.7579 26.4954 28.7579C26.6569 28.7579 26.8185 28.7579 26.9801 28.6771C27.7071 28.5155 28.3533 28.1116 28.7572 27.5462C29.1611 26.8999 29.3226 26.1729 29.1611 25.4459L27.8686 18.5796L31.7461 14.0559C32.2307 13.4904 32.4731 12.7634 32.3923 12.0364C32.3115 11.3094 31.9884 10.6631 31.423 10.1785C31.0998 9.77457 30.4536 9.53223 29.8074 9.53223Z" fill="#575756"/>
<path d="M42.0865 36.5128C41.0364 36.5128 40.1479 35.705 40.1479 34.5741L39.9863 29.4849L34.4933 25.5267C33.6047 24.8805 33.4431 23.6688 34.0894 22.7802C34.4933 22.2955 35.0587 21.9724 35.705 21.9724C36.1089 21.9724 36.5127 22.134 36.8359 22.3763L42.1674 26.2537L47.5796 23.8304C47.822 23.7496 48.0643 23.6688 48.3874 23.6688C49.1952 23.6688 49.8414 24.1535 50.1645 24.7997C50.4069 25.2844 50.4069 25.8498 50.1645 26.3345C50.003 26.8192 49.5991 27.2231 49.1144 27.3847L43.8637 29.7273L44.0253 34.4933C44.1061 35.5434 43.2175 36.432 42.0865 36.5128Z" fill="white"/>
<path d="M35.6233 22.6991C35.8656 22.6991 36.108 22.7799 36.2695 22.9415L42.0049 27.142L47.8211 24.5571C47.9826 24.4763 48.1442 24.4763 48.3057 24.4763C48.7904 24.4763 49.1943 24.7186 49.3559 25.2033C49.5982 25.7688 49.3559 26.4958 48.7904 26.7381L43.055 29.2423L43.2166 34.5738C43.2166 35.22 42.7319 35.7855 42.0857 35.7855C41.4394 35.7855 40.9548 35.3008 40.9548 34.6546L40.7932 29.1615L34.977 24.961C34.4924 24.5571 34.3308 23.83 34.7347 23.3454C34.8963 22.8607 35.3001 22.6991 35.6233 22.6991ZM35.6233 21.1643C34.7347 21.1643 33.9269 21.5682 33.3614 22.2952C32.9575 22.8607 32.7152 23.5877 32.8768 24.3147C32.9576 25.0417 33.3614 25.688 34.0077 26.0919L39.1776 29.8885L39.3392 34.6546C39.42 36.1894 40.6316 37.3203 42.0857 37.3203H42.1665C42.8935 37.3203 43.6205 36.9972 44.1052 36.4317C44.5898 35.8663 44.913 35.22 44.8322 34.493L44.6706 30.2924L49.4367 28.1922C50.8099 27.5459 51.4562 25.9303 50.8099 24.5571C50.406 23.5877 49.3559 22.9415 48.3057 22.9415C47.9018 22.9415 47.5787 23.0222 47.1748 23.1838L42.1665 25.3649L37.1581 21.7298C36.7542 21.3259 36.1887 21.1643 35.6233 21.1643Z" fill="#575756"/>
<path d="M35.0578 49.276C34.4116 49.276 33.7653 48.9528 33.4422 48.3874L30.4534 43.379H25.2027C24.1525 43.379 23.3447 42.5712 23.3447 41.5211C23.3447 40.4709 24.1525 39.6631 25.2027 39.6631H30.2918L31.8266 35.7857C32.069 35.0587 32.796 34.6548 33.523 34.6548C33.7653 34.6548 34.0076 34.7356 34.1692 34.8163C35.1386 35.2202 35.5425 36.2704 35.2193 37.2397L33.523 41.4403L36.5926 46.6102C37.0773 47.4988 36.835 48.6297 35.9464 49.1144C35.704 49.1952 35.3809 49.276 35.0578 49.276Z" fill="white"/>
<path d="M33.5234 35.3817C33.6849 35.3817 33.7657 35.3817 33.9273 35.4625C34.4119 35.7049 34.6543 36.2703 34.4927 36.8358L32.7156 41.3595L35.9468 46.8525C36.2699 47.3372 36.1083 47.9834 35.5429 48.3065C35.3813 48.3873 35.2197 48.4681 34.9774 48.4681C34.6543 48.4681 34.2504 48.3065 34.0888 47.9834L30.8576 42.5712H25.203C24.6376 42.5712 24.1529 42.0865 24.1529 41.521C24.1529 40.9556 24.6376 40.4709 25.203 40.4709H30.7768L32.554 36.1088C32.7156 35.6241 33.1195 35.3817 33.5234 35.3817ZM33.5234 33.8469C32.4732 33.8469 31.5039 34.4932 31.1 35.5433L29.7267 38.9361H25.203C23.749 38.9361 22.5373 40.1478 22.6181 41.6018C22.6181 43.0558 23.8298 44.1868 25.2838 44.1868H30.0498L32.7963 48.7912C33.281 49.599 34.1696 50.0837 35.0582 50.0837C35.5429 50.0837 36.0275 49.9221 36.4314 49.6798C37.6431 48.9528 38.1278 47.3372 37.4008 46.0447L34.5735 41.1979L36.1083 37.4012C36.6738 36.1088 36.0275 34.5739 34.7351 34.0085H34.6543C34.2504 33.8469 33.8465 33.8469 33.5234 33.8469Z" fill="#575756"/>
<path d="M13.4892 35.7853C12.9237 35.7853 12.439 35.5429 12.1159 35.139C11.7928 34.7351 11.6312 34.2504 11.6312 33.685L11.8736 29.4844L7.67302 29.0805C7.18834 28.9997 6.70366 28.7574 6.38054 28.3535C6.05742 27.9496 5.89586 27.4649 5.97664 26.8995C6.05742 25.8493 6.94599 25.1223 7.91535 25.1223C7.99613 25.1223 8.07692 25.1223 8.07692 25.1223L13.3276 25.607L17.4474 22.295C17.7705 22.0527 18.2552 21.8911 18.6591 21.8911C19.2245 21.8911 19.79 22.1335 20.1939 22.6181C20.517 23.022 20.6786 23.5067 20.5978 24.0722C20.517 24.5569 20.2747 25.0415 19.8708 25.3647L15.8318 28.5959L15.5087 33.8465C15.4279 34.8967 14.6201 35.7045 13.5699 35.7045L13.4892 35.7853Z" fill="white"/>
<path d="M18.7406 22.7799C19.0638 22.7799 19.3869 22.9415 19.6292 23.1838C20.0331 23.6685 19.9523 24.3955 19.4676 24.7994L15.1056 28.2729L14.7824 33.8468C14.7824 34.493 14.217 34.9777 13.6515 34.9777H13.5707C12.9245 34.9777 12.4398 34.4122 12.4398 33.766L12.7629 28.8384L7.83536 28.3537C7.18912 28.2729 6.70442 27.7075 6.7852 27.0612C6.86598 26.4958 7.35066 26.0111 7.91612 26.0111H7.9969L13.5707 26.5766L17.9328 23.103C18.256 22.8607 18.4983 22.7799 18.7406 22.7799ZM18.7406 21.1643C18.0944 21.1643 17.5289 21.4066 17.0442 21.7298L13.1668 24.7994L8.15847 24.3147C8.07769 24.3147 7.9969 24.3147 7.91612 24.3147C6.46208 24.3147 5.33116 25.3649 5.1696 26.8189C5.08882 27.5459 5.33118 28.2729 5.81586 28.8384C6.30054 29.4039 6.94677 29.727 7.67379 29.8078L11.0666 30.1309L10.8242 33.5236C10.7434 35.0585 11.8743 36.3509 13.4092 36.4317C13.4899 36.4317 13.4899 36.4317 13.5707 36.4317C15.0248 36.4317 16.2365 35.3008 16.3173 33.8468L16.6404 29L20.437 25.9303C21.6487 24.961 21.8103 23.2646 20.8409 22.0529C20.3562 21.5682 19.5484 21.1643 18.7406 21.1643Z" fill="#575756"/>
</svg>
