<svg width="62" height="62" viewBox="0 0 62 62" fill="none" xmlns="http://www.w3.org/2000/svg">
<path d="M30.7189 62C27.9705 62 25.3838 61.2725 23.0396 59.8175C14.3095 54.4824 7.03438 46.884 1.94181 37.9922C-0.725726 33.3846 -0.644893 27.6454 2.18431 23.0378C7.51938 14.3077 15.1178 7.0326 24.0096 1.94003C26.1921 0.646677 28.698 0 31.2847 0C34.0331 0 36.6198 0.72751 38.964 2.18253C47.6941 7.5176 54.9692 15.116 60.0618 24.0078C62.7293 28.6962 62.6485 34.3546 59.8193 38.9622C54.4842 47.6923 46.8857 54.9674 37.994 60.06C35.8114 61.3533 33.3056 62 30.7189 62ZM31.2039 1.37419C28.8597 1.37419 26.5963 2.02086 24.5754 3.15254C15.8453 8.08344 8.4894 15.2777 3.23516 23.8462C0.648458 28.0495 0.567624 33.2229 2.99266 37.5072C8.00439 46.2373 15.1178 53.5932 23.6863 58.8475C25.788 60.1408 28.213 60.7875 30.7189 60.7875C33.0631 60.7875 35.3264 60.1408 37.3473 59.0091C46.0774 54.0782 53.4333 46.884 58.6876 38.3155C61.2743 34.193 61.3551 28.9387 58.9301 24.6545C53.9992 15.9244 46.8049 8.56845 38.2365 3.31421C36.1348 2.10169 33.7097 1.37419 31.2039 1.37419Z" fill="#575756"/>
<path d="M57.0715 25.7053C52.3023 17.2985 45.3505 10.1851 37.1054 5.0925C33.6295 2.90997 29.1836 2.90997 25.6269 4.93083C17.2201 9.7809 10.1067 16.6518 5.01413 24.8969C2.8316 28.3728 2.8316 32.8187 4.85247 36.3754C9.6217 44.7822 16.5735 51.8956 24.8186 56.9882C28.2944 59.1707 32.7403 59.1707 36.2971 57.1499C44.7038 52.3806 51.8173 45.4289 56.9098 37.1838C59.0924 33.7079 59.0924 29.3428 57.0715 25.7053Z" fill="white"/>
<path d="M30.7193 59.09C28.6176 59.09 26.5159 58.5241 24.5759 57.3925C16.3308 52.2191 9.37906 45.1056 4.52899 36.618C2.4273 32.8996 2.50813 28.3729 4.69066 24.7353C9.78323 16.4094 16.9775 9.45764 25.4651 4.68841C29.1835 2.58672 33.7102 2.66755 37.3478 4.85008C45.6737 9.94265 52.6255 17.1369 57.3947 25.6245C59.4964 29.3429 59.4156 33.8696 57.233 37.5072C52.1405 45.8331 44.9462 52.7849 36.4586 57.5541C34.6802 58.605 32.7402 59.09 30.7193 59.09ZM31.2043 3.88007C29.3452 3.88007 27.486 4.36507 25.7884 5.33509C17.4625 10.1043 10.3491 16.9752 5.33733 25.1395C3.23564 28.5346 3.1548 32.738 5.17567 36.2138C9.9449 44.5398 16.8158 51.6532 24.9801 56.6649C28.3751 58.7666 32.5785 58.8475 36.0544 56.8266C44.3804 52.0574 51.4938 45.1865 56.5055 37.0222C58.6072 33.6271 58.688 29.4237 56.6672 25.9479C51.898 17.6219 45.027 10.5085 36.8628 5.49676C35.1652 4.44591 33.2252 3.88007 31.2043 3.88007Z" fill="#575756"/>
<path d="M45.8349 24.2506C45.4307 23.038 44.3798 22.068 43.1673 21.6639C43.1673 21.583 43.1673 21.583 43.1673 21.5022C43.1673 20.128 42.1165 19.0772 40.7423 19.0772C40.4998 19.0772 40.2573 19.0772 40.0148 19.158C39.1256 17.6221 37.4281 16.5713 35.5689 16.5713C33.9522 16.5713 32.4972 17.2988 31.608 18.4305C31.2038 17.9455 30.5572 17.703 29.8297 17.703C28.8596 17.703 28.0513 18.2688 27.6471 19.0772C27.0813 18.5113 26.2729 18.188 25.4646 18.188C24.0904 18.188 22.8779 19.0772 22.4737 20.2897C22.0695 20.128 21.6654 20.0472 21.1804 20.0472C19.2403 20.0472 17.6237 21.4214 17.2195 23.2805H17.1387C15.3603 23.2805 13.9053 24.7356 13.9053 26.5139C13.9053 28.2923 15.3603 29.7473 17.1387 29.7473C18.3512 29.7473 19.4828 29.0198 19.9679 27.9689C20.372 28.2114 20.7762 28.2923 21.1804 28.2923C21.6654 28.2923 22.0695 28.2114 22.4737 28.0498C23.2012 29.1006 24.4137 29.8281 25.7879 29.8281C27.0813 29.8281 28.2938 29.1815 29.0213 28.2114C29.2638 28.2923 29.5063 28.2923 29.8297 28.2923C31.2847 28.2923 32.6589 29.7473 33.3055 28.6965C34.033 29.0198 34.7606 29.2623 35.6497 29.2623C36.5389 29.2623 37.4281 29.0198 38.1556 28.6156C38.4789 30.4748 40.0148 29.6665 41.9548 29.6665C42.844 29.6665 43.6523 29.424 44.299 28.939C44.6224 29.1006 44.9457 29.1815 45.3499 29.1815C46.7241 29.1815 47.7749 28.1306 47.7749 26.7564C47.7749 25.4631 46.9666 24.4931 45.8349 24.2506Z" fill="white"/>
<path d="M25.8689 30.2326C24.4947 30.2326 23.2013 29.586 22.393 28.5351C21.6655 28.6968 21.0188 28.6968 20.2913 28.616C19.6446 29.6668 18.5129 30.3135 17.2196 30.3135C15.1987 30.3135 13.582 28.6968 13.582 26.6759C13.582 24.7359 15.0371 23.2001 16.9771 23.0384C17.5429 21.1792 19.2404 19.805 21.2613 19.805C21.5846 19.805 21.9888 19.8858 22.3122 19.9667C22.878 18.7542 24.1713 17.9458 25.5455 17.9458C26.273 17.9458 27.0005 18.1883 27.6472 18.5925C28.2131 17.865 29.0214 17.38 29.9914 17.38C30.6381 17.38 31.2039 17.5416 31.6889 17.9458C32.7398 16.8141 34.1948 16.2483 35.7307 16.2483C37.5899 16.2483 39.3682 17.2183 40.3382 18.7542C40.4999 18.7542 40.6616 18.6733 40.8232 18.6733C42.3591 18.6733 43.5716 19.8858 43.6524 21.3409C44.7841 21.745 45.7541 22.715 46.2391 23.8467C47.4517 24.1701 48.3408 25.3017 48.3408 26.5951C48.3408 28.131 47.0475 29.4243 45.5116 29.4243C45.1883 29.4243 44.865 29.3435 44.5416 29.2626C43.8141 29.7476 43.0058 29.9901 42.1974 29.9901C41.7124 29.9901 41.2274 30.071 40.8232 30.071C39.6916 30.2326 38.5599 30.3135 38.0749 29.101C36.7007 29.7476 35.0032 29.7476 33.629 29.101C32.9823 29.6668 32.1739 29.3435 31.4464 29.0201C30.9614 28.8585 30.4764 28.616 29.9914 28.616C29.8298 28.616 29.5872 28.616 29.4256 28.5351C28.4556 29.6668 27.1622 30.2326 25.8689 30.2326ZM22.4738 27.6459C22.6355 27.6459 22.7163 27.7268 22.7972 27.8076C23.4438 28.7776 24.5755 29.4243 25.788 29.4243C26.9197 29.4243 28.0514 28.8585 28.6981 27.9693C28.7789 27.8076 28.9406 27.8076 29.1022 27.8076C29.3447 27.8885 29.5872 27.8884 29.8297 27.8884C30.4764 27.8884 31.0423 28.131 31.6081 28.3735C32.5781 28.7776 32.7398 28.7776 32.9823 28.4543C33.0631 28.2926 33.3056 28.2118 33.5481 28.2926C34.9223 29.0201 36.6198 28.9393 37.994 28.2118C38.0749 28.131 38.2365 28.131 38.3982 28.2118C38.5599 28.2926 38.6407 28.3735 38.6407 28.5351C38.8024 29.5051 39.2874 29.5051 40.5807 29.3435C40.9849 29.2626 41.5507 29.2626 42.0357 29.2626C42.7633 29.2626 43.4908 29.0201 44.1374 28.616C44.2991 28.5351 44.4608 28.5351 44.5416 28.616C44.7841 28.7776 45.1075 28.7776 45.35 28.7776C46.4816 28.7776 47.3708 27.8884 47.3708 26.7568C47.3708 25.7868 46.7241 24.9784 45.7541 24.8167C45.5925 24.8167 45.5116 24.6551 45.4308 24.5742C45.0266 23.4426 44.1374 22.6342 43.0058 22.3109C42.8441 22.23 42.6824 22.0684 42.6824 21.9067C42.6824 21.8259 42.6824 21.8259 42.6824 21.745C42.6824 20.6134 41.7932 19.7242 40.6616 19.7242C40.4999 19.7242 40.2574 19.7242 40.0957 19.805C39.9341 19.8858 39.6916 19.805 39.6107 19.6433C38.8024 18.1883 37.1857 17.2991 35.569 17.2991C34.114 17.2991 32.8206 17.9458 31.9314 18.9967C31.8506 19.0775 31.7698 19.1583 31.6081 19.1583C31.5273 19.1583 31.3656 19.0775 31.2848 18.9967C30.8806 18.5925 30.3956 18.35 29.8297 18.35C29.0214 18.35 28.3747 18.835 28.0514 19.4817C27.9706 19.6433 27.8897 19.7242 27.7281 19.7242C27.5664 19.7242 27.4856 19.7242 27.3239 19.6433C26.8389 19.1583 26.1114 18.9158 25.4647 18.9158C24.333 18.9158 23.2822 19.6433 22.878 20.775C22.7972 21.0175 22.5547 21.0984 22.3122 21.0175C21.908 20.8559 21.5846 20.8559 21.1805 20.8559C19.4829 20.8559 18.0279 22.0684 17.6238 23.7659C17.5429 23.9276 17.3812 24.0892 17.2196 24.0892C15.6029 24.0892 14.3904 25.3017 14.3904 26.8376C14.3904 28.3735 15.6029 29.586 17.1387 29.586C18.1896 29.586 19.1596 29.0201 19.6446 28.0501C19.7254 27.8884 19.9679 27.8076 20.1296 27.8076C20.8571 28.0501 21.5846 28.0501 22.3122 27.8076C22.393 27.6459 22.4738 27.6459 22.4738 27.6459Z" fill="#4D5252"/>
<path d="M29.5872 26.1909C29.3447 26.1909 29.183 26.0293 29.183 25.7868C29.183 25.0592 28.6172 24.4934 27.8897 24.4934C27.728 24.4934 27.5664 24.4934 27.4047 24.5742C27.243 24.6551 27.0005 24.5742 26.8388 24.4126C26.5963 24.0084 26.1922 23.6851 25.7072 23.6851C24.9797 23.6851 24.4138 24.2509 24.4138 24.9784C24.4138 25.2209 24.2521 25.3826 24.0096 25.3826C23.7671 25.3826 23.6055 25.2209 23.6055 24.9784C23.6055 23.7659 24.5755 22.8767 25.7072 22.8767C26.3538 22.8767 27.0005 23.2 27.4047 23.6851C27.5664 23.6851 27.728 23.6042 27.8897 23.6042C29.1022 23.6042 29.9914 24.5742 29.9914 25.7059C30.0722 26.0293 29.8297 26.1909 29.5872 26.1909Z" fill="#4D5252"/>
<path d="M53.3526 38.4775H8.73196C7.76195 38.4775 7.11528 37.5075 7.35778 36.6183L9.94448 28.6157C10.4295 27.2415 11.642 26.2715 13.097 26.2715H48.9067C50.3617 26.2715 51.655 27.2415 52.0592 28.6157L54.6459 36.6183C55.0501 37.5075 54.3226 38.4775 53.3526 38.4775Z" fill="white"/>
<path d="M53.3521 38.8818H8.73148C8.16564 38.8818 7.5998 38.6392 7.27646 38.1542C6.95312 37.6692 6.87229 37.1034 7.03396 36.5376L9.62066 28.5349C10.1057 26.9991 11.5607 25.9482 13.1774 25.9482H48.987C50.6037 25.9482 52.0587 26.9991 52.5437 28.5349L55.1304 36.5376C55.2921 37.1034 55.2113 37.6692 54.8879 38.1542C54.4838 38.6392 53.9988 38.8818 53.3521 38.8818ZM13.1774 26.7566C11.884 26.7566 10.8332 27.5649 10.429 28.7774L7.8423 36.7801C7.76147 37.1034 7.76147 37.4267 8.00397 37.6692C8.16564 37.9117 8.48898 38.0734 8.81232 38.0734H53.4329C53.7563 38.0734 54.0796 37.9117 54.2413 37.6692C54.4029 37.4267 54.4838 37.1034 54.4029 36.7801L51.8162 28.7774C51.4121 27.5649 50.2804 26.7566 49.0679 26.7566H13.1774Z" fill="#4D5252"/>
</svg>
