<svg width="58" height="58" viewBox="0 0 58 58" fill="none" xmlns="http://www.w3.org/2000/svg">
<mask id="mask0_4203_3181" style="mask-type:luminance" maskUnits="userSpaceOnUse" x="3" y="3" width="52" height="52">
<path d="M29.0008 54.6073C43.1433 54.6073 54.608 43.1426 54.608 29.0001C54.608 14.8576 43.1433 3.39282 29.0008 3.39282C14.8583 3.39282 3.39355 14.8576 3.39355 29.0001C3.39355 43.1426 14.8583 54.6073 29.0008 54.6073Z" fill="white"/>
</mask>
<g mask="url(#mask0_4203_3181)">
<path d="M-11.4707 37.6434C-11.4707 37.6434 -8.80497 36.8356 -6.46235 34.5738C-4.11973 32.3927 -1.21166 29.0808 0.161603 27.4652C1.7772 25.5265 3.7967 22.5376 5.97776 21.5682C8.07804 20.5989 10.0168 19.3064 11.8747 17.3677C13.7326 15.429 14.9443 13.4902 17.2869 12.844C19.6296 12.1978 21.4875 11.5515 23.0223 11.1476C24.5571 10.7437 24.961 10.6629 27.2229 11.1476C29.4847 11.6323 30.2118 11.9554 29.9694 13.1671" fill="white"/>
<path d="M-11.4701 38.0474C-11.6317 38.0474 -11.7932 37.9666 -11.874 37.7243C-11.9548 37.4819 -11.7932 37.2396 -11.6317 37.2396C-11.6317 37.2396 -9.04672 36.4318 -6.78488 34.3315C-4.52304 32.2313 -1.61497 28.9193 -0.241715 27.2229C0.000624657 26.8998 0.323749 26.4959 0.646869 26.1728C2.18169 24.234 3.87807 22.1338 5.73601 21.2452C7.91707 20.2758 9.69422 18.9026 11.5522 17.1254C11.9561 16.6407 12.36 16.2368 12.7639 15.7521C14.0563 14.2981 15.1873 13.0056 17.126 12.4402C18.0146 12.1978 18.9031 11.8747 19.6302 11.6324C20.8419 11.2285 21.892 10.9053 22.8614 10.663C24.477 10.2591 24.9616 10.1783 27.2235 10.663C29.243 11.0669 30.6162 11.4708 30.2931 13.1672C30.2123 13.4095 30.0508 13.5711 29.8084 13.4903C29.5661 13.4903 29.4045 13.248 29.4853 13.0056C29.6469 12.2786 29.4045 11.9555 27.0619 11.4708C24.8808 10.9861 24.5577 11.0669 23.1037 11.4708C22.1343 11.7131 21.165 12.0363 19.9533 12.4402C19.1455 12.6825 18.3377 12.9248 17.4491 13.248C15.8335 13.7326 14.7026 14.9443 13.4909 16.3176C13.087 16.8023 12.6831 17.2062 12.1984 17.6909C10.3405 19.6296 8.40174 21.0028 6.13991 22.053C4.44353 22.78 2.74714 24.961 1.37388 26.7382C1.05076 27.1421 0.808431 27.4652 0.485312 27.8691C-0.887948 29.5655 -3.87681 32.8775 -6.13865 35.0585C-8.56205 37.3204 -11.147 38.1282 -11.3086 38.209C-11.3893 38.0474 -11.3893 38.0474 -11.4701 38.0474Z" fill="#666666"/>
</g>
<mask id="mask1_4203_3181" style="mask-type:luminance" maskUnits="userSpaceOnUse" x="3" y="3" width="52" height="52">
<path d="M29.0008 54.6073C43.1433 54.6073 54.608 43.1426 54.608 29.0001C54.608 14.8576 43.1433 3.39282 29.0008 3.39282C14.8583 3.39282 3.39355 14.8576 3.39355 29.0001C3.39355 43.1426 14.8583 54.6073 29.0008 54.6073Z" fill="white"/>
</mask>
<g mask="url(#mask1_4203_3181)">
<path d="M30.1309 14.2174C30.454 12.3595 32.635 11.2285 34.9776 11.6324C37.3203 12.0363 38.8551 13.9751 38.532 15.833" fill="white"/>
<path d="M38.451 16.2368C38.1279 16.156 37.9664 15.9945 38.0471 15.7521C38.3703 14.1365 36.9162 12.4402 34.8159 12.0363C32.7157 11.6324 30.7769 12.6017 30.4538 14.2981C30.373 14.5404 30.2115 14.702 29.9691 14.6212C29.7268 14.5404 29.5652 14.3789 29.646 14.1365C30.0499 12.0363 32.4733 10.7438 34.9775 11.2285C37.4817 11.7131 39.2588 13.8134 38.8549 15.9137C38.8549 16.0753 38.6934 16.2368 38.451 16.2368Z" fill="#666666"/>
</g>
<mask id="mask2_4203_3181" style="mask-type:luminance" maskUnits="userSpaceOnUse" x="3" y="3" width="52" height="52">
<path d="M29.0008 54.6073C43.1433 54.6073 54.608 43.1426 54.608 29.0001C54.608 14.8576 43.1433 3.39282 29.0008 3.39282C14.8583 3.39282 3.39355 14.8576 3.39355 29.0001C3.39355 43.1426 14.8583 54.6073 29.0008 54.6073Z" fill="white"/>
</mask>
<g mask="url(#mask2_4203_3181)">
<path d="M30.1309 14.2174C30.454 12.3595 32.635 11.2285 34.9776 11.6324C37.3203 12.0363 38.8551 13.9751 38.532 15.833" fill="white"/>
<path d="M38.451 16.2368C38.1279 16.156 37.9664 15.9945 38.0471 15.7521C38.3703 14.1365 36.9162 12.4402 34.8159 12.0363C32.7157 11.6324 30.7769 12.6017 30.4538 14.2981C30.373 14.5404 30.2115 14.702 29.9691 14.6212C29.7268 14.5404 29.5652 14.3789 29.646 14.1365C30.0499 12.0363 32.4733 10.7438 34.9775 11.2285C37.4817 11.7131 39.2588 13.8134 38.8549 15.9137C38.8549 16.0753 38.6934 16.2368 38.451 16.2368Z" fill="#666666"/>
</g>
<mask id="mask3_4203_3181" style="mask-type:luminance" maskUnits="userSpaceOnUse" x="3" y="3" width="52" height="52">
<path d="M29.0008 54.6073C43.1433 54.6073 54.608 43.1426 54.608 29.0001C54.608 14.8576 43.1433 3.39282 29.0008 3.39282C14.8583 3.39282 3.39355 14.8576 3.39355 29.0001C3.39355 43.1426 14.8583 54.6073 29.0008 54.6073Z" fill="white"/>
</mask>
<g mask="url(#mask3_4203_3181)">
<path d="M39.9061 23.5878L40.4716 20.5989C40.5524 20.3566 40.3908 20.195 40.2293 19.9527V19.8719L40.8755 16.8023C40.9563 16.3176 40.1485 15.6714 38.7752 15.1059C38.7752 15.1059 35.4632 13.6519 30.6972 13.4903C29.0008 13.4095 27.7891 13.7327 27.6276 14.2981L27.0621 17.4485C26.8198 17.6101 26.6582 17.7716 26.5774 17.9332L26.0928 20.5182" fill="white"/>
<path d="M39.9062 23.9916C39.5831 23.9109 39.4216 23.7493 39.5023 23.507L40.0678 20.5181C40.0678 20.4373 39.987 20.3566 39.9062 20.195C39.8255 20.1142 39.8255 19.9526 39.8255 19.8719L40.4717 16.8022C40.4717 16.8022 40.4717 16.8022 40.4717 16.7215C40.4717 16.6407 40.2294 16.156 38.6138 15.429C38.6138 15.429 35.3018 14.0557 30.6973 13.8134C28.9202 13.7326 28.1124 14.1365 28.1124 14.2981L27.4661 17.5293C27.4661 17.6908 27.3854 17.7716 27.2238 17.8524C27.0622 17.9331 26.9815 18.0139 26.9815 18.0947L26.4968 20.6797C26.416 20.922 26.2544 21.0836 26.0121 21.0028C25.7698 20.922 25.6082 20.7604 25.689 20.5181L26.1737 17.9332C26.2544 17.6908 26.416 17.4485 26.6583 17.2061L27.2238 14.2173C27.3854 13.4095 28.6778 12.9248 30.6973 13.0056C35.5441 13.2479 38.7753 14.6212 38.9369 14.702C40.5525 15.429 41.3603 16.156 41.2795 16.8022V16.883L40.714 19.7911C40.8756 20.1142 40.9564 20.3565 40.9564 20.6797L40.3909 23.6685C40.3102 23.8301 40.1486 23.9916 39.9062 23.9916Z" fill="#666666"/>
</g>
<mask id="mask4_4203_3181" style="mask-type:luminance" maskUnits="userSpaceOnUse" x="3" y="3" width="52" height="52">
<path d="M29.0008 54.6073C43.1433 54.6073 54.608 43.1426 54.608 29.0001C54.608 14.8576 43.1433 3.39282 29.0008 3.39282C14.8583 3.39282 3.39355 14.8576 3.39355 29.0001C3.39355 43.1426 14.8583 54.6073 29.0008 54.6073Z" fill="white"/>
</mask>
<g mask="url(#mask4_4203_3181)">
<path d="M39.9061 23.5878L40.4716 20.5989C40.5524 20.3566 40.3908 20.195 40.2293 19.9527V19.8719L40.8755 16.8023C40.9563 16.3176 40.1485 15.6714 38.7752 15.1059C38.7752 15.1059 35.4632 13.6519 30.6972 13.4903C29.0008 13.4095 27.7891 13.7327 27.6276 14.2981L27.0621 17.4485C26.8198 17.6101 26.6582 17.7716 26.5774 17.9332L26.0928 20.5182" fill="white"/>
<path d="M39.9062 23.9916C39.5831 23.9109 39.4216 23.7493 39.5023 23.507L40.0678 20.5181C40.0678 20.4373 39.987 20.3566 39.9062 20.195C39.8255 20.1142 39.8255 19.9526 39.8255 19.8719L40.4717 16.8022C40.4717 16.8022 40.4717 16.8022 40.4717 16.7215C40.4717 16.6407 40.2294 16.156 38.6138 15.429C38.6138 15.429 35.3018 14.0557 30.6973 13.8134C28.9202 13.7326 28.1124 14.1365 28.1124 14.2981L27.4661 17.5293C27.4661 17.6908 27.3854 17.7716 27.2238 17.8524C27.0622 17.9331 26.9815 18.0139 26.9815 18.0947L26.4968 20.6797C26.416 20.922 26.2544 21.0836 26.0121 21.0028C25.7698 20.922 25.6082 20.7604 25.689 20.5181L26.1737 17.9332C26.2544 17.6908 26.416 17.4485 26.6583 17.2061L27.2238 14.2173C27.3854 13.4095 28.6778 12.9248 30.6973 13.0056C35.5441 13.2479 38.7753 14.6212 38.9369 14.702C40.5525 15.429 41.3603 16.156 41.2795 16.8022V16.883L40.714 19.7911C40.8756 20.1142 40.9564 20.3565 40.9564 20.6797L40.3909 23.6685C40.3102 23.8301 40.1486 23.9916 39.9062 23.9916Z" fill="#666666"/>
</g>
<mask id="mask5_4203_3181" style="mask-type:luminance" maskUnits="userSpaceOnUse" x="3" y="3" width="52" height="52">
<path d="M29.0008 54.6073C43.1433 54.6073 54.608 43.1426 54.608 29.0001C54.608 14.8576 43.1433 3.39282 29.0008 3.39282C14.8583 3.39282 3.39355 14.8576 3.39355 29.0001C3.39355 43.1426 14.8583 54.6073 29.0008 54.6073Z" fill="white"/>
</mask>
<g mask="url(#mask5_4203_3181)">
<path d="M40.1476 23.9108C40.3092 22.8607 37.2396 21.4066 33.1198 20.5988C30.2925 20.0334 27.7883 20.0334 26.415 20.3565C25.7688 20.7604 24.961 21.2451 24.3955 23.9916C23.9109 26.7381 21.8914 39.9053 21.8914 39.9053C21.4875 41.9247 24.6379 43.9443 28.6769 44.6713C32.7159 45.4791 36.2702 44.752 36.6741 42.7325V42.8941C36.6741 42.8941 39.6629 29.8078 40.2284 27.0612C40.6323 24.7994 40.39 23.83 39.9861 23.2646" fill="white"/>
<path d="M31.7469 45.4791C30.7775 45.4791 29.7274 45.3983 28.5965 45.156C26.4962 44.7521 24.6382 44.0251 23.3458 43.1365C21.8917 42.1671 21.2455 41.0362 21.407 39.9053C21.407 39.7437 23.4266 26.6574 23.9112 23.9916C24.4767 21.1643 25.2845 20.5181 26.0923 20.0334C26.1731 20.0334 26.1731 19.9526 26.2538 19.9526C27.7079 19.5487 30.3736 19.6295 33.1201 20.195C36.0282 20.7604 39.0171 21.8106 40.0672 22.9415L40.148 23.0223C40.148 23.0223 40.148 23.103 40.2288 23.103C40.3095 23.1838 40.3903 23.3454 40.3903 23.4262C40.7135 24.0724 40.875 25.1225 40.4711 27.142C39.9864 29.727 37.2399 41.6017 36.9976 42.8941V42.9749C36.5937 44.5905 34.5742 45.4791 31.7469 45.4791ZM22.2956 39.9861C22.0533 41.117 23.1842 42.0056 23.8304 42.4902C25.0421 43.298 26.8193 43.9443 28.758 44.3482C32.6355 45.0752 35.7859 44.429 36.1898 42.8134V42.7326C36.5129 41.2785 39.1786 29.5654 39.6633 27.0613C39.9057 25.688 39.9057 24.7994 39.7441 24.3147C39.6633 24.234 39.5825 24.0724 39.5825 23.9108C39.5018 23.8301 39.5017 23.7493 39.421 23.6685C38.8555 23.0223 36.7552 21.8914 32.8778 21.1643C30.2928 20.6797 27.7887 20.5989 26.4154 20.922C25.8499 21.2451 25.1229 21.649 24.6382 24.3147C24.3151 26.7381 22.3764 39.259 22.2956 39.9861Z" fill="#666666"/>
</g>
<mask id="mask6_4203_3181" style="mask-type:luminance" maskUnits="userSpaceOnUse" x="3" y="3" width="52" height="52">
<path d="M29.0008 54.6073C43.1433 54.6073 54.608 43.1426 54.608 29.0001C54.608 14.8576 43.1433 3.39282 29.0008 3.39282C14.8583 3.39282 3.39355 14.8576 3.39355 29.0001C3.39355 43.1426 14.8583 54.6073 29.0008 54.6073Z" fill="white"/>
</mask>
<g mask="url(#mask6_4203_3181)">
<path d="M40.1476 23.9108C40.3092 22.8607 37.2396 21.4066 33.1198 20.5988C30.2925 20.0334 27.7883 20.0334 26.415 20.3565C25.7688 20.7604 24.961 21.2451 24.3955 23.9916C23.9109 26.7381 21.8914 39.9053 21.8914 39.9053C21.4875 41.9247 24.6379 43.9443 28.6769 44.6713C32.7159 45.4791 36.2702 44.752 36.6741 42.7325V42.8941C36.6741 42.8941 39.6629 29.8078 40.2284 27.0612C40.6323 24.7994 40.39 23.83 39.9861 23.2646" fill="#D7D7D7"/>
<path d="M31.7469 45.4791C30.7775 45.4791 29.7274 45.3983 28.5965 45.156C26.4962 44.7521 24.6382 44.0251 23.3458 43.1365C21.8917 42.1671 21.2455 41.0362 21.407 39.9053C21.407 39.7437 23.4266 26.6574 23.9112 23.9916C24.4767 21.1643 25.2845 20.5181 26.0923 20.0334C26.1731 20.0334 26.1731 19.9526 26.2538 19.9526C27.7079 19.5487 30.3736 19.6295 33.1201 20.195C36.0282 20.7604 39.0171 21.8106 40.0672 22.9415L40.148 23.0223C40.148 23.0223 40.148 23.103 40.2288 23.103C40.3095 23.1838 40.3903 23.3454 40.3903 23.4262C40.7135 24.0724 40.875 25.1225 40.4711 27.142C39.9864 29.727 37.2399 41.6017 36.9976 42.8941V42.9749C36.5937 44.5905 34.5742 45.4791 31.7469 45.4791ZM22.2956 39.9861C22.0533 41.117 23.1842 42.0056 23.8304 42.4902C25.0421 43.298 26.8193 43.9443 28.758 44.3482C32.6355 45.0752 35.7859 44.429 36.1898 42.8134V42.7326C36.5129 41.2785 39.1786 29.5654 39.6633 27.0613C39.9057 25.688 39.9057 24.7994 39.7441 24.3147C39.6633 24.234 39.5825 24.0724 39.5825 23.9108C39.5018 23.8301 39.5017 23.7493 39.421 23.6685C38.8555 23.0223 36.7552 21.8914 32.8778 21.1643C30.2928 20.6797 27.7887 20.5989 26.4154 20.922C25.8499 21.2451 25.1229 21.649 24.6382 24.3147C24.3151 26.7381 22.3764 39.259 22.2956 39.9861Z" fill="#666666"/>
</g>
<mask id="mask7_4203_3181" style="mask-type:luminance" maskUnits="userSpaceOnUse" x="3" y="3" width="52" height="52">
<path d="M29.0008 54.6073C43.1433 54.6073 54.608 43.1426 54.608 29.0001C54.608 14.8576 43.1433 3.39282 29.0008 3.39282C14.8583 3.39282 3.39355 14.8576 3.39355 29.0001C3.39355 43.1426 14.8583 54.6073 29.0008 54.6073Z" fill="white"/>
</mask>
<g mask="url(#mask7_4203_3181)">
<path d="M40.5508 20.3566C39.8238 19.3872 37.0773 18.2563 33.6845 17.6101C30.938 17.0446 28.4338 17.0446 27.0605 17.3677" fill="white"/>
<path d="M40.5512 20.7604C40.3896 20.7604 40.3088 20.6797 40.228 20.5989C39.6626 19.8719 37.2392 18.7409 33.6849 18.0139C31.0999 17.5292 28.5957 17.4485 27.2225 17.7716C26.9801 17.8524 26.7378 17.6908 26.7378 17.4485C26.657 17.2061 26.8186 16.9638 27.0609 16.9638C28.515 16.5599 31.0999 16.7214 33.8464 17.2061C37.32 17.8524 40.1473 19.0641 40.9551 20.1142C41.1166 20.2758 41.0359 20.5989 40.8743 20.6797C40.7127 20.7604 40.632 20.7604 40.5512 20.7604Z" fill="#666666"/>
</g>
<mask id="mask8_4203_3181" style="mask-type:luminance" maskUnits="userSpaceOnUse" x="3" y="3" width="52" height="52">
<path d="M29.0008 54.6073C43.1433 54.6073 54.608 43.1426 54.608 29.0001C54.608 14.8576 43.1433 3.39282 29.0008 3.39282C14.8583 3.39282 3.39355 14.8576 3.39355 29.0001C3.39355 43.1426 14.8583 54.6073 29.0008 54.6073Z" fill="white"/>
</mask>
<g mask="url(#mask8_4203_3181)">
<path d="M40.5508 20.3566C39.8238 19.3872 37.0773 18.2563 33.6845 17.6101C30.938 17.0446 28.4338 17.0446 27.0605 17.3677" fill="white"/>
<path d="M40.5512 20.7604C40.3896 20.7604 40.3088 20.6797 40.228 20.5989C39.6626 19.8719 37.2392 18.7409 33.6849 18.0139C31.0999 17.5292 28.5957 17.4485 27.2225 17.7716C26.9801 17.8524 26.7378 17.6908 26.7378 17.4485C26.657 17.2061 26.8186 16.9638 27.0609 16.9638C28.515 16.5599 31.0999 16.7214 33.8464 17.2061C37.32 17.8524 40.1473 19.0641 40.9551 20.1142C41.1166 20.2758 41.0359 20.5989 40.8743 20.6797C40.7127 20.7604 40.632 20.7604 40.5512 20.7604Z" fill="#666666"/>
</g>
<mask id="mask9_4203_3181" style="mask-type:luminance" maskUnits="userSpaceOnUse" x="3" y="3" width="52" height="52">
<path d="M29.0008 54.6073C43.1433 54.6073 54.608 43.1426 54.608 29.0001C54.608 14.8576 43.1433 3.39282 29.0008 3.39282C14.8583 3.39282 3.39355 14.8576 3.39355 29.0001C3.39355 43.1426 14.8583 54.6073 29.0008 54.6073Z" fill="white"/>
</mask>
<g mask="url(#mask9_4203_3181)">
<path d="M27.5457 14.5403C27.3842 14.6211 26.8187 14.7826 26.6571 14.7826C25.3647 15.2673 23.9106 15.5096 23.1836 15.1057" fill="white"/>
<path d="M24.153 15.7521C23.7491 15.7521 23.2644 15.6713 22.9413 15.5098C22.7797 15.429 22.699 15.1059 22.7797 14.9443C22.8605 14.7828 23.1836 14.702 23.3452 14.7828C23.8299 15.1059 25.0416 14.9443 26.4148 14.4596C26.4956 14.4596 26.738 14.3789 26.9803 14.2981C27.1419 14.2173 27.2226 14.2173 27.3034 14.2173C27.5458 14.1365 27.7881 14.2981 27.7881 14.4596C27.8689 14.702 27.7073 14.9443 27.5458 14.9443C27.465 14.9443 27.3034 15.0251 27.1419 15.0251C26.8995 15.1059 26.738 15.1867 26.6572 15.1867C26.1725 15.429 25.1224 15.7521 24.153 15.7521Z" fill="#666666"/>
</g>
<mask id="mask10_4203_3181" style="mask-type:luminance" maskUnits="userSpaceOnUse" x="3" y="3" width="52" height="52">
<path d="M29.0008 54.6073C43.1433 54.6073 54.608 43.1426 54.608 29.0001C54.608 14.8576 43.1433 3.39282 29.0008 3.39282C14.8583 3.39282 3.39355 14.8576 3.39355 29.0001C3.39355 43.1426 14.8583 54.6073 29.0008 54.6073Z" fill="white"/>
</mask>
<g mask="url(#mask10_4203_3181)">
<path d="M23.1036 14.8635C23.1036 14.8635 23.4267 15.8329 21.6496 16.4791C19.8724 17.1254 19.6301 17.2062 18.8223 16.8023" fill="white"/>
<path d="M19.6297 17.4486C19.3066 17.4486 18.9835 17.3678 18.5796 17.1255C18.3373 17.0447 18.2565 16.8024 18.418 16.56C18.4988 16.3177 18.7412 16.2369 18.9835 16.3985C19.7105 16.7216 19.7913 16.7216 21.5685 16.0753C22.8609 15.5907 22.7801 15.0252 22.7801 15.0252C22.6994 14.7829 22.8609 14.5405 23.1033 14.5405C23.3456 14.4597 23.5072 14.6213 23.5879 14.7829C23.5879 14.8637 23.9919 16.1561 21.8916 16.8831C20.6799 17.287 20.1144 17.4486 19.6297 17.4486Z" fill="#666666"/>
</g>
<mask id="mask11_4203_3181" style="mask-type:luminance" maskUnits="userSpaceOnUse" x="3" y="3" width="52" height="52">
<path d="M29.0008 54.6073C43.1433 54.6073 54.608 43.1426 54.608 29.0001C54.608 14.8576 43.1433 3.39282 29.0008 3.39282C14.8583 3.39282 3.39355 14.8576 3.39355 29.0001C3.39355 43.1426 14.8583 54.6073 29.0008 54.6073Z" fill="white"/>
</mask>
<g mask="url(#mask11_4203_3181)">
<path d="M18.7411 16.4792C18.7411 16.4792 18.9835 17.7717 18.418 18.7411C17.9334 19.7104 18.0949 19.3873 16.8832 20.599C15.7523 21.8107 15.8331 22.457 15.5907 23.5879C15.4292 24.5572 14.7829 25.9305 14.7021 26.4152" fill="white"/>
<path d="M14.7828 26.8997H14.702C14.4597 26.819 14.3789 26.6574 14.3789 26.4151C14.4597 26.2535 14.5405 25.9304 14.702 25.6073C14.9444 25.0418 15.1867 24.234 15.3483 23.6685C15.3483 23.507 15.429 23.3454 15.429 23.1839C15.5906 22.2953 15.6714 21.5683 16.7215 20.4373C16.9639 20.1142 17.2062 19.9527 17.3678 19.7911C17.7717 19.3064 17.7717 19.3064 18.1756 18.6602C18.6602 17.8524 18.4179 16.6407 18.4179 16.6407C18.4179 16.3983 18.4987 16.2368 18.741 16.156C18.9834 16.156 19.1449 16.2368 19.2257 16.4791C19.2257 16.5599 19.468 17.9332 18.9026 19.0641C18.4987 19.7911 18.4987 19.8719 17.9332 20.3566C17.7717 20.5181 17.6101 20.6797 17.287 21.0028C16.3984 21.8914 16.3176 22.4568 16.2368 23.2646C16.2368 23.4262 16.1561 23.5878 16.1561 23.8301C15.9945 24.4763 15.7522 25.2841 15.5098 25.9304C15.429 26.2535 15.2675 26.4958 15.2675 26.6574C15.1059 26.819 14.9444 26.8997 14.7828 26.8997Z" fill="#666666"/>
</g>
<mask id="mask12_4203_3181" style="mask-type:luminance" maskUnits="userSpaceOnUse" x="3" y="3" width="52" height="52">
<path d="M29.0008 54.6073C43.1433 54.6073 54.608 43.1426 54.608 29.0001C54.608 14.8576 43.1433 3.39282 29.0008 3.39282C14.8583 3.39282 3.39355 14.8576 3.39355 29.0001C3.39355 43.1426 14.8583 54.6073 29.0008 54.6073Z" fill="white"/>
</mask>
<g mask="url(#mask12_4203_3181)">
<path d="M16.2363 21.8914C16.2363 21.8914 17.6096 21.5682 18.9828 21.4067C20.2753 21.2451 22.0525 20.922 22.8603 21.3259C23.6681 21.7298 24.7182 22.376 24.7182 22.376" fill="white"/>
<path d="M24.7186 22.7799C24.6378 22.7799 24.557 22.7799 24.4763 22.6991C24.4763 22.6991 23.5069 22.0529 22.6991 21.7298C22.0529 21.4067 20.5181 21.649 19.4679 21.8106L19.064 21.8913C17.7715 22.0529 16.3983 22.376 16.3983 22.376C16.1559 22.4568 15.9136 22.2953 15.9136 22.0529C15.8328 21.8106 15.9944 21.5682 16.2367 21.5682C16.3175 21.5682 17.6908 21.2451 18.9832 21.0835L19.3871 21.0028C20.7604 20.8412 22.2952 20.5989 23.103 21.0028C23.9916 21.4067 24.9609 22.0529 24.9609 22.0529C25.1225 22.1337 25.2033 22.4568 25.1225 22.6184C24.961 22.6992 24.7994 22.7799 24.7186 22.7799Z" fill="#666666"/>
</g>
<mask id="mask13_4203_3181" style="mask-type:luminance" maskUnits="userSpaceOnUse" x="3" y="3" width="52" height="52">
<path d="M29.0008 54.6073C43.1433 54.6073 54.608 43.1426 54.608 29.0001C54.608 14.8576 43.1433 3.39282 29.0008 3.39282C14.8583 3.39282 3.39355 14.8576 3.39355 29.0001C3.39355 43.1426 14.8583 54.6073 29.0008 54.6073Z" fill="white"/>
</mask>
<g mask="url(#mask13_4203_3181)">
<path d="M23.7492 25.6071C23.7492 25.6071 22.5375 25.4456 20.9219 24.8801L23.7492 25.6071Z" fill="white"/>
<path d="M23.7498 26.0111C23.669 26.0111 22.3765 25.8496 20.7609 25.2033C20.5186 25.1225 20.4378 24.8802 20.5186 24.6379C20.5994 24.3955 20.8417 24.3147 21.084 24.3955C22.6189 24.961 23.8306 25.1225 23.8306 25.1225C24.0729 25.1225 24.2345 25.3649 24.2345 25.6072C24.1537 25.8496 23.9113 26.0111 23.7498 26.0111Z" fill="#666666"/>
</g>
<mask id="mask14_4203_3181" style="mask-type:luminance" maskUnits="userSpaceOnUse" x="3" y="3" width="52" height="52">
<path d="M29.0008 54.6073C43.1433 54.6073 54.608 43.1426 54.608 29.0001C54.608 14.8576 43.1433 3.39282 29.0008 3.39282C14.8583 3.39282 3.39355 14.8576 3.39355 29.0001C3.39355 43.1426 14.8583 54.6073 29.0008 54.6073Z" fill="white"/>
</mask>
<g mask="url(#mask14_4203_3181)">
<path d="M21.569 23.8301C21.4074 23.9109 20.8419 25.2841 19.5495 25.5264C18.257 25.7688 15.4297 25.5264 15.4297 25.5264" fill="white"/>
<path d="M17.9335 26.0112C16.7218 26.0112 15.5101 25.9304 15.4293 25.9304C15.187 25.9304 15.0254 25.6881 15.0254 25.4457C15.0254 25.2034 15.2677 25.0418 15.5101 25.0418C15.5101 25.0418 18.2566 25.2842 19.5491 25.0418C20.3569 24.8803 20.8415 24.1532 21.0839 23.7493C21.2454 23.5878 21.2454 23.4262 21.407 23.3454C21.5686 23.2647 21.8917 23.2647 21.9725 23.507C22.0532 23.6685 22.0532 23.9109 21.8917 24.0725C21.8917 24.0725 21.8109 24.1532 21.8109 24.234C21.4878 24.7187 20.9223 25.6881 19.7106 25.8496C19.2259 26.0112 18.5797 26.0112 17.9335 26.0112Z" fill="#666666"/>
</g>
<mask id="mask15_4203_3181" style="mask-type:luminance" maskUnits="userSpaceOnUse" x="3" y="3" width="52" height="52">
<path d="M29.0008 54.6073C43.1433 54.6073 54.608 43.1426 54.608 29.0001C54.608 14.8576 43.1433 3.39282 29.0008 3.39282C14.8583 3.39282 3.39355 14.8576 3.39355 29.0001C3.39355 43.1426 14.8583 54.6073 29.0008 54.6073Z" fill="white"/>
</mask>
<g mask="url(#mask15_4203_3181)">
<path d="M16.3175 25.6882C16.3175 25.6882 15.6713 26.9807 15.6713 28.354C15.6713 29.808 15.5097 30.2119 15.025 31.1005C14.5404 31.9891 14.0557 33.0392 14.0557 33.0392" fill="white"/>
<path d="M14.3794 33.2815L13.6523 32.8776C13.6523 32.8776 14.2178 31.8274 14.6217 30.9388C15.0256 30.131 15.1872 29.7271 15.1872 28.3539C15.1872 26.8191 15.8334 25.5266 15.8334 25.4458C15.9142 25.2035 16.1565 25.1227 16.3989 25.2842C16.6412 25.365 16.722 25.6074 16.5604 25.8497C16.5604 25.8497 15.995 27.0614 15.995 28.3539C15.995 29.8887 15.8334 30.2926 15.3487 31.262C14.9448 32.2313 14.3794 33.2815 14.3794 33.2815Z" fill="#666666"/>
</g>
<mask id="mask16_4203_3181" style="mask-type:luminance" maskUnits="userSpaceOnUse" x="3" y="3" width="52" height="52">
<path d="M29.0008 54.6073C43.1433 54.6073 54.608 43.1426 54.608 29.0001C54.608 14.8576 43.1433 3.39282 29.0008 3.39282C14.8583 3.39282 3.39355 14.8576 3.39355 29.0001C3.39355 43.1426 14.8583 54.6073 29.0008 54.6073Z" fill="white"/>
</mask>
<g mask="url(#mask16_4203_3181)">
<path d="M18.337 25.6071C17.7715 25.5264 22.376 26.2534 23.5069 27.7882L18.337 25.6071Z" fill="white"/>
<path d="M23.5068 28.1922C23.3453 28.1922 23.2645 28.1115 23.1837 28.0307C22.699 27.3037 21.0834 26.6574 18.4985 26.092C18.1754 26.0112 17.7715 25.9304 17.8522 25.5265C17.8522 25.2842 18.0946 25.1226 18.3369 25.2034C18.4177 25.2034 18.4985 25.2034 18.4985 25.2842C18.4985 25.2842 18.5793 25.2842 18.66 25.2842C20.4372 25.6881 22.9414 26.3343 23.83 27.546C23.9915 27.7076 23.9107 28.0307 23.7492 28.1115C23.7492 28.1922 23.5876 28.1922 23.5068 28.1922Z" fill="#666666"/>
</g>
<mask id="mask17_4203_3181" style="mask-type:luminance" maskUnits="userSpaceOnUse" x="3" y="3" width="52" height="52">
<path d="M29.0008 54.6073C43.1433 54.6073 54.608 43.1426 54.608 29.0001C54.608 14.8576 43.1433 3.39282 29.0008 3.39282C14.8583 3.39282 3.39355 14.8576 3.39355 29.0001C3.39355 43.1426 14.8583 54.6073 29.0008 54.6073Z" fill="white"/>
</mask>
<g mask="url(#mask17_4203_3181)">
<path d="M22.9417 31.5042C22.9417 31.5042 20.5183 30.8579 19.8721 30.2925L22.9417 31.5042Z" fill="white"/>
<path d="M22.9418 31.9081H22.861C22.6186 31.8274 20.3568 31.1811 19.6298 30.6157C19.4682 30.4541 19.3874 30.2118 19.549 30.0502C19.7106 29.8886 19.9529 29.8079 20.1145 29.9694C20.5991 30.3733 22.3763 30.9388 23.0225 31.1003C23.2649 31.1811 23.3457 31.4234 23.3457 31.585C23.2649 31.8273 23.1033 31.9081 22.9418 31.9081Z" fill="#666666"/>
</g>
<mask id="mask18_4203_3181" style="mask-type:luminance" maskUnits="userSpaceOnUse" x="3" y="3" width="52" height="52">
<path d="M29.0008 54.6073C43.1433 54.6073 54.608 43.1426 54.608 29.0001C54.608 14.8576 43.1433 3.39282 29.0008 3.39282C14.8583 3.39282 3.39355 14.8576 3.39355 29.0001C3.39355 43.1426 14.8583 54.6073 29.0008 54.6073Z" fill="white"/>
</mask>
<g mask="url(#mask18_4203_3181)">
<path d="M20.2763 29.8886C20.2763 29.8886 19.6301 30.7772 18.4184 30.3733C17.2067 29.8886 16.2373 29.9694 15.6719 29.1616" fill="white"/>
<path d="M19.0644 30.9388C18.8221 30.9388 18.5797 30.858 18.2566 30.7773C17.9335 30.6157 17.5296 30.5349 17.2065 30.4541C16.4795 30.2926 15.7524 30.0502 15.2677 29.404C15.1062 29.2424 15.187 28.9193 15.3485 28.8386C15.5101 28.677 15.8332 28.7578 15.914 28.9193C16.2371 29.3232 16.7218 29.4848 17.368 29.6463C17.6912 29.7271 18.095 29.8079 18.4989 29.9695C19.3875 30.2926 19.7914 29.7271 19.8722 29.6463C20.0338 29.4848 20.2761 29.404 20.4377 29.5656C20.5992 29.7271 20.68 29.9695 20.5184 30.131C20.3569 30.4542 19.7914 30.9388 19.0644 30.9388Z" fill="#666666"/>
</g>
<mask id="mask19_4203_3181" style="mask-type:luminance" maskUnits="userSpaceOnUse" x="3" y="3" width="52" height="52">
<path d="M29.0008 54.6073C43.1433 54.6073 54.608 43.1426 54.608 29.0001C54.608 14.8576 43.1433 3.39282 29.0008 3.39282C14.8583 3.39282 3.39355 14.8576 3.39355 29.0001C3.39355 43.1426 14.8583 54.6073 29.0008 54.6073Z" fill="white"/>
</mask>
<g mask="url(#mask19_4203_3181)">
<path d="M12.7632 31.262C12.7632 31.262 14.298 35.2202 17.5292 34.4124C20.7604 33.6854 21.1643 33.1199 23.5877 32.6352C26.0111 32.1505 26.0111 32.1505 27.2228 32.1505C28.4345 32.2313 29.8886 32.2313 30.0501 33.3622C30.2117 34.4124 30.5348 35.6241 27.0613 36.9166C23.5877 38.209 22.376 38.5322 19.7103 39.4207C17.0446 40.3093 14.5404 41.7634 11.7939 43.4597C9.04735 45.1561 6.13927 46.287 3.71587 46.287C1.29247 46.287 -2.50418 46.5294 -5.16992 47.9026" fill="white"/>
<path d="M-5.16988 48.3872C-5.33144 48.3872 -5.493 48.3064 -5.57378 48.1449C-5.65456 47.9025 -5.57378 47.6602 -5.41222 47.5794C-2.74648 46.2061 0.969392 45.9638 3.63513 45.9638C5.89697 45.9638 8.64348 44.9944 11.4708 43.2173C14.3789 41.4401 16.8023 39.9861 19.468 39.0975C20.3566 38.7744 21.0028 38.5321 21.7298 38.3705C23.1839 37.8858 24.4764 37.4819 26.819 36.5933C29.8886 35.4624 29.7271 34.5738 29.5655 33.6045V33.5237C29.4847 32.8775 28.5154 32.7159 27.2229 32.7159H27.1421C25.9304 32.6351 25.9304 32.6351 23.5878 33.1198C22.4569 33.3621 21.8106 33.6045 21.0836 33.8468C20.2758 34.1699 19.3064 34.4931 17.6101 34.897C14.7828 35.5432 12.9248 32.9582 12.3594 31.5042C12.2786 31.2619 12.3594 31.0195 12.6017 30.9387C12.844 30.858 13.0864 30.9387 13.1672 31.1811C13.2479 31.3426 14.6212 34.7354 17.5293 34.0892C19.2257 33.6853 20.1142 33.3621 20.922 33.1198C21.6491 32.8775 22.3761 32.6351 23.507 32.312C25.8496 31.8273 25.9304 31.8273 27.1421 31.8273H27.3037C28.5154 31.9081 30.2117 31.9889 30.4541 33.3621V33.4429C30.6964 34.8162 30.6156 36.1087 27.1421 37.4011C24.7995 38.2897 23.4262 38.6936 22.053 39.1783C21.4067 39.4206 20.6797 39.663 19.7911 39.9053C17.2062 40.7939 14.8635 42.0864 11.9555 43.9443C9.04739 45.8022 6.05853 46.8524 3.63513 46.8524C1.05017 46.8524 -2.50415 47.0947 -5.08911 48.3872C-5.00833 48.3872 -5.0891 48.3872 -5.16988 48.3872Z" fill="#666666"/>
</g>
<mask id="mask20_4203_3181" style="mask-type:luminance" maskUnits="userSpaceOnUse" x="3" y="3" width="52" height="52">
<path d="M29.0008 54.6073C43.1433 54.6073 54.608 43.1426 54.608 29.0001C54.608 14.8576 43.1433 3.39282 29.0008 3.39282C14.8583 3.39282 3.39355 14.8576 3.39355 29.0001C3.39355 43.1426 14.8583 54.6073 29.0008 54.6073Z" fill="white"/>
</mask>
<g mask="url(#mask20_4203_3181)">
<path d="M12.7632 31.262C12.7632 31.262 14.298 35.2202 17.5292 34.4124C20.7604 33.6854 21.1643 33.1199 23.5877 32.6352C26.0111 32.1505 26.0111 32.1505 27.2228 32.1505C28.4345 32.2313 29.8886 32.2313 30.0501 33.3622C30.2117 34.4124 30.5348 35.6241 27.0613 36.9166C23.5877 38.209 22.376 38.5322 19.7103 39.4207C17.0446 40.3093 14.5404 41.7634 11.7939 43.4597C9.04735 45.1561 6.13927 46.287 3.71587 46.287C1.29247 46.287 -2.50418 46.5294 -5.16992 47.9026" fill="white"/>
<path d="M-5.16988 48.3872C-5.33144 48.3872 -5.493 48.3064 -5.57378 48.1449C-5.65456 47.9025 -5.57378 47.6602 -5.41222 47.5794C-2.74648 46.2061 0.969392 45.9638 3.63513 45.9638C5.89697 45.9638 8.64348 44.9944 11.4708 43.2173C14.3789 41.4401 16.8023 39.9861 19.468 39.0975C20.3566 38.7744 21.0028 38.5321 21.7298 38.3705C23.1839 37.8858 24.4764 37.4819 26.819 36.5933C29.8886 35.4624 29.7271 34.5738 29.5655 33.6045V33.5237C29.4847 32.8775 28.5154 32.7159 27.2229 32.7159H27.1421C25.9304 32.6351 25.9304 32.6351 23.5878 33.1198C22.4569 33.3621 21.8106 33.6045 21.0836 33.8468C20.2758 34.1699 19.3064 34.4931 17.6101 34.897C14.7828 35.5432 12.9248 32.9582 12.3594 31.5042C12.2786 31.2619 12.3594 31.0195 12.6017 30.9387C12.844 30.858 13.0864 30.9387 13.1672 31.1811C13.2479 31.3426 14.6212 34.7354 17.5293 34.0892C19.2257 33.6853 20.1142 33.3621 20.922 33.1198C21.6491 32.8775 22.3761 32.6351 23.507 32.312C25.8496 31.8273 25.9304 31.8273 27.1421 31.8273H27.3037C28.5154 31.9081 30.2117 31.9889 30.4541 33.3621V33.4429C30.6964 34.8162 30.6156 36.1087 27.1421 37.4011C24.7995 38.2897 23.4262 38.6936 22.053 39.1783C21.4067 39.4206 20.6797 39.663 19.7911 39.9053C17.2062 40.7939 14.8635 42.0864 11.9555 43.9443C9.04739 45.8022 6.05853 46.8524 3.63513 46.8524C1.05017 46.8524 -2.50415 47.0947 -5.08911 48.3872C-5.00833 48.3872 -5.0891 48.3872 -5.16988 48.3872Z" fill="#666666"/>
</g>
<mask id="mask21_4203_3181" style="mask-type:luminance" maskUnits="userSpaceOnUse" x="3" y="3" width="52" height="52">
<path d="M29.0008 54.6073C43.1433 54.6073 54.608 43.1426 54.608 29.0001C54.608 14.8576 43.1433 3.39282 29.0008 3.39282C14.8583 3.39282 3.39355 14.8576 3.39355 29.0001C3.39355 43.1426 14.8583 54.6073 29.0008 54.6073Z" fill="white"/>
</mask>
<g mask="url(#mask21_4203_3181)">
<path d="M42.976 40.5515H42.8952C42.5721 40.4708 42.4105 40.2284 42.4913 39.9053L45.884 23.4262C45.9648 23.1031 46.2072 22.9415 46.5303 23.0223C46.8534 23.1031 47.015 23.3454 46.9342 23.6685L43.5414 40.1476C43.4606 40.39 43.2183 40.5515 42.976 40.5515Z" fill="#666666"/>
</g>
<mask id="mask22_4203_3181" style="mask-type:luminance" maskUnits="userSpaceOnUse" x="3" y="3" width="52" height="52">
<path d="M29.0008 54.6073C43.1433 54.6073 54.608 43.1426 54.608 29.0001C54.608 14.8576 43.1433 3.39282 29.0008 3.39282C14.8583 3.39282 3.39355 14.8576 3.39355 29.0001C3.39355 43.1426 14.8583 54.6073 29.0008 54.6073Z" fill="white"/>
</mask>
<g mask="url(#mask22_4203_3181)">
<path d="M44.1064 24.234C43.9448 24.234 43.7025 24.1532 43.6217 23.9109C43.4601 23.6686 43.6217 23.2647 43.864 23.1839L46.449 21.8106C46.6913 21.6491 47.0952 21.8106 47.176 22.053C47.3375 22.2953 47.176 22.6992 46.9337 22.78L44.3487 24.1533C44.2679 24.1533 44.1871 24.234 44.1064 24.234Z" fill="#666666"/>
</g>
<mask id="mask23_4203_3181" style="mask-type:luminance" maskUnits="userSpaceOnUse" x="3" y="3" width="52" height="52">
<path d="M29.0008 54.6073C43.1433 54.6073 54.608 43.1426 54.608 29.0001C54.608 14.8576 43.1433 3.39282 29.0008 3.39282C14.8583 3.39282 3.39355 14.8576 3.39355 29.0001C3.39355 43.1426 14.8583 54.6073 29.0008 54.6073Z" fill="white"/>
</mask>
<g mask="url(#mask23_4203_3181)">
<path d="M48.6296 25.365C48.468 25.365 48.3065 25.2842 48.2257 25.1226L46.4485 22.78C46.287 22.5377 46.287 22.2146 46.5293 21.9722C46.7717 21.8107 47.0948 21.8107 47.3371 22.053L49.1143 24.3956C49.2758 24.638 49.2758 24.9611 49.0335 25.2034C48.8719 25.2842 48.7104 25.365 48.6296 25.365Z" fill="#666666"/>
</g>
<mask id="mask24_4203_3181" style="mask-type:luminance" maskUnits="userSpaceOnUse" x="3" y="3" width="52" height="52">
<path d="M29.0008 54.6073C43.1433 54.6073 54.608 43.1426 54.608 29.0001C54.608 14.8576 43.1433 3.39282 29.0008 3.39282C14.8583 3.39282 3.39355 14.8576 3.39355 29.0001C3.39355 43.1426 14.8583 54.6073 29.0008 54.6073Z" fill="white"/>
</mask>
<g mask="url(#mask24_4203_3181)">
<path d="M42.8134 40.7939C42.6518 40.7939 42.4095 40.7131 42.3287 40.4707C42.1671 40.2284 42.3287 39.8245 42.5711 39.7437L45.156 38.3705C45.3983 38.2089 45.8022 38.3705 45.883 38.6128C46.0446 38.8551 45.883 39.259 45.6407 39.3398L43.0557 40.7131C43.0557 40.7938 42.8942 40.7939 42.8134 40.7939Z" fill="#666666"/>
</g>
<mask id="mask25_4203_3181" style="mask-type:luminance" maskUnits="userSpaceOnUse" x="3" y="3" width="52" height="52">
<path d="M29.0008 54.6073C43.1433 54.6073 54.608 43.1426 54.608 29.0001C54.608 14.8576 43.1433 3.39282 29.0008 3.39282C14.8583 3.39282 3.39355 14.8576 3.39355 29.0001C3.39355 43.1426 14.8583 54.6073 29.0008 54.6073Z" fill="white"/>
</mask>
<g mask="url(#mask25_4203_3181)">
<path d="M42.7331 40.6323C42.5715 40.6323 42.41 40.5515 42.3292 40.39L40.5521 38.0473C40.3905 37.805 40.3905 37.4819 40.6328 37.2395C40.8752 37.078 41.1983 37.078 41.4406 37.3203L43.2178 39.6629C43.3793 39.9053 43.3793 40.2284 43.137 40.4707C42.9754 40.6323 42.8139 40.6323 42.7331 40.6323Z" fill="#666666"/>
</g>
<path d="M29 58C13.0056 58 0 44.9944 0 29C0 13.0056 13.0056 0 29 0C44.9944 0 58 13.0056 58 29C58 44.9944 44.9944 58 29 58ZM29 1.29247C13.7326 1.29247 1.29248 13.7326 1.29248 29C1.29248 44.2674 13.7326 56.7075 29 56.7075C44.2674 56.7075 56.7075 44.2674 56.7075 29C56.7075 13.7326 44.2674 1.29247 29 1.29247Z" fill="#666666"/>
<path d="M29.0004 55.011C14.6216 55.011 2.98926 43.298 2.98926 28.9999C2.98926 14.7019 14.7023 2.98877 29.0004 2.98877C43.2984 2.98877 55.0115 14.7019 55.0115 28.9999C55.0115 43.298 43.3792 55.011 29.0004 55.011ZM29.0004 3.79657C15.1062 3.79657 3.79706 15.1058 3.79706 28.9999C3.79706 42.8941 15.1062 54.2032 29.0004 54.2032C42.8945 54.2032 54.2037 42.8941 54.2037 28.9999C54.2037 15.1058 42.8945 3.79657 29.0004 3.79657Z" fill="#666666"/>
</svg>
