<svg width="100" height="100" viewBox="0 0 100 100" fill="none" xmlns="http://www.w3.org/2000/svg">
<path d="M50.2004 75.8656C36.0004 75.8656 24.4004 64.2656 24.4004 50.0656C24.4004 35.8656 36.0004 24.2656 50.2004 24.2656C64.4004 24.2656 76.0004 35.8656 76.0004 50.0656C76.0004 64.2656 64.4004 75.8656 50.2004 75.8656ZM50.2004 25.2656C36.5004 25.2656 25.4004 36.3656 25.4004 50.0656C25.4004 63.7656 36.5004 74.8656 50.2004 74.8656C63.9004 74.8656 75.0004 63.7656 75.0004 50.0656C75.0004 36.3656 63.9004 25.2656 50.2004 25.2656Z" fill="#666666"/>
<path d="M75.0998 50.4658H70.2998" stroke="#666666" stroke-width="0.9385" stroke-miterlimit="10" stroke-linecap="round" stroke-linejoin="round"/>
<path d="M61.4002 31.3656C61.3002 31.3656 61.2002 31.3656 61.2002 31.2656C61.0002 31.1656 60.9002 30.8656 61.0002 30.6656L62.5002 28.2656C62.6002 28.0656 62.9001 27.9656 63.1001 28.0656C63.3001 28.1656 63.4002 28.4656 63.3002 28.6656L61.8002 31.0656C61.7002 31.2656 61.6002 31.3656 61.4002 31.3656Z" fill="#666666"/>
<path d="M71.9 38.0659L69.5 39.4659" stroke="#666666" stroke-width="0.9385" stroke-miterlimit="10" stroke-linecap="round" stroke-linejoin="round"/>
<path d="M50.2002 30.9656C49.9002 30.9656 49.7002 30.7656 49.7002 30.4656V24.7656C49.7002 24.4656 49.9002 24.2656 50.2002 24.2656C50.5002 24.2656 50.7002 24.4656 50.7002 24.7656V30.4656C50.7002 30.6656 50.5002 30.9656 50.2002 30.9656Z" fill="#666666"/>
<path d="M30.1004 50.9658H25.4004C25.1004 50.9658 24.9004 50.7658 24.9004 50.4658C24.9004 50.1658 25.1004 49.9658 25.4004 49.9658H30.1004C30.4004 49.9658 30.6004 50.1658 30.6004 50.4658C30.6004 50.7658 30.4004 50.9658 30.1004 50.9658Z" fill="#666666"/>
<path d="M38.9999 31.3658C38.7999 31.3658 38.6998 31.2658 38.5998 31.1658L37.0998 28.7658C36.9998 28.5658 36.9999 28.2658 37.2999 28.1658C37.4999 28.0658 37.7999 28.0658 37.8999 28.3658L39.3999 30.7658C39.4999 30.9658 39.4998 31.2658 39.1998 31.3658C39.1998 31.3658 39.0999 31.3658 38.9999 31.3658Z" fill="#666666"/>
<path d="M30.9998 39.8657C30.8998 39.8657 30.7998 39.8657 30.7998 39.7657L28.2998 38.4657C28.0998 38.3657 27.9998 38.0657 28.0998 37.8657C28.1998 37.6657 28.4998 37.5657 28.6998 37.6657L31.1998 39.0657C31.3998 39.1657 31.4998 39.4657 31.3998 39.6657C31.2998 39.8657 31.0998 39.8657 30.9998 39.8657Z" fill="#666666"/>
<path d="M50.2004 75.8656C36.0004 75.8656 24.4004 64.2656 24.4004 50.0656C24.4004 35.8656 36.0004 24.2656 50.2004 24.2656C64.4004 24.2656 76.0004 35.8656 76.0004 50.0656C76.0004 64.2656 64.4004 75.8656 50.2004 75.8656ZM50.2004 25.2656C36.5004 25.2656 25.4004 36.3656 25.4004 50.0656C25.4004 63.7656 36.5004 74.8656 50.2004 74.8656C63.9004 74.8656 75.0004 63.7656 75.0004 50.0656C75.0004 36.3656 63.9004 25.2656 50.2004 25.2656Z" fill="#666666"/>
<path d="M20.7998 46.0655C20.4998 45.9655 20.2998 45.7655 20.2998 45.4655C20.2998 45.1655 20.5998 44.9655 20.8998 44.9655C21.1998 44.9655 21.3998 45.2655 21.3998 45.5655C21.3998 45.8655 21.1998 46.0655 20.7998 46.0655ZM21.1998 44.0655C20.8998 43.9655 20.6998 43.6655 20.7998 43.3655C20.8998 43.0655 21.1998 42.8655 21.4998 42.9655C21.7998 43.0655 21.9998 43.3655 21.8998 43.6655C21.8998 43.8655 21.5998 44.0655 21.3998 44.0655C21.1998 44.0655 21.1998 44.0655 21.1998 44.0655ZM21.5998 42.0655C21.2998 41.9655 21.0998 41.6655 21.1998 41.3655C21.2998 41.0655 21.5998 40.8655 21.8998 40.9655C22.1998 41.0655 22.3998 41.3655 22.2998 41.6655C22.1998 41.8655 21.9998 42.0655 21.7998 42.0655C21.6998 42.1655 21.6998 42.1655 21.5998 42.0655ZM22.1998 40.1655C21.8998 40.0655 21.7998 39.7655 21.8998 39.4655C21.9998 39.1655 22.2998 39.0655 22.5998 39.1655C22.8998 39.2655 22.9998 39.5655 22.8998 39.8655C22.7998 40.0655 22.5998 40.2655 22.3998 40.2655C22.2998 40.2655 22.2998 40.2655 22.1998 40.1655ZM22.8998 38.3655C22.5998 38.2655 22.4998 37.9655 22.5998 37.6655C22.6998 37.3655 23.0998 37.2655 23.2998 37.3655C23.5998 37.4655 23.6998 37.8655 23.5998 38.0655C23.4998 38.2655 23.2998 38.3655 23.0998 38.3655C23.0998 38.3655 22.9998 38.3655 22.8998 38.3655ZM23.7998 36.5655C23.4998 36.4655 23.3998 36.0655 23.5998 35.8655C23.6998 35.5655 24.0998 35.4655 24.3998 35.6655C24.6998 35.7655 24.7998 36.1655 24.5998 36.4655C24.4998 36.6655 24.2998 36.7655 24.0998 36.7655C23.9998 36.5655 23.8998 36.5655 23.7998 36.5655ZM24.7998 34.7655C24.4998 34.5655 24.4998 34.2655 24.5998 33.9655C24.7998 33.6655 25.0998 33.6655 25.3998 33.7655C25.6998 33.9655 25.6998 34.2655 25.5998 34.5655C25.4998 34.7655 25.2998 34.8655 25.0998 34.8655C24.9998 34.8655 24.8998 34.8655 24.7998 34.7655ZM25.8998 33.0655C25.6998 32.8655 25.5998 32.5655 25.7998 32.2655C25.9998 32.0655 26.2998 31.9655 26.5998 32.1655C26.7998 32.3655 26.8998 32.6655 26.6998 32.9655C26.5998 33.0655 26.3998 33.1655 26.2998 33.1655C26.0998 33.2655 25.9998 33.1655 25.8998 33.0655ZM27.0998 31.4655C26.8998 31.2655 26.7998 30.9655 26.9998 30.6655C27.1998 30.4655 27.4998 30.3655 27.7998 30.5655C27.9998 30.7655 28.0998 31.0655 27.8998 31.3655C27.7998 31.4655 27.5998 31.5655 27.4998 31.5655C27.2998 31.6655 27.1998 31.5655 27.0998 31.4655ZM28.3998 29.9655C28.1998 29.7655 28.1998 29.3655 28.3998 29.1655C28.5998 28.9655 28.9998 28.9655 29.1998 29.1655C29.3998 29.3655 29.3998 29.7655 29.1998 29.9655C29.0998 30.0655 28.8998 30.1655 28.7998 30.1655C28.5998 30.1655 28.4998 30.0655 28.3998 29.9655ZM29.7998 28.5655C29.5998 28.3655 29.5998 27.9655 29.7998 27.7655C29.9998 27.5655 30.3998 27.5655 30.5998 27.7655C30.7998 27.9655 30.7998 28.3655 30.5998 28.5655C30.4998 28.6655 30.3998 28.6655 30.1998 28.6655C29.9998 28.7655 29.8998 28.6655 29.7998 28.5655ZM31.2998 27.2655C31.0998 27.0655 31.1998 26.6655 31.3998 26.4655C31.5998 26.2655 31.9998 26.3655 32.1998 26.5655C32.3998 26.7655 32.3998 27.1655 32.0998 27.3655C31.9998 27.4655 31.8998 27.4655 31.7998 27.4655C31.4998 27.4655 31.3998 27.3655 31.2998 27.2655ZM32.7998 25.9655C32.5998 25.7655 32.6998 25.3655 32.8998 25.1655C33.0998 24.9655 33.4998 25.0655 33.6998 25.2655C33.8998 25.4655 33.7998 25.8655 33.5998 26.0655C33.4998 26.1655 33.3998 26.1655 33.2998 26.1655C33.0998 26.2655 32.8998 26.1655 32.7998 25.9655ZM34.4998 24.8655C34.2998 24.5655 34.3998 24.2655 34.6998 24.0655C34.9998 23.8655 35.2998 23.9655 35.4998 24.2655C35.5998 24.5655 35.5998 24.8655 35.2998 25.0655C35.1998 25.1655 35.0998 25.1655 34.9998 25.1655C34.7998 25.1655 34.5998 25.0655 34.4998 24.8655ZM36.1998 23.8655C36.0998 23.5655 36.1998 23.2655 36.3998 23.1655C36.6998 23.0655 36.9998 23.1655 37.0998 23.3655C37.1998 23.6655 37.0998 23.9655 36.8998 24.0655C36.7998 24.0655 36.6998 24.1655 36.6998 24.1655C36.4998 24.1655 36.2998 24.0655 36.1998 23.8655ZM37.9998 22.9655C37.8998 22.6655 37.9998 22.3655 38.2998 22.2655C38.5998 22.1655 38.8998 22.2655 38.9998 22.5655C39.0998 22.8655 38.9998 23.1655 38.6998 23.2655C38.5998 23.2655 38.5998 23.2655 38.4998 23.2655C38.2998 23.3655 38.0998 23.1655 37.9998 22.9655ZM39.8998 22.2655C39.7998 21.9655 39.8998 21.6655 40.1998 21.5655C40.4998 21.4655 40.7998 21.5655 40.8998 21.8655C40.9998 22.1655 40.8998 22.4655 40.5998 22.5655C40.4998 22.5655 40.4998 22.5655 40.3998 22.5655C40.1998 22.5655 39.9998 22.4655 39.8998 22.2655ZM41.7998 21.5655C41.6998 21.2655 41.8998 20.9655 42.1998 20.8655C42.4998 20.7655 42.7998 20.9655 42.8998 21.2655C42.9998 21.5655 42.7998 21.8655 42.4998 21.9655H42.3998C42.0998 21.9655 41.7998 21.8655 41.7998 21.5655ZM43.6998 21.0655C43.5998 20.7655 43.7998 20.4655 44.0998 20.4655C44.3998 20.3655 44.6998 20.5655 44.7998 20.8655C44.8998 21.1655 44.6998 21.4655 44.3998 21.4655H44.2998C43.9998 21.5655 43.7998 21.3655 43.6998 21.0655Z" fill="#E2001A"/>
<path d="M50.2 80.2656C33.5 80.2656 20 66.6656 20 50.0656C20 49.7656 20.2 49.4656 20.6 49.4656C21 49.4656 21.2 49.6656 21.2 50.0656C21.2 66.1656 34.3 79.1656 50.3 79.1656C66.3 79.1656 79.4 66.0656 79.4 50.0656C79.4 34.0656 66.3 20.9656 50.3 20.9656C50 20.9656 49.7 20.7656 49.7 20.3656C49.7 19.9656 49.9 19.7656 50.3 19.7656C67 19.7656 80.5 33.3656 80.5 49.9656C80.5 66.5656 66.9 80.2656 50.2 80.2656Z" fill="#666666"/>
<path d="M62.9002 72.1656C62.7002 72.1656 62.6002 72.0656 62.5002 71.9656L61.0002 69.5656C60.9002 69.3656 60.9002 69.0656 61.2002 68.9656C61.4002 68.8656 61.7002 68.8656 61.8002 69.1656L63.3002 71.5656C63.4002 71.7656 63.4002 72.0656 63.1002 72.1656C63.1002 72.0656 63.0002 72.1656 62.9002 72.1656Z" fill="#666666"/>
<path d="M71.9 62.0656L69.5 60.7656" stroke="#666666" stroke-width="0.9385" stroke-miterlimit="10" stroke-linecap="round" stroke-linejoin="round"/>
<path d="M50.2002 75.8655C49.9002 75.8655 49.7002 75.6655 49.7002 75.3655V69.6655C49.7002 69.3655 49.9002 69.1655 50.2002 69.1655C50.5002 69.1655 50.7002 69.3655 50.7002 69.6655V75.3655C50.7002 75.6655 50.5002 75.8655 50.2002 75.8655Z" fill="#666666"/>
<path d="M37.4998 72.1659C37.3998 72.1659 37.2998 72.1659 37.2998 72.0659C37.0998 71.9659 36.9998 71.6659 37.0998 71.4659L38.5998 69.0659C38.6998 68.8659 38.9998 68.7659 39.1998 68.8659C39.3998 68.9659 39.4998 69.2659 39.3998 69.4659L37.8998 71.8659C37.7998 72.0659 37.6998 72.1659 37.4998 72.1659Z" fill="#666666"/>
<path d="M28.4998 62.5655C28.2998 62.5655 28.1998 62.4655 28.0998 62.3655C27.9998 62.1655 28.0998 61.8655 28.2998 61.7655L30.7998 60.3655C30.9998 60.2655 31.2998 60.2655 31.3998 60.5655C31.4998 60.7655 31.3998 61.0655 31.1998 61.1655L28.6998 62.5655C28.6998 62.5655 28.5998 62.5655 28.4998 62.5655Z" fill="#666666"/>
<path d="M50.3996 50.7659C50.2996 50.7659 50.1996 50.7659 50.0996 50.6659C49.8996 50.4659 49.7996 50.2659 49.9996 49.9659L56.4997 40.9659C56.6996 40.7659 56.8996 40.6659 57.1996 40.8659C57.3996 41.0659 57.4996 41.2659 57.2996 41.5659L50.7996 50.5659C50.6996 50.7659 50.5996 50.7659 50.3996 50.7659Z" fill="#E2001A"/>
<path d="M68.6996 50.9658H51.5996C51.2996 50.9658 51.0996 50.7658 51.0996 50.4658C51.0996 50.1658 51.2996 49.9658 51.5996 49.9658H68.6996C68.9996 49.9658 69.1996 50.1658 69.1996 50.4658C69.1996 50.7658 68.9996 50.9658 68.6996 50.9658Z" fill="#E2001A"/>
<path d="M50.9002 51.6656C51.5629 51.6656 52.1002 51.1284 52.1002 50.4656C52.1002 49.8029 51.5629 49.2656 50.9002 49.2656C50.2375 49.2656 49.7002 49.8029 49.7002 50.4656C49.7002 51.1284 50.2375 51.6656 50.9002 51.6656Z" fill="white"/>
<path d="M50.9002 52.1656C50.0002 52.1656 49.2002 51.3656 49.2002 50.4656C49.2002 49.5656 50.0002 48.7656 50.9002 48.7656C51.8002 48.7656 52.6002 49.5656 52.6002 50.4656C52.6002 51.3656 51.9002 52.1656 50.9002 52.1656ZM50.9002 49.7656C50.5002 49.7656 50.2002 50.0656 50.2002 50.4656C50.2002 50.8656 50.5002 51.1656 50.9002 51.1656C51.3002 51.1656 51.6002 50.8656 51.6002 50.4656C51.6002 50.0656 51.4002 49.7656 50.9002 49.7656Z" fill="#666666"/>
<path d="M46.0005 22.3657C45.9005 22.3657 45.9005 22.3657 45.8005 22.2657C45.6005 22.1657 45.6004 21.9657 45.7004 21.7657L46.7004 20.3657L45.3005 19.6657C45.1005 19.5657 45.1004 19.3657 45.2004 19.1657C45.3004 18.9657 45.5004 18.9657 45.7004 19.0657L47.4005 19.9657C47.5005 19.9657 47.6004 20.0657 47.6004 20.1657C47.6004 20.2657 47.6004 20.3657 47.6004 20.4657L46.4005 22.2657C46.3005 22.2657 46.1005 22.3657 46.0005 22.3657Z" fill="#E2001A"/>
</svg>
