<svg width="100" height="100" viewBox="0 0 100 100" fill="none" xmlns="http://www.w3.org/2000/svg">
<mask id="mask0_4191_1529" style="mask-type:luminance" maskUnits="userSpaceOnUse" x="5" y="10" width="91" height="80">
<path d="M95.5 10H5V89.9H95.5V10Z" fill="white"/>
</mask>
<g mask="url(#mask0_4191_1529)">
<path d="M34.9998 71.5001C50.5742 71.5001 63.1998 58.8745 63.1998 43.3001C63.1998 27.7257 50.5742 15.1001 34.9998 15.1001C19.4254 15.1001 6.7998 27.7257 6.7998 43.3001C6.7998 58.8745 19.4254 71.5001 34.9998 71.5001Z" fill="white"/>
<path d="M34.9998 72.0002C27.6998 72.0002 20.2998 69.2002 14.6998 63.6002C3.4998 52.4002 3.4998 34.2002 14.6998 23.1002C20.0998 17.7002 27.2998 14.7002 34.9998 14.7002C42.6998 14.7002 49.8998 17.7002 55.2998 23.1002C66.4998 34.3002 66.4998 52.5002 55.2998 63.6002C49.6998 69.2002 42.3998 72.0002 34.9998 72.0002ZM15.4998 62.9002C26.2998 73.7002 43.7998 73.7002 54.5998 62.9002C65.3998 52.1002 65.3998 34.6002 54.5998 23.8002C49.3998 18.6002 42.3998 15.7002 34.9998 15.7002C27.5998 15.7002 20.6998 18.6002 15.3998 23.8002C4.69982 34.6002 4.69982 52.1002 15.4998 62.9002Z" fill="#666666"/>
<path d="M94.5996 102.9C96.1996 101.3 96.1996 98.5999 94.5996 96.9999L58.9996 61.3999L53.0996 67.2999L88.6996 102.9C90.2996 104.6 92.9996 104.6 94.5996 102.9Z" fill="white"/>
<path d="M91.5996 104.7C90.2996 104.7 89.1996 104.2 88.2996 103.3L52.6996 67.7001C52.5996 67.6001 52.5996 67.5001 52.5996 67.3001C52.5996 67.1001 52.6996 67.0001 52.6996 66.9001L58.5996 61.0001C58.7996 60.8001 59.0996 60.8001 59.2996 61.0001L94.8996 96.6001C95.7996 97.5001 96.2996 98.7001 96.2996 99.9001C96.2996 101.1 95.7996 102.3 94.8996 103.2C94.0996 104.2 92.8996 104.7 91.5996 104.7ZM53.6996 67.3001L88.9996 102.6C90.3996 104 92.7996 104 94.1996 102.6C94.8996 101.9 95.2996 101 95.2996 100C95.2996 99.0001 94.8996 98.1001 94.1996 97.4001L58.8996 62.1001L53.6996 67.3001Z" fill="#666666"/>
<path d="M55.3971 71.014L62.751 63.6602L58.2255 59.1347L50.8717 66.4886L55.3971 71.014Z" fill="white"/>
<path d="M55.2994 71.5003C55.1994 71.5003 54.9994 71.4003 54.8994 71.4003L50.2994 66.8003C50.0994 66.6003 50.0994 66.3003 50.2994 66.1003L57.6994 58.7003C57.8994 58.5003 58.1994 58.5003 58.3994 58.7003L62.9994 63.3003C63.1994 63.5003 63.1994 63.8003 62.9994 64.0003L55.5994 71.4003C55.5994 71.5003 55.4994 71.5003 55.2994 71.5003ZM51.4994 66.5003L55.2994 70.3003L61.8994 63.7003L58.0994 59.9003L51.4994 66.5003Z" fill="#666666"/>
<path d="M34.9998 71.5001C50.5742 71.5001 63.1998 58.8745 63.1998 43.3001C63.1998 27.7257 50.5742 15.1001 34.9998 15.1001C19.4254 15.1001 6.7998 27.7257 6.7998 43.3001C6.7998 58.8745 19.4254 71.5001 34.9998 71.5001Z" fill="white"/>
<path d="M34.9998 72.0002C27.6998 72.0002 20.2998 69.2002 14.6998 63.6002C3.4998 52.4002 3.4998 34.2002 14.6998 23.1002C20.0998 17.7002 27.2998 14.7002 34.9998 14.7002C42.6998 14.7002 49.8998 17.7002 55.2998 23.1002C66.4998 34.3002 66.4998 52.5002 55.2998 63.6002C49.6998 69.2002 42.3998 72.0002 34.9998 72.0002ZM15.4998 62.9002C26.2998 73.7002 43.7998 73.7002 54.5998 62.9002C65.3998 52.1002 65.3998 34.6002 54.5998 23.8002C49.3998 18.6002 42.3998 15.7002 34.9998 15.7002C27.5998 15.7002 20.6998 18.6002 15.3998 23.8002C4.69982 34.6002 4.69982 52.1002 15.4998 62.9002Z" fill="#666666"/>
<mask id="mask1_4191_1529" style="mask-type:luminance" maskUnits="userSpaceOnUse" x="6" y="15" width="58" height="57">
<path d="M34.9998 71.5001C50.5742 71.5001 63.1998 58.8745 63.1998 43.3001C63.1998 27.7257 50.5742 15.1001 34.9998 15.1001C19.4254 15.1001 6.7998 27.7257 6.7998 43.3001C6.7998 58.8745 19.4254 71.5001 34.9998 71.5001Z" fill="white"/>
</mask>
<g mask="url(#mask1_4191_1529)">
<path d="M-42.5005 67.3C-42.3005 70.5 -43.5005 76.5 -43.5005 76.5C-43.5005 76.5 -44.7005 87.7 -50.4005 92.6C-50.6005 92.8 -50.8005 93 -50.9005 93.2C-55.3005 101.8 -54.1005 110.7 -54.1005 110.7H-45.7005C-45.7005 107.1 -50.3005 106.8 -50.3005 106.8C-50.3005 106.8 -49.5005 100.6 -46.2005 97C-31.5005 90 -29.8005 80.8 -29.8005 80.8C-23.0005 80.5 -15.4005 80.7 -11.6005 80.9C-10.2005 81 -8.80049 81.1 -7.40049 81.5C-0.600491 83.3 8.09951 83.7 13.5995 83.7C13.5995 83.7 17.3995 83.9 19.6995 82.9C20.1995 100.2 24.4995 110.7 24.4995 110.7H32.8995C32.8995 107.1 28.2995 106.8 28.2995 106.8C25.9995 102.8 26.5995 96.9 26.5995 96.9C26.9995 91.5 30.3995 75.7 31.5995 70.2C31.8995 69 32.2995 67.8 32.6995 66.6C35.4995 59.1 36.8995 51.2 37.3995 47.8C37.6995 45.9 39.1995 44.5 40.9995 44.3C45.9995 45.3 54.2995 47.8 57.2995 38.9L47.0995 33.7L45.1995 29C44.7995 27.9 43.9995 27 42.9995 26.5C40.1995 25 35.0995 22.8 29.3995 24.7C25.9995 25.8 23.2995 28.6 21.9995 31.9L19.4995 38C17.8995 41.9 15.1995 45.3 11.4995 47.4C9.5995 48.5 7.09951 49.6 4.09951 50.4C0.699509 51.3 -2.9005 51.6 -6.5005 51.3C-12.9005 50.9 -26.7005 51.1 -35.9005 54.9C-38.1005 55.8 -41.8005 58.1 -43.4005 59.1C-43.8005 59.4 -44.2005 59.7 -44.7005 60C-48.4005 62.8 -53.6005 66.2 -56.7005 67.9C-57.8005 68.5 -59.0005 69 -60.2005 69.5C-61.9005 70.2 -62.7005 71.3 -63.0005 72.3C-63.3005 73.1 -62.7005 73.9 -61.9005 73.9H-58.7005C-56.1005 73.8 -53.7005 73.2 -51.9005 72.5C-50.2005 71.8 -49.5005 70.9 -47.1005 69.9C-46.4005 69.6 -45.8005 69.3 -45.1005 68.9L-42.5005 67.3Z" fill="white"/>
<path d="M-45.7005 111.2H-54.1004C-54.4004 111.2 -54.6004 111 -54.6004 110.8C-54.6004 110.4 -55.7004 101.6 -51.3004 93.0001C-51.2004 92.7001 -51.0005 92.5001 -50.7005 92.2001C-45.2005 87.6001 -44.0004 76.6001 -44.0004 76.5001C-44.0004 76.4001 -43.0004 71.4001 -43.0004 68.2001L-44.9004 69.3001C-45.5004 69.6001 -46.2004 70.0001 -46.9004 70.3001C-48.0004 70.8001 -48.8004 71.3001 -49.5004 71.7001C-50.2004 72.1001 -50.8005 72.6001 -51.7005 72.9001C-54.0005 73.8001 -56.4004 74.3001 -58.6004 74.3001H-61.9004C-62.5004 74.3001 -63.0004 74.0001 -63.3004 73.6001C-63.6004 73.1001 -63.7004 72.6001 -63.5004 72.1001C-63.1004 71.1001 -62.3004 69.8001 -60.4004 69.0001L-60.1004 68.9001C-59.0004 68.5001 -57.9004 68.0001 -56.9004 67.5001C-53.9004 65.8001 -48.6004 62.4001 -44.9004 59.6001C-44.5004 59.3001 -44.0004 59.0001 -43.6004 58.7001C-42.1004 57.7001 -38.2004 55.4001 -36.0004 54.5001C-26.8004 50.8001 -13.0004 50.5001 -6.40043 50.9001C-2.60043 51.1001 0.899559 50.8001 3.99956 50.0001C6.69955 49.3001 9.09955 48.3001 11.2995 47.0001C14.6995 45.0001 17.4996 41.8001 18.9996 37.9001L21.4996 31.8001C22.9996 28.2001 25.7995 25.4001 29.1995 24.3001C33.5995 22.8001 38.2995 23.5001 43.1995 26.2001C44.2995 26.8001 45.1995 27.8001 45.6995 29.0001L47.5996 33.6001L57.5996 38.7001C57.7996 38.8001 57.8995 39.1001 57.7995 39.3001C54.7995 47.9001 47.1995 46.3001 42.1995 45.3001C41.7995 45.2001 41.3996 45.1001 40.9996 45.1001C39.3996 45.3001 38.0995 46.5001 37.7995 48.1001C37.2995 51.2001 35.9996 59.3001 33.0996 67.0001C32.5996 68.3001 32.2996 69.4001 31.9996 70.5001C30.8996 75.4001 27.3996 91.7001 26.9996 97.1001C26.9996 97.2001 26.4996 102.7 28.4996 106.5C30.2996 106.7 33.2995 107.9 33.2995 110.9C33.2995 111.2 33.0995 111.4 32.7995 111.4H24.3996C24.1996 111.4 23.9995 111.3 23.8996 111.1C23.8996 111 19.5996 100.6 19.0996 83.8001C16.7996 84.6001 13.5996 84.4001 13.4996 84.4001C7.59956 84.4001 -0.900444 84.0001 -7.60044 82.2001C-8.90044 81.9001 -10.2005 81.7001 -11.7005 81.6001C-15.5005 81.4001 -22.8004 81.2001 -29.5004 81.5001C-30.0004 83.4001 -32.9004 91.3001 -46.0004 97.6001C-48.6004 100.5 -49.5004 105.1 -49.8004 106.6C-48.0004 106.9 -45.2005 108.1 -45.2005 111C-45.2005 111 -45.4005 111.2 -45.7005 111.2ZM-53.7005 110.2H-46.3004C-46.7004 107.6 -50.3004 107.3 -50.4004 107.3C-50.5004 107.3 -50.7005 107.2 -50.7005 107.1C-50.7005 107 -50.8004 106.9 -50.8004 106.7C-50.8004 106.4 -50.0004 100.3 -46.6004 96.6001C-46.6004 96.6001 -46.5004 96.5001 -46.4004 96.5001C-32.2004 89.7001 -30.3004 80.8001 -30.3004 80.7001C-30.3004 80.5001 -30.1004 80.3001 -29.8004 80.3001C-23.0004 80.0001 -15.4004 80.2001 -11.5004 80.4001C-9.90044 80.5001 -8.50045 80.7001 -7.20045 81.0001C-0.600452 82.8001 7.79954 83.2001 13.6995 83.2001C13.7995 83.2001 17.3996 83.4001 19.4996 82.4001C19.6996 82.3001 19.7996 82.3001 19.9996 82.4001C20.0996 82.5001 20.1995 82.6001 20.1995 82.8001C20.5995 98.2001 24.0995 108.3 24.7995 110.1H32.2995C31.8995 107.5 28.2995 107.2 28.1995 107.2C27.9995 107.2 27.8995 107.1 27.7995 107C25.4995 102.9 25.9996 97.0001 26.0996 96.8001C26.4996 91.5001 29.6996 76.3001 31.0996 70.1001C31.2996 69.0001 31.6995 67.8001 32.1995 66.4001C34.9995 58.8001 36.3995 50.8001 36.7995 47.7001C37.0995 45.6001 38.7996 44.0001 40.8996 43.8001C40.8996 43.8001 40.9996 43.8001 41.0996 43.8001C41.4996 43.9001 41.8996 44.0001 42.3996 44.1001C47.2996 45.1001 53.8995 46.5001 56.6995 39.2001L46.8996 34.2001C46.7996 34.1001 46.6995 34.1001 46.6995 33.9001L44.7995 29.2001C44.3995 28.2001 43.6995 27.4001 42.7995 26.9001C38.0995 24.3001 33.5996 23.7001 29.5996 25.1001C26.3996 26.2001 23.7996 28.7001 22.4996 32.0001L19.9996 38.1001C18.2996 42.2001 15.3995 45.6001 11.7995 47.7001C9.59955 49.0001 6.99954 50.0001 4.29955 50.8001C1.09955 51.7001 -2.60044 52.0001 -6.50044 51.8001C-13.1004 51.4001 -26.7005 51.7001 -35.7005 55.4001C-37.8005 56.3001 -41.6004 58.6001 -43.1004 59.5001C-43.5004 59.8001 -43.9004 60.0001 -44.3004 60.3001C-48.0004 63.1001 -53.3004 66.6001 -56.4004 68.3001C-57.5004 68.9001 -58.6005 69.4001 -59.7005 69.8001L-60.0004 69.9001C-61.3004 70.4001 -62.1004 71.2001 -62.5004 72.4001C-62.6004 72.6001 -62.5004 72.8001 -62.4004 73.0001C-62.3004 73.2001 -62.1004 73.3001 -61.8004 73.3001H-58.6004C-56.5004 73.2001 -54.2004 72.8001 -52.0004 71.9001C-51.2004 71.6001 -50.6004 71.2001 -50.0004 70.8001C-49.3004 70.3001 -48.5004 69.8001 -47.3004 69.3001C-46.6004 69.0001 -45.9004 68.6001 -45.4004 68.3001L-42.8004 66.8001C-42.7004 66.7001 -42.5004 66.7001 -42.3004 66.8001C-42.1004 66.9001 -42.1004 67.0001 -42.0004 67.2001C-41.8004 70.5001 -42.9004 76.3001 -43.0004 76.6001C-43.0004 77.0001 -44.2004 88.1001 -50.1004 92.9001C-50.3004 93.0001 -50.4004 93.2001 -50.5004 93.3001C-54.2004 100.7 -53.8005 108.3 -53.7005 110.2Z" fill="#666666"/>
<path d="M54.4992 37.6001C54.4992 37.6001 53.4992 40.3001 55.6992 41.0001L56.7992 38.7001L54.4992 37.6001Z" fill="#666666"/>
<path d="M55.6997 41.5001H55.5997C54.8997 41.3001 54.3997 40.9001 54.0997 40.3001C53.4997 39.1001 54.0997 37.5001 54.0997 37.4001C54.0997 37.3001 54.2997 37.2001 54.3997 37.1001C54.4997 37.0001 54.6997 37.1001 54.7997 37.1001L57.0997 38.3001C57.2997 38.4001 57.3997 38.7001 57.2997 39.0001L56.1997 41.3001C56.0997 41.4001 55.8997 41.5001 55.6997 41.5001ZM54.8997 38.4001C54.7997 38.8001 54.7997 39.4001 54.9997 39.9001C55.0997 40.1001 55.2997 40.3001 55.4997 40.4001L56.1997 39.0001L54.8997 38.4001Z" fill="#666666"/>
<path d="M34.5994 23.8999C35.0994 23.8999 35.4994 24.4999 35.0994 24.8999C34.1994 25.8999 33.3994 27.2999 33.0994 28.0999C32.6994 29.3999 32.6994 30.6999 32.8994 32.0999C34.4994 40.9999 30.9994 41.6999 30.9994 41.6999C26.9994 42.3999 23.3994 37.8999 21.7994 35.3999C20.9994 34.1999 20.8994 32.6999 21.3994 31.3999C22.4994 28.6999 25.5994 24.4999 34.5994 23.8999Z" fill="white"/>
<path d="M30.1996 42.2999C26.2996 42.2999 23.0996 38.2999 21.3996 35.6999C20.4996 34.3999 20.2996 32.6999 20.8996 31.2999C21.8996 28.5999 25.0996 24.0999 34.4996 23.3999C34.9996 23.3999 35.3996 23.5999 35.5996 23.9999C35.7996 24.3999 35.6996 24.8999 35.3996 25.1999C34.4996 26.1999 33.7996 27.4999 33.4996 28.1999C33.0996 29.2999 33.0996 30.4999 33.2996 31.8999C34.8996 41.1999 31.1996 42.0999 30.9996 42.0999C30.8996 42.2999 30.4996 42.2999 30.1996 42.2999ZM34.6996 24.3999C25.7996 24.9999 22.8996 29.1999 21.8996 31.5999C21.4996 32.6999 21.5996 34.0999 22.2996 35.0999C23.9996 37.5999 27.2996 41.7999 30.9996 41.1999C30.9996 41.1999 33.8996 40.3999 32.4996 32.0999C32.1996 30.5999 32.2996 29.0999 32.6996 27.8999C32.9996 26.9999 33.8996 25.5999 34.7996 24.5999C34.7996 24.5999 34.7996 24.4999 34.6996 24.3999Z" fill="#666666"/>
</g>
<path d="M34.9998 72.0002C27.6998 72.0002 20.2998 69.2002 14.6998 63.6002C3.4998 52.4002 3.4998 34.2002 14.6998 23.1002C20.0998 17.7002 27.2998 14.7002 34.9998 14.7002C42.6998 14.7002 49.8998 17.7002 55.2998 23.1002C66.4998 34.3002 66.4998 52.5002 55.2998 63.6002C49.6998 69.2002 42.3998 72.0002 34.9998 72.0002ZM15.4998 62.9002C26.2998 73.7002 43.7998 73.7002 54.5998 62.9002C65.3998 52.1002 65.3998 34.6002 54.5998 23.8002C49.3998 18.6002 42.3998 15.7002 34.9998 15.7002C27.5998 15.7002 20.6998 18.6002 15.3998 23.8002C4.69982 34.6002 4.69982 52.1002 15.4998 62.9002Z" fill="#666666"/>
</g>
</svg>
