<svg width="100" height="100" viewBox="0 0 100 100" fill="none" xmlns="http://www.w3.org/2000/svg">
<path d="M74.2639 45.0001C73.5639 43.0001 71.9639 41.4001 69.8639 40.8001C69.8639 40.7001 69.8639 40.6001 69.8639 40.5001C69.8639 38.3001 68.0639 36.6001 65.9639 36.6001C65.5639 36.6001 65.1639 36.7001 64.8639 36.8001C63.4639 34.3001 60.7639 32.6001 57.6639 32.6001C55.0639 32.6001 52.7639 33.8001 51.1639 35.7001C50.4639 35.0001 49.4639 34.5001 48.3639 34.5001C46.7639 34.5001 45.4639 35.4001 44.7639 36.8001C43.8639 35.9001 42.5639 35.4001 41.1639 35.4001C38.9639 35.4001 36.9639 36.8001 36.2639 38.8001C35.5639 38.6001 34.9639 38.5001 34.1639 38.5001C30.9639 38.5001 28.3639 40.7001 27.7639 43.7001H27.6639C24.7639 43.7001 22.4639 46.0001 22.4639 48.9001C22.4639 51.8001 24.7639 54.1001 27.6639 54.1001C29.6639 54.1001 31.4639 52.9001 32.2639 51.3001C32.8639 51.5001 33.4639 51.6001 34.1639 51.6001C34.8639 51.6001 35.5639 51.5001 36.2639 51.2001C37.4639 53.0001 39.4639 54.1001 41.6639 54.1001C43.8639 54.1001 45.7639 53.0001 46.9639 51.4001C47.3639 51.5001 47.7639 51.5001 48.2639 51.5001C50.5639 51.5001 52.7639 53.9001 53.9639 52.1001C55.0639 52.7001 56.3639 53.0001 57.7639 53.0001C59.2639 53.0001 60.5639 52.6001 61.8639 52.0001C62.4639 55.0001 64.8639 53.7001 68.0639 53.7001C69.4639 53.7001 70.7639 53.3001 71.8639 52.5001C72.3639 52.7001 72.9639 52.9001 73.5639 52.9001C75.7639 52.9001 77.4639 51.1001 77.4639 49.0001C77.4639 47.0001 76.1639 45.4001 74.2639 45.0001Z" fill="white"/>
<path d="M41.7637 54.8C39.5637 54.8 37.4637 53.8 36.0637 52C34.9637 52.3 33.7637 52.3 32.6637 52.1C31.5637 53.8 29.7637 54.8 27.6637 54.8C24.4637 54.8 21.7637 52.2 21.7637 48.9C21.7637 45.8 24.1637 43.2 27.2637 43C28.1637 39.9 30.9637 37.8 34.1637 37.8C34.7637 37.8 35.2637 37.9 35.8637 38C36.8637 36 38.8637 34.7 41.1637 34.7C42.3637 34.7 43.5637 35.1 44.5637 35.8C45.4637 34.6 46.8637 33.9 48.3637 33.9C49.3637 33.9 50.3637 34.2 51.1637 34.8C52.8637 33 55.1637 32 57.6637 32C60.6637 32 63.5637 33.5 65.1637 36.1C65.4637 36.1 65.6637 36 65.9637 36C68.4637 36 70.4637 38 70.5637 40.4C72.4637 41.1 73.9637 42.6 74.7637 44.5C76.7637 45.1 78.1637 46.9 78.1637 49C78.1637 51.6 76.0637 53.6 73.5637 53.6C73.0637 53.6 72.4637 53.5 71.9637 53.3C70.7637 54 69.4637 54.4 68.0637 54.4C67.2637 54.4 66.5637 54.5 65.8637 54.6C64.0637 54.8 62.1637 55 61.3637 53.1C59.0637 54.1 56.4637 54.1 54.1637 53.1C53.1637 54.1 51.7637 53.5 50.6637 53C49.8637 52.7 49.0637 52.3 48.2637 52.3C47.9637 52.3 47.5637 52.3 47.2637 52.2C45.9637 53.8 43.9637 54.8 41.7637 54.8ZM36.3637 50.5C36.5637 50.5 36.7637 50.6 36.9637 50.8C38.0637 52.4 39.8637 53.4 41.8637 53.4C43.7637 53.4 45.4637 52.5 46.5637 51C46.7637 50.8 46.9637 50.7 47.2637 50.7C47.6637 50.8 48.0637 50.8 48.3637 50.8C49.4637 50.8 50.3637 51.2 51.2637 51.6C52.7637 52.2 53.1637 52.3 53.4637 51.7C53.6637 51.4 54.0637 51.3 54.3637 51.5C56.5637 52.6 59.3637 52.6 61.5637 51.4C61.7637 51.3 61.9637 51.3 62.1637 51.4C62.3637 51.5 62.4637 51.7 62.5637 51.9C62.8637 53.5 63.5637 53.4 65.7637 53.2C66.4637 53.1 67.2637 53 68.1637 53C69.3637 53 70.5637 52.6 71.5637 51.9C71.7637 51.8 72.0637 51.7 72.2637 51.8C72.6637 52 73.1637 52.1 73.6637 52.1C75.4637 52.1 76.9637 50.6 76.9637 48.8C76.9637 47.2 75.8637 45.9 74.2637 45.6C74.0637 45.6 73.8637 45.4 73.7637 45.2C73.1637 43.4 71.6637 42 69.8637 41.5C69.5637 41.4 69.3637 41.1 69.3637 40.8C69.3637 40.7 69.3637 40.6 69.3637 40.6C69.3637 38.8 67.8637 37.3 66.0637 37.3C65.7637 37.3 65.4637 37.3 65.1637 37.4C64.8637 37.5 64.5637 37.4 64.3637 37.1C62.9637 34.7 60.4637 33.3 57.7637 33.3C55.4637 33.3 53.2637 34.3 51.8637 36.1C51.7637 36.3 51.5637 36.3 51.3637 36.3C51.1637 36.3 50.9637 36.2 50.8637 36.1C50.2637 35.5 49.3637 35.1 48.5637 35.1C47.2637 35.1 46.1637 35.8 45.6637 37C45.5637 37.2 45.3637 37.3 45.1637 37.4C44.9637 37.4 44.7637 37.4 44.5637 37.2C43.7637 36.4 42.6637 36 41.4637 36C39.5637 36 37.8637 37.2 37.2637 39C37.1637 39.3 36.7637 39.5 36.3637 39.4C35.7637 39.2 35.1637 39.1 34.4637 39.1C31.6637 39.1 29.2637 41.1 28.7637 43.8C28.6637 44.1 28.3637 44.3 28.0637 44.3H27.9637C25.4637 44.3 23.4637 46.3 23.4637 48.8C23.4637 51.3 25.4637 53.3 27.9637 53.3C29.6637 53.3 31.1637 52.4 31.9637 50.8C32.1637 50.5 32.4637 50.4 32.7637 50.5C33.9637 50.9 35.1637 50.8 36.3637 50.4C36.2637 50.5 36.2637 50.5 36.3637 50.5Z" fill="#666666"/>
<path d="M47.9635 48.1002C47.5635 48.1002 47.2635 47.8002 47.2635 47.4002C47.2635 46.2002 46.3635 45.3002 45.1635 45.3002C44.8635 45.3002 44.6635 45.4002 44.3635 45.5002C44.0635 45.6002 43.6635 45.5002 43.4635 45.2002C43.0635 44.5002 42.3635 44.1002 41.5635 44.1002C40.3635 44.1002 39.4635 45.0002 39.4635 46.2002C39.4635 46.6002 39.1635 46.9002 38.7635 46.9002C38.3635 46.9002 38.0635 46.6002 38.0635 46.2002C38.0635 44.3002 39.6635 42.7002 41.5635 42.7002C42.6635 42.7002 43.6635 43.2002 44.3635 44.1002C44.5635 44.0002 44.8635 44.0002 45.1635 44.0002C47.0635 44.0002 48.6635 45.6002 48.6635 47.5002C48.6635 47.8002 48.3635 48.1002 47.9635 48.1002Z" fill="#666666"/>
<path d="M86.5634 68.0998H13.9634C12.3634 68.0998 11.2634 66.5998 11.7634 65.0998L15.9634 52.0998C16.6634 49.8998 18.7634 48.2998 21.1634 48.2998H79.3634C81.7634 48.2998 83.7634 49.7998 84.5634 52.0998L88.7634 65.0998C89.2634 66.5998 88.1634 68.0998 86.5634 68.0998Z" fill="white"/>
<path d="M86.5638 68.8002H13.9638C12.9638 68.8002 12.1638 68.4002 11.5638 67.6002C10.9638 66.8002 10.8638 65.9002 11.1638 64.9002L15.3638 51.9002C16.1638 49.4002 18.5638 47.7002 21.1638 47.7002H79.3638C82.0638 47.7002 84.3638 49.4002 85.1638 51.9002L89.3638 64.9002C89.6638 65.8002 89.4638 66.8002 88.9638 67.6002C88.4638 68.4002 87.5638 68.8002 86.5638 68.8002ZM21.1638 49.0002C19.0638 49.0002 17.2638 50.3002 16.6638 52.3002L12.4638 65.3002C12.2638 65.8002 12.3638 66.3002 12.6638 66.7002C12.9638 67.1002 13.4638 67.4002 13.9638 67.4002H86.5638C87.0638 67.4002 87.5638 67.2002 87.8638 66.7002C88.1638 66.2002 88.2638 65.8002 88.0638 65.3002L83.8638 52.3002C83.2638 50.3002 81.4638 49.0002 79.3638 49.0002H21.1638Z" fill="#666666"/>
</svg>
