<svg width="100" height="100" viewBox="0 0 100 100" fill="none" xmlns="http://www.w3.org/2000/svg">
<path d="M76.9998 44.4248L50.4998 20.9248C49.8998 20.4248 49.0998 20.4248 48.4998 20.9248L22.0998 44.4248C21.4998 44.9248 21.3998 45.9248 21.9998 46.5248C22.2998 46.8248 22.6998 47.0248 23.0998 47.0248C23.4998 47.0248 23.7998 46.9248 24.0998 46.6248L49.4998 24.0248L74.9998 46.6248C75.5998 47.1248 76.5998 47.1248 77.0998 46.5248C77.6998 45.9248 77.6998 45.0248 76.9998 44.4248Z" fill="#666666"/>
<path d="M23 47.525C22.4 47.525 21.9 47.325 21.5 46.825C21.1 46.425 21 45.925 21 45.425C21 44.925 21.3 44.425 21.7 44.025L48.2 20.525C49 19.825 50.1 19.825 50.9 20.525L77.4 44.025C77.8 44.425 78 44.825 78.1 45.425C78.2 46.025 78 46.425 77.6 46.825C77.2 47.225 76.8 47.425 76.2 47.525C75.7 47.525 75.2 47.425 74.8 47.025L49.5 24.725L24.4 47.025C24 47.325 23.5 47.525 23 47.525ZM49.5 21.025C49.3 21.025 49 21.125 48.8 21.325L22.4 44.825C22.2 45.025 22.1 45.225 22.1 45.525C22.1 45.825 22.2 46.025 22.3 46.225C22.7 46.625 23.3 46.625 23.7 46.325L49.2 23.725C49.4 23.525 49.7 23.525 49.9 23.725L75.4 46.325C75.6 46.525 75.9 46.625 76.1 46.525C76.4 46.525 76.6 46.425 76.8 46.225C77 46.025 77.1 45.725 77.1 45.525C77.1 45.225 77 45.025 76.8 44.825L50.2 21.325C50 21.125 49.8 21.025 49.5 21.025Z" fill="white"/>
<path d="M70.1 45.9248C69.3 45.9248 68.6 46.6248 68.6 47.4248V73.6248C68.6 75.2248 67.3 76.4248 65.8 76.4248H58V64.4248C58 60.8248 55.1 57.9248 51.5 57.9248H47.6C44 57.9248 41.1 60.8248 41.1 64.4248V76.4248H33.3C31.7 76.4248 30.5 75.1248 30.5 73.6248V47.4248C30.5 46.6248 29.8 45.9248 29 45.9248C28.2 45.9248 27.5 46.6248 27.5 47.4248V73.6248C27.5 76.8248 30.1 79.4248 33.3 79.4248H65.7C68.9 79.4248 71.5 76.8248 71.5 73.6248V47.4248C71.6 46.6248 70.9 45.9248 70.1 45.9248ZM44.1 64.4248C44.1 62.5248 45.7 60.9248 47.6 60.9248H51.5C53.4 60.9248 55 62.5248 55 64.4248V76.4248H44.1V64.4248Z" fill="#666666"/>
<path d="M65.8 80.0248H33.3C29.8 80.0248 27 77.2248 27 73.7248V47.4248C27 46.3248 27.9 45.4248 29 45.4248C30.1 45.4248 31 46.3248 31 47.4248V73.6248C31 74.9248 32 75.9248 33.3 75.9248H40.6V64.4248C40.6 60.5248 43.7 57.4248 47.6 57.4248H51.5C55.4 57.4248 58.5 60.5248 58.5 64.4248V76.0248H65.8C67.1 76.0248 68.1 75.0248 68.1 73.7248V47.4248C68.1 46.3248 69 45.4248 70.1 45.4248C71.2 45.4248 72.1 46.3248 72.1 47.4248V73.6248C72.1 77.1248 69.2 80.0248 65.8 80.0248ZM29 46.4248C28.4 46.4248 28 46.8248 28 47.4248V73.6248C28 76.5248 30.4 78.9248 33.3 78.9248H65.7C68.6 78.9248 71 76.5248 71 73.6248V47.4248C71 46.8248 70.6 46.4248 70 46.4248C69.4 46.4248 69 46.8248 69 47.4248V73.6248C69 75.4248 67.5 76.9248 65.7 76.9248H58C57.7 76.9248 57.5 76.7248 57.5 76.4248V64.4248C57.5 61.1248 54.8 58.4248 51.5 58.4248H47.6C44.3 58.4248 41.6 61.1248 41.6 64.4248V76.4248C41.6 76.7248 41.4 76.9248 41.1 76.9248H33.3C31.5 76.9248 30 75.4248 30 73.6248V47.4248C30 46.9248 29.6 46.4248 29 46.4248ZM55 77.0248H44.1C43.8 77.0248 43.6 76.8248 43.6 76.5248V64.5248C43.6 62.3248 45.4 60.5248 47.6 60.5248H51.5C53.7 60.5248 55.5 62.3248 55.5 64.5248V76.5248C55.5 76.8248 55.3 77.0248 55 77.0248ZM44.6 76.0248H54.5V64.4248C54.5 62.7248 53.2 61.4248 51.5 61.4248H47.6C45.9 61.4248 44.6 62.7248 44.6 64.4248V76.0248Z" fill="white"/>
</svg>
