<svg width="100" height="100" viewBox="0 0 100 100" fill="none" xmlns="http://www.w3.org/2000/svg">
<path d="M47.8 79.0395C33.6 79.0395 22 67.4394 22 53.2394C22 39.0394 33.6 27.4395 47.8 27.4395C62 27.4395 73.6 39.0394 73.6 53.2394C73.6 67.4394 62 79.0395 47.8 79.0395ZM47.8 28.9395C34.4 28.9395 23.5 39.8394 23.5 53.2394C23.5 66.6395 34.4 77.5395 47.8 77.5395C61.2 77.5395 72.1 66.6395 72.1 53.2394C72.1 39.8394 61.2 28.9395 47.8 28.9395Z" fill="#666666"/>
<path d="M66.4997 70.5392C66.2997 70.5392 66.0997 70.4392 65.9997 70.3392L28.5997 37.1392C28.2997 36.8392 28.2997 36.4392 28.4997 36.0392C28.7997 35.7392 29.1997 35.7392 29.5997 35.9392L67.0997 69.1392C67.3997 69.4392 67.3997 69.8392 67.1997 70.2392C66.9997 70.4392 66.7997 70.5392 66.4997 70.5392Z" fill="#666666"/>
<path d="M77.7002 37.3392C77.3002 37.3392 77.0002 37.0392 77.0002 36.6392L75.7002 22.5392L64.4002 34.5392C64.1002 34.8392 63.6002 34.8392 63.3002 34.5392C63.0002 34.2392 63.0002 33.7392 63.3002 33.4392L75.8002 20.2392C76.0002 20.0392 76.3002 19.9392 76.6002 20.0392C76.9002 20.1392 77.1002 20.3392 77.1002 20.6392L78.5002 36.3392C78.5002 36.9392 78.2002 37.2392 77.7002 37.3392Z" fill="#666666"/>
<path d="M61.2 22.9391C60.8 22.9391 60.5 22.6391 60.5 22.2391C60.5 21.8391 60.8 21.4391 61.2 21.4391L76.4 20.0391C76.8 20.0391 77.2 20.3391 77.2 20.7391C77.2 21.1391 76.9 21.5391 76.5 21.5391L61.2 22.9391Z" fill="#666666"/>
</svg>
