<svg width="100" height="100" viewBox="0 0 100 100" fill="none" xmlns="http://www.w3.org/2000/svg">
<path d="M83.5006 21.3999C78.0006 21.3999 73.6006 25.7999 73.6006 31.2999C73.6006 31.5999 73.8006 31.7999 74.1006 31.7999C74.4006 31.7999 74.6006 31.5999 74.6006 31.2999C74.6006 26.3999 78.6006 22.3999 83.5006 22.3999C83.8006 22.3999 84.0006 22.1999 84.0006 21.8999C84.0006 21.5999 83.8006 21.3999 83.5006 21.3999Z" fill="#666666"/>
<path d="M74.1004 31.9001C73.7004 31.9001 73.4004 31.6001 73.4004 31.2001C73.4004 25.6001 77.9004 21.1001 83.5004 21.1001C83.9004 21.1001 84.2004 21.4001 84.2004 21.8001C84.2004 22.2001 83.9004 22.5001 83.5004 22.5001C78.7004 22.5001 74.8004 26.4001 74.8004 31.2001C74.8004 31.6001 74.5004 31.9001 74.1004 31.9001ZM83.5004 21.5001C78.1004 21.5001 73.7004 25.9001 73.7004 31.3001C73.7004 31.5001 73.9004 31.7001 74.1004 31.7001C74.3004 31.7001 74.5004 31.5001 74.5004 31.3001C74.5004 26.3001 78.5004 22.3001 83.5004 22.3001C83.7004 22.3001 83.9004 22.1001 83.9004 21.9001C83.9004 21.7001 83.7004 21.5001 83.5004 21.5001Z" fill="white"/>
<path d="M98.1002 29.2C97.8002 29.2 97.6002 29.4 97.6002 29.7V30.7H95.5002C95.4002 27.9 94.3002 25.2 92.4002 23.1L93.9002 21.6L94.6002 22.3C94.8002 22.5 95.1002 22.5 95.3002 22.3C95.5002 22.1 95.5002 21.8 95.3002 21.6L93.1002 19.4C92.9002 19.2 92.6002 19.2 92.4002 19.4C92.2002 19.6 92.2002 19.9 92.4002 20.1L93.1002 20.8L91.6002 22.3C89.5002 20.4 86.8002 19.3 84.0002 19.1V17H85.0002C85.3002 17 85.5002 16.8 85.5002 16.5C85.5002 16.2 85.3002 16 85.0002 16H81.9002C81.6002 16 81.4002 16.2 81.4002 16.5C81.4002 16.8 81.6002 17 81.9002 17H82.9002V19.1C80.1002 19.2 77.4002 20.3 75.3002 22.2L73.8002 20.7L74.5002 20C74.7002 19.8 74.7002 19.5 74.5002 19.3C74.3002 19.1 74.0002 19.1 73.8002 19.3L71.6002 21.5C71.4002 21.7 71.4002 22 71.6002 22.2C71.8002 22.4 72.1002 22.4 72.3002 22.2L73.0002 21.5L74.5002 23C72.6002 25.1 71.5002 27.8 71.3002 30.6H69.2002V29.6C69.2002 29.3 69.0002 29.1 68.7002 29.1C68.4002 29.1 68.2002 29.3 68.2002 29.6V32.8C68.2002 33.1 68.4002 33.3 68.7002 33.3C69.0002 33.3 69.2002 33.1 69.2002 32.8V31.8H71.3002C71.4002 34.6 72.5002 37.3 74.4002 39.4L72.9002 40.9L72.2002 40.2C72.0002 40 71.7002 40 71.5002 40.2C71.3002 40.4 71.3002 40.7 71.5002 40.9L73.7002 43.1C73.8002 43.2 73.9002 43.3 74.1002 43.3C74.2002 43.3 74.4002 43.2 74.5002 43.1C74.7002 42.9 74.7002 42.6 74.5002 42.4L73.8002 41.6L75.3002 40.1C77.4002 42 80.1002 43.1 82.9002 43.2V45.3H81.9002C81.6002 45.3 81.4002 45.5 81.4002 45.8C81.4002 46.1 81.6002 46.3 81.9002 46.3H85.0002C85.3002 46.3 85.5002 46.1 85.5002 45.8C85.5002 45.5 85.3002 45.3 85.0002 45.3H84.0002V43.2C86.8002 43.1 89.5002 42 91.6002 40.1L93.1002 41.6L92.4002 42.3C92.2002 42.5 92.2002 42.8 92.4002 43C92.5002 43.1 92.6002 43.2 92.8002 43.2C92.9002 43.2 93.1002 43.1 93.2002 43L95.4002 40.8C95.6002 40.6 95.6002 40.3 95.4002 40.1C95.2002 39.9 94.9002 39.9 94.7002 40.1L93.9002 40.8L92.4002 39.3C94.3002 37.2 95.4002 34.5 95.5002 31.7H97.6002V32.7C97.6002 33 97.8002 33.2 98.1002 33.2C98.4002 33.2 98.6002 33 98.6002 32.7V29.6C98.7002 29.4 98.4002 29.2 98.1002 29.2ZM83.5002 42.3C77.4002 42.3 72.5002 37.4 72.5002 31.3C72.5002 25.2 77.4002 20.3 83.5002 20.3C89.6002 20.3 94.5002 25.2 94.5002 31.3C94.5002 37.4 89.6002 42.3 83.5002 42.3Z" fill="#666666"/>
<path d="M59.0001 80.6001C58.0001 80.6001 57.1001 80.4001 56.1001 79.9001C53.1001 78.3001 51.9001 74.6001 53.5001 71.5001L61.5001 56.0001C63.1001 53.0001 66.8001 51.8001 69.9001 53.3001C72.9001 54.9001 74.1001 58.6001 72.5001 61.7001L64.5001 77.2001C63.4001 79.4001 61.2001 80.6001 59.0001 80.6001ZM56.5001 79.2001C59.2001 80.6001 62.4001 79.5001 63.8001 76.9001L71.8001 61.4001C73.2001 58.7001 72.1001 55.5001 69.5001 54.1001C66.8001 52.7001 63.6001 53.8001 62.2001 56.4001L54.2001 71.9001C52.8001 74.6001 53.8001 77.9001 56.5001 79.2001Z" fill="#666666"/>
<path d="M73.401 66.1C72.401 66.1 71.5011 65.1 70.6011 64C69.8011 63 67.801 64.2 67.801 64.3C67.601 64.4 67.401 64.4 67.301 64.2C67.201 64 67.201 63.8 67.401 63.7C67.501 63.6 69.9011 62 71.2011 63.6C71.7011 64.2 72.701 65.4 73.401 65.4C73.601 65.4 73.9011 65.2 74.1011 64.9C74.2011 64.7 74.5011 64.7 74.6011 64.8C74.8011 64.9 74.8011 65.2 74.7011 65.3C74.3011 65.8 73.901 66.1 73.401 66.1Z" fill="#666666"/>
<path d="M75.901 61.3999C75.301 61.3999 74.801 60.9999 74.201 60.4999C73.801 60.1999 73.001 60.8999 73.001 60.8999C72.801 61.0999 72.601 61.0999 72.401 60.8999C72.201 60.6999 72.201 60.4999 72.401 60.2999C72.901 59.7999 73.901 59.1999 74.701 59.7999C75.001 59.9999 75.601 60.4999 76.001 60.4999C76.001 60.4999 76.101 60.4999 76.201 60.2999C76.301 60.0999 76.501 59.9999 76.701 60.0999C76.901 60.1999 77.001 60.3999 76.901 60.5999C76.701 60.9999 76.401 61.1999 76.201 61.2999C76.001 61.3999 75.901 61.3999 75.901 61.3999Z" fill="#666666"/>
<path d="M52.5006 75.5C51.9006 75.5 51.4006 75.1 50.8006 74.6C50.4006 74.3 49.6006 75 49.6006 75C49.4006 75.2 49.2006 75.2 49.0006 75C48.8006 74.8 48.8006 74.6 49.0006 74.4C49.5006 73.9 50.5006 73.3 51.3006 73.9C51.6006 74.1 52.3006 74.7 52.6006 74.6C52.6006 74.6 52.7006 74.6 52.8006 74.4C52.9006 74.2 53.1006 74.1 53.3006 74.2C53.5006 74.3 53.6006 74.5 53.5006 74.7C53.3006 75.1 53.0006 75.3 52.8006 75.4C52.6006 75.5 52.6006 75.5 52.5006 75.5Z" fill="#666666"/>
<path d="M56.801 65.4002C56.601 65.4002 56.401 65.3002 56.201 65.2002C55.701 64.8002 55.601 64.0002 55.601 63.2002C55.601 62.7002 54.501 62.6002 54.401 62.5002C54.201 62.5002 54.001 62.3002 54.001 62.1002C54.001 61.9002 54.201 61.7002 54.401 61.7002C55.101 61.7002 56.201 62.1002 56.301 63.1002C56.301 63.5002 56.301 64.3002 56.601 64.5002C56.601 64.5002 56.701 64.6002 56.901 64.5002C57.101 64.4002 57.301 64.6002 57.401 64.8002C57.501 65.0002 57.301 65.2002 57.101 65.3002C57.001 65.4002 56.901 65.4002 56.801 65.4002Z" fill="#666666"/>
<path d="M70.7004 71.9998C70.5004 71.9998 70.3004 71.8998 70.1004 71.7998C69.6004 71.3998 69.5004 70.5998 69.5004 69.7998C69.5004 69.2998 68.4004 69.1998 68.3004 69.0998C68.1004 69.0998 67.9004 68.8998 67.9004 68.6998C67.9004 68.4998 68.1004 68.2998 68.3004 68.2998C69.0004 68.2998 70.1004 68.6998 70.2004 69.6998C70.2004 70.0998 70.2004 70.8998 70.5004 71.0998C70.5004 71.0998 70.6004 71.1998 70.8004 71.0998C71.0004 70.9998 71.2004 71.1998 71.3004 71.3998C71.4004 71.5998 71.2004 71.7998 71.0004 71.8998C70.9004 71.8998 70.8004 71.9998 70.7004 71.9998Z" fill="#666666"/>
<path d="M55.9002 72.1002C55.6002 72.1002 55.3002 72.0002 55.0002 71.8002C54.3002 71.2002 54.2002 70.0002 54.1002 68.8002C54.1002 67.7002 52.1002 67.5002 52.1002 67.5002C51.9002 67.5002 51.7002 67.3002 51.7002 67.1002C51.7002 66.9002 51.9002 66.7002 52.1002 66.7002C52.2002 66.7002 54.8002 66.9002 54.9002 68.7002C54.9002 69.4002 55.0002 70.7002 55.5002 71.1002C55.6002 71.1002 55.8002 71.3002 56.2002 71.2002C56.4002 71.1002 56.6002 71.3002 56.7002 71.5002C56.8002 71.7002 56.6002 71.9002 56.4002 72.0002C56.2002 72.1002 56.1002 72.1002 55.9002 72.1002Z" fill="#666666"/>
<path d="M62.8003 55C62.3003 55 61.9004 54.8 61.6004 54.4C61.1004 53.7 61.4004 52.7 61.7004 51.6C62.0004 50.7 60.4003 50.1 60.4003 50C60.2003 49.9 60.1004 49.7 60.2004 49.5C60.3004 49.3 60.5004 49.2 60.7004 49.3C61.5004 49.6 62.9004 50.6 62.5004 51.8C62.3004 52.3 62.0003 53.4 62.3003 53.9C62.3003 54 62.4003 54.1 62.8003 54.1C63.0003 54.1 63.2004 54.3 63.2004 54.5C63.2004 54.8 63.0003 55 62.8003 55Z" fill="#666666"/>
<path d="M69.8004 55.6999C69.6004 55.6999 69.4004 55.4999 69.4004 55.2999C69.5004 54.3999 69.9004 52.8999 71.2004 52.7999C71.8004 52.7999 73.0004 52.7999 73.3004 52.2999C73.3004 52.2999 73.4004 52.0999 73.3004 51.6999C73.2004 51.4999 73.4004 51.2999 73.6004 51.1999C73.8004 51.0999 74.0004 51.2999 74.1004 51.4999C74.2004 51.9999 74.2004 52.3999 73.9004 52.6999C73.4004 53.3999 72.3004 53.3999 71.2004 53.4999C70.3004 53.4999 70.2004 55.1999 70.2004 55.1999C70.2004 55.5999 70.0004 55.6999 69.8004 55.6999Z" fill="#666666"/>
<path d="M68.4002 81C68.3002 81 68.3002 81 68.4002 81C68.2002 81 65.8002 80.4 66.0002 78.7C66.1002 78.1 66.2002 76.8 65.8002 76.4C65.8002 76.3 65.6002 76.2 65.1002 76.2C64.9002 76.2 64.7002 76.1 64.7002 75.8C64.7002 75.6 64.8002 75.4 65.1002 75.4C65.7002 75.3 66.1002 75.5 66.4002 75.8C67.0002 76.4 66.9002 77.6 66.8002 78.7C66.7002 79.7 68.5002 80.2 68.5002 80.2C68.7002 80.2 68.8002 80.5 68.8002 80.7C68.7002 80.9 68.5002 81 68.4002 81Z" fill="#666666"/>
<path d="M59.601 60.1C58.801 60.1 58.101 59.4 57.301 58.8C56.601 58.2 55.301 59.3 55.301 59.3C55.101 59.4 54.901 59.4 54.701 59.3C54.601 59.1 54.601 58.9 54.701 58.7C54.801 58.6 56.501 57.1 57.701 58.2C58.101 58.6 59.001 59.4 59.501 59.3C59.601 59.3 59.701 59.3 59.901 58.9C60.001 58.7 60.301 58.7 60.401 58.8C60.601 58.9 60.701 59.1 60.501 59.3C60.201 59.7 59.901 60 59.501 60.1C59.701 60.1 59.601 60.1 59.601 60.1Z" fill="#666666"/>
<path d="M55.9007 83.5002C55.7007 83.5002 55.6007 83.4002 55.5007 83.3002C55.2007 82.5002 54.9008 80.9002 56.1008 80.3002C56.6008 80.0002 57.6008 79.5002 57.7008 79.0002C57.7008 78.9002 57.7007 78.8002 57.5007 78.5002C57.4007 78.3002 57.4007 78.1002 57.5007 77.9002C57.7007 77.8002 57.9008 77.8002 58.1008 77.9002C58.4008 78.3002 58.6007 78.7002 58.5007 79.1002C58.3007 79.9002 57.4007 80.5002 56.4007 80.9002C55.6007 81.3002 56.2008 82.9002 56.2008 82.9002C56.3008 83.1002 56.2007 83.3002 56.0007 83.4002C56.0007 83.5002 56.0007 83.5002 55.9007 83.5002Z" fill="#666666"/>
<path fill-rule="evenodd" clip-rule="evenodd" d="M49.8222 30.9456C49.5947 31.028 49.279 31.2532 49.0437 31.501L48.6478 31.9179L48.0892 31.872C47.3606 31.8119 47.1764 31.88 45.3216 32.8946C43.6624 33.8023 43.129 34.2382 42.9571 34.8266C42.8644 35.1437 42.842 35.159 42.3342 35.2497C41.5991 35.381 39.2076 36.6992 38.7178 37.2429C38.387 37.6103 38.1657 38.1175 38.1657 38.5088C38.1657 38.6339 38.0525 38.7448 37.7926 38.8738C37.5251 39.0066 37.1233 39.4083 36.3734 40.2923C35.1347 41.7526 34.9991 41.9706 34.9352 42.6066C34.8893 43.0629 34.8713 43.0936 34.6195 43.1465C34.425 43.1873 34.0438 43.5254 33.2138 44.3934C32.2791 45.3709 32.0571 45.6529 31.9752 45.967C31.8925 46.2841 31.8271 46.3661 31.5934 46.4452C31.3246 46.5363 29.5082 47.9274 29.2638 48.2295C29.1987 48.3099 29.0217 48.3732 28.862 48.3732C28.597 48.3732 26.9404 48.9292 26.5237 49.158C26.3935 49.2294 26.2467 49.2331 26.0191 49.1706C25.813 49.114 25.2995 49.1098 24.5842 49.1588C23.5606 49.2287 23.4484 49.2212 23.2008 49.0663C22.7913 48.8101 21.1192 48.2887 20.7011 48.2869C20.446 48.2858 20.2466 48.2201 20.0584 48.0751C19.9084 47.9594 19.2902 47.7005 18.6846 47.4996C17.7977 47.2055 17.512 47.1454 17.2161 47.1909C16.9544 47.2312 16.7904 47.2087 16.6462 47.1126C16.3166 46.893 14.2632 46.4243 13.9024 46.4862C13.6978 46.5213 13.5016 46.4938 13.338 46.407C12.9441 46.198 11.3557 45.8049 10.7884 45.7759C10.5056 45.7615 9.98509 45.6641 9.63163 45.5595C9.19094 45.4291 8.74664 45.3685 8.21778 45.3667C7.20623 45.3631 7.08807 45.362 6.63255 45.3515C6.36092 45.3453 6.01911 45.443 5.47576 45.6824C4.508 46.1088 4.27253 46.2796 4.05822 46.7105C3.96405 46.8998 3.84486 47.0547 3.79328 47.0547C3.65789 47.0547 2.35432 48.3732 2.21156 48.6545C2.14532 48.7851 2.09108 48.9859 2.09108 49.1006C2.09108 49.2154 1.99794 49.3992 1.88406 49.5089C1.77027 49.6186 1.51543 50.1081 1.31783 50.5965C1.00259 51.3757 0.96617 51.5337 1.02127 51.8847C1.0558 52.1047 1.07671 52.499 1.06771 52.761C1.04989 53.283 1.27139 54.3694 1.45853 54.6769C1.52366 54.784 1.57695 54.9645 1.57695 55.0779C1.57695 55.4349 2.0826 56.8366 2.29588 57.0708C2.40813 57.1941 2.56177 57.4207 2.63726 57.5743C2.76596 57.8362 3.81992 58.8333 3.96799 58.8333C4.00518 58.8333 4.16807 58.9652 4.33003 59.1265C4.62471 59.4202 5.56393 59.7868 6.17497 59.8468C6.32381 59.8615 6.52038 59.9144 6.61164 59.9646C6.91309 60.13 8.02069 60.3477 8.31332 60.299C8.47141 60.2727 8.72299 60.2872 8.87243 60.3311C9.18571 60.4233 10.5949 60.146 10.8236 59.9472C10.8985 59.882 11.1912 59.7782 11.4739 59.7165C11.7567 59.6547 12.0608 59.565 12.1497 59.5169C12.2386 59.4689 12.5916 59.3611 12.934 59.2774C13.5299 59.1317 13.5785 59.1322 14.0578 59.2856C14.3332 59.3738 14.6195 59.4466 14.6939 59.4473C14.7682 59.448 15.0767 59.5513 15.3794 59.677C15.9487 59.9131 18.1333 61.5289 18.2903 61.83C18.3518 61.9479 18.3285 62.0663 18.2018 62.2795C17.9641 62.6794 17.9818 63.1582 18.2518 63.6308C18.4811 64.0321 19.0954 64.6347 19.2754 64.6347C19.3313 64.6347 19.4729 64.7121 19.5901 64.8066C19.7739 64.955 19.8101 65.0718 19.8532 65.656C19.8953 66.2274 19.9374 66.3686 20.1228 66.5588C20.4572 66.9017 20.9659 66.8759 21.2939 66.4991C21.4965 66.2667 21.5441 66.1294 21.552 65.754C21.5574 65.501 21.5759 65.1753 21.593 65.0302C21.6101 64.8852 21.5677 64.5646 21.4987 64.3176C21.3924 63.9373 21.2879 63.796 20.8161 63.3946C20.2273 62.8937 20.1931 62.808 20.3572 62.2461C20.4405 61.9611 20.4323 61.8207 20.3087 61.4186C20.1267 60.8265 19.7415 60.2248 19.3745 59.9594C19.2236 59.8503 19.0297 59.6707 18.9437 59.5605C18.8577 59.4502 18.6181 59.2405 18.4113 59.0946C18.2045 58.9487 17.9108 58.7126 17.7585 58.5699C17.4263 58.2586 16.329 57.6647 15.7977 57.5085C15.5875 57.4467 15.377 57.3688 15.3299 57.3353C15.0806 57.1584 14.0656 56.9146 13.5733 56.9134C13.0526 56.9121 12.195 57.0794 11.8725 57.2453C11.6228 57.3737 10.5493 57.6279 9.95999 57.6982C9.64577 57.7356 9.24278 57.8076 9.06437 57.858C8.81425 57.9289 8.6218 57.9182 8.22189 57.8109C7.93689 57.7345 7.51085 57.6389 7.27521 57.5986C7.03957 57.5583 6.56657 57.4255 6.22399 57.3036C5.70558 57.119 5.51072 56.9892 5.06112 56.5292C4.56995 56.0266 4.49977 55.907 4.28684 55.2097C4.15805 54.788 4.01624 54.4197 3.97159 54.3914C3.92703 54.3631 3.89053 54.2402 3.89053 54.1182C3.89053 53.9961 3.81136 53.5781 3.71453 53.1892L3.53861 52.4823L3.8859 51.6699C4.07699 51.223 4.23328 50.7883 4.23328 50.7039C4.23328 50.6196 4.54176 50.2162 4.91879 49.8076C5.29582 49.399 5.60429 49.008 5.60429 48.9387C5.60429 48.8694 5.64782 48.8127 5.70103 48.8127C5.75416 48.8127 6.15501 48.6561 6.59168 48.4647L7.38566 48.1167L8.38041 48.3328C8.92753 48.4518 9.45049 48.549 9.54243 48.549C9.63446 48.549 9.84234 48.6414 10.0045 48.7542C10.3735 49.0111 12.1419 49.4486 12.6942 49.4198C12.9324 49.4073 13.2089 49.4548 13.3591 49.5339C13.8128 49.7729 15.5516 50.1528 15.993 50.1093C16.2365 50.0853 16.4595 50.1124 16.55 50.1769C16.8492 50.3904 18.9178 51.0253 19.1825 50.985C19.3693 50.9565 19.5101 51.0031 19.6805 51.1495C20.0175 51.4393 21.9728 52.0776 22.4464 52.0524C22.6877 52.0396 22.8765 52.0814 22.9747 52.1694C23.2938 52.4555 23.6852 52.5077 24.8954 52.425C25.6591 52.3728 26.1515 52.2972 26.3243 52.2055C26.5434 52.0894 26.658 52.0823 27.0024 52.1639C27.3898 52.2556 27.4864 52.2382 28.4854 51.8961C29.0732 51.6948 29.6979 51.433 29.8736 51.3141C30.0952 51.1643 30.3126 51.0981 30.5833 51.0981C31.147 51.0981 31.428 50.9476 32.5263 50.0576C33.2477 49.473 33.549 49.1693 33.6615 48.9133C33.7885 48.6244 33.8753 48.5489 34.1693 48.4709C34.6778 48.3361 34.8564 48.1896 35.9624 46.9994C36.9387 45.9487 36.9719 45.8962 37.1796 45.0761C37.1919 45.0273 37.3899 44.9366 37.6196 44.8744C38.0905 44.747 38.6782 44.1783 39.9292 42.6394C40.5845 41.8332 40.8221 41.3732 40.8221 40.9107C40.8221 40.806 40.8896 40.695 40.972 40.6641C41.0545 40.6331 41.7004 40.2928 42.4073 39.9078C43.6792 39.2151 44.2379 38.7901 44.4682 38.3404C44.577 38.1277 44.639 38.1056 45.2108 38.0751C45.8104 38.0431 45.8982 38.0075 47.4587 37.1643C48.6139 36.5402 49.2012 36.1676 49.4936 35.8737L49.9048 35.4605L51.2544 35.5959C51.9968 35.6702 53.0135 35.7376 53.5137 35.7453L54.4233 35.7595L54.6005 36.0672C54.6979 36.2364 55.2412 36.8887 55.808 37.5167L56.8383 38.6586L56.6376 38.8792C56.1388 39.4273 56.1184 39.5409 56.1047 41.8531L56.0919 43.9913L54.6909 44.955C53.9202 45.4851 53.2271 46.0025 53.1507 46.1048C53.0533 46.2354 52.9636 46.2719 52.8508 46.2271C52.3028 46.0095 51.8895 46.0161 50.1688 46.2702C48.1314 46.5711 47.8953 46.628 47.5259 46.9076C46.8117 47.4481 46.5178 48.1245 46.5836 49.0771C46.6293 49.7413 46.7632 50.0443 47.219 50.5164C47.9451 51.2681 48.4443 51.3228 50.9847 50.9292C52.7886 50.6497 53.1166 50.5296 53.6126 49.9664C53.9219 49.6152 53.9265 49.6135 54.3616 49.684C55.1403 49.8103 55.4722 49.6825 56.9864 48.6741C58.9244 47.3834 59.195 47.0314 59.1474 45.8633L59.1216 45.2279L59.4999 44.9318C59.7141 44.7643 59.9733 44.4467 60.0972 44.1999C60.3074 43.7815 60.3172 43.6926 60.3439 41.9821C60.3662 40.5427 60.3451 40.1067 60.2339 39.7144L60.0963 39.2288L60.3921 38.9163C60.8784 38.4027 61.0018 38.0562 61 37.2099C60.9989 36.6714 60.957 36.3843 60.8504 36.1821C60.6768 35.853 58.3102 33.2142 57.9282 32.9238C57.5818 32.6604 57.1744 32.5522 56.5266 32.5517C56.0334 32.5512 55.9835 32.533 55.8643 32.3095C55.5921 31.7994 55.0339 31.3179 54.5322 31.1602C54.1967 31.0549 51.3319 30.7894 50.6467 30.8001C50.4037 30.8039 50.0327 30.8694 49.8222 30.9456ZM52.6579 31.5485C54.3857 31.7026 54.655 31.7876 55.114 32.3239C55.3482 32.5974 55.5585 33.1045 55.5599 33.3987C55.5602 33.4614 55.6813 33.4344 55.8817 33.3272C56.3373 33.0832 57.1522 33.1354 57.5518 33.434C58.0207 33.7843 60.1888 36.2243 60.3221 36.5517C60.4765 36.9309 60.4796 37.5697 60.3288 37.9379C60.1675 38.3316 59.6966 38.7779 59.3206 38.8935L59.0044 38.9906L59.2926 39.2863C59.7144 39.719 59.7728 40.0698 59.7428 41.9918C59.7164 43.6803 59.7158 43.6849 59.475 44.0577C59.2165 44.4581 58.6986 44.764 58.2734 44.7674L58.0301 44.7693L58.252 45.0398C58.374 45.1885 58.4978 45.4082 58.5271 45.528C58.6153 45.8882 58.5088 46.6128 58.3308 46.8634C58.0758 47.2228 55.6689 48.8746 55.1743 49.0297C54.7017 49.178 54.3921 49.1285 53.8899 48.8246L53.6068 48.6532L53.4682 49.0257C53.3054 49.463 52.9804 49.8071 52.5601 49.9872C52.1342 50.1697 49.1797 50.5949 48.6466 50.5503C47.8398 50.483 47.2488 49.8724 47.1812 49.0367C47.1604 48.7793 47.1877 48.4311 47.2417 48.2629C47.3641 47.8824 47.8694 47.3536 48.2241 47.2348C48.3709 47.1856 49.2725 47.0283 50.2276 46.8854C51.8274 46.646 51.9965 46.6353 52.3749 46.7506C52.6007 46.8194 52.8775 46.976 52.9898 47.0986L53.194 47.3216L53.3926 46.8929C53.5745 46.5001 53.7132 46.381 55.0387 45.4776C56.113 44.7455 56.5775 44.4786 56.8401 44.4425C57.1625 44.3981 57.1826 44.3809 57.066 44.2487C56.7316 43.8696 56.6743 43.5042 56.6762 41.7615C56.6779 40.3019 56.7002 40.0169 56.8368 39.7081C57.0076 39.3224 57.3516 38.9955 57.6737 38.9125C57.7838 38.8841 57.8733 38.8553 57.8725 38.8485C57.8717 38.8417 57.5007 38.4405 57.048 37.957C55.4535 36.254 55.077 35.7751 54.9581 35.2994L54.848 34.8586L54.4544 35.0386C54.0631 35.2175 54.0504 35.2177 52.2186 35.0668C50.6767 34.9398 50.3108 34.8826 49.9748 34.7162L49.5734 34.5175L49.4377 34.8818C49.3632 35.0823 49.1968 35.3468 49.068 35.4699C48.9393 35.593 48.0983 36.0942 47.1991 36.5837C45.424 37.55 45.1273 37.6318 44.4506 37.3417C44.0607 37.1745 44.0782 37.1703 44.0782 37.4324C44.0782 37.7615 43.8751 38.1901 43.5961 38.4501C43.2802 38.7443 40.9743 40.0011 40.5147 40.1294L40.1644 40.2273L40.2031 40.64C40.2571 41.2172 40.1181 41.4653 38.9991 42.7887C37.7784 44.2323 37.6086 44.356 36.9084 44.3118C36.4286 44.2814 36.3867 44.2925 36.4585 44.4302C36.5701 44.644 36.5515 45.3044 36.4276 45.5303C36.2176 45.9129 34.4557 47.6899 34.1611 47.8161C33.9653 47.9 33.7431 47.9252 33.5275 47.8878C33.2434 47.8386 33.2031 47.8509 33.2489 47.9732C33.2783 48.0518 33.2401 48.2833 33.1641 48.4876C33.0532 48.7855 32.8529 48.9984 32.1545 49.5612C31.6753 49.9472 31.2027 50.3111 31.1042 50.3698C30.8558 50.5179 30.4079 50.5084 30.1068 50.3487C29.9128 50.2457 29.8536 50.2406 29.8521 50.3267C29.8472 50.6193 29.5069 50.8566 28.6173 51.1878C27.3283 51.6679 27.2175 51.6823 26.8401 51.4195L26.5274 51.2019L26.3358 51.4112C26.0735 51.6977 25.7661 51.7769 24.6861 51.8368C23.6769 51.8928 23.4212 51.8248 23.1088 51.4173C22.9614 51.2251 22.9272 51.2165 22.7371 51.3245C22.4318 51.4979 22.2969 51.4816 21.24 51.1432C20.2672 50.8317 19.8794 50.61 19.7875 50.3131C19.7396 50.1579 19.7164 50.156 19.4054 50.2813C19.0858 50.4101 19.0379 50.4031 18.0267 50.0793C17.2615 49.8343 16.9131 49.676 16.734 49.4923C16.5031 49.2555 16.4775 49.2488 16.2972 49.3783C16.0333 49.568 15.7462 49.552 14.6686 49.2877C14.0255 49.1299 13.6584 48.9905 13.4796 48.8362C13.2571 48.6442 13.1914 48.627 13.0076 48.7129C12.6881 48.8622 12.3759 48.8365 11.3642 48.5776C10.6008 48.3824 10.3973 48.2935 10.1596 48.0513C9.92323 47.8105 9.84465 47.7759 9.70661 47.8517C9.49427 47.9682 7.77486 47.6298 7.55369 47.428C7.41822 47.3044 7.38926 47.3043 7.25379 47.4273C7.01275 47.6462 5.42435 48.3035 5.24971 48.2566C5.13429 48.2257 5.09016 48.2614 5.09016 48.3858C5.09016 48.4803 5.03532 48.6645 4.96823 48.7951C4.82779 49.0685 4.01915 49.8904 3.75472 50.0285C3.61607 50.101 3.5848 50.1825 3.61496 50.3935C3.65815 50.6952 3.20657 51.8859 2.92586 52.2105C2.77804 52.3814 2.77427 52.4201 2.88772 52.606C3.06913 52.9035 3.31642 54.041 3.24779 54.2627C3.20931 54.3872 3.23528 54.4863 3.3243 54.5546C3.486 54.6786 3.99207 56.1396 3.93046 56.3043C3.90647 56.3684 3.99301 56.4855 4.12446 56.5668C4.46576 56.7778 5.09016 57.4258 5.09016 57.5689C5.09016 57.6374 5.17654 57.6906 5.28776 57.6906C5.627 57.6906 6.54283 58.0505 6.66734 58.2328C6.74206 58.3424 6.8071 58.3718 6.84291 58.3123C6.8741 58.2605 6.99552 58.218 7.11274 58.218C7.45875 58.218 8.4194 58.4921 8.52317 58.6204C8.60354 58.7196 8.64905 58.7191 8.80405 58.6171C9.04998 58.4553 9.99435 58.2725 10.2877 58.3301C10.4161 58.3552 10.6007 58.325 10.6977 58.2628C10.9313 58.1132 11.7426 57.9241 11.8523 57.9937C11.9 58.0239 12.0108 57.9749 12.0986 57.8849C12.3195 57.6582 13.2701 57.454 13.4381 57.5971C13.5316 57.6766 13.607 57.6783 13.7429 57.6037C13.9702 57.4788 14.783 57.701 15.0314 57.9558C15.1231 58.0498 15.2564 58.1029 15.3289 58.0744C15.471 58.0185 16.401 58.3711 16.401 58.4809C16.401 58.5176 16.5133 58.5707 16.6506 58.5989C16.788 58.627 17.0641 58.8099 17.2644 59.0054C17.4646 59.2008 17.6553 59.3607 17.6879 59.3607C17.8077 59.3607 18.5432 59.9873 18.5439 60.0899C18.5442 60.1481 18.6952 60.284 18.8794 60.3919C19.3918 60.692 20.0253 61.9504 19.7515 62.1241C19.6995 62.157 19.6559 62.2903 19.6544 62.4204C19.6529 62.5505 19.5951 62.7337 19.5259 62.8275C19.4101 62.9846 19.4273 63.0227 19.7452 63.3109C19.9349 63.483 20.2634 63.7623 20.4749 63.9315C20.8347 64.2192 21.0935 64.7188 20.9802 64.9069C20.9574 64.9448 20.9353 65.2142 20.9314 65.5055C20.9233 66.0986 20.7907 66.3124 20.5709 66.0869C20.4802 65.9939 20.4417 65.7987 20.449 65.47C20.4549 65.2056 20.4334 64.9622 20.4012 64.9292C20.3689 64.8961 20.3426 64.804 20.3426 64.7244C20.3426 64.5651 19.9289 64.2152 19.5292 64.0366C19.2212 63.899 18.8859 63.5898 18.8859 63.4435C18.8859 63.3853 18.8281 63.2885 18.7574 63.2283C18.57 63.0688 18.5997 62.7695 18.8388 62.4082C19.0417 62.1013 19.0444 62.078 18.9188 61.7001C18.8325 61.44 18.6908 61.2407 18.4953 61.1041C18.3338 60.9912 18.2014 60.873 18.201 60.8414C18.2007 60.8097 18.0261 60.679 17.813 60.5509C17.5999 60.4228 17.3132 60.2114 17.1759 60.081C16.7808 59.7062 16.1159 59.2358 15.9426 59.2084C15.8554 59.1946 15.5899 59.088 15.3528 58.9716C15.1156 58.8552 14.8703 58.78 14.8075 58.8047C14.6831 58.8538 13.8526 58.5992 13.6804 58.4593C13.6097 58.4019 13.5369 58.4019 13.4662 58.4595C13.3091 58.5873 12.4801 58.7714 12.2906 58.7206C12.1993 58.6962 12.1082 58.729 12.0833 58.7954C12.0301 58.9375 11.1683 59.2088 10.8958 59.1691C10.781 59.1524 10.6332 59.2177 10.5314 59.3304C10.4205 59.4528 10.1338 59.5699 9.71955 59.6619C9.11056 59.7972 9.06857 59.7963 8.86267 59.6427C8.66515 59.4954 8.62634 59.4929 8.41837 59.6147C8.21255 59.7353 8.12669 59.7328 7.53047 59.5886C7.1675 59.5008 6.79835 59.355 6.71018 59.2645C6.58953 59.1408 6.50127 59.1191 6.35295 59.177C6.21336 59.2314 5.96067 59.1906 5.48459 59.0366C4.90739 58.8499 4.79985 58.7835 4.71862 58.5626C4.65316 58.3847 4.56558 58.3059 4.43319 58.3059C4.16482 58.3059 3.22054 57.4789 3.15079 57.1829C3.11977 57.0512 2.98695 56.8446 2.85559 56.7237C2.55543 56.4475 2.14301 55.296 2.2137 54.9316C2.24789 54.7553 2.22081 54.6462 2.12502 54.5743C1.92605 54.4251 1.56556 52.9862 1.66196 52.7261C1.7036 52.6136 1.78123 52.494 1.83428 52.4604C1.90291 52.4169 1.89391 52.3571 1.80343 52.2541C1.52828 51.9408 1.54508 51.661 1.8892 50.8228C2.10299 50.3022 2.30282 49.9546 2.45526 49.8384C2.64377 49.6946 2.6909 49.5884 2.6909 49.3076C2.6909 48.9866 2.7484 48.8976 3.36081 48.2693C3.86388 47.7533 4.08796 47.5821 4.26053 47.5821C4.44168 47.5821 4.49043 47.5402 4.49069 47.3843C4.49138 46.9337 4.77115 46.6742 5.67516 46.2856C6.15304 46.0801 6.61224 45.9122 6.69544 45.9123C6.77865 45.9125 6.96459 45.9864 7.10855 46.0764C7.36398 46.2362 7.37521 46.2362 7.56792 46.0761C7.81941 45.8672 8.26173 45.868 9.19848 46.0794C9.69787 46.1921 9.96736 46.3002 10.0684 46.428C10.2071 46.6038 10.2308 46.6065 10.5268 46.4796C10.8187 46.3546 10.9015 46.3611 11.7991 46.5796C12.8436 46.8339 13.1803 46.9747 13.3292 47.2191C13.422 47.3717 13.4387 47.371 13.7392 47.2022L14.0524 47.0262L15.1624 47.3034C16.0829 47.5334 16.31 47.623 16.4925 47.8286L16.7126 48.0765L17.0387 47.9029L17.3648 47.7293L18.2746 48.015C19.5379 48.4117 19.7257 48.5037 19.8947 48.8092C19.9952 48.9908 20.084 49.0579 20.1713 49.0184C20.5444 48.8491 20.9688 48.8951 21.8672 49.2022C22.731 49.4974 23.1053 49.7112 23.1844 49.9546C23.2063 50.0222 23.3063 50.0138 23.5145 49.9272C23.6786 49.8587 24.263 49.7794 24.8131 49.7508C25.76 49.7016 25.8286 49.7097 26.1048 49.9019L26.3965 50.105L26.6581 49.8653C26.8167 49.7198 27.2863 49.5002 27.8514 49.3069C28.8259 48.9739 29.0797 48.9336 29.3317 49.0719C29.4555 49.1399 29.5081 49.1028 29.615 48.8728C29.6931 48.7048 30.1069 48.3019 30.6357 47.8789C31.7147 47.0157 31.8491 46.9402 32.2253 46.9852C32.4985 47.0179 32.5168 47.0052 32.4701 46.8146C32.3576 46.3547 32.5699 45.9793 33.5335 44.9338C34.5508 43.83 34.956 43.5665 35.481 43.6675L35.7605 43.7213L35.6349 43.4131C35.4671 43.0008 35.4767 42.587 35.6629 42.2124C35.7473 42.0425 36.2582 41.3803 36.7982 40.7407C37.7598 39.602 38.213 39.2316 38.6443 39.2316C38.7932 39.2316 38.8115 39.1691 38.81 38.6687C38.8075 37.816 39.0086 37.6072 40.7422 36.6618C41.5167 36.2396 42.2671 35.8709 42.41 35.8426C42.5529 35.8143 42.8282 35.8471 43.0218 35.9155L43.3737 36.0399L43.4119 35.567C43.4871 34.6362 43.7414 34.4271 46.6594 32.8959C47.5968 32.404 48.0192 32.3474 48.5768 32.6391C48.7618 32.7358 48.9337 32.8147 48.9591 32.8145C48.9845 32.8144 49.0772 32.6349 49.165 32.4158C49.3236 32.0203 49.673 31.6724 50.079 31.5063C50.3825 31.382 50.8837 31.3902 52.6579 31.5485ZM42.956 48.7535C42.7866 48.8102 41.902 49.2498 40.9904 49.7304C38.7492 50.9117 38.4281 51.2524 38.3544 52.528C38.3055 53.3742 38.4601 53.8414 38.9651 54.3734C39.5109 54.9483 39.876 55.0975 40.7364 55.0975H41.4647L43.2167 54.1746C45.1869 53.1368 45.6632 52.7559 45.9062 52.0243C46.1148 51.3962 46.0909 50.6227 45.8463 50.0839C45.3501 48.9907 44.0439 48.3894 42.956 48.7535ZM44.1761 49.3542C45.315 49.7043 45.819 51.1834 45.1382 52.1779C44.9185 52.4989 44.6453 52.677 43.0954 53.5094C40.9875 54.6415 40.7176 54.7095 39.9189 54.3085C39.2105 53.953 38.9798 53.5511 38.9798 52.6723C38.9798 52.0565 39.0045 51.9563 39.2407 51.6111C39.4705 51.2754 39.7056 51.1225 41.2115 50.3298C42.152 49.8347 43.0178 49.3928 43.1357 49.3478C43.4363 49.233 43.7888 49.2352 44.1761 49.3542ZM33.3244 53.1633C31.5314 53.8073 31.5234 53.8114 31.0894 54.2881C30.5686 54.8602 30.411 55.3333 30.4738 56.136C30.524 56.7775 30.6782 57.1238 31.1117 57.5685C31.5495 58.0176 32.0849 58.2405 32.7183 58.2375C33.1366 58.2355 33.5758 58.115 34.9581 57.623C35.9038 57.2863 36.7545 56.9687 36.8485 56.917C36.9427 56.8653 37.1792 56.6455 37.3742 56.4285C38.2729 55.4285 38.1268 53.8095 37.0623 52.9695C36.2197 52.3046 35.6296 52.3352 33.3244 53.1633ZM36.6221 53.4162C37.0007 53.6732 37.3926 54.3712 37.3933 54.7899C37.394 55.2553 37.197 55.7187 36.8492 56.0698C36.533 56.3887 36.31 56.4923 34.7811 57.0304C32.8653 57.7044 32.4975 57.7548 31.9198 57.4217C31.4074 57.1263 31.1142 56.644 31.0705 56.0252C31.0287 55.431 31.1721 55.0501 31.5967 54.6279C31.8147 54.4111 32.2518 54.2148 33.5856 53.7347C35.5694 53.0207 35.9767 52.978 36.6221 53.4162Z" fill="#666666"/>
</svg>
