<svg width="480" height="111" viewBox="0 0 480 111" fill="none" xmlns="http://www.w3.org/2000/svg">
<path d="M249.171 15.1429L247.567 16.7625C247.229 16.4244 246.853 16.2554 246.438 16.2554C246.079 16.2554 245.757 16.3917 245.473 16.6644C245.201 16.937 245.064 17.3242 245.064 17.8259V22.9629H242.938V14.4395H245.015V15.2575C245.233 14.9957 245.533 14.7776 245.915 14.6031C246.308 14.4286 246.722 14.3413 247.158 14.3413C247.965 14.3413 248.636 14.6085 249.171 15.1429Z" fill="#E2001A"/>
<path d="M240.976 19.3637H235.643C235.643 19.9309 235.806 20.3889 236.134 20.738C236.461 21.087 236.919 21.2615 237.508 21.2615C237.944 21.2615 238.299 21.2015 238.571 21.0815C238.855 20.9506 239.144 20.7434 239.438 20.4598L240.731 21.7195C240.273 22.1885 239.798 22.5321 239.307 22.7502C238.828 22.9574 238.222 23.061 237.492 23.061C236.946 23.061 236.45 22.9956 236.003 22.8647C235.567 22.7229 235.158 22.4939 234.776 22.1776C234.394 21.8613 234.094 21.4087 233.876 20.8198C233.658 20.2308 233.549 19.5219 233.549 18.693C233.549 17.3297 233.887 16.2663 234.563 15.5028C235.239 14.7285 236.139 14.3413 237.262 14.3413C238.429 14.3413 239.34 14.723 239.995 15.4865C240.649 16.239 240.976 17.2315 240.976 18.464V19.3637ZM238.882 17.9077C238.871 17.5369 238.806 17.2315 238.686 16.9916C238.424 16.4026 237.95 16.1082 237.262 16.1082C236.575 16.1082 236.101 16.4026 235.839 16.9916C235.719 17.2315 235.654 17.5369 235.643 17.9077H238.882Z" fill="#E2001A"/>
<path d="M232.131 22.9629H230.97C230.163 22.9629 229.546 22.723 229.121 22.2431C228.707 21.7632 228.499 21.1906 228.499 20.5253V16.3045H227.6V14.6849H228.499V12.1655H230.626V14.6849H232.131V16.3045H230.626V20.3945C230.626 20.9071 230.872 21.1634 231.362 21.1634H232.131V22.9629Z" fill="#E2001A"/>
<path d="M227.091 15.1429L225.488 16.7625C225.15 16.4244 224.774 16.2554 224.359 16.2554C223.999 16.2554 223.678 16.3917 223.394 16.6644C223.121 16.937 222.985 17.3242 222.985 17.8259V22.9629H220.858V14.4395H222.936V15.2575C223.154 14.9957 223.454 14.7776 223.836 14.6031C224.228 14.4286 224.643 14.3413 225.079 14.3413C225.886 14.3413 226.557 14.6085 227.091 15.1429Z" fill="#E2001A"/>
<path d="M218.565 22.9629H216.487V22.2267C216.193 22.5212 215.887 22.7338 215.571 22.8647C215.265 22.9847 214.873 23.0447 214.393 23.0447C213.444 23.0447 212.719 22.7938 212.217 22.2921C211.748 21.8013 211.514 21.1633 211.514 20.378C211.514 19.6582 211.765 19.0693 212.266 18.6112C212.768 18.1422 213.499 17.9077 214.458 17.9077H216.438V17.4824C216.438 17.0134 216.313 16.6753 216.062 16.4681C215.811 16.2499 215.407 16.1409 214.851 16.1409C214.186 16.1409 213.64 16.3863 213.215 16.8771L211.874 15.5519C212.288 15.0939 212.719 14.7776 213.166 14.6031C213.624 14.4286 214.213 14.3413 214.933 14.3413C217.354 14.3413 218.565 15.3447 218.565 17.3515V22.9629ZM216.438 19.8218V19.3637H214.818C213.979 19.3637 213.559 19.6909 213.559 20.3453C213.559 20.9888 213.989 21.3105 214.851 21.3105C215.407 21.3105 215.827 21.1742 216.111 20.9016C216.329 20.7161 216.438 20.3562 216.438 19.8218Z" fill="#E2001A"/>
<path d="M210.276 22.9629H209.114C208.307 22.9629 207.691 22.723 207.266 22.2431C206.851 21.7632 206.644 21.1906 206.644 20.5253V16.3045H205.744V14.6849H206.644V12.1655H208.771V14.6849H210.276V16.3045H208.771V20.3945C208.771 20.9071 209.016 21.1634 209.507 21.1634H210.276V22.9629Z" fill="#E2001A"/>
<path d="M204.471 19.5275C204.471 20.6291 204.067 21.4961 203.26 22.1287C202.453 22.7504 201.417 23.0612 200.152 23.0612C199.225 23.0612 198.423 22.9467 197.747 22.7177C197.071 22.4777 196.455 22.0796 195.898 21.5234L197.371 20.051C198.025 20.7054 198.958 21.0326 200.168 21.0326C200.845 21.0326 201.357 20.9072 201.706 20.6563C202.066 20.4055 202.246 20.0456 202.246 19.5766C202.246 19.1731 202.126 18.8513 201.886 18.6114C201.679 18.4151 201.33 18.2842 200.839 18.2188L199.448 18.0061C198.467 17.8643 197.714 17.5426 197.191 17.0409C196.635 16.4955 196.357 15.7321 196.357 14.7505C196.357 13.6926 196.722 12.8419 197.453 12.1984C198.183 11.544 199.17 11.2168 200.414 11.2168C201.984 11.2168 203.238 11.6694 204.176 12.5747L202.737 13.9979C202.191 13.4635 201.395 13.1963 200.348 13.1963C199.77 13.1963 199.329 13.3381 199.023 13.6217C198.718 13.8943 198.565 14.2433 198.565 14.6687C198.565 15.0177 198.674 15.2958 198.892 15.503C199.143 15.7321 199.498 15.8793 199.956 15.9448L201.346 16.1574C202.339 16.2992 203.08 16.6046 203.571 17.0736C204.171 17.6298 204.471 18.4478 204.471 19.5275Z" fill="#E2001A"/>
<path d="M270.5 9.8L270.3 9.6C270.3 9.6 270.2 9.5 270.1 9.5C270.1 9.5 270 9.5 270.1 9.4H270.2C270.2 9.4 270.1 9.4 270.1 9.3C270.1 9.3 270.1 9.3 270 9.3H270.1C270.1 9.3 270 9.3 270 9.2C270.1 9.2 270.1 9.2 270.2 9.2C270.1 9.2 270.1 9.1 270.1 9.1H270C270.1 9.1 270.1 9.1 270.2 9.1C270.2 9.1 270.1 9.1 270.1 9C270.2 9 270.2 9 270.3 9.1C270.2 9 270.1 9 270 9H270.1C270 9 270 9 269.9 9H270C269.9 9 269.8 8.9 269.7 8.8C269.7 8.8 269.7 8.8 269.8 8.9C269.8 8.9 269.7 8.7 269.8 8.7C269.8 8.5 269.6 8.3 269.6 8.1C269.6 8 269.6 8 269.6 7.9C269.6 7.9 269.7 7.9 269.7 8L269.6 7.9C269.5 7.8 269.6 7.7 269.6 7.6C269.6 7.5 269.7 7.4 269.7 7.3C269.8 7 269.8 6.7 269.7 6.4C269.7 6.3 269 6 268.4 6.1C268.1 6 267.9 6 267.8 6C267.7 6 267.7 6.1 267.6 6.1C267.6 6.1 267.5 6.1 267.5 6.2L267.4 6.3C267.4 6.3 267.4 6.3 267.4 6.2C267.4 6.3 267.4 6.3 267.4 6.4L267.3 6.5C267.3 6.6 267 6.7 267 6.7C266.9 6.7 266.7 6.7 266.6 6.7H266.5C266.4 6.7 266.4 6.7 266.3 6.6H266.4C266.3 6.6 266.3 6.6 266.2 6.6C266.1 6.6 265.9 6.6 265.8 6.5V6.6H265.7H265.6C265.6 6.6 265.6 6.6 265.5 6.6H265.4C265.3 6.6 265.3 6.6 265.2 6.6C265.1 6.6 265 6.6 264.9 6.7C264.8 6.8 264.2 7 263.9 7.2C263.6 7.4 263.1 7.8 263.1 7.9C263.1 8.1 263.3 8.2 263.3 8.4C263.3 8.5 263.4 8.6 263.5 8.6C263.6 8.7 263.7 8.8 263.7 8.9C263.8 8.9 263.9 9 263.9 9C263.9 9 263.9 9.1 263.8 9.1C263.8 9.1 263.9 9.1 264 9.1C264 9.1 263.9 9.1 263.9 9.2H264C263.9 9.2 263.9 9.3 263.8 9.3C263.9 9.2 264 9.2 264.1 9.2V9.3C264.1 9.3 264.2 9.2 264.3 9.2C264.2 9.3 264.2 9.4 264.2 9.6C264.2 9.5 264.3 9.4 264.4 9.4C264.3 9.5 264.3 9.6 264.3 9.7C264.3 9.6 264.4 9.6 264.5 9.5C264.5 9.6 264.4 9.6 264.4 9.7C264.3 9.7 264.4 10 264.4 10C264.4 10.2 264.2 10.3 264.2 10.5H264.3C264.2 10.5 264.2 10.9 264.2 11C264.3 11.2 264.3 11.3 264.2 11.5C264 11.8 263.7 12.1 263.5 12.5C263.6 12.4 263.6 12.4 263.7 12.3C263.6 12.5 263.5 12.6 263.4 12.8C263.4 12.8 263.4 12.8 263.5 12.7L263.2 13.2C263.1 13.3 263.1 13.4 263 13.5C262.6 14 261.9 14.3 261.3 14.7C260.7 15.1 260 15.6 259.4 16.1C259.3 16.2 259.2 16.2 259.2 16.3C259 16.4 258.7 16.6 258.7 16.7C258.6 16.9 257.7 17.6 257.6 17.8C257.5 18 256.4 19.3 256.2 19.4C256 19.5 255.5 20.7 255.5 21C255.5 21 254.3 23.2 253.3 23.8C252.3 24.3 251.3 24.8 250.5 25.3C249.7 25.8 250.1 26.5 250.7 26.3C251.3 26.2 252.1 26.3 252.4 26C252.7 25.7 253.4 25.5 253.8 25.3C254.2 25.2 254.7 25.3 255 25L255.1 25.1C255.2 25.5 255.3 25.7 255.5 25.7C255.7 25.7 258.9 26.1 259.1 26.1C259.3 26.1 259.8 26.1 259.9 26.1C260 26.1 260.2 26.1 260.2 26.1C260.2 26.1 260.2 26 260.4 25.9C260.5 25.8 260.7 25.8 260.7 25.7C260.7 25.6 260.7 25.5 260.7 25.5C260.7 25.5 263.3 25.5 263.4 25.5C263.5 25.5 263.6 25.4 263.7 25.4C263.8 25.3 263.9 25.5 264.1 25.2L264.3 25C264.3 25 264.5 24.9 264.5 24.8C264.5 24.8 264.3 24.4 264 24.3C263.7 24.2 263.2 24.2 263 24.2C262.6 24.2 262.1 24.4 261.7 24.3C261.8 24.2 262 24.1 262.1 24C262.2 23.9 262.6 23.8 262.6 23.6C262.6 23.7 262.6 23.7 262.6 23.8C262.7 23.7 262.9 23.6 263 23.4C263 23.5 263 23.6 262.9 23.7C263.1 23.6 263.3 23.4 263.4 23.3V23.5C263.5 23.4 263.6 23.3 263.7 23.1C263.6 23.2 263.6 23.4 263.6 23.6C263.7 23.4 264 22.9 264.2 23.2C264.3 23.3 264.3 23.6 264.1 23.7C264.2 23.7 264.3 23.6 264.4 23.5L264.3 23.7H264.4C264.4 23.8 264.4 23.8 264.3 23.9C264.4 23.9 264.6 23.9 264.6 24.1C264.7 24.2 264.7 24.4 264.7 24.5C264.7 24.7 264.7 24.9 264.7 25.1L264.8 24.9C264.8 25 264.8 25.1 264.8 25.3L264.9 25.2C264.9 25.5 265.1 26.2 265.4 26.3C265.6 26.3 266 26.3 266 26.3C266 26.3 266.5 26.4 266.7 26.4H266.9C266.9 26.4 267 26.5 267.1 26.4C267.1 26.4 267.2 26.4 267.3 26.4C267.4 26.4 267.4 26.4 267.4 26.4C267.4 26.4 267.5 26.5 267.5 26.4C267.5 26.3 267.6 26.2 267.5 26.1C267.4 26 267.5 25.8 267.2 25.6C267 25.4 266.7 25.2 266.7 25.1C266.7 25 266.3 24.7 266.3 24.4C266.3 24.1 266.4 24 266.3 23.7C266.2 23.4 266.1 23.1 266.1 22.8C266.1 22.5 266.1 22.5 266.1 22.3C266.1 22.1 266 22.1 266.1 21.8C266.2 21.5 266.3 21.3 266.6 21.1C266.6 21.2 266.5 21.3 266.5 21.4C266.6 21.2 266.8 20.9 267 20.7C267 21 267.1 21.4 267.1 21.7C267.1 21.9 267.2 22.5 267.1 22.7C267.2 22.6 267.2 22.5 267.3 22.4C267.3 22.5 267.3 22.7 267.3 22.8L267.4 22.7C267.4 22.8 267.3 23 267.3 23.1C267.3 23.1 267.4 23.1 267.4 23C267.4 23.1 267.4 23.2 267.4 23.3H267.5C267.5 23.3 267.6 23.9 267.6 24C267.6 24.3 267.7 24.7 267.6 24.9C267.6 24.8 267.7 24.7 267.7 24.6C267.7 24.7 267.7 24.8 267.7 25L267.8 24.9C267.8 25 267.8 25 267.8 25.1C267.8 25 268 25.1 268.1 25.1C268.2 25.2 268.3 25.3 268.3 25.4C268.4 25.7 268.4 26 268.4 26C268.4 26.1 268.7 26.1 268.8 26.1C268.9 26.1 269.4 26.1 269.5 26.1C269.6 26.1 269.7 26.1 269.9 26.1L270.1 26.2C270.2 26.1 270.3 26.1 270.4 26.1C270.5 26.1 270.5 26 270.4 26C270.4 25.9 270.3 25.8 270.2 25.7C270.1 25.6 269.8 25.2 269.7 25.1C269.5 24.9 269.2 24.4 269.1 24.2C269.1 24 269 22.9 268.9 22.5C268.9 22.1 268.7 21.6 268.7 21.4C268.7 21.2 268.6 20.1 268.6 19.7C268.7 19.3 268.9 18.6 269.1 18.2C269.2 18 269.2 17.8 269.2 17.6V17.7C269.2 17.6 269.2 17.5 269.2 17.4C269.2 17.5 269.3 17.6 269.3 17.6C269.3 17.3 269.2 16.9 269.2 16.6C269.3 16.6 269.3 16.7 269.3 16.7C269.3 16.4 269.3 16.2 269.2 15.9C269.1 15.5 269 15.1 269 14.7C269 14.6 269 14.5 269 14.4C269 14.3 269 14.2 269 14.1C268.9 13.8 268.7 13.1 268.9 12.8C269 12.8 269 13 269 13C268.9 12.7 268.8 12.4 268.9 12.1C268.9 12 268.9 12 269 12V12.1L269.1 12C269.1 12.1 269.1 12.1 269.1 12.2C269.2 12.2 269.2 12.1 269.3 12.1C269.3 12.1 269.4 12.1 269.4 12C269.4 12.1 269.4 12.1 269.4 12.2C269.4 12.1 269.5 12 269.5 12C269.5 12 269.7 11.9 269.6 11.9C269.6 11.9 269.6 11.8 269.7 11.8C269.7 11.8 269.7 11.8 269.7 11.7C269.7 11.7 269.8 11.7 269.8 11.8V11.7C269.8 11.7 269.8 11.7 269.9 11.7C269.9 11.7 269.9 11.7 269.9 11.6C269.9 11.6 269.9 11.6 269.9 11.7V11.6L270 11.7C270 11.7 270 11.7 270 11.6C270 11.6 270 11.6 270 11.7V11.6C270 11.6 270 11.7 270.1 11.7C270.1 11.7 270.1 11.7 270.1 11.8C270.1 11.8 270.1 11.8 270.1 11.9C270.1 11.8 270.1 11.6 270 11.5V11.4C270 11.4 270 11.4 270.1 11.4V11.5C270.1 11.4 270.1 11.4 270 11.3C270.1 11.3 270.1 11.4 270.2 11.4V11.3C270.2 11.3 270.2 11.2 270.1 11.2V11.1L270.2 11.2C270.2 11.1 270.1 11 270.1 11C270.2 11 270.2 11.1 270.3 11.2C270.3 11 270.2 10.9 270.1 10.7C270.2 10.7 270.2 10.8 270.3 10.8C270.3 10.7 270.3 10.7 270.2 10.6C270.2 10.6 270.2 10.5 270.1 10.5C270.1 10.5 270.1 10.5 270 10.4C270 10.4 270 10.4 270 10.3C270.1 10.3 270.1 10.4 270.2 10.4C270.2 10.3 270.1 10.2 270 10.2H270.1C270.1 10.2 270.1 10.1 270 10.1C270.4 9.8 270.4 9.8 270.5 9.8V9.9C270.5 9.9 270.5 9.9 270.5 10C270.6 9.9 270.6 9.9 270.5 9.8Z" fill="#D9ECFA"/>
<path d="M281.8 22.0998C281.8 21.9998 281.8 21.9998 281.7 21.8998L281.6 21.7998C281.6 21.7998 281.6 21.6998 281.5 21.6998L281.4 21.5998V21.4998V21.3998C281.4 21.3998 281.4 21.2998 281.5 21.2998V21.1998V21.0998C281.5 20.9998 281.5 20.9998 281.4 20.8998C281.4 20.7998 281.3 20.7998 281.3 20.6998C281.3 20.5998 281.2 20.5998 281.2 20.4998C281.2 20.4998 281.2 20.3998 281.1 20.3998L281 20.2998L280.9 20.1998L280.8 20.0998C280.8 20.0998 280.8 20.0998 280.7 19.9998C280.6 19.9998 280.6 19.8998 280.5 19.8998C280.5 19.8998 280.4 19.7998 280.3 19.7998H280.2H280.1H280H279.9C279.9 19.7998 279.9 19.7998 279.8 19.7998C279.7 19.7998 279.7 19.6998 279.6 19.7998H279.5C279.4 19.7998 279.4 19.7998 279.3 19.7998H279.2C279.2 19.7998 279.2 19.7998 279.1 19.7998C279.1 19.7998 279.1 19.7998 279 19.7998L278.9 19.8998C278.8 19.8998 278.8 19.8998 278.7 19.9998H278.6H278.5C278.5 19.9998 278.4 19.9998 278.4 20.0998C278.4 20.0998 278.4 20.0998 278.3 20.0998C278.3 20.0998 278.3 20.0998 278.2 20.0998C278.2 20.0998 278.1 20.0998 278.1 20.1998C278.1 20.1998 278.1 20.1998 278 20.1998L277.9 20.2998C277.9 20.2998 277.9 20.2998 277.8 20.2998C277.8 20.2998 277.8 20.2998 277.7 20.2998V20.3998C277.7 20.3998 277.7 20.3998 277.7 20.4998C277.7 20.4998 277.7 20.4998 277.7 20.5998V20.6998C277.7 20.6998 277.7 20.6998 277.8 20.7998C277.8 20.7998 277.8 20.7998 277.8 20.8998C277.9 20.9998 277.9 21.0998 277.8 21.1998C277.7 21.1998 277.7 21.1998 277.6 21.2998C277.5 21.2998 277.5 21.2998 277.5 21.2998C277.4 21.2998 277.4 21.2998 277.3 21.2998H277.2H277.1C277 21.2998 276.9 21.2998 276.9 21.2998C276.8 21.2998 276.7 21.2998 276.6 21.2998H276.5C276.3 21.2998 276.1 21.2998 275.8 21.2998C275.6 21.2998 275.3 21.2998 275.1 21.2998C275 21.2998 274.8 21.2998 274.7 21.2998C274.6 21.2998 274.6 21.2998 274.5 21.2998H274.4H274.3H274.2H274.1H274H273.9H273.8C273.8 21.2998 273.8 21.2998 273.7 21.2998C273.6 21.1998 273.5 21.1998 273.5 21.0998L273.4 20.9998C273.4 20.9998 273.3 20.9998 273.3 20.8998L273.2 20.7998C273.2 20.7998 273.2 20.7998 273.2 20.6998C273.2 20.6998 273.2 20.6998 273.2 20.5998C273.2 20.4998 273.1 20.3998 273.1 20.2998C273.1 20.1998 273.1 20.1998 273 20.0998V19.9998C273 19.9998 273 19.9998 273 19.8998V19.7998H272.9C272.8 19.7998 272.8 19.8998 272.7 19.8998L272.6 19.9998C272.6 20.0998 272.5 20.0998 272.5 20.1998V20.2998C272.5 20.2998 272.5 20.2998 272.5 20.3998V20.4998C272.5 20.5998 272.5 20.6998 272.5 20.6998C272.5 20.7998 272.5 20.7998 272.5 20.8998C272.5 20.8998 272.5 20.8998 272.5 20.9998C272.5 20.9998 272.5 20.9998 272.5 21.0998C272.5 21.1998 272.6 21.2998 272.6 21.3998H272.5C272.5 21.4998 272.6 21.5998 272.6 21.5998C272.7 21.6998 272.7 21.6998 272.8 21.6998C272.7 21.6998 272.7 21.6998 272.6 21.6998C272.6 21.6998 272.6 21.6998 272.6 21.7998C272.6 21.7998 272.6 21.7998 272.7 21.8998C272.7 21.8998 272.7 21.8998 272.8 21.8998C272.8 21.8998 272.8 21.8998 272.9 21.9998C272.9 21.9998 272.9 21.9998 273 22.0998V22.1998V22.2998V22.3998V22.4998V22.5998C273 22.7998 272.9 22.8998 272.9 23.0998L273 22.9998C273 23.0998 273 23.1998 273 23.1998V23.2998C273 23.3998 273 23.3998 273 23.4998C273 23.5998 273 23.5998 273 23.6998V23.7998C273 23.7998 273 23.7998 273 23.8998C273 23.9998 273 23.9998 272.9 23.9998L272.8 24.0998C272.8 24.0998 272.7 24.0998 272.7 24.1998V24.2998V24.3998V24.4998C272.7 24.5998 272.7 24.6998 272.7 24.7998C272.7 24.8998 272.7 24.8998 272.7 24.8998V24.9998C272.7 24.9998 272.7 24.9998 272.8 24.9998C272.8 25.0998 272.8 25.0998 272.8 25.1998V25.2998V25.3998C272.8 25.4998 272.8 25.5998 272.8 25.5998V25.6998C272.8 25.7998 272.8 25.8998 272.8 25.8998C272.8 25.9998 272.8 25.9998 272.9 26.0998L273 26.1998C273 26.2998 273.1 26.2998 273.2 26.3998C273.3 26.3998 273.3 26.3998 273.4 26.3998H273.5H273.6C273.7 26.3998 273.8 26.3998 273.8 26.2998V26.1998V26.0998V25.9998C273.8 25.9998 273.8 25.9998 273.8 25.8998C273.8 25.7998 273.8 25.6998 273.8 25.6998C273.8 25.5998 273.7 25.5998 273.7 25.4998C273.7 25.4998 273.7 25.4998 273.7 25.3998V25.2998C273.7 25.1998 273.7 25.1998 273.7 25.0998C273.7 25.0998 273.7 25.0998 273.7 24.9998C273.7 24.8998 273.7 24.8998 273.7 24.7998C273.7 24.7998 273.7 24.7998 273.7 24.6998L273.8 24.5998L273.9 24.4998H274H274.1C274.1 24.5998 274 24.6998 274 24.7998C274 24.8998 274 24.8998 274 24.9998C274 25.0998 274.1 25.1998 274.1 25.2998V25.3998C274.1 25.3998 274.1 25.3998 274.1 25.4998C274.1 25.4998 274.1 25.4998 274.1 25.5998V25.6998C274.1 25.6998 274.1 25.7998 274.2 25.7998C274.2 25.7998 274.2 25.8998 274.3 25.8998V25.9998L274.4 26.0998C274.4 26.0998 274.5 26.0998 274.5 26.1998C274.5 26.2998 274.5 26.3998 274.6 26.3998H274.7C274.7 26.3998 274.7 26.3998 274.8 26.3998C274.9 26.3998 275 26.4998 275.1 26.3998H275.2C275.3 26.3998 275.3 26.3998 275.4 26.3998H275.5H275.6C275.6 26.3998 275.6 26.3998 275.7 26.3998H275.8V26.2998C275.8 26.2998 275.8 26.2998 275.8 26.1998V26.0998V25.9998C275.8 25.9998 275.8 25.8998 275.7 25.8998C275.7 25.8998 275.7 25.8998 275.6 25.8998H275.5H275.4H275.3C275.3 25.8998 275.2 25.8998 275.2 25.7998C275.2 25.7998 275.2 25.7998 275.2 25.6998L275.1 25.5998C275.1 25.4998 275 25.4998 275 25.3998C275 25.3998 275 25.3998 275 25.2998V25.1998C275 25.1998 275 25.1998 275 25.0998L275.1 24.9998C275.2 24.8998 275.2 24.8998 275.3 24.7998C275.3 24.7998 275.3 24.7998 275.4 24.7998C275.5 24.7998 275.5 24.7998 275.6 24.7998H275.7H275.8C275.8 24.7998 275.9 24.7998 276 24.7998H276.1H276.2C276.2 24.7998 276.2 24.7998 276.3 24.7998H276.4C276.5 24.8998 276.4 24.8998 276.4 24.9998C276.4 24.9998 276.4 24.9998 276.4 25.0998V25.1998C276.4 25.1998 276.4 25.2998 276.3 25.2998C276.3 25.2998 276.3 25.2998 276.2 25.3998H276.3V25.4998V25.5998V25.6998V25.7998C276.3 25.8998 276.3 25.9998 276.3 26.1998C276.3 26.2998 276.3 26.3998 276.4 26.3998C276.4 26.4998 276.4 26.4998 276.5 26.5998L276.6 26.6998H276.7C276.8 26.6998 276.8 26.6998 276.9 26.7998C277 26.7998 277.1 26.8998 277.2 26.7998C277.3 26.7998 277.4 26.7998 277.5 26.7998C277.5 26.7998 277.5 26.7998 277.6 26.7998C277.7 26.7998 277.7 26.7998 277.8 26.7998C277.9 26.7998 277.9 26.6998 277.9 26.5998C277.9 26.4998 277.9 26.4998 277.8 26.3998V26.2998V26.1998C277.8 26.1998 277.8 26.1998 277.7 26.0998C277.6 25.9998 277.6 26.0998 277.5 26.0998H277.4C277.4 26.0998 277.4 26.0998 277.4 25.9998V25.8998V25.7998C277.4 25.6998 277.4 25.6998 277.4 25.5998C277.5 25.3998 277.5 25.1998 277.6 24.9998V24.8998C277.6 24.8998 277.6 24.8998 277.7 24.8998C277.7 24.8998 277.7 24.8998 277.8 24.8998C277.8 24.8998 277.8 24.8998 277.9 24.8998H278H278.1V24.9998C278.1 24.9998 278.1 24.9998 278.2 24.9998L278.3 24.8998C278.3 24.8998 278.3 24.8998 278.4 24.8998C278.4 24.8998 278.4 24.8998 278.5 24.7998C278.5 24.7998 278.5 24.7998 278.6 24.7998C278.6 24.7998 278.6 24.7998 278.7 24.7998C278.7 24.7998 278.7 24.7998 278.7 24.8998C278.7 24.9998 278.7 24.9998 278.7 25.0998C278.7 25.1998 278.7 25.1998 278.7 25.2998C278.7 25.2998 278.7 25.1998 278.8 25.1998V25.2998V25.3998C278.8 25.3998 278.8 25.3998 278.8 25.4998V25.5998C278.8 25.6998 278.8 25.6998 278.9 25.7998C278.9 25.7998 278.9 25.7998 278.9 25.8998V25.9998V26.0998C278.9 26.0998 278.9 26.0998 278.9 26.1998C278.9 26.1998 279 26.1998 279 26.2998C279 26.2998 279 26.3998 279.1 26.3998C279.1 26.3998 279.1 26.4998 279.2 26.4998C279.3 26.4998 279.3 26.4998 279.4 26.5998C279.5 26.5998 279.5 26.5998 279.6 26.5998H279.7H279.8H279.9C279.9 26.5998 279.9 26.5998 280 26.5998H280.1H280.2H280.3H280.4V26.4998C280.4 26.3998 280.4 26.3998 280.3 26.2998V26.1998V26.0998C280.3 26.0998 280.3 26.0998 280.3 25.9998C280.3 25.9998 280.3 25.9998 280.2 25.9998C280.1 25.9998 280.1 25.9998 280 25.9998V25.8998V25.7998V25.6998C280 25.5998 279.9 25.5998 279.9 25.4998C279.9 25.3998 279.8 25.2998 279.8 25.1998C279.8 25.1998 279.8 25.1998 279.8 25.0998C279.8 25.0998 279.8 25.0998 279.8 24.9998C279.8 24.8998 279.8 24.8998 279.8 24.7998C279.8 24.7998 279.8 24.7998 279.8 24.6998C279.8 24.6998 279.8 24.6998 279.8 24.5998C279.8 24.4998 279.8 24.4998 279.8 24.3998V24.2998C279.8 24.2998 279.8 24.2998 279.8 24.1998C279.8 24.1998 279.8 24.1998 279.8 24.0998V23.9998C279.8 23.9998 279.8 23.9998 279.8 23.8998C279.8 23.8998 279.8 23.9998 279.9 23.9998C279.9 23.9998 279.9 23.8998 279.9 23.7998V23.6998C279.9 23.5998 279.9 23.5998 279.9 23.4998V23.3998C279.9 23.2998 279.9 23.2998 279.9 23.1998V23.0998C279.9 23.0998 279.9 23.0998 279.9 22.9998C279.9 22.9998 279.9 22.9998 279.9 22.8998C279.9 22.8998 279.9 22.8998 279.9 22.7998C279.9 22.7998 279.9 22.7998 279.9 22.6998C279.9 22.5998 279.9 22.5998 279.9 22.4998H280C280 22.4998 280 22.4998 280.1 22.4998H280.2C280.2 22.4998 280.2 22.4998 280.3 22.4998C280.3 22.4998 280.3 22.4998 280.4 22.4998C280.4 22.4998 280.4 22.4998 280.5 22.4998C280.6 22.4998 280.6 22.4998 280.7 22.4998H280.8H280.9C280.9 22.4998 280.9 22.4998 281 22.4998C281.1 22.4998 281.1 22.4998 281.1 22.4998C281.1 22.4998 281.1 22.4998 281.2 22.4998L281.3 22.3998H281.4L281.5 22.2998C281.5 22.2998 281.5 22.2998 281.6 22.2998C281.6 22.2998 281.6 22.2998 281.7 22.2998C281.7 22.2998 281.7 22.2998 281.7 22.1998C281.7 22.1998 281.7 22.1998 281.7 22.0998C281.8 22.1998 281.8 22.0998 281.8 22.0998Z" fill="#005CA9"/>
<path d="M305.1 35.2002H173.1V48.5002H305.1V35.2002Z" fill="#005CA9"/>
<path fill-rule="evenodd" clip-rule="evenodd" d="M170.396 34.498L170.504 48.698L32.7019 49.1999L32.6982 48.1999L169.496 47.7017L169.404 35.5017L32.7019 35.9999L32.6982 34.9999L170.396 34.498Z" fill="#D9ECFA"/>
<path fill-rule="evenodd" clip-rule="evenodd" d="M308.5 34.7002H466.8V49.0002H308.5V34.7002ZM309.5 35.7002V48.0002H465.8V35.7002H309.5Z" fill="#D9ECFA"/>
<path fill-rule="evenodd" clip-rule="evenodd" d="M315.09 63.0002C315.09 62.4424 315.542 61.9902 316.1 61.9902H318.59C319.148 61.9902 319.6 62.4424 319.6 63.0002C319.6 63.558 319.148 64.0102 318.59 64.0102H316.1C315.542 64.0102 315.09 63.558 315.09 63.0002ZM322.56 63.0002C322.56 62.4424 323.012 61.9902 323.57 61.9902H328.55C329.108 61.9902 329.56 62.4424 329.56 63.0002C329.56 63.558 329.108 64.0102 328.55 64.0102H323.57C323.012 64.0102 322.56 63.558 322.56 63.0002ZM332.52 63.0002C332.52 62.4424 332.972 61.9902 333.53 61.9902H338.51C339.068 61.9902 339.52 62.4424 339.52 63.0002C339.52 63.558 339.068 64.0102 338.51 64.0102H333.53C332.972 64.0102 332.52 63.558 332.52 63.0002ZM342.48 63.0002C342.48 62.4424 342.932 61.9902 343.49 61.9902H348.47C349.028 61.9902 349.48 62.4424 349.48 63.0002C349.48 63.558 349.028 64.0102 348.47 64.0102H343.49C342.932 64.0102 342.48 63.558 342.48 63.0002ZM352.44 63.0002C352.44 62.4424 352.892 61.9902 353.45 61.9902H358.43C358.988 61.9902 359.44 62.4424 359.44 63.0002C359.44 63.558 358.988 64.0102 358.43 64.0102H353.45C352.892 64.0102 352.44 63.558 352.44 63.0002ZM362.4 63.0002C362.4 62.4424 362.852 61.9902 363.41 61.9902H365.9C366.458 61.9902 366.91 62.4424 366.91 63.0002C366.91 63.558 366.458 64.0102 365.9 64.0102H363.41C362.852 64.0102 362.4 63.558 362.4 63.0002Z" fill="#D9ECFA"/>
<path fill-rule="evenodd" clip-rule="evenodd" d="M398.989 63.0002C398.989 62.4424 399.441 61.9902 399.999 61.9902L402.218 61.9902C402.776 61.9902 403.228 62.4424 403.228 63.0002C403.228 63.558 402.776 64.0102 402.218 64.0102L399.999 64.0102C399.441 64.0102 398.989 63.558 398.989 63.0002ZM405.646 63.0002C405.646 62.4424 406.098 61.9902 406.656 61.9902L411.093 61.9902C411.651 61.9902 412.103 62.4424 412.103 63.0002C412.103 63.558 411.651 64.0102 411.093 64.0102L406.656 64.0102C406.098 64.0102 405.646 63.558 405.646 63.0002ZM414.521 63.0002C414.521 62.4424 414.973 61.9902 415.531 61.9902L419.968 61.9902C420.526 61.9902 420.978 62.4424 420.978 63.0002C420.978 63.558 420.526 64.0102 419.968 64.0102L415.531 64.0102C414.973 64.0102 414.521 63.558 414.521 63.0002ZM423.396 63.0002C423.396 62.4424 423.848 61.9902 424.406 61.9902L428.843 61.9902C429.401 61.9902 429.853 62.4424 429.853 63.0002C429.853 63.558 429.401 64.0102 428.843 64.0102L424.406 64.0102C423.848 64.0102 423.396 63.558 423.396 63.0002ZM432.271 63.0002C432.271 62.4424 432.723 61.9902 433.281 61.9902L437.718 61.9902C438.276 61.9902 438.728 62.4424 438.728 63.0002C438.728 63.558 438.276 64.0102 437.718 64.0102L433.281 64.0102C432.723 64.0102 432.271 63.558 432.271 63.0002ZM441.146 63.0002C441.146 62.4424 441.598 61.9902 442.156 61.9902L446.593 61.9902C447.151 61.9902 447.603 62.4424 447.603 63.0002C447.603 63.558 447.151 64.0102 446.593 64.0102L442.156 64.0102C441.598 64.0102 441.146 63.558 441.146 63.0002ZM450.021 63.0002C450.021 62.4424 450.473 61.9902 451.031 61.9902L455.468 61.9902C456.026 61.9902 456.478 62.4424 456.478 63.0002C456.478 63.558 456.026 64.0102 455.468 64.0102L451.031 64.0102C450.473 64.0102 450.021 63.558 450.021 63.0002ZM458.896 63.0002C458.896 62.4424 459.348 61.9902 459.906 61.9902L464.343 61.9902C464.901 61.9902 465.353 62.4424 465.353 63.0002C465.353 63.558 464.901 64.0102 464.343 64.0102L459.906 64.0102C459.348 64.0102 458.896 63.558 458.896 63.0002ZM467.771 63.0002C467.771 62.4424 468.223 61.9902 468.781 61.9902L470.999 61.9902C471.557 61.9902 472.009 62.4424 472.009 63.0002C472.009 63.558 471.557 64.0102 470.999 64.0102L468.781 64.0102C468.223 64.0102 467.771 63.558 467.771 63.0002Z" fill="#D9ECFA"/>
<path fill-rule="evenodd" clip-rule="evenodd" d="M183.839 63.0002C183.839 62.3591 184.359 61.8394 185 61.8394L187.375 61.8394C188.016 61.8394 188.535 62.3591 188.535 63.0002C188.535 63.6412 188.016 64.161 187.375 64.161L185 64.161C184.359 64.161 183.839 63.6412 183.839 63.0002ZM190.964 63.0002C190.964 62.3591 191.484 61.8394 192.125 61.8394L196.875 61.8394C197.516 61.8394 198.035 62.3591 198.035 63.0002C198.035 63.6412 197.516 64.161 196.875 64.161L192.125 64.161C191.484 64.161 190.964 63.6412 190.964 63.0002ZM200.464 63.0002C200.464 62.3591 200.984 61.8394 201.625 61.8394L204 61.8394C204.641 61.8394 205.16 62.3591 205.16 63.0002C205.16 63.6412 204.641 64.161 204 64.161L201.625 64.161C200.984 64.161 200.464 63.6412 200.464 63.0002Z" fill="#D9ECFA"/>
<path d="M469.4 68.6L479.5 62.8L469.4 57V68.6Z" fill="#D9ECFA"/>
<path fill-rule="evenodd" clip-rule="evenodd" d="M42.8389 63.0002C42.8389 62.3591 43.3586 61.8394 43.9997 61.8394H46.3747C47.0158 61.8394 47.5355 62.3591 47.5355 63.0002C47.5355 63.6412 47.0158 64.161 46.3747 64.161H43.9997C43.3586 64.161 42.8389 63.6412 42.8389 63.0002ZM49.9639 63.0002C49.9639 62.3591 50.4836 61.8394 51.1247 61.8394H55.8747C56.5158 61.8394 57.0355 62.3591 57.0355 63.0002C57.0355 63.6412 56.5158 64.161 55.8747 64.161H51.1247C50.4836 64.161 49.9639 63.6412 49.9639 63.0002ZM59.4639 63.0002C59.4639 62.3591 59.9836 61.8394 60.6247 61.8394H62.9997C63.6408 61.8394 64.1605 62.3591 64.1605 63.0002C64.1605 63.6412 63.6408 64.161 62.9997 64.161H60.6247C59.9836 64.161 59.4639 63.6412 59.4639 63.0002Z" fill="#D9ECFA"/>
<path fill-rule="evenodd" clip-rule="evenodd" d="M125.839 63.0002C125.839 62.3591 126.359 61.8394 127 61.8394L129.583 61.8394C130.224 61.8394 130.744 62.3591 130.744 63.0002C130.744 63.6412 130.224 64.161 129.583 64.161L127 64.161C126.359 64.161 125.839 63.6412 125.839 63.0002ZM133.589 63.0002C133.589 62.3591 134.109 61.8394 134.75 61.8394L139.916 61.8394C140.557 61.8394 141.077 62.3591 141.077 63.0002C141.077 63.6412 140.557 64.161 139.916 64.161L134.75 64.161C134.109 64.161 133.589 63.6412 133.589 63.0002ZM143.922 63.0002C143.922 62.3591 144.442 61.8394 145.083 61.8394L150.25 61.8394C150.891 61.8394 151.41 62.3591 151.41 63.0002C151.41 63.6412 150.891 64.161 150.25 64.161L145.083 64.161C144.442 64.161 143.922 63.6412 143.922 63.0002ZM154.256 63.0002C154.256 62.3591 154.775 61.8394 155.416 61.8394L158 61.8394C158.641 61.8394 159.16 62.3591 159.16 63.0002C159.16 63.6412 158.641 64.161 158 64.161L155.416 64.161C154.775 64.161 154.256 63.6412 154.256 63.0002Z" fill="#D9ECFA"/>
<path d="M119.24 62.2295V60.5407H117.905C117.626 60.5407 117.403 60.6193 117.237 60.7764C117.08 60.9247 117.002 61.1298 117.002 61.3917C117.002 61.6448 117.08 61.8499 117.237 62.007C117.403 62.1554 117.626 62.2295 117.905 62.2295H119.24ZM117.172 65.9999H115.234L116.609 63.2114C116.216 63.063 115.906 62.823 115.679 62.4914C115.453 62.1597 115.339 61.767 115.339 61.3131C115.339 60.6935 115.549 60.1829 115.968 59.7814C116.395 59.3799 116.941 59.1792 117.604 59.1792H120.916V65.9999H119.214V63.578H118.298L117.172 65.9999Z" fill="#005CA9"/>
<path d="M113.908 66.0001H112.206V59.3757H113.908V66.0001ZM113.921 58.0142H112.18V56.6265H113.921V58.0142Z" fill="#005CA9"/>
<path d="M110.952 67.6756H109.328V65.9999H104.419V59.1792H106.134V64.4944H108.32V59.1792H110.035V64.4944H110.952V67.6756Z" fill="#005CA9"/>
<path d="M102.598 65.9999H100.935V65.4107C100.699 65.6464 100.455 65.8166 100.202 65.9213C99.9574 66.0173 99.6432 66.0653 99.2592 66.0653C98.4999 66.0653 97.9195 65.8646 97.518 65.4631C97.1427 65.0704 96.9551 64.5598 96.9551 63.9314C96.9551 63.3554 97.1558 62.8841 97.5573 62.5175C97.9588 62.1422 98.5435 61.9546 99.3116 61.9546H100.896V61.6142C100.896 61.2389 100.795 60.9683 100.595 60.8025C100.394 60.6279 100.071 60.5407 99.6258 60.5407C99.0934 60.5407 98.657 60.737 98.3166 61.1298L97.2431 60.0694C97.5747 59.7028 97.9195 59.4497 98.2773 59.3101C98.6439 59.1704 99.1152 59.1006 99.6912 59.1006C101.629 59.1006 102.598 59.9035 102.598 61.5094V65.9999ZM100.896 63.4863V63.1197H99.5996C98.9275 63.1197 98.5915 63.3815 98.5915 63.9052C98.5915 64.4201 98.9363 64.6776 99.6258 64.6776C100.071 64.6776 100.407 64.5685 100.634 64.3503C100.808 64.2019 100.896 63.9139 100.896 63.4863Z" fill="#005CA9"/>
<path d="M96.4025 60.6847H94.4387V65.9999H92.7237V60.6847H90.7207V59.1792H96.4025V60.6847Z" fill="#005CA9"/>
<path d="M86.2541 65.9999H84.5391V59.1792H86.2541V65.9999ZM90.6528 65.9999H88.6105L86.2672 62.4259L88.5058 59.1792H90.4957L88.0869 62.3605L90.6528 65.9999Z" fill="#005CA9"/>
<path d="M82.704 65.9999H81.0414V65.4107C80.8057 65.6464 80.5613 65.8166 80.3082 65.9213C80.0639 66.0173 79.7497 66.0653 79.3656 66.0653C78.6063 66.0653 78.0259 65.8646 77.6245 65.4631C77.2492 65.0704 77.0615 64.5598 77.0615 63.9314C77.0615 63.3554 77.2623 62.8841 77.6637 62.5175C78.0652 62.1422 78.65 61.9546 79.418 61.9546H81.0021V61.6142C81.0021 61.2389 80.9017 60.9683 80.701 60.8025C80.5003 60.6279 80.1773 60.5407 79.7322 60.5407C79.1998 60.5407 78.7634 60.737 78.423 61.1298L77.3495 60.0694C77.6812 59.7028 78.0259 59.4497 78.3838 59.3101C78.7503 59.1704 79.2216 59.1006 79.7977 59.1006C81.7352 59.1006 82.704 59.9035 82.704 61.5094V65.9999ZM81.0021 63.4863V63.1197H79.706C79.034 63.1197 78.698 63.3815 78.698 63.9052C78.698 64.4201 79.0427 64.6776 79.7322 64.6776C80.1773 64.6776 80.5133 64.5685 80.7403 64.3503C80.9148 64.2019 81.0021 63.9139 81.0021 63.4863Z" fill="#005CA9"/>
<path d="M75.4965 65.9999H73.6767V58.3021H71.4512V61.012C71.4512 62.295 71.3377 63.3074 71.1108 64.0493C70.8926 64.7824 70.5784 65.293 70.1682 65.581C69.7667 65.8603 69.23 65.9999 68.5579 65.9999H67.8379V64.3766H68.0997C68.3528 64.3766 68.5667 64.3329 68.7412 64.2457C68.9245 64.1497 69.0903 63.9838 69.2387 63.7482C69.3958 63.5038 69.5093 63.146 69.5791 62.6747C69.6576 62.2034 69.6969 61.6142 69.6969 60.9073V56.6787H75.4965V65.9999Z" fill="#005CA9"/>
<path d="M274.645 62.2295V60.5407H273.309C273.03 60.5407 272.808 60.6193 272.642 60.7764C272.485 60.9247 272.406 61.1298 272.406 61.3917C272.406 61.6448 272.485 61.8499 272.642 62.007C272.808 62.1554 273.03 62.2295 273.309 62.2295H274.645ZM272.576 65.9999H270.639L272.013 63.2114C271.621 63.063 271.311 62.823 271.084 62.4914C270.857 62.1597 270.743 61.767 270.743 61.3131C270.743 60.6935 270.953 60.1829 271.372 59.7814C271.799 59.3799 272.345 59.1792 273.008 59.1792H276.32V65.9999H274.619V63.578H273.702L272.576 65.9999Z" fill="#005CA9"/>
<path d="M269.314 65.9999H267.599V63.2638H265.412V65.9999H263.697V59.1792H265.412V61.7582H267.599V59.1792H269.314V65.9999Z" fill="#005CA9"/>
<path d="M261.809 65.9999H260.094V63.2638H257.907V65.9999H256.192V59.1792H257.907V61.7582H260.094V59.1792H261.809V65.9999Z" fill="#005CA9"/>
<path d="M254.637 63.1197H250.369C250.369 63.5735 250.5 63.9401 250.762 64.2194C251.024 64.4987 251.39 64.6383 251.862 64.6383C252.211 64.6383 252.494 64.5903 252.712 64.4943C252.939 64.3896 253.171 64.2238 253.406 63.9968L254.441 65.0049C254.074 65.3802 253.694 65.6551 253.302 65.8297C252.918 65.9955 252.433 66.0784 251.848 66.0784C251.412 66.0784 251.015 66.026 250.657 65.9213C250.308 65.8078 249.981 65.6246 249.675 65.3715C249.37 65.1184 249.13 64.7562 248.955 64.2849C248.781 63.8136 248.693 63.2463 248.693 62.583C248.693 61.492 248.964 60.641 249.505 60.0301C250.046 59.4104 250.766 59.1006 251.665 59.1006C252.599 59.1006 253.328 59.4061 253.851 60.017C254.375 60.6192 254.637 61.4134 254.637 62.3997V63.1197ZM252.961 61.9546C252.952 61.6578 252.9 61.4134 252.804 61.2214C252.595 60.7501 252.215 60.5145 251.665 60.5145C251.115 60.5145 250.736 60.7501 250.526 61.2214C250.43 61.4134 250.378 61.6578 250.369 61.9546H252.961Z" fill="#005CA9"/>
<path d="M247.137 65.9999H245.435V63.6042C244.746 63.7263 244.126 63.7874 243.576 63.7874C243.018 63.7874 242.56 63.6216 242.202 63.29C241.844 62.9583 241.665 62.5045 241.665 61.9284V59.1792H243.367V61.4571C243.367 62.007 243.646 62.2819 244.205 62.2819C244.423 62.2819 244.833 62.2426 245.435 62.1641V59.1792H247.137V65.9999Z" fill="#005CA9"/>
<path d="M240.915 59.1792L237.996 67.0996C237.813 67.5884 237.564 67.9418 237.25 68.16C236.944 68.387 236.534 68.5004 236.019 68.5004H235.351V66.9687H235.744C235.997 66.9687 236.18 66.9251 236.294 66.8378C236.407 66.7592 236.508 66.5978 236.595 66.3534L236.883 65.5155L234.553 59.1792H236.346L237.76 63.3947L239.122 59.1792H240.915Z" fill="#005CA9"/>
<path d="M233.605 65.9999H231.903V60.6847H230.267V62.3212C230.267 63.7089 230.088 64.6689 229.73 65.2013C229.372 65.7337 228.822 65.9999 228.08 65.9999H227.269V64.4944H227.478C227.661 64.4944 227.805 64.4769 227.91 64.442C228.015 64.3984 228.128 64.3024 228.25 64.154C228.381 63.9969 228.473 63.7351 228.525 63.3685C228.586 63.0019 228.617 62.5263 228.617 61.9415V59.1792H233.605V65.9999Z" fill="#005CA9"/>
<path d="M226.783 67.6756H225.173V65.9999H221.271V67.6756H219.661V64.4944H220.355C220.8 63.7002 221.023 62.6223 221.023 61.2608V59.1792H225.919V64.4944H226.783V67.6756ZM224.217 64.4944V60.6847H222.659V61.575C222.659 62.8056 222.485 63.7787 222.135 64.4944H224.217Z" fill="#005CA9"/>
<path d="M218.544 66.0001H216.842V59.3757H218.544V66.0001ZM218.557 58.0142H216.815V56.6265H218.557V58.0142Z" fill="#005CA9"/>
<path d="M213.828 61.2215C214.125 61.3786 214.36 61.5444 214.535 61.719C214.919 62.1292 215.111 62.6659 215.111 63.3292C215.111 64.1497 214.853 64.7999 214.338 65.2799C213.823 65.7599 213.13 65.9999 212.257 65.9999H208.355V56.6787H212.1C212.981 56.6787 213.679 56.91 214.194 57.3726C214.718 57.8351 214.98 58.4592 214.98 59.2447C214.98 60.1349 214.596 60.7938 213.828 61.2215ZM210.175 60.4491H211.956C212.331 60.4491 212.623 60.3531 212.833 60.1611C213.051 59.9691 213.16 59.7072 213.16 59.3756C213.16 59.0439 213.051 58.7821 212.833 58.5901C212.623 58.3981 212.331 58.3021 211.956 58.3021H210.175V60.4491ZM210.175 64.3766H212.073C212.449 64.3766 212.746 64.2718 212.964 64.0624C213.182 63.8529 213.291 63.5736 213.291 63.2245C213.291 62.8754 213.182 62.6005 212.964 62.3997C212.746 62.1903 212.449 62.0855 212.073 62.0855H210.175V64.3766Z" fill="#005CA9"/>
<path d="M394.449 60.6847H392.486V65.9999H390.771V60.6847H388.768V59.1792H394.449V60.6847Z" fill="#005CA9"/>
<path d="M388.25 65.1489C387.657 65.7686 386.906 66.0784 385.999 66.0784C385.711 66.0784 385.431 66.0479 385.161 65.9868C384.89 65.9169 384.615 65.8035 384.336 65.6464C384.065 65.4806 383.83 65.2711 383.629 65.018C383.428 64.7562 383.262 64.4201 383.132 64.0099C383.009 63.591 382.948 63.1153 382.948 62.583C382.948 62.0506 383.009 61.5793 383.132 61.1691C383.262 60.7501 383.428 60.4141 383.629 60.161C383.83 59.9079 384.065 59.6984 384.336 59.5326C384.615 59.3668 384.89 59.2533 385.161 59.1922C385.431 59.1311 385.711 59.1006 385.999 59.1006C386.915 59.1006 387.666 59.4061 388.25 60.017L387.098 61.1691C386.767 60.8112 386.4 60.6323 385.999 60.6323C385.597 60.6323 385.274 60.7807 385.03 61.0774C384.777 61.3916 384.65 61.8935 384.65 62.583C384.65 63.2812 384.777 63.7874 385.03 64.1016C385.274 64.3983 385.597 64.5467 385.999 64.5467C386.4 64.5467 386.767 64.3678 387.098 64.0099L388.25 65.1489Z" fill="#005CA9"/>
<path d="M381.385 66.0001H379.683V59.3757H381.385V66.0001ZM381.398 58.0142H379.657V56.6265H381.398V58.0142Z" fill="#005CA9"/>
<path d="M377.446 57.5166C378.004 58.0751 378.284 58.7646 378.284 59.585C378.284 60.4055 378.004 61.0949 377.446 61.6535C376.896 62.2121 376.15 62.4914 375.207 62.4914H373.413V65.9999H371.594V56.6787H375.207C376.15 56.6787 376.896 56.958 377.446 57.5166ZM376.097 60.5145C376.342 60.2789 376.464 59.9691 376.464 59.585C376.464 59.201 376.342 58.8912 376.097 58.6555C375.853 58.4199 375.526 58.3021 375.115 58.3021H373.413V60.8549H375.115C375.526 60.8549 375.853 60.7415 376.097 60.5145Z" fill="#005CA9"/>
<path d="M75.5187 10.4024V8.71358H74.1834C73.9041 8.71358 73.6815 8.79213 73.5157 8.94923C73.3586 9.0976 73.2801 9.3027 73.2801 9.56453C73.2801 9.81764 73.3586 10.0227 73.5157 10.1798C73.6815 10.3282 73.9041 10.4024 74.1834 10.4024H75.5187ZM73.4503 14.1728H71.5127L72.8873 11.3843C72.4946 11.2359 72.1847 10.9959 71.9578 10.6642C71.7309 10.3326 71.6174 9.93982 71.6174 9.48598C71.6174 8.86631 71.8269 8.35574 72.2458 7.95426C72.6735 7.55279 73.219 7.35205 73.8823 7.35205H77.1945V14.1728H75.4925V11.7508H74.5761L73.4503 14.1728Z" fill="#005CA9"/>
<path d="M70.1876 14.1728H68.4726V11.4366H66.2863V14.1728H64.5713V7.35205H66.2863V9.9311H68.4726V7.35205H70.1876V14.1728Z" fill="#005CA9"/>
<path d="M62.6827 14.1728H60.9677V11.4366H58.7814V14.1728H57.0664V7.35205H58.7814V9.9311H60.9677V7.35205H62.6827V14.1728Z" fill="#005CA9"/>
<path d="M55.511 11.2926H51.2431C51.2431 11.7464 51.374 12.113 51.6359 12.3923C51.8977 12.6715 52.2643 12.8112 52.7355 12.8112C53.0847 12.8112 53.3683 12.7632 53.5865 12.6672C53.8134 12.5624 54.0447 12.3966 54.2804 12.1697L55.3146 13.1777C54.948 13.553 54.5684 13.828 54.1756 14.0025C53.7916 14.1683 53.3072 14.2513 52.7225 14.2513C52.2861 14.2513 51.889 14.1989 51.5311 14.0942C51.182 13.9807 50.8547 13.7974 50.5493 13.5443C50.2438 13.2912 50.0038 12.929 49.8292 12.4577C49.6547 11.9864 49.5674 11.4191 49.5674 10.7558C49.5674 9.66484 49.8379 8.81388 50.3791 8.20294C50.9202 7.58327 51.6402 7.27344 52.5392 7.27344C53.473 7.27344 54.2018 7.57891 54.7255 8.18985C55.2491 8.79206 55.511 9.58629 55.511 10.5725V11.2926ZM53.8352 10.1274C53.8265 9.83066 53.7741 9.58629 53.6781 9.39428C53.4687 8.92298 53.089 8.68733 52.5392 8.68733C51.9893 8.68733 51.6097 8.92298 51.4002 9.39428C51.3042 9.58629 51.2518 9.83066 51.2431 10.1274H53.8352Z" fill="#005CA9"/>
<path d="M49.2905 14.1728H47.3006L45.0881 10.5988L47.1959 7.35205H49.1465L46.9078 10.5333L49.2905 14.1728ZM45.075 14.1728H43.36V7.35205H45.075V14.1728ZM41.1475 14.1728H39.1445L41.5403 10.5333L39.3016 7.35205H41.2523L43.3469 10.5988L41.1475 14.1728Z" fill="#005CA9"/>
<path d="M38.9207 15.8485H37.3104V14.1728H33.4091V15.8485H31.7988V12.6672H32.4927C32.9378 11.873 33.1604 10.7951 33.1604 9.43362V7.35205H38.0566V12.6672H38.9207V15.8485ZM36.3547 12.6672V8.85758H34.7968V9.74781C34.7968 10.9784 34.6223 11.9516 34.2731 12.6672H36.3547Z" fill="#005CA9"/>
<path d="M31.1533 10.7558C31.1533 11.4104 31.0965 11.9428 30.9831 12.353C30.8784 12.7545 30.6776 13.1079 30.3809 13.4134C29.8398 13.972 29.1328 14.2513 28.26 14.2513C27.396 14.2513 26.6934 13.972 26.1523 13.4134C25.8555 13.0992 25.6504 12.7414 25.537 12.3399C25.4322 11.9297 25.3799 11.4017 25.3799 10.7558C25.3799 10.11 25.4322 9.58629 25.537 9.18481C25.6504 8.78334 25.8555 8.4255 26.1523 8.1113C26.6934 7.55272 27.396 7.27344 28.26 7.27344C29.1503 7.27344 29.8572 7.55272 30.3809 8.1113C30.6776 8.4255 30.8784 8.78334 30.9831 9.18481C31.0965 9.58629 31.1533 10.11 31.1533 10.7558ZM29.4514 10.7558C29.4514 9.90921 29.3205 9.35937 29.0586 9.10626C28.8579 8.90552 28.5917 8.80515 28.26 8.80515C27.9371 8.80515 27.6753 8.90552 27.4745 9.10626C27.2127 9.35937 27.0818 9.90921 27.0818 10.7558C27.0818 11.6111 27.2127 12.1653 27.4745 12.4184C27.6753 12.6192 27.9371 12.7195 28.26 12.7195C28.5917 12.7195 28.8579 12.6192 29.0586 12.4184C29.3205 12.1653 29.4514 11.6111 29.4514 10.7558Z" fill="#005CA9"/>
<path d="M24.0497 10.7558C24.0497 11.4627 24.0061 12.0431 23.9188 12.497C23.8315 12.9508 23.6395 13.3305 23.3428 13.636C22.95 14.0462 22.4002 14.2513 21.6932 14.2513C20.9863 14.2513 20.4365 14.0243 20.0437 13.5705V16.6732H18.3418V7.35199H19.9913V7.99347C20.419 7.51345 20.9863 7.27344 21.6932 7.27344C22.4002 7.27344 22.95 7.47854 23.3428 7.88874C23.6395 8.19421 23.8315 8.57387 23.9188 9.02771C24.0061 9.48155 24.0497 10.0576 24.0497 10.7558ZM22.3086 11.5413C22.3347 11.3318 22.3478 11.07 22.3478 10.7558C22.3478 10.4416 22.3347 10.1841 22.3086 9.9834C22.2824 9.77393 22.23 9.5732 22.1515 9.38119C22.0816 9.18918 21.9638 9.04517 21.798 8.94916C21.6409 8.85316 21.4401 8.80515 21.1958 8.80515C20.9514 8.80515 20.7463 8.85316 20.5805 8.94916C20.4234 9.04517 20.3055 9.18918 20.227 9.38119C20.1572 9.5732 20.1092 9.77393 20.083 9.9834C20.0568 10.1841 20.0437 10.4416 20.0437 10.7558C20.0437 11.07 20.0568 11.3318 20.083 11.5413C20.1092 11.742 20.1572 11.9428 20.227 12.1435C20.3055 12.3355 20.4234 12.4795 20.5805 12.5755C20.7463 12.6715 20.9514 12.7195 21.1958 12.7195C21.4401 12.7195 21.6409 12.6715 21.798 12.5755C21.9638 12.4795 22.0816 12.3355 22.1515 12.1435C22.23 11.9428 22.2824 11.742 22.3086 11.5413Z" fill="#005CA9"/>
<path d="M16.5067 14.1727H14.8441V13.5836C14.6085 13.8192 14.3641 13.9894 14.111 14.0942C13.8666 14.1902 13.5524 14.2382 13.1684 14.2382C12.4091 14.2382 11.8287 14.0374 11.4272 13.636C11.0519 13.2432 10.8643 12.7326 10.8643 12.1042C10.8643 11.5282 11.065 11.0569 11.4665 10.6903C11.8679 10.3151 12.4527 10.1274 13.2207 10.1274H14.8048V9.78702C14.8048 9.41173 14.7045 9.14117 14.5037 8.97535C14.303 8.80079 13.9801 8.71351 13.5349 8.71351C13.0026 8.71351 12.5662 8.90989 12.2258 9.30264L11.1523 8.24222C11.4839 7.87565 11.8287 7.62255 12.1865 7.4829C12.5531 7.34326 13.0244 7.27344 13.6004 7.27344C15.538 7.27344 16.5067 8.07639 16.5067 9.68229V14.1727ZM14.8048 11.6591V11.2926H13.5088C12.8367 11.2926 12.5007 11.5544 12.5007 12.0781C12.5007 12.593 12.8455 12.8505 13.5349 12.8505C13.9801 12.8505 14.3161 12.7414 14.543 12.5232C14.7176 12.3748 14.8048 12.0868 14.8048 11.6591Z" fill="#005CA9"/>
<path d="M9.31212 14.1728H7.49239V10.2715H4.33731V14.1728H2.51758V4.85156H4.33731V8.66122H7.49239V4.85156H9.31212V14.1728Z" fill="#005CA9"/>
<path d="M32.3002 58.8999C30.0002 58.8999 28.2002 60.7999 28.2002 62.9999C28.2002 65.2999 30.1002 67.0999 32.3002 67.0999C34.6002 67.0999 36.4002 65.1999 36.4002 62.9999C36.5002 60.6999 34.6002 58.8999 32.3002 58.8999Z" fill="#005CA9"/>
<path d="M32.2998 55C27.8998 55 24.2998 58.6 24.2998 63C24.2998 67.4 27.8998 71 32.2998 71C36.6998 71 40.2998 67.4 40.2998 63C40.2998 58.6 36.6998 55 32.2998 55ZM32.2998 68.7C29.1998 68.7 26.5998 66.1 26.5998 63C26.5998 59.9 29.1998 57.3 32.2998 57.3C35.3998 57.3 37.9998 59.9 37.9998 63C37.9998 66.2 35.4998 68.7 32.2998 68.7Z" fill="#D9ECFA"/>
<path fill-rule="evenodd" clip-rule="evenodd" d="M31.7002 91.1V72H33.7002V91.1H31.7002Z" fill="black"/>
<path fill-rule="evenodd" clip-rule="evenodd" d="M31.7002 53.9999V22.8999H33.7002V53.9999H31.7002Z" fill="black"/>
<path fill-rule="evenodd" clip-rule="evenodd" d="M278.989 63.0002C278.989 62.4424 279.441 61.9902 279.999 61.9902L282.374 61.9902C282.932 61.9902 283.384 62.4424 283.384 63.0002C283.384 63.558 282.932 64.0102 282.374 64.0102L279.999 64.0102C279.441 64.0102 278.989 63.558 278.989 63.0002ZM286.114 63.0002C286.114 62.4424 286.566 61.9902 287.124 61.9902L291.874 61.9902C292.432 61.9902 292.884 62.4424 292.884 63.0002C292.884 63.558 292.432 64.0102 291.874 64.0102L287.124 64.0102C286.566 64.0102 286.114 63.558 286.114 63.0002ZM295.614 63.0002C295.614 62.4424 296.066 61.9902 296.624 61.9902L298.999 61.9902C299.557 61.9902 300.009 62.4424 300.009 63.0002C300.009 63.558 299.557 64.0102 298.999 64.0102L296.624 64.0102C296.066 64.0102 295.614 63.558 295.614 63.0002Z" fill="#D9ECFA"/>
<path d="M310.9 71.5C306 71.5 301.9 67.5 301.9 62.5C301.9 57.6 305.9 53.5 310.9 53.5C315.8 53.5 319.9 57.5 319.9 62.5C319.9 67.5 315.8 71.5 310.9 71.5Z" fill="#D9ECFA"/>
<path opacity="0.69" d="M171.2 110.8H0V0H171.2V110.8Z" fill="white"/>
<path d="M171.9 71.5C167 71.5 162.9 67.5 162.9 62.5C162.9 57.6 166.9 53.5 171.9 53.5C176.8 53.5 180.9 57.5 180.9 62.5C180.8 67.5 176.8 71.5 171.9 71.5Z" fill="#D9ECFA"/>
<path fill-rule="evenodd" clip-rule="evenodd" d="M169.37 57.0698C169.663 56.7769 170.138 56.7769 170.431 57.0698L175.431 62.0698C175.572 62.2114 175.651 62.4037 175.65 62.604C175.649 62.8042 175.568 62.9957 175.425 63.1359L170.525 67.9359C170.229 68.2257 169.754 68.2208 169.465 67.9249C169.175 67.629 169.18 67.1542 169.476 66.8643L173.834 62.5946L169.37 58.1304C169.077 57.8375 169.077 57.3627 169.37 57.0698Z" fill="#005CA9"/>
<path d="M196.549 102.943C196.968 103.344 197.178 103.868 197.178 104.514C197.178 105.16 196.964 105.688 196.536 106.098C196.117 106.499 195.576 106.7 194.913 106.7H191.627V99.8794H193.342V102.341H194.913C195.585 102.341 196.13 102.541 196.549 102.943ZM194.599 103.676H193.29V105.365H194.599C194.869 105.365 195.083 105.291 195.24 105.142C195.406 104.985 195.489 104.776 195.489 104.514C195.489 104.261 195.406 104.06 195.24 103.912C195.083 103.755 194.869 103.676 194.599 103.676Z" fill="#005CA9"/>
<path d="M190.387 108.376H188.764V106.7H183.854V99.8794H185.569V105.195H187.756V99.8794H189.471V105.195H190.387V108.376Z" fill="#005CA9"/>
<path d="M180.291 102.93V101.241H178.956C178.677 101.241 178.454 101.319 178.288 101.477C178.131 101.625 178.053 101.83 178.053 102.092C178.053 102.345 178.131 102.55 178.288 102.707C178.454 102.856 178.677 102.93 178.956 102.93H180.291ZM178.223 106.7H176.285L177.66 103.912C177.267 103.763 176.957 103.523 176.73 103.192C176.503 102.86 176.39 102.467 176.39 102.013C176.39 101.394 176.599 100.883 177.018 100.482C177.446 100.08 177.991 99.8794 178.655 99.8794H181.967V106.7H180.265V104.278H179.349L178.223 106.7Z" fill="#005CA9"/>
<path d="M175.533 105.849C174.939 106.469 174.188 106.779 173.281 106.779C172.993 106.779 172.714 106.748 172.443 106.687C172.172 106.617 171.897 106.504 171.618 106.347C171.348 106.181 171.112 105.971 170.911 105.718C170.71 105.456 170.545 105.12 170.414 104.71C170.292 104.291 170.23 103.816 170.23 103.283C170.23 102.751 170.292 102.279 170.414 101.869C170.545 101.45 170.71 101.114 170.911 100.861C171.112 100.608 171.348 100.399 171.618 100.233C171.897 100.067 172.172 99.9535 172.443 99.8924C172.714 99.8313 172.993 99.8008 173.281 99.8008C174.197 99.8008 174.948 100.106 175.533 100.717L174.381 101.869C174.049 101.511 173.682 101.332 173.281 101.332C172.879 101.332 172.556 101.481 172.312 101.778C172.059 102.092 171.932 102.594 171.932 103.283C171.932 103.981 172.059 104.488 172.312 104.802C172.556 105.099 172.879 105.247 173.281 105.247C173.682 105.247 174.049 105.068 174.381 104.71L175.533 105.849Z" fill="#005CA9"/>
<path d="M168.668 106.7H166.966V100.076H168.668V106.7ZM168.681 98.7144H166.939V97.3267H168.681V98.7144Z" fill="#005CA9"/>
<path d="M165.058 106.7H163.356V102.76L162.073 105.286H161.104L159.808 102.76V106.7H158.093V99.8794H159.782L161.588 103.466L163.382 99.8794H165.058V106.7Z" fill="#005CA9"/>
<path d="M151.948 106.7H150.246V99.2117L148.348 100.861V99.0284L150.246 97.3789H151.948V106.7Z" fill="#005CA9"/>
<path fill-rule="evenodd" clip-rule="evenodd" d="M171.4 74.8394C172.041 74.8394 172.561 75.3591 172.561 76.0002V78.1002C172.561 78.7412 172.041 79.261 171.4 79.261C170.759 79.261 170.239 78.7412 170.239 78.1002V76.0002C170.239 75.3591 170.759 74.8394 171.4 74.8394ZM171.4 81.1394C172.041 81.1394 172.561 81.6591 172.561 82.3002V86.5002C172.561 87.1412 172.041 87.661 171.4 87.661C170.759 87.661 170.239 87.1412 170.239 86.5002V82.3002C170.239 81.6591 170.759 81.1394 171.4 81.1394ZM171.4 89.5394C172.041 89.5394 172.561 90.0591 172.561 90.7002V92.8002C172.561 93.4413 172.041 93.961 171.4 93.961C170.759 93.961 170.239 93.4413 170.239 92.8002V90.7002C170.239 90.0591 170.759 89.5394 171.4 89.5394Z" fill="#D9ECFA"/>
<path d="M333.342 106.7H331.64V100.076H333.342V106.7ZM333.355 98.7144H331.614V97.3267H333.355V98.7144Z" fill="#005CA9"/>
<path d="M330.387 108.376H328.764V106.7H323.854V99.8794H325.569V105.195H327.756V99.8794H329.471V105.195H330.387V108.376Z" fill="#005CA9"/>
<path d="M320.291 102.93V101.241H318.956C318.677 101.241 318.454 101.319 318.288 101.477C318.131 101.625 318.053 101.83 318.053 102.092C318.053 102.345 318.131 102.55 318.288 102.707C318.454 102.856 318.677 102.93 318.956 102.93H320.291ZM318.223 106.7H316.285L317.66 103.912C317.267 103.763 316.957 103.523 316.73 103.192C316.503 102.86 316.39 102.467 316.39 102.013C316.39 101.394 316.599 100.883 317.018 100.482C317.446 100.08 317.991 99.8794 318.655 99.8794H321.967V106.7H320.265V104.278H319.349L318.223 106.7Z" fill="#005CA9"/>
<path d="M315.533 105.849C314.939 106.469 314.188 106.779 313.281 106.779C312.993 106.779 312.714 106.748 312.443 106.687C312.172 106.617 311.897 106.504 311.618 106.347C311.348 106.181 311.112 105.971 310.911 105.718C310.71 105.456 310.545 105.12 310.414 104.71C310.292 104.291 310.23 103.816 310.23 103.283C310.23 102.751 310.292 102.279 310.414 101.869C310.545 101.45 310.71 101.114 310.911 100.861C311.112 100.608 311.348 100.399 311.618 100.233C311.897 100.067 312.172 99.9535 312.443 99.8924C312.714 99.8313 312.993 99.8008 313.281 99.8008C314.197 99.8008 314.948 100.106 315.533 100.717L314.381 101.869C314.049 101.511 313.682 101.332 313.281 101.332C312.879 101.332 312.556 101.481 312.312 101.778C312.059 102.092 311.932 102.594 311.932 103.283C311.932 103.981 312.059 104.488 312.312 104.802C312.556 105.099 312.879 105.247 313.281 105.247C313.682 105.247 314.049 105.068 314.381 104.71L315.533 105.849Z" fill="#005CA9"/>
<path d="M308.668 106.7H306.966V100.076H308.668V106.7ZM308.681 98.7144H306.939V97.3267H308.681V98.7144Z" fill="#005CA9"/>
<path d="M305.058 106.7H303.356V102.76L302.073 105.286H301.104L299.808 102.76V106.7H298.093V99.8794H299.782L301.588 103.466L303.382 99.8794H305.058V106.7Z" fill="#005CA9"/>
<path d="M293.44 106.7H287.771V105.168L291.254 101.123C291.577 100.739 291.738 100.364 291.738 99.9972C291.738 99.6481 291.638 99.3688 291.437 99.1593C291.245 98.9411 290.97 98.832 290.612 98.832C290.289 98.832 290.019 98.928 289.801 99.12C289.582 99.3033 289.473 99.6044 289.473 100.023H287.771C287.771 99.1942 288.038 98.5353 288.57 98.0465C289.111 97.549 289.792 97.3003 290.612 97.3003C291.45 97.3003 292.131 97.5447 292.655 98.0334C293.178 98.5222 293.44 99.1811 293.44 100.01C293.44 100.429 293.366 100.783 293.218 101.071C293.069 101.359 292.812 101.717 292.445 102.144L289.84 105.168H293.44V106.7Z" fill="#005CA9"/>
<path fill-rule="evenodd" clip-rule="evenodd" d="M308.475 57.0644C308.771 56.7745 309.246 56.7793 309.536 57.0752L314.436 62.0752C314.575 62.2172 314.652 62.4088 314.65 62.6078C314.648 62.8067 314.567 62.9967 314.425 63.1359L309.525 67.9359C309.229 68.2257 308.754 68.2208 308.464 67.9249C308.174 67.629 308.179 67.1542 308.475 66.8643L312.839 62.5893L308.464 58.125C308.174 57.8292 308.179 57.3544 308.475 57.0644Z" fill="#005CA9"/>
<path fill-rule="evenodd" clip-rule="evenodd" d="M310.6 74.8394C311.241 74.8394 311.761 75.3591 311.761 76.0002V78.1002C311.761 78.7412 311.241 79.261 310.6 79.261C309.959 79.261 309.439 78.7412 309.439 78.1002V76.0002C309.439 75.3591 309.959 74.8394 310.6 74.8394ZM310.6 81.1394C311.241 81.1394 311.761 81.6591 311.761 82.3002V86.5002C311.761 87.1412 311.241 87.661 310.6 87.661C309.959 87.661 309.439 87.1412 309.439 86.5002V82.3002C309.439 81.6591 309.959 81.1394 310.6 81.1394ZM310.6 89.5394C311.241 89.5394 311.761 90.0591 311.761 90.7002V92.8002C311.761 93.4413 311.241 93.961 310.6 93.961C309.959 93.961 309.439 93.4413 309.439 92.8002V90.7002C309.439 90.0591 309.959 89.5394 310.6 89.5394Z" fill="#D9ECFA"/>
</svg>
