<svg width="478" height="125" viewBox="0 0 478 125" fill="none" xmlns="http://www.w3.org/2000/svg">
<path d="M427.443 23.6094L423.795 33.507C423.609 33.9978 423.397 34.3632 423.157 34.6031C422.721 35.0394 422.11 35.2575 421.324 35.2575H420.49V33.3434H420.981C421.286 33.3434 421.51 33.2889 421.652 33.1798C421.804 33.0816 421.935 32.8799 422.044 32.5745L422.404 31.5275L419.492 23.6094H421.733L423.5 28.8772L425.202 23.6094H427.443Z" fill="#E2001A"/>
<path d="M418.6 27.8629C418.6 28.7463 418.545 29.4716 418.436 30.0388C418.327 30.6059 418.087 31.0803 417.716 31.462C417.225 31.9747 416.538 32.231 415.655 32.231C414.771 32.231 414.084 31.9474 413.594 31.3803V35.2575H411.467V23.6094H413.528V24.411C414.063 23.8112 414.771 23.5112 415.655 23.5112C416.538 23.5112 417.225 23.7675 417.716 24.2801C418.087 24.6619 418.327 25.1363 418.436 25.7034C418.545 26.2706 418.6 26.9904 418.6 27.8629ZM416.424 28.8445C416.457 28.5827 416.473 28.2555 416.473 27.8629C416.473 27.4703 416.457 27.1485 416.424 26.8977C416.391 26.6359 416.326 26.3851 416.227 26.1451C416.14 25.9052 415.993 25.7252 415.786 25.6053C415.589 25.4853 415.339 25.4253 415.033 25.4253C414.728 25.4253 414.472 25.4853 414.264 25.6053C414.068 25.7252 413.921 25.9052 413.823 26.1451C413.735 26.3851 413.675 26.6359 413.643 26.8977C413.61 27.1485 413.594 27.4703 413.594 27.8629C413.594 28.2555 413.61 28.5827 413.643 28.8445C413.675 29.0953 413.735 29.3462 413.823 29.597C413.921 29.837 414.068 30.0169 414.264 30.1369C414.472 30.2569 414.728 30.3169 415.033 30.3169C415.339 30.3169 415.589 30.2569 415.786 30.1369C415.993 30.0169 416.14 29.837 416.227 29.597C416.326 29.3462 416.391 29.0953 416.424 28.8445Z" fill="#E2001A"/>
<path d="M409.445 27.8629C409.445 28.7463 409.391 29.4716 409.282 30.0388C409.173 30.6059 408.933 31.0803 408.562 31.462C408.071 31.9747 407.384 32.231 406.501 32.231C405.617 32.231 404.93 31.9474 404.439 31.3803V35.2575H402.312V23.6094H404.374V24.411C404.908 23.8112 405.617 23.5112 406.501 23.5112C407.384 23.5112 408.071 23.7675 408.562 24.2801C408.933 24.6619 409.173 25.1363 409.282 25.7034C409.391 26.2706 409.445 26.9904 409.445 27.8629ZM407.269 28.8445C407.302 28.5827 407.319 28.2555 407.319 27.8629C407.319 27.4703 407.302 27.1485 407.269 26.8977C407.237 26.6359 407.171 26.3851 407.073 26.1451C406.986 25.9052 406.839 25.7252 406.631 25.6053C406.435 25.4853 406.184 25.4253 405.879 25.4253C405.574 25.4253 405.317 25.4853 405.11 25.6053C404.914 25.7252 404.766 25.9052 404.668 26.1451C404.581 26.3851 404.521 26.6359 404.488 26.8977C404.456 27.1485 404.439 27.4703 404.439 27.8629C404.439 28.2555 404.456 28.5827 404.488 28.8445C404.521 29.0953 404.581 29.3462 404.668 29.597C404.766 29.837 404.914 30.0169 405.11 30.1369C405.317 30.2569 405.574 30.3169 405.879 30.3169C406.184 30.3169 406.435 30.2569 406.631 30.1369C406.839 30.0169 406.986 29.837 407.073 29.597C407.171 29.3462 407.237 29.0953 407.269 28.8445Z" fill="#E2001A"/>
<path d="M399.92 32.1328H397.842V31.3475C397.286 31.9365 396.577 32.2309 395.715 32.2309C394.875 32.2309 394.205 31.9801 393.703 31.4784C393.125 30.9004 392.836 30.0933 392.836 29.0572V23.6094H394.963V28.7627C394.963 29.2971 395.099 29.6897 395.372 29.9406C395.655 30.1914 395.988 30.3169 396.37 30.3169C396.762 30.3169 397.095 30.1914 397.368 29.9406C397.651 29.6897 397.793 29.2971 397.793 28.7627V23.6094H399.92V32.1328Z" fill="#E2001A"/>
<path d="M390.138 21.5319C390.836 22.2299 391.185 23.0915 391.185 24.1167C391.185 25.1419 390.836 26.0035 390.138 26.7016C389.451 27.3996 388.518 27.7486 387.34 27.7486H385.099V32.133H382.825V20.4849H387.34C388.518 20.4849 389.451 20.8339 390.138 21.5319ZM388.453 25.2783C388.758 24.9838 388.911 24.5966 388.911 24.1167C388.911 23.6368 388.758 23.2497 388.453 22.9552C388.148 22.6607 387.739 22.5135 387.226 22.5135H385.099V25.7036H387.226C387.739 25.7036 388.148 25.5618 388.453 25.2783Z" fill="#E2001A"/>
<path d="M362.2 15.1L362 14.9C361.9 14.8 361.9 14.8 361.8 14.8C361.8 14.8 361.7 14.8 361.8 14.7H361.9L361.8 14.6C361.9 14.6 361.9 14.6 362 14.6C362 14.6 361.9 14.6 361.9 14.5C361.9 14.5 361.9 14.5 362 14.5C362 14.5 362 14.5 361.9 14.5H362C361.9 14.5 361.8 14.5 361.8 14.5C361.9 14.5 361.9 14.5 362 14.4C362 14.4 361.9 14.4 361.9 14.3C362 14.3 362 14.3 362.1 14.3C362 14.3 362 14.2 361.9 14.2H361.8C361.9 14.2 361.9 14.2 362 14.2C362 14.2 361.9 14.2 361.9 14.1C362 14.1 362 14.1 362.1 14.2C362 14.1 361.9 14 361.8 14H361.9C361.8 14 361.6 13.9 361.6 13.8C361.6 13.8 361.6 13.8 361.7 13.9C361.7 13.9 361.6 13.7 361.6 13.6C361.6 13.3 361.4 13.2 361.4 12.9C361.4 12.8 361.4 12.8 361.4 12.7C361.3 12.6 361.4 12.5 361.4 12.4C361.4 12.3 361.5 12.2 361.5 12.1C361.6 11.8 361.6 11.4 361.5 11.1C361.5 11 360.7 10.7 360 10.7C359.7 10.6 359.4 10.5 359.3 10.6C359.2 10.6 359.2 10.7 359.1 10.7L359 10.8L358.9 10.9C358.9 10.9 358.9 10.9 358.9 10.8C358.9 10.9 358.9 10.9 358.9 11L358.8 11.1C358.8 11.3 358.5 11.3 358.5 11.3C358.3 11.3 358.2 11.3 358 11.3H357.9C357.8 11.3 357.8 11.3 357.7 11.2H357.8C357.7 11.2 357.7 11.2 357.6 11.2C357.6 11.2 357.6 11.2 357.7 11.2C357.5 11.2 357.4 11.2 357.3 11.1V11.2H357.2H357.1C357.1 11.2 357.1 11.2 357 11.2H356.9C356.8 11.2 356.8 11.2 356.7 11.2C356.6 11.2 356.5 11.2 356.4 11.3C356.3 11.4 355.6 11.7 355.3 11.9C354.9 12.1 354.4 12.5 354.4 12.8C354.4 13 354.6 13.2 354.6 13.4C354.6 13.5 354.7 13.6 354.8 13.6C354.9 13.7 355 13.8 355.1 13.9C355.2 13.9 355.3 14 355.4 14C355.4 14 355.4 14.1 355.3 14.1C355.4 14.1 355.4 14.1 355.5 14.1C355.5 14.1 355.4 14.1 355.4 14.2H355.5C355.4 14.2 355.4 14.3 355.3 14.4C355.4 14.3 355.5 14.3 355.6 14.3V14.4C355.6 14.4 355.7 14.3 355.8 14.3C355.7 14.4 355.7 14.6 355.6 14.7C355.6 14.6 355.7 14.5 355.8 14.5C355.7 14.6 355.7 14.7 355.7 14.8C355.7 14.7 355.8 14.6 355.9 14.6C355.9 14.7 355.8 14.8 355.8 14.9C355.7 14.9 355.8 15.2 355.8 15.3C355.8 15.5 355.6 15.7 355.5 15.8H355.6C355.4 15.8 355.4 16.2 355.5 16.3C355.6 16.5 355.7 16.7 355.5 16.9C355.2 17.3 354.9 17.7 354.7 18.1C354.8 18 354.9 17.9 354.9 17.9C354.8 18.1 354.7 18.3 354.6 18.5C354.6 18.5 354.7 18.5 354.7 18.4L354.4 19C354.3 19.1 354.3 19.2 354.2 19.3C353.7 19.9 352.9 20.3 352.3 20.7C351.5 21.2 350.8 21.7 350.1 22.3C350 22.4 349.9 22.4 349.8 22.5C349.5 22.7 349.2 22.8 349.2 22.9C349 23.1 348.1 23.9 347.9 24.2C347.8 24.4 346.5 26 346.3 26.1C346.1 26.2 345.5 27.6 345.4 27.9C345.4 27.9 344 30.5 342.8 31.1C341.6 31.7 340.5 32.2 339.5 32.9C338.6 33.5 339.1 34.2 339.8 34.1C340.5 34 341.4 34.1 341.8 33.7C342.1 33.3 343 33.1 343.4 32.9C343.9 32.8 344.4 32.9 344.8 32.6L344.9 32.7C345 33.2 345.2 33.4 345.3 33.4C345.5 33.4 349.2 33.8 349.5 33.8C349.7 33.8 350.3 33.8 350.4 33.8C350.5 33.8 350.7 33.8 350.7 33.8C350.7 33.8 350.7 33.7 350.9 33.6C351.1 33.5 351.2 33.5 351.2 33.3C351.2 33.2 351.2 33.1 351.2 33.1C351.2 33.1 354.2 33.1 354.3 33.1C354.5 33.1 354.5 33 354.6 33C354.7 32.9 354.8 33.1 355.1 32.8L355.4 32.5L355.6 32.3C355.6 32.3 355.4 31.8 355.1 31.7C354.8 31.6 354.2 31.6 353.9 31.6C353.4 31.7 352.8 31.8 352.4 31.7C352.5 31.5 352.8 31.4 352.9 31.4C353 31.3 353.5 31.1 353.5 31C353.5 31.1 353.5 31.2 353.5 31.3C353.7 31.2 353.8 31 354 30.9C354 31 353.9 31.1 353.9 31.2C354.1 31.1 354.3 30.9 354.5 30.7V30.9C354.6 30.8 354.7 30.6 354.9 30.5C354.8 30.7 354.8 30.8 354.8 31C354.9 30.8 355.3 30.2 355.5 30.5C355.6 30.6 355.6 31 355.4 31C355.5 31 355.6 30.9 355.7 30.8L355.6 31C355.7 31 355.7 31 355.8 31C355.8 31.1 355.7 31.1 355.7 31.2C355.8 31.1 356 31.2 356.1 31.4C356.2 31.5 356.2 31.7 356.2 31.9C356.2 32.1 356.2 32.4 356.3 32.6L356.4 32.4C356.4 32.5 356.4 32.7 356.4 32.8L356.5 32.7C356.5 33 356.7 33.9 357.1 33.9C357.4 33.9 357.8 33.9 357.8 33.9C357.8 33.9 358.4 34 358.6 34H358.8C358.8 34 359 34.1 359 34C359 33.9 359.1 34 359.2 34C359.3 34 359.3 34 359.3 34C359.3 34 359.4 34.1 359.4 34C359.4 33.9 359.5 33.8 359.4 33.7C359.3 33.6 359.4 33.4 359.1 33.2C358.8 33 358.5 32.7 358.5 32.6C358.5 32.5 358 32.1 358 31.8C358 31.5 358.1 31.3 358 31C357.9 30.7 357.8 30.3 357.8 30C357.8 29.7 357.8 29.6 357.8 29.4C357.8 29.2 357.7 29.1 357.8 28.8C357.9 28.5 358 28.2 358.3 28C358.3 28.1 358.2 28.3 358.1 28.4C358.3 28.1 358.5 27.8 358.7 27.6C358.8 28 358.8 28.4 358.8 28.8C358.8 29 359 29.7 358.8 29.9C358.9 29.8 359 29.7 359 29.5C359 29.6 359 29.8 359 29.9L359.1 29.8C359.1 29.9 359 30.1 359 30.2L359.1 30.1C359.1 30.2 359.1 30.4 359.1 30.5H359.2C359.1 30.5 359.3 31.2 359.3 31.3C359.3 31.6 359.4 32.1 359.3 32.3C359.3 32.2 359.4 32 359.5 31.9C359.5 32 359.5 32.2 359.5 32.3L359.6 32.2C359.6 32.3 359.6 32.4 359.6 32.4C359.6 32.3 359.9 32.4 359.9 32.4C360 32.5 360.1 32.6 360.1 32.7C360.2 33 360.2 33.3 360.3 33.4C360.4 33.5 360.6 33.5 360.8 33.5C361 33.5 361.5 33.6 361.6 33.5C361.7 33.5 361.9 33.5 362 33.5C362.1 33.5 362.3 33.6 362.3 33.6C362.1 33.5 362.1 33.5 362.3 33.5C362.4 33.5 362.4 33.4 362.3 33.3C362.3 33.2 362.2 33.1 362.1 32.9C362 32.7 361.7 32.3 361.5 32.2C361.3 32 360.9 31.4 360.9 31.2C360.9 31 360.7 29.7 360.7 29.3C360.7 28.9 360.5 28.3 360.5 28C360.5 27.7 360.3 26.5 360.4 26.1C360.5 25.6 360.8 24.8 361 24.3C361.1 24.1 361.1 23.8 361.1 23.6V23.7C361.1 23.6 361.2 23.5 361.2 23.4C361.2 23.5 361.3 23.6 361.3 23.7C361.3 23.3 361.2 22.9 361.2 22.6C361.3 22.6 361.3 22.7 361.3 22.8C361.3 22.5 361.3 22.2 361.2 21.9C361.1 21.4 361 21 360.9 20.5C360.9 20.4 360.9 20.3 360.9 20.2C360.9 20.1 360.9 20 360.8 19.9C360.7 19.6 360.4 18.7 360.7 18.4C360.8 18.5 360.8 18.6 360.9 18.7C360.8 18.4 360.7 18 360.7 17.7C360.7 17.6 360.8 17.6 360.8 17.5V17.6L360.9 17.5C360.9 17.6 360.9 17.6 360.9 17.7C361 17.7 361 17.6 361.1 17.5C361.1 17.5 361.2 17.5 361.2 17.4C361.2 17.5 361.2 17.5 361.2 17.6C361.2 17.5 361.3 17.4 361.3 17.4L361.5 17.3C361.5 17.3 361.5 17.2 361.6 17.2V17.1C361.6 17.1 361.7 17.1 361.7 17.2C361.7 17.1 361.7 17.1 361.7 17C361.7 17 361.7 17 361.8 17C361.8 17 361.8 17 361.8 16.9L361.9 17V16.9L362 17C362 17 362 17 362 17.1V17.2C362 17 361.9 16.9 361.8 16.7C361.8 16.7 361.8 16.7 361.9 16.7C361.9 16.7 361.9 16.6 361.8 16.6C361.8 16.6 361.8 16.6 361.9 16.7V16.8C361.9 16.7 361.9 16.6 361.8 16.6C361.9 16.6 361.9 16.7 362 16.8V16.7C362 16.7 362 16.6 361.9 16.6C361.9 16.6 361.9 16.6 362 16.6C362 16.6 362 16.6 362 16.5V16.4L362.1 16.5C362.1 16.4 362 16.3 362 16.2C362.1 16.2 362.1 16.3 362.2 16.4C362.2 16.2 362.1 16 362 15.9C362.1 15.9 362.2 16 362.2 16C362.2 15.9 362.2 15.9 362.1 15.8L362 15.7C362 15.7 362 15.7 361.9 15.6C361.9 15.6 361.9 15.6 361.9 15.5C362 15.5 362 15.6 362.1 15.6C362.1 15.5 362 15.4 361.9 15.3H362C362 15.3 362 15.2 361.9 15.2C362.1 15.1 362.1 15.1 362.2 15.1C362.2 15.2 362.2 15.2 362.3 15.2C362.3 15.2 362.3 15.2 362.3 15.3C362.3 15.2 362.3 15.2 362.2 15.1Z" fill="#D9ECFA"/>
<path d="M375.1 28.3998C375.1 28.2998 375.1 28.2998 375 28.1998C375 28.1998 374.9 28.0998 374.9 27.9998L374.8 27.8998C374.8 27.8998 374.8 27.8998 374.8 27.7998L374.7 27.6998V27.5998C374.7 27.5998 374.7 27.5998 374.7 27.4998V27.3998C374.7 27.2998 374.7 27.2998 374.8 27.1998V27.0998C374.8 27.0998 374.8 26.9998 374.8 26.8998C374.8 26.7998 374.8 26.7998 374.7 26.6998C374.7 26.5998 374.6 26.4998 374.6 26.4998C374.6 26.3998 374.5 26.3998 374.5 26.2998L374.4 26.1998C374.4 26.1998 374.4 26.1998 374.3 26.0998L374.2 25.9998L374.1 25.8998L374 25.7998C374 25.7998 373.9 25.7998 373.9 25.6998C373.8 25.5998 373.7 25.5998 373.7 25.4998C373.6 25.4998 373.6 25.3998 373.5 25.3998C373.4 25.3998 373.4 25.3998 373.3 25.3998C373.3 25.3998 373.2 25.3998 373.1 25.3998H373C372.9 25.3998 372.9 25.3998 372.8 25.3998C372.8 25.3998 372.8 25.3998 372.7 25.3998C372.7 25.3998 372.7 25.3998 372.6 25.3998C372.5 25.3998 372.4 25.2998 372.3 25.2998H372.2C372.1 25.2998 372 25.2998 372 25.2998H371.9H371.8C371.8 25.2998 371.8 25.2998 371.7 25.2998C371.7 25.2998 371.7 25.2998 371.7 25.3998L371.6 25.4998C371.5 25.4998 371.5 25.4998 371.4 25.5998C371.4 25.5998 371.3 25.5998 371.3 25.6998H371.2C371.2 25.6998 371.1 25.6998 371.1 25.7998H371C371 25.7998 371 25.7998 370.9 25.7998C370.9 25.7998 370.9 25.7998 370.9 25.8998C370.9 25.8998 370.8 25.8998 370.8 25.9998C370.8 25.9998 370.8 25.9998 370.7 25.9998C370.7 25.9998 370.7 25.9998 370.6 25.9998C370.6 25.9998 370.5 26.0998 370.4 26.0998C370.4 26.0998 370.3 26.0998 370.3 26.1998H370.2C370.2 26.1998 370.2 26.1998 370.1 26.1998V26.2998V26.3998V26.4998V26.5998C370.1 26.5998 370.1 26.5998 370.2 26.5998C370.2 26.5998 370.2 26.6998 370.3 26.6998C370.3 26.6998 370.3 26.6998 370.3 26.7998C370.4 26.8998 370.4 26.9998 370.2 27.0998C370.1 27.0998 370.1 27.0998 370 27.1998C369.9 27.1998 369.9 27.1998 369.8 27.2998C369.7 27.2998 369.7 27.2998 369.6 27.2998H369.5H369.4C369.3 27.2998 369.2 27.2998 369.1 27.2998C369 27.2998 368.8 27.2998 368.7 27.3998H368.6C368.3 27.3998 368.1 27.3998 367.8 27.3998C367.5 27.3998 367.3 27.3998 367 27.3998C366.8 27.3998 366.7 27.3998 366.5 27.4998C366.4 27.4998 366.4 27.4998 366.3 27.4998H366.2H366.1C366 27.4998 366 27.4998 365.9 27.4998H365.8C365.8 27.4998 365.7 27.4998 365.6 27.4998C365.5 27.4998 365.5 27.4998 365.4 27.4998C365.3 27.4998 365.3 27.4998 365.3 27.4998H365.2C365.2 27.4998 365.2 27.4998 365.1 27.4998C365 27.3998 364.9 27.3998 364.8 27.2998C364.7 27.2998 364.7 27.1998 364.6 27.1998C364.6 27.1998 364.5 27.1998 364.5 27.0998L364.4 26.9998C364.4 26.9998 364.4 26.9998 364.4 26.8998V26.7998C364.4 26.6998 364.3 26.5998 364.3 26.4998C364.3 26.3998 364.2 26.2998 364.2 26.1998V26.0998C364.2 26.0998 364.2 26.0998 364.2 25.9998C364.2 25.9998 364.2 25.9998 364.2 25.8998V25.7998H364.1C364 25.7998 363.9 25.8998 363.9 25.8998C363.9 25.8998 363.8 25.9998 363.8 26.0998C363.8 26.1998 363.7 26.1998 363.7 26.2998V26.3998V26.4998V26.5998C363.7 26.6998 363.7 26.7998 363.7 26.8998C363.7 26.9998 363.7 27.0998 363.7 27.1998V27.2998C363.7 27.2998 363.7 27.2998 363.7 27.3998C363.7 27.4998 363.8 27.5998 363.8 27.6998C363.8 27.6998 363.7 27.6998 363.7 27.5998C363.7 27.6998 363.8 27.7998 363.8 27.7998C363.9 27.8998 364 27.8998 364 27.9998C363.9 27.9998 363.9 27.9998 363.8 27.9998C363.8 27.9998 363.8 27.9998 363.8 28.0998C363.8 28.0998 363.8 28.0998 363.9 28.1998C363.9 28.1998 363.9 28.1998 363.9 28.2998C363.9 28.2998 363.9 28.2998 364 28.3998C364 28.3998 364 28.3998 364.1 28.4998C364.1 28.4998 364.1 28.5998 364.2 28.5998C364.2 28.5998 364.2 28.5998 364.3 28.5998C364.3 28.5998 364.3 28.5998 364.3 28.6998C364.3 28.7998 364.3 28.7998 364.3 28.8998V28.9998V29.0998V29.1998V29.2998C364.3 29.4998 364.2 29.6998 364.2 29.8998C364.2 29.8998 364.2 29.8998 364.3 29.7998C364.3 29.8998 364.3 29.9998 364.3 30.0998C364.3 30.0998 364.3 30.1998 364.4 30.1998C364.4 30.2998 364.4 30.2998 364.4 30.3998C364.4 30.4998 364.4 30.4998 364.4 30.5998C364.4 30.6998 364.4 30.6998 364.4 30.6998C364.4 30.6998 364.4 30.6998 364.4 30.7998C364.4 30.8998 364.3 30.8998 364.3 30.9998L364.2 31.0998L364.1 31.1998V31.2998V31.3998V31.4998C364.1 31.5998 364.1 31.6998 364.1 31.7998C364.1 31.8998 364.1 31.8998 364.1 31.9998V32.0998H364.2C364.2 32.1998 364.2 32.1998 364.2 32.2998C364.2 32.3998 364.2 32.3998 364.2 32.4998V32.5998C364.2 32.6998 364.2 32.7998 364.2 32.8998C364.2 32.9998 364.2 32.9998 364.2 33.0998C364.2 33.1998 364.2 33.2998 364.2 33.3998C364.2 33.4998 364.2 33.5998 364.3 33.5998L364.4 33.6998C364.5 33.7998 364.5 33.7998 364.6 33.8998C364.6 33.8998 364.6 33.8998 364.7 33.8998C364.8 33.8998 364.8 33.8998 364.9 33.8998C364.9 33.8998 365 33.8998 365 33.9998C365.1 33.9998 365.1 33.9998 365.2 33.9998C365.3 33.9998 365.4 33.9998 365.4 33.8998V33.7998V33.6998V33.5998V33.4998C365.4 33.3998 365.4 33.2998 365.4 33.1998C365.4 33.0998 365.3 32.9998 365.3 32.9998C365.3 32.9998 365.3 32.9998 365.3 32.8998V32.7998C365.3 32.6998 365.3 32.6998 365.3 32.5998V32.4998C365.3 32.3998 365.3 32.3998 365.3 32.2998C365.3 32.2998 365.3 32.2998 365.3 32.1998C365.3 32.1998 365.3 32.1998 365.3 32.0998L365.4 31.9998C365.5 31.9998 365.5 31.8998 365.6 31.8998H365.7C365.7 31.8998 365.8 31.8998 365.8 31.7998C365.8 31.7998 365.8 31.7998 365.9 31.7998C365.9 31.8998 365.8 31.9998 365.8 32.0998C365.8 32.1998 365.7 32.1998 365.8 32.2998C365.8 32.3998 365.9 32.4998 365.9 32.5998V32.6998V32.7998V32.8998V32.9998C365.9 33.0998 365.9 33.0998 366 33.1998C366.1 33.1998 366 33.2998 366.1 33.2998C366.1 33.2998 366.1 33.3998 366.2 33.3998L366.3 33.4998C366.3 33.4998 366.4 33.4998 366.4 33.5998C366.4 33.6998 366.5 33.7998 366.5 33.7998H366.6H366.7C366.8 33.8998 367 33.8998 367.1 33.8998C367.2 33.8998 367.2 33.8998 367.3 33.8998C367.4 33.8998 367.4 33.8998 367.5 33.8998H367.6H367.7H367.8H367.9V33.7998C367.9 33.7998 367.9 33.7998 367.9 33.6998V33.5998C367.9 33.5998 367.9 33.4998 367.8 33.4998C367.8 33.4998 367.8 33.3998 367.7 33.3998C367.7 33.3998 367.7 33.3998 367.6 33.2998H367.5H367.4C367.3 33.2998 367.3 33.2998 367.2 33.2998C367.2 33.2998 367.1 33.2998 367.1 33.1998C367.1 33.1998 367.1 33.0998 367 33.0998C367 33.0998 367 33.0998 367 32.9998L366.9 32.8998C366.8 32.7998 366.8 32.7998 366.8 32.6998C366.8 32.6998 366.8 32.6998 366.8 32.5998C366.8 32.5998 366.8 32.5998 366.8 32.4998V32.3998V32.2998L366.9 32.1998C367 32.0998 367.1 31.9998 367.1 31.9998C367.1 31.9998 367.1 31.8998 367.2 31.9998C367.3 31.9998 367.3 31.9998 367.4 31.9998C367.4 31.9998 367.4 31.9998 367.5 31.9998H367.6H367.7C367.8 31.9998 367.8 31.9998 367.9 31.9998C367.9 31.9998 367.9 31.9998 367.8 31.9998C367.8 31.9998 367.8 31.9998 367.9 31.9998C367.9 31.9998 367.9 31.9998 368 31.9998H368.1H368.2C368.2 31.9998 368.2 31.9998 368.3 31.9998H368.4C368.5 32.0998 368.4 32.1998 368.4 32.1998C368.4 32.1998 368.4 32.1998 368.4 32.2998V32.3998C368.4 32.3998 368.4 32.4998 368.3 32.4998C368.3 32.4998 368.3 32.4998 368.2 32.5998H368.3V32.6998V32.7998C368.3 32.6998 368.3 32.7998 368.3 32.8998C368.3 32.9998 368.3 32.9998 368.3 33.0998C368.3 33.1998 368.3 33.1998 368.3 33.2998C368.3 33.4998 368.3 33.5998 368.4 33.6998C368.4 33.7998 368.4 33.8998 368.5 33.9998C368.5 34.0998 368.5 34.0998 368.6 34.1998C368.7 34.1998 368.7 34.2998 368.8 34.2998C368.8 34.2998 368.9 34.2998 369 34.2998C369.1 34.2998 369.1 34.2998 369.2 34.3998C369.3 34.3998 369.4 34.4998 369.6 34.3998C369.7 34.3998 369.9 34.3998 370 34.3998C370 34.3998 370 34.3998 370.1 34.3998C370.2 34.3998 370.2 34.3998 370.3 34.3998C370.4 34.3998 370.4 34.1998 370.4 34.0998C370.4 33.9998 370.3 33.9998 370.3 33.8998V33.7998C370.3 33.7998 370.3 33.6998 370.2 33.6998C370.2 33.6998 370.2 33.6998 370.1 33.5998C370.1 33.5998 370.1 33.5998 370 33.5998C369.9 33.4998 369.8 33.4998 369.7 33.4998H369.6V33.3998V33.2998V33.1998C369.6 33.0998 369.6 33.0998 369.7 32.9998C369.8 32.7998 369.8 32.4998 369.9 32.2998V32.1998H370C370 32.1998 370 32.1998 370.1 32.1998H370.2C370.3 32.1998 370.3 32.1998 370.4 32.0998C370.4 32.0998 370.4 32.0998 370.3 32.1998C370.3 32.1998 370.3 32.1998 370.4 32.1998H370.5H370.6V32.2998H370.7L370.8 32.1998C370.8 32.1998 370.8 32.1998 370.9 32.1998L371 32.0998H371.1C371.1 32.0998 371.1 32.0998 371.2 32.0998C371.2 32.0998 371.2 32.0998 371.2 32.1998C371.2 32.1998 371.2 32.1998 371.2 32.2998C371.2 32.3998 371.2 32.4998 371.2 32.4998C371.2 32.5998 371.2 32.5998 371.2 32.6998C371.2 32.6998 371.2 32.5998 371.3 32.5998V32.6998V32.7998V32.8998V32.9998C371.3 32.9998 371.3 32.9998 371.4 32.9998C371.4 33.0998 371.5 33.0998 371.5 33.1998C371.5 33.1998 371.5 33.1998 371.5 33.2998C371.5 33.2998 371.5 33.2998 371.6 33.2998V33.3998C371.6 33.4998 371.6 33.4998 371.6 33.4998C371.6 33.4998 371.6 33.4998 371.6 33.5998C371.6 33.5998 371.7 33.5998 371.7 33.6998C371.7 33.6998 371.7 33.7998 371.8 33.7998C371.8 33.8998 371.9 33.8998 371.9 33.9998C372 33.9998 372.1 33.9998 372.1 34.0998C372.2 34.1998 372.2 34.0998 372.3 34.0998H372.4H372.5H372.6C372.6 34.0998 372.6 34.0998 372.7 34.0998H372.8H372.9H373H373.1C373.1 34.0998 373.1 34.0998 373.1 33.9998V33.8998C373.1 33.7998 373.1 33.7998 373 33.6998V33.5998V33.4998V33.3998C373 33.3998 373 33.3998 372.9 33.3998C372.9 33.3998 372.9 33.3998 372.8 33.3998C372.7 33.3998 372.7 33.3998 372.6 33.3998V33.2998C372.6 33.2998 372.6 33.1998 372.5 33.1998V33.0998C372.5 32.9998 372.4 32.8998 372.4 32.8998C372.4 32.7998 372.3 32.5998 372.3 32.4998C372.3 32.4998 372.3 32.4998 372.3 32.3998V32.2998C372.3 32.1998 372.3 32.0998 372.3 31.9998V31.8998C372.3 31.8998 372.3 31.8998 372.3 31.7998C372.3 31.6998 372.3 31.6998 372.3 31.5998C372.3 31.4998 372.3 31.4998 372.3 31.3998C372.3 31.3998 372.3 31.3998 372.3 31.2998V31.1998V31.0998C372.3 31.0998 372.3 31.0998 372.3 30.9998C372.3 30.9998 372.3 31.0998 372.4 31.0998C372.4 30.9998 372.4 30.9998 372.4 30.8998V30.7998C372.4 30.6998 372.4 30.6998 372.4 30.5998V30.4998C372.4 30.3998 372.4 30.3998 372.4 30.2998V30.1998C372.4 30.1998 372.4 30.1998 372.4 30.0998V29.9998C372.4 29.9998 372.4 29.9998 372.4 29.8998C372.4 29.8998 372.4 29.8998 372.4 29.7998C372.4 29.7998 372.4 29.7998 372.4 29.6998C372.4 29.5998 372.4 29.5998 372.5 29.4998C372.5 29.3998 372.6 29.4998 372.6 29.4998H372.7H372.8C372.8 29.4998 372.8 29.4998 372.9 29.4998C372.9 29.4998 372.9 29.4998 373 29.4998H373.1C373.2 29.4998 373.2 29.4998 373.3 29.5998H373.4H373.5C373.5 29.5998 373.5 29.5998 373.6 29.5998C373.7 29.5998 373.7 29.5998 373.8 29.4998C373.8 29.4998 373.8 29.4998 373.9 29.4998C374 29.4998 374 29.3998 374 29.3998C374.1 29.3998 374.1 29.3998 374.1 29.2998C374.1 29.2998 374.1 29.2998 374.2 29.2998L374.3 29.1998C374.3 29.1998 374.3 29.1998 374.4 29.1998C374.4 29.1998 374.4 29.1998 374.5 29.1998C374.5 29.1998 374.5 29.1998 374.5 29.0998C374.5 29.0998 374.5 29.0998 374.5 28.9998C375.1 28.5998 375.1 28.5998 375.1 28.3998C375.1 28.4998 375.1 28.4998 375.1 28.3998Z" fill="#007ABD"/>
<path d="M313.301 49.3998L459.301 48.7998V61.9998L313.301 62.5998" fill="#007ABD"/>
<path fill-rule="evenodd" clip-rule="evenodd" d="M168.1 48.3984V62.5981L30.4021 63.0999L30.3985 62.0999L167.1 61.6017V49.4014L30.3017 49.7999L30.2988 48.7999L168.1 48.3984Z" fill="#D9ECFA"/>
<path fill-rule="evenodd" clip-rule="evenodd" d="M172.076 48.8477L310.276 48.3538L310.327 62.5538L172.127 63.0477L172.076 48.8477ZM173.08 49.8441L173.123 62.0441L309.323 61.5574L309.28 49.3574L173.08 49.8441Z" fill="#D9ECFA"/>
<path fill-rule="evenodd" clip-rule="evenodd" d="M276.989 77.0002C276.989 76.4424 277.441 75.9902 277.999 75.9902L280.249 75.9902C280.807 75.9902 281.259 76.4424 281.259 77.0002C281.259 77.558 280.807 78.0102 280.249 78.0102L277.999 78.0102C277.441 78.0102 276.989 77.558 276.989 77.0002ZM283.739 77.0002C283.739 76.4424 284.191 75.9902 284.749 75.9902L289.249 75.9902C289.807 75.9902 290.259 76.4424 290.259 77.0002C290.259 77.558 289.807 78.0102 289.249 78.0102L284.749 78.0102C284.191 78.0102 283.739 77.558 283.739 77.0002ZM292.739 77.0002C292.739 76.4424 293.191 75.9902 293.749 75.9902L295.999 75.9902C296.557 75.9902 297.009 76.4424 297.009 77.0002C297.009 77.558 296.557 78.0102 295.999 78.0102L293.749 78.0102C293.191 78.0102 292.739 77.558 292.739 77.0002Z" fill="#D9ECFA"/>
<path fill-rule="evenodd" clip-rule="evenodd" d="M320.989 77.0002C320.989 76.4424 321.441 75.9902 321.999 75.9902L324.349 75.9902C324.907 75.9902 325.359 76.4424 325.359 77.0002C325.359 77.558 324.907 78.0102 324.349 78.0102L321.999 78.0102C321.441 78.0102 320.989 77.558 320.989 77.0002ZM328.039 77.0002C328.039 76.4424 328.491 75.9902 329.049 75.9902L333.749 75.9902C334.307 75.9902 334.759 76.4424 334.759 77.0002C334.759 77.558 334.307 78.0102 333.749 78.0102L329.049 78.0102C328.491 78.0102 328.039 77.558 328.039 77.0002ZM337.439 77.0002C337.439 76.4424 337.891 75.9902 338.449 75.9902L343.149 75.9902C343.707 75.9902 344.159 76.4424 344.159 77.0002C344.159 77.558 343.707 78.0102 343.149 78.0102L338.449 78.0102C337.891 78.0102 337.439 77.558 337.439 77.0002ZM346.839 77.0002C346.839 76.4424 347.291 75.9902 347.849 75.9902L352.549 75.9902C353.107 75.9902 353.559 76.4424 353.559 77.0002C353.559 77.558 353.107 78.0102 352.549 78.0102L347.849 78.0102C347.291 78.0102 346.839 77.558 346.839 77.0002ZM356.239 77.0002C356.239 76.4424 356.691 75.9902 357.249 75.9902L361.949 75.9902C362.507 75.9902 362.959 76.4424 362.959 77.0002C362.959 77.558 362.507 78.0102 361.949 78.0102L357.249 78.0102C356.691 78.0102 356.239 77.558 356.239 77.0002ZM365.639 77.0002C365.639 76.4424 366.091 75.9902 366.649 75.9902L368.999 75.9902C369.557 75.9902 370.009 76.4424 370.009 77.0002C370.009 77.558 369.557 78.0102 368.999 78.0102L366.649 78.0102C366.091 78.0102 365.639 77.558 365.639 77.0002Z" fill="#D9ECFA"/>
<path fill-rule="evenodd" clip-rule="evenodd" d="M400.989 77.0002C400.989 76.4424 401.441 75.9902 401.999 75.9902L404.464 75.9902C405.021 75.9902 405.474 76.4424 405.474 77.0002C405.474 77.558 405.021 78.0102 404.464 78.0102L401.999 78.0102C401.441 78.0102 400.989 77.558 400.989 77.0002ZM408.382 77.0002C408.382 76.4424 408.834 75.9902 409.392 75.9902L414.321 75.9902C414.878 75.9902 415.331 76.4424 415.331 77.0002C415.331 77.558 414.878 78.0102 414.321 78.0102L409.392 78.0102C408.834 78.0102 408.382 77.558 408.382 77.0002ZM418.239 77.0002C418.239 76.4424 418.691 75.9902 419.249 75.9902L424.178 75.9902C424.736 75.9902 425.188 76.4424 425.188 77.0002C425.188 77.558 424.736 78.0102 424.178 78.0102L419.249 78.0102C418.691 78.0102 418.239 77.558 418.239 77.0002ZM428.096 77.0002C428.096 76.4424 428.549 75.9902 429.106 75.9902L434.035 75.9902C434.593 75.9902 435.045 76.4424 435.045 77.0002C435.045 77.558 434.593 78.0102 434.035 78.0102L429.106 78.0102C428.549 78.0102 428.096 77.558 428.096 77.0002ZM437.954 77.0002C437.954 76.4424 438.406 75.9902 438.964 75.9902L443.892 75.9902C444.45 75.9902 444.902 76.4424 444.902 77.0002C444.902 77.558 444.45 78.0102 443.892 78.0102L438.964 78.0102C438.406 78.0102 437.954 77.558 437.954 77.0002ZM447.811 77.0002C447.811 76.4424 448.263 75.9902 448.821 75.9902L453.749 75.9902C454.307 75.9902 454.759 76.4424 454.759 77.0002C454.759 77.558 454.307 78.0102 453.749 78.0102L448.821 78.0102C448.263 78.0102 447.811 77.558 447.811 77.0002ZM457.668 77.0002C457.668 76.4424 458.12 75.9902 458.678 75.9902L463.606 75.9902C464.164 75.9902 464.616 76.4424 464.616 77.0002C464.616 77.558 464.164 78.0102 463.606 78.0102L458.678 78.0102C458.12 78.0102 457.668 77.558 457.668 77.0002ZM467.525 77.0002C467.525 76.4424 467.977 75.9902 468.535 75.9902L470.999 75.9902C471.557 75.9902 472.009 76.4424 472.009 77.0002C472.009 77.558 471.557 78.0102 470.999 78.0102L468.535 78.0102C467.977 78.0102 467.525 77.558 467.525 77.0002Z" fill="#D9ECFA"/>
<path fill-rule="evenodd" clip-rule="evenodd" d="M180.839 77.0002C180.839 76.3591 181.359 75.8394 182 75.8394L184.375 75.8394C185.016 75.8394 185.535 76.3591 185.535 77.0002C185.535 77.6412 185.016 78.161 184.375 78.161L182 78.161C181.359 78.161 180.839 77.6412 180.839 77.0002ZM187.964 77.0002C187.964 76.3591 188.484 75.8394 189.125 75.8394L193.875 75.8394C194.516 75.8394 195.035 76.3591 195.035 77.0002C195.035 77.6412 194.516 78.161 193.875 78.161L189.125 78.161C188.484 78.161 187.964 77.6412 187.964 77.0002ZM197.464 77.0002C197.464 76.3591 197.984 75.8394 198.625 75.8394L201 75.8394C201.641 75.8394 202.16 76.3591 202.16 77.0002C202.16 77.6412 201.641 78.161 201 78.161L198.625 78.161C197.984 78.161 197.464 77.6412 197.464 77.0002Z" fill="#D9ECFA"/>
<path d="M467.1 83.1L477.1 77.3L467.1 71.5V83.1Z" fill="#D9ECFA"/>
<path fill-rule="evenodd" clip-rule="evenodd" d="M39.8389 77.0002C39.8389 76.3591 40.3586 75.8394 40.9997 75.8394H43.2497C43.8908 75.8394 44.4105 76.3591 44.4105 77.0002C44.4105 77.6412 43.8908 78.161 43.2497 78.161H40.9997C40.3586 78.161 39.8389 77.6412 39.8389 77.0002ZM46.5889 77.0002C46.5889 76.3591 47.1086 75.8394 47.7497 75.8394H52.2497C52.8908 75.8394 53.4105 76.3591 53.4105 77.0002C53.4105 77.6412 52.8908 78.161 52.2497 78.161H47.7497C47.1086 78.161 46.5889 77.6412 46.5889 77.0002ZM55.5889 77.0002C55.5889 76.3591 56.1086 75.8394 56.7497 75.8394H58.9997C59.6408 75.8394 60.1605 76.3591 60.1605 77.0002C60.1605 77.6412 59.6408 78.161 58.9997 78.161H56.7497C56.1086 78.161 55.5889 77.6412 55.5889 77.0002Z" fill="#D9ECFA"/>
<path fill-rule="evenodd" clip-rule="evenodd" d="M123.839 77.0002C123.839 76.3591 124.359 75.8394 125 75.8394L127.5 75.8394C128.141 75.8394 128.66 76.3591 128.66 77.0002C128.66 77.6412 128.141 78.161 127.5 78.161L125 78.161C124.359 78.161 123.839 77.6412 123.839 77.0002ZM131.339 77.0002C131.339 76.3591 131.859 75.8394 132.5 75.8394L137.5 75.8394C138.141 75.8394 138.66 76.3591 138.66 77.0002C138.66 77.6412 138.141 78.161 137.5 78.161L132.5 78.161C131.859 78.161 131.339 77.6412 131.339 77.0002ZM141.339 77.0002C141.339 76.3591 141.859 75.8394 142.5 75.8394L147.5 75.8394C148.141 75.8394 148.66 76.3591 148.66 77.0002C148.66 77.6412 148.141 78.161 147.5 78.161L142.5 78.161C141.859 78.161 141.339 77.6412 141.339 77.0002ZM151.339 77.0002C151.339 76.3591 151.859 75.8394 152.5 75.8394L155 75.8394C155.641 75.8394 156.16 76.3591 156.16 77.0002C156.16 77.6413 155.641 78.161 155 78.161L152.5 78.161C151.859 78.161 151.339 77.6412 151.339 77.0002Z" fill="#D9ECFA"/>
<path d="M116.914 76.0347V74.3459H115.579C115.3 74.3459 115.077 74.4245 114.911 74.5816C114.754 74.7299 114.676 74.935 114.676 75.1969C114.676 75.45 114.754 75.6551 114.911 75.8122C115.077 75.9605 115.3 76.0347 115.579 76.0347H116.914ZM114.846 79.8051H112.908L114.283 77.0166C113.89 76.8682 113.58 76.6282 113.353 76.2966C113.126 75.9649 113.013 75.5721 113.013 75.1183C113.013 74.4986 113.222 73.9881 113.641 73.5866C114.069 73.1851 114.614 72.9844 115.278 72.9844H118.59V79.8051H116.888V77.3832H115.972L114.846 79.8051Z" fill="#007ABD"/>
<path d="M111.582 79.8052H109.88V73.1809H111.582V79.8052ZM111.595 71.8194H109.854V70.4316H111.595V71.8194Z" fill="#007ABD"/>
<path d="M108.625 81.4808H107.002V79.8051H102.093V72.9844H103.808V78.2996H105.994V72.9844H107.709V78.2996H108.625V81.4808Z" fill="#007ABD"/>
<path d="M100.271 79.805H98.6088V79.2159C98.3731 79.4516 98.1287 79.6218 97.8756 79.7265C97.6312 79.8225 97.317 79.8705 96.933 79.8705C96.1737 79.8705 95.5933 79.6698 95.1918 79.2683C94.8166 78.8755 94.6289 78.365 94.6289 77.7366C94.6289 77.1605 94.8296 76.6892 95.2311 76.3227C95.6326 75.9474 96.2174 75.7597 96.9854 75.7597H98.5695V75.4193C98.5695 75.0441 98.4691 74.7735 98.2684 74.6077C98.0676 74.4331 97.7447 74.3458 97.2996 74.3458C96.7672 74.3458 96.3308 74.5422 95.9904 74.935L94.9169 73.8745C95.2486 73.508 95.5933 73.2549 95.9512 73.1152C96.3177 72.9756 96.789 72.9058 97.365 72.9058C99.3026 72.9058 100.271 73.7087 100.271 75.3146V79.805ZM98.5695 77.2914V76.9249H97.2734C96.6014 76.9249 96.2654 77.1867 96.2654 77.7104C96.2654 78.2253 96.6101 78.4828 97.2996 78.4828C97.7447 78.4828 98.0807 78.3737 98.3076 78.1555C98.4822 78.0071 98.5695 77.7191 98.5695 77.2914Z" fill="#007ABD"/>
<path d="M94.0763 74.4899H92.1125V79.8051H90.3975V74.4899H88.3945V72.9844H94.0763V74.4899Z" fill="#007ABD"/>
<path d="M83.9279 79.8051H82.2129V72.9844H83.9279V79.8051ZM88.3267 79.8051H86.2844L83.941 76.2311L86.1796 72.9844H88.1696L85.7607 76.1656L88.3267 79.8051Z" fill="#007ABD"/>
<path d="M80.3778 79.805H78.7152V79.2159C78.4795 79.4516 78.2352 79.6218 77.9821 79.7265C77.7377 79.8225 77.4235 79.8705 77.0395 79.8705C76.2802 79.8705 75.6998 79.6698 75.2983 79.2683C74.923 78.8755 74.7354 78.365 74.7354 77.7366C74.7354 77.1605 74.9361 76.6892 75.3376 76.3227C75.739 75.9474 76.3238 75.7597 77.0918 75.7597H78.6759V75.4193C78.6759 75.0441 78.5756 74.7735 78.3748 74.6077C78.1741 74.4331 77.8512 74.3458 77.406 74.3458C76.8736 74.3458 76.4373 74.5422 76.0969 74.935L75.0234 73.8745C75.355 73.508 75.6998 73.2549 76.0576 73.1152C76.4242 72.9756 76.8955 72.9058 77.4715 72.9058C79.4091 72.9058 80.3778 73.7087 80.3778 75.3146V79.805ZM78.6759 77.2914V76.9249H77.3799C76.7078 76.9249 76.3718 77.1867 76.3718 77.7104C76.3718 78.2253 76.7165 78.4828 77.406 78.4828C77.8512 78.4828 78.1872 78.3737 78.4141 78.1555C78.5886 78.0071 78.6759 77.7191 78.6759 77.2914Z" fill="#007ABD"/>
<path d="M73.1703 79.8051H71.3506V72.1072H69.125V74.8172C69.125 76.1002 69.0115 77.1126 68.7846 77.8545C68.5664 78.5876 68.2522 79.0982 67.842 79.3862C67.4405 79.6655 66.9038 79.8051 66.2318 79.8051H65.5117V78.1817H65.7736C66.0267 78.1817 66.2405 78.1381 66.415 78.0508C66.5983 77.9548 66.7641 77.789 66.9125 77.5534C67.0696 77.309 67.1831 76.9511 67.2529 76.4798C67.3315 76.0085 67.3707 75.4194 67.3707 74.7125V70.4839H73.1703V79.8051Z" fill="#007ABD"/>
<path d="M169.6 86.2002C164.7 86.2002 160.6 82.2002 160.6 77.2002C160.6 72.3002 164.6 68.2002 169.6 68.2002C174.5 68.2002 178.6 72.2002 178.6 77.2002C178.5 82.2002 174.5 86.2002 169.6 86.2002Z" fill="#D9ECFA"/>
<path fill-rule="evenodd" clip-rule="evenodd" d="M167.064 71.875C167.354 71.5791 167.829 71.5743 168.125 71.8642L173.125 76.7642C173.268 76.9044 173.349 77.0959 173.35 77.2961C173.351 77.4963 173.272 77.6887 173.13 77.8302L168.23 82.7302C167.937 83.0231 167.462 83.0231 167.169 82.7302C166.876 82.4373 166.876 81.9625 167.169 81.6696L171.534 77.3053L167.075 72.9356C166.779 72.6456 166.774 72.1708 167.064 71.875Z" fill="#007ABD"/>
<path d="M194.549 118.143C194.968 118.544 195.178 119.068 195.178 119.714C195.178 120.359 194.964 120.887 194.536 121.298C194.117 121.699 193.576 121.9 192.913 121.9H189.627V115.079H191.342V117.54H192.913C193.585 117.54 194.13 117.741 194.549 118.143ZM192.599 118.876H191.29V120.564H192.599C192.869 120.564 193.083 120.49 193.24 120.342C193.406 120.185 193.489 119.975 193.489 119.714C193.489 119.46 193.406 119.26 193.24 119.111C193.083 118.954 192.869 118.876 192.599 118.876Z" fill="#007ABD"/>
<path d="M188.387 123.576H186.764V121.9H181.854V115.079H183.569V120.394H185.756V115.079H187.471V120.394H188.387V123.576Z" fill="#007ABD"/>
<path d="M178.291 118.129V116.441H176.956C176.677 116.441 176.454 116.519 176.288 116.676C176.131 116.825 176.053 117.03 176.053 117.292C176.053 117.545 176.131 117.75 176.288 117.907C176.454 118.055 176.677 118.129 176.956 118.129H178.291ZM176.223 121.9H174.285L175.66 119.111C175.267 118.963 174.957 118.723 174.73 118.391C174.503 118.06 174.39 117.667 174.39 117.213C174.39 116.593 174.599 116.083 175.018 115.681C175.446 115.28 175.991 115.079 176.655 115.079H179.967V121.9H178.265V119.478H177.349L176.223 121.9Z" fill="#007ABD"/>
<path d="M173.533 121.049C172.939 121.668 172.188 121.978 171.281 121.978C170.993 121.978 170.714 121.948 170.443 121.887C170.172 121.817 169.897 121.703 169.618 121.546C169.348 121.38 169.112 121.171 168.911 120.918C168.71 120.656 168.545 120.32 168.414 119.91C168.292 119.491 168.23 119.015 168.23 118.483C168.23 117.95 168.292 117.479 168.414 117.069C168.545 116.65 168.71 116.314 168.911 116.061C169.112 115.808 169.348 115.598 169.618 115.433C169.897 115.267 170.172 115.153 170.443 115.092C170.714 115.031 170.993 115 171.281 115C172.197 115 172.948 115.306 173.533 115.917L172.381 117.069C172.049 116.711 171.682 116.532 171.281 116.532C170.879 116.532 170.556 116.681 170.312 116.977C170.059 117.292 169.932 117.793 169.932 118.483C169.932 119.181 170.059 119.687 170.312 120.001C170.556 120.298 170.879 120.447 171.281 120.447C171.682 120.447 172.049 120.268 172.381 119.91L173.533 121.049Z" fill="#007ABD"/>
<path d="M166.668 121.9H164.966V115.276H166.668V121.9ZM166.681 113.914H164.939V112.526H166.681V113.914Z" fill="#007ABD"/>
<path d="M163.058 121.9H161.356V117.959L160.073 120.486H159.104L157.808 117.959V121.9H156.093V115.079H157.782L159.588 118.666L161.382 115.079H163.058V121.9Z" fill="#007ABD"/>
<path d="M149.948 121.9H148.246V114.411L146.348 116.061V114.228L148.246 112.579H149.948V121.9Z" fill="#007ABD"/>
<path d="M271.959 75.5425V73.8537H270.624C270.345 73.8537 270.122 73.9323 269.956 74.0894C269.799 74.2377 269.72 74.4428 269.72 74.7047C269.72 74.9578 269.799 75.1629 269.956 75.32C270.122 75.4683 270.345 75.5425 270.624 75.5425H271.959ZM269.891 79.3129H267.953L269.328 76.5244C268.935 76.376 268.625 76.136 268.398 75.8044C268.171 75.4727 268.058 75.08 268.058 74.6261C268.058 74.0064 268.267 73.4959 268.686 73.0944C269.114 72.6929 269.659 72.4922 270.323 72.4922H273.635V79.3129H271.933V76.891H271.017L269.891 79.3129Z" fill="#007ABD"/>
<path d="M266.628 79.3129H264.913V76.5768H262.727V79.3129H261.012V72.4922H262.727V75.0712H264.913V72.4922H266.628V79.3129Z" fill="#007ABD"/>
<path d="M259.123 79.3129H257.408V76.5768H255.222V79.3129H253.507V72.4922H255.222V75.0712H257.408V72.4922H259.123V79.3129Z" fill="#007ABD"/>
<path d="M251.951 76.4327H247.684C247.684 76.8865 247.814 77.2531 248.076 77.5324C248.338 77.8117 248.705 77.9513 249.176 77.9513C249.525 77.9513 249.809 77.9033 250.027 77.8073C250.254 77.7026 250.485 77.5368 250.721 77.3098L251.755 78.3179C251.388 78.6932 251.009 78.9681 250.616 79.1427C250.232 79.3085 249.748 79.3914 249.163 79.3914C248.727 79.3914 248.329 79.339 247.972 79.2343C247.622 79.1208 247.295 78.9376 246.99 78.6845C246.684 78.4313 246.444 78.0691 246.27 77.5978C246.095 77.1265 246.008 76.5592 246.008 75.8959C246.008 74.805 246.278 73.954 246.819 73.3431C247.361 72.7234 248.081 72.4136 248.98 72.4136C249.913 72.4136 250.642 72.719 251.166 73.33C251.69 73.9322 251.951 74.7264 251.951 75.7127V76.4327ZM250.276 75.2675C250.267 74.9708 250.215 74.7264 250.119 74.5344C249.909 74.0631 249.529 73.8275 248.98 73.8275C248.43 73.8275 248.05 74.0631 247.841 74.5344C247.745 74.7264 247.692 74.9708 247.684 75.2675H250.276Z" fill="#007ABD"/>
<path d="M244.452 79.3129H242.75V76.9171C242.06 77.0393 241.441 77.1004 240.891 77.1004C240.332 77.1004 239.874 76.9346 239.516 76.6029C239.158 76.2713 238.979 75.8175 238.979 75.2414V72.4922H240.681V74.7701C240.681 75.32 240.961 75.5949 241.519 75.5949C241.737 75.5949 242.148 75.5556 242.75 75.4771V72.4922H244.452V79.3129Z" fill="#007ABD"/>
<path d="M238.23 72.4922L235.31 80.4126C235.127 80.9014 234.878 81.2548 234.564 81.473C234.259 81.6999 233.848 81.8134 233.333 81.8134H232.666V80.2817H233.059C233.312 80.2817 233.495 80.2381 233.608 80.1508C233.722 80.0722 233.822 79.9108 233.909 79.6664L234.197 78.8285L231.867 72.4922H233.661L235.075 76.7077L236.436 72.4922H238.23Z" fill="#007ABD"/>
<path d="M230.919 79.3129H229.217V73.9977H227.581V75.6342C227.581 77.0219 227.402 77.9819 227.044 78.5143C226.686 79.0467 226.137 79.3129 225.395 79.3129H224.583V77.8074H224.792C224.976 77.8074 225.12 77.7899 225.224 77.755C225.329 77.7114 225.443 77.6154 225.565 77.467C225.696 77.3099 225.787 77.0481 225.84 76.6815C225.901 76.3149 225.931 75.8393 225.931 75.2545V72.4922H230.919V79.3129Z" fill="#007ABD"/>
<path d="M224.097 80.9886H222.487V79.3129H218.586V80.9886H216.976V77.8074H217.669C218.115 77.0132 218.337 75.9353 218.337 74.5738V72.4922H223.233V77.8074H224.097V80.9886ZM221.531 77.8074V73.9977H219.974V74.888C219.974 76.1186 219.799 77.0917 219.45 77.8074H221.531Z" fill="#007ABD"/>
<path d="M215.858 79.313H214.156V72.6887H215.858V79.313ZM215.871 71.3272H214.13V69.9395H215.871V71.3272Z" fill="#007ABD"/>
<path d="M211.142 74.5345C211.439 74.6916 211.675 74.8574 211.849 75.032C212.233 75.4422 212.425 75.9789 212.425 76.6422C212.425 77.4626 212.168 78.1129 211.653 78.5929C211.138 79.0729 210.444 79.3129 209.571 79.3129H205.67V69.9917H209.414C210.296 69.9917 210.994 70.223 211.509 70.6856C212.032 71.1481 212.294 71.7722 212.294 72.5577C212.294 73.4479 211.91 74.1068 211.142 74.5345ZM207.49 73.7621H209.27C209.645 73.7621 209.938 73.6661 210.147 73.4741C210.365 73.2821 210.475 73.0202 210.475 72.6886C210.475 72.3569 210.365 72.0951 210.147 71.9031C209.938 71.7111 209.645 71.6151 209.27 71.6151H207.49V73.7621ZM207.49 77.6896H209.388C209.763 77.6896 210.06 77.5848 210.278 77.3754C210.496 77.1659 210.605 76.8866 210.605 76.5375C210.605 76.1884 210.496 75.9135 210.278 75.7127C210.06 75.5033 209.763 75.3985 209.388 75.3985H207.49V77.6896Z" fill="#007ABD"/>
<path d="M397.124 73.9977H395.16V79.3129H393.445V73.9977H391.442V72.4922H397.124V73.9977Z" fill="#007ABD"/>
<path d="M390.925 78.4619C390.332 79.0816 389.581 79.3914 388.673 79.3914C388.385 79.3914 388.106 79.3608 387.836 79.2998C387.565 79.2299 387.29 79.1165 387.011 78.9594C386.74 78.7935 386.505 78.5841 386.304 78.331C386.103 78.0691 385.937 77.7331 385.806 77.3229C385.684 76.904 385.623 76.4283 385.623 75.8959C385.623 75.3635 385.684 74.8923 385.806 74.482C385.937 74.0631 386.103 73.7271 386.304 73.474C386.505 73.2209 386.74 73.0114 387.011 72.8456C387.29 72.6798 387.565 72.5663 387.836 72.5052C388.106 72.4441 388.385 72.4136 388.673 72.4136C389.59 72.4136 390.34 72.719 390.925 73.33L389.773 74.482C389.441 74.1242 389.075 73.9453 388.673 73.9453C388.272 73.9453 387.949 74.0937 387.705 74.3904C387.452 74.7046 387.325 75.2064 387.325 75.8959C387.325 76.5942 387.452 77.1004 387.705 77.4146C387.949 77.7113 388.272 77.8597 388.673 77.8597C389.075 77.8597 389.441 77.6808 389.773 77.3229L390.925 78.4619Z" fill="#007ABD"/>
<path d="M384.06 79.313H382.358V72.6887H384.06V79.313ZM384.073 71.3272H382.332V69.9395H384.073V71.3272Z" fill="#007ABD"/>
<path d="M380.121 70.8296C380.679 71.3881 380.958 72.0776 380.958 72.898C380.958 73.7184 380.679 74.4079 380.121 74.9665C379.571 75.5251 378.824 75.8044 377.882 75.8044H376.088V79.3129H374.269V69.9917H377.882C378.824 69.9917 379.571 70.271 380.121 70.8296ZM378.772 73.8275C379.016 73.5919 379.139 73.2821 379.139 72.898C379.139 72.514 379.016 72.2042 378.772 71.9685C378.528 71.7329 378.2 71.6151 377.79 71.6151H376.088V74.1679H377.79C378.2 74.1679 378.528 74.0545 378.772 73.8275Z" fill="#007ABD"/>
<path fill-rule="evenodd" clip-rule="evenodd" d="M171 89.8394C171.641 89.8394 172.16 90.3591 172.16 91.0002V93.1002C172.16 93.7412 171.641 94.261 171 94.261C170.359 94.261 169.839 93.7412 169.839 93.1002V91.0002C169.839 90.3591 170.359 89.8394 171 89.8394ZM171 96.1394C171.641 96.1394 172.16 96.6591 172.16 97.3002V101.5C172.16 102.141 171.641 102.661 171 102.661C170.359 102.661 169.839 102.141 169.839 101.5V97.3002C169.839 96.6591 170.359 96.1394 171 96.1394ZM171 104.539C171.641 104.539 172.16 105.059 172.16 105.7V107.8C172.16 108.441 171.641 108.961 171 108.961C170.359 108.961 169.839 108.441 169.839 107.8V105.7C169.839 105.059 170.359 104.539 171 104.539Z" fill="#D9ECFA"/>
<path d="M75.1926 25.1695V23.4807H73.8572C73.5779 23.4807 73.3554 23.5592 73.1895 23.7163C73.0324 23.8647 72.9539 24.0698 72.9539 24.3316C72.9539 24.5847 73.0324 24.7898 73.1895 24.9469C73.3554 25.0953 73.5779 25.1695 73.8572 25.1695H75.1926ZM73.1241 28.9399H71.1865L72.5611 26.1514C72.1684 26.003 71.8586 25.763 71.6316 25.4313C71.4047 25.0997 71.2913 24.7069 71.2913 24.2531C71.2913 23.6334 71.5007 23.1228 71.9197 22.7214C72.3473 22.3199 72.8928 22.1191 73.5561 22.1191H76.8683V28.9399H75.1664V26.5179H74.25L73.1241 28.9399Z" fill="#007ABD"/>
<path d="M69.8614 28.9399H68.1464V26.2037H65.9601V28.9399H64.2451V22.1191H65.9601V24.6982H68.1464V22.1191H69.8614V28.9399Z" fill="#007ABD"/>
<path d="M62.3565 28.9399H60.6415V26.2037H58.4552V28.9399H56.7402V22.1191H58.4552V24.6982H60.6415V22.1191H62.3565V28.9399Z" fill="#007ABD"/>
<path d="M55.1848 26.0596H50.9169C50.9169 26.5135 51.0478 26.8801 51.3097 27.1593C51.5715 27.4386 51.9381 27.5783 52.4094 27.5783C52.7585 27.5783 53.0421 27.5303 53.2603 27.4343C53.4873 27.3295 53.7185 27.1637 53.9542 26.9368L54.9884 27.9448C54.6219 28.3201 54.2422 28.5951 53.8495 28.7696C53.4654 28.9354 52.981 29.0184 52.3963 29.0184C51.9599 29.0184 51.5628 28.966 51.2049 28.8613C50.8558 28.7478 50.5286 28.5645 50.2231 28.3114C49.9176 28.0583 49.6776 27.6961 49.503 27.2248C49.3285 26.7535 49.2412 26.1862 49.2412 25.5229C49.2412 24.4319 49.5118 23.581 50.0529 22.97C50.594 22.3504 51.314 22.0405 52.213 22.0405C53.1469 22.0405 53.8756 22.346 54.3993 22.9569C54.923 23.5592 55.1848 24.3534 55.1848 25.3396V26.0596ZM53.5091 24.8945C53.5003 24.5978 53.448 24.3534 53.352 24.1614C53.1425 23.6901 52.7628 23.4544 52.213 23.4544C51.6632 23.4544 51.2835 23.6901 51.074 24.1614C50.978 24.3534 50.9257 24.5978 50.9169 24.8945H53.5091Z" fill="#007ABD"/>
<path d="M48.9643 28.9399H46.9744L44.7619 25.3659L46.8697 22.1191H48.8203L46.5817 25.3004L48.9643 28.9399ZM44.7489 28.9399H43.0339V22.1191H44.7489V28.9399ZM40.8214 28.9399H38.8184L41.2141 25.3004L38.9755 22.1191H40.9261L43.0208 25.3659L40.8214 28.9399Z" fill="#007ABD"/>
<path d="M38.5945 30.6156H36.9842V28.9399H33.0829V30.6156H31.4727V27.4343H32.1665C32.6116 26.6401 32.8342 25.5622 32.8342 24.2007V22.1191H37.7304V27.4343H38.5945V30.6156ZM36.0285 27.4343V23.6247H34.4706V24.5149C34.4706 25.7455 34.2961 26.7187 33.947 27.4343H36.0285Z" fill="#007ABD"/>
<path d="M30.8271 25.5229C30.8271 26.1775 30.7704 26.7099 30.6569 27.1201C30.5522 27.5215 30.3514 27.875 30.0547 28.1805C29.5136 28.7391 28.8066 29.0184 27.9339 29.0184C27.0698 29.0184 26.3672 28.7391 25.8261 28.1805C25.5294 27.8663 25.3243 27.5085 25.2108 27.107C25.1061 26.6968 25.0537 26.1687 25.0537 25.5229C25.0537 24.877 25.1061 24.3534 25.2108 23.9519C25.3243 23.5504 25.5294 23.1926 25.8261 22.8784C26.3672 22.3198 27.0698 22.0405 27.9339 22.0405C28.8241 22.0405 29.531 22.3198 30.0547 22.8784C30.3514 23.1926 30.5522 23.5504 30.6569 23.9519C30.7704 24.3534 30.8271 24.877 30.8271 25.5229ZM29.1252 25.5229C29.1252 24.6763 28.9943 24.1265 28.7325 23.8734C28.5317 23.6726 28.2655 23.5722 27.9339 23.5722C27.6109 23.5722 27.3491 23.6726 27.1484 23.8734C26.8865 24.1265 26.7556 24.6763 26.7556 25.5229C26.7556 26.3782 26.8865 26.9324 27.1484 27.1855C27.3491 27.3863 27.6109 27.4866 27.9339 27.4866C28.2655 27.4866 28.5317 27.3863 28.7325 27.1855C28.9943 26.9324 29.1252 26.3782 29.1252 25.5229Z" fill="#007ABD"/>
<path d="M23.7236 25.5229C23.7236 26.2298 23.6799 26.8102 23.5926 27.2641C23.5054 27.7179 23.3134 28.0976 23.0166 28.403C22.6239 28.8132 22.074 29.0184 21.3671 29.0184C20.6601 29.0184 20.1103 28.7914 19.7175 28.3376V31.4403H18.0156V22.1191H19.6652V22.7606C20.0928 22.2805 20.6601 22.0405 21.3671 22.0405C22.074 22.0405 22.6239 22.2456 23.0166 22.6558C23.3134 22.9613 23.5054 23.341 23.5926 23.7948C23.6799 24.2486 23.7236 24.8247 23.7236 25.5229ZM21.9824 26.3084C22.0086 26.0989 22.0217 25.8371 22.0217 25.5229C22.0217 25.2087 22.0086 24.9512 21.9824 24.7505C21.9562 24.541 21.9038 24.3403 21.8253 24.1483C21.7555 23.9563 21.6376 23.8123 21.4718 23.7163C21.3147 23.6202 21.114 23.5722 20.8696 23.5722C20.6252 23.5722 20.4201 23.6202 20.2543 23.7163C20.0972 23.8123 19.9794 23.9563 19.9008 24.1483C19.831 24.3403 19.783 24.541 19.7568 24.7505C19.7306 24.9512 19.7175 25.2087 19.7175 25.5229C19.7175 25.8371 19.7306 26.0989 19.7568 26.3084C19.783 26.5091 19.831 26.7099 19.9008 26.9106C19.9794 27.1026 20.0972 27.2466 20.2543 27.3426C20.4201 27.4386 20.6252 27.4866 20.8696 27.4866C21.114 27.4866 21.3147 27.4386 21.4718 27.3426C21.6376 27.2466 21.7555 27.1026 21.8253 26.9106C21.9038 26.7099 21.9562 26.5091 21.9824 26.3084Z" fill="#007ABD"/>
<path d="M16.1806 28.9398H14.5179V28.3507C14.2823 28.5863 14.0379 28.7565 13.7848 28.8613C13.5404 28.9573 13.2262 29.0053 12.8422 29.0053C12.0829 29.0053 11.5025 28.8045 11.101 28.403C10.7257 28.0103 10.5381 27.4997 10.5381 26.8713C10.5381 26.2953 10.7388 25.824 11.1403 25.4574C11.5418 25.0821 12.1265 24.8945 12.8946 24.8945H14.4787V24.5541C14.4787 24.1788 14.3783 23.9083 14.1776 23.7424C13.9768 23.5679 13.6539 23.4806 13.2088 23.4806C12.6764 23.4806 12.24 23.677 11.8996 24.0697L10.8261 23.0093C11.1578 22.6427 11.5025 22.3896 11.8603 22.25C12.2269 22.1103 12.6982 22.0405 13.2742 22.0405C15.2118 22.0405 16.1806 22.8435 16.1806 24.4494V28.9398ZM14.4787 26.4262V26.0596H13.1826C12.5106 26.0596 12.1745 26.3215 12.1745 26.8451C12.1745 27.3601 12.5193 27.6175 13.2088 27.6175C13.6539 27.6175 13.9899 27.5085 14.2168 27.2903C14.3914 27.1419 14.4787 26.8539 14.4787 26.4262Z" fill="#007ABD"/>
<path d="M8.98595 28.9399H7.16621V25.0386H4.01114V28.9399H2.19141V19.6187H4.01114V23.4283H7.16621V19.6187H8.98595V28.9399Z" fill="#007ABD"/>
<path d="M30.0004 73.6001C27.7004 73.6001 25.9004 75.5001 25.9004 77.7001C25.9004 80.0001 27.8004 81.8001 30.0004 81.8001C32.3004 81.8001 34.1004 79.9001 34.1004 77.7001C34.2004 75.5001 32.3004 73.6001 30.0004 73.6001Z" fill="#007ABD"/>
<path d="M30 69.7998C25.6 69.7998 22 73.3998 22 77.7998C22 82.1998 25.6 85.7998 30 85.7998C34.4 85.7998 38 82.1998 38 77.7998C38 73.3998 34.4 69.7998 30 69.7998ZM30 83.4998C26.9 83.4998 24.3 80.8998 24.3 77.7998C24.3 74.6998 26.9 72.0998 30 72.0998C33.1 72.0998 35.7 74.6998 35.7 77.7998C35.7 80.8998 33.1 83.4998 30 83.4998Z" fill="#D9ECFA"/>
<path fill-rule="evenodd" clip-rule="evenodd" d="M29.4004 105.9V86.7002H31.4004V105.9H29.4004Z" fill="black"/>
<path fill-rule="evenodd" clip-rule="evenodd" d="M29.4004 68.8002V37.7002H31.4004V68.8002H29.4004Z" fill="black"/>
<path fill-rule="evenodd" clip-rule="evenodd" d="M309 89.8394C309.641 89.8394 310.16 90.3591 310.16 91.0002V93.1002C310.16 93.7412 309.641 94.261 309 94.261C308.359 94.261 307.839 93.7412 307.839 93.1002V91.0002C307.839 90.3591 308.359 89.8394 309 89.8394ZM309 96.1394C309.641 96.1394 310.16 96.6591 310.16 97.3002V101.5C310.16 102.141 309.641 102.661 309 102.661C308.359 102.661 307.839 102.141 307.839 101.5V97.3002C307.839 96.6591 308.359 96.1394 309 96.1394ZM309 104.539C309.641 104.539 310.16 105.059 310.16 105.7V107.8C310.16 108.441 309.641 108.961 309 108.961C308.359 108.961 307.839 108.441 307.839 107.8V105.7C307.839 105.059 308.359 104.539 309 104.539Z" fill="#D9ECFA"/>
<path opacity="0.69" d="M311.6 0H0V125H311.6V0Z" fill="white"/>
<path d="M331.342 121.9H329.64V115.276H331.342V121.9ZM331.355 113.914H329.614V112.526H331.355V113.914Z" fill="#007ABD"/>
<path d="M328.387 123.576H326.764V121.9H321.854V115.079H323.569V120.394H325.756V115.079H327.471V120.394H328.387V123.576Z" fill="#007ABD"/>
<path d="M318.291 118.129V116.441H316.956C316.677 116.441 316.454 116.519 316.288 116.676C316.131 116.825 316.053 117.03 316.053 117.292C316.053 117.545 316.131 117.75 316.288 117.907C316.454 118.055 316.677 118.129 316.956 118.129H318.291ZM316.223 121.9H314.285L315.66 119.111C315.267 118.963 314.957 118.723 314.73 118.391C314.503 118.06 314.39 117.667 314.39 117.213C314.39 116.593 314.599 116.083 315.018 115.681C315.446 115.28 315.991 115.079 316.655 115.079H319.967V121.9H318.265V119.478H317.349L316.223 121.9Z" fill="#007ABD"/>
<path d="M313.533 121.049C312.939 121.668 312.188 121.978 311.281 121.978C310.993 121.978 310.714 121.948 310.443 121.887C310.172 121.817 309.897 121.703 309.618 121.546C309.348 121.38 309.112 121.171 308.911 120.918C308.71 120.656 308.545 120.32 308.414 119.91C308.292 119.491 308.23 119.015 308.23 118.483C308.23 117.95 308.292 117.479 308.414 117.069C308.545 116.65 308.71 116.314 308.911 116.061C309.112 115.808 309.348 115.598 309.618 115.433C309.897 115.267 310.172 115.153 310.443 115.092C310.714 115.031 310.993 115 311.281 115C312.197 115 312.948 115.306 313.533 115.917L312.381 117.069C312.049 116.711 311.682 116.532 311.281 116.532C310.879 116.532 310.556 116.681 310.312 116.977C310.059 117.292 309.932 117.793 309.932 118.483C309.932 119.181 310.059 119.687 310.312 120.001C310.556 120.298 310.879 120.447 311.281 120.447C311.682 120.447 312.049 120.268 312.381 119.91L313.533 121.049Z" fill="#007ABD"/>
<path d="M306.668 121.9H304.966V115.276H306.668V121.9ZM306.681 113.914H304.939V112.526H306.681V113.914Z" fill="#007ABD"/>
<path d="M303.058 121.9H301.356V117.959L300.073 120.486H299.104L297.808 117.959V121.9H296.093V115.079H297.782L299.588 118.666L301.382 115.079H303.058V121.9Z" fill="#007ABD"/>
<path d="M291.44 121.9H285.771V120.368L289.254 116.323C289.577 115.939 289.738 115.563 289.738 115.197C289.738 114.848 289.638 114.568 289.437 114.359C289.245 114.141 288.97 114.032 288.612 114.032C288.289 114.032 288.019 114.128 287.801 114.32C287.582 114.503 287.473 114.804 287.473 115.223H285.771C285.771 114.394 286.038 113.735 286.57 113.246C287.111 112.749 287.792 112.5 288.612 112.5C289.45 112.5 290.131 112.744 290.655 113.233C291.178 113.722 291.44 114.381 291.44 115.21C291.44 115.629 291.366 115.982 291.218 116.27C291.069 116.558 290.812 116.916 290.445 117.344L287.84 120.368H291.44V121.9Z" fill="#007ABD"/>
<path d="M308.6 86C303.7 86 299.6 82 299.6 77C299.6 72.1 303.6 68 308.6 68C313.5 68 317.6 72 317.6 77C317.5 82 313.5 86 308.6 86Z" fill="#D9ECFA"/>
<path fill-rule="evenodd" clip-rule="evenodd" d="M306.064 71.875C306.354 71.5791 306.829 71.5743 307.125 71.8642L312.125 76.7642C312.268 76.9044 312.349 77.0959 312.35 77.2961C312.351 77.4963 312.272 77.6887 312.13 77.8302L307.23 82.7302C306.937 83.0231 306.462 83.0231 306.169 82.7302C305.876 82.4373 305.876 81.9625 306.169 81.6696L310.534 77.3053L306.075 72.9356C305.779 72.6456 305.774 72.1708 306.064 71.875Z" fill="#007ABD"/>
</svg>
