<svg width="486" height="119" viewBox="0 0 486 119" fill="none" xmlns="http://www.w3.org/2000/svg">
<path d="M175.208 40.4367H172.574L170.48 36.8866L169.58 37.9009V40.4367H167.453V28.7886H169.58V35.3979L172.41 31.9133H174.979L171.936 35.3488L175.208 40.4367Z" fill="#E2001A"/>
<path d="M165.749 40.4367H164.538C163.72 40.4367 163.099 40.1967 162.673 39.7169C162.259 39.237 162.052 38.6644 162.052 37.9991V28.7886H164.179V37.8682C164.179 38.3808 164.429 38.6371 164.931 38.6371H165.749V40.4367Z" fill="#E2001A"/>
<path d="M159.755 40.4367H157.628V32.1587H159.755V40.4367ZM159.772 30.4573H157.596V28.7231H159.772V30.4573Z" fill="#E2001A"/>
<path d="M155.083 40.4367H152.809V33.6474L150.584 38.0645H149.047L146.805 33.6474V40.4367H144.531V28.7886H146.773L149.815 35.0871L152.842 28.7886H155.083V40.4367Z" fill="#E2001A"/>
<path d="M138.182 40.1257C138.182 41.1618 137.838 42.007 137.151 42.6614C136.475 43.3267 135.57 43.6594 134.436 43.6594C133.759 43.6594 133.181 43.5776 132.701 43.414C132.222 43.2504 131.769 42.9614 131.344 42.5469L132.669 41.2054C133.116 41.6417 133.672 41.8598 134.337 41.8598C134.926 41.8598 135.357 41.6853 135.63 41.3363C135.913 40.9982 136.055 40.5837 136.055 40.093V39.2259C135.543 39.793 134.866 40.0766 134.027 40.0766C133.176 40.0766 132.5 39.8257 131.998 39.324C131.627 38.9532 131.387 38.517 131.278 38.0153C131.18 37.5027 131.131 36.8101 131.131 35.9376C131.131 35.0651 131.18 34.378 131.278 33.8763C131.387 33.3746 131.627 32.9383 131.998 32.5675C132.5 32.0658 133.181 31.8149 134.043 31.8149C134.883 31.8149 135.575 32.1149 136.121 32.7147V31.9131H138.182V40.1257ZM136.055 35.9376C136.055 35.2505 135.962 34.7106 135.777 34.318C135.592 33.9253 135.215 33.729 134.648 33.729C134.343 33.729 134.092 33.789 133.896 33.909C133.71 34.018 133.568 34.1871 133.47 34.4161C133.383 34.6452 133.323 34.8742 133.29 35.1032C133.269 35.3323 133.258 35.6104 133.258 35.9376C133.258 36.2648 133.269 36.5429 133.29 36.7719C133.323 37.001 133.383 37.23 133.47 37.459C133.558 37.6881 133.699 37.8626 133.896 37.9826C134.092 38.1025 134.343 38.1625 134.648 38.1625C134.954 38.1625 135.204 38.1025 135.401 37.9826C135.597 37.8626 135.739 37.6881 135.826 37.459C135.913 37.23 135.973 37.001 136.006 36.7719C136.039 36.5429 136.055 36.2648 136.055 35.9376Z" fill="#E2001A"/>
<path d="M129.463 36.1666C129.463 36.9846 129.392 37.6499 129.25 38.1625C129.119 38.6642 128.868 39.1059 128.497 39.4876C127.821 40.1857 126.938 40.5347 125.847 40.5347C124.767 40.5347 123.889 40.1857 123.213 39.4876C122.842 39.095 122.586 38.6478 122.444 38.1461C122.313 37.6335 122.248 36.9737 122.248 36.1666C122.248 35.3595 122.313 34.7052 122.444 34.2035C122.586 33.7018 122.842 33.2546 123.213 32.862C123.889 32.1639 124.767 31.8149 125.847 31.8149C126.96 31.8149 127.843 32.1639 128.497 32.862C128.868 33.2546 129.119 33.7018 129.25 34.2035C129.392 34.7052 129.463 35.3595 129.463 36.1666ZM127.336 36.1666C127.336 35.1087 127.172 34.4216 126.845 34.1053C126.594 33.8545 126.262 33.729 125.847 33.729C125.444 33.729 125.116 33.8545 124.866 34.1053C124.538 34.4216 124.375 35.1087 124.375 36.1666C124.375 37.2355 124.538 37.928 124.866 38.2443C125.116 38.4952 125.444 38.6206 125.847 38.6206C126.262 38.6206 126.594 38.4952 126.845 38.2443C127.172 37.928 127.336 37.2355 127.336 36.1666Z" fill="#E2001A"/>
<path d="M120.314 32.0442C120.402 32.6113 120.445 33.4675 120.445 34.6126C120.445 35.7578 120.402 36.6194 120.314 37.1975C120.238 37.7646 120.036 38.2772 119.709 38.7353C118.891 39.8696 117.719 40.4367 116.192 40.4367H111.987V28.7886H116.192C117.719 28.7886 118.891 29.3557 119.709 30.49C120.036 30.9481 120.238 31.4661 120.314 32.0442ZM118.089 36.7067C118.144 36.2922 118.171 35.5942 118.171 34.6126C118.171 33.631 118.144 32.933 118.089 32.5186C118.035 32.1041 117.904 31.7769 117.697 31.537C117.315 31.0571 116.748 30.8172 115.995 30.8172H114.261V38.4081H115.995C116.748 38.4081 117.315 38.1681 117.697 37.6883C117.904 37.4483 118.035 37.1211 118.089 36.7067Z" fill="#E2001A"/>
<path d="M110.562 31.9131L106.914 41.8107C106.729 42.3015 106.516 42.6669 106.276 42.9068C105.84 43.3431 105.229 43.5612 104.444 43.5612H103.609V41.6471H104.1C104.405 41.6471 104.629 41.5926 104.771 41.4835C104.923 41.3854 105.054 41.1836 105.163 40.8782L105.523 39.8312L102.611 31.9131H104.853L106.619 37.1809L108.321 31.9131H110.562Z" fill="#E2001A"/>
<path d="M101.719 36.1668C101.719 37.0502 101.664 37.7755 101.555 38.3426C101.446 38.9098 101.206 39.3842 100.835 39.7659C100.345 40.2785 99.6574 40.5348 98.774 40.5348C97.8906 40.5348 97.1817 40.2349 96.6473 39.6351V40.4367H94.5859V28.7886H96.7127V32.6658C97.2035 32.0987 97.8906 31.8151 98.774 31.8151C99.6574 31.8151 100.345 32.0714 100.835 32.584C101.206 32.9658 101.446 33.4402 101.555 34.0073C101.664 34.5745 101.719 35.2943 101.719 36.1668ZM99.5429 37.1484C99.5756 36.8866 99.592 36.5594 99.592 36.1668C99.592 35.7742 99.5756 35.4524 99.5429 35.2016C99.5102 34.9398 99.4448 34.689 99.3466 34.449C99.2594 34.2091 99.1121 34.0291 98.9049 33.9092C98.7086 33.7892 98.4577 33.7292 98.1524 33.7292C97.847 33.7292 97.5907 33.7892 97.3834 33.9092C97.1871 34.0291 97.0399 34.2091 96.9417 34.449C96.8545 34.689 96.7945 34.9398 96.7618 35.2016C96.7291 35.4524 96.7127 35.7742 96.7127 36.1668C96.7127 36.5594 96.7291 36.8866 96.7618 37.1484C96.7945 37.3992 96.8545 37.6501 96.9417 37.9009C97.0399 38.1409 97.1871 38.3208 97.3834 38.4408C97.5907 38.5608 97.847 38.6208 98.1524 38.6208C98.4577 38.6208 98.7086 38.5608 98.9049 38.4408C99.1121 38.3208 99.2594 38.1409 99.3466 37.9009C99.4448 37.6501 99.5102 37.3992 99.5429 37.1484Z" fill="#E2001A"/>
<path d="M92.2922 40.4365H90.2146V39.7003C89.9201 39.9948 89.6147 40.2075 89.2984 40.3384C88.993 40.4583 88.6004 40.5183 88.1205 40.5183C87.1717 40.5183 86.4464 40.2675 85.9447 39.7658C85.4757 39.275 85.2412 38.6369 85.2412 37.8517C85.2412 37.1318 85.4921 36.5429 85.9938 36.0848C86.4955 35.6158 87.2262 35.3814 88.186 35.3814H90.1655V34.956C90.1655 34.487 90.0401 34.1489 89.7892 33.9417C89.5384 33.7236 89.1348 33.6145 88.5786 33.6145C87.9133 33.6145 87.368 33.8599 86.9426 34.3507L85.6011 33.0256C86.0156 32.5675 86.4464 32.2512 86.8935 32.0767C87.3516 31.9022 87.9406 31.8149 88.6604 31.8149C91.0816 31.8149 92.2922 32.8183 92.2922 34.8251V40.4365ZM90.1655 37.2954V36.8374H88.5459C87.7061 36.8374 87.2862 37.1646 87.2862 37.819C87.2862 38.4624 87.717 38.7842 88.5786 38.7842C89.1348 38.7842 89.5547 38.6478 89.8383 38.3752C90.0564 38.1898 90.1655 37.8299 90.1655 37.2954Z" fill="#E2001A"/>
<path d="M83.6838 37.0829C83.6838 38.1409 83.3566 38.9643 82.7022 39.5533C82.0478 40.1422 81.1862 40.4367 80.1174 40.4367H75.2422V28.7886H79.9211C81.0444 28.7886 81.9224 29.083 82.555 29.672C83.1985 30.2609 83.5202 31.0571 83.5202 32.0605C83.5202 32.6495 83.3675 33.1566 83.0621 33.582C82.7677 33.9964 82.4405 34.2909 82.0805 34.4654C83.1494 34.9671 83.6838 35.8396 83.6838 37.0829ZM81.0172 37.9991C81.2789 37.7264 81.4098 37.3829 81.4098 36.9684C81.4098 36.554 81.2789 36.2159 81.0172 35.9541C80.7554 35.6815 80.3791 35.5451 79.8883 35.5451H77.5162V38.4081H79.8883C80.3791 38.4081 80.7554 38.2718 81.0172 37.9991ZM80.8536 33.1403C81.1153 32.8894 81.2462 32.5622 81.2462 32.1587C81.2462 31.7551 81.1153 31.4334 80.8536 31.1935C80.5918 30.9426 80.221 30.8172 79.7411 30.8172H77.5162V33.5002H79.7411C80.221 33.5002 80.5918 33.3802 80.8536 33.1403Z" fill="#E2001A"/>
<path d="M105.099 4.54142L104.899 4.34142C104.799 4.24142 104.799 4.24142 104.699 4.24142C104.699 4.24142 104.599 4.24142 104.699 4.14142H104.799L104.699 4.04142C104.799 4.04142 104.799 4.04142 104.899 4.04142C104.899 4.04142 104.799 4.04142 104.799 3.94142C104.799 3.94142 104.799 3.94142 104.899 3.94142C104.899 3.94142 104.899 3.94142 104.799 3.94142H104.899C104.799 3.94142 104.699 3.94142 104.699 3.94142C104.799 3.94142 104.799 3.94142 104.899 3.84142C104.899 3.84142 104.799 3.84142 104.799 3.74142C104.899 3.74142 104.899 3.74142 104.999 3.74142C104.899 3.74142 104.899 3.64142 104.799 3.64142H104.699C104.799 3.64142 104.799 3.64142 104.899 3.64142C104.899 3.64142 104.799 3.64142 104.799 3.54142C104.899 3.54142 104.899 3.54142 104.999 3.64142C104.899 3.54142 104.799 3.44142 104.699 3.44142H104.799C104.699 3.44142 104.499 3.34142 104.499 3.24142C104.499 3.24142 104.499 3.24142 104.599 3.34142C104.599 3.34142 104.499 3.14142 104.499 3.04142C104.499 2.74142 104.299 2.64142 104.299 2.34142C104.299 2.24142 104.299 2.24142 104.299 2.14142C104.199 2.04142 104.299 1.94142 104.299 1.84142C104.299 1.74142 104.399 1.64142 104.399 1.54142C104.499 1.24142 104.499 0.841421 104.399 0.541421C104.399 0.441421 103.599 0.141421 102.899 0.141421C102.599 0.0414213 102.299 -0.0585786 102.199 0.0414214C102.099 0.0414214 102.099 0.141421 101.999 0.141421L101.899 0.241421L101.799 0.341421C101.799 0.341421 101.799 0.341421 101.799 0.241421C101.799 0.341421 101.799 0.341421 101.799 0.441421L101.699 0.541421C101.699 0.741421 101.399 0.741421 101.399 0.741421C101.199 0.741421 101.099 0.741421 100.899 0.741421H100.799C100.699 0.741421 100.699 0.741421 100.599 0.641421H100.699C100.599 0.641421 100.599 0.641421 100.499 0.641421C100.499 0.641421 100.499 0.641421 100.599 0.641421C100.399 0.641421 100.299 0.641421 100.199 0.541421V0.641421H100.099H99.9985C99.9985 0.641421 99.9985 0.641421 99.8985 0.641421H99.7985C99.6985 0.641421 99.6985 0.641421 99.5985 0.641421C99.4985 0.641421 99.3985 0.641421 99.2985 0.741421C99.1985 0.841421 98.4985 1.14142 98.1985 1.34142C97.7985 1.54142 97.2985 1.94142 97.2985 2.24142C97.2985 2.44142 97.4985 2.64142 97.4985 2.84142C97.4985 2.94142 97.5985 3.04142 97.6985 3.04142C97.7985 3.14142 97.8985 3.24142 97.9985 3.34142C98.0985 3.34142 98.1985 3.44142 98.2985 3.44142C98.2985 3.44142 98.2985 3.54142 98.1985 3.54142C98.2985 3.54142 98.2985 3.54142 98.3985 3.54142C98.3985 3.54142 98.2985 3.54142 98.2985 3.64142H98.3985C98.2985 3.64142 98.2985 3.74142 98.1985 3.84142C98.2985 3.74142 98.3985 3.74142 98.4985 3.74142V3.84142C98.4985 3.84142 98.5985 3.74142 98.6985 3.74142C98.5985 3.84142 98.5985 4.04142 98.4985 4.14142C98.4985 4.04142 98.5985 3.94142 98.6985 3.94142C98.5985 4.04142 98.5985 4.14142 98.5985 4.24142C98.5985 4.14142 98.6985 4.04142 98.7985 4.04142C98.7985 4.14142 98.6985 4.24142 98.6985 4.34142C98.5985 4.34142 98.6985 4.64142 98.6985 4.74142C98.6985 4.94142 98.4985 5.14142 98.3985 5.24142H98.4985C98.2985 5.24142 98.2985 5.64142 98.3985 5.74142C98.4985 5.94142 98.5985 6.14142 98.3985 6.34142C98.0985 6.74142 97.7985 7.14142 97.5985 7.54142C97.6985 7.44142 97.7985 7.34142 97.7985 7.34142C97.6985 7.54142 97.5985 7.74142 97.4985 7.94142C97.4985 7.94142 97.5985 7.94142 97.5985 7.84142L97.2985 8.44142C97.1985 8.54142 97.1985 8.64142 97.0985 8.74142C96.5985 9.34142 95.7985 9.74142 95.1985 10.1414C94.3985 10.6414 93.6985 11.1414 92.9985 11.7414C92.8985 11.8414 92.7985 11.8414 92.6985 11.9414C92.3985 12.1414 92.0985 12.2414 92.0985 12.3414C91.8985 12.5414 90.9985 13.3414 90.7985 13.6414C90.6985 13.8414 89.3985 15.4414 89.1985 15.5414C88.9985 15.6414 88.3985 17.0414 88.2985 17.3414C88.2985 17.3414 86.8985 19.9414 85.6985 20.5414C84.4985 21.1414 83.3985 21.6414 82.3985 22.3414C81.4985 22.9414 81.9985 23.6414 82.6985 23.5414C83.3985 23.4414 84.2985 23.5414 84.6985 23.1414C84.9985 22.7414 85.8985 22.5414 86.2985 22.3414C86.7985 22.2414 87.2985 22.3414 87.6985 22.0414L87.7985 22.1414C87.8985 22.6414 88.0985 22.8414 88.1985 22.8414C88.3985 22.8414 92.0985 23.2414 92.3985 23.2414C92.5985 23.2414 93.1985 23.2414 93.2985 23.2414C93.3985 23.2414 93.5985 23.2414 93.5985 23.2414C93.5985 23.2414 93.5985 23.1414 93.7985 23.0414C93.9985 22.9414 94.0985 22.9414 94.0985 22.7414C94.0985 22.6414 94.0985 22.5414 94.0985 22.5414C94.0985 22.5414 97.0985 22.5414 97.1985 22.5414C97.3985 22.5414 97.3985 22.4414 97.4985 22.4414C97.5985 22.3414 97.6985 22.5414 97.9985 22.2414L98.2985 21.9414L98.4985 21.7414C98.4985 21.7414 98.2985 21.2414 97.9985 21.1414C97.6985 21.0414 97.0985 21.0414 96.7985 21.0414C96.2985 21.1414 95.6985 21.2414 95.2985 21.1414C95.3985 20.9414 95.6985 20.8414 95.7985 20.8414C95.8985 20.7414 96.3985 20.5414 96.3985 20.4414C96.3985 20.5414 96.3985 20.6414 96.3985 20.7414C96.5985 20.6414 96.6985 20.4414 96.8985 20.3414C96.8985 20.4414 96.7985 20.5414 96.7985 20.6414C96.9985 20.5414 97.1985 20.3414 97.3985 20.1414V20.3414C97.4985 20.2414 97.5985 20.0414 97.7985 19.9414C97.6985 20.1414 97.6985 20.2414 97.6985 20.4414C97.7985 20.2414 98.1985 19.6414 98.3985 19.9414C98.4985 20.0414 98.4985 20.4414 98.2985 20.4414C98.3985 20.4414 98.4985 20.3414 98.5985 20.2414L98.4985 20.4414C98.5985 20.4414 98.5985 20.4414 98.6985 20.4414C98.6985 20.5414 98.5985 20.5414 98.5985 20.6414C98.6985 20.5414 98.8985 20.6414 98.9985 20.8414C99.0985 20.9414 99.0985 21.1414 99.0985 21.3414C99.0985 21.5414 99.0985 21.8414 99.1985 22.0414L99.2985 21.8414C99.2985 21.9414 99.2985 22.1414 99.2985 22.2414L99.3985 22.1414C99.3985 22.4414 99.5985 23.3414 99.9985 23.3414C100.299 23.3414 100.699 23.3414 100.699 23.3414C100.699 23.3414 101.299 23.4414 101.499 23.4414H101.699C101.699 23.4414 101.899 23.5414 101.899 23.4414C101.899 23.3414 101.999 23.4414 102.099 23.4414C102.199 23.4414 102.199 23.4414 102.199 23.4414C102.199 23.4414 102.299 23.5414 102.299 23.4414C102.299 23.3414 102.399 23.2414 102.299 23.1414C102.199 23.0414 102.299 22.8414 101.999 22.6414C101.699 22.4414 101.399 22.1414 101.399 22.0414C101.399 21.9414 100.899 21.5414 100.899 21.2414C100.899 20.9414 100.999 20.7414 100.899 20.4414C100.799 20.1414 100.699 19.7414 100.699 19.4414C100.699 19.1414 100.699 19.0414 100.699 18.8414C100.699 18.6414 100.599 18.5414 100.699 18.2414C100.799 17.9414 100.899 17.6414 101.199 17.4414C101.199 17.5414 101.099 17.7414 100.999 17.8414C101.199 17.5414 101.399 17.2414 101.599 17.0414C101.699 17.4414 101.699 17.8414 101.699 18.2414C101.699 18.4414 101.899 19.1414 101.699 19.3414C101.799 19.2414 101.899 19.1414 101.899 18.9414C101.899 19.0414 101.899 19.2414 101.899 19.3414L101.999 19.2414C101.999 19.3414 101.899 19.5414 101.899 19.6414L101.999 19.5414C101.999 19.6414 101.999 19.8414 101.999 19.9414H102.099C101.999 19.9414 102.199 20.6414 102.199 20.7414C102.199 21.0414 102.299 21.5414 102.199 21.7414C102.199 21.6414 102.299 21.4414 102.399 21.3414C102.399 21.4414 102.399 21.6414 102.399 21.7414L102.499 21.6414C102.499 21.7414 102.499 21.8414 102.499 21.8414C102.499 21.7414 102.799 21.8414 102.799 21.8414C102.899 21.9414 102.999 22.0414 102.999 22.1414C103.099 22.4414 103.099 22.7414 103.199 22.8414C103.299 22.9414 103.499 22.9414 103.699 22.9414C103.899 22.9414 104.399 23.0414 104.499 22.9414C104.599 22.9414 104.799 22.9414 104.899 22.9414C104.999 22.9414 105.199 23.0414 105.199 23.0414C105.299 22.9414 105.399 22.9414 105.599 22.9414C105.699 22.9414 105.699 22.8414 105.599 22.7414C105.599 22.6414 105.499 22.5414 105.399 22.3414C105.299 22.1414 104.999 21.7414 104.799 21.6414C104.599 21.4414 104.199 20.8414 104.199 20.6414C104.199 20.4414 103.999 19.1414 103.999 18.7414C103.999 18.3414 103.799 17.7414 103.799 17.4414C103.799 17.2414 103.599 15.9414 103.699 15.5414C103.799 15.0414 104.099 14.2414 104.299 13.7414C104.399 13.5414 104.399 13.2414 104.399 13.0414V13.1414C104.399 13.0414 104.499 12.9414 104.499 12.8414C104.499 12.9414 104.599 13.0414 104.599 13.1414C104.599 12.7414 104.499 12.3414 104.499 12.0414C104.599 12.0414 104.599 12.1414 104.599 12.2414C104.599 11.9414 104.599 11.6414 104.499 11.3414C104.399 10.8414 104.299 10.4414 104.199 9.94142C104.199 9.84142 104.199 9.74142 104.199 9.64142C104.199 9.54142 104.199 9.44142 104.099 9.34142C103.999 9.04142 103.699 8.14142 103.999 7.84142C104.099 7.94142 104.099 8.04142 104.199 8.14142C104.099 7.84142 103.999 7.44142 103.999 7.14142C103.999 7.04142 104.099 7.04142 104.099 6.94142V7.04142L104.199 6.94142C104.199 7.04142 104.199 7.04142 104.199 7.14142C104.299 7.14142 104.299 7.04142 104.399 6.94142C104.399 6.94142 104.499 6.94142 104.499 6.84142C104.499 6.94142 104.499 6.94142 104.499 7.04142C104.499 6.94142 104.599 6.84142 104.599 6.84142L104.799 6.74142C104.799 6.74142 104.799 6.64142 104.899 6.64142V6.54142C104.899 6.54142 104.999 6.54142 104.999 6.64142C104.999 6.54142 104.999 6.54142 104.999 6.44142C104.999 6.44142 104.999 6.44142 105.099 6.44142C105.099 6.44142 105.099 6.44142 105.099 6.34142L105.199 6.44142V6.34142L105.299 6.44142C105.299 6.44142 105.299 6.44142 105.299 6.54142V6.64142C105.299 6.44142 105.199 6.34142 105.099 6.14142C105.099 6.14142 105.099 6.14142 105.199 6.14142C105.199 6.14142 105.199 6.04142 105.099 6.04142C105.099 6.04142 105.099 6.04142 105.199 6.14142V6.24142C105.199 6.14142 105.199 6.04142 105.099 6.04142C105.199 6.04142 105.199 6.14142 105.299 6.24142V6.14142C105.299 6.14142 105.299 6.04142 105.199 6.04142C105.199 6.04142 105.199 6.04142 105.299 6.04142C105.299 6.04142 105.299 6.04142 105.299 5.94142V5.84142L105.399 5.94142C105.399 5.84142 105.299 5.74142 105.299 5.64142C105.399 5.64142 105.399 5.74142 105.499 5.84142C105.499 5.64142 105.399 5.44142 105.299 5.34142C105.399 5.34142 105.499 5.44142 105.499 5.44142C105.499 5.34142 105.499 5.34142 105.399 5.24142L105.299 5.14142C105.299 5.14142 105.299 5.14142 105.199 5.04142C105.199 5.04142 105.199 5.04142 105.199 4.94142C105.299 4.94142 105.299 5.04142 105.399 5.04142C105.399 4.94142 105.299 4.84142 105.199 4.74142H105.299C105.299 4.74142 105.299 4.64142 105.199 4.64142C104.899 4.54142 104.999 4.54142 105.099 4.54142C105.099 4.64142 105.099 4.64142 105.099 4.64142C105.099 4.64142 105.099 4.64142 105.099 4.74142C105.199 4.64142 105.099 4.64142 105.099 4.54142Z" fill="#D9ECFA"/>
<path d="M119.899 16.9413C119.899 16.8413 119.899 16.8413 119.799 16.7413C119.799 16.7413 119.699 16.6413 119.699 16.5413L119.599 16.4413C119.599 16.4413 119.599 16.4413 119.599 16.3413L119.499 16.2413V16.1413C119.499 16.1413 119.499 16.1413 119.499 16.0413V15.9413C119.499 15.8413 119.499 15.8413 119.599 15.7413V15.6413C119.599 15.6413 119.599 15.5413 119.599 15.4413C119.599 15.3413 119.599 15.3413 119.499 15.2413C119.499 15.1413 119.399 15.0413 119.399 15.0413C119.399 14.9413 119.299 14.9413 119.299 14.8413L119.199 14.7413C119.199 14.7413 119.199 14.7413 119.099 14.6413C118.999 14.6413 118.999 14.5413 118.999 14.5413L118.899 14.4413L118.799 14.3413C118.799 14.3413 118.699 14.3413 118.699 14.2413C118.599 14.1413 118.499 14.1413 118.499 14.0413C118.399 14.0413 118.399 13.9413 118.299 13.9413C118.199 13.9413 118.199 13.9413 118.099 13.9413C118.099 13.9413 117.999 13.9413 117.899 13.9413H117.799C117.699 13.9413 117.699 13.9413 117.599 13.9413C117.599 13.9413 117.599 13.9413 117.499 13.9413C117.499 13.9413 117.499 13.9413 117.399 13.9413C117.299 13.9413 117.199 13.8413 117.099 13.8413H116.999C116.899 13.8413 116.799 13.8413 116.799 13.8413H116.699H116.599C116.599 13.8413 116.599 13.8413 116.499 13.8413C116.499 13.8413 116.499 13.8413 116.499 13.9413L116.399 14.0413C116.299 14.0413 116.299 14.0413 116.199 14.1413C116.199 14.1413 116.099 14.1413 116.099 14.2413H115.999C115.999 14.2413 115.899 14.2413 115.899 14.3413H115.799C115.799 14.3413 115.799 14.3413 115.699 14.3413C115.699 14.3413 115.699 14.3413 115.699 14.4413C115.699 14.4413 115.599 14.4413 115.599 14.5413C115.599 14.5413 115.599 14.5413 115.499 14.5413C115.499 14.5413 115.499 14.5413 115.399 14.5413C115.399 14.5413 115.299 14.6413 115.199 14.6413C115.199 14.6413 115.099 14.6413 115.099 14.7413H114.999C114.999 14.7413 114.999 14.7413 114.899 14.7413V14.8413V14.9413V15.0413V15.1413C114.899 15.1413 114.899 15.1413 114.999 15.1413C114.999 15.1413 114.999 15.2413 115.099 15.2413C115.099 15.2413 115.099 15.2413 115.099 15.3413C115.199 15.4413 115.199 15.5413 114.999 15.6413C114.899 15.6413 114.899 15.6413 114.799 15.7413C114.699 15.7413 114.699 15.7413 114.599 15.8413C114.499 15.8413 114.499 15.8413 114.399 15.8413H114.299H114.199C114.099 15.8413 113.999 15.8413 113.899 15.8413C113.799 15.8413 113.599 15.8413 113.499 15.9413H113.399C113.099 15.9413 112.899 15.9413 112.599 15.9413C112.299 15.9413 112.099 15.9413 111.799 15.9413C111.599 15.9413 111.499 15.9413 111.299 16.0413C111.199 16.0413 111.199 16.0413 111.099 16.0413H110.999H110.899C110.799 16.0413 110.799 16.0413 110.699 16.0413H110.599C110.599 16.0413 110.499 16.0413 110.399 16.0413C110.299 16.0413 110.299 16.0413 110.199 16.0413C110.099 16.0413 110.099 16.0413 110.099 16.0413H109.999C109.999 16.0413 109.999 16.0413 109.899 16.0413C109.799 15.9413 109.699 15.9413 109.599 15.8413C109.499 15.8413 109.499 15.7413 109.399 15.7413C109.399 15.7413 109.299 15.7413 109.299 15.6413L109.199 15.5413C109.199 15.5413 109.199 15.5413 109.199 15.4413V15.3413C109.199 15.2413 109.099 15.1413 109.099 15.0413C109.099 14.9413 108.999 14.8413 108.999 14.7413V14.6413C108.999 14.6413 108.999 14.6413 108.999 14.5413C108.999 14.5413 108.999 14.5413 108.999 14.4413V14.3413H108.899C108.799 14.3413 108.699 14.4413 108.699 14.4413C108.699 14.4413 108.599 14.5413 108.599 14.6413C108.599 14.7413 108.499 14.7413 108.499 14.8413V14.9413V15.0413V15.1413C108.499 15.2413 108.499 15.3413 108.499 15.4413C108.499 15.5413 108.499 15.6413 108.499 15.7413V15.8413C108.499 15.8413 108.499 15.8413 108.499 15.9413C108.499 16.0413 108.599 16.1413 108.599 16.2413C108.599 16.2413 108.499 16.2413 108.499 16.1413C108.499 16.2413 108.599 16.3413 108.599 16.3413C108.699 16.4413 108.799 16.4413 108.799 16.5413C108.699 16.5413 108.699 16.5413 108.599 16.5413C108.599 16.5413 108.599 16.5413 108.599 16.6413C108.599 16.6413 108.599 16.6413 108.699 16.7413C108.699 16.7413 108.699 16.7413 108.699 16.8413C108.699 16.8413 108.699 16.8413 108.799 16.9413C108.799 16.9413 108.799 16.9413 108.899 17.0413C108.899 17.0413 108.899 17.1413 108.999 17.1413C108.999 17.1413 108.999 17.1413 109.099 17.1413C109.099 17.1413 109.099 17.1413 109.099 17.2413C109.099 17.3413 109.099 17.3413 109.099 17.4413V17.5413V17.6413V17.7413V17.8413C109.099 18.0413 108.999 18.2413 108.999 18.4413C108.999 18.4413 108.999 18.4413 109.099 18.3413C109.099 18.4413 109.099 18.5413 109.099 18.6413C109.099 18.6413 109.099 18.7413 109.199 18.7413C109.199 18.8413 109.199 18.8413 109.199 18.9413C109.199 19.0413 109.199 19.0413 109.199 19.1413C109.199 19.2413 109.199 19.2413 109.199 19.2413C109.199 19.2413 109.199 19.2413 109.199 19.3413C109.199 19.4413 109.099 19.4413 109.099 19.5413L108.999 19.6413L108.899 19.7413V19.8413V19.9413V20.0413C108.899 20.1413 108.899 20.2413 108.899 20.3413C108.899 20.4413 108.899 20.4413 108.899 20.5413V20.6413H108.999C108.999 20.7413 108.999 20.7413 108.999 20.8413C108.999 20.9413 108.999 20.9413 108.999 21.0413V21.1413C108.999 21.2413 108.999 21.3413 108.999 21.4413C108.999 21.5413 108.999 21.5413 108.999 21.6413C108.999 21.7413 108.999 21.8413 108.999 21.9413C108.999 22.0413 108.999 22.1413 109.099 22.1413L109.199 22.2413C109.299 22.3413 109.299 22.3413 109.399 22.4413C109.399 22.4413 109.399 22.4413 109.499 22.4413C109.599 22.4413 109.599 22.4413 109.699 22.4413C109.699 22.4413 109.799 22.4413 109.799 22.5413C109.899 22.5413 109.899 22.5413 109.999 22.5413C110.099 22.5413 110.199 22.5413 110.199 22.4413V22.3413V22.2413V22.1413V22.0413C110.199 21.9413 110.199 21.8413 110.199 21.7413C110.199 21.6413 110.099 21.5413 110.099 21.5413C110.099 21.5413 110.099 21.5413 110.099 21.4413V21.3413C110.099 21.2413 110.099 21.2413 110.099 21.1413V21.0413C110.099 20.9413 110.099 20.9413 110.099 20.8413C110.099 20.8413 110.099 20.8413 110.099 20.7413C110.099 20.7413 110.099 20.7413 110.099 20.6413L110.199 20.5413C110.299 20.5413 110.299 20.4413 110.399 20.4413H110.499C110.499 20.4413 110.599 20.4413 110.599 20.3413C110.599 20.3413 110.599 20.3413 110.699 20.3413C110.699 20.4413 110.599 20.5413 110.599 20.6413C110.599 20.7413 110.499 20.7413 110.599 20.8413C110.599 20.9413 110.699 21.0413 110.699 21.1413V21.2413V21.3413V21.4413V21.5413C110.699 21.6413 110.699 21.6413 110.799 21.7413C110.899 21.7413 110.799 21.8413 110.899 21.8413C110.899 21.8413 110.899 21.9413 110.999 21.9413L111.099 22.0413C111.099 22.0413 111.199 22.0413 111.199 22.1413C111.199 22.2413 111.299 22.3413 111.299 22.3413H111.399H111.499C111.599 22.4413 111.799 22.4413 111.899 22.4413C111.999 22.4413 111.999 22.4413 112.099 22.4413C112.199 22.4413 112.199 22.4413 112.299 22.4413H112.399H112.499H112.599H112.699V22.3413C112.699 22.3413 112.699 22.3413 112.699 22.2413V22.1413C112.699 22.1413 112.699 22.0413 112.599 22.0413C112.599 22.0413 112.599 21.9413 112.499 21.9413C112.499 21.9413 112.499 21.9413 112.399 21.8413H112.299H112.199C112.099 21.8413 112.099 21.8413 111.999 21.8413C111.999 21.8413 111.899 21.8413 111.899 21.7413C111.899 21.7413 111.899 21.6413 111.799 21.6413C111.799 21.6413 111.799 21.6413 111.799 21.5413L111.699 21.4413C111.599 21.3413 111.599 21.3413 111.599 21.2413C111.599 21.2413 111.599 21.2413 111.599 21.1413C111.599 21.1413 111.599 21.1413 111.599 21.0413V20.9413V20.8413L111.699 20.7413C111.799 20.6413 111.899 20.5413 111.899 20.5413C111.899 20.5413 111.899 20.4413 111.999 20.5413C112.099 20.5413 112.099 20.5413 112.199 20.5413C112.199 20.5413 112.199 20.5413 112.299 20.5413H112.399H112.499C112.599 20.5413 112.599 20.5413 112.699 20.5413C112.699 20.5413 112.699 20.5413 112.599 20.5413C112.599 20.5413 112.599 20.5413 112.699 20.5413C112.699 20.5413 112.699 20.5413 112.799 20.5413H112.899H112.999C112.999 20.5413 112.999 20.5413 113.099 20.5413H113.199C113.299 20.6413 113.199 20.7413 113.199 20.7413C113.199 20.7413 113.199 20.7413 113.199 20.8413V20.9413C113.199 20.9413 113.199 21.0413 113.099 21.0413C113.099 21.0413 113.099 21.0413 112.999 21.1413H113.099V21.2413V21.3413C113.099 21.2413 113.099 21.3413 113.099 21.4413C113.099 21.5413 113.099 21.5413 113.099 21.6413C113.099 21.7413 113.099 21.7413 113.099 21.8413C113.099 22.0413 113.099 22.1413 113.199 22.2413C113.199 22.3413 113.199 22.4413 113.299 22.5413C113.299 22.6413 113.299 22.6413 113.399 22.7413C113.499 22.7413 113.499 22.8413 113.599 22.8413C113.599 22.8413 113.699 22.8413 113.799 22.8413C113.899 22.8413 113.899 22.8413 113.999 22.9413C114.099 22.9413 114.199 23.0413 114.399 22.9413C114.499 22.9413 114.699 22.9413 114.799 22.9413C114.799 22.9413 114.799 22.9413 114.899 22.9413C114.999 22.9413 114.999 22.9413 115.099 22.9413C115.199 22.9413 115.199 22.7413 115.199 22.6413C115.199 22.5413 115.099 22.5413 115.099 22.4413V22.3413C115.099 22.3413 115.099 22.2413 114.999 22.2413C114.999 22.2413 114.999 22.2413 114.899 22.1413C114.899 22.1413 114.899 22.1413 114.799 22.1413C114.699 22.0413 114.599 22.0413 114.499 22.0413H114.399V21.9413V21.8413V21.7413C114.399 21.6413 114.399 21.6413 114.499 21.5413C114.599 21.3413 114.599 21.0413 114.699 20.8413V20.7413H114.799C114.799 20.7413 114.799 20.7413 114.899 20.7413H114.999C115.099 20.7413 115.099 20.7413 115.199 20.6413C115.199 20.6413 115.199 20.6413 115.099 20.7413C115.099 20.7413 115.099 20.7413 115.199 20.7413H115.299H115.399V20.8413H115.499L115.599 20.7413C115.599 20.7413 115.599 20.7413 115.699 20.7413L115.799 20.6413H115.899C115.899 20.6413 115.899 20.6413 115.999 20.6413C115.999 20.6413 115.999 20.6413 115.999 20.7413C115.999 20.7413 115.999 20.7413 115.999 20.8413C115.999 20.9413 115.999 21.0413 115.999 21.0413C115.999 21.1413 115.999 21.1413 115.999 21.2413C115.999 21.2413 115.999 21.1413 116.099 21.1413V21.2413V21.3413V21.4413V21.5413C116.099 21.5413 116.099 21.5413 116.199 21.5413C116.199 21.6413 116.299 21.6413 116.299 21.7413C116.299 21.7413 116.299 21.7413 116.299 21.8413C116.299 21.8413 116.299 21.8413 116.399 21.8413V21.9413C116.399 22.0413 116.399 22.0413 116.399 22.0413C116.399 22.0413 116.399 22.0413 116.399 22.1413C116.399 22.1413 116.499 22.1413 116.499 22.2413C116.499 22.2413 116.499 22.3413 116.599 22.3413C116.599 22.4413 116.699 22.4413 116.699 22.5413C116.799 22.5413 116.899 22.5413 116.899 22.6413C116.999 22.7413 116.999 22.6413 117.099 22.6413H117.199H117.299H117.399C117.399 22.6413 117.399 22.6413 117.499 22.6413H117.599H117.699H117.799H117.899C117.899 22.6413 117.899 22.6413 117.899 22.5413V22.4413C117.899 22.3413 117.899 22.3413 117.799 22.2413V22.1413V22.0413V21.9413C117.799 21.9413 117.799 21.9413 117.699 21.9413C117.699 21.9413 117.699 21.9413 117.599 21.9413C117.499 21.9413 117.499 21.9413 117.399 21.9413V21.8413C117.399 21.8413 117.399 21.7413 117.299 21.7413V21.6413C117.299 21.5413 117.199 21.4413 117.199 21.4413C117.199 21.3413 117.099 21.1413 117.099 21.0413C117.099 21.0413 117.099 21.0413 117.099 20.9413V20.8413C117.099 20.7413 117.099 20.6413 117.099 20.5413V20.4413C117.099 20.4413 117.099 20.4413 117.099 20.3413C117.099 20.2413 117.099 20.2413 117.099 20.1413C117.099 20.0413 117.099 20.0413 117.099 19.9413C117.099 19.9413 117.099 19.9413 117.099 19.8413V19.7413V19.6413C117.099 19.6413 117.099 19.6413 117.099 19.5413C117.099 19.5413 117.099 19.6413 117.199 19.6413C117.199 19.5413 117.199 19.5413 117.199 19.4413V19.3413C117.199 19.2413 117.199 19.2413 117.199 19.1413V19.0413C117.199 18.9413 117.199 18.9413 117.199 18.8413V18.7413C117.199 18.7413 117.199 18.7413 117.199 18.6413V18.5413C117.199 18.5413 117.199 18.5413 117.199 18.4413C117.199 18.4413 117.199 18.4413 117.199 18.3413C117.199 18.3413 117.199 18.3413 117.199 18.2413C117.199 18.1413 117.199 18.1413 117.299 18.0413C117.299 17.9413 117.399 18.0413 117.399 18.0413H117.499H117.599C117.599 18.0413 117.599 18.0413 117.699 18.0413C117.699 18.0413 117.699 18.0413 117.799 18.0413H117.899C117.999 18.0413 117.999 18.0413 118.099 18.1413H118.199H118.299C118.299 18.1413 118.299 18.1413 118.399 18.1413C118.499 18.1413 118.499 18.1413 118.599 18.0413C118.599 18.0413 118.599 18.0413 118.699 18.0413C118.799 18.0413 118.799 17.9413 118.799 17.9413C118.899 17.9413 118.899 17.9413 118.899 17.8413C118.899 17.8413 118.899 17.8413 118.999 17.8413L119.099 17.7413C119.099 17.7413 119.099 17.7413 119.199 17.7413C119.199 17.7413 119.199 17.7413 119.299 17.7413C119.299 17.7413 119.299 17.7413 119.299 17.6413C119.299 17.6413 119.299 17.6413 119.299 17.5413C119.899 17.0413 119.899 17.0413 119.899 16.9413Z" fill="#005CA9"/>
<path d="M39.1826 45.3413L174.983 44.8413L175.083 58.0413L39.1826 58.5413" fill="#005CA9"/>
<path fill-rule="evenodd" clip-rule="evenodd" d="M314.983 44.541H473.283V58.841H314.983V44.541ZM315.983 45.541V57.841H472.283V45.541H315.983Z" fill="#D9ECFA"/>
<path fill-rule="evenodd" clip-rule="evenodd" d="M287.903 72.0002C287.903 71.4424 288.356 70.9902 288.913 70.9902L291.038 70.9902C291.596 70.9902 292.048 71.4424 292.048 72.0002C292.048 72.558 291.596 73.0102 291.038 73.0102L288.913 73.0102C288.356 73.0102 287.903 72.558 287.903 72.0002ZM294.278 72.0002C294.278 71.4424 294.731 70.9902 295.288 70.9902L299.538 70.9902C300.096 70.9902 300.548 71.4424 300.548 72.0002C300.548 72.558 300.096 73.0102 299.538 73.0102L295.288 73.0102C294.731 73.0102 294.278 72.558 294.278 72.0002ZM302.778 72.0002C302.778 71.4424 303.231 70.9902 303.788 70.9902L305.913 70.9902C306.471 70.9902 306.923 71.4424 306.923 72.0002C306.923 72.558 306.471 73.0102 305.913 73.0102L303.788 73.0102C303.231 73.0102 302.778 72.558 302.778 72.0002Z" fill="#D9ECFA"/>
<path fill-rule="evenodd" clip-rule="evenodd" d="M329.903 72.0002C329.903 71.4424 330.356 70.9902 330.913 70.9902L333.213 70.9902C333.771 70.9902 334.223 71.4424 334.223 72.0002C334.223 72.558 333.771 73.0102 333.213 73.0102L330.913 73.0102C330.356 73.0102 329.903 72.558 329.903 72.0002ZM336.803 72.0002C336.803 71.4424 337.256 70.9902 337.813 70.9902L342.413 70.9902C342.971 70.9902 343.423 71.4424 343.423 72.0002C343.423 72.558 342.971 73.0102 342.413 73.0102L337.813 73.0102C337.256 73.0102 336.803 72.558 336.803 72.0002ZM346.003 72.0002C346.003 71.4424 346.456 70.9902 347.013 70.9902L351.613 70.9902C352.171 70.9902 352.623 71.4424 352.623 72.0002C352.623 72.558 352.171 73.0102 351.613 73.0102L347.013 73.0102C346.456 73.0102 346.003 72.558 346.003 72.0002ZM355.203 72.0002C355.203 71.4424 355.656 70.9902 356.213 70.9902L360.813 70.9902C361.371 70.9902 361.823 71.4424 361.823 72.0002C361.823 72.558 361.371 73.0102 360.813 73.0102L356.213 73.0102C355.656 73.0102 355.203 72.558 355.203 72.0002ZM364.403 72.0002C364.403 71.4424 364.856 70.9902 365.413 70.9902L370.013 70.9902C370.571 70.9902 371.023 71.4424 371.023 72.0002C371.023 72.558 370.571 73.0102 370.013 73.0102L365.413 73.0102C364.856 73.0102 364.403 72.558 364.403 72.0002ZM373.603 72.0002C373.603 71.4424 374.056 70.9902 374.613 70.9902L376.913 70.9902C377.471 70.9902 377.923 71.4424 377.923 72.0002C377.923 72.558 377.471 73.0102 376.913 73.0102L374.613 73.0102C374.056 73.0102 373.603 72.558 373.603 72.0002Z" fill="#D9ECFA"/>
<path fill-rule="evenodd" clip-rule="evenodd" d="M409.903 72.0002C409.903 71.4424 410.356 70.9902 410.913 70.9902L413.128 70.9902C413.685 70.9902 414.138 71.4424 414.138 72.0002C414.138 72.558 413.685 73.0102 413.128 73.0102L410.913 73.0102C410.356 73.0102 409.903 72.558 409.903 72.0002ZM416.546 72.0002C416.546 71.4424 416.998 70.9902 417.556 70.9902L421.985 70.9902C422.543 70.9902 422.995 71.4424 422.995 72.0002C422.995 72.558 422.543 73.0102 421.985 73.0102L417.556 73.0102C416.998 73.0102 416.546 72.558 416.546 72.0002ZM425.403 72.0002C425.403 71.4424 425.856 70.9902 426.413 70.9902L430.842 70.9902C431.4 70.9902 431.852 71.4424 431.852 72.0002C431.852 72.558 431.4 73.0102 430.842 73.0102L426.413 73.0102C425.856 73.0102 425.403 72.558 425.403 72.0002ZM434.26 72.0002C434.26 71.4424 434.713 70.9902 435.27 70.9902L439.699 70.9902C440.257 70.9902 440.709 71.4424 440.709 72.0002C440.709 72.558 440.257 73.0102 439.699 73.0102L435.27 73.0102C434.713 73.0102 434.26 72.558 434.26 72.0002ZM443.118 72.0002C443.118 71.4424 443.57 70.9902 444.128 70.9902L448.556 70.9902C449.114 70.9902 449.566 71.4424 449.566 72.0002C449.566 72.558 449.114 73.0102 448.556 73.0102L444.128 73.0102C443.57 73.0102 443.118 72.558 443.118 72.0002ZM451.975 72.0002C451.975 71.4424 452.427 70.9902 452.985 70.9902L457.413 70.9902C457.971 70.9902 458.423 71.4424 458.423 72.0002C458.423 72.558 457.971 73.0102 457.413 73.0102L452.985 73.0102C452.427 73.0102 451.975 72.558 451.975 72.0002ZM460.832 72.0002C460.832 71.4424 461.284 70.9902 461.842 70.9902L466.27 70.9902C466.828 70.9902 467.28 71.4424 467.28 72.0002C467.28 72.558 466.828 73.0102 466.27 73.0102L461.842 73.0102C461.284 73.0102 460.832 72.558 460.832 72.0002ZM469.689 72.0002C469.689 71.4424 470.141 70.9902 470.699 70.9902L472.913 70.9902C473.471 70.9902 473.923 71.4424 473.923 72.0002C473.923 72.558 473.471 73.0102 472.913 73.0102L470.699 73.0102C470.141 73.0102 469.689 72.558 469.689 72.0002Z" fill="#D9ECFA"/>
<path fill-rule="evenodd" clip-rule="evenodd" d="M189.753 72.0002C189.753 71.3591 190.273 70.8394 190.914 70.8394L193.664 70.8394C194.305 70.8394 194.825 71.3591 194.825 72.0002C194.825 72.6412 194.305 73.161 193.664 73.161L190.914 73.161C190.273 73.161 189.753 72.6412 189.753 72.0002ZM198.003 72.0002C198.003 71.3591 198.523 70.8394 199.164 70.8394L204.664 70.8394C205.305 70.8394 205.825 71.3591 205.825 72.0002C205.825 72.6412 205.305 73.161 204.664 73.161L199.164 73.161C198.523 73.161 198.003 72.6412 198.003 72.0002ZM209.003 72.0002C209.003 71.3591 209.523 70.8394 210.164 70.8394L212.914 70.8394C213.555 70.8394 214.075 71.3591 214.075 72.0002C214.075 72.6412 213.555 73.161 212.914 73.161L210.164 73.161C209.523 73.161 209.003 72.6412 209.003 72.0002Z" fill="#D9ECFA"/>
<path d="M475.883 77.6L485.983 71.8L475.883 66V77.6Z" fill="#D9ECFA"/>
<path fill-rule="evenodd" clip-rule="evenodd" d="M49.7529 72.0002C49.7529 71.3591 50.2726 70.8394 50.9137 70.8394L52.9137 70.8394C53.5548 70.8394 54.0745 71.3591 54.0745 72.0002C54.0745 72.6412 53.5548 73.161 52.9137 73.161L50.9137 73.161C50.2726 73.161 49.7529 72.6412 49.7529 72.0002ZM55.7529 72.0002C55.7529 71.3591 56.2726 70.8394 56.9137 70.8394L60.9137 70.8394C61.5548 70.8394 62.0745 71.3591 62.0745 72.0002C62.0745 72.6412 61.5548 73.161 60.9137 73.161L56.9137 73.161C56.2726 73.161 55.7529 72.6412 55.7529 72.0002ZM63.7529 72.0002C63.7529 71.3591 64.2726 70.8394 64.9137 70.8394L66.9137 70.8394C67.5548 70.8394 68.0745 71.3591 68.0745 72.0002C68.0745 72.6412 67.5548 73.161 66.9137 73.161L64.9137 73.161C64.2726 73.161 63.7529 72.6412 63.7529 72.0002Z" fill="#D9ECFA"/>
<path fill-rule="evenodd" clip-rule="evenodd" d="M128.753 72.0002C128.753 71.3591 129.273 70.8394 129.914 70.8394L131.976 70.8394C132.617 70.8394 133.137 71.3591 133.137 72.0002C133.137 72.6412 132.617 73.161 131.976 73.161L129.914 73.161C129.273 73.161 128.753 72.6412 128.753 72.0002ZM134.94 72.0002C134.94 71.3591 135.46 70.8394 136.101 70.8394L140.226 70.8394C140.867 70.8394 141.387 71.3591 141.387 72.0002C141.387 72.6412 140.867 73.161 140.226 73.161L136.101 73.161C135.46 73.161 134.94 72.6412 134.94 72.0002ZM143.19 72.0002C143.19 71.3591 143.71 70.8394 144.351 70.8394L148.476 70.8394C149.117 70.8394 149.637 71.3591 149.637 72.0002C149.637 72.6412 149.117 73.161 148.476 73.161L144.351 73.161C143.71 73.161 143.19 72.6412 143.19 72.0002ZM151.44 72.0002C151.44 71.3591 151.96 70.8394 152.601 70.8394L156.726 70.8394C157.367 70.8394 157.887 71.3591 157.887 72.0002C157.887 72.6412 157.367 73.161 156.726 73.161L152.601 73.161C151.96 73.161 151.44 72.6412 151.44 72.0002ZM159.69 72.0002C159.69 71.3591 160.21 70.8394 160.851 70.8394L162.914 70.8394C163.555 70.8394 164.075 71.3591 164.075 72.0002C164.075 72.6412 163.555 73.161 162.914 73.161L160.851 73.161C160.21 73.161 159.69 72.6412 159.69 72.0002Z" fill="#D9ECFA"/>
<path d="M124.723 71.0884V69.3996H123.387C123.108 69.3996 122.886 69.4782 122.72 69.6353C122.563 69.7836 122.484 69.9887 122.484 70.2506C122.484 70.5037 122.563 70.7088 122.72 70.8659C122.886 71.0142 123.108 71.0884 123.387 71.0884H124.723ZM122.654 74.8588H120.717L122.091 72.0703C121.699 71.9219 121.389 71.6819 121.162 71.3503C120.935 71.0186 120.822 70.6259 120.822 70.172C120.822 69.5523 121.031 69.0418 121.45 68.6403C121.878 68.2388 122.423 68.0381 123.086 68.0381H126.399V74.8588H124.697V72.4369H123.78L122.654 74.8588Z" fill="#005CA9"/>
<path d="M119.39 74.8589H117.688V68.2346H119.39V74.8589ZM119.403 66.8731H117.662V65.4854H119.403V66.8731Z" fill="#005CA9"/>
<path d="M116.434 76.5345H114.811V74.8588H109.901V68.0381H111.616V73.3533H113.803V68.0381H115.518V73.3533H116.434V76.5345Z" fill="#005CA9"/>
<path d="M108.08 74.8587H106.417V74.2696C106.182 74.5053 105.937 74.6755 105.684 74.7802C105.44 74.8762 105.126 74.9242 104.742 74.9242C103.982 74.9242 103.402 74.7235 103 74.322C102.625 73.9292 102.438 73.4187 102.438 72.7903C102.438 72.2142 102.638 71.7429 103.04 71.3764C103.441 71.0011 104.026 70.8134 104.794 70.8134H106.378V70.4731C106.378 70.0978 106.278 69.8272 106.077 69.6614C105.876 69.4868 105.553 69.3995 105.108 69.3995C104.576 69.3995 104.139 69.5959 103.799 69.9887L102.726 68.9283C103.057 68.5617 103.402 68.3086 103.76 68.1689C104.126 68.0293 104.598 67.9595 105.174 67.9595C107.111 67.9595 108.08 68.7624 108.08 70.3683V74.8587ZM106.378 72.3452V71.9786H105.082C104.41 71.9786 104.074 72.2404 104.074 72.7641C104.074 73.279 104.419 73.5365 105.108 73.5365C105.553 73.5365 105.889 73.4274 106.116 73.2092C106.291 73.0608 106.378 72.7728 106.378 72.3452Z" fill="#005CA9"/>
<path d="M101.885 69.5436H99.9211V74.8588H98.2061V69.5436H96.2031V68.0381H101.885V69.5436Z" fill="#005CA9"/>
<path d="M91.7365 74.8588H90.0215V68.0381H91.7365V74.8588ZM96.1353 74.8588H94.093L91.7496 71.2848L93.9882 68.0381H95.9782L93.5693 71.2193L96.1353 74.8588Z" fill="#005CA9"/>
<path d="M88.1864 74.8587H86.5238V74.2696C86.2881 74.5053 86.0438 74.6755 85.7907 74.7802C85.5463 74.8762 85.2321 74.9242 84.8481 74.9242C84.0888 74.9242 83.5084 74.7235 83.1069 74.322C82.7316 73.9292 82.5439 73.4187 82.5439 72.7903C82.5439 72.2142 82.7447 71.7429 83.1462 71.3764C83.5476 71.0011 84.1324 70.8134 84.9004 70.8134H86.4845V70.4731C86.4845 70.0978 86.3841 69.8272 86.1834 69.6614C85.9827 69.4868 85.6597 69.3995 85.2146 69.3995C84.6822 69.3995 84.2459 69.5959 83.9055 69.9887L82.832 68.9283C83.1636 68.5617 83.5084 68.3086 83.8662 68.1689C84.2328 68.0293 84.7041 67.9595 85.2801 67.9595C87.2176 67.9595 88.1864 68.7624 88.1864 70.3683V74.8587ZM86.4845 72.3452V71.9786H85.1884C84.5164 71.9786 84.1804 72.2404 84.1804 72.7641C84.1804 73.279 84.5251 73.5365 85.2146 73.5365C85.6597 73.5365 85.9958 73.4274 86.2227 73.2092C86.3972 73.0608 86.4845 72.7728 86.4845 72.3452Z" fill="#005CA9"/>
<path d="M80.9789 74.8588H79.1592V67.161H76.9336V69.8709C76.9336 71.1539 76.8201 72.1663 76.5932 72.9082C76.375 73.6413 76.0608 74.1519 75.6506 74.4399C75.2491 74.7192 74.7124 74.8588 74.0404 74.8588H73.3203V73.2355H73.5821C73.8352 73.2355 74.0491 73.1918 74.2236 73.1045C74.4069 73.0085 74.5727 72.8427 74.7211 72.6071C74.8782 72.3627 74.9917 72.0048 75.0615 71.5336C75.14 71.0623 75.1793 70.4731 75.1793 69.7662V65.5376H80.9789V74.8588Z" fill="#005CA9"/>
<path d="M178.383 81C173.483 81 169.383 77 169.383 72C169.383 67.1 173.383 63 178.383 63C183.283 63 187.383 67 187.383 72C187.283 76.9 183.283 81 178.383 81Z" fill="#D9ECFA"/>
<path fill-rule="evenodd" clip-rule="evenodd" d="M175.847 66.4751C176.137 66.1792 176.612 66.1744 176.908 66.4643L181.908 71.3643C182.051 71.5045 182.132 71.696 182.133 71.8962C182.134 72.0964 182.055 72.2887 181.913 72.4303L177.013 77.3303C176.72 77.6232 176.245 77.6232 175.952 77.3303C175.66 77.0374 175.66 76.5626 175.952 76.2697L180.317 71.9054L175.858 67.5357C175.562 67.2457 175.557 66.7709 175.847 66.4751Z" fill="#005CA9"/>
<path d="M317.383 81C312.483 81 308.383 77 308.383 72C308.383 67.1 312.383 63 317.383 63C322.283 63 326.383 67 326.383 72C326.383 76.9 322.283 81 317.383 81Z" fill="#D9ECFA"/>
<path fill-rule="evenodd" clip-rule="evenodd" d="M314.953 66.4697C315.246 66.1768 315.721 66.1768 316.014 66.4697L320.914 71.3697C321.207 71.6626 321.207 72.1374 320.914 72.4303L316.014 77.3303C315.721 77.6232 315.246 77.6232 314.953 77.3303C314.66 77.0374 314.66 76.5626 314.953 76.2697L319.323 71.9L314.953 67.5303C314.66 67.2374 314.66 66.7626 314.953 66.4697Z" fill="#005CA9"/>
<path d="M203.463 113.101C203.882 113.503 204.092 114.026 204.092 114.672C204.092 115.318 203.878 115.846 203.45 116.256C203.031 116.658 202.49 116.858 201.827 116.858H198.541V110.038H200.256V112.499H201.827C202.499 112.499 203.045 112.7 203.463 113.101ZM201.513 113.834H200.204V115.523H201.513C201.783 115.523 201.997 115.449 202.154 115.3C202.32 115.143 202.403 114.934 202.403 114.672C202.403 114.419 202.32 114.218 202.154 114.07C201.997 113.913 201.783 113.834 201.513 113.834Z" fill="#005CA9"/>
<path d="M197.301 118.534H195.678V116.858H190.769V110.038H192.484V115.353H194.67V110.038H196.385V115.353H197.301V118.534Z" fill="#005CA9"/>
<path d="M187.205 113.088V111.399H185.87C185.591 111.399 185.368 111.478 185.202 111.635C185.045 111.783 184.967 111.988 184.967 112.25C184.967 112.503 185.045 112.708 185.202 112.865C185.368 113.014 185.591 113.088 185.87 113.088H187.205ZM185.137 116.858H183.199L184.574 114.07C184.181 113.921 183.871 113.681 183.644 113.35C183.417 113.018 183.304 112.625 183.304 112.172C183.304 111.552 183.513 111.041 183.932 110.64C184.36 110.238 184.905 110.038 185.569 110.038H188.881V116.858H187.179V114.436H186.263L185.137 116.858Z" fill="#005CA9"/>
<path d="M182.447 116.007C181.853 116.627 181.103 116.937 180.195 116.937C179.907 116.937 179.628 116.906 179.357 116.845C179.086 116.775 178.812 116.662 178.532 116.505C178.262 116.339 178.026 116.129 177.825 115.876C177.625 115.615 177.459 115.279 177.328 114.868C177.206 114.449 177.145 113.974 177.145 113.441C177.145 112.909 177.206 112.438 177.328 112.027C177.459 111.609 177.625 111.273 177.825 111.019C178.026 110.766 178.262 110.557 178.532 110.391C178.812 110.225 179.086 110.112 179.357 110.051C179.628 109.99 179.907 109.959 180.195 109.959C181.111 109.959 181.862 110.264 182.447 110.875L181.295 112.027C180.963 111.67 180.596 111.491 180.195 111.491C179.793 111.491 179.47 111.639 179.226 111.936C178.973 112.25 178.846 112.752 178.846 113.441C178.846 114.14 178.973 114.646 179.226 114.96C179.47 115.257 179.793 115.405 180.195 115.405C180.596 115.405 180.963 115.226 181.295 114.868L182.447 116.007Z" fill="#005CA9"/>
<path d="M175.582 116.858H173.88V110.234H175.582V116.858ZM175.595 108.873H173.854V107.485H175.595V108.873Z" fill="#005CA9"/>
<path d="M171.972 116.858H170.27V112.918L168.987 115.444H168.018L166.722 112.918V116.858H165.007V110.038H166.696L168.502 113.625L170.296 110.038H171.972V116.858Z" fill="#005CA9"/>
<path d="M158.862 116.858H157.16V109.37L155.262 111.019V109.187L157.16 107.537H158.862V116.858Z" fill="#005CA9"/>
<path d="M283.127 70.5962V68.9074H281.792C281.512 68.9074 281.29 68.986 281.124 69.1431C280.967 69.2914 280.888 69.4965 280.888 69.7584C280.888 70.0115 280.967 70.2166 281.124 70.3737C281.29 70.5221 281.512 70.5962 281.792 70.5962H283.127ZM281.059 74.3666H279.121L280.496 71.5781C280.103 71.4297 279.793 71.1897 279.566 70.8581C279.339 70.5264 279.226 70.1337 279.226 69.6798C279.226 69.0602 279.435 68.5496 279.854 68.1481C280.282 67.7466 280.827 67.5459 281.491 67.5459H284.803V74.3666H283.101V71.9447H282.185L281.059 74.3666Z" fill="#005CA9"/>
<path d="M277.796 74.3666H276.081V71.6305H273.895V74.3666H272.18V67.5459H273.895V70.1249H276.081V67.5459H277.796V74.3666Z" fill="#005CA9"/>
<path d="M270.291 74.3666H268.576V71.6305H266.39V74.3666H264.675V67.5459H266.39V70.1249H268.576V67.5459H270.291V74.3666Z" fill="#005CA9"/>
<path d="M263.119 71.4864H258.852C258.852 71.9402 258.982 72.3068 259.244 72.5861C259.506 72.8654 259.873 73.005 260.344 73.005C260.693 73.005 260.977 72.957 261.195 72.861C261.422 72.7563 261.653 72.5905 261.889 72.3635L262.923 73.3716C262.556 73.7469 262.177 74.0218 261.784 74.1964C261.4 74.3622 260.916 74.4451 260.331 74.4451C259.894 74.4451 259.497 74.3927 259.14 74.288C258.79 74.1745 258.463 73.9913 258.158 73.7382C257.852 73.4851 257.612 73.1229 257.438 72.6516C257.263 72.1803 257.176 71.613 257.176 70.9497C257.176 69.8587 257.446 69.0077 257.987 68.3968C258.529 67.7771 259.249 67.4673 260.148 67.4673C261.081 67.4673 261.81 67.7728 262.334 68.3837C262.858 68.9859 263.119 69.7801 263.119 70.7664V71.4864ZM261.444 70.3213C261.435 70.0245 261.383 69.7801 261.287 69.5881C261.077 69.1168 260.697 68.8812 260.148 68.8812C259.598 68.8812 259.218 69.1168 259.009 69.5881C258.913 69.7801 258.86 70.0245 258.852 70.3213H261.444Z" fill="#005CA9"/>
<path d="M255.62 74.3666H253.918V71.9709C253.228 72.093 252.609 72.1541 252.059 72.1541C251.5 72.1541 251.042 71.9883 250.684 71.6567C250.326 71.325 250.147 70.8712 250.147 70.2951V67.5459H251.849V69.8238C251.849 70.3737 252.129 70.6486 252.687 70.6486C252.905 70.6486 253.316 70.6093 253.918 70.5308V67.5459H255.62V74.3666Z" fill="#005CA9"/>
<path d="M249.398 67.5459L246.478 75.4663C246.295 75.9551 246.046 76.3085 245.732 76.5267C245.427 76.7537 245.016 76.8671 244.501 76.8671H243.834V75.3354H244.226C244.48 75.3354 244.663 75.2918 244.776 75.2045C244.89 75.1259 244.99 74.9645 245.077 74.7201L245.365 73.8822L243.035 67.5459H244.829L246.243 71.7614L247.604 67.5459H249.398Z" fill="#005CA9"/>
<path d="M242.087 74.3666H240.385V69.0514H238.749V70.6879C238.749 72.0756 238.57 73.0356 238.212 73.568C237.854 74.1004 237.305 74.3666 236.563 74.3666H235.751V72.8611H235.96C236.144 72.8611 236.288 72.8436 236.392 72.8087C236.497 72.7651 236.611 72.6691 236.733 72.5207C236.864 72.3636 236.955 72.1018 237.008 71.7352C237.069 71.3686 237.099 70.893 237.099 70.3082V67.5459H242.087V74.3666Z" fill="#005CA9"/>
<path d="M235.265 76.0423H233.655V74.3666H229.754V76.0423H228.144V72.8611H228.837C229.283 72.0669 229.505 70.989 229.505 69.6275V67.5459H234.401V72.8611H235.265V76.0423ZM232.699 72.8611V69.0514H231.142V69.9417C231.142 71.1723 230.967 72.1454 230.618 72.8611H232.699Z" fill="#005CA9"/>
<path d="M227.026 74.3668H225.324V67.7424H227.026V74.3668ZM227.039 66.3809H225.298V64.9932H227.039V66.3809Z" fill="#005CA9"/>
<path d="M222.31 69.5882C222.607 69.7453 222.843 69.9111 223.017 70.0857C223.401 70.4959 223.593 71.0326 223.593 71.6959C223.593 72.5163 223.336 73.1666 222.821 73.6466C222.306 74.1266 221.612 74.3666 220.739 74.3666H216.838V65.0454H220.582C221.464 65.0454 222.162 65.2767 222.677 65.7393C223.2 66.2018 223.462 66.8259 223.462 67.6114C223.462 68.5016 223.078 69.1605 222.31 69.5882ZM218.658 68.8158H220.438C220.813 68.8158 221.106 68.7198 221.315 68.5278C221.533 68.3358 221.643 68.0739 221.643 67.7423C221.643 67.4106 221.533 67.1488 221.315 66.9568C221.106 66.7648 220.813 66.6688 220.438 66.6688H218.658V68.8158ZM218.658 72.7433H220.556C220.931 72.7433 221.228 72.6385 221.446 72.4291C221.664 72.2196 221.773 71.9403 221.773 71.5912C221.773 71.2421 221.664 70.9672 221.446 70.7664C221.228 70.557 220.931 70.4522 220.556 70.4522H218.658V72.7433Z" fill="#005CA9"/>
<path d="M405.932 69.0514H403.968V74.3666H402.253V69.0514H400.25V67.5459H405.932V69.0514Z" fill="#005CA9"/>
<path d="M399.733 73.5156C399.139 74.1353 398.389 74.4451 397.481 74.4451C397.193 74.4451 396.914 74.4146 396.643 74.3535C396.373 74.2836 396.098 74.1702 395.818 74.0131C395.548 73.8473 395.312 73.6378 395.111 73.3847C394.911 73.1229 394.745 72.7868 394.614 72.3766C394.492 71.9577 394.431 71.482 394.431 70.9497C394.431 70.4173 394.492 69.946 394.614 69.5358C394.745 69.1168 394.911 68.7808 395.111 68.5277C395.312 68.2746 395.548 68.0651 395.818 67.8993C396.098 67.7335 396.373 67.62 396.643 67.5589C396.914 67.4978 397.193 67.4673 397.481 67.4673C398.397 67.4673 399.148 67.7728 399.733 68.3837L398.581 69.5358C398.249 69.1779 397.882 68.999 397.481 68.999C397.08 68.999 396.757 69.1474 396.512 69.4441C396.259 69.7583 396.133 70.2602 396.133 70.9497C396.133 71.6479 396.259 72.1541 396.512 72.4683C396.757 72.765 397.08 72.9134 397.481 72.9134C397.882 72.9134 398.249 72.7345 398.581 72.3766L399.733 73.5156Z" fill="#005CA9"/>
<path d="M392.868 74.3668H391.166V67.7424H392.868V74.3668ZM392.881 66.3809H391.14V64.9932H392.881V66.3809Z" fill="#005CA9"/>
<path d="M388.928 65.8833C389.487 66.4418 389.766 67.1313 389.766 67.9517C389.766 68.7722 389.487 69.4616 388.928 70.0202C388.378 70.5788 387.632 70.8581 386.689 70.8581H384.896V74.3666H383.076V65.0454H386.689C387.632 65.0454 388.378 65.3247 388.928 65.8833ZM387.58 68.8812C387.824 68.6456 387.946 68.3358 387.946 67.9517C387.946 67.5677 387.824 67.2579 387.58 67.0222C387.335 66.7866 387.008 66.6688 386.598 66.6688H384.896V69.2216H386.598C387.008 69.2216 387.335 69.1082 387.58 68.8812Z" fill="#005CA9"/>
<path fill-rule="evenodd" clip-rule="evenodd" d="M179.914 84.8394C180.555 84.8394 181.075 85.3591 181.075 86.0002V88.1002C181.075 88.7412 180.555 89.261 179.914 89.261C179.273 89.261 178.753 88.7412 178.753 88.1002V86.0002C178.753 85.3591 179.273 84.8394 179.914 84.8394ZM179.914 91.1394C180.555 91.1394 181.075 91.6591 181.075 92.3002V96.5002C181.075 97.1412 180.555 97.661 179.914 97.661C179.273 97.661 178.753 97.1412 178.753 96.5002V92.3002C178.753 91.6591 179.273 91.1394 179.914 91.1394ZM179.914 99.5394C180.555 99.5394 181.075 100.059 181.075 100.7V102.8C181.075 103.441 180.555 103.961 179.914 103.961C179.273 103.961 178.753 103.441 178.753 102.8V100.7C178.753 100.059 179.273 99.5394 179.914 99.5394Z" fill="#D9ECFA"/>
<path d="M340.256 116.859H338.555V110.235H340.256V116.859ZM340.27 108.873H338.528V107.485H340.27V108.873Z" fill="#005CA9"/>
<path d="M337.301 118.535H335.678V116.859H330.769V110.038H332.484V115.353H334.67V110.038H336.385V115.353H337.301V118.535Z" fill="#005CA9"/>
<path d="M327.205 113.088V111.4H325.87C325.591 111.4 325.368 111.478 325.202 111.635C325.045 111.784 324.967 111.989 324.967 112.251C324.967 112.504 325.045 112.709 325.202 112.866C325.368 113.014 325.591 113.088 325.87 113.088H327.205ZM325.137 116.859H323.199L324.574 114.07C324.181 113.922 323.871 113.682 323.644 113.35C323.417 113.019 323.304 112.626 323.304 112.172C323.304 111.552 323.513 111.042 323.932 110.64C324.36 110.239 324.905 110.038 325.569 110.038H328.881V116.859H327.179V114.437H326.263L325.137 116.859Z" fill="#005CA9"/>
<path d="M322.447 116.008C321.853 116.627 321.103 116.937 320.195 116.937C319.907 116.937 319.628 116.907 319.357 116.846C319.086 116.776 318.812 116.662 318.532 116.505C318.262 116.339 318.026 116.13 317.825 115.877C317.625 115.615 317.459 115.279 317.328 114.869C317.206 114.45 317.145 113.974 317.145 113.442C317.145 112.909 317.206 112.438 317.328 112.028C317.459 111.609 317.625 111.273 317.825 111.02C318.026 110.767 318.262 110.557 318.532 110.391C318.812 110.226 319.086 110.112 319.357 110.051C319.628 109.99 319.907 109.959 320.195 109.959C321.111 109.959 321.862 110.265 322.447 110.876L321.295 112.028C320.963 111.67 320.596 111.491 320.195 111.491C319.793 111.491 319.47 111.64 319.226 111.936C318.973 112.251 318.846 112.752 318.846 113.442C318.846 114.14 318.973 114.646 319.226 114.96C319.47 115.257 319.793 115.406 320.195 115.406C320.596 115.406 320.963 115.227 321.295 114.869L322.447 116.008Z" fill="#005CA9"/>
<path d="M315.582 116.859H313.88V110.235H315.582V116.859ZM315.595 108.873H313.854V107.485H315.595V108.873Z" fill="#005CA9"/>
<path d="M311.972 116.859H310.27V112.918L308.987 115.445H308.018L306.722 112.918V116.859H305.007V110.038H306.696L308.502 113.625L310.296 110.038H311.972V116.859Z" fill="#005CA9"/>
<path d="M300.354 116.859H294.686V115.327L298.168 111.282C298.491 110.898 298.652 110.522 298.652 110.156C298.652 109.807 298.552 109.527 298.351 109.318C298.159 109.1 297.884 108.991 297.526 108.991C297.203 108.991 296.933 109.087 296.715 109.279C296.497 109.462 296.387 109.763 296.387 110.182H294.686C294.686 109.353 294.952 108.694 295.484 108.205C296.025 107.708 296.706 107.459 297.526 107.459C298.364 107.459 299.045 107.703 299.569 108.192C300.092 108.681 300.354 109.34 300.354 110.169C300.354 110.588 300.28 110.941 300.132 111.229C299.983 111.517 299.726 111.875 299.359 112.303L296.754 115.327H300.354V116.859Z" fill="#005CA9"/>
<path fill-rule="evenodd" clip-rule="evenodd" d="M317.914 84.8394C318.555 84.8394 319.075 85.3591 319.075 86.0002V88.1002C319.075 88.7412 318.555 89.261 317.914 89.261C317.273 89.261 316.753 88.7412 316.753 88.1002V86.0002C316.753 85.3591 317.273 84.8394 317.914 84.8394ZM317.914 91.1394C318.555 91.1394 319.075 91.6591 319.075 92.3002V96.5002C319.075 97.1412 318.555 97.661 317.914 97.661C317.273 97.661 316.753 97.1412 316.753 96.5002V92.3002C316.753 91.6591 317.273 91.1394 317.914 91.1394ZM317.914 99.5394C318.555 99.5394 319.075 100.059 319.075 100.7V102.8C319.075 103.441 318.555 103.961 317.914 103.961C317.273 103.961 316.753 103.441 316.753 102.8V100.7C316.753 100.059 317.273 99.5394 317.914 99.5394Z" fill="#D9ECFA"/>
<path d="M73.0012 20.2232V18.5344H71.6658C71.3865 18.5344 71.164 18.6129 70.9981 18.77C70.841 18.9184 70.7625 19.1235 70.7625 19.3853C70.7625 19.6384 70.841 19.8435 70.9981 20.0006C71.164 20.149 71.3865 20.2232 71.6658 20.2232H73.0012ZM70.9327 23.9936H68.9951L70.3697 21.2051C69.977 21.0567 69.6672 20.8167 69.4402 20.485C69.2133 20.1534 69.0999 19.7606 69.0999 19.3068C69.0999 18.6871 69.3093 18.1765 69.7282 17.7751C70.1559 17.3736 70.7014 17.1729 71.3647 17.1729H74.6769V23.9936H72.975V21.5716H72.0586L70.9327 23.9936Z" fill="#005CA9"/>
<path d="M67.67 23.9936H65.955V21.2574H63.7687V23.9936H62.0537V17.1729H63.7687V19.7519H65.955V17.1729H67.67V23.9936Z" fill="#005CA9"/>
<path d="M60.1651 23.9936H58.4501V21.2574H56.2638V23.9936H54.5488V17.1729H56.2638V19.7519H58.4501V17.1729H60.1651V23.9936Z" fill="#005CA9"/>
<path d="M52.9934 21.1134H48.7255C48.7255 21.5672 48.8564 21.9338 49.1183 22.2131C49.3801 22.4923 49.7467 22.632 50.218 22.632C50.5671 22.632 50.8507 22.584 51.0689 22.488C51.2958 22.3832 51.5271 22.2174 51.7628 21.9905L52.797 22.9985C52.4305 23.3738 52.0508 23.6488 51.658 23.8233C51.274 23.9891 50.7896 24.0721 50.2049 24.0721C49.7685 24.0721 49.3714 24.0197 49.0135 23.915C48.6644 23.8015 48.3371 23.6182 48.0317 23.3651C47.7262 23.112 47.4862 22.7498 47.3116 22.2785C47.1371 21.8072 47.0498 21.2399 47.0498 20.5766C47.0498 19.4856 47.3204 18.6347 47.8615 18.0237C48.4026 17.4041 49.1226 17.0942 50.0216 17.0942C50.9555 17.0942 51.6842 17.3997 52.2079 18.0107C52.7316 18.6129 52.9934 19.4071 52.9934 20.3933V21.1134ZM51.3177 19.9482C51.3089 19.6515 51.2566 19.4071 51.1606 19.2151C50.9511 18.7438 50.5714 18.5081 50.0216 18.5081C49.4717 18.5081 49.0921 18.7438 48.8826 19.2151C48.7866 19.4071 48.7343 19.6515 48.7255 19.9482H51.3177Z" fill="#005CA9"/>
<path d="M46.7729 23.9936H44.783L42.5705 20.4196L44.6783 17.1729H46.6289L44.3903 20.3541L46.7729 23.9936ZM42.5574 23.9936H40.8424V17.1729H42.5574V23.9936ZM38.63 23.9936H36.627L39.0227 20.3541L36.784 17.1729H38.7347L40.8294 20.4196L38.63 23.9936Z" fill="#005CA9"/>
<path d="M36.4031 25.6693H34.7928V23.9936H30.8915V25.6693H29.2812V22.488H29.9751C30.4202 21.6938 30.6428 20.6159 30.6428 19.2544V17.1729H35.539V22.488H36.4031V25.6693ZM33.8371 22.488V18.6784H32.2792V19.5686C32.2792 20.7992 32.1047 21.7724 31.7556 22.488H33.8371Z" fill="#005CA9"/>
<path d="M28.6357 20.5766C28.6357 21.2312 28.579 21.7636 28.4655 22.1738C28.3608 22.5753 28.16 22.9287 27.8633 23.2342C27.3222 23.7928 26.6152 24.0721 25.7425 24.0721C24.8784 24.0721 24.1758 23.7928 23.6347 23.2342C23.338 22.92 23.1329 22.5622 23.0194 22.1607C22.9147 21.7505 22.8623 21.2225 22.8623 20.5766C22.8623 19.9308 22.9147 19.4071 23.0194 19.0056C23.1329 18.6041 23.338 18.2463 23.6347 17.9321C24.1758 17.3735 24.8784 17.0942 25.7425 17.0942C26.6327 17.0942 27.3396 17.3735 27.8633 17.9321C28.16 18.2463 28.3608 18.6041 28.4655 19.0056C28.579 19.4071 28.6357 19.9308 28.6357 20.5766ZM26.9338 20.5766C26.9338 19.73 26.8029 19.1802 26.541 18.9271C26.3403 18.7263 26.0741 18.626 25.7425 18.626C25.4195 18.626 25.1577 18.7263 24.957 18.9271C24.6951 19.1802 24.5642 19.73 24.5642 20.5766C24.5642 21.4319 24.6951 21.9861 24.957 22.2392C25.1577 22.44 25.4195 22.5403 25.7425 22.5403C26.0741 22.5403 26.3403 22.44 26.541 22.2392C26.8029 21.9861 26.9338 21.4319 26.9338 20.5766Z" fill="#005CA9"/>
<path d="M21.5322 20.5766C21.5322 21.2835 21.4885 21.8639 21.4012 22.3178C21.314 22.7716 21.122 23.1513 20.8252 23.4568C20.4325 23.867 19.8826 24.0721 19.1757 24.0721C18.4687 24.0721 17.9189 23.8451 17.5261 23.3913V26.494H15.8242V17.1728H17.4738V17.8143C17.9014 17.3343 18.4687 17.0942 19.1757 17.0942C19.8826 17.0942 20.4325 17.2993 20.8252 17.7095C21.122 18.015 21.314 18.3947 21.4012 18.8485C21.4885 19.3024 21.5322 19.8784 21.5322 20.5766ZM19.791 21.3621C19.8172 21.1526 19.8302 20.8908 19.8302 20.5766C19.8302 20.2624 19.8172 20.0049 19.791 19.8042C19.7648 19.5947 19.7124 19.394 19.6339 19.202C19.5641 19.01 19.4462 18.866 19.2804 18.77C19.1233 18.674 18.9226 18.626 18.6782 18.626C18.4338 18.626 18.2287 18.674 18.0629 18.77C17.9058 18.866 17.788 19.01 17.7094 19.202C17.6396 19.394 17.5916 19.5947 17.5654 19.8042C17.5392 20.0049 17.5261 20.2624 17.5261 20.5766C17.5261 20.8908 17.5392 21.1526 17.5654 21.3621C17.5916 21.5628 17.6396 21.7636 17.7094 21.9643C17.788 22.1563 17.9058 22.3003 18.0629 22.3963C18.2287 22.4923 18.4338 22.5403 18.6782 22.5403C18.9226 22.5403 19.1233 22.4923 19.2804 22.3963C19.4462 22.3003 19.5641 22.1563 19.6339 21.9643C19.7124 21.7636 19.7648 21.5628 19.791 21.3621Z" fill="#005CA9"/>
<path d="M13.9892 23.9935H12.3265V23.4044C12.0909 23.64 11.8465 23.8102 11.5934 23.915C11.349 24.011 11.0348 24.059 10.6508 24.059C9.89149 24.059 9.3111 23.8582 8.90962 23.4568C8.53433 23.064 8.34668 22.5534 8.34668 21.925C8.34668 21.349 8.54742 20.8777 8.94889 20.5111C9.35037 20.1359 9.93513 19.9482 10.7032 19.9482H12.2873V19.6078C12.2873 19.2325 12.1869 18.962 11.9861 18.7961C11.7854 18.6216 11.4625 18.5343 11.0174 18.5343C10.485 18.5343 10.0486 18.7307 9.70821 19.1234L8.6347 18.063C8.96635 17.6965 9.31109 17.4433 9.66893 17.3037C10.0355 17.1641 10.5068 17.0942 11.0828 17.0942C13.0204 17.0942 13.9892 17.8972 13.9892 19.5031V23.9935ZM12.2873 21.4799V21.1134H10.9912C10.3191 21.1134 9.98313 21.3752 9.98313 21.8989C9.98313 22.4138 10.3279 22.6713 11.0174 22.6713C11.4625 22.6713 11.7985 22.5622 12.0254 22.344C12.2 22.1956 12.2873 21.9076 12.2873 21.4799Z" fill="#005CA9"/>
<path d="M6.79454 23.9936H4.97481V20.0923H1.81973V23.9936H0V14.6724H1.81973V18.482H4.97481V14.6724H6.79454V23.9936Z" fill="#005CA9"/>
<path d="M38.7826 68C36.4826 68 34.6826 69.9 34.6826 72.1C34.6826 74.4 36.5826 76.2 38.7826 76.2C41.0826 76.2 42.8826 74.3 42.8826 72.1C42.9826 69.9 41.0826 68 38.7826 68Z" fill="#005CA9"/>
<path d="M38.7832 64C34.3832 64 30.7832 67.6 30.7832 72C30.7832 76.4 34.3832 80 38.7832 80C43.1832 80 46.7832 76.4 46.7832 72C46.7832 67.6 43.1832 64 38.7832 64ZM38.7832 77.7C35.6832 77.7 33.0832 75.1 33.0832 72C33.0832 68.9 35.6832 66.3 38.7832 66.3C41.8832 66.3 44.4832 68.9 44.4832 72C44.4832 75.1 41.9832 77.7 38.7832 77.7Z" fill="#D9ECFA"/>
<path fill-rule="evenodd" clip-rule="evenodd" d="M38.1826 100.941V81.8413H40.1826V100.941H38.1826Z" fill="black"/>
<path fill-rule="evenodd" clip-rule="evenodd" d="M38.1826 63.8412V32.7412H40.1826V63.8412H38.1826Z" fill="black"/>
<mask id="mask0_4206_4397" style="mask-type:luminance" maskUnits="userSpaceOnUse" x="178" y="45" width="134" height="14">
<path d="M311.783 45.041H178.783V58.341H311.783V45.041Z" fill="white"/>
</mask>
<g mask="url(#mask0_4206_4397)">
<path fill-rule="evenodd" clip-rule="evenodd" d="M177.487 60.6614L193.387 41.4614L193.58 41.6209L177.68 60.8209L177.487 60.6614Z" fill="#D9ECFA"/>
<path fill-rule="evenodd" clip-rule="evenodd" d="M181.587 61.3611L197.487 42.1611L197.679 42.3206L181.779 61.5206L181.587 61.3611Z" fill="#D9ECFA"/>
<path fill-rule="evenodd" clip-rule="evenodd" d="M182.888 66.2609L204.288 40.4609L204.48 40.6205L183.08 66.4205L182.888 66.2609Z" fill="#D9ECFA"/>
<path fill-rule="evenodd" clip-rule="evenodd" d="M183.287 70.861L204.687 45.061L204.88 45.2206L183.48 71.0206L183.287 70.861Z" fill="#D9ECFA"/>
<path fill-rule="evenodd" clip-rule="evenodd" d="M190.888 67.861L212.288 42.061L212.48 42.2206L191.08 68.0206L190.888 67.861Z" fill="#D9ECFA"/>
<path fill-rule="evenodd" clip-rule="evenodd" d="M193.487 69.7609L214.887 43.9609L215.08 44.1205L193.68 69.9205L193.487 69.7609Z" fill="#D9ECFA"/>
<path fill-rule="evenodd" clip-rule="evenodd" d="M200.587 66.9611L221.987 41.1611L222.179 41.3207L200.779 67.1207L200.587 66.9611Z" fill="#D9ECFA"/>
<path fill-rule="evenodd" clip-rule="evenodd" d="M200.987 71.4611L222.487 45.6611L222.679 45.8212L201.179 71.6212L200.987 71.4611Z" fill="#D9ECFA"/>
<path fill-rule="evenodd" clip-rule="evenodd" d="M209.888 66.0612L231.288 40.2612L231.48 40.4208L210.08 66.2208L209.888 66.0612Z" fill="#D9ECFA"/>
<path fill-rule="evenodd" clip-rule="evenodd" d="M210.287 70.6613L231.687 44.8613L231.88 45.0209L210.48 70.8209L210.287 70.6613Z" fill="#D9ECFA"/>
<path fill-rule="evenodd" clip-rule="evenodd" d="M219.888 65.1613L241.288 39.3613L241.48 39.5209L220.08 65.3209L219.888 65.1613Z" fill="#D9ECFA"/>
<path fill-rule="evenodd" clip-rule="evenodd" d="M220.388 69.7609L241.788 43.9609L241.98 44.1205L220.58 69.9205L220.388 69.7609Z" fill="#D9ECFA"/>
<path fill-rule="evenodd" clip-rule="evenodd" d="M229.188 64.2609L250.587 38.4609L250.78 38.6205L229.38 64.4205L229.188 64.2609Z" fill="#D9ECFA"/>
<path fill-rule="evenodd" clip-rule="evenodd" d="M229.587 68.861L250.987 43.061L251.179 43.2206L229.779 69.0206L229.587 68.861Z" fill="#D9ECFA"/>
<path fill-rule="evenodd" clip-rule="evenodd" d="M238.787 63.361L260.187 37.561L260.38 37.7206L238.98 63.5206L238.787 63.361Z" fill="#D9ECFA"/>
<path fill-rule="evenodd" clip-rule="evenodd" d="M239.188 67.9611L260.587 42.1611L260.78 42.3207L239.38 68.1207L239.188 67.9611Z" fill="#D9ECFA"/>
<path fill-rule="evenodd" clip-rule="evenodd" d="M247.688 62.5612L269.087 36.7612L269.28 36.9208L247.88 62.7208L247.688 62.5612Z" fill="#D9ECFA"/>
<path fill-rule="evenodd" clip-rule="evenodd" d="M248.087 67.1613L269.487 41.3613L269.679 41.5209L248.279 67.3209L248.087 67.1613Z" fill="#D9ECFA"/>
<path fill-rule="evenodd" clip-rule="evenodd" d="M256.987 61.6613L278.387 35.8613L278.58 36.0209L257.18 61.8209L256.987 61.6613Z" fill="#D9ECFA"/>
<path fill-rule="evenodd" clip-rule="evenodd" d="M257.388 66.2609L278.788 40.4609L278.98 40.6205L257.58 66.4205L257.388 66.2609Z" fill="#D9ECFA"/>
<path fill-rule="evenodd" clip-rule="evenodd" d="M265.688 60.861L287.087 35.061L287.28 35.2206L265.88 61.0206L265.688 60.861Z" fill="#D9ECFA"/>
<path fill-rule="evenodd" clip-rule="evenodd" d="M266.087 65.4611L287.487 39.6611L287.679 39.8207L266.279 65.6207L266.087 65.4611Z" fill="#D9ECFA"/>
<path fill-rule="evenodd" clip-rule="evenodd" d="M274.287 60.0612L295.687 34.2612L295.88 34.4208L274.48 60.2208L274.287 60.0612Z" fill="#D9ECFA"/>
<path fill-rule="evenodd" clip-rule="evenodd" d="M274.787 64.6613L296.187 38.8613L296.38 39.0209L274.98 64.8209L274.787 64.6613Z" fill="#D9ECFA"/>
<path fill-rule="evenodd" clip-rule="evenodd" d="M282.688 59.2609L304.087 33.4609L304.28 33.6205L282.88 59.4205L282.688 59.2609Z" fill="#D9ECFA"/>
<path fill-rule="evenodd" clip-rule="evenodd" d="M283.188 63.861L304.587 38.061L304.78 38.2206L283.38 64.0206L283.188 63.861Z" fill="#D9ECFA"/>
<path fill-rule="evenodd" clip-rule="evenodd" d="M291.888 58.4611L313.288 32.6611L313.48 32.8207L292.08 58.6207L291.888 58.4611Z" fill="#D9ECFA"/>
<path fill-rule="evenodd" clip-rule="evenodd" d="M292.287 63.0612L313.687 37.2612L313.88 37.4208L292.48 63.2208L292.287 63.0612Z" fill="#D9ECFA"/>
<path fill-rule="evenodd" clip-rule="evenodd" d="M296.888 62.6613L318.288 36.8613L318.48 37.0209L297.08 62.8209L296.888 62.6613Z" fill="#D9ECFA"/>
</g>
</svg>
