<svg width="513" height="92" viewBox="0 0 513 92" fill="none" xmlns="http://www.w3.org/2000/svg">
<path fill-rule="evenodd" clip-rule="evenodd" d="M142.882 29.6962H310.619V45.0329H142.882V29.6962ZM144.919 31.7329V42.9962H308.582V31.7329H144.919Z" fill="#D9ECFA"/>
<path fill-rule="evenodd" clip-rule="evenodd" d="M6.98145 29.6962H139.318V45.0329H6.98145V29.6962ZM9.01815 31.7329V42.9962H137.281V31.7329H9.01815Z" fill="#D9ECFA"/>
<path fill-rule="evenodd" clip-rule="evenodd" d="M7.50781 30.2228H138.792V44.5065H7.50781V30.2228ZM8.49151 31.2065V43.5228H137.808V31.2065H8.49151Z" fill="#D9ECFA"/>
<path d="M309.2 30.8146H378.9V44.0146H309.2" fill="#005CA9"/>
<path fill-rule="evenodd" clip-rule="evenodd" d="M143.295 30.2095H309.6V31.4198H144.505V43.4095H309.6V44.6198H143.295V30.2095Z" fill="#D9ECFA"/>
<path d="M509.1 30.7146H381.9V44.0146H509.1V30.7146Z" fill="#005CA9"/>
<path fill-rule="evenodd" clip-rule="evenodd" d="M469.99 58C469.99 57.4422 470.442 56.99 471 56.99L473.334 56.99C473.891 56.99 474.344 57.4422 474.344 58C474.344 58.5578 473.891 59.01 473.334 59.01L471 59.01C470.442 59.01 469.99 58.5578 469.99 58ZM476.99 58C476.99 57.4422 477.442 56.99 478 56.99L482.667 56.99C483.225 56.99 483.677 57.4422 483.677 58C483.677 58.5578 483.225 59.01 482.667 59.01L478 59.01C477.442 59.01 476.99 58.5578 476.99 58ZM486.324 58C486.324 57.4422 486.776 56.99 487.334 56.99L492 56.99C492.558 56.99 493.01 57.4422 493.01 58C493.01 58.5578 492.558 59.01 492 59.01L487.334 59.01C486.776 59.01 486.324 58.5578 486.324 58ZM495.657 58C495.657 57.4422 496.109 56.99 496.667 56.99L499 56.99C499.558 56.99 500.01 57.4422 500.01 58C500.01 58.5578 499.558 59.01 499 59.01L496.667 59.01C496.109 59.01 495.657 58.5578 495.657 58Z" fill="#005CA9"/>
<path fill-rule="evenodd" clip-rule="evenodd" d="M393.839 58C393.839 57.3589 394.359 56.8392 395 56.8392L396.75 56.8392C397.391 56.8392 397.91 57.3589 397.91 58C397.91 58.6411 397.391 59.1608 396.75 59.1608L395 59.1608C394.359 59.1608 393.839 58.6411 393.839 58ZM399.089 58C399.089 57.3589 399.609 56.8392 400.25 56.8392L403.75 56.8392C404.391 56.8392 404.91 57.3589 404.91 58C404.91 58.6411 404.391 59.1608 403.75 59.1608L400.25 59.1608C399.609 59.1608 399.089 58.6411 399.089 58ZM406.089 58C406.089 57.3589 406.609 56.8392 407.25 56.8392L409 56.8392C409.641 56.8392 410.16 57.3589 410.16 58C410.16 58.6411 409.641 59.1608 409 59.1608L407.25 59.1608C406.609 59.1608 406.089 58.6411 406.089 58Z" fill="#005CA9"/>
<path d="M502.2 63.6L512.2 57.8L502.2 52V63.6Z" fill="#D9ECFA"/>
<path d="M8.00039 54C5.70039 54 3.90039 55.9 3.90039 58.1C3.90039 60.4 5.80039 62.2 8.00039 62.2C10.3004 62.2 12.1004 60.3 12.1004 58.1C12.1004 55.8 10.2004 54 8.00039 54Z" fill="#005CA9"/>
<path d="M8 50C3.6 50 0 53.6 0 58C0 62.4 3.6 66 8 66C12.4 66 16 62.4 16 58C16 53.6 12.4 50 8 50ZM8 63.7C4.9 63.7 2.3 61.1 2.3 58C2.3 54.9 4.9 52.3 8 52.3C11.1 52.3 13.7 54.9 13.7 58C13.6 61.1 11.1 63.7 8 63.7Z" fill="#D9ECFA"/>
<path d="M140.5 67C135.6 67 131.5 63 131.5 58C131.5 53.1 135.5 49 140.5 49C145.4 49 149.5 53 149.5 58C149.5 63 145.5 67 140.5 67Z" fill="#D9ECFA"/>
<path fill-rule="evenodd" clip-rule="evenodd" d="M152.039 58C152.039 57.3589 152.559 56.8392 153.2 56.8392H155.41C156.051 56.8392 156.571 57.3589 156.571 58C156.571 58.6411 156.051 59.1608 155.41 59.1608H153.2C152.559 59.1608 152.039 58.6411 152.039 58ZM158.669 58C158.669 57.3589 159.189 56.8392 159.83 56.8392H164.25C164.891 56.8392 165.411 57.3589 165.411 58C165.411 58.6411 164.891 59.1608 164.25 59.1608H159.83C159.189 59.1608 158.669 58.6411 158.669 58ZM167.509 58C167.509 57.3589 168.029 56.8392 168.67 56.8392H173.09C173.731 56.8392 174.251 57.3589 174.251 58C174.251 58.6411 173.731 59.1608 173.09 59.1608H168.67C168.029 59.1608 167.509 58.6411 167.509 58ZM176.349 58C176.349 57.3589 176.869 56.8392 177.51 56.8392H181.93C182.571 56.8392 183.091 57.3589 183.091 58C183.091 58.6411 182.571 59.1608 181.93 59.1608H177.51C176.869 59.1608 176.349 58.6411 176.349 58ZM185.189 58C185.189 57.3589 185.709 56.8392 186.35 56.8392H190.77C191.411 56.8392 191.931 57.3589 191.931 58C191.931 58.6411 191.411 59.1608 190.77 59.1608H186.35C185.709 59.1608 185.189 58.6411 185.189 58ZM194.029 58C194.029 57.3589 194.549 56.8392 195.19 56.8392H197.4C198.041 56.8392 198.561 57.3589 198.561 58C198.561 58.6411 198.041 59.1608 197.4 59.1608H195.19C194.549 59.1608 194.029 58.6411 194.029 58Z" fill="#D9ECFA"/>
<path fill-rule="evenodd" clip-rule="evenodd" d="M259.839 58C259.839 57.3589 260.359 56.8392 261 56.8392L263.25 56.8392C263.891 56.8392 264.41 57.3589 264.41 58C264.41 58.6411 263.891 59.1608 263.25 59.1608L261 59.1608C260.359 59.1608 259.839 58.6411 259.839 58ZM266.589 58C266.589 57.3589 267.109 56.8392 267.75 56.8392L272.25 56.8392C272.891 56.8392 273.41 57.3589 273.41 58C273.41 58.6411 272.891 59.1608 272.25 59.1608L267.75 59.1608C267.109 59.1608 266.589 58.6411 266.589 58ZM275.589 58C275.589 57.3589 276.109 56.8392 276.75 56.8392L281.25 56.8392C281.891 56.8392 282.41 57.3589 282.41 58C282.41 58.6411 281.891 59.1608 281.25 59.1608L276.75 59.1608C276.109 59.1608 275.589 58.6411 275.589 58ZM284.589 58C284.589 57.3589 285.109 56.8392 285.75 56.8392L290.25 56.8392C290.891 56.8392 291.41 57.3589 291.41 58C291.41 58.6411 290.891 59.1608 290.25 59.1608L285.75 59.1608C285.109 59.1608 284.589 58.6411 284.589 58ZM293.589 58C293.589 57.3589 294.109 56.8392 294.75 56.8392L299.25 56.8392C299.891 56.8392 300.41 57.3589 300.41 58C300.41 58.6411 299.891 59.1608 299.25 59.1608L294.75 59.1608C294.109 59.1608 293.589 58.6411 293.589 58ZM302.589 58C302.589 57.3589 303.109 56.8392 303.75 56.8392L306 56.8392C306.641 56.8392 307.16 57.3589 307.16 58C307.16 58.6411 306.641 59.1608 306 59.1608L303.75 59.1608C303.109 59.1608 302.589 58.6411 302.589 58Z" fill="#D9ECFA"/>
<path d="M21.7611 58.1608C21.7611 58.8019 21.2413 59.3216 20.6003 59.3216C19.9592 59.3216 19.4395 58.8019 19.4395 58.1608C19.4395 57.5197 19.9592 57 20.6003 57C21.2413 57 21.7611 57.5197 21.7611 58.1608Z" fill="#D9ECFA"/>
<path fill-rule="evenodd" clip-rule="evenodd" d="M91.8389 58C91.8389 57.3589 92.3586 56.8392 92.9997 56.8392L95.1872 56.8392C95.8283 56.8392 96.348 57.3589 96.348 58C96.348 58.6411 95.8283 59.1608 95.1872 59.1608L92.9997 59.1608C92.3586 59.1608 91.8389 58.6411 91.8389 58ZM98.4014 58C98.4014 57.3589 98.9211 56.8392 99.5622 56.8392L103.937 56.8392C104.578 56.8392 105.098 57.3589 105.098 58C105.098 58.6411 104.578 59.1608 103.937 59.1608L99.5622 59.1608C98.9211 59.1608 98.4014 58.6411 98.4014 58ZM107.151 58C107.151 57.3589 107.671 56.8392 108.312 56.8392L112.687 56.8392C113.328 56.8392 113.848 57.3589 113.848 58C113.848 58.6411 113.328 59.1608 112.687 59.1608L108.312 59.1608C107.671 59.1608 107.151 58.6411 107.151 58ZM115.901 58C115.901 57.3589 116.421 56.8392 117.062 56.8392L121.437 56.8392C122.078 56.8392 122.598 57.3589 122.598 58C122.598 58.6411 122.078 59.1608 121.437 59.1608L117.062 59.1608C116.421 59.1608 115.901 58.6411 115.901 58ZM124.651 58C124.651 57.3589 125.171 56.8392 125.812 56.8392L128 56.8392C128.641 56.8392 129.16 57.3589 129.16 58C129.16 58.6411 128.641 59.1608 128 59.1608L125.812 59.1608C125.171 59.1608 124.651 58.6411 124.651 58Z" fill="#D9ECFA"/>
<path fill-rule="evenodd" clip-rule="evenodd" d="M25.4395 58C25.4395 57.3589 25.9592 56.8392 26.6003 56.8392H28.9169C29.558 56.8392 30.0777 57.3589 30.0777 58C30.0777 58.6411 29.558 59.1608 28.9169 59.1608H26.6003C25.9592 59.1608 25.4395 58.6411 25.4395 58ZM32.3895 58C32.3895 57.3589 32.9092 56.8392 33.5503 56.8392H38.1836C38.8247 56.8392 39.3444 57.3589 39.3444 58C39.3444 58.6411 38.8247 59.1608 38.1836 59.1608H33.5503C32.9092 59.1608 32.3895 58.6411 32.3895 58ZM41.6561 58C41.6561 57.3589 42.1758 56.8392 42.8169 56.8392H47.4503C48.0913 56.8392 48.6111 57.3589 48.6111 58C48.6111 58.6411 48.0913 59.1608 47.4503 59.1608H42.8169C42.1758 59.1608 41.6561 58.6411 41.6561 58ZM50.9228 58C50.9228 57.3589 51.4425 56.8392 52.0836 56.8392H54.4003C55.0413 56.8392 55.5611 57.3589 55.5611 58C55.5611 58.6411 55.0413 59.1608 54.4003 59.1608H52.0836C51.4425 59.1608 50.9228 58.6411 50.9228 58Z" fill="#D9ECFA"/>
<path d="M88.9052 60.6538H87.2425V60.0647C87.0069 60.3003 86.7625 60.4705 86.5094 60.5752C86.265 60.6712 85.9508 60.7192 85.5668 60.7192C84.8075 60.7192 84.2271 60.5185 83.8256 60.117C83.4503 59.7243 83.2627 59.2137 83.2627 58.5853C83.2627 58.0093 83.4634 57.538 83.8649 57.1714C84.2664 56.7961 84.8511 56.6085 85.6192 56.6085H87.2033V56.2681C87.2033 55.8928 87.1029 55.6223 86.9022 55.4564C86.7014 55.2819 86.3785 55.1946 85.9334 55.1946C85.401 55.1946 84.9646 55.391 84.6242 55.7837L83.5507 54.7233C83.8824 54.3567 84.2271 54.1036 84.5849 53.964C84.9515 53.8243 85.4228 53.7545 85.9988 53.7545C87.9364 53.7545 88.9052 54.5575 88.9052 56.1634V60.6538ZM87.2033 58.1402V57.7736H85.9072C85.2352 57.7736 84.8991 58.0355 84.8991 58.5591C84.8991 59.0741 85.2439 59.3315 85.9334 59.3315C86.3785 59.3315 86.7145 59.2224 86.9414 59.0042C87.116 58.8559 87.2033 58.5679 87.2033 58.1402Z" fill="#005CA9"/>
<path d="M78.5324 60.6538H76.8174V53.8331H78.5324V60.6538ZM82.9312 60.6538H80.8889L78.5455 57.0798L80.7841 53.8331H82.7741L80.3652 57.0143L82.9312 60.6538Z" fill="#005CA9"/>
<path d="M74.9215 60.6538H73.2196V58.258C72.5301 58.3802 71.9104 58.4413 71.3606 58.4413C70.802 58.4413 70.3438 58.2755 69.986 57.9438C69.6281 57.6122 69.4492 57.1583 69.4492 56.5823V53.8331H71.1511V56.111C71.1511 56.6609 71.4304 56.9358 71.989 56.9358C72.2072 56.9358 72.6174 56.8965 73.2196 56.818V53.8331H74.9215V60.6538Z" fill="#005CA9"/>
<path d="M67.7418 60.6538H66.0399V54.0294H67.7418V60.6538ZM67.7549 52.6679H66.0137V51.2802H67.7549V52.6679Z" fill="#005CA9"/>
<path d="M64.6879 52.9559H62.2528V60.6538H60.4331V52.9559H57.998V51.3326H64.6879V52.9559Z" fill="#005CA9"/>
<path d="M257.057 57.18C257.454 57.5608 257.653 58.0576 257.653 58.6703C257.653 59.2831 257.45 59.784 257.044 60.1731C256.647 60.554 256.133 60.7444 255.504 60.7444H252.387V54.2737H254.014V56.6087H255.504C256.142 56.6087 256.659 56.7991 257.057 57.18ZM255.206 57.8755H253.964V59.4776H255.206C255.463 59.4776 255.666 59.4073 255.815 59.2665C255.972 59.1175 256.051 58.9187 256.051 58.6703C256.051 58.4302 255.972 58.2398 255.815 58.099C255.666 57.95 255.463 57.8755 255.206 57.8755Z" fill="#005CA9"/>
<path d="M251.355 55.702H249.492V60.7444H247.865V55.702H245.965V54.2737H251.355V55.702Z" fill="#005CA9"/>
<path d="M245.474 59.9372C244.911 60.525 244.199 60.819 243.338 60.819C243.065 60.819 242.8 60.79 242.543 60.732C242.287 60.6658 242.026 60.5581 241.761 60.4091C241.504 60.2518 241.281 60.0531 241.09 59.813C240.9 59.5646 240.742 59.2458 240.618 58.8566C240.502 58.4592 240.444 58.008 240.444 57.5029C240.444 56.9978 240.502 56.5507 240.618 56.1615C240.742 55.7641 240.9 55.4453 241.09 55.2052C241.281 54.9651 241.504 54.7664 241.761 54.6091C242.026 54.4518 242.287 54.3441 242.543 54.2862C242.8 54.2282 243.065 54.1992 243.338 54.1992C244.208 54.1992 244.92 54.489 245.474 55.0686L244.381 56.1615C244.067 55.8221 243.719 55.6523 243.338 55.6523C242.957 55.6523 242.651 55.7931 242.419 56.0746C242.179 56.3727 242.059 56.8488 242.059 57.5029C242.059 58.1653 242.179 58.6455 242.419 58.9436C242.651 59.2251 242.957 59.3658 243.338 59.3658C243.719 59.3658 244.067 59.1961 244.381 58.8566L245.474 59.9372Z" fill="#005CA9"/>
<path d="M238.962 60.7444H237.347V54.46H238.962V60.7444ZM238.974 53.1684H237.322V51.8519H238.974V53.1684Z" fill="#005CA9"/>
<path d="M235.543 60.7444H233.916V58.1487H231.842V60.7444H230.215V54.2737H231.842V56.7204H233.916V54.2737H235.543V60.7444Z" fill="#005CA9"/>
<path d="M229.184 55.702H227.321V60.7444H225.694V55.702H223.794V54.2737H229.184V55.702Z" fill="#005CA9"/>
<path d="M222.758 60.7444H221.143V54.46H222.758V60.7444ZM222.77 53.1684H221.118V51.8519H222.77V53.1684Z" fill="#005CA9"/>
<path d="M220.081 55.702H217.41V60.7444H215.796V54.2737H220.081V55.702Z" fill="#005CA9"/>
<path d="M214.017 60.7444H212.44V60.1856C212.216 60.4091 211.984 60.5706 211.744 60.6699C211.512 60.761 211.214 60.8065 210.85 60.8065C210.13 60.8065 209.579 60.6161 209.198 60.2352C208.842 59.8626 208.664 59.3783 208.664 58.7821C208.664 58.2356 208.854 57.7885 209.235 57.4408C209.616 57.0847 210.171 56.9067 210.9 56.9067H212.402V56.5838C212.402 56.2278 212.307 55.9711 212.117 55.8138C211.926 55.6482 211.62 55.5654 211.198 55.5654C210.693 55.5654 210.279 55.7517 209.956 56.1243L208.937 55.1183C209.252 54.7705 209.579 54.5304 209.918 54.3979C210.266 54.2655 210.713 54.1992 211.26 54.1992C213.098 54.1992 214.017 54.961 214.017 56.4845V60.7444ZM212.402 58.3598V58.0121H211.173C210.535 58.0121 210.217 58.2605 210.217 58.7573C210.217 59.2458 210.544 59.49 211.198 59.49C211.62 59.49 211.939 59.3865 212.154 59.1796C212.32 59.0388 212.402 58.7656 212.402 58.3598Z" fill="#005CA9"/>
<path d="M206.265 56.2112C206.546 56.3603 206.77 56.5176 206.935 56.6832C207.3 57.0723 207.482 57.5815 207.482 58.2108C207.482 58.9891 207.238 59.606 206.749 60.0613C206.261 60.5167 205.602 60.7444 204.774 60.7444H201.073V51.9016H204.625C205.462 51.9016 206.124 52.121 206.612 52.5598C207.109 52.9986 207.358 53.5906 207.358 54.3358C207.358 55.1804 206.993 55.8055 206.265 56.2112ZM202.8 55.4784H204.489C204.845 55.4784 205.122 55.3874 205.321 55.2052C205.528 55.0231 205.631 54.7747 205.631 54.46C205.631 54.1454 205.528 53.897 205.321 53.7148C205.122 53.5327 204.845 53.4416 204.489 53.4416H202.8V55.4784ZM202.8 59.2044H204.6C204.956 59.2044 205.238 59.105 205.445 58.9063C205.652 58.7076 205.755 58.4426 205.755 58.1114C205.755 57.7802 205.652 57.5194 205.445 57.329C205.238 57.1303 204.956 57.0309 204.6 57.0309H202.8V59.2044Z" fill="#005CA9"/>
<path d="M369.608 57.0893C370.006 57.4702 370.204 57.967 370.204 58.5797C370.204 59.1924 370.002 59.6933 369.596 60.0825C369.198 60.4634 368.685 60.6538 368.056 60.6538H364.938V54.1831H366.565V56.518H368.056C368.693 56.518 369.211 56.7085 369.608 57.0893ZM367.758 57.7848H366.516V59.387H367.758C368.014 59.387 368.217 59.3166 368.366 59.1759C368.524 59.0268 368.602 58.8281 368.602 58.5797C368.602 58.3396 368.524 58.1492 368.366 58.0084C368.217 57.8594 368.014 57.7848 367.758 57.7848Z" fill="#005CA9"/>
<path d="M363.907 55.6114H362.044V60.6538H360.417V55.6114H358.517V54.1831H363.907V55.6114Z" fill="#005CA9"/>
<path d="M358.026 59.8465C357.463 60.4344 356.751 60.7283 355.89 60.7283C355.617 60.7283 355.352 60.6993 355.095 60.6414C354.838 60.5751 354.578 60.4675 354.313 60.3185C354.056 60.1612 353.832 59.9624 353.642 59.7223C353.451 59.4739 353.294 59.1552 353.17 58.766C353.054 58.3686 352.996 57.9173 352.996 57.4122C352.996 56.9072 353.054 56.4601 353.17 56.0709C353.294 55.6735 353.451 55.3547 353.642 55.1146C353.832 54.8745 354.056 54.6758 354.313 54.5184C354.578 54.3611 354.838 54.2535 355.095 54.1955C355.352 54.1376 355.617 54.1086 355.89 54.1086C356.759 54.1086 357.471 54.3984 358.026 54.978L356.933 56.0709C356.619 55.7314 356.271 55.5617 355.89 55.5617C355.509 55.5617 355.203 55.7025 354.971 55.984C354.731 56.282 354.611 56.7581 354.611 57.4122C354.611 58.0746 354.731 58.5549 354.971 58.8529C355.203 59.1345 355.509 59.2752 355.89 59.2752C356.271 59.2752 356.619 59.1055 356.933 58.766L358.026 59.8465Z" fill="#005CA9"/>
<path d="M351.513 60.6538H349.899V54.3694H351.513V60.6538ZM351.526 53.0777H349.874V51.7612H351.526V53.0777Z" fill="#005CA9"/>
<path d="M348.095 60.6538H346.468V58.0581H344.394V60.6538H342.767V54.1831H344.394V56.6298H346.468V54.1831H348.095V60.6538Z" fill="#005CA9"/>
<path d="M341.736 55.6114H339.873V60.6538H338.246V55.6114H336.346V54.1831H341.736V55.6114Z" fill="#005CA9"/>
<path d="M335.309 60.6538H333.695V54.3694H335.309V60.6538ZM335.322 53.0777H333.67V51.7612H335.322V53.0777Z" fill="#005CA9"/>
<path d="M332.632 55.6114H329.962V60.6538H328.348V54.1831H332.632V55.6114Z" fill="#005CA9"/>
<path d="M326.569 60.6538H324.991V60.0949C324.768 60.3185 324.536 60.4799 324.296 60.5793C324.064 60.6704 323.766 60.7159 323.402 60.7159C322.681 60.7159 322.131 60.5255 321.75 60.1446C321.394 59.772 321.216 59.2876 321.216 58.6915C321.216 58.145 321.406 57.6979 321.787 57.3501C322.168 56.9941 322.723 56.8161 323.451 56.8161H324.954V56.4932C324.954 56.1371 324.859 55.8805 324.669 55.7232C324.478 55.5576 324.172 55.4748 323.749 55.4748C323.244 55.4748 322.83 55.6611 322.507 56.0336L321.489 55.0276C321.804 54.6799 322.131 54.4398 322.47 54.3073C322.818 54.1748 323.265 54.1086 323.812 54.1086C325.65 54.1086 326.569 54.8703 326.569 56.3938V60.6538ZM324.954 58.2692V57.9215H323.725C323.087 57.9215 322.768 58.1699 322.768 58.6666C322.768 59.1552 323.095 59.3994 323.749 59.3994C324.172 59.3994 324.491 59.2959 324.706 59.0889C324.871 58.9482 324.954 58.6749 324.954 58.2692Z" fill="#005CA9"/>
<path d="M318.816 56.1206C319.098 56.2696 319.322 56.4269 319.487 56.5925C319.851 56.9817 320.034 57.4909 320.034 58.1202C320.034 58.8985 319.789 59.5153 319.301 59.9707C318.812 60.4261 318.154 60.6538 317.326 60.6538H313.625V51.8109H317.177C318.013 51.8109 318.676 52.0303 319.164 52.4692C319.661 52.908 319.909 53.5 319.909 54.2452C319.909 55.0897 319.545 55.7149 318.816 56.1206ZM315.351 55.3878H317.04C317.396 55.3878 317.674 55.2967 317.873 55.1146C318.08 54.9324 318.183 54.684 318.183 54.3694C318.183 54.0548 318.08 53.8064 317.873 53.6242C317.674 53.442 317.396 53.351 317.04 53.351H315.351V55.3878ZM315.351 59.1137H317.152C317.508 59.1137 317.79 59.0144 317.997 58.8157C318.204 58.617 318.307 58.352 318.307 58.0208C318.307 57.6896 318.204 57.4288 317.997 57.2384C317.79 57.0396 317.508 56.9403 317.152 56.9403H315.351V59.1137Z" fill="#005CA9"/>
<path d="M465.475 56.8834V55.1946H464.139C463.86 55.1946 463.638 55.2731 463.472 55.4302C463.315 55.5786 463.236 55.7837 463.236 56.0455C463.236 56.2987 463.315 56.5038 463.472 56.6609C463.638 56.8092 463.86 56.8834 464.139 56.8834H465.475ZM463.406 60.6538H461.469L462.843 57.8653C462.451 57.7169 462.141 57.4769 461.914 57.1452C461.687 56.8136 461.573 56.4208 461.573 55.967C461.573 55.3473 461.783 54.8368 462.202 54.4353C462.63 54.0338 463.175 53.8331 463.838 53.8331H467.151V60.6538H465.449V58.2318H464.532L463.406 60.6538Z" fill="#005CA9"/>
<path d="M460.142 60.6538H458.44V54.0294H460.142V60.6538ZM460.155 52.6679H458.414V51.2802H460.155V52.6679Z" fill="#005CA9"/>
<path d="M457.186 62.3295H455.563V60.6538H450.653V53.8331H452.368V59.1483H454.555V53.8331H456.27V59.1483H457.186V62.3295Z" fill="#005CA9"/>
<path d="M448.832 60.6538H447.169V60.0647C446.934 60.3003 446.689 60.4705 446.436 60.5752C446.192 60.6712 445.878 60.7192 445.494 60.7192C444.734 60.7192 444.154 60.5185 443.752 60.117C443.377 59.7243 443.189 59.2137 443.189 58.5853C443.189 58.0093 443.39 57.538 443.792 57.1714C444.193 56.7961 444.778 56.6085 445.546 56.6085H447.13V56.2681C447.13 55.8928 447.03 55.6223 446.829 55.4564C446.628 55.2819 446.305 55.1946 445.86 55.1946C445.328 55.1946 444.891 55.391 444.551 55.7837L443.477 54.7233C443.809 54.3567 444.154 54.1036 444.512 53.964C444.878 53.8243 445.35 53.7545 445.926 53.7545C447.863 53.7545 448.832 54.5575 448.832 56.1634V60.6538ZM447.13 58.1402V57.7736H445.834C445.162 57.7736 444.826 58.0355 444.826 58.5591C444.826 59.0741 445.171 59.3315 445.86 59.3315C446.305 59.3315 446.641 59.2224 446.868 59.0042C447.043 58.8559 447.13 58.5679 447.13 58.1402Z" fill="#005CA9"/>
<path d="M442.637 55.3386H440.673V60.6538H438.958V55.3386H436.955V53.8331H442.637V55.3386Z" fill="#005CA9"/>
<path d="M432.488 60.6538H430.773V53.8331H432.488V60.6538ZM436.887 60.6538H434.845L432.502 57.0798L434.74 53.8331H436.73L434.321 57.0143L436.887 60.6538Z" fill="#005CA9"/>
<path d="M428.938 60.6538H427.276V60.0647C427.04 60.3003 426.796 60.4705 426.543 60.5752C426.298 60.6712 425.984 60.7192 425.6 60.7192C424.841 60.7192 424.26 60.5185 423.859 60.117C423.484 59.7243 423.296 59.2137 423.296 58.5853C423.296 58.0093 423.497 57.538 423.898 57.1714C424.3 56.7961 424.884 56.6085 425.652 56.6085H427.236V56.2681C427.236 55.8928 427.136 55.6223 426.935 55.4564C426.735 55.2819 426.412 55.1946 425.967 55.1946C425.434 55.1946 424.998 55.391 424.657 55.7837L423.584 54.7233C423.916 54.3567 424.26 54.1036 424.618 53.964C424.985 53.8243 425.456 53.7545 426.032 53.7545C427.97 53.7545 428.938 54.5575 428.938 56.1634V60.6538ZM427.236 58.1402V57.7736H425.94C425.268 57.7736 424.932 58.0355 424.932 58.5591C424.932 59.0741 425.277 59.3315 425.967 59.3315C426.412 59.3315 426.748 59.2224 426.975 59.0042C427.149 58.8559 427.236 58.5679 427.236 58.1402Z" fill="#005CA9"/>
<path d="M421.731 60.6538H419.911V52.9559H417.686V55.6659C417.686 56.9489 417.572 57.9613 417.345 58.7032C417.127 59.4363 416.813 59.9469 416.403 60.2349C416.001 60.5142 415.464 60.6538 414.792 60.6538H414.072V59.0304H414.334C414.587 59.0304 414.801 58.9868 414.976 58.8995C415.159 58.8035 415.325 58.6377 415.473 58.402C415.63 58.1577 415.744 57.7998 415.813 57.3285C415.892 56.8572 415.931 56.2681 415.931 55.5612V51.3326H421.731V60.6538Z" fill="#005CA9"/>
<path fill-rule="evenodd" clip-rule="evenodd" d="M138.069 52.4697C138.362 52.1768 138.837 52.1768 139.13 52.4697L144.13 57.4697C144.271 57.6103 144.35 57.8011 144.35 58C144.35 58.1989 144.271 58.3897 144.13 58.5303L139.23 63.4303C138.937 63.7232 138.462 63.7232 138.169 63.4303C137.876 63.1374 137.876 62.6626 138.169 62.3697L142.539 58L138.069 53.5303C137.776 53.2374 137.776 52.7626 138.069 52.4697Z" fill="#005CA9"/>
<path d="M380.6 67C375.7 67 371.6 63 371.6 58C371.6 53.1 375.6 49 380.6 49C385.5 49 389.6 53 389.6 58C389.5 63 385.5 67 380.6 67Z" fill="#D9ECFA"/>
<path fill-rule="evenodd" clip-rule="evenodd" d="M378.069 52.4697C378.362 52.1768 378.837 52.1768 379.13 52.4697L384.13 57.4697C384.423 57.7626 384.423 58.2374 384.13 58.5303L379.23 63.4303C378.937 63.7232 378.462 63.7232 378.169 63.4303C377.876 63.1374 377.876 62.6626 378.169 62.3697L382.539 58L378.069 53.5303C377.776 53.2374 377.776 52.7626 378.069 52.4697Z" fill="#005CA9"/>
<path d="M144.1 20H142.023V19.1984C141.488 19.7982 140.785 20.0981 139.912 20.0981C139.018 20.0981 138.325 19.8418 137.835 19.3292C137.464 18.9475 137.224 18.4731 137.115 17.9059C137.006 17.3388 136.951 16.6135 136.951 15.7301C136.951 14.8576 137.006 14.1378 137.115 13.5706C137.224 13.0035 137.464 12.529 137.835 12.1473C138.325 11.6347 139.012 11.3784 139.896 11.3784C140.768 11.3784 141.461 11.662 141.974 12.2291V8.35187H144.1V20ZM141.974 15.7301C141.974 14.9339 141.875 14.3286 141.679 13.9142C141.494 13.4997 141.107 13.2925 140.518 13.2925C140.212 13.2925 139.956 13.3525 139.749 13.4725C139.552 13.5924 139.405 13.7724 139.307 14.0123C139.22 14.2523 139.16 14.5031 139.127 14.7649C139.094 15.0157 139.078 15.3375 139.078 15.7301C139.078 16.1227 139.094 16.4499 139.127 16.7117C139.16 16.9625 139.22 17.2134 139.307 17.4642C139.405 17.7042 139.552 17.8841 139.749 18.0041C139.956 18.1241 140.212 18.1841 140.518 18.1841C140.823 18.1841 141.074 18.1241 141.27 18.0041C141.477 17.8841 141.63 17.7042 141.728 17.4642C141.826 17.2243 141.892 16.9734 141.925 16.7117C141.957 16.439 141.974 16.1118 141.974 15.7301Z" fill="#E2001A"/>
<path d="M135.283 20H128.199V18.0859L132.551 13.0308C132.954 12.5509 133.156 12.0819 133.156 11.6238C133.156 11.1876 133.031 10.8386 132.78 10.5768C132.54 10.3041 132.196 10.1678 131.749 10.1678C131.346 10.1678 131.008 10.2878 130.735 10.5277C130.462 10.7568 130.326 11.133 130.326 11.6565H128.199C128.199 10.6204 128.532 9.79699 129.197 9.18623C129.873 8.56456 130.724 8.25372 131.749 8.25372C132.796 8.25372 133.647 8.5591 134.301 9.16987C134.956 9.78063 135.283 10.6041 135.283 11.6402C135.283 12.1637 135.19 12.6054 135.005 12.9653C134.819 13.3252 134.498 13.7724 134.04 14.3068L130.784 18.0859H135.283V20Z" fill="#E2001A"/>
<path d="M126.727 18.3477H125.664V20H123.619V18.3477H118.858V16.3354L122.85 8.35187H125.173L121.181 16.3354H123.619V14.1596H125.664V16.3354H126.727V18.3477Z" fill="#E2001A"/>
<path d="M114.053 10.3805H111.01V20H108.736V10.3805H105.693V8.35187H114.053V10.3805Z" fill="#E2001A"/>
<path d="M103.852 20H101.578V15.1248H97.6353V20H95.3613V8.35187H97.6353V13.1125H101.578V8.35187H103.852V20Z" fill="#E2001A"/>
<path d="M414.172 12.18L412.568 13.7997C412.23 13.4616 411.854 13.2925 411.439 13.2925C411.08 13.2925 410.758 13.4288 410.474 13.7015C410.202 13.9742 410.065 14.3613 410.065 14.863V20H407.938V11.4766H410.016V12.2946C410.234 12.0328 410.534 11.8147 410.916 11.6402C411.309 11.4657 411.723 11.3784 412.159 11.3784C412.966 11.3784 413.637 11.6456 414.172 12.18Z" fill="#E2001A"/>
<path d="M405.977 16.4008H400.644C400.644 16.968 400.807 17.4261 401.135 17.7751C401.462 18.1241 401.92 18.2986 402.509 18.2986C402.945 18.2986 403.3 18.2386 403.572 18.1186C403.856 17.9877 404.145 17.7805 404.439 17.4969L405.732 18.7566C405.274 19.2256 404.799 19.5692 404.308 19.7873C403.829 19.9945 403.223 20.0981 402.492 20.0981C401.947 20.0981 401.451 20.0327 401.004 19.9018C400.568 19.76 400.159 19.531 399.777 19.2147C399.395 18.8984 399.095 18.4458 398.877 17.8569C398.659 17.2679 398.55 16.559 398.55 15.7301C398.55 14.3668 398.888 13.3034 399.564 12.54C400.24 11.7656 401.14 11.3784 402.263 11.3784C403.43 11.3784 404.341 11.7601 404.996 12.5236C405.65 13.2761 405.977 14.2686 405.977 15.5011V16.4008ZM403.883 14.9448C403.872 14.574 403.807 14.2686 403.687 14.0287C403.425 13.4397 402.951 13.1453 402.263 13.1453C401.576 13.1453 401.102 13.4397 400.84 14.0287C400.72 14.2686 400.655 14.574 400.644 14.9448H403.883Z" fill="#E2001A"/>
<path d="M397.132 20H395.971C395.164 20 394.547 19.76 394.122 19.2802C393.708 18.8003 393.5 18.2277 393.5 17.5624V13.3416H392.601V11.722H393.5V9.20258H395.627V11.722H397.132V13.3416H395.627V17.4315C395.627 17.9441 395.873 18.2004 396.363 18.2004H397.132V20Z" fill="#E2001A"/>
<path d="M392.092 12.18L390.489 13.7997C390.151 13.4616 389.775 13.2925 389.36 13.2925C389 13.2925 388.679 13.4288 388.395 13.7015C388.122 13.9742 387.986 14.3613 387.986 14.863V20H385.859V11.4766H387.937V12.2946C388.155 12.0328 388.455 11.8147 388.837 11.6402C389.229 11.4657 389.644 11.3784 390.08 11.3784C390.887 11.3784 391.558 11.6456 392.092 12.18Z" fill="#E2001A"/>
<path d="M383.566 20H381.488V19.2638C381.194 19.5583 380.888 19.7709 380.572 19.9018C380.266 20.0218 379.874 20.0818 379.394 20.0818C378.445 20.0818 377.72 19.8309 377.218 19.3292C376.749 18.8384 376.515 18.2004 376.515 17.4152C376.515 16.6953 376.765 16.1064 377.267 15.6483C377.769 15.1793 378.5 14.9448 379.459 14.9448H381.439V14.5195C381.439 14.0505 381.313 13.7124 381.063 13.5052C380.812 13.2871 380.408 13.178 379.852 13.178C379.187 13.178 378.641 13.4234 378.216 13.9142L376.875 12.589C377.289 12.131 377.72 11.8147 378.167 11.6402C378.625 11.4657 379.214 11.3784 379.934 11.3784C382.355 11.3784 383.566 12.3818 383.566 14.3886V20ZM381.439 16.8589V16.4008H379.819C378.98 16.4008 378.56 16.728 378.56 17.3824C378.56 18.0259 378.99 18.3477 379.852 18.3477C380.408 18.3477 380.828 18.2113 381.112 17.9387C381.33 17.7533 381.439 17.3933 381.439 16.8589Z" fill="#E2001A"/>
<path d="M375.277 20H374.115C373.308 20 372.692 19.76 372.267 19.2802C371.852 18.8003 371.645 18.2277 371.645 17.5624V13.3416H370.745V11.722H371.645V9.20258H373.772V11.722H375.277V13.3416H373.772V17.4315C373.772 17.9441 374.017 18.2004 374.508 18.2004H375.277V20Z" fill="#E2001A"/>
<path d="M369.472 16.5645C369.472 17.666 369.068 18.5331 368.261 19.1656C367.454 19.7873 366.418 20.0982 365.153 20.0982C364.226 20.0982 363.424 19.9836 362.748 19.7546C362.072 19.5147 361.456 19.1166 360.899 18.5603L362.372 17.088C363.026 17.7424 363.959 18.0695 365.169 18.0695C365.845 18.0695 366.358 17.9441 366.707 17.6933C367.067 17.4424 367.247 17.0825 367.247 16.6135C367.247 16.21 367.127 15.8883 366.887 15.6483C366.68 15.452 366.331 15.3211 365.84 15.2557L364.449 15.043C363.468 14.9012 362.715 14.5795 362.192 14.0778C361.636 13.5325 361.357 12.769 361.357 11.7874C361.357 10.7295 361.723 9.87879 362.454 9.23531C363.184 8.58092 364.171 8.25372 365.415 8.25372C366.985 8.25372 368.239 8.70634 369.177 9.61158L367.738 11.0349C367.192 10.5005 366.396 10.2332 365.349 10.2332C364.771 10.2332 364.329 10.375 364.024 10.6586C363.719 10.9313 363.566 11.2803 363.566 11.7056C363.566 12.0546 363.675 12.3327 363.893 12.54C364.144 12.769 364.499 12.9162 364.957 12.9817L366.347 13.1944C367.34 13.3361 368.081 13.6415 368.572 14.1105C369.172 14.6667 369.472 15.4847 369.472 16.5645Z" fill="#E2001A"/>
<path d="M437.5 3.8L437.3 3.6C437.3 3.6 437.2 3.5 437.1 3.5C437.1 3.5 437 3.5 437.1 3.4H437.2C437.2 3.4 437.1 3.4 437.1 3.3C437.1 3.3 437.1 3.3 437 3.3H437.1C437.1 3.3 437 3.3 437 3.2C437.1 3.2 437.1 3.2 437.2 3.2C437.1 3.2 437.1 3.1 437.1 3.1H437C437.1 3.1 437.1 3.1 437.2 3.1C437.2 3.1 437.1 3.1 437.1 3C437.2 3 437.2 3 437.3 3.1C437.2 3 437.1 3 437 3H437.1C437 3 437 3 436.9 3H437C436.9 3 436.8 2.9 436.7 2.8C436.7 2.8 436.7 2.8 436.8 2.9C436.8 2.9 436.7 2.7 436.8 2.7C436.8 2.5 436.6 2.3 436.6 2.1C436.6 2 436.6 2 436.6 1.9C436.6 1.9 436.7 1.9 436.7 2L436.6 1.9C436.5 1.8 436.6 1.7 436.6 1.6C436.6 1.5 436.7 1.4 436.7 1.3C436.8 1 436.8 0.7 436.7 0.4C436.7 0.3 436 3.7998e-07 435.4 0.1C435.1 3.7998e-07 434.9 0 434.8 0C434.7 0 434.7 0.1 434.6 0.1C434.6 0.1 434.5 0.100001 434.5 0.200001L434.4 0.300001C434.4 0.300001 434.4 0.300001 434.4 0.200001C434.4 0.300001 434.4 0.3 434.4 0.4L434.3 0.5C434.3 0.6 434 0.700001 434 0.700001C433.9 0.700001 433.7 0.700001 433.6 0.700001H433.5C433.4 0.700001 433.4 0.7 433.3 0.6H433.4C433.3 0.6 433.3 0.6 433.2 0.6C433.1 0.6 432.9 0.6 432.8 0.5V0.6H432.7H432.6C432.6 0.6 432.6 0.6 432.5 0.6H432.4C432.3 0.6 432.3 0.6 432.2 0.6C432.1 0.6 432 0.600001 431.9 0.700001C431.8 0.800001 431.2 1 430.9 1.2C430.6 1.4 430.1 1.8 430.1 1.9C430.1 2.1 430.3 2.2 430.3 2.4C430.3 2.5 430.4 2.6 430.5 2.6C430.6 2.7 430.7 2.8 430.7 2.9C430.8 2.9 430.9 3 430.9 3C430.9 3 430.9 3.1 430.8 3.1C430.8 3.1 430.9 3.1 431 3.1C431 3.1 430.9 3.1 430.9 3.2H431C430.9 3.2 430.9 3.3 430.8 3.3C430.9 3.2 431 3.2 431.1 3.2V3.3C431.1 3.3 431.2 3.2 431.3 3.2C431.2 3.3 431.2 3.4 431.2 3.6C431.2 3.5 431.3 3.4 431.4 3.4C431.3 3.5 431.3 3.6 431.3 3.7C431.3 3.6 431.4 3.6 431.5 3.5C431.5 3.6 431.4 3.6 431.4 3.7C431.3 3.7 431.4 4 431.4 4C431.4 4.2 431.2 4.3 431.2 4.5H431.3C431.2 4.5 431.2 4.9 431.2 5C431.3 5.2 431.3 5.3 431.2 5.5C431 5.8 430.7 6.1 430.5 6.5C430.6 6.4 430.6 6.4 430.7 6.3C430.6 6.5 430.5 6.6 430.4 6.8C430.4 6.8 430.4 6.8 430.5 6.7L430.2 7.2C430.1 7.3 430.1 7.4 430 7.5C429.6 8 428.9 8.3 428.3 8.7C427.7 9.1 427 9.6 426.4 10.1C426.3 10.2 426.2 10.2 426.2 10.3C426 10.4 425.7 10.6 425.7 10.7C425.6 10.9 424.7 11.6 424.6 11.8C424.5 12 423.4 13.3 423.2 13.4C423 13.5 422.5 14.7 422.5 15C422.5 15 421.3 17.2 420.3 17.8C419.3 18.3 418.3 18.8 417.5 19.3C416.7 19.8 417.1 20.5 417.7 20.3C418.3 20.2 419.1 20.3 419.4 20C419.7 19.7 420.4 19.5 420.8 19.3C421.2 19.2 421.7 19.3 422 19L422.1 19.1C422.2 19.5 422.3 19.7 422.5 19.7C422.7 19.7 425.9 20.1 426.1 20.1C426.3 20.1 426.8 20.1 426.9 20.1C427 20.1 427.2 20.1 427.2 20.1C427.2 20.1 427.2 20 427.4 19.9C427.5 19.8 427.7 19.8 427.7 19.7C427.7 19.6 427.7 19.5 427.7 19.5C427.7 19.5 430.3 19.5 430.4 19.5C430.5 19.5 430.6 19.4 430.7 19.4C430.8 19.3 430.9 19.5 431.1 19.2L431.3 19C431.3 19 431.5 18.9 431.5 18.8C431.5 18.8 431.3 18.4 431 18.3C430.7 18.2 430.2 18.2 430 18.2C429.6 18.2 429.1 18.4 428.7 18.3C428.8 18.2 429 18.1 429.1 18C429.2 17.9 429.6 17.8 429.6 17.6C429.6 17.7 429.6 17.7 429.6 17.8C429.7 17.7 429.9 17.6 430 17.4C430 17.5 430 17.6 429.9 17.7C430.1 17.6 430.3 17.4 430.4 17.3V17.5C430.5 17.4 430.6 17.3 430.7 17.1C430.6 17.2 430.6 17.4 430.6 17.6C430.7 17.4 431 16.9 431.2 17.2C431.3 17.3 431.3 17.6 431.1 17.7C431.2 17.7 431.3 17.6 431.4 17.5L431.3 17.7H431.4C431.4 17.8 431.4 17.8 431.3 17.9C431.4 17.9 431.6 17.9 431.6 18.1C431.7 18.2 431.7 18.4 431.7 18.5C431.7 18.7 431.7 18.9 431.7 19.1L431.8 18.9C431.8 19 431.8 19.1 431.8 19.3L431.9 19.2C431.9 19.5 432.1 20.2 432.4 20.3C432.6 20.3 433 20.3 433 20.3C433 20.3 433.5 20.4 433.7 20.4H433.9C433.9 20.4 434 20.5 434.1 20.4C434.1 20.4 434.2 20.4 434.3 20.4C434.4 20.4 434.4 20.4 434.4 20.4C434.4 20.4 434.5 20.5 434.5 20.4C434.5 20.3 434.6 20.2 434.5 20.1C434.4 20 434.5 19.8 434.2 19.6C434 19.4 433.7 19.2 433.7 19.1C433.7 19 433.3 18.7 433.3 18.4C433.3 18.1 433.4 18 433.3 17.7C433.2 17.4 433.1 17.1 433.1 16.8C433.1 16.5 433.1 16.5 433.1 16.3C433.1 16.1 433 16.1 433.1 15.8C433.2 15.5 433.3 15.3 433.6 15.1C433.6 15.2 433.5 15.3 433.5 15.4C433.6 15.2 433.8 14.9 434 14.7C434 15 434.1 15.4 434.1 15.7C434.1 15.9 434.2 16.5 434.1 16.7C434.2 16.6 434.2 16.5 434.3 16.4C434.3 16.5 434.3 16.7 434.3 16.8L434.4 16.7C434.4 16.8 434.3 17 434.3 17.1C434.3 17.1 434.4 17.1 434.4 17C434.4 17.1 434.4 17.2 434.4 17.3H434.5C434.5 17.3 434.6 17.9 434.6 18C434.6 18.3 434.7 18.7 434.6 18.9C434.6 18.8 434.7 18.7 434.7 18.6C434.7 18.7 434.7 18.8 434.7 19L434.8 18.9C434.8 19 434.8 19 434.8 19.1C434.8 19 435 19.1 435.1 19.1C435.2 19.2 435.3 19.3 435.3 19.4C435.4 19.7 435.4 20 435.4 20C435.4 20.1 435.7 20.1 435.8 20.1C435.9 20.1 436.4 20.1 436.5 20.1C436.6 20.1 436.7 20.1 436.9 20.1L437.1 20.2C437.2 20.1 437.3 20.1 437.4 20.1C437.5 20.1 437.5 20 437.4 20C437.4 19.9 437.3 19.8 437.2 19.7C437.1 19.6 436.8 19.2 436.7 19.1C436.5 18.9 436.2 18.4 436.1 18.2C436.1 18 436 16.9 435.9 16.5C435.9 16.1 435.7 15.6 435.7 15.4C435.7 15.2 435.6 14.1 435.6 13.7C435.7 13.3 435.9 12.6 436.1 12.2C436.2 12 436.2 11.8 436.2 11.6V11.7C436.2 11.6 436.2 11.5 436.2 11.4C436.2 11.5 436.3 11.6 436.3 11.6C436.3 11.3 436.2 10.9 436.2 10.6C436.3 10.6 436.3 10.7 436.3 10.7C436.3 10.4 436.3 10.2 436.2 9.9C436.1 9.5 436 9.1 436 8.7C436 8.6 436 8.5 436 8.4C436 8.3 436 8.2 436 8.1C435.9 7.8 435.7 7.1 435.9 6.8C436 6.8 436 7 436 7C435.9 6.7 435.8 6.4 435.9 6.1C435.9 6 435.9 6 436 6V6.1L436.1 6C436.1 6.1 436.1 6.1 436.1 6.2C436.2 6.2 436.2 6.1 436.3 6.1C436.3 6.1 436.4 6.1 436.4 6C436.4 6.1 436.4 6.1 436.4 6.2C436.4 6.1 436.5 6 436.5 6C436.5 6 436.7 5.9 436.6 5.9C436.6 5.9 436.6 5.8 436.7 5.8C436.7 5.8 436.7 5.8 436.7 5.7C436.7 5.7 436.8 5.7 436.8 5.8V5.7C436.8 5.7 436.8 5.7 436.9 5.7C436.9 5.7 436.9 5.7 436.9 5.6C436.9 5.6 436.9 5.6 436.9 5.7V5.6L437 5.7C437 5.7 437 5.7 437 5.6C437 5.6 437 5.6 437 5.7V5.6C437 5.6 437 5.7 437.1 5.7C437.1 5.7 437.1 5.7 437.1 5.8C437.1 5.8 437.1 5.8 437.1 5.9C437.1 5.8 437.1 5.6 437 5.5V5.4C437 5.4 437 5.4 437.1 5.4V5.5C437.1 5.4 437.1 5.4 437 5.3C437.1 5.3 437.1 5.4 437.2 5.4V5.3C437.2 5.3 437.2 5.2 437.1 5.2V5.1L437.2 5.2C437.2 5.1 437.1 5 437.1 5C437.2 5 437.2 5.1 437.3 5.2C437.3 5 437.2 4.9 437.1 4.7C437.2 4.7 437.2 4.8 437.3 4.8C437.3 4.7 437.3 4.7 437.2 4.6C437.2 4.6 437.2 4.5 437.1 4.5C437.1 4.5 437.1 4.5 437 4.4C437 4.4 437 4.4 437 4.3C437.1 4.3 437.1 4.4 437.2 4.4C437.2 4.3 437.1 4.2 437 4.2H437.1C437.1 4.2 437.1 4.1 437 4.1C437.4 3.8 437.4 3.8 437.5 3.8V3.9C437.5 3.9 437.5 3.9 437.5 4C437.6 3.9 437.6 3.9 437.5 3.8Z" fill="#005CA9"/>
<path d="M169.3 3.8L169.1 3.6C169.1 3.6 169 3.5 168.9 3.5C168.9 3.5 168.8 3.5 168.9 3.4H169C169 3.4 168.9 3.4 168.9 3.3C168.9 3.3 168.9 3.3 168.8 3.3H168.9C168.9 3.3 168.8 3.3 168.8 3.2C168.9 3.2 168.9 3.2 169 3.2C168.9 3.2 168.9 3.1 168.9 3.1H168.8C168.9 3.1 168.9 3.1 169 3.1C169 3.1 168.9 3.1 168.9 3C169 3 169 3 169.1 3.1C169 3 168.9 3 168.8 3H168.9C168.8 3 168.8 3 168.7 3H168.8C168.7 3 168.6 2.9 168.5 2.8C168.5 2.8 168.5 2.8 168.6 2.9C168.6 2.9 168.5 2.7 168.6 2.7C168.6 2.5 168.4 2.3 168.4 2.1C168.4 2 168.4 2 168.4 1.9C168.4 1.9 168.5 1.9 168.5 2L168.4 1.9C168.3 1.8 168.4 1.7 168.4 1.6C168.4 1.5 168.5 1.4 168.5 1.3C168.6 0.999999 168.6 0.7 168.5 0.4C168.5 0.3 167.8 -1.52737e-06 167.2 0.0999985C166.9 -1.52737e-06 166.7 0 166.6 0C166.5 0 166.5 0.0999985 166.4 0.0999985C166.4 0.0999985 166.3 0.0999989 166.3 0.199999L166.2 0.299999C166.2 0.299999 166.2 0.299999 166.2 0.199999C166.2 0.299999 166.2 0.3 166.2 0.4L166.1 0.5C166.1 0.6 165.8 0.699999 165.8 0.699999C165.7 0.699999 165.5 0.699999 165.4 0.699999H165.3C165.2 0.699999 165.2 0.699998 165.1 0.599998H165.2C165.1 0.599998 165.1 0.599998 165 0.599998C164.9 0.599998 164.7 0.6 164.6 0.5V0.599998H164.5H164.4C164.4 0.599998 164.4 0.599998 164.3 0.599998H164.2C164.1 0.599998 164.1 0.599998 164 0.599998C163.9 0.599998 163.8 0.599999 163.7 0.699999C163.6 0.799999 163 0.999999 162.7 1.2C162.4 1.4 161.9 1.8 161.9 1.9C161.9 2.1 162.1 2.2 162.1 2.4C162.1 2.5 162.2 2.6 162.3 2.6C162.4 2.7 162.5 2.8 162.5 2.9C162.6 2.9 162.7 3 162.7 3C162.7 3 162.7 3.1 162.6 3.1C162.6 3.1 162.7 3.1 162.8 3.1C162.8 3.1 162.7 3.1 162.7 3.2H162.8C162.7 3.2 162.7 3.3 162.6 3.3C162.7 3.2 162.8 3.2 162.9 3.2V3.3C162.9 3.3 163 3.2 163.1 3.2C163 3.3 163 3.4 163 3.6C163 3.5 163.1 3.4 163.2 3.4C163.1 3.5 163.1 3.6 163.1 3.7C163.1 3.6 163.2 3.6 163.3 3.5C163.3 3.6 163.2 3.6 163.2 3.7C163.1 3.7 163.2 4 163.2 4C163.2 4.2 163 4.3 163 4.5H163.1C163 4.5 163 4.9 163 5C163.1 5.2 163.1 5.3 163 5.5C162.8 5.8 162.5 6.1 162.3 6.5C162.4 6.4 162.4 6.4 162.5 6.3C162.4 6.5 162.3 6.6 162.2 6.8C162.2 6.8 162.2 6.8 162.3 6.7L162 7.2C161.9 7.3 161.9 7.4 161.8 7.5C161.4 8 160.7 8.3 160.1 8.7C159.5 9.1 158.8 9.6 158.2 10.1C158.1 10.2 158 10.2 158 10.3C157.8 10.4 157.5 10.6 157.5 10.7C157.4 10.9 156.5 11.6 156.4 11.8C156.3 12 155.2 13.3 155 13.4C154.8 13.5 154.3 14.7 154.3 15C154.3 15 153.1 17.2 152.1 17.8C151.1 18.3 150.1 18.8 149.3 19.3C148.5 19.8 148.9 20.5 149.5 20.3C150.1 20.2 150.9 20.3 151.2 20C151.5 19.7 152.2 19.5 152.6 19.3C153 19.2 153.5 19.3 153.8 19L153.9 19.1C154 19.5 154.1 19.7 154.3 19.7C154.5 19.7 157.7 20.1 157.9 20.1C158.1 20.1 158.6 20.1 158.7 20.1C158.8 20.1 159 20.1 159 20.1C159 20.1 159 20 159.2 19.9C159.3 19.8 159.5 19.8 159.5 19.7C159.5 19.6 159.5 19.5 159.5 19.5C159.5 19.5 162.1 19.5 162.2 19.5C162.3 19.5 162.4 19.4 162.5 19.4C162.6 19.3 162.7 19.5 162.9 19.2L163.1 19C163.1 19 163.3 18.9 163.3 18.8C163.3 18.8 163.1 18.4 162.8 18.3C162.5 18.2 162 18.2 161.8 18.2C161.4 18.2 160.9 18.4 160.5 18.3C160.6 18.2 160.8 18.1 160.9 18C161 17.9 161.4 17.8 161.4 17.6C161.4 17.7 161.4 17.7 161.4 17.8C161.5 17.7 161.7 17.6 161.8 17.4C161.8 17.5 161.8 17.6 161.7 17.7C161.9 17.6 162.1 17.4 162.2 17.3V17.5C162.3 17.4 162.4 17.3 162.5 17.1C162.4 17.2 162.4 17.4 162.4 17.6C162.5 17.4 162.8 16.9 163 17.2C163.1 17.3 163.1 17.6 162.9 17.7C163 17.7 163.1 17.6 163.2 17.5L163.1 17.7H163.2C163.2 17.8 163.2 17.8 163.1 17.9C163.2 17.9 163.4 17.9 163.4 18.1C163.5 18.2 163.5 18.4 163.5 18.5C163.5 18.7 163.5 18.9 163.5 19.1L163.6 18.9C163.6 19 163.6 19.1 163.6 19.3L163.7 19.2C163.7 19.5 163.9 20.2 164.2 20.3C164.4 20.3 164.8 20.3 164.8 20.3C164.8 20.3 165.3 20.4 165.5 20.4H165.7C165.7 20.4 165.8 20.5 165.9 20.4C165.9 20.4 166 20.4 166.1 20.4C166.2 20.4 166.2 20.4 166.2 20.4C166.2 20.4 166.3 20.5 166.3 20.4C166.3 20.3 166.4 20.2 166.3 20.1C166.2 20 166.3 19.8 166 19.6C165.8 19.4 165.5 19.2 165.5 19.1C165.5 19 165.1 18.7 165.1 18.4C165.1 18.1 165.2 18 165.1 17.7C165 17.4 164.9 17.1 164.9 16.8C164.9 16.5 164.9 16.5 164.9 16.3C164.9 16.1 164.8 16.1 164.9 15.8C165 15.5 165.1 15.3 165.4 15.1C165.4 15.2 165.3 15.3 165.3 15.4C165.4 15.2 165.6 14.9 165.8 14.7C165.8 15 165.9 15.4 165.9 15.7C165.9 15.9 166 16.5 165.9 16.7C166 16.6 166 16.5 166.1 16.4C166.1 16.5 166.1 16.7 166.1 16.8L166.2 16.7C166.2 16.8 166.1 17 166.1 17.1C166.1 17.1 166.2 17.1 166.2 17C166.2 17.1 166.2 17.2 166.2 17.3H166.3C166.3 17.3 166.4 17.9 166.4 18C166.4 18.3 166.5 18.7 166.4 18.9C166.4 18.8 166.5 18.7 166.5 18.6C166.5 18.7 166.5 18.8 166.5 19L166.6 18.9C166.6 19 166.6 19 166.6 19.1C166.6 19 166.8 19.1 166.9 19.1C167 19.2 167.1 19.3 167.1 19.4C167.2 19.7 167.2 20 167.2 20C167.2 20.1 167.5 20.1 167.6 20.1C167.7 20.1 168.2 20.1 168.3 20.1C168.4 20.1 168.5 20.1 168.7 20.1L168.9 20.2C169 20.1 169.1 20.1 169.2 20.1C169.3 20.1 169.3 20 169.2 20C169.2 19.9 169.1 19.8 169 19.7C168.9 19.6 168.6 19.2 168.5 19.1C168.3 18.9 168 18.4 167.9 18.2C167.9 18 167.8 16.9 167.7 16.5C167.7 16.1 167.5 15.6 167.5 15.4C167.5 15.2 167.4 14.1 167.4 13.7C167.5 13.3 167.7 12.6 167.9 12.2C168 12 168 11.8 168 11.6V11.7C168 11.6 168 11.5 168 11.4C168 11.5 168.1 11.6 168.1 11.6C168.1 11.3 168 10.9 168 10.6C168.1 10.6 168.1 10.7 168.1 10.7C168.1 10.4 168.1 10.2 168 9.9C167.9 9.5 167.8 9.1 167.8 8.7C167.8 8.6 167.8 8.5 167.8 8.4C167.8 8.3 167.8 8.2 167.8 8.1C167.7 7.8 167.5 7.1 167.7 6.8C167.8 6.8 167.8 7 167.8 7C167.7 6.7 167.6 6.4 167.7 6.1C167.7 6 167.7 6 167.8 6V6.1L167.9 6C167.9 6.1 167.9 6.1 167.9 6.2C168 6.2 168 6.1 168.1 6.1C168.1 6.1 168.2 6.1 168.2 6C168.2 6.1 168.2 6.1 168.2 6.2C168.2 6.1 168.3 6 168.3 6C168.3 6 168.5 5.9 168.4 5.9C168.4 5.9 168.4 5.8 168.5 5.8C168.5 5.8 168.5 5.8 168.5 5.7C168.5 5.7 168.6 5.7 168.6 5.8V5.7C168.6 5.7 168.6 5.7 168.7 5.7C168.7 5.7 168.7 5.7 168.7 5.6C168.7 5.6 168.7 5.6 168.7 5.7V5.6L168.8 5.7C168.8 5.7 168.8 5.7 168.8 5.6C168.8 5.6 168.8 5.6 168.8 5.7V5.6C168.8 5.6 168.8 5.7 168.9 5.7C168.9 5.7 168.9 5.7 168.9 5.8C168.9 5.8 168.9 5.8 168.9 5.9C168.9 5.8 168.9 5.6 168.8 5.5V5.4C168.8 5.4 168.8 5.4 168.9 5.4V5.5C168.9 5.4 168.9 5.4 168.8 5.3C168.9 5.3 168.9 5.4 169 5.4V5.3C169 5.3 169 5.2 168.9 5.2V5.1L169 5.2C169 5.1 168.9 5 168.9 5C169 5 169 5.1 169.1 5.2C169.1 5 169 4.9 168.9 4.7C169 4.7 169 4.8 169.1 4.8C169.1 4.7 169.1 4.7 169 4.6C169 4.6 169 4.5 168.9 4.5C168.9 4.5 168.9 4.5 168.8 4.4C168.8 4.4 168.8 4.4 168.8 4.3C168.9 4.3 168.9 4.4 169 4.4C169 4.3 168.9 4.2 168.8 4.2H168.9C168.9 4.2 168.9 4.1 168.8 4.1C169.1 3.8 169.2 3.8 169.3 3.8V3.9C169.3 3.9 169.3 3.9 169.3 4C169.4 3.9 169.3 3.9 169.3 3.8Z" fill="#005CA9"/>
<path d="M450.8 15.3444C450.8 15.2444 450.8 15.2444 450.7 15.1444L450.6 15.0444C450.6 15.0444 450.6 14.9444 450.5 14.9444L450.4 14.8444V14.7444V14.6444C450.4 14.6444 450.4 14.5444 450.5 14.5444V14.4444V14.3444C450.5 14.2444 450.5 14.2444 450.4 14.1444C450.4 14.0444 450.3 14.0444 450.3 13.9444C450.3 13.8444 450.2 13.8444 450.2 13.7444C450.2 13.7444 450.2 13.6444 450.1 13.6444L450 13.5444L449.9 13.4444L449.8 13.3444C449.8 13.3444 449.8 13.3444 449.7 13.2444C449.6 13.2444 449.6 13.1444 449.5 13.1444C449.5 13.1444 449.4 13.0444 449.3 13.0444H449.2H449.1H449H448.9C448.9 13.0444 448.9 13.0444 448.8 13.0444C448.7 13.0444 448.7 12.9444 448.6 13.0444H448.5C448.4 13.0444 448.4 13.0444 448.3 13.0444H448.2C448.2 13.0444 448.2 13.0444 448.1 13.0444C448.1 13.0444 448.1 13.0444 448 13.0444L447.9 13.1444C447.8 13.1444 447.8 13.1444 447.7 13.2444H447.6H447.5C447.5 13.2444 447.4 13.2444 447.4 13.3444C447.4 13.3444 447.4 13.3444 447.3 13.3444C447.3 13.3444 447.3 13.3444 447.2 13.3444C447.2 13.3444 447.1 13.3444 447.1 13.4444C447.1 13.4444 447.1 13.4444 447 13.4444L446.9 13.5444C446.9 13.5444 446.9 13.5444 446.8 13.5444C446.8 13.5444 446.8 13.5444 446.7 13.5444V13.6444C446.7 13.6444 446.7 13.6444 446.7 13.7444C446.7 13.7444 446.7 13.7444 446.7 13.8444V13.9444C446.7 13.9444 446.7 13.9444 446.8 14.0444C446.8 14.0444 446.8 14.0444 446.8 14.1444C446.9 14.2444 446.9 14.3444 446.8 14.4444C446.7 14.4444 446.7 14.4444 446.6 14.5444C446.5 14.5444 446.5 14.5444 446.5 14.5444C446.4 14.5444 446.4 14.5444 446.3 14.5444H446.2H446.1C446 14.5444 445.9 14.5444 445.9 14.5444C445.8 14.5444 445.7 14.5444 445.6 14.5444H445.5C445.3 14.5444 445.1 14.5444 444.8 14.5444C444.6 14.5444 444.3 14.5444 444.1 14.5444C444 14.5444 443.8 14.5444 443.7 14.5444C443.6 14.5444 443.6 14.5444 443.5 14.5444H443.4H443.3H443.2H443.1H443H442.9H442.8C442.8 14.5444 442.8 14.5444 442.7 14.5444C442.6 14.4444 442.5 14.4444 442.5 14.3444L442.4 14.2444C442.4 14.2444 442.3 14.2444 442.3 14.1444L442.2 14.0444C442.2 14.0444 442.2 14.0444 442.2 13.9444C442.2 13.9444 442.2 13.9444 442.2 13.8444C442.2 13.7444 442.1 13.6444 442.1 13.5444C442.1 13.4444 442.1 13.4444 442 13.3444V13.2444C442 13.2444 442 13.2444 442 13.1444V13.0444H441.9C441.8 13.0444 441.8 13.1444 441.7 13.1444L441.6 13.2444C441.6 13.3444 441.5 13.3444 441.5 13.4444V13.5444C441.5 13.5444 441.5 13.5444 441.5 13.6444V13.7444C441.5 13.8444 441.5 13.9444 441.5 13.9444C441.5 14.0444 441.5 14.0444 441.5 14.1444C441.5 14.1444 441.5 14.1444 441.5 14.2444C441.5 14.2444 441.5 14.2444 441.5 14.3444C441.5 14.4444 441.6 14.5444 441.6 14.6444H441.5C441.5 14.7444 441.6 14.8444 441.6 14.8444C441.7 14.9444 441.7 14.9444 441.8 14.9444C441.7 14.9444 441.7 14.9444 441.6 14.9444C441.6 14.9444 441.6 14.9444 441.6 15.0444C441.6 15.0444 441.6 15.0444 441.7 15.1444C441.7 15.1444 441.7 15.1444 441.8 15.1444C441.8 15.1444 441.8 15.1444 441.9 15.2444C441.9 15.2444 441.9 15.2444 442 15.3444V15.4444V15.5444V15.6444V15.7444V15.8444C442 16.0444 441.9 16.1444 441.9 16.3444L442 16.2444C442 16.3444 442 16.4444 442 16.4444V16.5444C442 16.6444 442 16.6444 442 16.7444C442 16.8444 442 16.8444 442 16.9444V17.0444C442 17.0444 442 17.0444 442 17.1444C442 17.2444 442 17.2444 441.9 17.2444L441.8 17.3444C441.8 17.3444 441.7 17.3444 441.7 17.4444V17.5444V17.6444V17.7444C441.7 17.8444 441.7 17.9444 441.7 18.0444C441.7 18.1444 441.7 18.1444 441.7 18.1444V18.2444C441.7 18.2444 441.7 18.2444 441.8 18.2444C441.8 18.3444 441.8 18.3444 441.8 18.4444V18.5444V18.6444C441.8 18.7444 441.8 18.8444 441.8 18.8444V18.9444C441.8 19.0444 441.8 19.1444 441.8 19.1444C441.8 19.2444 441.8 19.2444 441.9 19.3444L442 19.4444C442 19.5444 442.1 19.5444 442.2 19.6444C442.3 19.6444 442.3 19.6444 442.4 19.6444H442.5H442.6C442.7 19.6444 442.8 19.6444 442.8 19.5444V19.4444V19.3444V19.2444C442.8 19.2444 442.8 19.2444 442.8 19.1444C442.8 19.0444 442.8 18.9444 442.8 18.9444C442.8 18.8444 442.7 18.8444 442.7 18.7444C442.7 18.7444 442.7 18.7444 442.7 18.6444V18.5444C442.7 18.4444 442.7 18.4444 442.7 18.3444C442.7 18.3444 442.7 18.3444 442.7 18.2444C442.7 18.1444 442.7 18.1444 442.7 18.0444C442.7 18.0444 442.7 18.0444 442.7 17.9444L442.8 17.8444L442.9 17.7444H443H443.1C443.1 17.8444 443 17.9444 443 18.0444C443 18.1444 443 18.1444 443 18.2444C443 18.3444 443.1 18.4444 443.1 18.5444V18.6444C443.1 18.6444 443.1 18.6444 443.1 18.7444C443.1 18.7444 443.1 18.7444 443.1 18.8444V18.9444C443.1 18.9444 443.1 19.0444 443.2 19.0444C443.2 19.0444 443.2 19.1444 443.3 19.1444V19.2444L443.4 19.3444C443.4 19.3444 443.5 19.3444 443.5 19.4444C443.5 19.5444 443.5 19.6444 443.6 19.6444H443.7C443.7 19.6444 443.7 19.6444 443.8 19.6444C443.9 19.6444 444 19.7444 444.1 19.6444H444.2C444.3 19.6444 444.3 19.6444 444.4 19.6444H444.5H444.6C444.6 19.6444 444.6 19.6444 444.7 19.6444H444.8V19.5444C444.8 19.5444 444.8 19.5444 444.8 19.4444V19.3444V19.2444C444.8 19.2444 444.8 19.1444 444.7 19.1444C444.7 19.1444 444.7 19.1444 444.6 19.1444H444.5H444.4H444.3C444.3 19.1444 444.2 19.1444 444.2 19.0444C444.2 19.0444 444.2 19.0444 444.2 18.9444L444.1 18.8444C444.1 18.7444 444 18.7444 444 18.6444C444 18.6444 444 18.6444 444 18.5444V18.4444C444 18.4444 444 18.4444 444 18.3444L444.1 18.2444C444.2 18.1444 444.2 18.1444 444.3 18.0444C444.3 18.0444 444.3 18.0444 444.4 18.0444C444.5 18.0444 444.5 18.0444 444.6 18.0444H444.7H444.8C444.8 18.0444 444.9 18.0444 445 18.0444H445.1H445.2C445.2 18.0444 445.2 18.0444 445.3 18.0444H445.4C445.5 18.1444 445.4 18.1444 445.4 18.2444C445.4 18.2444 445.4 18.2444 445.4 18.3444V18.4444C445.4 18.4444 445.4 18.5444 445.3 18.5444C445.3 18.5444 445.3 18.5444 445.2 18.6444H445.3V18.7444V18.8444V18.9444V19.0444C445.3 19.1444 445.3 19.2444 445.3 19.4444C445.3 19.5444 445.3 19.6444 445.4 19.6444C445.4 19.7444 445.4 19.7444 445.5 19.8444L445.6 19.9444H445.7C445.8 19.9444 445.8 19.9444 445.9 20.0444C446 20.0444 446.1 20.1444 446.2 20.0444C446.3 20.0444 446.4 20.0444 446.5 20.0444C446.5 20.0444 446.5 20.0444 446.6 20.0444C446.7 20.0444 446.7 20.0444 446.8 20.0444C446.9 20.0444 446.9 19.9444 446.9 19.8444C446.9 19.7444 446.9 19.7444 446.8 19.6444V19.5444V19.4444C446.8 19.4444 446.8 19.4444 446.7 19.3444C446.6 19.2444 446.6 19.3444 446.5 19.3444H446.4C446.4 19.3444 446.4 19.3444 446.4 19.2444V19.1444V19.0444C446.4 18.9444 446.4 18.9444 446.4 18.8444C446.5 18.6444 446.5 18.4444 446.6 18.2444V18.1444C446.6 18.1444 446.6 18.1444 446.7 18.1444C446.7 18.1444 446.7 18.1444 446.8 18.1444C446.8 18.1444 446.8 18.1444 446.9 18.1444H447H447.1V18.2444C447.1 18.2444 447.1 18.2444 447.2 18.2444L447.3 18.1444C447.3 18.1444 447.3 18.1444 447.4 18.1444C447.4 18.1444 447.4 18.1444 447.5 18.0444C447.5 18.0444 447.5 18.0444 447.6 18.0444C447.6 18.0444 447.6 18.0444 447.7 18.0444C447.7 18.0444 447.7 18.0444 447.7 18.1444C447.7 18.2444 447.7 18.2444 447.7 18.3444C447.7 18.4444 447.7 18.4444 447.7 18.5444C447.7 18.5444 447.7 18.4444 447.8 18.4444V18.5444V18.6444C447.8 18.6444 447.8 18.6444 447.8 18.7444V18.8444C447.8 18.9444 447.8 18.9444 447.9 19.0444C447.9 19.0444 447.9 19.0444 447.9 19.1444V19.2444V19.3444C447.9 19.3444 447.9 19.3444 447.9 19.4444C447.9 19.4444 448 19.4444 448 19.5444C448 19.5444 448 19.6444 448.1 19.6444C448.1 19.6444 448.1 19.7444 448.2 19.7444C448.3 19.7444 448.3 19.7444 448.4 19.8444C448.5 19.8444 448.5 19.8444 448.6 19.8444H448.7H448.8H448.9C448.9 19.8444 448.9 19.8444 449 19.8444H449.1H449.2H449.3H449.4V19.7444C449.4 19.6444 449.4 19.6444 449.3 19.5444V19.4444V19.3444C449.3 19.3444 449.3 19.3444 449.3 19.2444C449.3 19.2444 449.3 19.2444 449.2 19.2444C449.1 19.2444 449.1 19.2444 449 19.2444V19.1444V19.0444V18.9444C449 18.8444 448.9 18.8444 448.9 18.7444C448.9 18.6444 448.8 18.5444 448.8 18.4444C448.8 18.4444 448.8 18.4444 448.8 18.3444C448.8 18.3444 448.8 18.3444 448.8 18.2444C448.8 18.1444 448.8 18.1444 448.8 18.0444C448.8 18.0444 448.8 18.0444 448.8 17.9444C448.8 17.9444 448.8 17.9444 448.8 17.8444C448.8 17.7444 448.8 17.7444 448.8 17.6444V17.5444C448.8 17.5444 448.8 17.5444 448.8 17.4444C448.8 17.4444 448.8 17.4444 448.8 17.3444V17.2444C448.8 17.2444 448.8 17.2444 448.8 17.1444C448.8 17.1444 448.8 17.2444 448.9 17.2444C448.9 17.2444 448.9 17.1444 448.9 17.0444V16.9444C448.9 16.8444 448.9 16.8444 448.9 16.7444V16.6444C448.9 16.5444 448.9 16.5444 448.9 16.4444V16.3444C448.9 16.3444 448.9 16.3444 448.9 16.2444C448.9 16.2444 448.9 16.2444 448.9 16.1444C448.9 16.1444 448.9 16.1444 448.9 16.0444C448.9 16.0444 448.9 16.0444 448.9 15.9444C448.9 15.8444 448.9 15.8444 448.9 15.7444H449C449 15.7444 449 15.7444 449.1 15.7444H449.2C449.2 15.7444 449.2 15.7444 449.3 15.7444C449.3 15.7444 449.3 15.7444 449.4 15.7444C449.4 15.7444 449.4 15.7444 449.5 15.7444C449.6 15.7444 449.6 15.7444 449.7 15.7444H449.8H449.9C449.9 15.7444 449.9 15.7444 450 15.7444C450.1 15.7444 450.1 15.7444 450.1 15.7444C450.1 15.7444 450.1 15.7444 450.2 15.7444L450.3 15.6444H450.4L450.5 15.5444C450.5 15.5444 450.5 15.5444 450.6 15.5444C450.6 15.5444 450.6 15.5444 450.7 15.5444C450.7 15.5444 450.7 15.5444 450.7 15.4444C450.7 15.4444 450.7 15.4444 450.7 15.3444C450.8 15.4444 450.8 15.4444 450.8 15.3444Z" fill="#D9ECFA"/>
<path d="M183.1 15.3444C183.1 15.2444 183.1 15.2444 183 15.1444L182.9 15.0444C182.9 15.0444 182.9 14.9444 182.8 14.9444L182.7 14.8444V14.7444V14.6444C182.7 14.6444 182.7 14.5444 182.8 14.5444V14.4444V14.3444C182.8 14.2444 182.8 14.2444 182.7 14.1444C182.7 14.0444 182.6 14.0444 182.6 13.9444C182.6 13.8444 182.5 13.8444 182.5 13.7444C182.5 13.7444 182.5 13.6444 182.4 13.6444L182.3 13.5444L182.2 13.4444L182.1 13.3444C182.1 13.3444 182.1 13.3444 182 13.2444C181.9 13.2444 181.9 13.1444 181.8 13.1444C181.8 13.1444 181.7 13.0444 181.6 13.0444H181.5H181.4H181.3H181.2C181.2 13.0444 181.2 13.0444 181.1 13.0444C181 13.0444 181 12.9444 180.9 13.0444H180.8C180.7 13.0444 180.7 13.0444 180.6 13.0444H180.5C180.5 13.0444 180.5 13.0444 180.4 13.0444C180.4 13.0444 180.4 13.0444 180.3 13.0444L180.2 13.1444C180.1 13.1444 180.1 13.1444 180 13.2444H179.9H179.8C179.8 13.2444 179.7 13.2444 179.7 13.3444C179.7 13.3444 179.7 13.3444 179.6 13.3444C179.6 13.3444 179.6 13.3444 179.5 13.3444C179.5 13.3444 179.4 13.3444 179.4 13.4444C179.4 13.4444 179.4 13.4444 179.3 13.4444L179.2 13.5444C179.2 13.5444 179.2 13.5444 179.1 13.5444C179.1 13.5444 179.1 13.5444 179 13.5444V13.6444C179 13.6444 179 13.6444 179 13.7444C179 13.7444 179 13.7444 179 13.8444V13.9444C179 13.9444 179 13.9444 179.1 14.0444C179.1 14.0444 179.1 14.0444 179.1 14.1444C179.2 14.2444 179.2 14.3444 179.1 14.4444C179 14.4444 179 14.4444 178.9 14.5444C178.8 14.5444 178.8 14.5444 178.8 14.5444C178.7 14.5444 178.7 14.5444 178.6 14.5444H178.5H178.4C178.3 14.5444 178.2 14.5444 178.2 14.5444C178.1 14.5444 178 14.5444 177.9 14.5444H177.8C177.6 14.5444 177.4 14.5444 177.1 14.5444C176.9 14.5444 176.6 14.5444 176.4 14.5444C176.3 14.5444 176.1 14.5444 176 14.5444C175.9 14.5444 175.9 14.5444 175.8 14.5444H175.7H175.6H175.5H175.4H175.3H175.2H175.1C175.1 14.5444 175.1 14.5444 175 14.5444C174.9 14.4444 174.8 14.4444 174.8 14.3444L174.7 14.2444C174.7 14.2444 174.6 14.2444 174.6 14.1444L174.5 14.0444C174.5 14.0444 174.5 14.0444 174.5 13.9444C174.5 13.9444 174.5 13.9444 174.5 13.8444C174.5 13.7444 174.4 13.6444 174.4 13.5444C174.4 13.4444 174.4 13.4444 174.3 13.3444V13.2444C174.3 13.2444 174.3 13.2444 174.3 13.1444V13.0444H174.2C174.1 13.0444 174.1 13.1444 174 13.1444L173.9 13.2444C173.9 13.3444 173.8 13.3444 173.8 13.4444V13.5444C173.8 13.5444 173.8 13.5444 173.8 13.6444V13.7444C173.8 13.8444 173.8 13.9444 173.8 13.9444C173.8 14.0444 173.8 14.0444 173.8 14.1444C173.8 14.1444 173.8 14.1444 173.8 14.2444C173.8 14.2444 173.8 14.2444 173.8 14.3444C173.8 14.4444 173.9 14.5444 173.9 14.6444H173.8C173.8 14.7444 173.9 14.8444 173.9 14.8444C174 14.9444 174 14.9444 174.1 14.9444C174 14.9444 174 14.9444 173.9 14.9444C173.9 14.9444 173.9 14.9444 173.9 15.0444C173.9 15.0444 173.9 15.0444 174 15.1444C174 15.1444 174 15.1444 174.1 15.1444C174.1 15.1444 174.1 15.1444 174.2 15.2444C174.2 15.2444 174.2 15.2444 174.3 15.3444V15.4444V15.5444V15.6444V15.7444V15.8444C174.3 16.0444 174.2 16.1444 174.2 16.3444L174.3 16.2444C174.3 16.3444 174.3 16.4444 174.3 16.4444V16.5444C174.3 16.6444 174.3 16.6444 174.3 16.7444C174.3 16.8444 174.3 16.8444 174.3 16.9444V17.0444C174.3 17.0444 174.3 17.0444 174.3 17.1444C174.3 17.2444 174.3 17.2444 174.2 17.2444L174.1 17.3444C174.1 17.3444 174 17.3444 174 17.4444V17.5444V17.6444V17.7444C174 17.8444 174 17.9444 174 18.0444C174 18.1444 174 18.1444 174 18.1444V18.2444C174 18.2444 174 18.2444 174.1 18.2444C174.1 18.3444 174.1 18.3444 174.1 18.4444V18.5444V18.6444C174.1 18.7444 174.1 18.8444 174.1 18.8444V18.9444C174.1 19.0444 174.1 19.1444 174.1 19.1444C174.1 19.2444 174.1 19.2444 174.2 19.3444L174.3 19.4444C174.3 19.5444 174.4 19.5444 174.5 19.6444C174.6 19.6444 174.6 19.6444 174.7 19.6444H174.8H174.9C175 19.6444 175.1 19.6444 175.1 19.5444V19.4444V19.3444V19.2444C175.1 19.2444 175.1 19.2444 175.1 19.1444C175.1 19.0444 175.1 18.9444 175.1 18.9444C175.1 18.8444 175 18.8444 175 18.7444C175 18.7444 175 18.7444 175 18.6444V18.5444C175 18.4444 175 18.4444 175 18.3444C175 18.3444 175 18.3444 175 18.2444C175 18.1444 175 18.1444 175 18.0444C175 18.0444 175 18.0444 175 17.9444L175.1 17.8444L175.2 17.7444H175.3H175.4C175.4 17.8444 175.3 17.9444 175.3 18.0444C175.3 18.1444 175.3 18.1444 175.3 18.2444C175.3 18.3444 175.4 18.4444 175.4 18.5444V18.6444C175.4 18.6444 175.4 18.6444 175.4 18.7444C175.4 18.7444 175.4 18.7444 175.4 18.8444V18.9444C175.4 18.9444 175.4 19.0444 175.5 19.0444C175.5 19.0444 175.5 19.1444 175.6 19.1444V19.2444L175.7 19.3444C175.7 19.3444 175.8 19.3444 175.8 19.4444C175.8 19.5444 175.8 19.6444 175.9 19.6444H176C176 19.6444 176 19.6444 176.1 19.6444C176.2 19.6444 176.3 19.7444 176.4 19.6444H176.5C176.6 19.6444 176.6 19.6444 176.7 19.6444H176.8H176.9C176.9 19.6444 176.9 19.6444 177 19.6444H177.1V19.5444C177.1 19.5444 177.1 19.5444 177.1 19.4444V19.3444V19.2444C177.1 19.2444 177.1 19.1444 177 19.1444C177 19.1444 177 19.1444 176.9 19.1444H176.8H176.7H176.6C176.6 19.1444 176.5 19.1444 176.5 19.0444C176.5 19.0444 176.5 19.0444 176.5 18.9444L176.4 18.8444C176.4 18.7444 176.3 18.7444 176.3 18.6444C176.3 18.6444 176.3 18.6444 176.3 18.5444V18.4444C176.3 18.4444 176.3 18.4444 176.3 18.3444L176.4 18.2444C176.5 18.1444 176.5 18.1444 176.6 18.0444C176.6 18.0444 176.6 18.0444 176.7 18.0444C176.8 18.0444 176.8 18.0444 176.9 18.0444H177H177.1C177.1 18.0444 177.2 18.0444 177.3 18.0444H177.4H177.5C177.5 18.0444 177.5 18.0444 177.6 18.0444H177.7C177.8 18.1444 177.7 18.1444 177.7 18.2444C177.7 18.2444 177.7 18.2444 177.7 18.3444V18.4444C177.7 18.4444 177.7 18.5444 177.6 18.5444C177.6 18.5444 177.6 18.5444 177.5 18.6444H177.6V18.7444V18.8444V18.9444V19.0444C177.6 19.1444 177.6 19.2444 177.6 19.4444C177.6 19.5444 177.6 19.6444 177.7 19.6444C177.7 19.7444 177.7 19.7444 177.8 19.8444L177.9 19.9444H178C178.1 19.9444 178.1 19.9444 178.2 20.0444C178.3 20.0444 178.4 20.1444 178.5 20.0444C178.6 20.0444 178.7 20.0444 178.8 20.0444C178.8 20.0444 178.8 20.0444 178.9 20.0444C179 20.0444 179 20.0444 179.1 20.0444C179.2 20.0444 179.2 19.9444 179.2 19.8444C179.2 19.7444 179.2 19.7444 179.1 19.6444V19.5444V19.4444C179.1 19.4444 179.1 19.4444 179 19.3444C178.9 19.2444 178.9 19.3444 178.8 19.3444H178.7C178.7 19.3444 178.7 19.3444 178.7 19.2444V19.1444V19.0444C178.7 18.9444 178.7 18.9444 178.7 18.8444C178.8 18.6444 178.8 18.4444 178.9 18.2444V18.1444C178.9 18.1444 178.9 18.1444 179 18.1444C179 18.1444 179 18.1444 179.1 18.1444C179.1 18.1444 179.1 18.1444 179.2 18.1444H179.3H179.4V18.2444C179.4 18.2444 179.4 18.2444 179.5 18.2444L179.6 18.1444C179.6 18.1444 179.6 18.1444 179.7 18.1444C179.7 18.1444 179.7 18.1444 179.8 18.0444C179.8 18.0444 179.8 18.0444 179.9 18.0444C179.9 18.0444 179.9 18.0444 180 18.0444C180 18.0444 180 18.0444 180 18.1444C180 18.2444 180 18.2444 180 18.3444C180 18.4444 180 18.4444 180 18.5444C180 18.5444 180 18.4444 180.1 18.4444V18.5444V18.6444C180.1 18.6444 180.1 18.6444 180.1 18.7444V18.8444C180.1 18.9444 180.1 18.9444 180.2 19.0444C180.2 19.0444 180.2 19.0444 180.2 19.1444V19.2444V19.3444C180.2 19.3444 180.2 19.3444 180.2 19.4444C180.2 19.4444 180.3 19.4444 180.3 19.5444C180.3 19.5444 180.3 19.6444 180.4 19.6444C180.4 19.6444 180.4 19.7444 180.5 19.7444C180.6 19.7444 180.6 19.7444 180.7 19.8444C180.8 19.8444 180.8 19.8444 180.9 19.8444H181H181.1H181.2C181.2 19.8444 181.2 19.8444 181.3 19.8444H181.4H181.5H181.6H181.7V19.7444C181.7 19.6444 181.7 19.6444 181.6 19.5444V19.4444V19.3444C181.6 19.3444 181.6 19.3444 181.6 19.2444C181.6 19.2444 181.6 19.2444 181.5 19.2444C181.4 19.2444 181.4 19.2444 181.3 19.2444V19.1444V19.0444V18.9444C181.3 18.8444 181.2 18.8444 181.2 18.7444C181.2 18.6444 181.1 18.5444 181.1 18.4444C181.1 18.4444 181.1 18.4444 181.1 18.3444C181.1 18.3444 181.1 18.3444 181.1 18.2444C181.1 18.1444 181.1 18.1444 181.1 18.0444C181.1 18.0444 181.1 18.0444 181.1 17.9444C181.1 17.9444 181.1 17.9444 181.1 17.8444C181.1 17.7444 181.1 17.7444 181.1 17.6444V17.5444C181.1 17.5444 181.1 17.5444 181.1 17.4444C181.1 17.4444 181.1 17.4444 181.1 17.3444V17.2444C181.1 17.2444 181.1 17.2444 181.1 17.1444C181.1 17.1444 181.1 17.2444 181.2 17.2444C181.2 17.2444 181.2 17.1444 181.2 17.0444V16.9444C181.2 16.8444 181.2 16.8444 181.2 16.7444V16.6444C181.2 16.5444 181.2 16.5444 181.2 16.4444V16.3444C181.2 16.3444 181.2 16.3444 181.2 16.2444C181.2 16.2444 181.2 16.2444 181.2 16.1444C181.2 16.1444 181.2 16.1444 181.2 16.0444C181.2 16.0444 181.2 16.0444 181.2 15.9444C181.2 15.8444 181.2 15.8444 181.2 15.7444H181.3C181.3 15.7444 181.3 15.7444 181.4 15.7444H181.5C181.5 15.7444 181.5 15.7444 181.6 15.7444C181.6 15.7444 181.6 15.7444 181.7 15.7444C181.7 15.7444 181.7 15.7444 181.8 15.7444C181.9 15.7444 181.9 15.7444 182 15.7444H182.1H182.2C182.2 15.7444 182.2 15.7444 182.3 15.7444C182.4 15.7444 182.4 15.7444 182.4 15.7444C182.4 15.7444 182.4 15.7444 182.5 15.7444L182.6 15.6444H182.7L182.8 15.5444C182.8 15.5444 182.8 15.5444 182.9 15.5444C182.9 15.5444 182.9 15.5444 183 15.5444C183 15.5444 183 15.5444 183 15.4444C183 15.4444 183 15.4444 183 15.3444C183.1 15.4444 183.1 15.4444 183.1 15.3444Z" fill="#D9ECFA"/>
<path fill-rule="evenodd" clip-rule="evenodd" d="M308.2 91.9146V23.7146H310.2V91.9146H308.2Z" fill="black"/>
<path opacity="0.69" d="M308 0H0V92H308V0Z" fill="white"/>
<path d="M337.616 11.2427C338.035 11.6442 338.244 12.1678 338.244 12.8137C338.244 13.4595 338.03 13.9876 337.603 14.3978C337.184 14.7992 336.643 15 335.979 15H332.693V8.17926H334.408V10.6405H335.979C336.651 10.6405 337.197 10.8412 337.616 11.2427ZM335.665 11.9758H334.356V13.6646H335.665C335.936 13.6646 336.15 13.5905 336.307 13.4421C336.472 13.285 336.555 13.0755 336.555 12.8137C336.555 12.5606 336.472 12.3598 336.307 12.2115C336.15 12.0544 335.936 11.9758 335.665 11.9758Z" fill="#005CA9"/>
<path d="M330.805 15H329.09V12.2638H326.903V15H325.188V8.17926H326.903V10.7583H329.09V8.17926H330.805V15Z" fill="#005CA9"/>
<path d="M323.632 12.1198H319.364C319.364 12.5737 319.495 12.9402 319.757 13.2195C320.019 13.4988 320.385 13.6385 320.857 13.6385C321.206 13.6385 321.489 13.5905 321.708 13.4944C321.935 13.3897 322.166 13.2239 322.401 12.997L323.436 14.005C323.069 14.3803 322.689 14.6552 322.297 14.8298C321.913 14.9956 321.428 15.0785 320.844 15.0785C320.407 15.0785 320.01 15.0262 319.652 14.9214C319.303 14.808 318.976 14.6247 318.67 14.3716C318.365 14.1185 318.125 13.7563 317.95 13.285C317.776 12.8137 317.688 12.2464 317.688 11.5831C317.688 10.4921 317.959 9.64115 318.5 9.03021C319.041 8.41054 319.761 8.10071 320.66 8.10071C321.594 8.10071 322.323 8.40618 322.847 9.01712C323.37 9.61933 323.632 10.4136 323.632 11.3998V12.1198ZM321.956 10.9547C321.948 10.6579 321.895 10.4136 321.799 10.2215C321.59 9.75025 321.21 9.5146 320.66 9.5146C320.11 9.5146 319.731 9.75025 319.521 10.2215C319.425 10.4136 319.373 10.6579 319.364 10.9547H321.956Z" fill="#005CA9"/>
<path d="M316.835 16.6757H315.224V15H311.323V16.6757H309.713V13.4945H310.407C310.852 12.7002 311.074 11.6224 311.074 10.2608V8.17926H315.971V13.4945H316.835V16.6757ZM314.269 13.4945V9.68479H312.711V10.575C312.711 11.8056 312.536 12.7788 312.187 13.4945H314.269Z" fill="#005CA9"/>
<path d="M304.761 5.54785C304.743 6.20243 304.529 6.67809 304.119 6.97484C303.718 7.27158 303.224 7.41995 302.64 7.41995C302.055 7.41995 301.562 7.27158 301.16 6.97484C300.759 6.67809 300.545 6.20243 300.519 5.54785H301.802C301.837 6.08897 302.116 6.35953 302.64 6.35953C303.163 6.35953 303.443 6.08897 303.478 5.54785H304.761ZM305.559 15H303.844V10.8369L301.448 15H299.733V8.17926H301.448V12.2377L303.844 8.17926H305.559V15Z" fill="#005CA9"/>
<path d="M298.021 12.0544H293.989V10.4703H298.021V12.0544Z" fill="#005CA9"/>
<path d="M292.55 15H286.881V13.4683L290.363 9.42297C290.686 9.03895 290.848 8.66365 290.848 8.29709C290.848 7.94798 290.747 7.66869 290.547 7.45923C290.354 7.24103 290.08 7.13194 289.722 7.13194C289.399 7.13194 289.128 7.22794 288.91 7.41995C288.692 7.60323 288.583 7.90434 288.583 8.32327H286.881C286.881 7.49414 287.147 6.83519 287.679 6.34644C288.221 5.84896 288.901 5.60022 289.722 5.60022C290.56 5.60022 291.24 5.8446 291.764 6.33335C292.288 6.8221 292.55 7.48105 292.55 8.31018C292.55 8.72911 292.475 9.08259 292.327 9.3706C292.179 9.65862 291.921 10.0165 291.555 10.4441L288.949 13.4683H292.55V15Z" fill="#005CA9"/>
<path d="M285.703 13.6777H284.852V15H283.216V13.6777H279.406V12.0675L282.601 5.67877H284.46L281.265 12.0675H283.216V10.3263H284.852V12.0675H285.703V13.6777Z" fill="#005CA9"/>
</svg>
