<svg width="518" height="124" viewBox="0 0 518 124" fill="none" xmlns="http://www.w3.org/2000/svg">
<path d="M309.6 41.9H143.9V55.2H309.6V41.9Z" fill="#005CA9"/>
<path d="M138.3 41.9H8V55.2H138.3V41.9Z" fill="#005CA9"/>
<path fill-rule="evenodd" clip-rule="evenodd" d="M7.50781 41.4082H138.792V55.6919H7.50781V41.4082ZM8.49151 42.3919V54.7082H137.808V42.3919H8.49151Z" fill="#005CA9"/>
<path fill-rule="evenodd" clip-rule="evenodd" d="M381.821 43.1785H309.6V41.4218H383.578V56.3785H309.6V54.6218H381.821V43.1785Z" fill="#D9ECFA"/>
<path fill-rule="evenodd" clip-rule="evenodd" d="M143.295 41.3949H309.6V42.6052H144.505V54.5949H309.6V55.8052H143.295V41.3949Z" fill="#005CA9"/>
<path fill-rule="evenodd" clip-rule="evenodd" d="M385.882 41.2817H515.119V56.6184H385.882V41.2817ZM387.919 43.3184V54.5817H513.082V43.3184H387.919Z" fill="#D9ECFA"/>
<path fill-rule="evenodd" clip-rule="evenodd" d="M475.99 69.0001C475.99 68.4423 476.442 67.9901 477 67.9901L479.584 67.9901C480.141 67.9901 480.594 68.4423 480.594 69.0001C480.594 69.5579 480.141 70.0101 479.584 70.0101L477 70.0101C476.442 70.0101 475.99 69.5579 475.99 69.0001ZM483.74 69.0001C483.74 68.4423 484.192 67.9901 484.75 67.9901L489.917 67.9901C490.475 67.9901 490.927 68.4423 490.927 69.0001C490.927 69.5579 490.475 70.0101 489.917 70.0101L484.75 70.0101C484.192 70.0101 483.74 69.5579 483.74 69.0001ZM494.074 69.0001C494.074 68.4423 494.526 67.9901 495.084 67.9901L500.25 67.9901C500.808 67.9901 501.26 68.4423 501.26 69.0001C501.26 69.5579 500.808 70.0101 500.25 70.0101L495.084 70.0101C494.526 70.0101 494.074 69.5579 494.074 69.0001ZM504.407 69.0001C504.407 68.4423 504.859 67.9901 505.417 67.9901L508 67.9901C508.558 67.9901 509.01 68.4423 509.01 69.0001C509.01 69.5579 508.558 70.0101 508 70.0101L505.417 70.0101C504.859 70.0101 504.407 69.5579 504.407 69.0001Z" fill="#D9ECFA"/>
<path fill-rule="evenodd" clip-rule="evenodd" d="M395.839 69C395.839 68.3589 396.359 67.8392 397 67.8392L399 67.8392C399.641 67.8392 400.16 68.3589 400.16 69C400.16 69.6411 399.641 70.1608 399 70.1608L397 70.1608C396.359 70.1608 395.839 69.6411 395.839 69ZM401.839 69C401.839 68.3589 402.359 67.8392 403 67.8392L407 67.8392C407.641 67.8392 408.16 68.3589 408.16 69C408.16 69.6411 407.641 70.1608 407 70.1608L403 70.1608C402.359 70.1608 401.839 69.6411 401.839 69ZM409.839 69C409.839 68.3589 410.359 67.8392 411 67.8392L413 67.8392C413.641 67.8392 414.16 68.3589 414.16 69C414.16 69.6411 413.641 70.1608 413 70.1608L411 70.1608C410.359 70.1608 409.839 69.6411 409.839 69Z" fill="#D9ECFA"/>
<path d="M507.2 75.6L517.2 69.8L507.2 64V75.6Z" fill="#D9ECFA"/>
<path d="M8.00039 65C5.70039 65 3.90039 66.9 3.90039 69.1C3.90039 71.4 5.80039 73.2 8.00039 73.2C10.3004 73.2 12.1004 71.3 12.1004 69.1C12.1004 66.8 10.2004 65 8.00039 65Z" fill="#005CA9"/>
<path d="M8 61C3.6 61 0 64.6 0 69C0 73.4 3.6 77 8 77C12.4 77 16 73.4 16 69C16 64.6 12.4 61 8 61ZM8 74.7C4.9 74.7 2.3 72.1 2.3 69C2.3 65.9 4.9 63.3 8 63.3C11.1 63.3 13.7 65.9 13.7 69C13.6 72.1 11.1 74.7 8 74.7Z" fill="#D9ECFA"/>
<path d="M140.5 78C135.6 78 131.5 74 131.5 69C131.5 64.1 135.5 60 140.5 60C145.4 60 149.5 64 149.5 69C149.5 74 145.5 78 140.5 78Z" fill="#D9ECFA"/>
<path fill-rule="evenodd" clip-rule="evenodd" d="M154.978 69.0001C154.978 68.4355 155.435 67.9778 156 67.9778L158.437 67.9778C159.002 67.9778 159.46 68.4355 159.46 69.0001C159.46 69.5647 159.002 70.0224 158.437 70.0224L156 70.0224C155.435 70.0224 154.978 69.5647 154.978 69.0001ZM162.29 69.0001C162.29 68.4355 162.748 67.9778 163.312 67.9778L168.187 67.9778C168.752 67.9778 169.21 68.4355 169.21 69.0001C169.21 69.5647 168.752 70.0224 168.187 70.0224L163.312 70.0224C162.748 70.0224 162.29 69.5647 162.29 69.0001ZM172.04 69.0001C172.04 68.4355 172.498 67.9778 173.062 67.9778L177.937 67.9778C178.502 67.9778 178.96 68.4355 178.96 69.0001C178.96 69.5647 178.502 70.0224 177.937 70.0224L173.062 70.0224C172.498 70.0224 172.04 69.5647 172.04 69.0001ZM181.79 69.0001C181.79 68.4355 182.248 67.9778 182.812 67.9778L187.687 67.9778C188.252 67.9778 188.71 68.4355 188.71 69.0001C188.71 69.5647 188.252 70.0224 187.687 70.0224L182.812 70.0224C182.248 70.0224 181.79 69.5647 181.79 69.0001ZM191.54 69.0001C191.54 68.4355 191.998 67.9778 192.562 67.9778L195 67.9778C195.564 67.9778 196.022 68.4355 196.022 69.0001C196.022 69.5647 195.564 70.0224 195 70.0224L192.562 70.0224C191.998 70.0224 191.54 69.5647 191.54 69.0001Z" fill="#005CA9"/>
<path fill-rule="evenodd" clip-rule="evenodd" d="M262.616 69.0001C262.616 68.2358 263.236 67.6162 264 67.6162L267.167 67.6162C267.931 67.6162 268.551 68.2358 268.551 69.0001C268.551 69.7643 267.931 70.3839 267.167 70.3839L264 70.3839C263.236 70.3839 262.616 69.7643 262.616 69.0001ZM272.116 69.0001C272.116 68.2358 272.736 67.6162 273.5 67.6162L279.833 67.6162C280.598 67.6162 281.217 68.2358 281.217 69.0001C281.217 69.7643 280.598 70.3839 279.833 70.3839L273.5 70.3839C272.736 70.3839 272.116 69.7643 272.116 69.0001ZM284.783 69.0001C284.783 68.2358 285.402 67.6162 286.167 67.6162L292.5 67.6162C293.264 67.6162 293.884 68.2358 293.884 69.0001C293.884 69.7643 293.264 70.3839 292.5 70.3839L286.167 70.3839C285.402 70.3839 284.783 69.7643 284.783 69.0001ZM297.45 69.0001C297.45 68.2358 298.069 67.6162 298.833 67.6162L302 67.6162C302.764 67.6162 303.384 68.2358 303.384 69.0001C303.384 69.7643 302.764 70.3839 302 70.3839L298.833 70.3839C298.069 70.3839 297.45 69.7643 297.45 69.0001Z" fill="#005CA9"/>
<path d="M21.7635 69.1635C21.7635 69.8061 21.2426 70.327 20.6 70.327C19.9574 70.327 19.4365 69.8061 19.4365 69.1635C19.4365 68.5209 19.9574 68 20.6 68C21.2426 68 21.7635 68.5209 21.7635 69.1635Z" fill="#005CA9"/>
<path fill-rule="evenodd" clip-rule="evenodd" d="M89.8369 69C89.8369 68.3575 90.3578 67.8365 91.0004 67.8365L94.0004 67.8365C94.643 67.8365 95.1639 68.3575 95.1639 69C95.1639 69.6426 94.643 70.1635 94.0004 70.1635L91.0004 70.1635C90.3578 70.1635 89.8369 69.6426 89.8369 69ZM98.8369 69C98.8369 68.3575 99.3578 67.8365 100 67.8365L106 67.8365C106.643 67.8365 107.164 68.3575 107.164 69C107.164 69.6426 106.643 70.1635 106 70.1635L100 70.1635C99.3578 70.1635 98.8369 69.6426 98.8369 69ZM110.837 69C110.837 68.3575 111.358 67.8365 112 67.8365L118 67.8365C118.643 67.8365 119.164 68.3575 119.164 69C119.164 69.6426 118.643 70.1635 118 70.1635L112 70.1635C111.358 70.1635 110.837 69.6426 110.837 69ZM122.837 69C122.837 68.3575 123.358 67.8365 124 67.8365L127 67.8365C127.643 67.8365 128.164 68.3575 128.164 69C128.164 69.6426 127.643 70.1635 127 70.1635L124 70.1635C123.358 70.1635 122.837 69.6426 122.837 69Z" fill="#005CA9"/>
<path fill-rule="evenodd" clip-rule="evenodd" d="M25.8369 69C25.8369 68.3575 26.3578 67.8365 27.0004 67.8365H30.0004C30.643 67.8365 31.1639 68.3575 31.1639 69C31.1639 69.6426 30.643 70.1635 30.0004 70.1635H27.0004C26.3578 70.1635 25.8369 69.6426 25.8369 69ZM34.8369 69C34.8369 68.3575 35.3578 67.8365 36.0004 67.8365H42.0004C42.643 67.8365 43.1639 68.3575 43.1639 69C43.1639 69.6426 42.643 70.1635 42.0004 70.1635H36.0004C35.3578 70.1635 34.8369 69.6426 34.8369 69ZM46.8369 69C46.8369 68.3575 47.3578 67.8365 48.0004 67.8365H51.0004C51.643 67.8365 52.1639 68.3575 52.1639 69C52.1639 69.6426 51.643 70.1635 51.0004 70.1635H48.0004C47.3578 70.1635 46.8369 69.6426 46.8369 69Z" fill="#005CA9"/>
<path d="M85.9052 72.0001H84.2425V71.411C84.0069 71.6466 83.7625 71.8168 83.5094 71.9216C83.265 72.0176 82.9508 72.0656 82.5668 72.0656C81.8075 72.0656 81.2271 71.8648 80.8256 71.4633C80.4503 71.0706 80.2627 70.56 80.2627 69.9316C80.2627 69.3556 80.4634 68.8843 80.8649 68.5177C81.2664 68.1424 81.8511 67.9548 82.6192 67.9548H84.2033V67.6144C84.2033 67.2391 84.1029 66.9686 83.9022 66.8027C83.7014 66.6282 83.3785 66.5409 82.9334 66.5409C82.401 66.5409 81.9646 66.7373 81.6242 67.13L80.5507 66.0696C80.8824 65.703 81.2271 65.4499 81.5849 65.3103C81.9515 65.1707 82.4228 65.1008 82.9988 65.1008C84.9364 65.1008 85.9052 65.9038 85.9052 67.5097V72.0001ZM84.2033 69.4865V69.12H82.9072C82.2352 69.12 81.8991 69.3818 81.8991 69.9054C81.8991 70.4204 82.2439 70.6779 82.9334 70.6779C83.3785 70.6779 83.7145 70.5688 83.9414 70.3506C84.116 70.2022 84.2033 69.9142 84.2033 69.4865Z" fill="#005CA9"/>
<path d="M75.5324 72H73.8174V65.1793H75.5324V72ZM79.9312 72H77.8889L75.5455 68.426L77.7841 65.1793H79.7741L77.3652 68.3606L79.9312 72Z" fill="#005CA9"/>
<path d="M71.9215 72H70.2196V69.6043C69.5301 69.7265 68.9104 69.7876 68.3606 69.7876C67.802 69.7876 67.3438 69.6217 66.986 69.2901C66.6281 68.9584 66.4492 68.5046 66.4492 67.9286V65.1793H68.1511V67.4573C68.1511 68.0071 68.4304 68.282 68.989 68.282C69.2072 68.282 69.6174 68.2428 70.2196 68.1642V65.1793H71.9215V72Z" fill="#005CA9"/>
<path d="M64.7418 72.0001H63.0399V65.3757H64.7418V72.0001ZM64.7549 64.0142H63.0137V62.6265H64.7549V64.0142Z" fill="#005CA9"/>
<path d="M61.6879 64.3022H59.2528V72.0001H57.4331V64.3022H54.998V62.6788H61.6879V64.3022Z" fill="#005CA9"/>
<path d="M257.057 68.4356C257.454 68.8165 257.653 69.3133 257.653 69.926C257.653 70.5387 257.45 71.0397 257.044 71.4288C256.647 71.8097 256.133 72.0001 255.504 72.0001H252.387V65.5294H254.014V67.8643H255.504C256.142 67.8643 256.659 68.0548 257.057 68.4356ZM255.206 69.1312H253.964V70.7333H255.206C255.463 70.7333 255.666 70.6629 255.815 70.5222C255.972 70.3731 256.051 70.1744 256.051 69.926C256.051 69.6859 255.972 69.4955 255.815 69.3547C255.666 69.2057 255.463 69.1312 255.206 69.1312Z" fill="#005CA9"/>
<path d="M251.355 66.9577H249.492V72.0001H247.865V66.9577H245.965V65.5294H251.355V66.9577Z" fill="#005CA9"/>
<path d="M245.474 71.1928C244.911 71.7806 244.199 72.0746 243.338 72.0746C243.065 72.0746 242.8 72.0456 242.543 71.9876C242.287 71.9214 242.026 71.8138 241.761 71.6647C241.504 71.5074 241.281 71.3087 241.09 71.0686C240.9 70.8202 240.742 70.5014 240.618 70.1123C240.502 69.7148 240.444 69.2636 240.444 68.7585C240.444 68.2534 240.502 67.8063 240.618 67.4172C240.742 67.0197 240.9 66.701 241.09 66.4608C241.281 66.2207 241.504 66.022 241.761 65.8647C242.026 65.7074 242.287 65.5997 242.543 65.5418C242.8 65.4838 243.065 65.4548 243.338 65.4548C244.208 65.4548 244.92 65.7446 245.474 66.3242L244.381 67.4172C244.067 67.0777 243.719 66.9079 243.338 66.9079C242.957 66.9079 242.651 67.0487 242.419 67.3302C242.179 67.6283 242.059 68.1044 242.059 68.7585C242.059 69.4209 242.179 69.9011 242.419 70.1992C242.651 70.4807 242.957 70.6215 243.338 70.6215C243.719 70.6215 244.067 70.4517 244.381 70.1123L245.474 71.1928Z" fill="#005CA9"/>
<path d="M238.962 72.0001H237.347V65.7157H238.962V72.0001ZM238.974 64.424H237.322V63.1075H238.974V64.424Z" fill="#005CA9"/>
<path d="M235.543 72.0001H233.916V69.4044H231.842V72.0001H230.215V65.5294H231.842V67.9761H233.916V65.5294H235.543V72.0001Z" fill="#005CA9"/>
<path d="M229.184 66.9577H227.321V72.0001H225.694V66.9577H223.794V65.5294H229.184V66.9577Z" fill="#005CA9"/>
<path d="M222.758 72.0001H221.143V65.7157H222.758V72.0001ZM222.77 64.424H221.118V63.1075H222.77V64.424Z" fill="#005CA9"/>
<path d="M220.081 66.9577H217.41V72.0001H215.796V65.5294H220.081V66.9577Z" fill="#005CA9"/>
<path d="M214.017 72.0001H212.44V71.4412C212.216 71.6647 211.984 71.8262 211.744 71.9255C211.512 72.0166 211.214 72.0622 210.85 72.0622C210.13 72.0622 209.579 71.8717 209.198 71.4908C208.842 71.1183 208.664 70.6339 208.664 70.0377C208.664 69.4913 208.854 69.0442 209.235 68.6964C209.616 68.3404 210.171 68.1623 210.9 68.1623H212.402V67.8394C212.402 67.4834 212.307 67.2267 212.117 67.0694C211.926 66.9038 211.62 66.821 211.198 66.821C210.693 66.821 210.279 67.0073 209.956 67.3799L208.937 66.3739C209.252 66.0261 209.579 65.786 209.918 65.6536C210.266 65.5211 210.713 65.4548 211.26 65.4548C213.098 65.4548 214.017 66.2166 214.017 67.7401V72.0001ZM212.402 69.6155V69.2677H211.173C210.535 69.2677 210.217 69.5161 210.217 70.0129C210.217 70.5014 210.544 70.7457 211.198 70.7457C211.62 70.7457 211.939 70.6422 212.154 70.4352C212.32 70.2944 212.402 70.0212 212.402 69.6155Z" fill="#005CA9"/>
<path d="M206.265 67.4669C206.546 67.6159 206.77 67.7732 206.935 67.9388C207.3 68.328 207.482 68.8372 207.482 69.4665C207.482 70.2448 207.238 70.8616 206.749 71.317C206.261 71.7724 205.602 72.0001 204.774 72.0001H201.073V63.1572H204.625C205.462 63.1572 206.124 63.3766 206.612 63.8155C207.109 64.2543 207.358 64.8463 207.358 65.5915C207.358 66.436 206.993 67.0612 206.265 67.4669ZM202.8 66.7341H204.489C204.845 66.7341 205.122 66.643 205.321 66.4609C205.528 66.2787 205.631 66.0303 205.631 65.7157C205.631 65.4011 205.528 65.1527 205.321 64.9705C205.122 64.7884 204.845 64.6973 204.489 64.6973H202.8V66.7341ZM202.8 70.4601H204.6C204.956 70.4601 205.238 70.3607 205.445 70.162C205.652 69.9633 205.755 69.6983 205.755 69.3671C205.755 69.0359 205.652 68.7751 205.445 68.5847C205.238 68.386 204.956 68.2866 204.6 68.2866H202.8V70.4601Z" fill="#005CA9"/>
<path d="M371.611 68.4356C372.009 68.8165 372.207 69.3133 372.207 69.926C372.207 70.5387 372.005 71.0397 371.599 71.4288C371.201 71.8097 370.688 72.0001 370.059 72.0001H366.941V65.5294H368.568V67.8643H370.059C370.696 67.8643 371.214 68.0548 371.611 68.4356ZM369.761 69.1312H368.519V70.7333H369.761C370.017 70.7333 370.22 70.6629 370.369 70.5222C370.527 70.3731 370.605 70.1744 370.605 69.926C370.605 69.6859 370.527 69.4955 370.369 69.3547C370.22 69.2057 370.017 69.1312 369.761 69.1312Z" fill="#005CA9"/>
<path d="M365.91 66.9577H364.047V72.0001H362.42V66.9577H360.52V65.5294H365.91V66.9577Z" fill="#005CA9"/>
<path d="M360.029 71.1928C359.466 71.7806 358.754 72.0746 357.893 72.0746C357.62 72.0746 357.355 72.0456 357.098 71.9876C356.841 71.9214 356.58 71.8138 356.316 71.6647C356.059 71.5074 355.835 71.3087 355.645 71.0686C355.454 70.8202 355.297 70.5014 355.173 70.1123C355.057 69.7148 354.999 69.2636 354.999 68.7585C354.999 68.2534 355.057 67.8063 355.173 67.4172C355.297 67.0197 355.454 66.701 355.645 66.4608C355.835 66.2207 356.059 66.022 356.316 65.8647C356.58 65.7074 356.841 65.5997 357.098 65.5418C357.355 65.4838 357.62 65.4548 357.893 65.4548C358.762 65.4548 359.474 65.7446 360.029 66.3242L358.936 67.4172C358.621 67.0777 358.274 66.9079 357.893 66.9079C357.512 66.9079 357.206 67.0487 356.974 67.3302C356.734 67.6283 356.614 68.1044 356.614 68.7585C356.614 69.4209 356.734 69.9011 356.974 70.1992C357.206 70.4807 357.512 70.6215 357.893 70.6215C358.274 70.6215 358.621 70.4517 358.936 70.1123L360.029 71.1928Z" fill="#005CA9"/>
<path d="M353.516 72.0001H351.902V65.7157H353.516V72.0001ZM353.529 64.424H351.877V63.1075H353.529V64.424Z" fill="#005CA9"/>
<path d="M350.098 72.0001H348.471V69.4044H346.397V72.0001H344.77V65.5294H346.397V67.9761H348.471V65.5294H350.098V72.0001Z" fill="#005CA9"/>
<path d="M343.739 66.9577H341.876V72.0001H340.249V66.9577H338.349V65.5294H343.739V66.9577Z" fill="#005CA9"/>
<path d="M337.312 72.0001H335.698V65.7157H337.312V72.0001ZM337.325 64.424H335.673V63.1075H337.325V64.424Z" fill="#005CA9"/>
<path d="M334.635 66.9577H331.965V72.0001H330.351V65.5294H334.635V66.9577Z" fill="#005CA9"/>
<path d="M328.572 72.0001H326.994V71.4412C326.771 71.6647 326.539 71.8262 326.299 71.9255C326.067 72.0166 325.769 72.0622 325.405 72.0622C324.684 72.0622 324.134 71.8717 323.753 71.4908C323.397 71.1183 323.219 70.6339 323.219 70.0377C323.219 69.4913 323.409 69.0442 323.79 68.6964C324.171 68.3404 324.726 68.1623 325.454 68.1623H326.957V67.8394C326.957 67.4834 326.862 67.2267 326.671 67.0694C326.481 66.9038 326.175 66.821 325.752 66.821C325.247 66.821 324.833 67.0073 324.51 67.3799L323.492 66.3739C323.807 66.0261 324.134 65.786 324.473 65.6536C324.821 65.5211 325.268 65.4548 325.814 65.4548C327.653 65.4548 328.572 66.2166 328.572 67.7401V72.0001ZM326.957 69.6155V69.2677H325.728C325.09 69.2677 324.771 69.5161 324.771 70.0129C324.771 70.5014 325.098 70.7457 325.752 70.7457C326.175 70.7457 326.493 70.6422 326.709 70.4352C326.874 70.2944 326.957 70.0212 326.957 69.6155Z" fill="#005CA9"/>
<path d="M320.819 67.4669C321.101 67.6159 321.324 67.7732 321.49 67.9388C321.854 68.328 322.037 68.8372 322.037 69.4665C322.037 70.2448 321.792 70.8616 321.304 71.317C320.815 71.7724 320.157 72.0001 319.329 72.0001H315.628V63.1572H319.18C320.016 63.1572 320.679 63.3766 321.167 63.8155C321.664 64.2543 321.912 64.8463 321.912 65.5915C321.912 66.436 321.548 67.0612 320.819 67.4669ZM317.354 66.7341H319.043C319.399 66.7341 319.677 66.643 319.875 66.4609C320.082 66.2787 320.186 66.0303 320.186 65.7157C320.186 65.4011 320.082 65.1527 319.875 64.9705C319.677 64.7884 319.399 64.6973 319.043 64.6973H317.354V66.7341ZM317.354 70.4601H319.155C319.511 70.4601 319.793 70.3607 320 70.162C320.207 69.9633 320.31 69.6983 320.31 69.3671C320.31 69.0359 320.207 68.7751 320 68.5847C319.793 68.386 319.511 68.2866 319.155 68.2866H317.354V70.4601Z" fill="#005CA9"/>
<path d="M470.516 68.2297V66.5408H469.18C468.901 66.5408 468.679 66.6194 468.513 66.7765C468.356 66.9249 468.277 67.13 468.277 67.3918C468.277 67.6449 468.356 67.85 468.513 68.0071C468.679 68.1555 468.901 68.2297 469.18 68.2297H470.516ZM468.447 72H466.51L467.884 69.2115C467.492 69.0632 467.182 68.8232 466.955 68.4915C466.728 68.1598 466.614 67.7671 466.614 67.3133C466.614 66.6936 466.824 66.183 467.243 65.7815C467.671 65.3801 468.216 65.1793 468.879 65.1793H472.192V72H470.49V69.5781H469.573L468.447 72Z" fill="#005CA9"/>
<path d="M465.183 72.0001H463.481V65.3757H465.183V72.0001ZM465.196 64.0142H463.455V62.6265H465.196V64.0142Z" fill="#005CA9"/>
<path d="M462.227 73.6758H460.604V72H455.694V65.1793H457.409V70.4945H459.596V65.1793H461.311V70.4945H462.227V73.6758Z" fill="#005CA9"/>
<path d="M453.873 72.0001H452.21V71.411C451.975 71.6466 451.73 71.8168 451.477 71.9216C451.233 72.0176 450.919 72.0656 450.535 72.0656C449.775 72.0656 449.195 71.8648 448.793 71.4633C448.418 71.0706 448.23 70.56 448.23 69.9316C448.23 69.3556 448.431 68.8843 448.833 68.5177C449.234 68.1424 449.819 67.9548 450.587 67.9548H452.171V67.6144C452.171 67.2391 452.071 66.9686 451.87 66.8027C451.669 66.6282 451.346 66.5409 450.901 66.5409C450.369 66.5409 449.932 66.7373 449.592 67.13L448.518 66.0696C448.85 65.703 449.195 65.4499 449.553 65.3103C449.919 65.1707 450.391 65.1008 450.967 65.1008C452.904 65.1008 453.873 65.9038 453.873 67.5097V72.0001ZM452.171 69.4865V69.12H450.875C450.203 69.12 449.867 69.3818 449.867 69.9054C449.867 70.4204 450.212 70.6779 450.901 70.6779C451.346 70.6779 451.682 70.5688 451.909 70.3506C452.084 70.2022 452.171 69.9142 452.171 69.4865Z" fill="#005CA9"/>
<path d="M447.678 66.6849H445.714V72H443.999V66.6849H441.996V65.1793H447.678V66.6849Z" fill="#005CA9"/>
<path d="M437.529 72H435.814V65.1793H437.529V72ZM441.928 72H439.886L437.543 68.426L439.781 65.1793H441.771L439.362 68.3606L441.928 72Z" fill="#005CA9"/>
<path d="M433.979 72.0001H432.317V71.411C432.081 71.6466 431.837 71.8168 431.584 71.9216C431.339 72.0176 431.025 72.0656 430.641 72.0656C429.882 72.0656 429.301 71.8648 428.9 71.4633C428.525 71.0706 428.337 70.56 428.337 69.9316C428.337 69.3556 428.538 68.8843 428.939 68.5177C429.341 68.1424 429.925 67.9548 430.693 67.9548H432.277V67.6144C432.277 67.2391 432.177 66.9686 431.976 66.8027C431.776 66.6282 431.453 66.5409 431.008 66.5409C430.475 66.5409 430.039 66.7373 429.698 67.13L428.625 66.0696C428.957 65.703 429.301 65.4499 429.659 65.3103C430.026 65.1707 430.497 65.1008 431.073 65.1008C433.011 65.1008 433.979 65.9038 433.979 67.5097V72.0001ZM432.277 69.4865V69.12H430.981C430.309 69.12 429.973 69.3818 429.973 69.9054C429.973 70.4204 430.318 70.6779 431.008 70.6779C431.453 70.6779 431.789 70.5688 432.016 70.3506C432.19 70.2022 432.277 69.9142 432.277 69.4865Z" fill="#005CA9"/>
<path d="M426.772 72.0001H424.952V64.3022H422.727V67.0122C422.727 68.2951 422.613 69.3075 422.386 70.0494C422.168 70.7825 421.854 71.2931 421.444 71.5811C421.042 71.8604 420.505 72.0001 419.833 72.0001H419.113V70.3767H419.375C419.628 70.3767 419.842 70.3331 420.017 70.2458C420.2 70.1498 420.366 69.9839 420.514 69.7483C420.671 69.5039 420.785 69.1461 420.854 68.6748C420.933 68.2035 420.972 67.6144 420.972 66.9074V62.6788H426.772V72.0001Z" fill="#005CA9"/>
<path fill-rule="evenodd" clip-rule="evenodd" d="M138.069 63.4697C138.362 63.1768 138.837 63.1768 139.13 63.4697L144.13 68.4697C144.271 68.6103 144.35 68.8011 144.35 69C144.35 69.1989 144.271 69.3897 144.13 69.5303L139.23 74.4303C138.937 74.7232 138.462 74.7232 138.169 74.4303C137.876 74.1374 137.876 73.6626 138.169 73.3697L142.539 69L138.069 64.5303C137.776 64.2374 137.776 63.7626 138.069 63.4697Z" fill="#005CA9"/>
<path d="M384.6 78C379.7 78 375.6 74 375.6 69C375.6 64.1 379.6 60 384.6 60C389.5 60 393.6 64 393.6 69C393.6 74 389.5 78 384.6 78Z" fill="#D9ECFA"/>
<path fill-rule="evenodd" clip-rule="evenodd" d="M382.175 63.4643C382.471 63.1744 382.946 63.1792 383.236 63.4751L388.136 68.4751C388.424 68.7688 388.421 69.2395 388.131 69.5303L383.231 74.4303C382.938 74.7232 382.463 74.7232 382.17 74.4303C381.877 74.1374 381.877 73.6626 382.17 73.3697L386.545 68.9947L382.165 64.5249C381.875 64.2291 381.879 63.7543 382.175 63.4643Z" fill="#005CA9"/>
<path d="M150.583 32.7463H148.505V31.9446C147.971 32.5445 147.267 32.8444 146.395 32.8444C145.5 32.8444 144.808 32.5881 144.317 32.0755C143.946 31.6938 143.706 31.2194 143.597 30.6522C143.488 30.0851 143.434 29.3598 143.434 28.4764C143.434 27.6039 143.488 26.884 143.597 26.3169C143.706 25.7498 143.946 25.2753 144.317 24.8936C144.808 24.381 145.495 24.1247 146.378 24.1247C147.251 24.1247 147.943 24.4083 148.456 24.9754V21.0981H150.583V32.7463ZM148.456 28.4764C148.456 27.6802 148.358 27.0749 148.162 26.6604C147.976 26.246 147.589 26.0388 147 26.0388C146.695 26.0388 146.438 26.0988 146.231 26.2187C146.035 26.3387 145.888 26.5187 145.789 26.7586C145.702 26.9985 145.642 27.2494 145.609 27.5111C145.577 27.762 145.56 28.0837 145.56 28.4764C145.56 28.869 145.577 29.1962 145.609 29.458C145.642 29.7088 145.702 29.9597 145.789 30.2105C145.888 30.4504 146.035 30.6304 146.231 30.7504C146.438 30.8703 146.695 30.9303 147 30.9303C147.305 30.9303 147.556 30.8703 147.753 30.7504C147.96 30.6304 148.112 30.4504 148.211 30.2105C148.309 29.9706 148.374 29.7197 148.407 29.458C148.44 29.1853 148.456 28.8581 148.456 28.4764Z" fill="#E2001A"/>
<path d="M141.765 32.7463H134.682V30.8322L139.033 25.777C139.437 25.2972 139.639 24.8282 139.639 24.3701C139.639 23.9338 139.513 23.5848 139.262 23.3231C139.022 23.0504 138.679 22.9141 138.232 22.9141C137.828 22.9141 137.49 23.0341 137.217 23.274C136.945 23.503 136.808 23.8793 136.808 24.4028H134.682C134.682 23.3667 135.014 22.5433 135.68 21.9325C136.356 21.3108 137.206 21 138.232 21C139.279 21 140.129 21.3054 140.784 21.9161C141.438 22.5269 141.765 23.3503 141.765 24.3865C141.765 24.91 141.673 25.3517 141.487 25.7116C141.302 26.0715 140.98 26.5187 140.522 27.0531L137.266 30.8322H141.765V32.7463Z" fill="#E2001A"/>
<path d="M133.21 31.0939H132.146V32.7463H130.101V31.0939H125.341V29.0817L129.333 21.0981H131.656L127.664 29.0817H130.101V26.9058H132.146V29.0817H133.21V31.0939Z" fill="#E2001A"/>
<path d="M120.536 23.1267H117.493V32.7463H115.219V23.1267H112.176V21.0981H120.536V23.1267Z" fill="#E2001A"/>
<path d="M110.334 32.7463H108.06V27.8711H104.118V32.7463H101.844V21.0981H104.118V25.8588H108.06V21.0981H110.334V32.7463Z" fill="#E2001A"/>
<path d="M426.803 24.9264L425.2 26.546C424.862 26.2079 424.486 26.0388 424.071 26.0388C423.711 26.0388 423.39 26.1752 423.106 26.4478C422.833 26.7205 422.697 27.1077 422.697 27.6094V32.7463H420.57V24.2229H422.648V25.0409C422.866 24.7791 423.166 24.561 423.548 24.3865C423.94 24.212 424.355 24.1248 424.791 24.1248C425.598 24.1248 426.269 24.392 426.803 24.9264Z" fill="#E2001A"/>
<path d="M418.609 29.1472H413.276C413.276 29.7143 413.439 30.1724 413.766 30.5214C414.094 30.8704 414.552 31.0449 415.141 31.0449C415.577 31.0449 415.931 30.9849 416.204 30.865C416.488 30.7341 416.777 30.5269 417.071 30.2433L418.364 31.503C417.905 31.972 417.431 32.3155 416.94 32.5336C416.46 32.7409 415.855 32.8445 415.124 32.8445C414.579 32.8445 414.083 32.779 413.636 32.6482C413.199 32.5064 412.79 32.2773 412.409 31.9611C412.027 31.6448 411.727 31.1922 411.509 30.6032C411.291 30.0143 411.182 29.3053 411.182 28.4764C411.182 27.1131 411.52 26.0497 412.196 25.2863C412.872 24.5119 413.772 24.1248 414.895 24.1248C416.062 24.1248 416.973 24.5065 417.627 25.2699C418.282 26.0225 418.609 27.015 418.609 28.2474V29.1472ZM416.515 27.6912C416.504 27.3204 416.439 27.015 416.319 26.775C416.057 26.1861 415.582 25.8916 414.895 25.8916C414.208 25.8916 413.734 26.1861 413.472 26.775C413.352 27.015 413.287 27.3204 413.276 27.6912H416.515Z" fill="#E2001A"/>
<path d="M409.764 32.7463H408.603C407.795 32.7463 407.179 32.5063 406.754 32.0264C406.339 31.5465 406.132 30.974 406.132 30.3087V26.0879H405.232V24.4682H406.132V21.9489H408.259V24.4682H409.764V26.0879H408.259V30.1778C408.259 30.6904 408.504 30.9467 408.995 30.9467H409.764V32.7463Z" fill="#E2001A"/>
<path d="M404.724 24.9264L403.121 26.546C402.783 26.2079 402.407 26.0388 401.992 26.0388C401.632 26.0388 401.311 26.1752 401.027 26.4478C400.754 26.7205 400.618 27.1077 400.618 27.6094V32.7463H398.491V24.2229H400.569V25.0409C400.787 24.7791 401.087 24.561 401.469 24.3865C401.861 24.212 402.276 24.1248 402.712 24.1248C403.519 24.1248 404.19 24.392 404.724 24.9264Z" fill="#E2001A"/>
<path d="M396.198 32.7463H394.12V32.0101C393.825 32.3046 393.52 32.5173 393.204 32.6482C392.898 32.7681 392.506 32.8281 392.026 32.8281C391.077 32.8281 390.352 32.5773 389.85 32.0756C389.381 31.5848 389.146 30.9468 389.146 30.1615C389.146 29.4417 389.397 28.8527 389.899 28.3946C390.401 27.9257 391.131 27.6912 392.091 27.6912H394.071V27.2658C394.071 26.7968 393.945 26.4587 393.694 26.2515C393.444 26.0334 393.04 25.9243 392.484 25.9243C391.819 25.9243 391.273 26.1697 390.848 26.6605L389.506 25.3354C389.921 24.8773 390.352 24.561 390.799 24.3865C391.257 24.212 391.846 24.1248 392.566 24.1248C394.987 24.1248 396.198 25.1282 396.198 27.1349V32.7463ZM394.071 29.6053V29.1472H392.451C391.611 29.1472 391.191 29.4744 391.191 30.1288C391.191 30.7723 391.622 31.094 392.484 31.094C393.04 31.094 393.46 30.9577 393.744 30.685C393.962 30.4996 394.071 30.1397 394.071 29.6053Z" fill="#E2001A"/>
<path d="M387.909 32.7463H386.747C385.94 32.7463 385.324 32.5063 384.898 32.0264C384.484 31.5465 384.277 30.974 384.277 30.3087V26.0879H383.377V24.4682H384.277V21.9489H386.403V24.4682H387.909V26.0879H386.403V30.1778C386.403 30.6904 386.649 30.9467 387.14 30.9467H387.909V32.7463Z" fill="#E2001A"/>
<path d="M382.104 29.3107C382.104 30.4123 381.7 31.2794 380.893 31.9119C380.086 32.5336 379.05 32.8444 377.785 32.8444C376.858 32.8444 376.056 32.7299 375.38 32.5009C374.704 32.2609 374.087 31.8628 373.531 31.3066L375.004 29.8342C375.658 30.4886 376.591 30.8158 377.801 30.8158C378.477 30.8158 378.99 30.6904 379.339 30.4396C379.699 30.1887 379.879 29.8288 379.879 29.3598C379.879 28.9563 379.759 28.6345 379.519 28.3946C379.312 28.1983 378.963 28.0674 378.472 28.002L377.081 27.7893C376.1 27.6475 375.347 27.3258 374.824 26.8241C374.267 26.2787 373.989 25.5153 373.989 24.5337C373.989 23.4758 374.355 22.6251 375.085 21.9816C375.816 21.3272 376.803 21 378.047 21C379.617 21 380.871 21.4526 381.809 22.3579L380.37 23.7812C379.824 23.2467 379.028 22.9795 377.981 22.9795C377.403 22.9795 376.961 23.1213 376.656 23.4049C376.351 23.6775 376.198 24.0265 376.198 24.4519C376.198 24.8009 376.307 25.079 376.525 25.2862C376.776 25.5153 377.13 25.6625 377.588 25.728L378.979 25.9406C379.972 26.0824 380.713 26.3878 381.204 26.8568C381.804 27.413 382.104 28.231 382.104 29.3107Z" fill="#E2001A"/>
<path d="M452.2 16.8001C452.1 16.7001 452.2 16.7001 452.2 16.8001L452 16.6001C452 16.6001 451.9 16.5001 451.8 16.5001C451.8 16.5001 451.7 16.5001 451.8 16.4001H451.9C451.9 16.4001 451.8 16.4001 451.8 16.3001C451.8 16.3001 451.8 16.3001 451.7 16.3001H451.8C451.8 16.3001 451.7 16.3001 451.7 16.2001C451.8 16.2001 451.8 16.2001 451.9 16.2001C451.8 16.2001 451.8 16.1001 451.8 16.1001H451.7C451.8 16.1001 451.8 16.1001 451.9 16.1001C451.9 16.1001 451.8 16.1001 451.8 16.0001C451.9 16.0001 451.9 16.0001 452 16.1001C451.9 16.0001 451.8 16.0001 451.7 16.0001H451.8C451.7 16.0001 451.7 16.0001 451.6 16.0001H451.7C451.6 16.0001 451.5 15.9001 451.4 15.8001C451.4 15.8001 451.4 15.8001 451.5 15.9001C451.5 15.9001 451.4 15.7001 451.5 15.7001C451.5 15.5001 451.3 15.3001 451.3 15.1001C451.3 15.0001 451.3 15.0001 451.3 14.9001C451.3 14.9001 451.4 14.9001 451.4 15.0001L451.3 14.9001C451.2 14.8001 451.3 14.7001 451.3 14.6001C451.3 14.5001 451.4 14.4001 451.4 14.3001C451.5 14.0001 451.5 13.7001 451.4 13.4001C451.4 13.3001 450.7 13.0001 450.1 13.1001C449.8 13.0001 449.6 13.0001 449.5 13.0001C449.4 13.0001 449.4 13.1001 449.3 13.1001C449.3 13.1001 449.2 13.1001 449.2 13.2001L449.1 13.3001C449.1 13.3001 449.1 13.3001 449.1 13.2001C449.1 13.3001 449.1 13.3001 449.1 13.4001L449 13.5001C449 13.6001 448.7 13.7001 448.7 13.7001C448.6 13.7001 448.4 13.7001 448.3 13.7001H448.2C448.1 13.7001 448.1 13.7001 448 13.6001H448.1C448 13.6001 448 13.6001 447.9 13.6001C447.8 13.6001 447.6 13.6001 447.5 13.5001V13.6001H447.4H447.3C447.3 13.6001 447.3 13.6001 447.2 13.6001H447.1C447 13.6001 447 13.6001 446.9 13.6001C446.8 13.6001 446.7 13.6001 446.6 13.7001C446.5 13.8001 445.9 14.0001 445.6 14.2001C445.3 14.4001 444.8 14.8001 444.8 14.9001C444.8 15.1001 445 15.2001 445 15.4001C445 15.5001 445.1 15.6001 445.2 15.6001C445.3 15.7001 445.4 15.8001 445.4 15.9001C445.5 15.9001 445.6 16.0001 445.6 16.0001C445.6 16.0001 445.6 16.1001 445.5 16.1001C445.5 16.1001 445.6 16.1001 445.7 16.1001C445.7 16.1001 445.6 16.1001 445.6 16.2001H445.7C445.6 16.2001 445.6 16.3001 445.5 16.3001C445.6 16.2001 445.7 16.2001 445.8 16.2001V16.3001C445.8 16.3001 445.9 16.2001 446 16.2001C445.9 16.3001 445.9 16.4001 445.9 16.6001C445.9 16.5001 446 16.4001 446.1 16.4001C446 16.5001 446 16.6001 446 16.7001C446 16.6001 446.1 16.6001 446.2 16.5001C446.2 16.6001 446.1 16.6001 446.1 16.7001C446 16.7001 446.1 17.0001 446.1 17.0001C446.1 17.2001 445.9 17.3001 445.9 17.5001H446C445.9 17.5001 445.9 17.9001 445.9 18.0001C446 18.2001 446 18.3001 445.9 18.5001C445.7 18.8001 445.4 19.1001 445.2 19.5001C445.3 19.4001 445.3 19.4001 445.4 19.3001C445.3 19.5001 445.2 19.6001 445.1 19.8001C445.1 19.8001 445.1 19.8001 445.2 19.7001L444.9 20.2001C444.8 20.3001 444.8 20.4001 444.7 20.5001C444.3 21.0001 443.6 21.3001 443 21.7001C442.4 22.1001 441.7 22.6001 441.1 23.1001C441 23.2001 440.9 23.2001 440.9 23.3001C440.7 23.4001 440.4 23.6001 440.4 23.7001C440.3 23.9001 439.4 24.6001 439.3 24.8001C439.2 25.0001 438.1 26.3001 437.9 26.4001C437.7 26.5001 437.2 27.7001 437.2 28.0001C437.2 28.0001 436 30.2001 435 30.8001C434 31.3001 433 31.8001 432.2 32.3001C431.4 32.8001 431.8 33.5001 432.4 33.3001C433 33.2001 433.8 33.3001 434.1 33.0001C434.4 32.7001 435.1 32.5001 435.5 32.3001C435.9 32.2001 436.4 32.3001 436.7 32.0001L436.8 32.1001C436.9 32.5001 437 32.7001 437.2 32.7001C437.4 32.7001 440.6 33.1001 440.8 33.1001C441 33.1001 441.5 33.1001 441.6 33.1001C441.7 33.1001 441.9 33.1001 441.9 33.1001C441.9 33.1001 441.9 33.0001 442.1 32.9001C442.2 32.8001 442.4 32.8001 442.4 32.7001C442.4 32.6001 442.4 32.5001 442.4 32.5001C442.4 32.5001 445 32.5001 445.1 32.5001C445.2 32.5001 445.3 32.4001 445.4 32.4001C445.5 32.3001 445.6 32.5001 445.8 32.2001L446 32.0001C446 32.0001 446.2 31.9001 446.2 31.8001C446.2 31.8001 446 31.4001 445.7 31.3001C445.4 31.2001 444.9 31.2001 444.7 31.2001C444.3 31.2001 443.8 31.4001 443.4 31.3001C443.5 31.2001 443.7 31.1001 443.8 31.0001C443.9 30.9001 444.3 30.8001 444.3 30.6001C444.3 30.7001 444.3 30.7001 444.3 30.8001C444.4 30.7001 444.6 30.6001 444.7 30.4001C444.7 30.5001 444.7 30.6001 444.6 30.7001C444.8 30.6001 445 30.4001 445.1 30.3001V30.5001C445.2 30.4001 445.3 30.3001 445.4 30.1001C445.3 30.2001 445.3 30.4001 445.3 30.6001C445.4 30.4001 445.7 29.9001 445.9 30.2001C446 30.3001 446 30.6001 445.8 30.7001C445.9 30.7001 446 30.6001 446.1 30.5001L446 30.7001H446.1C446.1 30.8001 446.1 30.8001 446 30.9001C446.1 30.9001 446.3 30.9001 446.3 31.1001C446.4 31.2001 446.4 31.4001 446.4 31.5001C446.4 31.7001 446.4 31.9001 446.4 32.1001L446.5 31.9001C446.5 32.0001 446.5 32.1001 446.5 32.3001L446.6 32.2001C446.6 32.5001 446.8 33.2001 447.1 33.3001C447.3 33.3001 447.7 33.3001 447.7 33.3001C447.7 33.3001 448.2 33.4001 448.4 33.4001H448.6C448.6 33.4001 448.7 33.5001 448.8 33.4001C448.8 33.4001 448.9 33.4001 449 33.4001C449.1 33.4001 449.1 33.4001 449.1 33.4001C449.1 33.4001 449.2 33.5001 449.2 33.4001C449.2 33.3001 449.3 33.2001 449.2 33.1001C449.1 33.0001 449.2 32.8001 448.9 32.6001C448.7 32.4001 448.4 32.2001 448.4 32.1001C448.4 32.0001 448 31.7001 448 31.4001C448 31.1001 448.1 31.0001 448 30.7001C447.9 30.4001 447.8 30.1001 447.8 29.8001C447.8 29.5001 447.8 29.5001 447.8 29.3001C447.8 29.1001 447.7 29.1001 447.8 28.8001C447.9 28.5001 448 28.3001 448.3 28.1001C448.3 28.2001 448.2 28.3001 448.2 28.4001C448.3 28.2001 448.5 27.9001 448.7 27.7001C448.7 28.0001 448.8 28.4001 448.8 28.7001C448.8 28.9001 448.9 29.5001 448.8 29.7001C448.9 29.6001 448.9 29.5001 449 29.4001C449 29.5001 449 29.7001 449 29.8001L449.1 29.7001C449.1 29.8001 449 30.0001 449 30.1001C449 30.1001 449.1 30.1001 449.1 30.0001C449.1 30.1001 449.1 30.2001 449.1 30.3001H449.2C449.2 30.3001 449.3 30.9001 449.3 31.0001C449.3 31.3001 449.4 31.7001 449.3 31.9001C449.3 31.8001 449.4 31.7001 449.4 31.6001C449.4 31.7001 449.4 31.8001 449.4 32.0001L449.5 31.9001C449.5 32.0001 449.5 32.0001 449.5 32.1001C449.5 32.0001 449.7 32.1001 449.8 32.1001C449.9 32.2001 450 32.3001 450 32.4001C450.1 32.7001 450.1 33.0001 450.1 33.0001C450.1 33.1001 450.4 33.1001 450.5 33.1001C450.6 33.1001 451.1 33.1001 451.2 33.1001C451.3 33.1001 451.4 33.1001 451.6 33.1001L451.8 33.2001C451.9 33.1001 452 33.1001 452.1 33.1001C452.2 33.1001 452.2 33.0001 452.1 33.0001C452.1 32.9001 452 32.8001 451.9 32.7001C451.8 32.6001 451.5 32.2001 451.4 32.1001C451.2 31.9001 450.9 31.4001 450.8 31.2001C450.8 31.0001 450.7 29.9001 450.6 29.5001C450.6 29.1001 450.4 28.6001 450.4 28.4001C450.4 28.2001 450.3 27.1001 450.3 26.7001C450.4 26.3001 450.6 25.6001 450.8 25.2001C450.9 25.0001 450.9 24.8001 450.9 24.6001V24.7001C450.9 24.6001 450.9 24.5001 450.9 24.4001C450.9 24.5001 451 24.6001 451 24.6001C451 24.3001 450.9 23.9001 450.9 23.6001C451 23.6001 451 23.7001 451 23.7001C451 23.4001 451 23.2001 450.9 22.9001C450.8 22.5001 450.7 22.1001 450.7 21.7001C450.7 21.6001 450.7 21.5001 450.7 21.4001C450.7 21.3001 450.7 21.2001 450.7 21.1001C450.6 20.8001 450.4 20.1001 450.6 19.8001C450.7 19.8001 450.7 20.0001 450.7 20.0001C450.6 19.7001 450.5 19.4001 450.6 19.1001C450.6 19.0001 450.6 19.0001 450.7 19.0001V19.1001L450.8 19.0001C450.8 19.1001 450.8 19.1001 450.8 19.2001C450.9 19.2001 450.9 19.1001 451 19.1001C451 19.1001 451.1 19.1001 451.1 19.0001C451.1 19.1001 451.1 19.1001 451.1 19.2001C451.1 19.1001 451.2 19.0001 451.2 19.0001C451.2 19.0001 451.4 18.9001 451.3 18.9001C451.3 18.9001 451.3 18.8001 451.4 18.8001C451.4 18.8001 451.4 18.8001 451.4 18.7001C451.4 18.7001 451.5 18.7001 451.5 18.8001V18.7001C451.5 18.7001 451.5 18.7001 451.6 18.7001C451.6 18.7001 451.6 18.7001 451.6 18.6001C451.6 18.6001 451.6 18.6001 451.6 18.7001V18.6001L451.7 18.7001C451.7 18.7001 451.7 18.7001 451.7 18.6001C451.7 18.6001 451.7 18.6001 451.7 18.7001V18.6001C451.7 18.6001 451.7 18.7001 451.8 18.7001C451.8 18.7001 451.8 18.7001 451.8 18.8001C451.8 18.8001 451.8 18.8001 451.8 18.9001C451.8 18.8001 451.8 18.6001 451.7 18.5001V18.4001C451.7 18.4001 451.7 18.4001 451.8 18.4001V18.5001C451.8 18.4001 451.8 18.4001 451.7 18.3001C451.8 18.3001 451.8 18.4001 451.9 18.4001V18.3001C451.9 18.3001 451.9 18.2001 451.8 18.2001V18.1001L451.9 18.2001C451.9 18.1001 451.8 18.0001 451.8 18.0001C451.9 18.0001 451.9 18.1001 452 18.2001C452 18.0001 451.9 17.9001 451.8 17.7001C451.9 17.7001 451.9 17.8001 452 17.8001C452 17.7001 452 17.7001 451.9 17.6001C451.9 17.6001 451.9 17.5001 451.8 17.5001C451.8 17.5001 451.8 17.5001 451.7 17.4001C451.7 17.4001 451.7 17.4001 451.7 17.3001C451.8 17.3001 451.8 17.4001 451.9 17.4001C451.9 17.3001 451.8 17.2001 451.7 17.2001H451.8C451.8 17.2001 451.8 17.1001 451.7 17.1001C452 16.7001 452.1 16.7001 452.2 16.8001V16.9001C452.2 16.9001 452.2 16.9001 452.2 17.0001C452.3 16.9001 452.2 16.8001 452.2 16.8001Z" fill="#005CA9"/>
<path d="M177.8 16.8001C177.7 16.8001 177.7 16.8001 177.8 16.8001L177.6 16.6001C177.6 16.6001 177.5 16.5001 177.4 16.5001C177.4 16.5001 177.3 16.5001 177.4 16.4001H177.5C177.5 16.4001 177.4 16.4001 177.4 16.3001C177.4 16.3001 177.4 16.3001 177.3 16.3001H177.4C177.4 16.3001 177.3 16.3001 177.3 16.2001C177.4 16.2001 177.4 16.2001 177.5 16.2001C177.4 16.2001 177.4 16.1001 177.4 16.1001H177.3C177.4 16.1001 177.4 16.1001 177.5 16.1001C177.5 16.1001 177.4 16.1001 177.4 16.0001C177.5 16.0001 177.5 16.0001 177.6 16.1001C177.5 16.0001 177.4 16.0001 177.3 16.0001H177.4C177.3 16.0001 177.3 16.0001 177.2 16.0001H177.3C177.2 16.0001 177.1 15.9001 177 15.8001C177 15.8001 177 15.8001 177.1 15.9001C177.1 15.9001 177 15.7001 177.1 15.7001C177.1 15.5001 176.9 15.3001 176.9 15.1001C176.9 15.0001 176.9 15.0001 176.9 14.9001C176.9 14.9001 177 14.9001 177 15.0001L176.9 14.9001C176.8 14.8001 176.9 14.7001 176.9 14.6001C176.9 14.5001 177 14.4001 177 14.3001C177.1 14.0001 177.1 13.7001 177 13.4001C177 13.3001 176.3 13.0001 175.7 13.1001C175.4 13.0001 175.2 13.0001 175.1 13.0001C175 13.0001 175 13.1001 174.9 13.1001C174.9 13.1001 174.8 13.1001 174.8 13.2001L174.7 13.3001C174.7 13.3001 174.7 13.3001 174.7 13.2001C174.7 13.3001 174.7 13.3001 174.7 13.4001L174.6 13.5001C174.6 13.6001 174.3 13.7001 174.3 13.7001C174.2 13.7001 174 13.7001 173.9 13.7001H173.8C173.7 13.7001 173.7 13.7001 173.6 13.6001H173.7C173.6 13.6001 173.6 13.6001 173.5 13.6001C173.4 13.6001 173.2 13.6001 173.1 13.5001V13.6001H173H172.9C172.9 13.6001 172.9 13.6001 172.8 13.6001H172.7C172.6 13.6001 172.6 13.6001 172.5 13.6001C172.4 13.6001 172.3 13.6001 172.2 13.7001C172.1 13.8001 171.5 14.0001 171.2 14.2001C170.9 14.4001 170.4 14.8001 170.4 14.9001C170.4 15.1001 170.6 15.2001 170.6 15.4001C170.6 15.5001 170.7 15.6001 170.8 15.6001C170.9 15.7001 171 15.8001 171 15.9001C171.1 15.9001 171.2 16.0001 171.2 16.0001C171.2 16.0001 171.2 16.1001 171.1 16.1001C171.1 16.1001 171.2 16.1001 171.3 16.1001C171.3 16.1001 171.2 16.1001 171.2 16.2001H171.3C171.2 16.2001 171.2 16.3001 171.1 16.3001C171.2 16.2001 171.3 16.2001 171.4 16.2001V16.3001C171.4 16.3001 171.5 16.2001 171.6 16.2001C171.5 16.3001 171.5 16.4001 171.5 16.6001C171.5 16.5001 171.6 16.4001 171.7 16.4001C171.6 16.5001 171.6 16.6001 171.6 16.7001C171.6 16.6001 171.7 16.6001 171.8 16.5001C171.8 16.6001 171.7 16.6001 171.7 16.7001C171.6 16.7001 171.7 17.0001 171.7 17.0001C171.7 17.2001 171.5 17.3001 171.5 17.5001H171.6C171.5 17.5001 171.5 17.9001 171.5 18.0001C171.6 18.2001 171.6 18.3001 171.5 18.5001C171.3 18.8001 171 19.1001 170.8 19.5001C170.9 19.4001 170.9 19.4001 171 19.3001C170.9 19.5001 170.8 19.6001 170.7 19.8001C170.7 19.8001 170.7 19.8001 170.8 19.7001L170.5 20.2001C170.4 20.3001 170.4 20.4001 170.3 20.5001C169.9 21.0001 169.2 21.3001 168.6 21.7001C168 22.1001 167.3 22.6001 166.7 23.1001C166.6 23.2001 166.5 23.2001 166.5 23.3001C166.3 23.4001 166 23.6001 166 23.7001C165.9 23.9001 165 24.6001 164.9 24.8001C164.8 25.0001 163.7 26.3001 163.5 26.4001C163.3 26.5001 162.8 27.7001 162.8 28.0001C162.8 28.0001 161.6 30.2001 160.6 30.8001C159.6 31.3001 158.6 31.8001 157.8 32.3001C157 32.8001 157.4 33.5001 158 33.3001C158.6 33.2001 159.4 33.3001 159.7 33.0001C160 32.7001 160.7 32.5001 161.1 32.3001C161.5 32.2001 162 32.3001 162.3 32.0001L162.4 32.1001C162.5 32.5001 162.6 32.7001 162.8 32.7001C163 32.7001 166.2 33.1001 166.4 33.1001C166.6 33.1001 167.1 33.1001 167.2 33.1001C167.3 33.1001 167.5 33.1001 167.5 33.1001C167.5 33.1001 167.5 33.0001 167.7 32.9001C167.8 32.8001 168 32.8001 168 32.7001C168 32.6001 168 32.5001 168 32.5001C168 32.5001 170.6 32.5001 170.7 32.5001C170.8 32.5001 170.9 32.4001 171 32.4001C171.1 32.3001 171.2 32.5001 171.4 32.2001L171.6 32.0001C171.6 32.0001 171.8 31.9001 171.8 31.8001C171.8 31.8001 171.6 31.4001 171.3 31.3001C171 31.2001 170.5 31.2001 170.3 31.2001C169.9 31.2001 169.4 31.4001 169 31.3001C169.1 31.2001 169.3 31.1001 169.4 31.0001C169.5 30.9001 169.9 30.8001 169.9 30.6001C169.9 30.7001 169.9 30.7001 169.9 30.8001C170 30.7001 170.2 30.6001 170.3 30.4001C170.3 30.5001 170.3 30.6001 170.2 30.7001C170.4 30.6001 170.6 30.4001 170.7 30.3001V30.5001C170.8 30.4001 170.9 30.3001 171 30.1001C170.9 30.2001 170.9 30.4001 170.9 30.6001C171 30.4001 171.3 29.9001 171.5 30.2001C171.6 30.3001 171.6 30.6001 171.4 30.7001C171.5 30.7001 171.6 30.6001 171.7 30.5001L171.6 30.7001H171.7C171.7 30.8001 171.7 30.8001 171.6 30.9001C171.7 30.9001 171.9 30.9001 171.9 31.1001C172 31.2001 172 31.4001 172 31.5001C172 31.7001 172 31.9001 172 32.1001L172.1 31.9001C172.1 32.0001 172.1 32.1001 172.1 32.3001L172.2 32.2001C172.2 32.5001 172.4 33.2001 172.7 33.3001C172.9 33.3001 173.3 33.3001 173.3 33.3001C173.3 33.3001 173.8 33.4001 174 33.4001H174.2C174.2 33.4001 174.3 33.5001 174.4 33.4001C174.4 33.4001 174.5 33.4001 174.6 33.4001C174.7 33.4001 174.7 33.4001 174.7 33.4001C174.7 33.4001 174.8 33.5001 174.8 33.4001C174.8 33.3001 174.9 33.2001 174.8 33.1001C174.7 33.0001 174.8 32.8001 174.5 32.6001C174.3 32.4001 174 32.2001 174 32.1001C174 32.0001 173.6 31.7001 173.6 31.4001C173.6 31.1001 173.7 31.0001 173.6 30.7001C173.5 30.4001 173.4 30.1001 173.4 29.8001C173.4 29.5001 173.4 29.5001 173.4 29.3001C173.4 29.1001 173.3 29.1001 173.4 28.8001C173.5 28.5001 173.6 28.3001 173.9 28.1001C173.9 28.2001 173.8 28.3001 173.8 28.4001C173.9 28.2001 174.1 27.9001 174.3 27.7001C174.3 28.0001 174.4 28.4001 174.4 28.7001C174.4 28.9001 174.5 29.5001 174.4 29.7001C174.5 29.6001 174.5 29.5001 174.6 29.4001C174.6 29.5001 174.6 29.7001 174.6 29.8001L174.7 29.7001C174.7 29.8001 174.6 30.0001 174.6 30.1001C174.6 30.1001 174.7 30.1001 174.7 30.0001C174.7 30.1001 174.7 30.2001 174.7 30.3001H174.8C174.8 30.3001 174.9 30.9001 174.9 31.0001C174.9 31.3001 175 31.7001 174.9 31.9001C174.9 31.8001 175 31.7001 175 31.6001C175 31.7001 175 31.8001 175 32.0001L175.1 31.9001C175.1 32.0001 175.1 32.0001 175.1 32.1001C175.1 32.0001 175.3 32.1001 175.4 32.1001C175.5 32.2001 175.6 32.3001 175.6 32.4001C175.7 32.7001 175.7 33.0001 175.7 33.0001C175.7 33.1001 176 33.1001 176.1 33.1001C176.2 33.1001 176.7 33.1001 176.8 33.1001C176.9 33.1001 177 33.1001 177.2 33.1001L177.4 33.2001C177.5 33.1001 177.6 33.1001 177.7 33.1001C177.8 33.1001 177.8 33.0001 177.7 33.0001C177.7 32.9001 177.6 32.8001 177.5 32.7001C177.4 32.6001 177.1 32.2001 177 32.1001C176.8 31.9001 176.5 31.4001 176.4 31.2001C176.4 31.0001 176.3 29.9001 176.2 29.5001C176.2 29.1001 176 28.6001 176 28.4001C176 28.2001 175.9 27.1001 175.9 26.7001C176 26.3001 176.2 25.6001 176.4 25.2001C176.5 25.0001 176.5 24.8001 176.5 24.6001V24.7001C176.5 24.6001 176.5 24.5001 176.5 24.4001C176.5 24.5001 176.6 24.6001 176.6 24.6001C176.6 24.3001 176.5 23.9001 176.5 23.6001C176.6 23.6001 176.6 23.7001 176.6 23.7001C176.6 23.4001 176.6 23.2001 176.5 22.9001C176.4 22.5001 176.3 22.1001 176.3 21.7001C176.3 21.6001 176.3 21.5001 176.3 21.4001C176.3 21.3001 176.3 21.2001 176.3 21.1001C176.2 20.8001 176 20.1001 176.2 19.8001C176.3 19.8001 176.3 20.0001 176.3 20.0001C176.2 19.7001 176.1 19.4001 176.2 19.1001C176.2 19.0001 176.2 19.0001 176.3 19.0001V19.1001L176.4 19.0001C176.4 19.1001 176.4 19.1001 176.4 19.2001C176.5 19.2001 176.5 19.1001 176.6 19.1001C176.6 19.1001 176.7 19.1001 176.7 19.0001C176.7 19.1001 176.7 19.1001 176.7 19.2001C176.7 19.1001 176.8 19.0001 176.8 19.0001C176.8 19.0001 177 18.9001 176.9 18.9001C176.9 18.9001 176.9 18.8001 177 18.8001C177 18.8001 177 18.8001 177 18.7001C177 18.7001 177.1 18.7001 177.1 18.8001V18.7001C177.1 18.7001 177.1 18.7001 177.2 18.7001C177.2 18.7001 177.2 18.7001 177.2 18.6001C177.2 18.6001 177.2 18.6001 177.2 18.7001V18.6001L177.3 18.7001C177.3 18.7001 177.3 18.7001 177.3 18.6001C177.3 18.6001 177.3 18.6001 177.3 18.7001V18.6001C177.3 18.6001 177.3 18.7001 177.4 18.7001C177.4 18.7001 177.4 18.7001 177.4 18.8001C177.4 18.8001 177.4 18.8001 177.4 18.9001C177.4 18.8001 177.4 18.6001 177.3 18.5001V18.4001C177.3 18.4001 177.3 18.4001 177.4 18.4001V18.5001C177.4 18.4001 177.4 18.4001 177.3 18.3001C177.4 18.3001 177.4 18.4001 177.5 18.4001V18.3001C177.5 18.3001 177.5 18.2001 177.4 18.2001V18.1001L177.5 18.2001C177.5 18.1001 177.4 18.0001 177.4 18.0001C177.5 18.0001 177.5 18.1001 177.6 18.2001C177.6 18.0001 177.5 17.9001 177.4 17.7001C177.5 17.7001 177.5 17.8001 177.6 17.8001C177.6 17.7001 177.6 17.7001 177.5 17.6001C177.5 17.6001 177.5 17.5001 177.4 17.5001C177.4 17.5001 177.4 17.5001 177.3 17.4001C177.3 17.4001 177.3 17.4001 177.3 17.3001C177.4 17.3001 177.4 17.4001 177.5 17.4001C177.5 17.3001 177.4 17.2001 177.3 17.2001H177.4C177.4 17.2001 177.4 17.1001 177.3 17.1001C177.6 16.8001 177.7 16.8001 177.8 16.8001V16.9001C177.8 16.9001 177.8 16.9001 177.8 17.0001C177.8 16.9001 177.8 16.9001 177.8 16.8001Z" fill="#005CA9"/>
<path d="M465.5 28.3446C465.5 28.2446 465.5 28.2446 465.4 28.1446L465.3 28.0446C465.3 28.0446 465.3 27.9446 465.2 27.9446L465.1 27.8446V27.7446V27.6446C465.1 27.6446 465.1 27.5446 465.2 27.5446V27.4446V27.3446C465.2 27.2446 465.2 27.2446 465.1 27.1446C465.1 27.0446 465 27.0446 465 26.9446C465 26.8446 464.9 26.8446 464.9 26.7446C464.9 26.7446 464.9 26.6446 464.8 26.6446L464.7 26.5446L464.6 26.4446L464.5 26.3446C464.5 26.3446 464.5 26.3446 464.4 26.2446C464.3 26.2446 464.3 26.1446 464.2 26.1446C464.2 26.1446 464.1 26.0446 464 26.0446H463.9H463.8H463.7H463.6C463.6 26.0446 463.6 26.0446 463.5 26.0446C463.4 26.0446 463.4 25.9446 463.3 26.0446H463.2C463.1 26.0446 463.1 26.0446 463 26.0446H462.9C462.9 26.0446 462.9 26.0446 462.8 26.0446C462.8 26.0446 462.8 26.0446 462.7 26.0446L462.6 26.1446C462.5 26.1446 462.5 26.1446 462.4 26.2446H462.3H462.2C462.2 26.2446 462.1 26.2446 462.1 26.3446C462.1 26.3446 462.1 26.3446 462 26.3446C462 26.3446 462 26.3446 461.9 26.3446C461.9 26.3446 461.8 26.3446 461.8 26.4446C461.8 26.4446 461.8 26.4446 461.7 26.4446L461.6 26.5446C461.6 26.5446 461.6 26.5446 461.5 26.5446C461.5 26.5446 461.5 26.5446 461.4 26.5446V26.6446C461.4 26.6446 461.4 26.6446 461.4 26.7446C461.4 26.7446 461.4 26.7446 461.4 26.8446V26.9446C461.4 26.9446 461.4 26.9446 461.5 27.0446C461.5 27.0446 461.5 27.0446 461.5 27.1446C461.6 27.2446 461.6 27.3446 461.5 27.4446C461.4 27.4446 461.4 27.4446 461.3 27.5446C461.2 27.5446 461.2 27.5446 461.2 27.5446C461.1 27.5446 461.1 27.5446 461 27.5446H460.9H460.8C460.7 27.5446 460.6 27.5446 460.6 27.5446C460.5 27.5446 460.4 27.5446 460.3 27.5446H460.2C460 27.5446 459.8 27.5446 459.5 27.5446C459.3 27.5446 459 27.5446 458.8 27.5446C458.7 27.5446 458.5 27.5446 458.4 27.5446C458.3 27.5446 458.3 27.5446 458.2 27.5446H458.1H458H457.9H457.8H457.7H457.6H457.5C457.5 27.5446 457.5 27.5446 457.4 27.5446C457.3 27.4446 457.2 27.4446 457.2 27.3446L457.1 27.2446C457.1 27.2446 457 27.2446 457 27.1446L456.9 27.0446C456.9 27.0446 456.9 27.0446 456.9 26.9446C456.9 26.9446 456.9 26.9446 456.9 26.8446C456.9 26.7446 456.8 26.6446 456.8 26.5446C456.8 26.4446 456.8 26.4446 456.7 26.3446V26.2446C456.7 26.2446 456.7 26.2446 456.7 26.1446V26.0446H456.6C456.5 26.0446 456.5 26.1446 456.4 26.1446L456.3 26.2446C456.3 26.3446 456.2 26.3446 456.2 26.4446V26.5446C456.2 26.5446 456.2 26.5446 456.2 26.6446V26.7446C456.2 26.8446 456.2 26.9446 456.2 26.9446C456.2 27.0446 456.2 27.0446 456.2 27.1446C456.2 27.1446 456.2 27.1446 456.2 27.2446C456.2 27.2446 456.2 27.2446 456.2 27.3446C456.2 27.4446 456.3 27.5446 456.3 27.6446H456.2C456.2 27.7446 456.3 27.8446 456.3 27.8446C456.4 27.9446 456.4 27.9446 456.5 27.9446C456.4 27.9446 456.4 27.9446 456.3 27.9446C456.3 27.9446 456.3 27.9446 456.3 28.0446C456.3 28.0446 456.3 28.0446 456.4 28.1446C456.4 28.1446 456.4 28.1446 456.5 28.1446C456.5 28.1446 456.5 28.1446 456.6 28.2446C456.6 28.2446 456.6 28.2446 456.7 28.3446V28.4446V28.5446V28.6446V28.7446V28.8446C456.7 29.0446 456.6 29.1446 456.6 29.3446L456.7 29.2446C456.7 29.3446 456.7 29.4446 456.7 29.4446V29.5446C456.7 29.6446 456.7 29.6446 456.7 29.7446C456.7 29.8446 456.7 29.8446 456.7 29.9446V30.0446C456.7 30.0446 456.7 30.0446 456.7 30.1446C456.7 30.2446 456.7 30.2446 456.6 30.2446L456.5 30.3446C456.5 30.3446 456.4 30.3446 456.4 30.4446V30.5446V30.6446V30.7446C456.4 30.8446 456.4 30.9446 456.4 31.0446C456.4 31.1446 456.4 31.1446 456.4 31.1446V31.2446C456.4 31.2446 456.4 31.2446 456.5 31.2446C456.5 31.3446 456.5 31.3446 456.5 31.4446V31.5446V31.6446C456.5 31.7446 456.5 31.8446 456.5 31.8446V31.9446C456.5 32.0446 456.5 32.1446 456.5 32.1446C456.5 32.2446 456.5 32.2446 456.6 32.3446L456.7 32.4446C456.7 32.5446 456.8 32.5446 456.9 32.6446C457 32.6446 457 32.6446 457.1 32.6446H457.2H457.3C457.4 32.6446 457.5 32.6446 457.5 32.5446V32.4446V32.3446V32.2446C457.5 32.2446 457.5 32.2446 457.5 32.1446C457.5 32.0446 457.5 31.9446 457.5 31.9446C457.5 31.8446 457.4 31.8446 457.4 31.7446C457.4 31.7446 457.4 31.7446 457.4 31.6446V31.5446C457.4 31.4446 457.4 31.4446 457.4 31.3446C457.4 31.3446 457.4 31.3446 457.4 31.2446C457.4 31.1446 457.4 31.1446 457.4 31.0446C457.4 31.0446 457.4 31.0446 457.4 30.9446L457.5 30.8446L457.6 30.7446H457.7H457.8C457.8 30.8446 457.7 30.9446 457.7 31.0446C457.7 31.1446 457.7 31.1446 457.7 31.2446C457.7 31.3446 457.8 31.4446 457.8 31.5446V31.6446C457.8 31.6446 457.8 31.6446 457.8 31.7446C457.8 31.7446 457.8 31.7446 457.8 31.8446V31.9446C457.8 31.9446 457.8 32.0446 457.9 32.0446C457.9 32.0446 457.9 32.1446 458 32.1446V32.2446L458.1 32.3446C458.1 32.3446 458.2 32.3446 458.2 32.4446C458.2 32.5446 458.2 32.6446 458.3 32.6446H458.4C458.4 32.6446 458.4 32.6446 458.5 32.6446C458.6 32.6446 458.7 32.7446 458.8 32.6446H458.9C459 32.6446 459 32.6446 459.1 32.6446H459.2H459.3C459.3 32.6446 459.3 32.6446 459.4 32.6446H459.5V32.5446C459.5 32.5446 459.5 32.5446 459.5 32.4446V32.3446V32.2446C459.5 32.2446 459.5 32.1446 459.4 32.1446C459.4 32.1446 459.4 32.1446 459.3 32.1446H459.2H459.1H459C459 32.1446 458.9 32.1446 458.9 32.0446C458.9 32.0446 458.9 32.0446 458.9 31.9446L458.8 31.8446C458.8 31.7446 458.7 31.7446 458.7 31.6446C458.7 31.6446 458.7 31.6446 458.7 31.5446V31.4446C458.7 31.4446 458.7 31.4446 458.7 31.3446L458.8 31.2446C458.9 31.1446 458.9 31.1446 459 31.0446C459 31.0446 459 31.0446 459.1 31.0446C459.2 31.0446 459.2 31.0446 459.3 31.0446H459.4H459.5C459.5 31.0446 459.6 31.0446 459.7 31.0446H459.8H459.9C459.9 31.0446 459.9 31.0446 460 31.0446H460.1C460.2 31.1446 460.1 31.1446 460.1 31.2446C460.1 31.2446 460.1 31.2446 460.1 31.3446V31.4446C460.1 31.4446 460.1 31.5446 460 31.5446C460 31.5446 460 31.5446 459.9 31.6446H460V31.7446V31.8446V31.9446V32.0446C460 32.1446 460 32.2446 460 32.4446C460 32.5446 460 32.6446 460.1 32.6446C460.1 32.7446 460.1 32.7446 460.2 32.8446L460.3 32.9446H460.4C460.5 32.9446 460.5 32.9446 460.6 33.0446C460.7 33.0446 460.8 33.1446 460.9 33.0446C461 33.0446 461.1 33.0446 461.2 33.0446C461.2 33.0446 461.2 33.0446 461.3 33.0446C461.4 33.0446 461.4 33.0446 461.5 33.0446C461.6 33.0446 461.6 32.9446 461.6 32.8446C461.6 32.7446 461.6 32.7446 461.5 32.6446V32.5446V32.4446C461.5 32.4446 461.5 32.4446 461.4 32.3446C461.3 32.2446 461.3 32.3446 461.2 32.3446H461.1C461.1 32.3446 461.1 32.3446 461.1 32.2446V32.1446V32.0446C461.1 31.9446 461.1 31.9446 461.1 31.8446C461.2 31.6446 461.2 31.4446 461.3 31.2446V31.1446C461.3 31.1446 461.3 31.1446 461.4 31.1446C461.4 31.1446 461.4 31.1446 461.5 31.1446C461.5 31.1446 461.5 31.1446 461.6 31.1446H461.7H461.8V31.2446C461.8 31.2446 461.8 31.2446 461.9 31.2446L462 31.1446C462 31.1446 462 31.1446 462.1 31.1446C462.1 31.1446 462.1 31.1446 462.2 31.0446C462.2 31.0446 462.2 31.0446 462.3 31.0446C462.3 31.0446 462.3 31.0446 462.4 31.0446C462.4 31.0446 462.4 31.0446 462.4 31.1446C462.4 31.2446 462.4 31.2446 462.4 31.3446C462.4 31.4446 462.4 31.4446 462.4 31.5446C462.4 31.5446 462.4 31.4446 462.5 31.4446V31.5446V31.6446C462.5 31.6446 462.5 31.6446 462.5 31.7446V31.8446C462.5 31.9446 462.5 31.9446 462.6 32.0446C462.6 32.0446 462.6 32.0446 462.6 32.1446V32.2446V32.3446C462.6 32.3446 462.6 32.3446 462.6 32.4446C462.6 32.4446 462.7 32.4446 462.7 32.5446C462.7 32.5446 462.7 32.6446 462.8 32.6446C462.8 32.6446 462.8 32.7446 462.9 32.7446C463 32.7446 463 32.7446 463.1 32.8446C463.2 32.8446 463.2 32.8446 463.3 32.8446H463.4H463.5H463.6C463.6 32.8446 463.6 32.8446 463.7 32.8446H463.8H463.9H464H464.1V32.7446C464.1 32.6446 464.1 32.6446 464 32.5446V32.4446V32.3446C464 32.3446 464 32.3446 464 32.2446C464 32.2446 464 32.2446 463.9 32.2446C463.8 32.2446 463.8 32.2446 463.7 32.2446V32.1446V32.0446V31.9446C463.7 31.8446 463.6 31.8446 463.6 31.7446C463.6 31.6446 463.5 31.5446 463.5 31.4446C463.5 31.4446 463.5 31.4446 463.5 31.3446C463.5 31.3446 463.5 31.3446 463.5 31.2446C463.5 31.1446 463.5 31.1446 463.5 31.0446C463.5 31.0446 463.5 31.0446 463.5 30.9446C463.5 30.9446 463.5 30.9446 463.5 30.8446C463.5 30.7446 463.5 30.7446 463.5 30.6446V30.5446C463.5 30.5446 463.5 30.5446 463.5 30.4446C463.5 30.4446 463.5 30.4446 463.5 30.3446V30.2446C463.5 30.2446 463.5 30.2446 463.5 30.1446C463.5 30.1446 463.5 30.2446 463.6 30.2446C463.6 30.2446 463.6 30.1446 463.6 30.0446V29.9446C463.6 29.8446 463.6 29.8446 463.6 29.7446C463.6 29.6446 463.6 29.6446 463.6 29.5446V29.4446C463.6 29.4446 463.6 29.4446 463.6 29.3446C463.6 29.3446 463.6 29.3446 463.6 29.2446C463.6 29.2446 463.6 29.2446 463.6 29.1446C463.6 29.1446 463.6 29.1446 463.6 29.0446C463.6 28.9446 463.6 28.9446 463.6 28.8446H463.7C463.7 28.8446 463.7 28.8446 463.8 28.8446H463.9C463.9 28.8446 463.9 28.8446 464 28.8446C464 28.8446 464 28.8446 464.1 28.8446C464.1 28.8446 464.1 28.8446 464.2 28.8446C464.3 28.8446 464.3 28.8446 464.4 28.8446H464.5H464.6C464.6 28.8446 464.6 28.8446 464.7 28.8446C464.8 28.8446 464.8 28.8446 464.8 28.8446C464.8 28.8446 464.8 28.8446 464.9 28.8446L465 28.7446H465.1L465.2 28.6446C465.2 28.6446 465.2 28.6446 465.3 28.6446C465.3 28.6446 465.3 28.6446 465.4 28.6446C465.4 28.6446 465.4 28.6446 465.4 28.5446C465.4 28.5446 465.4 28.5446 465.4 28.4446C465.5 28.4446 465.5 28.4446 465.5 28.3446Z" fill="#D9ECFA"/>
<path d="M191.6 28.3444C191.6 28.2444 191.6 28.2444 191.5 28.1444L191.4 28.0444C191.4 28.0444 191.4 27.9444 191.3 27.9444L191.2 27.8444V27.7444V27.6444C191.2 27.6444 191.2 27.5444 191.3 27.5444V27.4444V27.3444C191.3 27.2444 191.3 27.2444 191.2 27.1444C191.2 27.0444 191.1 27.0444 191.1 26.9444C191.1 26.8444 191 26.8444 191 26.7444C191 26.7444 191 26.6444 190.9 26.6444L190.8 26.5444L190.7 26.4444L190.6 26.3444C190.6 26.3444 190.6 26.3444 190.5 26.2444C190.4 26.2444 190.4 26.1444 190.3 26.1444C190.3 26.1444 190.2 26.0444 190.1 26.0444H190H189.9H189.8H189.7C189.7 26.0444 189.7 26.0444 189.6 26.0444C189.5 26.0444 189.5 25.9444 189.4 26.0444H189.3C189.2 26.0444 189.2 26.0444 189.1 26.0444H189C189 26.0444 189 26.0444 188.9 26.0444C188.9 26.0444 188.9 26.0444 188.8 26.0444L188.7 26.1444C188.6 26.1444 188.6 26.1444 188.5 26.2444H188.4H188.3C188.3 26.2444 188.2 26.2444 188.2 26.3444C188.2 26.3444 188.2 26.3444 188.1 26.3444C188.1 26.3444 188.1 26.3444 188 26.3444C188 26.3444 187.9 26.3444 187.9 26.4444C187.9 26.4444 187.9 26.4444 187.8 26.4444L187.7 26.5444C187.7 26.5444 187.7 26.5444 187.6 26.5444C187.6 26.5444 187.6 26.5444 187.5 26.5444V26.6444C187.5 26.6444 187.5 26.6444 187.5 26.7444C187.5 26.7444 187.5 26.7444 187.5 26.8444V26.9444C187.5 26.9444 187.5 26.9444 187.6 27.0444C187.6 27.0444 187.6 27.0444 187.6 27.1444C187.7 27.2444 187.7 27.3444 187.6 27.4444C187.5 27.4444 187.5 27.4444 187.4 27.5444C187.3 27.5444 187.3 27.5444 187.3 27.5444C187.2 27.5444 187.2 27.5444 187.1 27.5444H187H186.9C186.8 27.5444 186.7 27.5444 186.7 27.5444C186.6 27.5444 186.5 27.5444 186.4 27.5444H186.3C186.1 27.5444 185.9 27.5444 185.6 27.5444C185.4 27.5444 185.1 27.5444 184.9 27.5444C184.8 27.5444 184.6 27.5444 184.5 27.5444C184.4 27.5444 184.4 27.5444 184.3 27.5444H184.2H184.1H184H183.9H183.8H183.7H183.6C183.6 27.5444 183.6 27.5444 183.5 27.5444C183.4 27.4444 183.3 27.4444 183.3 27.3444L183.2 27.2444C183.2 27.2444 183.1 27.2444 183.1 27.1444L183 27.0444C183 27.0444 183 27.0444 183 26.9444C183 26.9444 183 26.9444 183 26.8444C183 26.7444 182.9 26.6444 182.9 26.5444C182.9 26.4444 182.9 26.4444 182.8 26.3444V26.2444C182.8 26.2444 182.8 26.2444 182.8 26.1444V26.0444H182.7C182.6 26.0444 182.6 26.1444 182.5 26.1444L182.4 26.2444C182.4 26.3444 182.3 26.3444 182.3 26.4444V26.5444C182.3 26.5444 182.3 26.5444 182.3 26.6444V26.7444C182.3 26.8444 182.3 26.9444 182.3 26.9444C182.3 27.0444 182.3 27.0444 182.3 27.1444C182.3 27.1444 182.3 27.1444 182.3 27.2444C182.3 27.2444 182.3 27.2444 182.3 27.3444C182.3 27.4444 182.4 27.5444 182.4 27.6444H182.3C182.3 27.7444 182.4 27.8444 182.4 27.8444C182.5 27.9444 182.5 27.9444 182.6 27.9444C182.5 27.9444 182.5 27.9444 182.4 27.9444C182.4 27.9444 182.4 27.9444 182.4 28.0444C182.4 28.0444 182.4 28.0444 182.5 28.1444C182.5 28.1444 182.5 28.1444 182.6 28.1444C182.6 28.1444 182.6 28.1444 182.7 28.2444C182.7 28.2444 182.7 28.2444 182.8 28.3444V28.4444V28.5444V28.6444V28.7444V28.8444C182.8 29.0444 182.7 29.1444 182.7 29.3444L182.8 29.2444C182.8 29.3444 182.8 29.4444 182.8 29.4444V29.5444C182.8 29.6444 182.8 29.6444 182.8 29.7444C182.8 29.8444 182.8 29.8444 182.8 29.9444V30.0444C182.8 30.0444 182.8 30.0444 182.8 30.1444C182.8 30.2444 182.8 30.2444 182.7 30.2444L182.6 30.3444C182.6 30.3444 182.5 30.3444 182.5 30.4444V30.5444V30.6444V30.7444C182.5 30.8444 182.5 30.9444 182.5 31.0444C182.5 31.1444 182.5 31.1444 182.5 31.1444V31.2444C182.5 31.2444 182.5 31.2444 182.6 31.2444C182.6 31.3444 182.6 31.3444 182.6 31.4444V31.5444V31.6444C182.6 31.7444 182.6 31.8444 182.6 31.8444V31.9444C182.6 32.0444 182.6 32.1444 182.6 32.1444C182.6 32.2444 182.6 32.2444 182.7 32.3444L182.8 32.4444C182.8 32.5444 182.9 32.5444 183 32.6444C183.1 32.6444 183.1 32.6444 183.2 32.6444H183.3H183.4C183.5 32.6444 183.6 32.6444 183.6 32.5444V32.4444V32.3444V32.2444C183.6 32.2444 183.6 32.2444 183.6 32.1444C183.6 32.0444 183.6 31.9444 183.6 31.9444C183.6 31.8444 183.5 31.8444 183.5 31.7444C183.5 31.7444 183.5 31.7444 183.5 31.6444V31.5444C183.5 31.4444 183.5 31.4444 183.5 31.3444C183.5 31.3444 183.5 31.3444 183.5 31.2444C183.5 31.1444 183.5 31.1444 183.5 31.0444C183.5 31.0444 183.5 31.0444 183.5 30.9444L183.6 30.8444L183.7 30.7444H183.8H183.9C183.9 30.8444 183.8 30.9444 183.8 31.0444C183.8 31.1444 183.8 31.1444 183.8 31.2444C183.8 31.3444 183.9 31.4444 183.9 31.5444V31.6444C183.9 31.6444 183.9 31.6444 183.9 31.7444C183.9 31.7444 183.9 31.7444 183.9 31.8444V31.9444C183.9 31.9444 183.9 32.0444 184 32.0444C184 32.0444 184 32.1444 184.1 32.1444V32.2444L184.2 32.3444C184.2 32.3444 184.3 32.3444 184.3 32.4444C184.3 32.5444 184.3 32.6444 184.4 32.6444H184.5C184.5 32.6444 184.5 32.6444 184.6 32.6444C184.7 32.6444 184.8 32.7444 184.9 32.6444H185C185.1 32.6444 185.1 32.6444 185.2 32.6444H185.3H185.4C185.4 32.6444 185.4 32.6444 185.5 32.6444H185.6V32.5444C185.6 32.5444 185.6 32.5444 185.6 32.4444V32.3444V32.2444C185.6 32.2444 185.6 32.1444 185.5 32.1444C185.5 32.1444 185.5 32.1444 185.4 32.1444H185.3H185.2H185.1C185.1 32.1444 185 32.1444 185 32.0444C185 32.0444 185 32.0444 185 31.9444L184.9 31.8444C184.9 31.7444 184.8 31.7444 184.8 31.6444C184.8 31.6444 184.8 31.6444 184.8 31.5444V31.4444C184.8 31.4444 184.8 31.4444 184.8 31.3444L184.9 31.2444C185 31.1444 185 31.1444 185.1 31.0444C185.1 31.0444 185.1 31.0444 185.2 31.0444C185.3 31.0444 185.3 31.0444 185.4 31.0444H185.5H185.6C185.6 31.0444 185.7 31.0444 185.8 31.0444H185.9H186C186 31.0444 186 31.0444 186.1 31.0444H186.2C186.3 31.1444 186.2 31.1444 186.2 31.2444C186.2 31.2444 186.2 31.2444 186.2 31.3444V31.4444C186.2 31.4444 186.2 31.5444 186.1 31.5444C186.1 31.5444 186.1 31.5444 186 31.6444H186.1V31.7444V31.8444V31.9444V32.0444C186.1 32.1444 186.1 32.2444 186.1 32.4444C186.1 32.5444 186.1 32.6444 186.2 32.6444C186.2 32.7444 186.2 32.7444 186.3 32.8444L186.4 32.9444H186.5C186.6 32.9444 186.6 32.9444 186.7 33.0444C186.8 33.0444 186.9 33.1444 187 33.0444C187.1 33.0444 187.2 33.0444 187.3 33.0444C187.3 33.0444 187.3 33.0444 187.4 33.0444C187.5 33.0444 187.5 33.0444 187.6 33.0444C187.7 33.0444 187.7 32.9444 187.7 32.8444C187.7 32.7444 187.7 32.7444 187.6 32.6444V32.5444V32.4444C187.6 32.4444 187.6 32.4444 187.5 32.3444C187.4 32.2444 187.4 32.3444 187.3 32.3444H187.2C187.2 32.3444 187.2 32.3444 187.2 32.2444V32.1444V32.0444C187.2 31.9444 187.2 31.9444 187.2 31.8444C187.3 31.6444 187.3 31.4444 187.4 31.2444V31.1444C187.4 31.1444 187.4 31.1444 187.5 31.1444C187.5 31.1444 187.5 31.1444 187.6 31.1444C187.6 31.1444 187.6 31.1444 187.7 31.1444H187.8H187.9V31.2444C187.9 31.2444 187.9 31.2444 188 31.2444L188.1 31.1444C188.1 31.1444 188.1 31.1444 188.2 31.1444C188.2 31.1444 188.2 31.1444 188.3 31.0444C188.3 31.0444 188.3 31.0444 188.4 31.0444C188.4 31.0444 188.4 31.0444 188.5 31.0444C188.5 31.0444 188.5 31.0444 188.5 31.1444C188.5 31.2444 188.5 31.2444 188.5 31.3444C188.5 31.4444 188.5 31.4444 188.5 31.5444C188.5 31.5444 188.5 31.4444 188.6 31.4444V31.5444V31.6444C188.6 31.6444 188.6 31.6444 188.6 31.7444V31.8444C188.6 31.9444 188.6 31.9444 188.7 32.0444C188.7 32.0444 188.7 32.0444 188.7 32.1444V32.2444V32.3444C188.7 32.3444 188.7 32.3444 188.7 32.4444C188.7 32.4444 188.8 32.4444 188.8 32.5444C188.8 32.5444 188.8 32.6444 188.9 32.6444C188.9 32.6444 188.9 32.7444 189 32.7444C189.1 32.7444 189.1 32.7444 189.2 32.8444C189.3 32.8444 189.3 32.8444 189.4 32.8444H189.5H189.6H189.7C189.7 32.8444 189.7 32.8444 189.8 32.8444H189.9H190H190.1H190.2V32.7444C190.2 32.6444 190.2 32.6444 190.1 32.5444V32.4444V32.3444C190.1 32.3444 190.1 32.3444 190.1 32.2444C190.1 32.2444 190.1 32.2444 190 32.2444C189.9 32.2444 189.9 32.2444 189.8 32.2444V32.1444V32.0444V31.9444C189.8 31.8444 189.7 31.8444 189.7 31.7444C189.7 31.6444 189.6 31.5444 189.6 31.4444C189.6 31.4444 189.6 31.4444 189.6 31.3444C189.6 31.3444 189.6 31.3444 189.6 31.2444C189.6 31.1444 189.6 31.1444 189.6 31.0444C189.6 31.0444 189.6 31.0444 189.6 30.9444C189.6 30.9444 189.6 30.9444 189.6 30.8444C189.6 30.7444 189.6 30.7444 189.6 30.6444V30.5444C189.6 30.5444 189.6 30.5444 189.6 30.4444C189.6 30.4444 189.6 30.4444 189.6 30.3444V30.2444C189.6 30.2444 189.6 30.2444 189.6 30.1444C189.6 30.1444 189.6 30.2444 189.7 30.2444C189.7 30.2444 189.7 30.1444 189.7 30.0444V29.9444C189.7 29.8444 189.7 29.8444 189.7 29.7444V29.6444C189.7 29.5444 189.7 29.5444 189.7 29.4444V29.3444C189.7 29.3444 189.7 29.3444 189.7 29.2444C189.7 29.2444 189.7 29.2444 189.7 29.1444C189.7 29.1444 189.7 29.1444 189.7 29.0444C189.7 29.0444 189.7 29.0444 189.7 28.9444C189.7 28.8444 189.7 28.8444 189.7 28.7444H189.8C189.8 28.7444 189.8 28.7444 189.9 28.7444H190C190 28.7444 190 28.7444 190.1 28.7444C190.1 28.7444 190.1 28.7444 190.2 28.7444C190.2 28.7444 190.2 28.7444 190.3 28.7444C190.4 28.7444 190.4 28.7444 190.5 28.7444H190.6H190.7C190.7 28.7444 190.7 28.7444 190.8 28.7444C190.9 28.7444 190.9 28.7444 190.9 28.7444C190.9 28.7444 190.9 28.7444 191 28.7444L191.1 28.6444H191.2L191.3 28.5444C191.3 28.5444 191.3 28.5444 191.4 28.5444C191.4 28.5444 191.4 28.5444 191.5 28.5444C191.5 28.5444 191.5 28.5444 191.5 28.4444C191.5 28.4444 191.5 28.4444 191.5 28.3444C191.6 28.4444 191.6 28.4444 191.6 28.3444Z" fill="#D9ECFA"/>
<path fill-rule="evenodd" clip-rule="evenodd" d="M308.2 103.1V34.9H310.2V103.1H308.2Z" fill="black"/>
<path opacity="0.69" d="M517.5 6.10352e-05L310.6 0V123.9L517.5 123.9V6.10352e-05Z" fill="white"/>
<path d="M337.616 22.2429C338.035 22.6444 338.244 23.168 338.244 23.8139C338.244 24.4597 338.03 24.9878 337.603 25.398C337.184 25.7994 336.643 26.0002 335.979 26.0002H332.693V19.1794H334.408V21.6407H335.979C336.651 21.6407 337.197 21.8414 337.616 22.2429ZM335.665 22.976H334.356V24.6648H335.665C335.936 24.6648 336.15 24.5906 336.307 24.4423C336.472 24.2852 336.555 24.0757 336.555 23.8139C336.555 23.5608 336.472 23.36 336.307 23.2117C336.15 23.0546 335.936 22.976 335.665 22.976Z" fill="#005CA9"/>
<path d="M330.805 26.0002H329.09V23.264H326.903V26.0002H325.188V19.1794H326.903V21.7585H329.09V19.1794H330.805V26.0002Z" fill="#005CA9"/>
<path d="M323.632 23.12H319.364C319.364 23.5738 319.495 23.9404 319.757 24.2196C320.019 24.4989 320.385 24.6386 320.857 24.6386C321.206 24.6386 321.489 24.5906 321.708 24.4946C321.935 24.3898 322.166 24.224 322.401 23.9971L323.436 25.0051C323.069 25.3804 322.689 25.6554 322.297 25.8299C321.913 25.9957 321.428 26.0787 320.844 26.0787C320.407 26.0787 320.01 26.0263 319.652 25.9216C319.303 25.8081 318.976 25.6248 318.67 25.3717C318.365 25.1186 318.125 24.7564 317.95 24.2851C317.776 23.8138 317.688 23.2465 317.688 22.5832C317.688 21.4922 317.959 20.6413 318.5 20.0303C319.041 19.4107 319.761 19.1008 320.66 19.1008C321.594 19.1008 322.323 19.4063 322.847 20.0172C323.37 20.6195 323.632 21.4137 323.632 22.3999V23.12ZM321.956 21.9548C321.948 21.6581 321.895 21.4137 321.799 21.2217C321.59 20.7504 321.21 20.5147 320.66 20.5147C320.11 20.5147 319.731 20.7504 319.521 21.2217C319.425 21.4137 319.373 21.6581 319.364 21.9548H321.956Z" fill="#005CA9"/>
<path d="M316.835 27.6759H315.224V26.0002H311.323V27.6759H309.713V24.4946H310.407C310.852 23.7004 311.074 22.6225 311.074 21.261V19.1794H315.971V24.4946H316.835V27.6759ZM314.269 24.4946V20.685H312.711V21.5752C312.711 22.8058 312.536 23.779 312.187 24.4946H314.269Z" fill="#005CA9"/>
<path d="M304.761 16.548C304.743 17.2026 304.529 17.6782 304.119 17.975C303.718 18.2717 303.224 18.4201 302.64 18.4201C302.055 18.4201 301.562 18.2717 301.16 17.975C300.759 17.6782 300.545 17.2026 300.519 16.548H301.802C301.837 17.0891 302.116 17.3597 302.64 17.3597C303.163 17.3597 303.443 17.0891 303.478 16.548H304.761ZM305.559 26.0001H303.844V21.837L301.448 26.0001H299.733V19.1794H301.448V23.2378L303.844 19.1794H305.559V26.0001Z" fill="#005CA9"/>
<path d="M298.021 23.0545H293.989V21.4705H298.021V23.0545Z" fill="#005CA9"/>
<path d="M292.55 26.0001H286.881V24.4684L290.363 20.4231C290.686 20.0391 290.848 19.6638 290.848 19.2972C290.848 18.9481 290.747 18.6688 290.547 18.4593C290.354 18.2412 290.08 18.1321 289.722 18.1321C289.399 18.1321 289.128 18.2281 288.91 18.4201C288.692 18.6034 288.583 18.9045 288.583 19.3234H286.881C286.881 18.4943 287.147 17.8353 287.679 17.3466C288.221 16.8491 288.901 16.6003 289.722 16.6003C290.56 16.6003 291.24 16.8447 291.764 17.3335C292.288 17.8222 292.55 18.4812 292.55 19.3103C292.55 19.7292 292.475 20.0827 292.327 20.3707C292.179 20.6587 291.921 21.0166 291.555 21.4442L288.949 24.4684H292.55V26.0001Z" fill="#005CA9"/>
<path d="M285.703 24.6778H284.852V26.0001H283.216V24.6778H279.406V23.0675L282.601 16.6788H284.46L281.265 23.0675H283.216V21.3264H284.852V23.0675H285.703V24.6778Z" fill="#005CA9"/>
</svg>
