<svg width="496" height="122" viewBox="0 0 496 122" fill="none" xmlns="http://www.w3.org/2000/svg">
<path d="M44.2842 47.8443L181.484 47.4443V60.6443L44.2842 61.1443" fill="#005CA9"/>
<path fill-rule="evenodd" clip-rule="evenodd" d="M319.983 47.0444H478.283V61.3444H319.983V47.0444ZM320.983 48.0444V60.3444H477.283V48.0444H320.983Z" fill="#D9ECFA"/>
<path fill-rule="evenodd" clip-rule="evenodd" d="M293.99 75C293.99 74.4422 294.442 73.99 295 73.99L298.25 73.99C298.808 73.99 299.26 74.4422 299.26 75C299.26 75.5578 298.808 76.01 298.25 76.01L295 76.01C294.442 76.01 293.99 75.5578 293.99 75ZM303.74 75C303.74 74.4422 304.192 73.99 304.75 73.99L308 73.99C308.558 73.99 309.01 74.4422 309.01 75C309.01 75.5578 308.558 76.01 308 76.01L304.75 76.01C304.192 76.01 303.74 75.5578 303.74 75Z" fill="#D9ECFA"/>
<path fill-rule="evenodd" clip-rule="evenodd" d="M335.99 75C335.99 74.4422 336.442 73.99 337 73.99L339.1 73.99C339.658 73.99 340.11 74.4422 340.11 75C340.11 75.5578 339.658 76.01 339.1 76.01L337 76.01C336.442 76.01 335.99 75.5578 335.99 75ZM342.29 75C342.29 74.4422 342.742 73.99 343.3 73.99L347.5 73.99C348.058 73.99 348.51 74.4422 348.51 75C348.51 75.5578 348.058 76.01 347.5 76.01L343.3 76.01C342.742 76.01 342.29 75.5578 342.29 75ZM350.69 75C350.69 74.4422 351.142 73.99 351.7 73.99L355.9 73.99C356.458 73.99 356.91 74.4422 356.91 75C356.91 75.5578 356.458 76.01 355.9 76.01L351.7 76.01C351.142 76.01 350.69 75.5578 350.69 75ZM359.09 75C359.09 74.4422 359.542 73.99 360.1 73.99L364.3 73.99C364.858 73.99 365.31 74.4422 365.31 75C365.31 75.5578 364.858 76.01 364.3 76.01L360.1 76.01C359.542 76.01 359.09 75.5578 359.09 75ZM367.49 75C367.49 74.4422 367.942 73.99 368.5 73.99L372.7 73.99C373.258 73.99 373.71 74.4422 373.71 75C373.71 75.5578 373.258 76.01 372.7 76.01L368.5 76.01C367.942 76.01 367.49 75.5578 367.49 75ZM375.89 75C375.89 74.4422 376.342 73.99 376.9 73.99L379 73.99C379.558 73.99 380.01 74.4422 380.01 75C380.01 75.5578 379.558 76.01 379 76.01L376.9 76.01C376.342 76.01 375.89 75.5578 375.89 75Z" fill="#D9ECFA"/>
<path fill-rule="evenodd" clip-rule="evenodd" d="M413.99 75C413.99 74.4422 414.442 73.99 415 73.99L417.25 73.99C417.808 73.99 418.26 74.4422 418.26 75C418.26 75.5578 417.808 76.01 417.25 76.01L415 76.01C414.442 76.01 413.99 75.5578 413.99 75ZM420.74 75C420.74 74.4422 421.192 73.99 421.75 73.99L426.25 73.99C426.808 73.99 427.26 74.4422 427.26 75C427.26 75.5578 426.808 76.01 426.25 76.01L421.75 76.01C421.192 76.01 420.74 75.5578 420.74 75ZM429.74 75C429.74 74.4422 430.192 73.99 430.75 73.99L435.25 73.99C435.808 73.99 436.26 74.4422 436.26 75C436.26 75.5578 435.808 76.01 435.25 76.01L430.75 76.01C430.192 76.01 429.74 75.5578 429.74 75ZM438.74 75C438.74 74.4422 439.192 73.99 439.75 73.99L444.25 73.99C444.808 73.99 445.26 74.4422 445.26 75C445.26 75.5578 444.808 76.01 444.25 76.01L439.75 76.01C439.192 76.01 438.74 75.5578 438.74 75ZM447.74 75C447.74 74.4422 448.192 73.99 448.75 73.99L453.25 73.99C453.808 73.99 454.26 74.4422 454.26 75C454.26 75.5578 453.808 76.01 453.25 76.01L448.75 76.01C448.192 76.01 447.74 75.5578 447.74 75ZM456.74 75C456.74 74.4422 457.192 73.99 457.75 73.99L462.25 73.99C462.808 73.99 463.26 74.4422 463.26 75C463.26 75.5578 462.808 76.01 462.25 76.01L457.75 76.01C457.192 76.01 456.74 75.5578 456.74 75ZM465.74 75C465.74 74.4422 466.192 73.99 466.75 73.99L471.25 73.99C471.808 73.99 472.26 74.4422 472.26 75C472.26 75.5578 471.808 76.01 471.25 76.01L466.75 76.01C466.192 76.01 465.74 75.5578 465.74 75ZM474.74 75C474.74 74.4422 475.192 73.99 475.75 73.99L478 73.99C478.558 73.99 479.01 74.4422 479.01 75C479.01 75.5578 478.558 76.01 478 76.01L475.75 76.01C475.192 76.01 474.74 75.5578 474.74 75Z" fill="#D9ECFA"/>
<path fill-rule="evenodd" clip-rule="evenodd" d="M195.84 74.9999C195.84 74.3588 196.36 73.8391 197.001 73.8391L199.376 73.8391C200.017 73.8391 200.536 74.3588 200.536 74.9999C200.536 75.641 200.017 76.1607 199.376 76.1607L197.001 76.1607C196.36 76.1607 195.84 75.641 195.84 74.9999ZM202.965 74.9999C202.965 74.3588 203.485 73.8391 204.126 73.8391L208.876 73.8391C209.517 73.8391 210.036 74.3588 210.036 74.9999C210.036 75.641 209.517 76.1607 208.876 76.1607L204.126 76.1607C203.485 76.1607 202.965 75.641 202.965 74.9999ZM212.465 74.9999C212.465 74.3588 212.985 73.8391 213.626 73.8391L216.001 73.8391C216.642 73.8391 217.161 74.3588 217.161 74.9999C217.161 75.641 216.642 76.1607 216.001 76.1607L213.626 76.1607C212.985 76.1607 212.465 75.641 212.465 74.9999Z" fill="#D9ECFA"/>
<path d="M480.983 80.7445L491.083 74.9445L480.983 69.1445V80.7445Z" fill="#D9ECFA"/>
<path fill-rule="evenodd" clip-rule="evenodd" d="M53.8398 74.9999C53.8398 74.3588 54.3596 73.8391 55.0006 73.8391H57.1256C57.7667 73.8391 58.2864 74.3588 58.2864 74.9999C58.2864 75.641 57.7667 76.1607 57.1256 76.1607H55.0006C54.3596 76.1607 53.8398 75.641 53.8398 74.9999ZM60.2148 74.9999C60.2148 74.3588 60.7346 73.8391 61.3756 73.8391H65.6256C66.2667 73.8391 66.7864 74.3588 66.7864 74.9999C66.7864 75.641 66.2667 76.1607 65.6256 76.1607H61.3756C60.7346 76.1607 60.2148 75.641 60.2148 74.9999ZM68.7148 74.9999C68.7148 74.3588 69.2346 73.8391 69.8756 73.8391H72.0006C72.6417 73.8391 73.1614 74.3588 73.1614 74.9999C73.1614 75.641 72.6417 76.1607 72.0006 76.1607H69.8756C69.2346 76.1607 68.7148 75.641 68.7148 74.9999Z" fill="#D9ECFA"/>
<path fill-rule="evenodd" clip-rule="evenodd" d="M135.84 74.9999C135.84 74.3588 136.36 73.8391 137.001 73.8391L139.667 73.8391C140.308 73.8391 140.828 74.3588 140.828 74.9999C140.828 75.641 140.308 76.1607 139.667 76.1607L137.001 76.1607C136.36 76.1607 135.84 75.641 135.84 74.9999ZM143.84 74.9999C143.84 74.3588 144.36 73.8391 145.001 73.8391L150.334 73.8391C150.975 73.8391 151.495 74.3588 151.495 74.9999C151.495 75.641 150.975 76.1607 150.334 76.1607L145.001 76.1607C144.36 76.1607 143.84 75.641 143.84 74.9999ZM154.507 74.9999C154.507 74.3588 155.026 73.8391 155.667 73.8391L161.001 73.8391C161.642 73.8391 162.161 74.3588 162.161 74.9999C162.161 75.641 161.642 76.1607 161.001 76.1607L155.667 76.1607C155.026 76.1607 154.507 75.641 154.507 74.9999ZM165.173 74.9999C165.173 74.3588 165.693 73.8391 166.334 73.8391L169.001 73.8391C169.642 73.8391 170.161 74.3588 170.161 74.9999C170.161 75.641 169.642 76.1607 169.001 76.1607L166.334 76.1607C165.693 76.1607 165.173 75.641 165.173 74.9999Z" fill="#D9ECFA"/>
<path d="M129.81 73.6832V71.9943H128.474C128.195 71.9943 127.973 72.0729 127.807 72.23C127.65 72.3784 127.571 72.5835 127.571 72.8453C127.571 73.0984 127.65 73.3035 127.807 73.4606C127.973 73.609 128.195 73.6832 128.474 73.6832H129.81ZM127.741 77.4535H125.804L127.178 74.665C126.786 74.5167 126.476 74.2766 126.249 73.945C126.022 73.6133 125.908 73.2206 125.908 72.7667C125.908 72.1471 126.118 71.6365 126.537 71.235C126.964 70.8336 127.51 70.6328 128.173 70.6328H131.485V77.4535H129.784V75.0316H128.867L127.741 77.4535Z" fill="#005CA9"/>
<path d="M124.477 77.4534H122.775V70.8291H124.477V77.4534ZM124.49 69.4675H122.749V68.0798H124.49V69.4675Z" fill="#005CA9"/>
<path d="M121.521 79.1293H119.898V77.4535H114.988V70.6328H116.703V75.948H118.89V70.6328H120.605V75.948H121.521V79.1293Z" fill="#005CA9"/>
<path d="M113.167 77.4535H111.504V76.8644C111.269 77.1 111.024 77.2702 110.771 77.3749C110.527 77.4709 110.213 77.5189 109.829 77.5189C109.069 77.5189 108.489 77.3182 108.087 76.9167C107.712 76.524 107.524 76.0134 107.524 75.385C107.524 74.809 107.725 74.3377 108.127 73.9711C108.528 73.5958 109.113 73.4082 109.881 73.4082H111.465V73.0678C111.465 72.6925 111.365 72.4219 111.164 72.2561C110.963 72.0816 110.64 71.9943 110.195 71.9943C109.663 71.9943 109.226 72.1906 108.886 72.5834L107.812 71.523C108.144 71.1564 108.489 70.9033 108.847 70.7637C109.213 70.624 109.685 70.5542 110.261 70.5542C112.198 70.5542 113.167 71.3572 113.167 72.9631V77.4535ZM111.465 74.9399V74.5733H110.169C109.497 74.5733 109.161 74.8352 109.161 75.3588C109.161 75.8738 109.506 76.1312 110.195 76.1312C110.64 76.1312 110.976 76.0221 111.203 75.8039C111.378 75.6556 111.465 75.3675 111.465 74.9399Z" fill="#005CA9"/>
<path d="M106.972 72.1383H105.008V77.4535H103.293V72.1383H101.29V70.6328H106.972V72.1383Z" fill="#005CA9"/>
<path d="M96.8234 77.4535H95.1084V70.6328H96.8234V77.4535ZM101.222 77.4535H99.1799L96.8365 73.8795L99.0752 70.6328H101.065L98.6562 73.8141L101.222 77.4535Z" fill="#005CA9"/>
<path d="M93.2733 77.4535H91.6107V76.8644C91.3751 77.1 91.1307 77.2702 90.8776 77.3749C90.6332 77.4709 90.319 77.5189 89.935 77.5189C89.1757 77.5189 88.5953 77.3182 88.1938 76.9167C87.8185 76.524 87.6309 76.0134 87.6309 75.385C87.6309 74.809 87.8316 74.3377 88.2331 73.9711C88.6345 73.5958 89.2193 73.4082 89.9873 73.4082H91.5714V73.0678C91.5714 72.6925 91.4711 72.4219 91.2703 72.2561C91.0696 72.0816 90.7467 71.9943 90.3015 71.9943C89.7692 71.9943 89.3328 72.1906 88.9924 72.5834L87.9189 71.523C88.2505 71.1564 88.5953 70.9033 88.9531 70.7637C89.3197 70.624 89.791 70.5542 90.367 70.5542C92.3046 70.5542 93.2733 71.3572 93.2733 72.9631V77.4535ZM91.5714 74.9399V74.5733H90.2754C89.6033 74.5733 89.2673 74.8352 89.2673 75.3588C89.2673 75.8738 89.6121 76.1312 90.3015 76.1312C90.7467 76.1312 91.0827 76.0221 91.3096 75.8039C91.4842 75.6556 91.5714 75.3675 91.5714 74.9399Z" fill="#005CA9"/>
<path d="M86.0658 77.4535H84.2461V69.7557H82.0205V72.4656C82.0205 73.7486 81.907 74.761 81.6801 75.5029C81.4619 76.236 81.1477 76.7466 80.7375 77.0346C80.3361 77.3139 79.7993 77.4535 79.1273 77.4535H78.4072V75.8302H78.6691C78.9222 75.8302 79.136 75.7865 79.3105 75.6993C79.4938 75.6033 79.6597 75.4374 79.808 75.2018C79.9651 74.9574 80.0786 74.5996 80.1484 74.1283C80.227 73.657 80.2662 73.0679 80.2662 72.3609V68.1323H86.0658V77.4535Z" fill="#005CA9"/>
<path d="M183.483 83.9443C178.583 83.9443 174.483 79.9443 174.483 74.9443C174.483 70.0443 178.483 65.9443 183.483 65.9443C188.383 65.9443 192.483 69.9443 192.483 74.9443C192.383 79.8443 188.383 83.9443 183.483 83.9443Z" fill="#D9ECFA"/>
<path fill-rule="evenodd" clip-rule="evenodd" d="M180.948 69.5195C181.238 69.2237 181.713 69.2189 182.008 69.5088L187.008 74.4088C187.151 74.5489 187.232 74.7404 187.233 74.9406C187.234 75.1409 187.155 75.3332 187.014 75.4748L182.114 80.3748C181.821 80.6677 181.346 80.6677 181.053 80.3748C180.76 80.0819 180.76 79.607 181.053 79.3141L185.417 74.9498L180.958 70.5801C180.663 70.2902 180.658 69.8153 180.948 69.5195Z" fill="#005CA9"/>
<path d="M322.483 83.9443C317.583 83.9443 313.483 79.9443 313.483 74.9443C313.483 70.0443 317.483 65.9443 322.483 65.9443C327.383 65.9443 331.483 69.9443 331.483 74.9443C331.483 79.8443 327.383 83.9443 322.483 83.9443Z" fill="#D9ECFA"/>
<path fill-rule="evenodd" clip-rule="evenodd" d="M319.948 69.5195C320.238 69.2237 320.713 69.2189 321.008 69.5088L326.008 74.4088C326.151 74.5489 326.232 74.7404 326.233 74.9406C326.234 75.1409 326.155 75.3332 326.014 75.4748L321.114 80.3748C320.821 80.6677 320.346 80.6677 320.053 80.3748C319.76 80.0819 319.76 79.607 320.053 79.3141L324.417 74.9498L319.958 70.5801C319.663 70.2902 319.658 69.8153 319.948 69.5195Z" fill="#005CA9"/>
<path d="M179.529 42.1938H177.255V37.3186H173.312V42.1938H171.038V30.5457H173.312V35.3063H177.255V30.5457H179.529V42.1938Z" fill="#E2001A"/>
<path d="M169.072 38.611C168.865 39.7998 168.38 40.7105 167.616 41.3431C166.853 41.9757 165.915 42.2919 164.803 42.2919C163.559 42.2919 162.518 41.8829 161.678 41.065C161.143 40.5305 160.811 39.947 160.68 39.3145C160.56 38.671 160.5 37.6894 160.5 36.3697C160.5 35.05 160.56 34.0739 160.68 33.4413C160.811 32.7979 161.143 32.2089 161.678 31.6745C162.518 30.8565 163.559 30.4475 164.803 30.4475C165.915 30.4475 166.853 30.7638 167.616 31.3964C168.38 32.0289 168.865 32.9396 169.072 34.1284H166.749C166.488 33.0269 165.839 32.4761 164.803 32.4761C164.181 32.4761 163.696 32.6779 163.347 33.0814C163.128 33.3323 162.976 33.6758 162.889 34.1121C162.812 34.5374 162.774 35.29 162.774 36.3697C162.774 37.4495 162.812 38.2075 162.889 38.6437C162.976 39.0691 163.128 39.4072 163.347 39.658C163.696 40.0616 164.181 40.2633 164.803 40.2633C165.85 40.2633 166.504 39.7126 166.766 38.611H169.072Z" fill="#E2001A"/>
<path d="M158.66 42.1938H150.987V30.5457H158.66V32.5743H153.261V35.3063H157.858V37.3349H153.261V40.1652H158.66V42.1938Z" fill="#E2001A"/>
<path d="M149.134 32.5743H146.091V42.1938H143.817V32.5743H140.774V30.5457H149.134V32.5743Z" fill="#E2001A"/>
<path d="M135.327 33.4413C135.458 34.0848 135.523 35.0609 135.523 36.3697C135.523 37.6785 135.458 38.6546 135.327 39.2981C135.196 39.9416 134.863 40.5305 134.329 41.065C133.511 41.8829 132.475 42.2919 131.221 42.2919C129.955 42.2919 128.914 41.8829 128.096 41.065C127.561 40.5305 127.229 39.947 127.098 39.3145C126.978 38.671 126.918 37.6894 126.918 36.3697C126.918 35.05 126.978 34.0739 127.098 33.4413C127.229 32.7979 127.561 32.2089 128.096 31.6745C128.914 30.8565 129.955 30.4475 131.221 30.4475C132.475 30.4475 133.511 30.8565 134.329 31.6745C134.863 32.2089 135.196 32.7979 135.327 33.4413ZM133.249 36.3697C133.249 35.29 133.206 34.5374 133.118 34.1121C133.042 33.6867 132.895 33.3486 132.677 33.0978C132.317 32.6833 131.831 32.4761 131.221 32.4761C130.621 32.4761 130.13 32.6833 129.748 33.0978C129.53 33.3486 129.383 33.6867 129.306 34.1121C129.23 34.5374 129.192 35.29 129.192 36.3697C129.192 37.4495 129.23 38.202 129.306 38.6274C129.383 39.0418 129.53 39.3745 129.748 39.6253C130.141 40.0507 130.632 40.2633 131.221 40.2633C131.82 40.2633 132.306 40.0507 132.677 39.6253C132.895 39.3636 133.042 39.0255 133.118 38.611C133.206 38.1857 133.249 37.4386 133.249 36.3697Z" fill="#E2001A"/>
<path d="M125.584 42.1938H122.951L120.677 37.5476H119.041V42.1938H116.767V30.5457H121.331C122.487 30.5457 123.403 30.8892 124.079 31.5763C124.766 32.2634 125.11 33.1087 125.11 34.1121C125.11 34.8864 124.908 35.5354 124.505 36.0589C124.101 36.5824 123.594 36.9532 122.983 37.1713L125.584 42.1938ZM122.378 35.2245C122.683 34.941 122.836 34.5701 122.836 34.1121C122.836 33.654 122.683 33.2832 122.378 32.9996C122.073 32.716 121.675 32.5743 121.184 32.5743H119.041V35.6499H121.184C121.675 35.6499 122.073 35.5081 122.378 35.2245Z" fill="#E2001A"/>
<path d="M113.806 31.5927C114.504 32.2907 114.853 33.1523 114.853 34.1775C114.853 35.2027 114.504 36.0643 113.806 36.7623C113.119 37.4604 112.186 37.8094 111.008 37.8094H108.767V42.1938H106.493V30.5457H111.008C112.186 30.5457 113.119 30.8947 113.806 31.5927ZM112.121 35.339C112.426 35.0446 112.579 34.6574 112.579 34.1775C112.579 33.6976 112.426 33.3104 112.121 33.016C111.816 32.7215 111.407 32.5743 110.894 32.5743H108.767V35.7644H110.894C111.407 35.7644 111.816 35.6226 112.121 35.339Z" fill="#E2001A"/>
<path d="M101.265 33.6704L97.6171 43.568C97.4316 44.0588 97.219 44.4242 96.979 44.6641C96.5428 45.1004 95.932 45.3185 95.1467 45.3185H94.3124V43.4044H94.8032C95.1086 43.4044 95.3322 43.3499 95.4739 43.2408C95.6266 43.1427 95.7575 42.9409 95.8666 42.6355L96.2265 41.5885L93.3145 33.6704H95.5557L97.3226 38.9382L99.024 33.6704H101.265Z" fill="#E2001A"/>
<path d="M92.4219 37.9239C92.4219 38.8074 92.3674 39.5327 92.2583 40.0998C92.1492 40.6669 91.9093 41.1414 91.5385 41.5231C91.0477 42.0357 90.3606 42.292 89.4771 42.292C88.5937 42.292 87.9066 42.0084 87.4158 41.4413V45.3185H85.2891V33.6704H87.3504V34.472C87.8848 33.8722 88.5937 33.5723 89.4771 33.5723C90.3606 33.5723 91.0477 33.8286 91.5385 34.3412C91.9093 34.7229 92.1492 35.1973 92.2583 35.7645C92.3674 36.3316 92.4219 37.0514 92.4219 37.9239ZM90.2461 38.9055C90.2788 38.6438 90.2951 38.3166 90.2951 37.9239C90.2951 37.5313 90.2788 37.2096 90.2461 36.9587C90.2133 36.697 90.1479 36.4461 90.0497 36.2062C89.9625 35.9662 89.8152 35.7863 89.608 35.6663C89.4117 35.5463 89.1609 35.4864 88.8555 35.4864C88.5501 35.4864 88.2938 35.5463 88.0866 35.6663C87.8903 35.7863 87.743 35.9662 87.6449 36.2062C87.5576 36.4461 87.4976 36.697 87.4649 36.9587C87.4322 37.2096 87.4158 37.5313 87.4158 37.9239C87.4158 38.3166 87.4322 38.6438 87.4649 38.9055C87.4976 39.1564 87.5576 39.4072 87.6449 39.6581C87.743 39.898 87.8903 40.078 88.0866 40.1979C88.2938 40.3179 88.5501 40.3779 88.8555 40.3779C89.1609 40.3779 89.4117 40.3179 89.608 40.1979C89.8152 40.078 89.9625 39.898 90.0497 39.6581C90.1479 39.4072 90.2133 39.1564 90.2461 38.9055Z" fill="#E2001A"/>
<path d="M83.2676 37.9239C83.2676 38.8074 83.2131 39.5327 83.104 40.0998C82.9949 40.6669 82.755 41.1414 82.3842 41.5231C81.8934 42.0357 81.2063 42.292 80.3229 42.292C79.4394 42.292 78.7523 42.0084 78.2615 41.4413V45.3185H76.1348V33.6704H78.1961V34.472C78.7305 33.8722 79.4394 33.5723 80.3229 33.5723C81.2063 33.5723 81.8934 33.8286 82.3842 34.3412C82.755 34.7229 82.9949 35.1973 83.104 35.7645C83.2131 36.3316 83.2676 37.0514 83.2676 37.9239ZM81.0918 38.9055C81.1245 38.6438 81.1408 38.3166 81.1408 37.9239C81.1408 37.5313 81.1245 37.2096 81.0918 36.9587C81.059 36.697 80.9936 36.4461 80.8954 36.2062C80.8082 35.9662 80.661 35.7863 80.4537 35.6663C80.2574 35.5463 80.0066 35.4864 79.7012 35.4864C79.3958 35.4864 79.1395 35.5463 78.9323 35.6663C78.736 35.7863 78.5887 35.9662 78.4906 36.2062C78.4033 36.4461 78.3433 36.697 78.3106 36.9587C78.2779 37.2096 78.2615 37.5313 78.2615 37.9239C78.2615 38.3166 78.2779 38.6438 78.3106 38.9055C78.3433 39.1564 78.4033 39.4072 78.4906 39.6581C78.5887 39.898 78.736 40.078 78.9323 40.1979C79.1395 40.3179 79.3958 40.3779 79.7012 40.3779C80.0066 40.3779 80.2574 40.3179 80.4537 40.1979C80.661 40.078 80.8082 39.898 80.8954 39.6581C80.9936 39.4072 81.059 39.1564 81.0918 38.9055Z" fill="#E2001A"/>
<path d="M73.742 42.1938H71.6643V41.4086C71.108 41.9975 70.3991 42.292 69.5375 42.292C68.6977 42.292 68.027 42.0411 67.5253 41.5394C66.9472 40.9614 66.6582 40.1543 66.6582 39.1182V33.6704H68.785V38.8237C68.785 39.3581 68.9213 39.7508 69.194 40.0016C69.4775 40.2525 69.8102 40.3779 70.1919 40.3779C70.5845 40.3779 70.9172 40.2525 71.1898 40.0016C71.4734 39.7508 71.6152 39.3581 71.6152 38.8237V33.6704H73.742V42.1938Z" fill="#E2001A"/>
<path d="M63.9603 31.5927C64.6583 32.2907 65.0073 33.1523 65.0073 34.1775C65.0073 35.2027 64.6583 36.0643 63.9603 36.7623C63.2731 37.4604 62.3406 37.8094 61.1627 37.8094H58.9215V42.1938H56.6475V30.5457H61.1627C62.3406 30.5457 63.2731 30.8947 63.9603 31.5927ZM62.2752 35.339C62.5806 35.0446 62.7333 34.6574 62.7333 34.1775C62.7333 33.6976 62.5806 33.3104 62.2752 33.016C61.9698 32.7215 61.5608 32.5743 61.0482 32.5743H58.9215V35.7644H61.0482C61.5608 35.7644 61.9698 35.6226 62.2752 35.339Z" fill="#E2001A"/>
<path d="M102.483 4.44444C102.383 4.34444 102.383 4.44444 102.483 4.44444L102.283 4.24444C102.183 4.14444 102.183 4.14444 102.083 4.14444C102.083 4.14444 101.983 4.14444 102.083 4.04444H102.183L102.083 3.94444C102.183 3.94444 102.183 3.94444 102.283 3.94444C102.283 3.94444 102.183 3.94444 102.183 3.84444C102.183 3.84444 102.183 3.84444 102.283 3.84444C102.283 3.84444 102.283 3.84444 102.183 3.84444H102.283C102.183 3.84444 102.083 3.84444 102.083 3.84444C102.183 3.84444 102.183 3.84444 102.283 3.74444C102.283 3.74444 102.183 3.74444 102.183 3.64444C102.283 3.64444 102.283 3.64444 102.383 3.64444C102.283 3.64444 102.283 3.54444 102.183 3.54444H102.083C102.183 3.54444 102.183 3.54444 102.283 3.54444C102.283 3.54444 102.183 3.54444 102.183 3.44444C102.283 3.44444 102.283 3.44444 102.383 3.54444C102.283 3.44444 102.183 3.34444 102.083 3.34444H102.183C102.083 3.34444 101.883 3.24444 101.883 3.14444C101.883 3.14444 101.883 3.14444 101.983 3.24444C101.983 3.24444 101.883 3.04444 101.883 2.94444C101.883 2.64444 101.683 2.54444 101.683 2.24444C101.683 2.14444 101.683 2.14444 101.683 2.04444C101.583 1.94444 101.683 1.84444 101.683 1.74444C101.683 1.64444 101.783 1.54444 101.783 1.44444C101.883 1.14444 101.883 0.744445 101.783 0.444445C101.783 0.344445 100.983 0.0444444 100.283 0.0444444C99.9833 -0.0555556 99.4833 0.0444444 99.3833 0.0444444L99.2833 0.144445L99.1833 0.244444C99.1833 0.244444 99.1833 0.244445 99.1833 0.144445C99.1833 0.244445 99.1833 0.244444 99.1833 0.344444L99.0833 0.444445C99.0833 0.644445 98.7833 0.644445 98.7833 0.644445C98.5833 0.644445 98.4833 0.644445 98.2833 0.644445H98.1833C98.0833 0.644445 98.0833 0.644444 97.9833 0.544444H98.0833C97.9833 0.544444 97.9833 0.544444 97.8833 0.544444C97.8833 0.544444 97.8833 0.544444 97.9833 0.544444C97.7833 0.544444 97.6833 0.544445 97.5833 0.444445V0.544444H97.4833H97.3833C97.3833 0.544444 97.3833 0.544444 97.2833 0.544444H97.1833C97.0833 0.544444 97.0833 0.544444 96.9833 0.544444C96.8833 0.544444 96.7833 0.544445 96.6833 0.644445C96.5833 0.744445 95.8833 1.04444 95.5833 1.24444C95.1833 1.44444 94.6833 1.84444 94.6833 2.14444C94.6833 2.34444 94.8833 2.54444 94.8833 2.74444C94.8833 2.84444 94.9833 2.94444 95.0833 2.94444C95.1833 3.04444 95.2833 3.14444 95.3833 3.24444C95.4833 3.24444 95.5833 3.34444 95.6833 3.34444C95.6833 3.34444 95.6833 3.44444 95.5833 3.44444C95.6833 3.44444 95.6833 3.44444 95.7833 3.44444C95.7833 3.44444 95.6833 3.44444 95.6833 3.54444H95.7833C95.6833 3.54444 95.6833 3.64444 95.5833 3.74444C95.6833 3.64444 95.7833 3.64444 95.8833 3.64444V3.74444C95.8833 3.74444 95.9833 3.64444 96.0833 3.64444C95.9833 3.74444 95.9833 3.94444 95.8833 4.04444C95.8833 3.94444 95.9833 3.84444 96.0833 3.84444C95.9833 3.94444 95.9833 4.04444 95.9833 4.14444C95.9833 4.04444 96.0833 3.94444 96.1833 3.94444C96.1833 4.04444 96.0833 4.14444 96.0833 4.24444C95.9833 4.24444 96.0833 4.54444 96.0833 4.64444C96.0833 4.84444 95.8833 5.04444 95.7833 5.14444H95.8833C95.6833 5.14444 95.6833 5.54444 95.7833 5.64444C95.8833 5.84444 95.9833 6.04444 95.7833 6.24444C95.4833 6.64444 95.1833 7.04444 94.9833 7.44444C95.0833 7.34444 95.1833 7.24444 95.1833 7.24444C95.0833 7.44444 94.9833 7.64444 94.8833 7.84444C94.8833 7.84444 94.9833 7.84444 94.9833 7.74444L94.6833 8.34445C94.5833 8.44445 94.5833 8.54444 94.4833 8.64444C93.9833 9.24444 93.1833 9.64445 92.5833 10.0444C91.7833 10.5444 91.0833 11.0444 90.3833 11.6444C90.2833 11.7444 90.1833 11.7444 90.0833 11.8444C89.7833 12.0444 89.4833 12.1444 89.4833 12.2444C89.2833 12.4444 88.3833 13.2444 88.1833 13.5444C88.0833 13.7444 86.7833 15.3444 86.5833 15.4444C86.3833 15.5444 85.7833 16.9444 85.6833 17.2444C85.6833 17.2444 84.2833 19.8444 83.0833 20.4444C81.8833 21.0444 80.7833 21.5444 79.7833 22.2444C78.8833 22.8444 79.3833 23.5444 80.0833 23.4444C80.7833 23.3444 81.6833 23.4444 82.0833 23.0444C82.3833 22.6444 83.2833 22.4444 83.6833 22.2444C84.1833 22.1444 84.6833 22.2444 85.0833 21.9444L85.1833 22.0444C85.2833 22.5444 85.4833 22.7444 85.5833 22.7444C85.7833 22.7444 89.4833 23.1444 89.7833 23.1444C89.9833 23.1444 90.5833 23.1444 90.6833 23.1444C90.7833 23.1444 90.9833 23.1444 90.9833 23.1444C90.9833 23.1444 90.9833 23.0444 91.1833 22.9444C91.3833 22.8444 91.4833 22.8444 91.4833 22.6444C91.4833 22.5444 91.4833 22.4444 91.4833 22.4444C91.4833 22.4444 94.4833 22.4444 94.5833 22.4444C94.7833 22.4444 94.7833 22.3444 94.8833 22.3444C94.9833 22.2444 95.0833 22.4444 95.3833 22.1444L95.6833 21.8444L95.8833 21.6444C95.8833 21.6444 95.6833 21.1444 95.3833 21.0444C95.0833 20.9444 94.4833 20.9444 94.1833 20.9444C93.6833 21.0444 93.0833 21.1444 92.6833 21.0444C92.7833 20.8444 93.0833 20.7444 93.1833 20.7444C93.2833 20.6444 93.7833 20.4444 93.7833 20.3444C93.7833 20.4444 93.7833 20.5444 93.7833 20.6444C93.9833 20.5444 94.0833 20.3444 94.2833 20.2444C94.2833 20.3444 94.1833 20.4444 94.1833 20.5444C94.3833 20.4444 94.5833 20.2444 94.7833 20.0444V20.2444C94.8833 20.1444 94.9833 19.9444 95.1833 19.8444C95.0833 20.0444 95.0833 20.1444 95.0833 20.3444C95.1833 20.1444 95.5833 19.5444 95.7833 19.8444C95.8833 19.9444 95.8833 20.3444 95.6833 20.3444C95.7833 20.3444 95.8833 20.2444 95.9833 20.1444L95.8833 20.3444C95.9833 20.3444 95.9833 20.3444 96.0833 20.3444C96.0833 20.4444 95.9833 20.4444 95.9833 20.5444C96.0833 20.4444 96.2833 20.5444 96.3833 20.7444C96.4833 20.8444 96.4833 21.0444 96.4833 21.2444C96.4833 21.4444 96.4833 21.7444 96.5833 21.9444L96.6833 21.7444C96.6833 21.8444 96.6833 22.0444 96.6833 22.1444L96.7833 22.0444C96.7833 22.3444 96.9833 23.2444 97.3833 23.2444C97.6833 23.2444 98.0833 23.2444 98.0833 23.2444C98.0833 23.2444 98.6833 23.3444 98.8833 23.3444H99.0833C99.0833 23.3444 99.2833 23.4444 99.2833 23.3444C99.2833 23.2444 99.3833 23.3444 99.4833 23.3444C99.5833 23.3444 99.5833 23.3444 99.5833 23.3444C99.5833 23.3444 99.6833 23.4444 99.6833 23.3444C99.6833 23.2444 99.7833 23.1444 99.6833 23.0444C99.5833 22.9444 99.6833 22.7444 99.3833 22.5444C99.0833 22.3444 98.7833 22.0444 98.7833 21.9444C98.7833 21.8444 98.2833 21.4444 98.2833 21.1444C98.2833 20.8444 98.3833 20.6444 98.2833 20.3444C98.1833 20.0444 98.0833 19.6444 98.0833 19.3444C98.0833 19.0444 98.0833 18.9444 98.0833 18.7444C98.0833 18.5444 97.9833 18.4444 98.0833 18.1444C98.1833 17.8444 98.2833 17.5444 98.5833 17.3444C98.5833 17.4444 98.4833 17.6444 98.3833 17.7444C98.5833 17.4444 98.7833 17.1444 98.9833 16.9444C99.0833 17.3444 99.0833 17.7444 99.0833 18.1444C99.0833 18.3444 99.2833 19.0444 99.0833 19.2444C99.1833 19.1444 99.2833 19.0444 99.2833 18.8444C99.2833 18.9444 99.2833 19.1444 99.2833 19.2444L99.3833 19.1444C99.3833 19.2444 99.2833 19.4444 99.2833 19.5444L99.3833 19.4444C99.3833 19.5444 99.3833 19.7444 99.3833 19.8444H99.4833C99.3833 19.8444 99.5833 20.5444 99.5833 20.6444C99.5833 20.9444 99.6833 21.4444 99.5833 21.6444C99.5833 21.5444 99.6833 21.3444 99.7833 21.2444C99.7833 21.3444 99.7833 21.5444 99.7833 21.6444L99.8833 21.5444C99.8833 21.6444 99.8833 21.7444 99.8833 21.7444C99.8833 21.6444 100.183 21.7444 100.183 21.7444C100.283 21.8444 100.383 21.9444 100.383 22.0444C100.483 22.3444 100.483 22.6444 100.583 22.7444C100.683 22.8444 100.883 22.8444 101.083 22.8444C101.283 22.8444 101.783 22.9444 101.883 22.8444C101.983 22.8444 102.183 22.8444 102.283 22.8444C102.383 22.8444 102.583 22.9444 102.583 22.9444C102.683 22.8444 102.783 22.8444 102.983 22.8444C103.083 22.8444 103.083 22.7444 102.983 22.6444C102.983 22.5444 102.883 22.4444 102.783 22.2444C102.683 22.0444 102.383 21.6444 102.183 21.5444C101.983 21.3444 101.583 20.7444 101.583 20.5444C101.583 20.3444 101.383 19.0444 101.383 18.6444C101.383 18.2444 101.183 17.6444 101.183 17.3444C101.183 17.1444 100.983 15.8444 101.083 15.4444C101.183 14.9444 101.483 14.1444 101.683 13.6444C101.783 13.4444 101.783 13.1444 101.783 12.9444V13.0444C101.783 12.9444 101.883 12.8444 101.883 12.7444C101.883 12.8444 101.983 12.9444 101.983 13.0444C101.983 12.6444 101.883 12.2444 101.883 11.9444C101.983 11.9444 101.983 12.0444 101.983 12.1444C101.983 11.8444 101.983 11.5444 101.883 11.2444C101.783 10.7444 101.683 10.3444 101.583 9.84445C101.583 9.74444 101.583 9.64445 101.583 9.54445C101.583 9.44444 101.583 9.34445 101.483 9.24444C101.383 8.94444 101.083 8.04444 101.383 7.74444C101.483 7.84444 101.483 7.94445 101.583 8.04445C101.483 7.74444 101.383 7.34444 101.383 7.04444C101.383 6.94444 101.483 6.94444 101.483 6.84444V6.94444L101.583 6.84444C101.583 6.94444 101.583 6.94444 101.583 7.04444C101.683 7.04444 101.683 6.94444 101.783 6.84444C101.783 6.84444 101.883 6.84444 101.883 6.74444C101.883 6.84444 101.883 6.84444 101.883 6.94444C101.883 6.84444 101.983 6.74444 101.983 6.74444L102.183 6.64444C102.183 6.64444 102.183 6.54444 102.283 6.54444V6.44444C102.283 6.44444 102.383 6.44444 102.383 6.54444C102.383 6.44444 102.383 6.44444 102.383 6.34444C102.383 6.34444 102.383 6.34444 102.483 6.34444C102.483 6.34444 102.483 6.34444 102.483 6.24444L102.583 6.34444V6.24444L102.683 6.34444C102.683 6.34444 102.683 6.34444 102.683 6.44444V6.54444C102.683 6.34444 102.583 6.24444 102.483 6.04444C102.483 6.04444 102.483 6.04444 102.583 6.04444C102.583 6.04444 102.583 5.94444 102.483 5.94444C102.483 5.94444 102.483 5.94444 102.583 6.04444V6.14444C102.583 6.04444 102.583 5.94444 102.483 5.94444C102.583 5.94444 102.583 6.04444 102.683 6.14444V6.04444C102.683 6.04444 102.683 5.94444 102.583 5.94444C102.583 5.94444 102.583 5.94444 102.683 5.94444C102.683 5.94444 102.683 5.94444 102.683 5.84444V5.74444L102.783 5.84444C102.783 5.74444 102.683 5.64444 102.683 5.54444C102.783 5.54444 102.783 5.64444 102.883 5.74444C102.883 5.54444 102.783 5.34444 102.683 5.24444C102.783 5.24444 102.883 5.34444 102.883 5.34444C102.883 5.24444 102.883 5.24444 102.783 5.14444L102.683 5.04444C102.683 5.04444 102.683 5.04444 102.583 4.94444C102.583 4.94444 102.583 4.94444 102.583 4.84444C102.683 4.84444 102.683 4.94444 102.783 4.94444C102.783 4.84444 102.683 4.74444 102.583 4.64444H102.683C102.683 4.64444 102.683 4.54444 102.583 4.54444C102.283 4.44444 102.283 4.44444 102.483 4.44444C102.483 4.54444 102.483 4.54444 102.583 4.54444C102.583 4.54444 102.583 4.54444 102.583 4.64444C102.483 4.54444 102.483 4.44444 102.483 4.44444Z" fill="#D9ECFA"/>
<path d="M116.283 17.7445C116.283 17.6445 116.283 17.6445 116.183 17.5445C116.183 17.5445 116.083 17.4445 116.083 17.3445L115.983 17.2445C115.983 17.2445 115.983 17.2445 115.983 17.1445L115.883 17.0445V16.9445C115.883 16.9445 115.883 16.9445 115.883 16.8445V16.7445C115.883 16.6445 115.883 16.6445 115.983 16.5445V16.4445C115.983 16.4445 115.983 16.3445 115.983 16.2445C115.983 16.1445 115.983 16.1445 115.883 16.0445C115.883 15.9445 115.783 15.8445 115.783 15.8445C115.783 15.7445 115.683 15.7445 115.683 15.6445L115.583 15.5445C115.583 15.5445 115.583 15.5445 115.483 15.4445C115.383 15.4445 115.383 15.3445 115.383 15.3445L115.283 15.2445L115.183 15.1445C115.183 15.1445 115.083 15.1445 115.083 15.0445C114.983 14.9445 114.883 14.9445 114.883 14.8445C114.783 14.8445 114.783 14.7445 114.683 14.7445C114.583 14.7445 114.583 14.7445 114.483 14.7445C114.483 14.7445 114.383 14.7445 114.283 14.7445H114.183C114.083 14.7445 114.083 14.7445 113.983 14.7445C113.983 14.7445 113.983 14.7445 113.883 14.7445C113.883 14.7445 113.883 14.7445 113.783 14.7445C113.683 14.7445 113.583 14.6445 113.483 14.6445H113.383C113.283 14.6445 113.183 14.6445 113.183 14.6445H113.083H112.983C112.983 14.6445 112.983 14.6445 112.883 14.6445C112.883 14.6445 112.883 14.6445 112.883 14.7445L112.783 14.8445C112.683 14.8445 112.683 14.8445 112.583 14.9445C112.583 14.9445 112.483 14.9445 112.483 15.0445H112.383C112.383 15.0445 112.283 15.0445 112.283 15.1445H112.183C112.183 15.1445 112.183 15.1445 112.083 15.1445C112.083 15.1445 112.083 15.1445 112.083 15.2445C112.083 15.2445 111.983 15.2445 111.983 15.3445C111.983 15.3445 111.983 15.3445 111.883 15.3445C111.883 15.3445 111.883 15.3445 111.783 15.3445C111.783 15.3445 111.683 15.4445 111.583 15.4445C111.583 15.4445 111.483 15.4445 111.483 15.5445H111.383C111.383 15.5445 111.383 15.5445 111.283 15.5445V15.6445V15.7445V15.8445V15.9445C111.283 15.9445 111.283 15.9445 111.383 15.9445C111.383 15.9445 111.383 16.0445 111.483 16.0445C111.483 16.0445 111.483 16.0445 111.483 16.1445C111.583 16.2445 111.583 16.3445 111.383 16.4445C111.283 16.4445 111.283 16.4445 111.183 16.5445C111.083 16.5445 111.083 16.5445 110.983 16.6445C110.883 16.6445 110.883 16.6445 110.783 16.6445H110.683H110.583C110.483 16.6445 110.383 16.6445 110.283 16.6445C110.183 16.6445 109.983 16.6445 109.883 16.7445H109.783C109.483 16.7445 109.283 16.7445 108.983 16.7445C108.683 16.7445 108.483 16.7445 108.183 16.7445C107.983 16.7445 107.883 16.7445 107.683 16.8445C107.583 16.8445 107.583 16.8445 107.483 16.8445H107.383H107.283C107.183 16.8445 107.183 16.8445 107.083 16.8445H106.983C106.983 16.8445 106.883 16.8445 106.783 16.8445C106.683 16.8445 106.683 16.8445 106.583 16.8445C106.483 16.8445 106.483 16.8445 106.483 16.8445H106.383C106.383 16.8445 106.383 16.8445 106.283 16.8445C106.183 16.7445 106.083 16.7445 105.983 16.6445C105.883 16.6445 105.883 16.5445 105.783 16.5445C105.783 16.5445 105.683 16.5445 105.683 16.4445L105.583 16.3445C105.583 16.3445 105.583 16.3445 105.583 16.2445V16.1445C105.583 16.0445 105.483 15.9445 105.483 15.8445C105.483 15.7445 105.383 15.6445 105.383 15.5445V15.4445C105.383 15.4445 105.383 15.4445 105.383 15.3445C105.383 15.3445 105.383 15.3445 105.383 15.2445V15.1445H105.283C105.183 15.1445 105.083 15.2445 105.083 15.2445C105.083 15.2445 104.983 15.3445 104.983 15.4445C104.983 15.5445 104.883 15.5445 104.883 15.6445V15.7445V15.8445V15.9445C104.883 16.0445 104.883 16.1445 104.883 16.2445C104.883 16.3445 104.883 16.4445 104.883 16.5445V16.6445C104.883 16.6445 104.883 16.6445 104.883 16.7445C104.883 16.8445 104.983 16.9445 104.983 17.0445C104.983 17.0445 104.883 17.0445 104.883 16.9445C104.883 17.0445 104.983 17.1445 104.983 17.1445C105.083 17.2445 105.183 17.2445 105.183 17.3445C105.083 17.3445 105.083 17.3445 104.983 17.3445C104.983 17.3445 104.983 17.3445 104.983 17.4445C104.983 17.4445 104.983 17.4445 105.083 17.5445C105.083 17.5445 105.083 17.5445 105.083 17.6445C105.083 17.6445 105.083 17.6445 105.183 17.7445C105.183 17.7445 105.183 17.7445 105.283 17.8445C105.283 17.8445 105.283 17.9445 105.383 17.9445C105.383 17.9445 105.383 17.9445 105.483 17.9445C105.483 17.9445 105.483 17.9445 105.483 18.0445C105.483 18.1445 105.483 18.1445 105.483 18.2445V18.3445V18.4445V18.5445V18.6445C105.483 18.8445 105.383 19.0445 105.383 19.2445C105.383 19.2445 105.383 19.2445 105.483 19.1445C105.483 19.2445 105.483 19.3445 105.483 19.4445C105.483 19.4445 105.483 19.5445 105.583 19.5445C105.583 19.6445 105.583 19.6445 105.583 19.7445C105.583 19.8445 105.583 19.8445 105.583 19.9445C105.583 20.0445 105.583 20.0445 105.583 20.0445C105.583 20.0445 105.583 20.0445 105.583 20.1445C105.583 20.2445 105.483 20.2445 105.483 20.3445L105.383 20.4445L105.283 20.5445V20.6445V20.7445V20.8445C105.283 20.9445 105.283 21.0445 105.283 21.1445C105.283 21.2445 105.283 21.2445 105.283 21.3445V21.4445H105.383C105.383 21.5445 105.383 21.5445 105.383 21.6445C105.383 21.7445 105.383 21.7445 105.383 21.8445V21.9445C105.383 22.0445 105.383 22.1445 105.383 22.2445C105.383 22.3445 105.383 22.3445 105.383 22.4445C105.383 22.5445 105.383 22.6445 105.383 22.7445C105.383 22.8445 105.383 22.9445 105.483 22.9445L105.583 23.0445C105.683 23.1445 105.683 23.1445 105.783 23.2445C105.783 23.2445 105.783 23.2445 105.883 23.2445C105.983 23.2445 105.983 23.2445 106.083 23.2445C106.083 23.2445 106.183 23.2445 106.183 23.3445C106.283 23.3445 106.283 23.3445 106.383 23.3445C106.483 23.3445 106.583 23.3445 106.583 23.2445V23.1445V23.0445V22.9445V22.8445C106.583 22.7445 106.583 22.6445 106.583 22.5445C106.583 22.4445 106.483 22.3445 106.483 22.3445C106.483 22.3445 106.483 22.3445 106.483 22.2445V22.1445C106.483 22.0445 106.483 22.0445 106.483 21.9445V21.8445C106.483 21.7445 106.483 21.7445 106.483 21.6445C106.483 21.6445 106.483 21.6445 106.483 21.5445C106.483 21.5445 106.483 21.5445 106.483 21.4445L106.583 21.3445C106.683 21.3445 106.683 21.2445 106.783 21.2445H106.883C106.883 21.2445 106.983 21.2445 106.983 21.1445C106.983 21.1445 106.983 21.1445 107.083 21.1445C107.083 21.2445 106.983 21.3445 106.983 21.4445C106.983 21.5445 106.883 21.5445 106.983 21.6445C106.983 21.7445 107.083 21.8445 107.083 21.9445V22.0445V22.1445V22.2445V22.3445C107.083 22.4445 107.083 22.4445 107.183 22.5445C107.283 22.5445 107.183 22.6445 107.283 22.6445C107.283 22.6445 107.283 22.7445 107.383 22.7445L107.483 22.8445C107.483 22.8445 107.583 22.8445 107.583 22.9445C107.583 23.0445 107.683 23.1445 107.683 23.1445H107.783H107.883C107.983 23.2445 108.183 23.2445 108.283 23.2445C108.383 23.2445 108.383 23.2445 108.483 23.2445C108.583 23.2445 108.583 23.2445 108.683 23.2445H108.783H108.883H108.983H109.083V23.1445C109.083 23.1445 109.083 23.1445 109.083 23.0445V22.9445C109.083 22.9445 109.083 22.8445 108.983 22.8445C108.983 22.8445 108.983 22.7445 108.883 22.7445C108.883 22.7445 108.883 22.7445 108.783 22.6445H108.683H108.583C108.483 22.6445 108.483 22.6445 108.383 22.6445C108.383 22.6445 108.283 22.6445 108.283 22.5445C108.283 22.5445 108.283 22.4445 108.183 22.4445C108.183 22.4445 108.183 22.4445 108.183 22.3445L108.083 22.2445C107.983 22.1445 107.983 22.1445 107.983 22.0445C107.983 22.0445 107.983 22.0445 107.983 21.9445C107.983 21.9445 107.983 21.9445 107.983 21.8445V21.7445V21.6445L108.083 21.5445C108.183 21.4445 108.283 21.3445 108.283 21.3445C108.283 21.3445 108.283 21.2445 108.383 21.3445C108.483 21.3445 108.483 21.3445 108.583 21.3445C108.583 21.3445 108.583 21.3445 108.683 21.3445H108.783H108.883C108.983 21.3445 108.983 21.3445 109.083 21.3445C109.083 21.3445 109.083 21.3445 108.983 21.3445C108.983 21.3445 108.983 21.3445 109.083 21.3445C109.083 21.3445 109.083 21.3445 109.183 21.3445H109.283H109.383C109.383 21.3445 109.383 21.3445 109.483 21.3445H109.583C109.683 21.4445 109.583 21.5445 109.583 21.5445C109.583 21.5445 109.583 21.5445 109.583 21.6445V21.7445C109.583 21.7445 109.583 21.8445 109.483 21.8445C109.483 21.8445 109.483 21.8445 109.383 21.9445H109.483V22.0445V22.1445C109.483 22.0445 109.483 22.1445 109.483 22.2445C109.483 22.3445 109.483 22.3445 109.483 22.4445C109.483 22.5445 109.483 22.5445 109.483 22.6445C109.483 22.8445 109.483 22.9445 109.583 23.0445C109.583 23.1445 109.583 23.2445 109.683 23.3445C109.683 23.4445 109.683 23.4445 109.783 23.5445C109.883 23.5445 109.883 23.6445 109.983 23.6445C109.983 23.6445 110.083 23.6445 110.183 23.6445C110.283 23.6445 110.283 23.6445 110.383 23.7445C110.483 23.7445 110.583 23.8445 110.783 23.7445C110.883 23.7445 111.083 23.7445 111.183 23.7445C111.183 23.7445 111.183 23.7445 111.283 23.7445C111.383 23.7445 111.383 23.7445 111.483 23.7445C111.583 23.7445 111.583 23.5445 111.583 23.4445C111.583 23.3445 111.483 23.3445 111.483 23.2445V23.1445C111.483 23.1445 111.483 23.0445 111.383 23.0445C111.383 23.0445 111.383 23.0445 111.283 22.9445C111.283 22.9445 111.283 22.9445 111.183 22.9445C111.083 22.8445 110.983 22.8445 110.883 22.8445H110.783V22.7445V22.6445V22.5445C110.783 22.4445 110.783 22.4445 110.883 22.3445C110.983 22.1445 110.983 21.8445 111.083 21.6445V21.5445H111.183C111.183 21.5445 111.183 21.5445 111.283 21.5445H111.383C111.483 21.5445 111.483 21.5445 111.583 21.4445C111.583 21.4445 111.583 21.4445 111.483 21.5445C111.483 21.5445 111.483 21.5445 111.583 21.5445H111.683H111.783V21.6445H111.883L111.983 21.5445C111.983 21.5445 111.983 21.5445 112.083 21.5445L112.183 21.4445H112.283C112.283 21.4445 112.283 21.4445 112.383 21.4445C112.383 21.4445 112.383 21.4445 112.383 21.5445C112.383 21.5445 112.383 21.5445 112.383 21.6445C112.383 21.7445 112.383 21.8445 112.383 21.8445C112.383 21.9445 112.383 21.9445 112.383 22.0445C112.383 22.0445 112.383 21.9445 112.483 21.9445V22.0445V22.1445V22.2445V22.3445C112.483 22.3445 112.483 22.3445 112.583 22.3445C112.583 22.4445 112.683 22.4445 112.683 22.5445C112.683 22.5445 112.683 22.5445 112.683 22.6445C112.683 22.6445 112.683 22.6445 112.783 22.6445V22.7445C112.783 22.8445 112.783 22.8445 112.783 22.8445C112.783 22.8445 112.783 22.8445 112.783 22.9445C112.783 22.9445 112.883 22.9445 112.883 23.0445C112.883 23.0445 112.883 23.1445 112.983 23.1445C112.983 23.2445 113.083 23.2445 113.083 23.3445C113.183 23.3445 113.283 23.3445 113.283 23.4445C113.383 23.5445 113.383 23.4445 113.483 23.4445H113.583H113.683H113.783C113.783 23.4445 113.783 23.4445 113.883 23.4445H113.983H114.083H114.183H114.283C114.283 23.4445 114.283 23.4445 114.283 23.3445V23.2445C114.283 23.1445 114.283 23.1445 114.183 23.0445V22.9445V22.8445V22.7445C114.183 22.7445 114.183 22.7445 114.083 22.7445C114.083 22.7445 114.083 22.7445 113.983 22.7445C113.883 22.7445 113.883 22.7445 113.783 22.7445V22.6445C113.783 22.6445 113.783 22.5445 113.683 22.5445V22.4445C113.683 22.3445 113.583 22.2445 113.583 22.2445C113.583 22.1445 113.483 21.9445 113.483 21.8445C113.483 21.8445 113.483 21.8445 113.483 21.7445V21.6445C113.483 21.5445 113.483 21.4445 113.483 21.3445V21.2445C113.483 21.2445 113.483 21.2445 113.483 21.1445C113.483 21.0445 113.483 21.0445 113.483 20.9445C113.483 20.8445 113.483 20.8445 113.483 20.7445C113.483 20.7445 113.483 20.7445 113.483 20.6445V20.5445V20.4445C113.483 20.4445 113.483 20.4445 113.483 20.3445C113.483 20.3445 113.483 20.4445 113.583 20.4445C113.583 20.3445 113.583 20.3445 113.583 20.2445V20.1445C113.583 20.0445 113.583 20.0445 113.583 19.9445V19.8445C113.583 19.7445 113.583 19.7445 113.583 19.6445V19.5445C113.583 19.5445 113.583 19.5445 113.583 19.4445V19.3445C113.583 19.3445 113.583 19.3445 113.583 19.2445C113.583 19.2445 113.583 19.2445 113.583 19.1445C113.583 19.1445 113.583 19.1445 113.583 19.0445C113.583 18.9445 113.583 18.9445 113.683 18.8445C113.683 18.7445 113.783 18.8445 113.783 18.8445H113.883H113.983C113.983 18.8445 113.983 18.8445 114.083 18.8445C114.083 18.8445 114.083 18.8445 114.183 18.8445H114.283C114.383 18.8445 114.383 18.8445 114.483 18.9445H114.583H114.683C114.683 18.9445 114.683 18.9445 114.783 18.9445C114.883 18.9445 114.883 18.9445 114.983 18.8445C114.983 18.8445 114.983 18.8445 115.083 18.8445C115.183 18.8445 115.183 18.7445 115.183 18.7445C115.283 18.7445 115.283 18.7445 115.283 18.6445C115.283 18.6445 115.283 18.6445 115.383 18.6445L115.483 18.5445C115.483 18.5445 115.483 18.5445 115.583 18.5445C115.583 18.5445 115.583 18.5445 115.683 18.5445C115.683 18.5445 115.683 18.5445 115.683 18.4445C115.683 18.4445 115.683 18.4445 115.683 18.3445C116.283 17.9445 116.283 17.8445 116.283 17.7445C116.283 17.8445 116.283 17.8445 116.283 17.7445Z" fill="#005CA9"/>
<path d="M208.55 115.498C208.969 115.9 209.179 116.424 209.179 117.069C209.179 117.715 208.965 118.243 208.537 118.654C208.118 119.055 207.577 119.256 206.914 119.256H203.628V112.435H205.343V114.896H206.914C207.586 114.896 208.131 115.097 208.55 115.498ZM206.6 116.232H205.291V117.92H206.6C206.87 117.92 207.084 117.846 207.241 117.698C207.407 117.541 207.49 117.331 207.49 117.069C207.49 116.816 207.407 116.616 207.241 116.467C207.084 116.31 206.87 116.232 206.6 116.232Z" fill="#005CA9"/>
<path d="M202.388 120.932H200.765V119.256H195.855V112.435H197.57V117.75H199.757V112.435H201.472V117.75H202.388V120.932Z" fill="#005CA9"/>
<path d="M192.292 115.485V113.797H190.957C190.678 113.797 190.455 113.875 190.289 114.032C190.132 114.181 190.053 114.386 190.053 114.648C190.053 114.901 190.132 115.106 190.289 115.263C190.455 115.411 190.678 115.485 190.957 115.485H192.292ZM190.224 119.256H188.286L189.661 116.467C189.268 116.319 188.958 116.079 188.731 115.747C188.504 115.416 188.391 115.023 188.391 114.569C188.391 113.949 188.6 113.439 189.019 113.037C189.447 112.636 189.992 112.435 190.656 112.435H193.968V119.256H192.266V116.834H191.35L190.224 119.256Z" fill="#005CA9"/>
<path d="M187.534 118.405C186.94 119.024 186.189 119.334 185.282 119.334C184.994 119.334 184.714 119.304 184.444 119.243C184.173 119.173 183.898 119.059 183.619 118.902C183.349 118.736 183.113 118.527 182.912 118.274C182.711 118.012 182.546 117.676 182.415 117.266C182.293 116.847 182.231 116.371 182.231 115.839C182.231 115.306 182.293 114.835 182.415 114.425C182.546 114.006 182.711 113.67 182.912 113.417C183.113 113.164 183.349 112.954 183.619 112.788C183.898 112.623 184.173 112.509 184.444 112.448C184.714 112.387 184.994 112.356 185.282 112.356C186.198 112.356 186.949 112.662 187.534 113.273L186.381 114.425C186.05 114.067 185.683 113.888 185.282 113.888C184.88 113.888 184.557 114.037 184.313 114.333C184.06 114.647 183.933 115.149 183.933 115.839C183.933 116.537 184.06 117.043 184.313 117.357C184.557 117.654 184.88 117.803 185.282 117.803C185.683 117.803 186.05 117.624 186.381 117.266L187.534 118.405Z" fill="#005CA9"/>
<path d="M180.669 119.256H178.967V112.631H180.669V119.256ZM180.682 111.27H178.94V109.882H180.682V111.27Z" fill="#005CA9"/>
<path d="M177.058 119.256H175.357V115.315L174.074 117.842H173.105L171.809 115.315V119.256H170.094V112.435H171.783L173.589 116.022L175.383 112.435H177.058V119.256Z" fill="#005CA9"/>
<path d="M163.949 119.256H162.247V111.767L160.349 113.417V111.584L162.247 109.934H163.949V119.256Z" fill="#005CA9"/>
<path d="M288.214 73.1912V71.5024H286.879C286.599 71.5024 286.377 71.5809 286.211 71.738C286.054 71.8864 285.975 72.0915 285.975 72.3533C285.975 72.6065 286.054 72.8116 286.211 72.9687C286.377 73.117 286.599 73.1912 286.879 73.1912H288.214ZM286.146 76.9616H284.208L285.583 74.1731C285.19 74.0247 284.88 73.7847 284.653 73.453C284.426 73.1214 284.313 72.7286 284.313 72.2748C284.313 71.6551 284.522 71.1446 284.941 70.7431C285.369 70.3416 285.914 70.1409 286.578 70.1409H289.89V76.9616H288.188V74.5396H287.271L286.146 76.9616Z" fill="#005CA9"/>
<path d="M282.883 76.9616H281.168V74.2254H278.982V76.9616H277.267V70.1409H278.982V72.7199H281.168V70.1409H282.883V76.9616Z" fill="#005CA9"/>
<path d="M275.378 76.9616H273.663V74.2254H271.477V76.9616H269.762V70.1409H271.477V72.7199H273.663V70.1409H275.378V76.9616Z" fill="#005CA9"/>
<path d="M268.206 74.0814H263.938C263.938 74.5352 264.069 74.9018 264.331 75.1811C264.593 75.4604 264.96 75.6 265.431 75.6C265.78 75.6 266.064 75.552 266.282 75.456C266.509 75.3513 266.74 75.1854 266.976 74.9585L268.01 75.9666C267.643 76.3419 267.264 76.6168 266.871 76.7913C266.487 76.9572 266.003 77.0401 265.418 77.0401C264.981 77.0401 264.584 76.9877 264.226 76.883C263.877 76.7695 263.55 76.5862 263.245 76.3331C262.939 76.08 262.699 75.7178 262.525 75.2465C262.35 74.7752 262.263 74.2079 262.263 73.5446C262.263 72.4537 262.533 71.6027 263.074 70.9918C263.615 70.3721 264.336 70.0623 265.234 70.0623C266.168 70.0623 266.897 70.3677 267.421 70.9787C267.944 71.5809 268.206 72.3751 268.206 73.3613V74.0814ZM266.531 72.9162C266.522 72.6195 266.469 72.3751 266.373 72.1831C266.164 71.7118 265.784 71.4761 265.234 71.4761C264.685 71.4761 264.305 71.7118 264.096 72.1831C264 72.3751 263.947 72.6195 263.938 72.9162H266.531Z" fill="#005CA9"/>
<path d="M260.707 76.9616H259.005V74.5658C258.315 74.688 257.696 74.7491 257.146 74.7491C256.587 74.7491 256.129 74.5833 255.771 74.2516C255.413 73.92 255.234 73.4661 255.234 72.8901V70.1409H256.936V72.4188C256.936 72.9687 257.216 73.2436 257.774 73.2436C257.992 73.2436 258.403 73.2043 259.005 73.1258V70.1409H260.707V76.9616Z" fill="#005CA9"/>
<path d="M254.485 70.1409L251.565 78.0613C251.382 78.55 251.133 78.9035 250.819 79.1217C250.513 79.3486 250.103 79.4621 249.588 79.4621H248.921V77.9304H249.313C249.567 77.9304 249.75 77.8867 249.863 77.7995C249.977 77.7209 250.077 77.5594 250.164 77.3151L250.452 76.4772L248.122 70.1409H249.916L251.33 74.3564L252.691 70.1409H254.485Z" fill="#005CA9"/>
<path d="M247.174 76.9616H245.472V71.6464H243.836V73.2829C243.836 74.6706 243.657 75.6306 243.299 76.163C242.941 76.6954 242.391 76.9616 241.65 76.9616H240.838V75.4561H241.047C241.231 75.4561 241.375 75.4386 241.479 75.4037C241.584 75.3601 241.698 75.264 241.82 75.1157C241.951 74.9586 242.042 74.6967 242.095 74.3302C242.156 73.9636 242.186 73.488 242.186 72.9032V70.1409H247.174V76.9616Z" fill="#005CA9"/>
<path d="M240.352 78.6373H238.742V76.9616H234.841V78.6373H233.23V75.4561H233.924C234.369 74.6618 234.592 73.584 234.592 72.2224V70.1409H239.488V75.4561H240.352V78.6373ZM237.786 75.4561V71.6464H236.228V72.5366C236.228 73.7672 236.054 74.7404 235.705 75.4561H237.786Z" fill="#005CA9"/>
<path d="M232.113 76.9615H230.411V70.3371H232.113V76.9615ZM232.126 68.9756H230.385V67.5879H232.126V68.9756Z" fill="#005CA9"/>
<path d="M227.397 72.1829C227.694 72.34 227.929 72.5058 228.104 72.6804C228.488 73.0906 228.68 73.6274 228.68 74.2907C228.68 75.1111 228.423 75.7613 227.908 76.2413C227.393 76.7213 226.699 76.9614 225.826 76.9614H221.925V67.6401H225.669C226.551 67.6401 227.249 67.8714 227.764 68.334C228.287 68.7966 228.549 69.4206 228.549 70.2061C228.549 71.0963 228.165 71.7553 227.397 72.1829ZM223.745 71.4105H225.525C225.9 71.4105 226.193 71.3145 226.402 71.1225C226.62 70.9305 226.729 70.6687 226.729 70.337C226.729 70.0054 226.62 69.7435 226.402 69.5515C226.193 69.3595 225.9 69.2635 225.525 69.2635H223.745V71.4105ZM223.745 75.338H225.643C226.018 75.338 226.315 75.2333 226.533 75.0238C226.751 74.8143 226.86 74.535 226.86 74.1859C226.86 73.8368 226.751 73.5619 226.533 73.3612C226.315 73.1517 226.018 73.047 225.643 73.047H223.745V75.338Z" fill="#005CA9"/>
<path d="M409.02 71.6464H407.056V76.9616H405.341V71.6464H403.338V70.1409H409.02V71.6464Z" fill="#005CA9"/>
<path d="M402.821 76.1106C402.227 76.7302 401.477 77.0401 400.569 77.0401C400.281 77.0401 400.002 77.0095 399.731 76.9484C399.46 76.8786 399.186 76.7652 398.906 76.6081C398.636 76.4422 398.4 76.2328 398.199 75.9797C397.999 75.7178 397.833 75.3818 397.702 74.9716C397.58 74.5527 397.519 74.077 397.519 73.5446C397.519 73.0122 397.58 72.5409 397.702 72.1307C397.833 71.7118 397.999 71.3758 398.199 71.1227C398.4 70.8696 398.636 70.6601 398.906 70.4943C399.186 70.3285 399.46 70.215 399.731 70.1539C400.002 70.0928 400.281 70.0623 400.569 70.0623C401.485 70.0623 402.236 70.3677 402.821 70.9787L401.669 72.1307C401.337 71.7729 400.97 71.594 400.569 71.594C400.167 71.594 399.844 71.7423 399.6 72.0391C399.347 72.3533 399.22 72.8551 399.22 73.5446C399.22 74.2428 399.347 74.749 399.6 75.0632C399.844 75.36 400.167 75.5084 400.569 75.5084C400.97 75.5084 401.337 75.3294 401.669 74.9716L402.821 76.1106Z" fill="#005CA9"/>
<path d="M395.956 76.9615H394.254V70.3371H395.956V76.9615ZM395.969 68.9756H394.228V67.5879H395.969V68.9756Z" fill="#005CA9"/>
<path d="M392.016 68.478C392.575 69.0366 392.854 69.7261 392.854 70.5465C392.854 71.3669 392.575 72.0564 392.016 72.6149C391.466 73.1735 390.72 73.4528 389.777 73.4528H387.984V76.9614H386.164V67.6401H389.777C390.72 67.6401 391.466 67.9194 392.016 68.478ZM390.668 71.476C390.912 71.2403 391.034 70.9305 391.034 70.5465C391.034 70.1625 390.912 69.8526 390.668 69.617C390.423 69.3813 390.096 69.2635 389.686 69.2635H387.984V71.8164H389.686C390.096 71.8164 390.423 71.7029 390.668 71.476Z" fill="#005CA9"/>
<path fill-rule="evenodd" clip-rule="evenodd" d="M183.984 87.8391C184.625 87.8391 185.145 88.3588 185.145 88.9999V91.0999C185.145 91.741 184.625 92.2607 183.984 92.2607C183.343 92.2607 182.823 91.741 182.823 91.0999V88.9999C182.823 88.3588 183.343 87.8391 183.984 87.8391ZM183.984 94.1391C184.625 94.1391 185.145 94.6588 185.145 95.2999V99.4999C185.145 100.141 184.625 100.661 183.984 100.661C183.343 100.661 182.823 100.141 182.823 99.4999V95.2999C182.823 94.6588 183.343 94.1391 183.984 94.1391ZM183.984 102.539C184.625 102.539 185.145 103.059 185.145 103.7V105.8C185.145 106.441 184.625 106.961 183.984 106.961C183.343 106.961 182.823 106.441 182.823 105.8V103.7C182.823 103.059 183.343 102.539 183.984 102.539Z" fill="#D9ECFA"/>
<path d="M345.343 119.256H343.641V112.631H345.343V119.256ZM345.356 111.27H343.615V109.882H345.356V111.27Z" fill="#005CA9"/>
<path d="M342.388 120.932H340.765V119.256H335.855V112.435H337.57V117.75H339.757V112.435H341.472V117.75H342.388V120.932Z" fill="#005CA9"/>
<path d="M332.292 115.485V113.797H330.957C330.678 113.797 330.455 113.875 330.289 114.032C330.132 114.181 330.053 114.386 330.053 114.648C330.053 114.901 330.132 115.106 330.289 115.263C330.455 115.411 330.678 115.485 330.957 115.485H332.292ZM330.224 119.256H328.286L329.661 116.467C329.268 116.319 328.958 116.079 328.731 115.747C328.504 115.416 328.391 115.023 328.391 114.569C328.391 113.949 328.6 113.439 329.019 113.037C329.447 112.636 329.992 112.435 330.656 112.435H333.968V119.256H332.266V116.834H331.35L330.224 119.256Z" fill="#005CA9"/>
<path d="M327.534 118.405C326.94 119.024 326.189 119.334 325.282 119.334C324.994 119.334 324.714 119.304 324.444 119.243C324.173 119.173 323.898 119.059 323.619 118.902C323.349 118.736 323.113 118.527 322.912 118.274C322.711 118.012 322.546 117.676 322.415 117.266C322.293 116.847 322.231 116.371 322.231 115.839C322.231 115.306 322.293 114.835 322.415 114.425C322.546 114.006 322.711 113.67 322.912 113.417C323.113 113.164 323.349 112.954 323.619 112.788C323.898 112.623 324.173 112.509 324.444 112.448C324.714 112.387 324.994 112.356 325.282 112.356C326.198 112.356 326.949 112.662 327.534 113.273L326.381 114.425C326.05 114.067 325.683 113.888 325.282 113.888C324.88 113.888 324.557 114.037 324.313 114.333C324.06 114.647 323.933 115.149 323.933 115.839C323.933 116.537 324.06 117.043 324.313 117.357C324.557 117.654 324.88 117.803 325.282 117.803C325.683 117.803 326.05 117.624 326.381 117.266L327.534 118.405Z" fill="#005CA9"/>
<path d="M320.669 119.256H318.967V112.631H320.669V119.256ZM320.682 111.27H318.94V109.882H320.682V111.27Z" fill="#005CA9"/>
<path d="M317.058 119.256H315.357V115.315L314.074 117.842H313.105L311.809 115.315V119.256H310.094V112.435H311.783L313.589 116.022L315.383 112.435H317.058V119.256Z" fill="#005CA9"/>
<path d="M305.441 119.256H299.772V117.724L303.255 113.679C303.578 113.295 303.739 112.919 303.739 112.553C303.739 112.204 303.639 111.924 303.438 111.715C303.246 111.497 302.971 111.388 302.613 111.388C302.29 111.388 302.02 111.484 301.802 111.676C301.583 111.859 301.474 112.16 301.474 112.579H299.772C299.772 111.75 300.039 111.091 300.571 110.602C301.112 110.105 301.793 109.856 302.613 109.856C303.451 109.856 304.132 110.1 304.656 110.589C305.179 111.078 305.441 111.737 305.441 112.566C305.441 112.985 305.367 113.338 305.219 113.626C305.07 113.914 304.813 114.272 304.446 114.7L301.841 117.724H305.441V119.256Z" fill="#005CA9"/>
<path fill-rule="evenodd" clip-rule="evenodd" d="M322.184 87.8391C322.825 87.8391 323.345 88.3588 323.345 88.9999V91.0999C323.345 91.741 322.825 92.2607 322.184 92.2607C321.543 92.2607 321.023 91.741 321.023 91.0999V88.9999C321.023 88.3588 321.543 87.8391 322.184 87.8391ZM322.184 94.1391C322.825 94.1391 323.345 94.6588 323.345 95.2999V99.4999C323.345 100.141 322.825 100.661 322.184 100.661C321.543 100.661 321.023 100.141 321.023 99.4999V95.2999C321.023 94.6588 321.543 94.1391 322.184 94.1391ZM322.184 102.539C322.825 102.539 323.345 103.059 323.345 103.7V105.8C323.345 106.441 322.825 106.961 322.184 106.961C321.543 106.961 321.023 106.441 321.023 105.8V103.7C321.023 103.059 321.543 102.539 322.184 102.539Z" fill="#D9ECFA"/>
<path d="M73.0881 21.8179V20.1291H71.7527C71.4734 20.1291 71.2509 20.2077 71.0851 20.3648C70.928 20.5131 70.8494 20.7182 70.8494 20.9801C70.8494 21.2332 70.928 21.4383 71.0851 21.5954C71.2509 21.7437 71.4734 21.8179 71.7527 21.8179H73.0881ZM71.0196 25.5883H69.082L70.4566 22.7998C70.0639 22.6514 69.7541 22.4114 69.5271 22.0798C69.3002 21.7481 69.1868 21.3554 69.1868 20.9015C69.1868 20.2818 69.3962 19.7713 69.8152 19.3698C70.2428 18.9683 70.7883 18.7676 71.4516 18.7676H74.7638V25.5883H73.0619V23.1664H72.1455L71.0196 25.5883Z" fill="#005CA9"/>
<path d="M67.7569 25.5883H66.0419V22.8522H63.8556V25.5883H62.1406V18.7676H63.8556V21.3466H66.0419V18.7676H67.7569V25.5883Z" fill="#005CA9"/>
<path d="M60.252 25.5883H58.537V22.8522H56.3507V25.5883H54.6357V18.7676H56.3507V21.3466H58.537V18.7676H60.252V25.5883Z" fill="#005CA9"/>
<path d="M53.0803 22.7081H48.8124C48.8124 23.1619 48.9434 23.5285 49.2052 23.8078C49.467 24.0871 49.8336 24.2267 50.3049 24.2267C50.654 24.2267 50.9376 24.1787 51.1558 24.0827C51.3828 23.978 51.614 23.8121 51.8497 23.5852L52.8839 24.5933C52.5174 24.9686 52.1377 25.2435 51.745 25.418C51.3609 25.5839 50.8766 25.6668 50.2918 25.6668C49.8554 25.6668 49.4583 25.6144 49.1005 25.5097C48.7513 25.3962 48.4241 25.2129 48.1186 24.9598C47.8131 24.7067 47.5731 24.3445 47.3985 23.8732C47.224 23.4019 47.1367 22.8346 47.1367 22.1713C47.1367 21.0804 47.4073 20.2294 47.9484 19.6185C48.4895 18.9988 49.2096 18.689 50.1085 18.689C51.0424 18.689 51.7711 18.9944 52.2948 19.6054C52.8185 20.2076 53.0803 21.0018 53.0803 21.988V22.7081ZM51.4046 21.5429C51.3959 21.2462 51.3435 21.0018 51.2475 20.8098C51.038 20.3385 50.6584 20.1029 50.1085 20.1029C49.5587 20.1029 49.179 20.3385 48.9695 20.8098C48.8735 21.0018 48.8212 21.2462 48.8124 21.5429H51.4046Z" fill="#005CA9"/>
<path d="M46.8599 25.5883H44.8699L42.6575 22.0143L44.7652 18.7676H46.7159L44.4772 21.9488L46.8599 25.5883ZM42.6444 25.5883H40.9294V18.7676H42.6444V25.5883ZM38.7169 25.5883H36.7139L39.1096 21.9488L36.871 18.7676H38.8216L40.9163 22.0143L38.7169 25.5883Z" fill="#005CA9"/>
<path d="M36.49 27.264H34.8797V25.5883H30.9784V27.264H29.3682V24.0828H30.062C30.5071 23.2885 30.7297 22.2107 30.7297 20.8491V18.7676H35.6259V24.0828H36.49V27.264ZM33.924 24.0828V20.2731H32.3661V21.1633C32.3661 22.394 32.1916 23.3671 31.8425 24.0828H33.924Z" fill="#005CA9"/>
<path d="M28.7226 22.1713C28.7226 22.8259 28.6659 23.3583 28.5524 23.7685C28.4477 24.17 28.247 24.5235 27.9502 24.8289C27.4091 25.3875 26.7021 25.6668 25.8294 25.6668C24.9653 25.6668 24.2627 25.3875 23.7216 24.8289C23.4249 24.5147 23.2198 24.1569 23.1063 23.7554C23.0016 23.3452 22.9492 22.8172 22.9492 22.1713C22.9492 21.5255 23.0016 21.0018 23.1063 20.6003C23.2198 20.1989 23.4249 19.841 23.7216 19.5268C24.2627 18.9683 24.9653 18.689 25.8294 18.689C26.7196 18.689 27.4265 18.9683 27.9502 19.5268C28.247 19.841 28.4477 20.1989 28.5524 20.6003C28.6659 21.0018 28.7226 21.5255 28.7226 22.1713ZM27.0207 22.1713C27.0207 21.3247 26.8898 20.7749 26.628 20.5218C26.4272 20.3211 26.161 20.2207 25.8294 20.2207C25.5064 20.2207 25.2446 20.3211 25.0439 20.5218C24.782 20.7749 24.6511 21.3247 24.6511 22.1713C24.6511 23.0266 24.782 23.5809 25.0439 23.834C25.2446 24.0347 25.5064 24.1351 25.8294 24.1351C26.161 24.1351 26.4272 24.0347 26.628 23.834C26.8898 23.5809 27.0207 23.0266 27.0207 22.1713Z" fill="#005CA9"/>
<path d="M21.6191 22.1713C21.6191 22.8783 21.5754 23.4587 21.4882 23.9125C21.4009 24.3664 21.2089 24.746 20.9121 25.0515C20.5194 25.4617 19.9695 25.6668 19.2626 25.6668C18.5556 25.6668 18.0058 25.4399 17.613 24.986V28.0887H15.9111V18.7675H17.5607V19.409C17.9883 18.929 18.5556 18.689 19.2626 18.689C19.9695 18.689 20.5194 18.8941 20.9121 19.3043C21.2089 19.6097 21.4009 19.9894 21.4882 20.4432C21.5754 20.8971 21.6191 21.4731 21.6191 22.1713ZM19.8779 22.9568C19.9041 22.7474 19.9172 22.4855 19.9172 22.1713C19.9172 21.8571 19.9041 21.5997 19.8779 21.3989C19.8517 21.1895 19.7993 20.9887 19.7208 20.7967C19.651 20.6047 19.5331 20.4607 19.3673 20.3647C19.2102 20.2687 19.0095 20.2207 18.7651 20.2207C18.5207 20.2207 18.3156 20.2687 18.1498 20.3647C17.9927 20.4607 17.8749 20.6047 17.7963 20.7967C17.7265 20.9887 17.6785 21.1895 17.6523 21.3989C17.6261 21.5997 17.613 21.8571 17.613 22.1713C17.613 22.4855 17.6261 22.7474 17.6523 22.9568C17.6785 23.1576 17.7265 23.3583 17.7963 23.559C17.8749 23.7511 17.9927 23.8951 18.1498 23.9911C18.3156 24.0871 18.5207 24.1351 18.7651 24.1351C19.0095 24.1351 19.2102 24.0871 19.3673 23.9911C19.5331 23.8951 19.651 23.7511 19.7208 23.559C19.7993 23.3583 19.8517 23.1576 19.8779 22.9568Z" fill="#005CA9"/>
<path d="M14.0761 25.5882H12.4134V24.9991C12.1778 25.2348 11.9334 25.405 11.6803 25.5097C11.4359 25.6057 11.1217 25.6537 10.7377 25.6537C9.9784 25.6537 9.39801 25.453 8.99653 25.0515C8.62124 24.6587 8.43359 24.1482 8.43359 23.5198C8.43359 22.9437 8.63433 22.4724 9.03581 22.1059C9.43728 21.7306 10.022 21.5429 10.7901 21.5429H12.3742V21.2026C12.3742 20.8273 12.2738 20.5567 12.0731 20.3909C11.8723 20.2163 11.5494 20.129 11.1043 20.129C10.5719 20.129 10.1355 20.3254 9.79512 20.7182L8.72161 19.6577C9.05326 19.2912 9.39801 19.0381 9.75585 18.8984C10.1224 18.7588 10.5937 18.689 11.1697 18.689C13.1073 18.689 14.0761 19.4919 14.0761 21.0978V25.5882ZM12.3742 23.0747V22.7081H11.0781C10.4061 22.7081 10.07 22.9699 10.07 23.4936C10.07 24.0085 10.4148 24.266 11.1043 24.266C11.5494 24.266 11.8854 24.1569 12.1123 23.9387C12.2869 23.7903 12.3742 23.5023 12.3742 23.0747Z" fill="#005CA9"/>
<path d="M6.88146 25.5883H5.06172V21.687H1.90665V25.5883H0.0869141V16.2671H1.90665V20.0767H5.06172V16.2671H6.88146V25.5883Z" fill="#005CA9"/>
<path d="M43.8842 71.2444C41.5842 71.2444 39.7842 73.1444 39.7842 75.3444C39.7842 77.6444 41.6842 79.4444 43.8842 79.4444C46.1842 79.4444 47.9842 77.5444 47.9842 75.3444C48.0842 73.1444 46.1842 71.2444 43.8842 71.2444Z" fill="#005CA9"/>
<path d="M43.8838 67.4443C39.4838 67.4443 35.8838 71.0443 35.8838 75.4443C35.8838 79.8443 39.4838 83.4443 43.8838 83.4443C48.2838 83.4443 51.8838 79.8443 51.8838 75.4443C51.8838 71.0443 48.2838 67.4443 43.8838 67.4443ZM43.8838 81.1443C40.7838 81.1443 38.1838 78.5443 38.1838 75.4443C38.1838 72.3443 40.7838 69.7443 43.8838 69.7443C46.9838 69.7443 49.5838 72.3443 49.5838 75.4443C49.5838 78.5443 47.0838 81.1443 43.8838 81.1443Z" fill="#D9ECFA"/>
<path fill-rule="evenodd" clip-rule="evenodd" d="M43.2842 103.544V84.3442H45.2842V103.544H43.2842Z" fill="black"/>
<path fill-rule="evenodd" clip-rule="evenodd" d="M43.2842 66.4442V35.3442H45.2842V66.4442H43.2842Z" fill="black"/>
<mask id="mask0_4203_3441" style="mask-type:luminance" maskUnits="userSpaceOnUse" x="184" y="47" width="134" height="14">
<path d="M317.584 47.5444H184.584V60.8444H317.584V47.5444Z" fill="white"/>
</mask>
<g mask="url(#mask0_4203_3441)">
<path fill-rule="evenodd" clip-rule="evenodd" d="M183.288 63.2647L199.188 44.0647L199.381 44.2242L183.481 63.4241L183.288 63.2647Z" fill="#D9ECFA"/>
<path fill-rule="evenodd" clip-rule="evenodd" d="M186.889 66.1645L202.789 47.0645L202.981 47.2244L187.081 66.3244L186.889 66.1645Z" fill="#D9ECFA"/>
<path fill-rule="evenodd" clip-rule="evenodd" d="M188.588 68.8644L210.088 43.0645L210.28 43.2245L188.78 69.0245L188.588 68.8644Z" fill="#D9ECFA"/>
<path fill-rule="evenodd" clip-rule="evenodd" d="M189.088 73.4646L210.488 47.6646L210.68 47.8242L189.28 73.6242L189.088 73.4646Z" fill="#D9ECFA"/>
<path fill-rule="evenodd" clip-rule="evenodd" d="M196.688 70.3647L218.088 44.5647L218.281 44.7243L196.881 70.5243L196.688 70.3647Z" fill="#D9ECFA"/>
<path fill-rule="evenodd" clip-rule="evenodd" d="M199.488 72.5644L220.988 46.7644L221.18 46.9245L199.68 72.7245L199.488 72.5644Z" fill="#D9ECFA"/>
<path fill-rule="evenodd" clip-rule="evenodd" d="M206.388 69.4646L227.788 43.6646L227.98 43.8242L206.58 69.6242L206.388 69.4646Z" fill="#D9ECFA"/>
<path fill-rule="evenodd" clip-rule="evenodd" d="M206.788 74.0647L228.188 48.2646L228.381 48.4243L206.981 74.2243L206.788 74.0647Z" fill="#D9ECFA"/>
<path fill-rule="evenodd" clip-rule="evenodd" d="M215.688 68.6647L237.088 42.8647L237.281 43.0244L215.881 68.8244L215.688 68.6647Z" fill="#D9ECFA"/>
<path fill-rule="evenodd" clip-rule="evenodd" d="M216.088 73.2646L237.488 47.4646L237.68 47.6242L216.28 73.4242L216.088 73.2646Z" fill="#D9ECFA"/>
<path fill-rule="evenodd" clip-rule="evenodd" d="M225.688 67.7646L247.088 41.9646L247.281 42.1242L225.881 67.9242L225.688 67.7646Z" fill="#D9ECFA"/>
<path fill-rule="evenodd" clip-rule="evenodd" d="M226.088 72.2644L247.588 46.4644L247.78 46.6244L226.28 72.4244L226.088 72.2644Z" fill="#D9ECFA"/>
<path fill-rule="evenodd" clip-rule="evenodd" d="M234.988 66.8647L256.388 41.0647L256.581 41.2243L235.181 67.0243L234.988 66.8647Z" fill="#D9ECFA"/>
<path fill-rule="evenodd" clip-rule="evenodd" d="M235.388 71.4646L256.788 45.6646L256.98 45.8242L235.58 71.6242L235.388 71.4646Z" fill="#D9ECFA"/>
<path fill-rule="evenodd" clip-rule="evenodd" d="M244.588 65.9646L265.988 40.1646L266.18 40.3242L244.78 66.1242L244.588 65.9646Z" fill="#D9ECFA"/>
<path fill-rule="evenodd" clip-rule="evenodd" d="M244.988 70.5647L266.388 44.7646L266.581 44.9243L245.181 70.7243L244.988 70.5647Z" fill="#D9ECFA"/>
<path fill-rule="evenodd" clip-rule="evenodd" d="M253.488 65.1647L274.888 39.3647L275.081 39.5244L253.681 65.3244L253.488 65.1647Z" fill="#D9ECFA"/>
<path fill-rule="evenodd" clip-rule="evenodd" d="M253.888 69.7646L275.288 43.9646L275.48 44.1242L254.08 69.9242L253.888 69.7646Z" fill="#D9ECFA"/>
<path fill-rule="evenodd" clip-rule="evenodd" d="M262.788 64.2646L284.188 38.4646L284.381 38.6242L262.981 64.4242L262.788 64.2646Z" fill="#D9ECFA"/>
<path fill-rule="evenodd" clip-rule="evenodd" d="M263.188 68.8647L284.588 43.0647L284.781 43.2243L263.381 69.0243L263.188 68.8647Z" fill="#D9ECFA"/>
<path fill-rule="evenodd" clip-rule="evenodd" d="M271.389 63.4646L292.889 37.6646L293.081 37.8246L271.581 63.6246L271.389 63.4646Z" fill="#D9ECFA"/>
<path fill-rule="evenodd" clip-rule="evenodd" d="M271.888 68.0647L293.288 42.2646L293.48 42.4243L272.08 68.2243L271.888 68.0647Z" fill="#D9ECFA"/>
<path fill-rule="evenodd" clip-rule="evenodd" d="M280.088 62.6647L301.488 36.8647L301.68 37.0244L280.28 62.8244L280.088 62.6647Z" fill="#D9ECFA"/>
<path fill-rule="evenodd" clip-rule="evenodd" d="M280.488 67.2644L301.988 41.4644L302.18 41.6244L280.68 67.4244L280.488 67.2644Z" fill="#D9ECFA"/>
<path fill-rule="evenodd" clip-rule="evenodd" d="M288.488 61.8647L309.888 36.0647L310.081 36.2243L288.681 62.0243L288.488 61.8647Z" fill="#D9ECFA"/>
<path fill-rule="evenodd" clip-rule="evenodd" d="M288.889 66.4646L310.389 40.6646L310.581 40.8246L289.081 66.6246L288.889 66.4646Z" fill="#D9ECFA"/>
<path fill-rule="evenodd" clip-rule="evenodd" d="M297.688 61.0647L319.088 35.2646L319.281 35.4243L297.881 61.2243L297.688 61.0647Z" fill="#D9ECFA"/>
<path fill-rule="evenodd" clip-rule="evenodd" d="M298.088 65.6647L319.488 39.8647L319.68 40.0244L298.28 65.8244L298.088 65.6647Z" fill="#D9ECFA"/>
<path fill-rule="evenodd" clip-rule="evenodd" d="M302.688 65.1644L324.088 39.4644L324.281 39.6243L302.881 65.3243L302.688 65.1644Z" fill="#D9ECFA"/>
</g>
<path opacity="0.69" d="M495.084 121.744H317.449H294.084V108.1L309.761 91.4686V71.204L317.749 65.3103L317.449 20.7444H495.084V121.744Z" fill="white"/>
</svg>
