<svg width="81" height="259" viewBox="0 0 81 259" fill="none" xmlns="http://www.w3.org/2000/svg">
<path d="M0 0H81V211C81 237.51 59.5097 259 33 259H0V0Z" fill="#007ABD"/>
<path d="M66.212 142.41V144.286H64V150.838H54.032V148.892H62.264V145.518H54.032V143.572H62.264V142.41H66.212ZM54.032 134.092L62.32 137.62C63.44 138.096 64 138.838 64 139.846V141.036H62.264V140.252C62.264 139.748 62.054 139.403 61.634 139.216L60.948 138.922L54.032 142.114V140.084L58.834 137.998L54.032 136.108V134.092ZM66.212 124.445V126.321H64V132.873H54.032V130.927H62.264V127.553H54.032V125.607H62.264V124.445H66.212ZM64 116.34V122.906H54.032V116.34H55.768V120.96H58.106V117.026H59.842V120.96H62.264V116.34H64ZM64 107.164V109.11H59.828V112.484H64V114.43H54.032V112.484H58.106V109.11H54.032V107.164H64ZM60.248 101.612L64 103.25V105.56L59.856 103.502C59.6133 104.034 59.2587 104.454 58.792 104.762C58.316 105.06 57.7653 105.21 57.14 105.21C56.1973 105.21 55.446 104.906 54.886 104.3C54.3167 103.693 54.032 102.904 54.032 101.934V98.0698H64V100.016H60.248V101.612ZM58.526 100.016H55.74V101.836C55.74 102.274 55.866 102.624 56.118 102.886C56.37 103.147 56.7013 103.278 57.112 103.278C57.5227 103.278 57.8633 103.147 58.134 102.886C58.3953 102.615 58.526 102.265 58.526 101.836V100.016Z" fill="white"/>
<path d="M54.417 167.027C54.2764 167.085 54.1158 167.105 53.9953 167.182C53.9752 167.202 53.9551 167.202 53.935 167.221C53.9149 167.24 53.8949 167.26 53.8748 167.279C53.7744 167.356 53.6539 167.395 53.5535 167.473C53.4731 167.531 53.4129 167.589 53.3125 167.628C53.2723 167.647 53.2321 167.666 53.2121 167.686C53.1719 167.705 53.1518 167.744 53.1117 167.782C53.0514 167.84 52.9912 167.899 52.9108 167.937C52.8305 167.976 52.7301 167.995 52.6498 167.995C52.6096 167.995 52.5694 167.995 52.5293 167.976C52.4289 167.957 52.3285 167.918 52.228 167.899C52.1075 167.86 52.0071 167.802 51.8866 167.782C51.8063 167.763 51.7461 167.744 51.6657 167.724C51.5653 167.705 51.4649 167.666 51.3444 167.666C51.2039 167.666 51.0834 167.724 50.9629 167.782C50.8022 167.86 50.6014 167.899 50.4608 167.995C50.3403 168.073 50.2198 168.17 50.0993 168.247C50.019 168.286 49.9588 168.344 49.8985 168.402C49.8784 168.421 49.8182 168.499 49.778 168.499C49.7379 168.499 49.7178 168.499 49.6977 168.499C49.6575 168.595 49.537 168.673 49.4567 168.731C49.3965 168.789 49.3362 168.866 49.276 168.944C49.2157 169.021 49.1555 169.06 49.0952 169.138C49.0551 169.196 49.0149 169.254 48.9547 169.312C48.8342 169.467 48.7137 169.622 48.6133 169.796C48.5329 169.912 48.4526 170.028 48.4125 170.164C48.3723 170.26 48.3723 170.377 48.312 170.473C48.292 170.512 48.2719 170.531 48.2719 170.57C48.2719 170.589 48.2518 170.609 48.2518 170.628C48.2317 170.725 48.2518 170.841 48.2719 170.938C48.292 171.035 48.312 171.112 48.312 171.19C48.312 171.306 48.3321 171.403 48.292 171.499C48.2719 171.557 48.2518 171.596 48.2116 171.635C48.1715 171.674 48.1313 171.693 48.1112 171.751C48.051 171.887 47.9706 172.08 48.0108 172.254C48.0309 172.332 48.0309 172.39 48.0309 172.467C48.051 172.622 48.0911 172.796 48.1313 172.951C48.1514 173.029 48.1715 173.126 48.2116 173.203C48.2317 173.261 48.2719 173.319 48.292 173.377C48.312 173.416 48.292 173.474 48.312 173.513C48.312 173.571 48.312 173.551 48.3522 173.551C48.4125 173.532 48.4325 173.532 48.4727 173.59C48.5329 173.687 48.5932 173.745 48.6334 173.861C48.6735 173.997 48.7137 174.132 48.7739 174.248C48.794 174.326 48.8543 174.384 48.8944 174.461C48.9145 174.519 48.9346 174.597 48.9747 174.655C49.0149 174.732 49.0752 174.79 49.1153 174.868C49.1354 174.926 49.1555 174.984 49.1756 175.042C49.1756 175.081 49.1555 175.139 49.1957 175.178C49.1957 175.139 49.2157 175.119 49.2559 175.1C49.2961 175.081 49.3362 175.119 49.3563 175.158C49.4166 175.255 49.4366 175.332 49.4969 175.429C49.517 175.487 49.5571 175.507 49.5772 175.565C49.5973 175.603 49.5973 175.642 49.6174 175.662C49.7178 175.584 49.8784 175.894 49.9186 175.952C49.9588 176.01 49.9989 176.049 50.0391 176.107C50.0592 176.146 50.0993 176.204 50.1395 176.262C50.1596 176.3 50.1797 176.32 50.1998 176.339C50.2198 176.378 50.2801 176.417 50.3002 176.455C50.3604 176.513 50.4608 176.513 50.5411 176.513C50.5211 176.475 50.4809 176.455 50.4407 176.436C50.4207 176.417 50.4006 176.397 50.3805 176.378C50.3805 176.358 50.3805 176.339 50.3604 176.32C50.4207 176.3 50.4608 176.358 50.5211 176.378C50.5813 176.397 50.6215 176.417 50.6817 176.417C50.7621 176.417 50.8424 176.436 50.9227 176.417C50.9227 176.397 50.8825 176.339 50.9026 176.32C50.9227 176.3 50.9629 176.3 50.983 176.3C51.0432 176.281 51.0834 176.204 51.1436 176.165C51.1838 176.126 51.244 176.107 51.2842 176.087C51.5453 175.952 51.7662 175.952 51.9469 176.204C52.0071 176.32 52.0473 176.455 52.0674 176.571C52.0875 176.688 52.1477 176.784 52.1879 176.901C52.228 177.036 52.228 177.152 52.228 177.288C52.228 177.365 52.2481 177.404 52.2682 177.481C52.2883 177.539 52.2682 177.636 52.2682 177.714C52.2682 177.888 52.2481 178.062 52.2682 178.236C52.2883 178.488 52.3084 178.778 52.3686 179.011C52.3887 179.088 52.4289 179.166 52.4289 179.243C52.469 179.746 52.3887 180.269 52.3887 180.772C52.3887 181.295 52.3485 181.837 52.3485 182.36C52.3485 182.67 52.3485 182.999 52.4489 183.289C52.4891 183.405 52.4891 183.541 52.5293 183.657C52.5494 183.734 52.5694 183.812 52.5895 183.889C52.6096 183.967 52.6498 184.044 52.6498 184.141C52.6698 184.257 52.6899 184.354 52.7301 184.451C52.7703 184.547 52.7903 184.605 52.8104 184.702C52.8305 184.799 52.8506 184.896 52.8707 185.012C52.8907 185.109 52.8907 185.225 52.9108 185.322C52.9309 185.419 52.9711 185.515 53.0112 185.612C53.0313 185.67 53.0514 185.728 53.0313 185.786C53.0112 185.825 52.9912 185.864 52.9711 185.903C52.8506 186.077 52.71 186.27 52.5494 186.425C52.4489 186.541 52.3485 186.658 52.2481 186.774C52.1879 186.832 52.1477 186.89 52.0875 186.948C52.0071 187.006 51.9469 187.083 51.8465 187.122C51.8063 187.142 51.7662 187.18 51.726 187.2C51.6657 187.219 51.6055 187.258 51.5453 187.277C51.3444 187.354 51.1436 187.471 50.9428 187.529C50.7621 187.587 50.6014 187.645 50.4207 187.664C50.3202 187.684 50.2198 187.703 50.1194 187.722C50.0793 187.742 50.0391 187.742 49.9989 187.761C49.9989 187.78 49.9789 187.78 49.9789 187.78C49.9588 187.78 49.9387 187.78 49.9186 187.78C49.8985 187.78 49.8784 187.8 49.8584 187.8C49.8182 187.819 49.778 187.819 49.7379 187.819C49.6575 187.838 49.537 187.819 49.4768 187.897C49.4166 187.935 49.3965 188.051 49.3965 188.109C49.3764 188.264 49.517 188.419 49.6174 188.535C49.6977 188.632 49.8383 188.69 49.9387 188.729C50.0793 188.787 50.2399 188.845 50.4006 188.884C50.4608 188.903 50.5411 188.923 50.6014 188.942C50.6616 188.961 50.7219 188.942 50.7821 188.961C50.8625 188.981 50.9227 189 51.003 189C51.2039 189 51.4047 188.923 51.5854 188.961C51.7662 189 51.9469 188.961 52.1075 188.903C52.1678 188.884 52.208 188.884 52.2682 188.864C52.3084 188.864 52.3686 188.845 52.4088 188.826C52.6096 188.729 52.8707 188.574 53.0916 188.535C53.0715 188.593 53.0313 188.671 52.9711 188.69C53.1719 188.671 53.3326 188.555 53.4731 188.419C53.6137 188.284 53.7141 188.109 53.8145 187.935C53.8547 188.071 53.8346 188.206 53.7744 188.322C53.7744 188.303 53.8748 188.284 53.8949 188.264C53.9551 188.226 53.9752 188.168 54.0354 188.129C54.0555 188.109 54.0756 188.09 54.0957 188.071C54.1358 188.051 54.176 188.051 54.2162 188.032C54.2563 187.993 54.2764 187.935 54.3367 187.897C54.3969 187.858 54.417 187.8 54.4772 187.761C54.5375 187.722 54.5977 187.684 54.6379 187.645C54.658 187.626 54.6781 187.567 54.7182 187.548C54.7584 187.529 54.7985 187.548 54.8387 187.548C54.9391 187.567 55.0596 187.587 55.16 187.606C55.2604 187.626 55.3608 187.587 55.4613 187.626C55.5617 187.645 55.642 187.664 55.7424 187.703C55.8227 187.722 55.9031 187.761 55.9834 187.8C56.0838 187.838 56.1842 187.877 56.2846 187.877C56.7063 187.935 57.0879 188.071 57.5096 188.051C57.4695 188.013 57.4092 187.974 57.369 187.935C57.5498 187.877 57.7305 187.916 57.9313 187.935C57.8912 187.916 57.8711 187.877 57.8711 187.838C57.9113 187.761 58.0518 187.742 58.1121 187.742C58.2527 187.722 58.3731 187.703 58.5137 187.684C58.6342 187.664 58.7547 187.664 58.8752 187.626C58.9957 187.587 59.0359 187.606 59.1363 187.645C59.1764 187.664 59.2367 187.664 59.2768 187.684C59.3973 187.722 59.5178 187.78 59.6383 187.858C59.7387 187.916 59.8391 187.993 59.9195 188.071C59.9797 188.129 60.04 188.206 60.1203 188.226C60.2006 188.264 60.2609 188.245 60.3412 188.264C60.4014 188.264 60.4617 188.303 60.5219 188.303C60.6223 188.303 60.7227 188.303 60.8232 188.303C61.024 188.303 61.2449 188.245 61.4457 188.284C61.5662 188.322 61.6666 188.361 61.8072 188.361C61.8875 188.361 61.9478 188.419 62.0482 188.381C62.0281 188.342 61.9879 188.264 61.9478 188.245C62.0682 188.264 62.1887 188.245 62.3092 188.245C62.4096 188.245 62.51 188.284 62.6305 188.264C62.6908 188.264 62.751 188.226 62.8113 188.206C62.992 188.148 63.1728 188.168 63.3535 188.187C63.474 188.206 63.5744 188.226 63.6949 188.226C63.8957 188.245 64.0564 188.206 64.2572 188.168C64.4178 188.148 64.5785 188.09 64.699 187.993C64.7994 187.916 64.8998 187.838 65.0002 187.761C65.1408 187.645 65.3015 187.49 65.3617 187.316C65.3818 187.277 65.3818 187.258 65.3617 187.2C65.3416 187.083 65.3015 186.967 65.3215 186.851C65.3416 186.774 65.4019 186.716 65.4219 186.638C65.442 186.541 65.442 186.425 65.4219 186.328C65.4019 186.193 65.4219 185.98 65.3015 185.883C65.2412 185.825 65.1609 185.825 65.0806 185.825C64.9801 185.806 64.8797 185.786 64.7793 185.786C64.699 185.786 64.5986 185.767 64.5383 185.786C64.4781 185.806 64.4178 185.825 64.3576 185.806C64.1769 185.806 63.976 185.864 63.7953 185.903C63.6146 185.941 63.474 186.019 63.3133 186.115C63.2531 186.154 63.2129 186.193 63.1527 186.193C63.0723 186.212 63.0121 186.212 62.9318 186.212C62.8113 186.212 62.6707 186.193 62.5502 186.212C62.49 186.212 62.4297 186.232 62.3896 186.251C62.2289 186.27 62.0883 186.27 61.9277 186.27C61.8674 186.27 61.8273 186.27 61.7871 186.232C61.7469 186.193 61.7268 186.174 61.6867 186.135C61.6064 186.057 61.5662 185.961 61.526 185.864C61.4859 185.748 61.4055 185.67 61.3453 185.554C61.3051 185.477 61.3051 185.399 61.265 185.322C61.2248 185.244 61.2047 185.186 61.1445 185.109C61.1244 185.07 61.0441 185.051 61.0441 185.012C61.2449 185.07 61.4457 185.167 61.6465 185.225C61.767 185.264 61.8875 185.322 62.008 185.322C62.249 185.302 62.3896 185.109 62.6305 185.051C62.731 185.031 62.8314 184.993 62.9117 184.993C62.9719 184.993 63.0121 184.993 63.0723 184.973C63.1125 184.954 63.1728 184.973 63.233 184.973C63.1928 184.954 63.1527 184.915 63.1527 184.896C63.1326 184.857 63.1326 184.857 63.1928 184.838C63.2933 184.818 63.3736 184.838 63.4539 184.818C63.5744 184.78 63.6748 184.722 63.7953 184.702C63.7953 184.664 63.7752 184.664 63.7551 184.644C63.7551 184.547 64.0363 184.625 64.0363 184.47C64.0965 184.47 64.1769 184.412 64.217 184.354C64.2371 184.334 64.2371 184.296 64.2572 184.276C64.3174 184.18 64.4178 184.141 64.4781 184.044C64.5183 183.967 64.5383 183.889 64.6187 183.831C64.7592 183.734 64.9801 183.734 65.1006 183.599C65.1609 183.541 65.1609 183.425 65.181 183.347C65.201 183.289 65.2211 183.25 65.2613 183.192C65.3617 182.96 65.4019 182.65 65.3617 182.399C65.3416 182.282 65.3617 182.186 65.3617 182.069C65.3617 181.915 65.3416 181.779 65.3215 181.624C65.3215 181.566 65.3416 181.508 65.3416 181.431C65.3416 181.334 65.3215 181.237 65.2814 181.16C65.2613 181.101 65.2412 181.043 65.2211 181.005C65.201 180.947 65.181 180.85 65.1408 180.792C65.0806 180.734 64.94 180.772 64.8797 180.772C64.8396 180.772 64.7994 180.772 64.7392 180.772C64.7191 180.772 64.699 180.792 64.6588 180.792C64.6387 180.792 64.6187 180.792 64.5986 180.792C64.5183 180.811 64.458 180.85 64.3978 180.869C64.3174 180.908 64.2572 180.927 64.1969 180.985C64.1367 181.043 64.0564 181.063 63.9961 181.121C63.956 181.16 63.9158 181.198 63.8756 181.256C63.8355 181.314 63.8154 181.372 63.8154 181.45C63.8154 181.527 63.8154 181.605 63.8154 181.682C63.8154 181.779 63.8355 181.895 63.8154 181.992C63.8154 182.069 63.7351 182.108 63.6748 182.166C63.6146 182.205 63.5543 182.224 63.5142 182.282C63.474 182.321 63.4539 182.34 63.4137 182.379C63.3133 182.457 63.2129 182.495 63.1125 182.573C62.9719 182.689 62.8314 182.747 62.6707 182.805C62.6305 182.824 62.5703 182.844 62.5301 182.863C62.4699 182.883 62.4699 182.883 62.4096 182.863C62.3695 182.863 62.3494 182.863 62.3293 182.863C62.3092 182.863 62.2891 182.844 62.2691 182.844C62.1887 182.824 62.1285 182.805 62.0482 182.805C62.008 182.805 61.9277 182.766 61.8875 182.766C61.8473 182.766 61.8473 182.786 61.8072 182.786C61.7871 182.786 61.7269 182.728 61.7068 182.728C61.6867 182.708 61.6465 182.689 61.6264 182.67C61.5461 182.592 61.4457 182.515 61.3654 182.437C61.2047 182.302 61.0441 182.128 60.8633 182.031C60.8232 182.011 60.7629 181.973 60.7629 181.915C60.7629 181.895 60.783 181.876 60.783 181.856C60.783 181.818 60.783 181.798 60.8031 181.779C60.8432 181.663 60.8232 181.508 60.8633 181.392C60.8834 181.353 60.9035 181.314 60.9437 181.295C60.9637 181.276 60.9637 181.237 60.9838 181.218C61.024 181.16 61.024 181.082 61.0641 181.005C61.1043 180.927 61.1244 181.024 61.1445 181.043C61.1445 180.947 61.1445 180.85 61.1445 180.753C61.1445 180.656 61.1445 180.482 61.1846 180.366C61.2047 180.366 61.2248 180.424 61.2248 180.443C61.2449 180.501 61.265 180.521 61.3051 180.559C61.3252 180.521 61.285 180.501 61.285 180.463C61.285 180.424 61.285 180.385 61.285 180.346C61.265 180.269 61.265 180.192 61.265 180.114C61.265 180.037 61.265 179.959 61.265 179.882C61.265 179.843 61.285 179.804 61.285 179.746C61.285 179.65 61.265 179.63 61.3453 179.553C61.4658 179.417 61.6666 179.495 61.8072 179.514C61.8473 179.514 61.9076 179.514 61.9478 179.514C62.0482 179.533 62.1486 179.553 62.2289 179.611C62.3092 179.65 62.3896 179.708 62.4498 179.766C62.49 179.804 62.5502 179.843 62.5904 179.882C62.6506 179.824 62.5703 179.727 62.5502 179.669C62.6105 179.669 62.7109 179.727 62.751 179.746C62.8314 179.785 62.8916 179.804 62.9719 179.824C62.8715 179.746 63.0523 179.746 63.0723 179.746C63.1928 179.766 63.2732 179.804 63.3937 179.804C63.4941 179.804 63.6146 179.824 63.715 179.824C64.0162 179.824 64.2974 179.785 64.5986 179.708C64.7793 179.669 64.9601 179.611 65.1408 179.553C65.2613 179.514 65.4219 179.514 65.5023 179.417C65.5826 179.32 65.6428 179.204 65.7031 179.088C65.7633 178.991 65.7433 178.875 65.7633 178.778C65.8035 178.662 65.8638 178.546 65.9039 178.43C65.9842 178.217 66.0244 177.965 65.9842 177.733C65.9441 177.481 66.0043 177.23 65.9441 176.978C65.9441 176.939 65.924 176.901 65.9039 176.862C65.8838 176.842 65.8638 176.804 65.8638 176.784C65.8035 176.668 65.8638 176.552 65.8437 176.436C65.8035 176.242 65.4822 176.184 65.3215 176.204C65.181 176.223 65.0806 176.32 64.9601 176.358C64.8998 176.378 64.8396 176.397 64.7793 176.436C64.699 176.455 64.6187 176.494 64.5584 176.552C64.4982 176.591 64.458 176.649 64.4178 176.707C64.3777 176.746 64.3576 176.784 64.3174 176.823C64.1769 176.978 64.1969 177.133 64.1969 177.326C64.1969 177.404 64.217 177.501 64.1969 177.578C64.1568 177.597 64.0764 177.578 64.0363 177.578C63.976 177.559 63.9158 177.559 63.8555 177.539C63.7752 177.539 63.715 177.501 63.6346 177.481C63.5142 177.443 63.3736 177.423 63.2531 177.385C62.751 177.23 62.2289 177.094 61.7268 176.901C61.6666 176.881 61.5662 176.881 61.5059 176.842C61.4457 176.784 61.4457 176.726 61.4457 176.668C61.4457 176.61 61.4457 176.571 61.4256 176.513C61.4055 176.455 61.4055 176.417 61.4055 176.358C61.4055 176.242 61.3051 176.146 61.3051 176.029C61.3453 176.068 61.3654 176.126 61.4055 176.146C61.4055 176.107 61.4055 176.068 61.3855 176.049C61.3654 175.952 61.3252 175.875 61.3051 175.778C61.285 175.7 61.265 175.642 61.2449 175.565C61.2449 175.545 61.2047 175.507 61.2047 175.487C61.2047 175.391 61.3654 175.507 61.4256 175.526C61.4457 175.507 61.4055 175.41 61.3855 175.391C61.3252 175.313 61.2449 175.255 61.2047 175.158C61.1846 175.119 61.1646 175.081 61.1445 175.023C61.1043 174.965 61.0441 174.907 61.024 174.829C61.0039 174.771 61.024 174.732 61.024 174.674C61.024 174.597 60.9838 174.597 61.0441 174.519C61.0842 174.481 61.1445 174.442 61.2047 174.442C61.2449 174.442 61.285 174.442 61.3252 174.442C61.5059 174.442 61.6666 174.423 61.8473 174.423C61.9879 174.423 62.1285 174.442 62.2691 174.384C62.1687 174.345 62.0682 174.287 61.9879 174.229C62.0682 174.21 62.1486 174.21 62.2088 174.19C62.2691 174.171 62.3494 174.132 62.4297 174.132L62.4096 174.113C62.4699 174.093 62.5301 174.055 62.5904 174.035C62.6506 174.016 62.751 173.997 62.7912 173.939C62.7711 173.9 62.7109 173.861 62.7109 173.822C62.8715 173.803 62.992 173.706 63.1527 173.687C63.1928 173.687 63.2531 173.706 63.2933 173.668C63.3535 173.629 63.3133 173.609 63.3334 173.551C63.3535 173.493 63.3736 173.513 63.4137 173.513C63.474 173.513 63.5342 173.474 63.6146 173.455C63.715 173.435 63.8154 173.416 63.9158 173.377C63.976 173.358 64.0162 173.319 64.0564 173.28C64.1166 173.203 64.1367 173.126 64.217 173.067C64.2974 173.009 64.3777 172.971 64.4781 172.932C64.5986 172.874 64.7191 172.835 64.7994 172.719C64.8998 172.583 64.8396 172.39 64.9199 172.254C64.94 172.216 64.9801 172.196 65.0203 172.158C65.1408 172.041 65.0605 171.906 65.0605 171.77C65.0605 171.712 65.0404 171.615 65.0605 171.577C65.0605 171.557 65.0806 171.557 65.1006 171.538C65.1207 171.48 65.1006 171.364 65.1006 171.306V171.073C65.1006 171.035 65.1006 170.977 65.1006 170.938C65.1006 170.88 65.0806 170.802 65.0806 170.744C65.0806 170.667 65.0605 170.589 65.0404 170.512C65.0203 170.454 65.0002 170.396 64.9801 170.338C64.94 170.26 64.9601 170.144 64.8797 170.086C64.8396 170.067 64.8195 170.047 64.7994 170.009C64.7793 169.97 64.7392 169.97 64.699 169.97C64.6588 169.951 64.6387 169.951 64.5785 169.97C64.4982 169.989 64.4178 170.009 64.3375 170.028C64.1969 170.047 64.0564 170.125 63.9359 170.164C63.8756 170.183 63.8154 170.183 63.7551 170.202C63.6949 170.222 63.6346 170.222 63.5744 170.26C63.5142 170.28 63.474 170.299 63.4137 170.338C63.3937 170.357 63.3736 170.357 63.3736 170.377C63.3535 170.396 63.3535 170.415 63.3334 170.435C63.3133 170.473 63.2932 170.493 63.2732 170.531C63.2531 170.57 63.2531 170.589 63.233 170.628C63.233 170.667 63.1928 170.706 63.1928 170.764C63.1928 170.899 63.2129 171.035 63.1928 171.17C63.1928 171.209 63.1728 171.248 63.1326 171.267C63.0723 171.306 63.0121 171.344 62.9519 171.364C62.8715 171.403 62.8113 171.441 62.731 171.461C62.6707 171.48 62.6105 171.499 62.5301 171.519C62.3695 171.577 62.2088 171.635 62.0482 171.674C61.7871 171.751 61.526 171.809 61.265 171.848C61.2248 171.848 61.1646 171.867 61.1244 171.867C61.0641 171.887 61.0039 171.906 60.9437 171.906C60.7629 171.925 60.5822 171.867 60.4215 171.828C60.3613 171.809 60.3211 171.828 60.2609 171.828C60.2006 171.809 60.1805 171.809 60.1203 171.809C59.9797 171.809 59.8391 171.77 59.6986 171.79C59.5982 171.79 59.4977 171.79 59.3773 171.79C59.3973 171.79 59.3973 171.809 59.4174 171.828C59.3572 171.828 59.317 171.809 59.2768 171.79C59.2166 171.77 59.1764 171.77 59.1162 171.751C59.0359 171.732 58.9555 171.732 58.8752 171.712C58.835 171.712 58.7949 171.712 58.7547 171.712C58.7748 171.635 58.8953 171.635 58.9354 171.596C58.835 171.557 58.6744 171.596 58.574 171.596C58.4936 171.596 58.3531 171.615 58.2727 171.596C58.2928 171.557 58.333 171.538 58.3731 171.519C58.2326 171.519 58.1121 171.519 57.9715 171.519C57.9113 171.519 57.8309 171.519 57.7707 171.519C57.6301 171.519 57.5096 171.461 57.3891 171.461C57.3088 171.461 57.2084 171.441 57.1281 171.441C57.0879 171.441 57.0477 171.422 57.0076 171.422C56.9473 171.422 56.9072 171.422 56.8469 171.403C56.8268 171.403 56.8067 171.383 56.7666 171.383C56.7264 171.383 56.6863 171.364 56.626 171.364C56.5858 171.364 56.5256 171.344 56.4854 171.344C56.4453 171.344 56.4051 171.344 56.3649 171.344C56.2244 171.306 56.0838 171.267 55.9432 171.248H55.9231L55.9633 171.209C55.8629 171.17 55.9231 171.015 55.9432 170.938C55.9432 170.88 55.9633 170.822 55.9834 170.764C56.0035 170.706 56.0035 170.628 56.0235 170.57C56.0436 170.531 56.0637 170.493 56.0637 170.454C56.0637 170.415 56.0838 170.377 56.1039 170.338C56.124 170.28 56.124 170.222 56.144 170.183C56.1842 170.067 56.2244 169.931 56.2645 169.796C56.2846 169.699 56.3248 169.602 56.3248 169.505C56.3248 169.447 56.3248 169.389 56.3248 169.331C56.3248 169.273 56.3047 169.254 56.3047 169.196C56.2846 169.079 56.2445 168.963 56.1842 168.847C56.1641 168.808 56.144 168.77 56.124 168.712C56.0637 168.615 55.9834 168.518 55.9031 168.441C55.883 168.421 55.8629 168.383 55.8428 168.344C55.8428 168.324 55.8428 168.286 55.8428 168.266C55.8428 168.15 55.8026 168.092 55.7223 168.015C55.6822 167.976 55.6621 167.937 55.642 167.899C55.6219 167.86 55.5817 167.84 55.5617 167.802C55.5014 167.705 55.3809 167.666 55.3006 167.589C55.2604 167.55 55.2403 167.492 55.2203 167.453C55.2002 167.415 55.1801 167.395 55.16 167.356C55.1199 167.318 55.0998 167.279 55.0596 167.24C55.0395 167.221 55.0194 167.182 54.9994 167.163C54.9592 167.124 54.919 167.124 54.8789 167.105C54.8387 167.085 54.7985 167.066 54.7383 167.047C54.6781 167.027 54.6178 167.008 54.5375 167.008C54.5174 166.989 54.4571 167.008 54.417 167.027Z" fill="white"/>
<path opacity="0.5" d="M32.2623 195.381C32.1989 195.381 32.1672 195.381 32.1038 195.381C32.0721 195.381 32.0404 195.381 32.0087 195.381C31.977 195.381 31.9453 195.413 31.9136 195.413C31.8819 195.413 31.8185 195.413 31.7868 195.413L31.8185 195.381C31.7868 195.381 31.7551 195.381 31.7234 195.381C31.6917 195.381 31.66 195.413 31.6283 195.413C31.5649 195.413 31.4698 195.476 31.4064 195.508C31.3747 195.476 31.4698 195.445 31.5015 195.413C31.5332 195.413 31.5649 195.349 31.5966 195.349C31.5015 195.349 31.4381 195.413 31.3747 195.445C31.343 195.445 31.3113 195.445 31.2796 195.476C31.2479 195.508 31.2162 195.54 31.1845 195.572C31.1528 195.572 31.1528 195.603 31.1211 195.603C31.0894 195.603 31.0894 195.635 31.0577 195.635C31.026 195.635 30.9626 195.73 30.9309 195.699C30.8992 195.667 30.9626 195.603 30.9626 195.572C30.8992 195.603 30.8675 195.635 30.8041 195.635C30.7724 195.667 30.7407 195.667 30.7407 195.699C30.709 195.699 30.709 195.73 30.6773 195.73C30.6456 195.762 30.5822 195.794 30.5505 195.857C30.4554 195.953 30.3603 196.016 30.2969 196.112C30.2335 196.175 30.2018 196.239 30.1701 196.302C30.1701 196.334 30.075 196.461 30.1067 196.493C30.075 196.461 30.0116 196.397 29.9799 196.366C29.9799 196.461 29.9799 196.556 29.9482 196.651C29.9482 196.715 29.9165 196.779 29.9165 196.874C29.9165 196.937 29.8848 197.001 29.8848 197.064C29.8531 197.16 29.8214 197.223 29.7897 197.287C29.758 197.35 29.7263 197.445 29.7263 197.509C29.6946 197.572 29.6946 197.636 29.6946 197.7C29.6946 197.731 29.6946 197.731 29.6946 197.763C29.6946 197.731 29.6629 197.731 29.6629 197.7C29.6629 197.668 29.6629 197.668 29.6312 197.636C29.5995 197.7 29.5995 197.731 29.5678 197.795C29.5361 197.922 29.5044 198.017 29.4727 198.144C29.441 198.208 29.441 198.303 29.441 198.366C29.441 198.398 29.441 198.43 29.441 198.43C29.4093 198.398 29.4093 198.335 29.3776 198.335C29.3776 198.366 29.3776 198.43 29.3776 198.462C29.3776 198.525 29.3776 198.557 29.3776 198.621C29.3776 198.716 29.3459 198.811 29.3459 198.938C29.3459 199.033 29.3142 199.16 29.2825 199.256C29.2508 199.287 29.2508 199.351 29.2508 199.383C29.2191 199.446 29.1874 199.51 29.1557 199.573C29.124 199.669 29.0923 199.764 29.0606 199.859C29.0606 199.923 29.0289 199.954 29.0289 200.018C29.0289 200.081 29.0289 200.145 29.0289 200.24C29.0289 200.304 29.0606 200.367 29.0606 200.431C29.0289 200.399 28.9972 200.336 28.9655 200.304C29.0289 200.431 29.0606 200.59 29.124 200.717C29.1557 200.78 29.1874 200.812 29.1874 200.875C29.1874 200.907 29.1874 200.939 29.2191 200.939C29.2825 201.066 29.4093 201.161 29.5044 201.288C29.5678 201.352 29.6629 201.415 29.7263 201.511C29.758 201.574 29.7263 201.638 29.7263 201.701C29.7263 201.733 29.7263 201.765 29.7263 201.796C29.7263 201.892 29.7263 201.987 29.6946 202.082C29.6629 202.082 29.6629 202.082 29.6629 202.082C29.6629 202.114 29.6629 202.146 29.6629 202.146C29.6629 202.178 29.6946 202.178 29.7263 202.209C29.6946 202.241 29.6312 202.178 29.5995 202.209C29.6629 202.273 29.7263 202.336 29.758 202.4C29.7263 202.4 29.6946 202.368 29.6629 202.368C29.6629 202.4 29.6629 202.463 29.6946 202.495C29.6946 202.527 29.758 202.59 29.758 202.622C29.7263 202.622 29.6946 202.59 29.6629 202.559C29.6312 202.527 29.5995 202.495 29.5678 202.495C29.5995 202.559 29.6629 202.622 29.6629 202.686C29.6946 202.749 29.6946 202.844 29.7263 202.908C29.7263 202.94 29.7263 202.971 29.7263 203.003C29.7263 203.035 29.7263 203.067 29.7263 203.13C29.7263 203.162 29.7263 203.226 29.758 203.257C29.758 203.289 29.7263 203.289 29.6946 203.321C29.6629 203.353 29.6312 203.416 29.5678 203.448C29.5361 203.48 29.5044 203.48 29.4727 203.511C29.441 203.575 29.4093 203.638 29.3776 203.702C29.3459 203.765 29.3142 203.829 29.2825 203.924C29.2508 204.02 29.2191 204.083 29.2191 204.178C29.2191 204.432 29.2191 204.655 29.1874 204.909C29.1874 204.941 29.1557 205.004 29.1557 205.036C29.1557 205.068 29.1557 205.099 29.1557 205.131C29.124 205.226 29.0923 205.29 29.0606 205.353C29.0923 205.385 29.1557 205.353 29.1874 205.353C29.2508 205.385 29.2191 205.544 29.2191 205.607C29.2191 205.798 29.2508 205.989 29.2508 206.179C29.2508 206.211 29.2508 206.243 29.2508 206.306C29.2508 206.338 29.2191 206.338 29.2508 206.37C29.2825 206.306 29.2825 206.243 29.3142 206.179C29.3142 206.147 29.3459 206.116 29.3776 206.084C29.4093 206.116 29.3776 206.274 29.3776 206.306C29.3776 206.37 29.3776 206.433 29.3776 206.497C29.4093 206.497 29.4093 206.433 29.4727 206.433C29.5361 206.529 29.4727 206.624 29.5044 206.719C29.5044 206.751 29.5044 206.751 29.5361 206.783C29.5361 206.814 29.5361 206.814 29.5361 206.846C29.5678 206.91 29.5995 206.973 29.6629 207.037C29.6946 207.1 29.6946 207.132 29.758 207.164C29.7897 207.195 29.8214 207.227 29.8214 207.259C29.8214 207.354 29.8214 207.45 29.8214 207.513C29.8214 207.672 29.8214 207.799 29.8214 207.958C29.8214 207.958 29.8214 207.958 29.8531 207.958C29.8848 207.989 29.8848 208.116 29.9165 208.148C29.9165 208.18 29.9165 208.243 29.9482 208.275C29.9799 208.275 29.9799 208.243 29.9799 208.243C30.0116 208.243 30.0433 208.275 30.0433 208.307C30.075 208.402 30.1067 208.529 30.1701 208.625C30.1701 208.656 30.2018 208.688 30.2335 208.72C30.2335 208.72 30.2652 208.72 30.2652 208.752C30.2969 208.783 30.3286 208.815 30.3286 208.847C30.392 208.91 30.4237 209.037 30.4237 209.133C30.4237 209.164 30.4237 209.196 30.4554 209.228C30.4554 209.26 30.4554 209.323 30.4554 209.355V209.673C30.4554 209.768 30.4554 209.831 30.4871 209.927C30.4871 209.99 30.5188 210.022 30.5505 210.086C30.5505 210.117 30.5822 210.181 30.6139 210.181C30.5822 210.117 30.6139 210.054 30.6139 209.99C30.6456 210.022 30.6456 210.054 30.6773 210.086C30.709 210.149 30.7407 210.244 30.8041 210.276C30.8358 210.213 30.8041 210.181 30.8358 210.117C30.8675 210.086 30.9309 210.181 30.9626 210.181C31.026 210.213 31.0577 210.213 31.0894 210.213C31.1845 210.244 31.3113 210.213 31.4064 210.213C31.343 210.181 31.3113 210.149 31.2796 210.086H31.3113C31.343 210.117 31.4064 210.117 31.4381 210.117C31.5015 210.117 31.5649 210.149 31.5966 210.117C31.5966 210.117 31.5649 210.117 31.5649 210.086C31.5649 210.054 31.7234 210.086 31.7551 210.086C31.8502 210.086 31.9136 209.99 31.9136 209.895C32.0087 209.895 32.1672 209.863 32.2623 209.831C32.3257 209.8 32.3892 209.768 32.4526 209.704C32.4843 209.673 32.516 209.577 32.5794 209.577C32.6111 209.546 32.6428 209.577 32.6745 209.546C32.7379 209.514 32.833 209.45 32.8964 209.419C32.9281 209.387 33.0549 209.323 33.0866 209.292C33.0866 209.323 32.8964 209.228 32.8647 209.196C32.9598 209.133 33.1183 209.069 33.2451 209.069C33.3402 209.069 33.4036 209.101 33.4987 209.069C33.7523 208.974 33.9742 208.783 34.2278 208.656C34.5131 208.529 34.735 208.402 34.9252 208.18C34.9886 208.085 35.052 207.989 35.0837 207.862C35.1154 207.704 35.0203 207.672 34.9252 207.577C34.8935 207.513 34.8618 207.481 34.7984 207.418C34.735 207.386 34.6716 207.386 34.6399 207.354C34.5448 207.291 34.4497 207.164 34.3863 207.068C34.5448 207.068 34.7033 207.1 34.8618 207.132C35.2422 207.164 35.686 207.354 35.9079 207.672C36.0982 207.926 36.4152 208.116 36.7322 208.243C36.9541 208.339 37.2394 208.371 37.3345 208.593C37.3979 208.72 37.4296 208.783 37.5564 208.879C37.6832 208.974 37.81 209.101 37.9368 209.196C38.0319 209.292 38.1587 209.323 38.2538 209.387C38.5074 209.546 38.6025 209.863 38.7293 210.086C38.9512 210.53 39.2999 210.911 39.4584 211.388C39.5218 211.61 39.617 211.832 39.7121 212.023C39.8072 212.245 39.8389 212.467 39.8389 212.69C39.8389 212.817 39.9023 212.944 39.9657 213.071C40.0291 213.134 40.0608 213.23 40.0925 213.293C40.1242 213.357 40.1876 213.42 40.251 213.484C40.3144 213.579 40.3461 213.674 40.4095 213.77C40.4412 213.833 40.5046 213.897 40.5363 213.96C40.568 214.024 40.5363 214.055 40.5363 214.119C40.5363 214.182 40.568 214.214 40.5997 214.246C40.6314 214.341 40.5997 214.468 40.5997 214.564C40.5997 214.691 40.5997 214.786 40.5997 214.913C40.5997 215.008 40.5997 215.103 40.5997 215.199C40.5997 215.262 40.568 215.326 40.5363 215.389C40.5046 215.675 40.568 215.929 40.5363 216.183C40.5363 216.406 40.5046 216.628 40.4729 216.882C40.4412 217.104 40.4095 217.327 40.3461 217.549C40.2827 217.803 40.2827 218.089 40.1876 218.343C40.1876 218.343 40.1876 218.311 40.2193 218.311C40.2827 218.375 40.2193 218.66 40.2193 218.724C40.1876 218.883 40.1876 219.042 40.1242 219.2C40.0925 219.359 40.0608 219.518 40.0291 219.677C40.0291 219.74 39.9974 219.836 40.0291 219.899C40.0291 219.899 40.0608 219.899 40.0608 219.867C40.1242 219.963 40.0925 220.058 40.0925 220.153C40.0925 220.312 40.0925 220.502 40.0925 220.661C40.0925 220.757 40.0608 220.82 40.0608 220.915C40.0608 220.947 40.0608 221.011 40.0608 221.074C40.0608 221.106 39.9974 221.138 40.0608 221.169C40.0608 221.138 40.0608 221.106 40.0925 221.106C40.1242 221.169 40.1242 221.265 40.1242 221.36C40.1242 221.582 40.0925 221.805 40.0608 222.027C40.0608 222.186 40.0291 222.376 39.9974 222.535C40.0291 222.535 40.0608 222.344 40.1242 222.313C40.1876 222.408 40.1559 222.63 40.1559 222.757C40.1559 222.853 40.1242 222.948 40.1242 223.043C40.1242 223.107 40.0291 223.202 40.0608 223.297C40.0925 223.297 40.0925 223.297 40.1242 223.297C40.1242 223.329 40.1242 223.361 40.1242 223.424C40.1242 223.488 40.1559 223.488 40.1559 223.551C40.1876 223.678 40.1876 223.742 40.1559 223.869C40.1242 223.996 40.1559 224.123 40.2193 224.218C40.2193 224.218 40.2193 224.186 40.1876 224.186C40.1559 224.25 40.1559 224.314 40.1876 224.377C40.1876 224.472 40.1876 224.568 40.1876 224.663C40.1876 224.695 40.1876 224.758 40.1876 224.79C40.1559 224.758 40.1559 224.695 40.1242 224.695C40.1242 224.726 40.1242 224.79 40.1242 224.822C40.1242 224.885 40.1242 224.949 40.1559 225.044C40.1876 225.139 40.1876 225.235 40.1876 225.33C40.1876 225.425 40.1876 225.489 40.1559 225.584C40.1559 225.616 40.1242 225.711 40.0925 225.743V225.774C40.0925 225.838 40.0608 225.87 40.0291 225.901L39.9974 225.933C39.9974 225.933 39.9657 225.965 39.934 225.965C39.9023 225.965 39.8706 225.997 39.8389 225.997C39.8389 225.965 39.8706 225.965 39.9023 225.933L39.934 225.901C39.9023 225.901 39.9023 225.901 39.8706 225.933C39.8389 225.933 39.8072 225.965 39.8072 225.965C39.7438 225.997 39.7121 226.029 39.6486 226.06C39.6169 226.092 39.5852 226.124 39.5218 226.156C39.4901 226.156 39.4901 226.187 39.4901 226.187C39.4584 226.187 39.4584 226.219 39.4267 226.219C39.395 226.251 39.3633 226.251 39.3316 226.283C39.2999 226.314 39.2999 226.314 39.2682 226.346C39.2365 226.346 39.2048 226.346 39.1731 226.378C39.1097 226.41 39.0463 226.441 39.0146 226.473C38.8878 226.537 38.7293 226.537 38.6025 226.568C38.4757 226.6 38.3806 226.6 38.2538 226.6C38.1904 226.6 38.0636 226.6 38.0319 226.664C38.0636 226.727 38.1904 226.695 38.2538 226.695C38.2855 226.695 38.3172 226.727 38.3489 226.727C38.3806 226.727 38.4123 226.727 38.444 226.727C38.444 226.791 38.3489 226.886 38.2855 226.918C38.2221 226.95 38.1904 226.95 38.127 226.95C38.0636 226.95 37.9685 226.981 37.9051 227.013C37.7466 227.045 37.5881 227.077 37.4613 227.14C37.493 227.172 37.5247 227.172 37.5247 227.204C37.3028 227.299 37.1126 227.394 36.8907 227.489C36.8273 227.521 36.7005 227.521 36.6371 227.553C36.4786 227.585 36.3835 227.616 36.2567 227.68C36.1616 227.712 36.0665 227.712 36.003 227.775C35.8445 227.839 35.686 227.902 35.5275 227.998C35.4007 228.061 35.3056 228.093 35.1788 228.125C35.1154 228.156 35.052 228.188 34.9886 228.188C34.9569 228.188 34.8618 228.188 34.8618 228.22C34.9569 228.252 35.2105 228.22 35.0203 228.347C34.9252 228.41 34.7984 228.442 34.7033 228.474C34.6082 228.506 34.4814 228.569 34.3546 228.601C34.2278 228.633 34.0693 228.633 33.9425 228.633C33.7206 228.633 33.4987 228.633 33.2451 228.664C33.1817 228.664 33.0866 228.696 33.0232 228.696C32.9915 228.696 32.8964 228.664 32.8964 228.696C32.8647 228.728 32.8964 228.76 32.8964 228.76C32.8647 228.792 32.7379 228.792 32.7062 228.823C32.4843 228.887 32.2306 228.95 32.0087 229.046C32.0087 229.077 32.0404 229.077 32.0721 229.077C31.9453 229.077 31.8185 229.014 31.66 229.014C31.5966 229.014 31.5332 229.014 31.4698 229.014C31.3113 229.046 31.1845 229.014 31.026 229.014C30.9309 229.014 30.8358 228.982 30.7407 228.982C30.6456 228.982 30.5505 228.982 30.4554 228.982C30.392 228.982 30.2969 228.982 30.2335 228.95C30.1701 228.919 30.1067 228.919 30.0116 228.887C29.9165 228.855 29.8531 228.823 29.758 228.823C29.7263 228.823 29.6946 228.855 29.6629 228.823C29.6629 228.855 29.6946 228.887 29.7263 228.887C29.758 228.919 29.8214 228.919 29.8214 228.95C29.6946 228.982 29.5361 228.95 29.4093 228.95C29.3142 228.95 29.1874 228.887 29.0923 228.919C29.0923 228.95 29.124 228.95 29.124 228.982C28.9338 228.95 28.7435 229.014 28.5533 229.046C28.4582 229.046 28.3631 229.014 28.2997 229.046C28.268 229.046 28.2046 229.077 28.1412 229.077C27.9827 229.109 27.8559 229.173 27.7291 229.236C27.6657 229.268 27.6023 229.236 27.5389 229.268C27.5706 229.3 27.6657 229.331 27.6974 229.331C27.6657 229.331 27.5706 229.427 27.5706 229.427C27.5389 229.458 27.5389 229.522 27.4755 229.586C27.3804 229.713 27.1902 229.776 27.0951 229.903C27.0634 229.935 27.0634 229.967 27.0634 229.998C27.0634 230.062 27.0317 230.094 27 230.125C27.0634 230.03 27.317 230.094 27.3804 230.094C27.5072 230.125 27.634 230.189 27.7608 230.284C27.8876 230.379 28.0144 230.443 28.1412 230.538C28.268 230.634 28.3948 230.729 28.4899 230.856V230.888C28.4899 230.888 28.5216 230.888 28.5533 230.888C28.585 230.919 28.6484 230.951 28.6801 230.951C28.7752 231.015 28.8704 231.142 28.9655 231.205C29.124 231.3 29.3142 231.332 29.4727 231.428C29.5361 231.459 29.5995 231.491 29.6629 231.555C29.758 231.618 29.8531 231.618 29.9482 231.65C30.0116 231.682 30.075 231.745 30.1384 231.777C30.1067 231.777 30.1067 231.777 30.075 231.777C30.1067 231.84 30.2018 231.936 30.3603 231.936C30.4871 231.936 30.6139 231.936 30.709 231.936C30.8041 231.967 30.8675 231.967 30.9626 231.967C31.0894 231.967 31.2162 231.967 31.343 231.967C31.4698 231.967 31.5649 231.999 31.66 231.999C31.7868 232.031 31.9136 232.031 32.0404 232.031C32.0721 232.031 32.1672 232.063 32.1038 232.126C32.1672 232.126 32.294 232.094 32.3574 232.063C32.4526 232.063 32.516 231.999 32.6111 231.999C32.7062 231.967 32.8013 231.999 32.9281 231.999C33.0866 231.999 33.2451 231.999 33.4036 231.999C33.5304 231.999 33.6572 231.967 33.784 231.999C33.784 232.031 33.6889 232.063 33.6255 232.094C33.5938 232.126 33.4987 232.094 33.4987 232.158C33.6255 232.221 33.8791 232.158 34.0059 232.158C34.1961 232.158 34.3863 232.158 34.6082 232.158C34.8935 232.158 35.2422 232.158 35.4958 232.031C35.5909 231.999 35.6543 231.936 35.7494 231.936C35.8128 231.904 35.9079 231.904 35.9713 231.904C36.2884 231.84 36.5737 231.65 36.9224 231.618C36.9541 231.618 37.0175 231.618 37.0492 231.618C37.0175 231.618 36.9858 231.65 36.9858 231.682C36.9541 231.713 36.9224 231.713 36.859 231.745C36.7956 231.777 36.7956 231.84 36.7639 231.872C36.9224 231.936 37.0809 231.777 37.176 231.713C37.2711 231.65 37.3662 231.618 37.4296 231.555C37.4613 231.523 37.5247 231.491 37.5564 231.523C37.493 231.586 37.3979 231.618 37.3662 231.713C37.4296 231.745 37.493 231.682 37.5564 231.65C37.6515 231.618 37.7149 231.555 37.7783 231.491C37.8734 231.428 37.9685 231.364 38.0636 231.3C38.127 231.269 38.1587 231.237 38.2221 231.205C38.2855 231.173 38.3806 231.142 38.444 231.11C38.5708 231.078 38.6659 231.015 38.761 230.951C38.8561 230.919 38.9512 230.888 39.0463 230.856C39.1731 230.824 39.2365 230.729 39.3316 230.634C39.3633 230.602 39.395 230.57 39.4584 230.538C39.5218 230.507 39.6169 230.538 39.6803 230.507C39.8706 230.443 40.1242 230.348 40.251 230.189C40.2827 230.125 40.3144 230.094 40.3778 230.062C40.4412 230.03 40.568 229.998 40.5997 229.935C40.568 229.967 40.568 229.998 40.568 230.03C40.568 230.062 40.5363 230.094 40.5046 230.125C40.6948 230.189 40.9167 230.03 41.0435 229.871C41.1069 229.808 41.1386 229.744 41.202 229.681C41.2337 229.649 41.2971 229.617 41.3288 229.586C41.3288 229.649 41.2654 229.744 41.3288 229.776C41.3922 229.808 41.4556 229.744 41.4873 229.681C41.5507 229.617 41.6141 229.586 41.7092 229.554C41.836 229.458 41.9311 229.3 42.0579 229.173C42.1847 229.268 42.3115 229.331 42.4066 229.395C42.5017 229.458 42.6285 229.522 42.7236 229.586C42.787 229.649 42.8504 229.649 42.9138 229.713C43.0089 229.776 43.104 229.84 43.1674 229.903C43.2943 229.998 43.4211 230.125 43.5479 230.221C43.643 230.316 43.7381 230.379 43.8332 230.443C43.9283 230.507 43.9917 230.57 44.0551 230.634C44.1502 230.697 44.277 230.761 44.4038 230.824C44.5306 230.888 44.6257 230.951 44.7525 231.046C44.911 231.142 45.0695 231.173 45.228 231.269C45.2914 231.3 45.3865 231.332 45.4816 231.364C45.5767 231.396 45.6718 231.459 45.7669 231.523C45.862 231.586 45.9888 231.65 46.1156 231.682C46.2107 231.745 46.2741 231.777 46.3692 231.809C46.5277 231.872 46.6862 231.904 46.8447 231.967C47.0033 231.999 47.1301 232.031 47.2886 231.999C47.4471 231.999 47.6373 231.967 47.7958 232.031C47.8592 232.063 47.8909 232.094 47.9543 232.094C48.1445 232.158 48.3664 232.126 48.5566 232.158C48.6834 232.158 48.8419 232.19 48.9687 232.19C49.0955 232.19 49.1906 232.19 49.3174 232.19C49.6978 232.19 50.0782 232.19 50.4586 232.19C50.3952 232.19 50.3635 232.158 50.3001 232.158C50.2367 232.158 50.205 232.126 50.1416 232.126C50.0465 232.126 49.888 232.031 49.888 231.936C49.9514 231.936 49.9831 231.967 50.0148 231.967C50.0782 231.967 50.1416 231.967 50.205 231.999C50.2684 231.999 50.3318 231.999 50.3635 231.999C50.4269 231.999 50.4586 232.031 50.522 232.031C50.7757 232.031 50.9976 232.126 51.2195 232.19C51.1561 232.158 51.1244 232.094 51.0927 232.094C51.0293 232.063 50.9342 232.031 50.9342 231.967C51.0293 231.936 51.1561 231.967 51.2512 231.967C51.4097 231.999 51.5682 232.031 51.7267 232.031C51.9803 232.063 52.2656 232.031 52.5509 232.031C52.5192 231.967 52.3924 231.999 52.329 231.967C52.2973 231.936 52.2339 231.904 52.2022 231.904C52.329 231.904 52.4241 231.936 52.5509 231.936C52.7411 231.936 52.8996 231.936 53.0898 231.936C53.2166 231.936 53.3434 231.967 53.4702 231.936C53.5653 231.904 53.6287 231.904 53.7238 231.904C53.8189 231.904 53.8823 231.872 53.9774 231.872C54.1994 231.872 54.4213 231.872 54.6432 231.84C54.9602 231.777 55.2455 231.84 55.5625 231.936C55.7527 231.967 55.9429 232.031 56.1331 232.126C56.2282 232.158 56.2916 232.253 56.3867 232.285C56.4184 232.285 56.4184 232.317 56.4501 232.317C56.4818 232.317 56.5452 232.349 56.5769 232.38C56.6403 232.412 56.7354 232.476 56.7988 232.539C56.9573 232.634 57.0207 232.793 57.1792 232.92C57.2109 232.952 57.2743 232.984 57.3377 233.047C57.3694 233.079 57.4328 233.111 57.4645 233.143C57.5913 233.206 57.7498 233.27 57.9084 233.333C58.0035 233.365 58.0986 233.365 58.1937 233.365C58.2254 233.365 58.2571 233.365 58.2888 233.333C58.3522 233.333 58.4156 233.365 58.4473 233.333C58.479 233.27 58.4473 233.238 58.4473 233.174C58.479 233.111 58.479 233.143 58.5424 233.143C58.6058 233.143 58.6375 233.111 58.7009 233.111C58.7643 233.111 58.796 233.143 58.8594 233.079C58.8594 233.079 58.8594 233.047 58.8594 233.015C58.8911 232.984 58.9545 232.984 58.9862 232.984C59.113 232.984 59.2398 232.984 59.3983 232.952C59.5885 232.92 59.7787 232.952 59.9689 232.984C60.698 233.079 61.4906 233.206 62.2197 233.143C62.6001 233.111 62.9488 233.174 63.2975 233.333C63.4243 233.397 63.4877 233.428 63.5511 233.524C63.6462 233.651 63.8047 233.714 63.8998 233.841C63.9315 233.873 63.9632 233.905 63.9632 233.936C63.9632 233.968 63.9949 233.968 63.9949 234C64.0266 233.936 63.9949 233.778 63.9632 233.714C63.9632 233.682 63.9632 233.619 63.9315 233.587C63.9949 233.651 64.1534 233.682 64.2168 233.746C64.2168 233.714 64.2168 233.651 64.2168 233.619C64.2168 233.587 64.1534 233.524 64.1851 233.492C64.2485 233.492 64.4387 233.651 64.4704 233.587C64.4704 233.555 64.4704 233.524 64.4704 233.524C64.4704 233.492 64.5021 233.492 64.5021 233.46C64.5338 233.397 64.5338 233.365 64.5972 233.333C64.6289 233.301 64.6923 233.301 64.724 233.27C64.7557 233.27 64.7874 233.238 64.8191 233.206C64.8825 233.143 64.9459 233.079 65.0093 233.015C65.041 232.984 65.0728 232.952 65.1045 232.92C65.1362 232.888 65.1679 232.92 65.1996 232.888C65.2947 232.857 65.2313 232.761 65.1996 232.698C65.1679 232.666 65.1679 232.666 65.1996 232.634C65.1996 232.603 65.2313 232.603 65.2313 232.603C65.2313 232.571 65.2313 232.539 65.2313 232.539C65.263 232.38 65.263 232.19 65.263 232.031C65.263 231.904 65.2313 231.745 65.263 231.618C65.2947 231.523 65.3264 231.459 65.3264 231.364C65.3264 231.3 65.3581 231.237 65.3581 231.142C65.3581 230.951 65.3581 230.761 65.3581 230.57C65.3581 230.443 65.3581 230.284 65.3264 230.157C65.2947 229.998 65.1362 229.84 65.0093 229.744C64.9142 229.681 64.8191 229.617 64.7557 229.522C64.8508 229.522 64.9459 229.49 65.041 229.49C64.9459 229.395 64.7557 229.427 64.6606 229.363C64.724 229.363 64.7557 229.363 64.7874 229.331C64.8508 229.331 64.9142 229.331 64.9776 229.331C64.9776 229.3 64.9142 229.3 64.8825 229.268C64.8508 229.236 64.8191 229.236 64.7874 229.236C64.6606 229.236 64.5655 229.236 64.4387 229.236C64.5021 229.236 64.5338 229.204 64.5972 229.204C64.6606 229.204 64.724 229.173 64.7874 229.141C64.724 229.141 64.6923 229.109 64.6289 229.109C64.5655 229.109 64.5021 229.109 64.4387 229.109C64.3436 229.109 64.2485 229.141 64.1534 229.141C64.1217 229.141 64.09 229.141 64.0583 229.141C63.9632 229.141 63.8364 229.204 63.773 229.236C63.5828 229.331 63.3292 229.49 63.3292 229.49C63.2341 229.586 63.139 229.649 63.0439 229.713C62.9171 229.808 62.7586 229.935 62.6001 229.935C62.5684 229.935 62.5367 229.935 62.505 229.935C62.4733 229.935 62.4099 229.967 62.3782 229.967C62.3148 229.967 62.2514 229.967 62.188 229.967C62.1246 229.967 62.0612 229.967 61.9978 229.998C61.9344 229.998 61.9027 230.03 61.8393 230.03C61.8076 230.03 61.7759 230.03 61.7442 230.03C61.7125 230.03 61.6808 230.062 61.6491 230.094C61.5223 230.157 61.3954 230.157 61.3003 230.189C61.2052 230.221 61.1101 230.252 61.015 230.252C60.9199 230.252 60.7931 230.316 60.7297 230.252C60.7931 230.252 60.8565 230.221 60.9199 230.189C60.9516 230.189 60.9833 230.157 61.015 230.157C61.0467 230.125 61.0784 230.094 61.1418 230.062C61.1101 230.062 61.0467 230.094 60.9833 230.125C60.9516 230.125 60.9199 230.157 60.8565 230.157C60.7297 230.189 60.6346 230.189 60.5078 230.189C60.2542 230.189 60.0006 230.189 59.7787 230.189C59.8421 230.189 59.9055 230.125 59.9372 230.094C60.064 230.03 60.1908 229.967 60.2859 229.871C60.2542 229.84 60.1908 229.871 60.1274 229.903C60.0957 229.903 60.064 229.903 60.0323 229.903C60.0006 229.903 59.9372 229.903 59.9055 229.935C59.8421 229.935 59.7787 229.935 59.747 229.935C59.6519 229.935 59.5251 229.935 59.43 229.935C59.3349 229.935 59.2715 229.935 59.2081 229.903C59.1764 229.903 59.1764 229.903 59.1447 229.903C59.2398 229.903 59.3349 229.903 59.43 229.871C59.4934 229.871 59.5568 229.84 59.6202 229.84C59.6836 229.808 59.747 229.776 59.8104 229.776C59.7153 229.776 59.6519 229.776 59.5568 229.808C59.43 229.84 59.2715 229.808 59.1447 229.808C58.9862 229.808 58.8277 229.808 58.6692 229.776C58.6058 229.776 58.5107 229.744 58.4473 229.713C58.2888 229.681 58.0986 229.617 57.9401 229.522C57.5913 229.395 57.2426 229.3 56.9256 229.204C56.8305 229.173 56.7354 229.141 56.6403 229.109C56.6086 229.109 56.5769 229.109 56.5769 229.109C56.5452 229.109 56.5452 229.077 56.5452 229.077C56.4184 229.046 56.3233 228.919 56.2282 228.855C56.1965 228.823 56.1648 228.823 56.1331 228.792C56.1014 228.76 56.0697 228.728 56.038 228.696C55.9429 228.601 55.8161 228.506 55.6893 228.41C55.6576 228.41 55.6576 228.41 55.6259 228.379C55.6259 228.347 55.5942 228.315 55.5625 228.315C55.4991 228.283 55.4357 228.283 55.404 228.252C55.3406 228.22 55.2455 228.125 55.1504 228.093C55.2772 228.125 55.3406 228.156 55.4674 228.22C55.3723 228.125 55.2772 228.029 55.1821 227.966C55.1187 227.902 54.9919 227.839 54.9285 227.743C54.8968 227.712 54.8651 227.648 54.8334 227.616C54.77 227.553 54.6432 227.489 54.5481 227.458C54.4213 227.394 54.2945 227.299 54.1676 227.235C54.1042 227.204 54.0091 227.172 53.9457 227.172C53.8506 227.14 53.7872 227.108 53.6921 227.045C53.597 226.981 53.5019 226.981 53.4068 226.918C53.3117 226.886 53.2166 226.854 53.1215 226.822C53.3434 226.664 53.5336 226.505 53.6921 226.346C53.7555 226.283 53.7872 226.219 53.8506 226.156C53.914 226.092 53.9774 226.029 54.0408 225.997C54.1359 226.029 54.2628 226.029 54.3579 226.029C54.4213 226.029 54.4847 226.029 54.5798 226.029C54.6115 226.029 54.6749 225.997 54.7066 225.965C54.7383 225.965 54.7383 225.933 54.77 225.933H54.8017C54.8334 225.933 54.8651 225.933 54.8651 225.933C54.8968 225.901 54.9285 225.87 54.9602 225.806V225.774C54.9602 225.711 54.8968 225.711 54.8651 225.679C54.8651 225.647 54.8651 225.616 54.8651 225.584C54.8651 225.552 54.8334 225.52 54.8334 225.489C54.8334 225.457 54.8334 225.457 54.8334 225.425C54.8017 225.362 54.77 225.298 54.7066 225.235C54.6749 225.203 54.6432 225.171 54.5798 225.139C54.5798 225.107 54.6115 225.107 54.6115 225.076C54.6432 225.076 54.6749 225.107 54.7066 225.107C54.8017 225.139 54.8968 225.107 54.9919 225.107C54.9602 225.107 54.9285 225.107 54.9285 225.076C55.0553 225.076 55.1821 225.076 55.3089 225.107C55.3723 225.107 55.4357 225.139 55.4674 225.139C55.4991 225.139 55.5308 225.171 55.5942 225.171C55.4991 225.107 55.404 225.012 55.3089 224.949C55.2772 224.917 55.2455 224.885 55.2138 224.853C55.1821 224.822 55.1821 224.79 55.1187 224.79C55.1821 224.79 55.2455 224.822 55.3089 224.822C55.3723 224.822 55.4357 224.853 55.5308 224.853C55.5942 224.853 55.6576 224.885 55.7527 224.885C55.7844 224.885 55.8795 224.917 55.9112 224.917C55.8795 224.885 55.7844 224.853 55.7527 224.79C55.8161 224.758 55.8795 224.822 55.9429 224.822C55.9746 224.822 56.0063 224.822 56.038 224.853C56.0697 224.853 56.1014 224.885 56.1331 224.885C56.1648 224.917 56.1965 224.949 56.2599 224.98C56.3867 225.076 56.5769 225.107 56.7037 225.171C56.7988 225.235 56.8622 225.298 56.9573 225.33C57.0524 225.362 57.1158 225.457 57.2109 225.489C57.306 225.52 57.3694 225.584 57.4328 225.616C57.4962 225.647 57.5913 225.711 57.6864 225.743C57.7181 225.743 57.7498 225.743 57.8132 225.743C57.9083 225.743 58.0352 225.774 58.1303 225.774C58.2571 225.774 58.4156 225.806 58.5424 225.806C58.8594 225.743 59.2081 225.711 59.5251 225.711C60.064 225.679 60.5712 225.616 61.1101 225.616C61.2686 225.616 61.4272 225.584 61.5857 225.552C61.7442 225.552 61.871 225.552 62.0295 225.52C62.1563 225.489 62.6318 225.584 62.6952 225.457C62.6001 225.393 62.4099 225.362 62.3782 225.235C62.505 225.203 62.6952 225.203 62.822 225.235C62.7586 225.171 62.6952 225.107 62.6001 225.044C62.7269 224.98 62.9488 225.044 63.1073 225.012C63.2024 224.98 63.3609 224.98 63.456 224.885C63.4243 224.79 63.2658 224.726 63.2024 224.695C63.1707 224.663 63.0756 224.631 63.0756 224.599C63.1707 224.568 63.2658 224.599 63.3292 224.568C63.456 224.536 63.5511 224.504 63.6779 224.472C63.8364 224.441 64.0583 224.314 64.2168 224.314C64.1217 224.345 63.9949 224.282 63.9949 224.155C64.1534 224.091 64.3753 224.186 64.5338 224.123C64.5655 224.059 64.5338 223.996 64.5021 223.932C64.5655 223.901 64.5972 223.901 64.6606 223.869L64.7874 223.774C64.8191 223.71 64.7874 223.678 64.8508 223.615C64.9142 223.551 64.9459 223.551 65.0093 223.488C65.041 223.424 65.0728 223.361 65.1045 223.297C65.1679 223.011 65.041 221.741 65.041 221.138C65.041 220.82 65.1045 220.439 65.0093 220.121C64.9776 219.994 64.9142 220.026 64.8191 219.963C64.7557 219.931 64.7557 219.867 64.6606 219.899C64.6289 219.899 64.5021 219.963 64.5021 219.994C64.5021 219.963 64.5338 219.899 64.5338 219.867C64.4704 219.867 64.4387 219.867 64.3753 219.867C64.3119 219.867 64.2485 219.804 64.1851 219.804C64.2168 219.74 64.2802 219.74 64.3119 219.677C64.1534 219.613 63.9949 219.708 63.8681 219.772C63.7096 219.836 63.5511 219.899 63.456 220.058C63.2658 220.439 63.139 220.852 62.9805 221.265C62.9171 221.423 62.7903 221.582 62.6635 221.678C62.6318 221.709 62.4099 221.932 62.3465 221.805C62.3465 221.773 62.3782 221.709 62.3782 221.678C62.3782 221.646 62.4099 221.614 62.4416 221.55C62.3465 221.614 62.2831 221.741 62.2197 221.805C62.1563 221.868 62.0612 221.932 61.9978 221.995C61.871 222.059 61.7442 222.154 61.5857 222.186C61.5223 222.186 61.4906 222.186 61.4272 222.186C61.332 222.186 61.2369 222.281 61.1418 222.313C61.0784 222.344 61.015 222.376 60.9516 222.408L60.9199 222.44C60.9199 222.44 60.4444 222.249 60.0957 222.344C59.9372 222.408 59.7787 222.471 59.6202 222.535C59.43 222.599 59.2081 222.567 59.0496 222.503V222.471C58.9862 222.471 58.9545 222.44 58.8911 222.44C58.8277 222.44 58.7326 222.44 58.6692 222.44C58.5741 222.44 58.4473 222.44 58.3522 222.408C58.2571 222.376 58.1303 222.376 58.0352 222.313C58.0986 222.217 58.3205 222.313 58.3839 222.249C58.2571 222.249 58.1303 222.281 58.0035 222.249C57.9084 222.217 57.8449 222.249 57.7498 222.217C57.6864 222.217 57.5913 222.186 57.5279 222.154C57.5913 222.122 57.6547 222.09 57.7181 222.09C57.7816 222.059 57.845 222.027 57.8767 221.995C57.9401 221.963 58.0035 221.932 58.0669 221.868C58.0352 221.868 58.0035 221.868 57.9718 221.868C57.9401 221.868 57.9401 221.868 57.9084 221.9C57.8132 221.9 57.7498 221.9 57.6547 221.9C57.5913 221.9 57.4645 221.9 57.4011 221.868C57.4011 221.836 57.5279 221.805 57.5596 221.773C57.623 221.741 57.6864 221.709 57.7498 221.709C57.5913 221.709 57.4645 221.709 57.306 221.678C57.2426 221.646 57.1475 221.646 57.0841 221.614C57.0207 221.582 56.989 221.55 56.9256 221.55C56.8939 221.55 56.8622 221.519 56.8305 221.487C56.8939 221.487 56.989 221.519 57.0524 221.519C57.0841 221.519 57.0841 221.487 57.1158 221.487C57.1475 221.487 57.1792 221.487 57.2109 221.487C57.2743 221.487 57.3377 221.455 57.3694 221.455C57.2109 221.455 57.0841 221.455 56.9256 221.423C56.8622 221.423 56.7671 221.392 56.7037 221.36C56.672 221.36 56.6403 221.328 56.6086 221.296C56.5769 221.296 56.5452 221.296 56.5135 221.265C56.5452 221.265 56.5769 221.265 56.6086 221.265C56.6403 221.265 56.6403 221.265 56.672 221.233C56.7037 221.233 56.8305 221.233 56.8305 221.169C56.7671 221.169 56.7354 221.169 56.7037 221.138C56.6403 221.106 56.5769 221.106 56.5135 221.074C56.4818 221.074 56.4184 221.042 56.3867 221.042C56.3867 220.979 56.3867 220.947 56.3867 220.884C56.355 220.852 56.355 220.82 56.355 220.757C56.355 220.693 56.355 220.629 56.355 220.534C56.355 220.534 56.355 220.534 56.355 220.502C56.355 220.502 56.3233 220.439 56.3233 220.407C56.3233 220.344 56.2916 220.312 56.2599 220.28C56.2916 220.312 56.3233 220.312 56.3867 220.344C56.4184 220.344 56.4818 220.375 56.5135 220.375C56.5135 220.344 56.4501 220.312 56.4501 220.248C56.4184 220.185 56.3867 220.153 56.355 220.09C56.3233 220.026 56.3233 219.963 56.2916 219.867C56.2916 219.836 56.2599 219.804 56.2599 219.772C56.2599 219.645 56.1965 219.486 56.1965 219.359C56.2916 219.327 56.3867 219.296 56.4818 219.264C56.5452 219.232 56.6403 219.2 56.672 219.137C56.672 219.105 56.7037 219.105 56.7037 219.073C56.7354 219.042 56.7354 219.01 56.7671 218.978C56.7988 218.946 56.7988 218.914 56.7988 218.883C56.8305 218.819 56.8939 218.851 56.9256 218.787V218.756C56.9256 218.692 56.9256 218.629 56.8939 218.597C56.8622 218.565 56.8305 218.565 56.8305 218.565H56.7988C56.7671 218.565 56.7671 218.533 56.7354 218.533C56.7037 218.502 56.672 218.47 56.6086 218.438C56.5452 218.406 56.4501 218.406 56.3867 218.375C56.2599 218.343 56.1331 218.343 55.9746 218.311C55.9429 218.311 55.9429 218.311 55.9112 218.311V218.279V218.248C55.9112 218.216 55.8795 218.184 55.8795 218.152C55.8478 218.089 55.7844 217.993 55.7527 217.898C55.721 217.866 55.721 217.866 55.7527 217.866C55.8161 217.866 55.8478 217.866 55.9112 217.866C55.9112 217.835 55.8795 217.835 55.8478 217.803C55.8161 217.771 55.8161 217.771 55.7844 217.739C55.721 217.708 55.6893 217.644 55.6576 217.612L55.6259 217.581C55.5942 217.549 55.5942 217.549 55.5625 217.517C55.5942 217.517 55.6259 217.549 55.6576 217.549C55.721 217.581 55.7527 217.581 55.8161 217.612C55.7527 217.581 55.6893 217.549 55.6259 217.517C55.5625 217.485 55.4991 217.422 55.4357 217.358C55.404 217.327 55.3723 217.263 55.3406 217.231C55.3089 217.2 55.2772 217.136 55.2455 217.104C55.2138 217.041 55.1821 216.945 55.1187 216.882C55.087 216.85 55.087 216.787 55.0553 216.755C55.0553 216.755 55.0553 216.723 55.0236 216.723C55.0236 216.691 54.9919 216.691 54.9919 216.66C54.9602 216.596 54.9602 216.533 54.9285 216.469C54.9285 216.374 54.8968 216.279 54.8017 216.215C54.8017 216.183 54.8017 216.183 54.77 216.151C54.8334 216.12 54.8968 216.215 54.9602 216.215C55.0236 216.247 55.2138 216.31 55.2455 216.278C55.2138 216.183 55.1187 216.12 55.087 216.024C55.0553 215.993 55.0553 215.961 55.0236 215.929C55.0553 215.897 55.087 215.866 55.087 215.834C55.087 215.802 55.1187 215.802 55.1187 215.77C55.1504 215.739 55.1504 215.707 55.1821 215.675C55.1821 215.643 55.2138 215.612 55.2138 215.58C55.2455 215.516 55.3089 215.516 55.3406 215.485V215.453C55.3406 215.389 55.3089 215.326 55.2772 215.294C55.2455 215.262 55.2138 215.262 55.1821 215.262H55.1504C55.1187 215.262 55.1187 215.23 55.087 215.23C55.0553 215.199 54.9919 215.167 54.9602 215.167C54.8968 215.135 54.8017 215.135 54.7383 215.135C54.7383 215.103 54.7383 215.103 54.7383 215.072C54.7383 215.008 54.7383 214.945 54.77 214.881C54.8017 214.722 54.8017 214.564 54.8017 214.405C54.8017 214.309 54.8017 214.214 54.8334 214.119C54.8651 214.024 54.8651 213.928 54.8968 213.833C54.9285 213.738 54.9602 213.611 55.0236 213.515C55.087 213.42 55.1821 213.452 55.2772 213.484C55.2455 213.42 55.2455 213.357 55.2138 213.293C55.1821 213.261 55.1504 213.198 55.1821 213.134C55.2772 213.198 55.3723 213.293 55.4674 213.357C55.404 213.134 55.3406 212.944 55.1821 212.785C55.3406 212.849 55.4357 212.976 55.5942 213.071C55.5625 212.944 55.4991 212.785 55.4674 212.658C55.4674 212.626 55.4674 212.594 55.4357 212.563C55.4674 212.563 55.4991 212.594 55.5308 212.626C55.5625 212.658 55.5625 212.658 55.6259 212.626C55.6893 212.594 55.7844 212.531 55.8478 212.499C55.8795 212.499 55.9112 212.499 55.9429 212.499C56.038 212.467 56.1014 212.467 56.1965 212.499C56.2916 212.531 56.355 212.499 56.4184 212.499C56.6403 212.467 56.8622 212.499 57.0841 212.563C56.989 212.436 56.7988 212.372 56.7037 212.245C56.8622 212.277 57.0841 212.404 57.2426 212.34C57.2109 212.277 57.1475 212.245 57.1792 212.182C57.5596 212.277 57.9083 212.372 58.2888 212.245C58.1303 212.118 57.9401 211.991 57.7815 211.864C57.7498 211.832 57.7181 211.8 57.6864 211.769C57.6547 211.737 57.6547 211.673 57.623 211.642C57.7498 211.642 57.8766 211.705 57.9718 211.769C58.0035 211.8 58.2888 211.991 58.3205 211.959C58.2571 211.896 58.1937 211.832 58.1937 211.769C58.2888 211.737 58.5741 211.896 58.6375 211.8C58.6692 211.769 58.6375 211.705 58.6375 211.673C58.6692 211.61 58.7009 211.642 58.7643 211.642C58.9862 211.642 59.1764 211.705 59.3983 211.705C59.5568 211.737 59.5885 211.769 59.6836 211.864C59.5885 211.673 59.4617 211.515 59.3349 211.388C59.5568 211.419 59.7153 211.642 59.9689 211.546C59.9689 211.515 59.9689 211.483 59.9689 211.483C60.0957 211.451 60.2225 211.515 60.3493 211.515C60.4444 211.515 60.5395 211.546 60.6663 211.546C60.7297 211.546 60.8565 211.578 60.9199 211.61C60.9833 211.642 61.015 211.737 61.0784 211.769C61.015 211.705 60.9833 211.578 61.015 211.515C61.1101 211.546 61.1735 211.61 61.2369 211.673C61.3003 211.705 61.3637 211.737 61.3954 211.8C61.3637 211.769 61.332 211.737 61.3003 211.673C61.2686 211.61 61.2369 211.578 61.2052 211.515C61.1735 211.483 61.1418 211.324 61.1735 211.292C61.2686 211.324 61.3638 211.388 61.4272 211.419C61.4906 211.451 61.5223 211.546 61.5857 211.515C61.554 211.451 61.5223 211.419 61.5223 211.356C61.6491 211.356 61.7125 211.483 61.8076 211.483C61.871 211.388 61.7442 211.292 61.7442 211.165C61.8076 211.165 61.8393 211.197 61.871 211.229C62.0612 211.292 62.2197 211.261 62.4099 211.261C62.5367 211.261 62.6635 211.261 62.7586 211.261C62.9171 211.261 63.0756 211.229 63.2341 211.229C63.3926 211.229 63.5194 211.229 63.6779 211.229C63.7413 211.229 63.9315 211.197 63.9632 211.261C63.9949 211.165 63.8364 211.007 63.773 210.911C63.8681 210.911 63.9949 211.038 64.0583 211.07C64.1851 211.134 64.3753 211.261 64.5021 211.292C64.5972 211.324 64.6606 211.324 64.724 211.324C64.7874 211.324 64.8508 211.356 64.9142 211.356C64.7874 211.292 64.6923 211.165 64.5972 211.07C64.5021 211.007 64.3753 210.943 64.3436 210.848C64.4387 210.816 64.5655 210.911 64.6289 210.879C64.6289 210.848 64.6289 210.848 64.5972 210.848C64.724 210.848 64.8825 210.848 65.0093 210.848C65.0728 210.848 65.1362 210.848 65.1996 210.848C65.263 210.816 65.2947 210.784 65.3898 210.816C65.3264 210.784 65.1362 210.657 65.1362 210.562C65.2313 210.53 65.3264 210.625 65.4215 210.594C65.5166 210.562 65.4849 210.498 65.5483 210.435C65.6117 210.371 65.7068 210.403 65.7702 210.308C65.8653 210.181 65.8019 209.927 65.8336 209.768C65.897 209.26 65.9287 208.72 65.9604 208.212C65.9604 207.958 65.9921 207.672 65.9921 207.418C65.9921 207.195 66.0238 207.037 65.9604 206.846C65.9604 206.814 65.9287 206.751 65.9604 206.687C65.9604 206.656 65.9921 206.656 65.9921 206.592C65.9921 206.528 65.9287 206.465 65.9604 206.401C65.9604 206.37 65.9921 206.338 65.9921 206.306C65.9921 206.179 65.8019 206.179 65.8019 206.052H65.8336C65.7068 206.052 65.58 206.052 65.4532 206.052C65.4215 206.052 65.4215 206.02 65.3581 205.989C65.2947 205.989 65.2947 206.02 65.2313 206.02C65.1362 206.02 65.1362 205.989 65.1362 205.893C65.041 205.862 64.7874 205.862 64.724 205.925C64.6923 205.925 64.6606 205.925 64.6606 205.925C64.5972 205.925 64.5655 205.957 64.5338 205.989C64.407 206.02 64.3436 206.052 64.2168 206.052C64.2802 206.02 64.3436 206.02 64.3436 205.957C64.1851 205.893 64.0266 205.989 63.8681 206.084C63.773 206.147 63.7096 206.211 63.6145 206.274C63.5511 206.306 63.456 206.338 63.3926 206.338C63.1073 206.433 62.9488 206.687 62.6952 206.783C62.4733 206.878 62.2514 206.973 61.9978 207.037C61.9027 207.068 61.8076 207.1 61.7442 207.132C61.5857 207.164 61.4272 207.132 61.2686 207.132C61.1735 207.132 61.1101 207.132 61.0467 207.164C60.9833 207.195 60.9516 207.195 60.8882 207.164C60.7931 207.1 60.8248 206.814 60.6346 206.878C60.5712 206.91 60.5078 207.005 60.4761 207.037C60.4127 207.1 60.3493 207.164 60.2859 207.164C60.1591 207.164 60.2542 206.941 60.2225 206.846C60.0957 206.878 59.9372 207.005 59.8104 207.068C59.747 207.1 59.6202 207.132 59.5885 207.1C59.5251 207.068 59.5568 206.941 59.5885 206.878C59.5251 206.846 59.5251 206.91 59.4934 206.91C59.43 206.941 59.3349 206.91 59.2398 206.941C59.113 206.973 59.0179 207.005 58.8911 207.037C58.8277 207.037 58.7643 207.037 58.7326 207.068C58.7009 207.005 58.796 206.973 58.796 206.91C58.7643 206.91 58.6375 206.941 58.6058 206.941C58.5107 206.973 58.4156 207.037 58.2888 207.068C58.2254 207.1 58.1303 207.132 58.0669 207.068C58.0035 207.005 58.0352 206.941 58.0352 206.878C57.845 206.91 57.623 207.1 57.4328 207.227C57.3377 207.291 57.2426 207.354 57.1475 207.322C56.989 207.291 57.1475 207.195 57.1475 207.1C57.1475 207.005 56.9573 207.068 56.8939 207.1C56.7671 207.132 56.6086 207.195 56.4818 207.1C56.3867 207.037 56.2599 206.814 56.2599 206.719C56.3233 206.751 56.3867 206.814 56.4501 206.783C56.4501 206.656 56.2599 206.624 56.1965 206.497C56.2282 206.528 56.2916 206.529 56.3233 206.56C56.3233 206.401 56.1331 206.401 56.0697 206.274C56.1331 206.243 56.2282 206.338 56.2916 206.338C56.3867 206.37 56.5135 206.338 56.6086 206.338C56.4501 206.306 56.2599 206.147 56.1331 206.052C55.9429 205.893 56.3233 205.766 56.4818 205.735C56.6086 205.703 56.7671 205.735 56.8939 205.735C56.989 205.735 57.0841 205.703 57.1475 205.735C57.2426 205.766 57.306 205.83 57.4011 205.83C57.3377 205.735 57.2109 205.703 57.1475 205.607C57.2109 205.671 57.306 205.671 57.4011 205.671C57.5596 205.703 57.7498 205.735 57.9084 205.798C57.8449 205.766 57.7498 205.671 57.8132 205.639C58.0035 205.671 58.2888 205.703 58.4473 205.862C58.3522 205.735 58.2254 205.544 58.3522 205.48C58.479 205.417 58.7643 205.703 58.8594 205.703C58.796 205.607 58.7009 205.544 58.7326 205.449C58.7326 205.449 59.113 205.735 59.1764 205.735C59.2715 205.766 59.3349 205.735 59.43 205.703C59.5251 205.671 59.5885 205.671 59.6836 205.671C59.8738 205.671 60.064 205.735 60.2542 205.671C60.2542 205.607 60.2225 205.544 60.1908 205.48C60.4761 205.385 60.7931 205.544 61.0784 205.544C61.2686 205.544 61.3638 205.607 61.5223 205.607C61.8393 205.639 62.1246 205.671 62.4416 205.576C62.5684 205.544 62.6952 205.48 62.8537 205.48C62.9805 205.48 63.3609 205.639 63.456 205.576C63.4877 205.544 63.5511 205.512 63.5828 205.48C63.6462 205.449 63.7413 205.417 63.8364 205.385C63.8998 205.385 63.9632 205.385 64.0266 205.353C64.2802 205.322 64.5021 205.258 64.7557 205.195C64.7874 205.195 64.8508 205.163 64.8825 205.163C65.0093 205.099 65.0727 205.004 65.1996 204.972C65.1996 204.909 65.2313 204.845 65.263 204.782C65.263 204.718 65.2947 204.655 65.3264 204.591C65.4215 204.432 65.4215 204.274 65.3898 204.083C65.3898 203.988 65.3264 203.893 65.3581 203.797C65.3581 203.734 65.3898 203.734 65.4215 203.67C65.4849 203.575 65.4215 203.448 65.3898 203.353C65.3581 203.257 65.263 203.003 65.3264 202.876C65.3581 202.908 65.4215 202.94 65.4849 202.94C65.5166 202.844 65.4532 202.749 65.4532 202.686C65.4532 202.59 65.4849 202.495 65.4532 202.4C65.4215 202.305 65.4215 202.273 65.4215 202.178C65.4215 202.114 65.4215 202.05 65.4215 201.987C65.4215 201.892 65.4215 201.828 65.3898 201.733C65.3898 201.669 65.3898 201.638 65.3581 201.574C65.3264 201.511 65.2947 201.479 65.2947 201.415C65.263 201.193 65.4215 201.257 65.5483 201.225C65.5166 201.129 65.3264 201.066 65.2947 200.971C65.2313 200.875 65.2947 200.812 65.4215 200.844C65.263 200.78 65.1679 200.717 64.9776 200.717C64.7874 200.717 64.5972 200.717 64.407 200.748C64.5338 200.78 64.5338 200.653 64.6289 200.59C64.5021 200.59 64.407 200.685 64.2802 200.748C64.1217 200.844 63.9949 200.907 63.8364 200.971C63.7413 201.002 63.6462 201.034 63.6145 201.129C63.5511 201.257 63.4877 201.447 63.3926 201.542C63.3609 201.574 63.3292 201.606 63.2975 201.606C63.1073 201.733 62.9805 201.86 62.7903 201.987C62.5684 202.178 62.3782 202.305 62.0929 202.336C61.8393 202.336 61.6174 202.368 61.3638 202.432C61.2052 202.463 61.0784 202.432 60.9516 202.4C60.8248 202.4 60.6663 202.4 60.5395 202.432C60.2542 202.432 60.064 202.241 59.8104 202.146C59.5885 202.05 59.3032 202.05 59.0813 202.019C59.1447 201.923 59.2398 201.923 59.2715 201.828C59.113 201.765 58.9228 201.892 58.796 201.733C58.8594 201.701 58.9228 201.669 58.9545 201.606C58.8277 201.574 58.6058 201.606 58.479 201.606C58.2571 201.606 58.0035 201.606 57.7815 201.606C57.7815 201.511 57.0207 201.352 56.9256 201.32C56.7988 201.288 56.672 201.257 56.5452 201.257C56.4501 201.257 56.355 201.225 56.2599 201.225C56.2282 201.225 56.1648 201.193 56.1331 201.193C56.1014 201.193 56.038 201.193 56.0063 201.193C55.9429 201.193 55.8795 201.129 55.8478 201.129C55.7844 201.098 55.721 201.098 55.6893 201.066C55.6259 201.066 55.5308 201.066 55.4674 201.066C55.3089 201.034 55.1187 201.034 54.9285 201.034C54.9602 201.002 55.0236 200.971 55.0236 200.907C54.9602 200.875 54.9285 200.907 54.8334 200.939C54.77 200.939 54.7066 200.939 54.6432 200.939C54.4847 200.907 54.5481 200.844 54.6749 200.812C54.5798 200.812 54.4847 200.812 54.3896 200.812C54.3262 200.812 54.0725 200.844 54.0408 200.812C54.1359 200.685 54.2628 200.59 54.3579 200.463C54.2628 200.431 54.1677 200.431 54.0725 200.431C53.9457 200.431 53.7872 200.399 53.6604 200.399C53.4702 200.399 53.2483 200.367 53.0898 200.272C53.0264 200.24 52.9947 200.208 52.9313 200.177C52.8045 200.113 52.646 200.081 52.5192 200.05C52.4241 200.018 52.2973 200.018 52.2022 199.986C52.0754 199.923 51.9803 199.859 51.8852 199.796C51.7584 199.732 51.4731 199.446 51.3146 199.542C51.2829 199.446 51.0927 199.256 51.0293 199.192C50.9342 199.319 50.9659 199.446 50.9342 199.605C50.8074 199.478 50.8708 199.097 50.6806 199.033C50.6489 199.256 50.4586 199.383 50.2367 199.319C50.2684 199.256 50.3001 199.192 50.3318 199.129C50.205 199.065 50.1416 199.16 50.0148 199.192C49.9197 199.224 49.7929 199.224 49.6978 199.192C49.6978 199.033 49.9197 198.906 49.9197 198.779C49.7929 198.716 49.6027 198.875 49.4759 198.906C49.3491 198.938 49.1906 198.938 49.0638 198.938C48.7785 198.938 48.5249 198.906 48.2713 198.906C48.1762 198.906 48.0811 198.906 48.0177 198.938C47.8909 198.97 47.6056 199.033 47.4788 198.97C47.4788 198.843 47.6373 198.748 47.7641 198.684C47.7324 198.684 47.7007 198.684 47.669 198.684C47.6056 198.684 47.5739 198.716 47.5105 198.716C47.4154 198.748 47.3203 198.748 47.2252 198.748C47.035 198.748 46.8447 198.875 46.6545 198.875C46.5277 198.875 46.3692 198.906 46.2424 198.938C46.1473 198.938 46.0522 198.938 45.9571 198.938C45.8937 198.938 45.7986 198.906 45.7352 198.906C45.7986 198.938 45.8937 198.811 45.9254 198.779C46.0205 198.684 46.1473 198.557 46.2741 198.525C45.9888 198.557 45.7352 198.684 45.4816 198.716C45.2597 198.748 44.9744 198.843 44.7525 198.716C44.8476 198.652 44.9427 198.589 45.0378 198.525C44.911 198.525 44.8159 198.621 44.6891 198.652C44.5306 198.684 44.4038 198.748 44.277 198.779C44.0868 198.811 43.9283 198.875 43.7381 198.875C43.643 198.875 43.5479 198.906 43.4528 198.906C43.4845 198.843 43.5479 198.811 43.6113 198.779C43.643 198.748 43.6747 198.716 43.7381 198.684C43.8332 198.621 43.8966 198.557 43.96 198.462C43.8966 198.43 43.7381 198.525 43.7064 198.557C43.6113 198.589 43.5479 198.589 43.4528 198.621C43.3577 198.652 43.2625 198.652 43.1674 198.652C43.104 198.652 43.0406 198.684 42.9772 198.716C42.9455 198.716 42.9138 198.716 42.9138 198.716C42.8821 198.716 42.7553 198.875 42.7553 198.843C42.7236 198.748 42.8821 198.621 42.9455 198.589C42.9138 198.589 42.8187 198.621 42.787 198.652C42.7553 198.652 42.7236 198.684 42.6919 198.684C42.6602 198.716 42.6285 198.748 42.5968 198.779C42.5334 198.843 42.4066 198.97 42.3115 198.938C42.3115 198.906 42.3749 198.875 42.4066 198.843C42.3432 198.875 42.2798 198.906 42.2164 198.938C42.1847 198.938 42.153 198.97 42.1213 198.97C42.0896 198.97 42.0579 198.97 42.0579 198.97C42.0262 198.97 41.9945 199.002 41.9628 199.002C41.8677 199.002 41.8043 199.002 41.7092 199.002C41.6775 198.938 41.6458 198.875 41.6458 198.811C41.6141 198.684 41.6141 198.557 41.6141 198.43C41.6141 198.366 41.5824 198.335 41.5824 198.303C41.5507 198.144 41.6141 197.954 41.5824 197.795C41.5507 197.731 41.5507 197.636 41.519 197.572C41.4873 197.477 41.3922 197.382 41.3288 197.318C41.2971 197.287 41.2971 197.287 41.2654 197.255C41.2337 197.223 41.202 197.16 41.202 197.096C41.2337 197.033 41.3288 197.001 41.3605 196.969C41.4873 196.842 41.2971 196.842 41.202 196.747C41.2654 196.651 41.4873 196.715 41.5824 196.683C41.3605 196.715 41.1703 196.397 40.9484 196.429C41.1069 196.429 41.2654 196.429 41.3922 196.429C41.3288 196.429 41.2337 196.397 41.1703 196.366C41.0435 196.334 40.8216 196.143 40.7582 196.016C40.8216 196.016 40.885 195.985 40.9484 195.953C41.0435 195.953 41.1386 195.953 41.2337 195.953C41.0752 195.889 40.9484 195.794 40.7582 195.762C40.5363 195.762 40.3778 195.762 40.1559 195.73C40.251 195.762 40.3144 195.667 40.4095 195.667C40.5046 195.635 40.5997 195.667 40.6948 195.667C40.6314 195.603 40.5046 195.635 40.4412 195.635C40.251 195.635 40.0925 195.635 39.9023 195.635C39.9657 195.572 40.0925 195.572 40.1559 195.54C40.2827 195.476 40.3778 195.413 40.5046 195.349C40.3461 195.286 40.1242 195.286 39.9657 195.318C39.8072 195.349 39.6169 195.381 39.4584 195.445C39.4267 195.476 39.3316 195.54 39.2999 195.508C39.2365 195.508 39.2365 195.445 39.2048 195.413C39.1731 195.381 39.1097 195.381 39.078 195.381C39.0463 195.381 39.0146 195.381 39.0146 195.381C38.9829 195.381 38.9829 195.349 38.9512 195.349C38.9195 195.349 38.8878 195.349 38.8878 195.349C38.8561 195.349 38.8561 195.318 38.8561 195.318C38.761 195.286 38.6659 195.349 38.5391 195.349C38.4757 195.349 38.444 195.349 38.3806 195.349C38.3172 195.349 38.2855 195.381 38.2221 195.381C38.1587 195.381 38.1587 195.381 38.0953 195.413C38.0636 195.413 38.0319 195.413 37.9685 195.445C37.9368 195.476 37.9051 195.508 37.8734 195.508C37.8417 195.54 37.81 195.508 37.81 195.54C37.7783 195.572 37.7783 195.603 37.7783 195.635C37.7466 195.699 37.7149 195.762 37.6832 195.826C37.6515 195.857 37.493 195.889 37.5247 195.921C37.493 195.857 37.5247 195.826 37.5247 195.762C37.4296 195.826 37.3028 195.921 37.2711 196.048C37.2711 196.08 37.2394 196.112 37.2394 196.143C37.2077 196.207 37.1443 196.27 37.1126 196.302C37.0809 196.334 37.0809 196.397 37.0492 196.429C37.0175 196.461 36.9858 196.461 36.9541 196.493C36.9541 196.429 36.9858 196.334 36.9541 196.27C36.9224 196.27 36.9224 196.334 36.8907 196.366C36.859 196.397 36.8273 196.429 36.7956 196.461C36.7322 196.524 36.7005 196.588 36.6371 196.62C36.6371 196.588 36.6371 196.524 36.6371 196.493C36.5737 196.493 36.5103 196.588 36.4786 196.62C36.4469 196.651 36.3835 196.683 36.3518 196.715C36.3201 196.747 36.2567 196.747 36.225 196.779C36.1933 196.81 36.1299 196.779 36.0982 196.779C36.0665 196.779 35.9713 196.81 35.9713 196.81C35.9396 196.778 35.9079 196.779 35.8445 196.779C35.8128 196.779 35.8128 196.747 35.7811 196.747C35.7494 196.747 35.7177 196.747 35.686 196.747C35.6226 196.747 35.5909 196.715 35.5275 196.715C35.4641 196.683 35.4324 196.683 35.369 196.683C35.3373 196.683 35.3056 196.651 35.3056 196.651C35.2739 196.651 35.2422 196.651 35.2422 196.62C35.2105 196.62 35.1788 196.588 35.1471 196.556C35.1154 196.524 35.0837 196.461 35.0837 196.429C35.0203 196.302 34.9886 196.175 34.9252 196.048C34.8935 196.016 34.8935 195.985 34.8618 195.985C34.8301 195.985 34.8301 195.953 34.7984 195.953C34.7667 195.921 34.6082 195.826 34.5765 195.857C34.5448 195.889 34.5131 195.889 34.4497 195.889C34.3863 195.857 34.3546 195.857 34.2912 195.857C34.2912 195.826 34.3229 195.826 34.3229 195.826C34.3229 195.857 34.1961 195.826 34.1644 195.826C34.1327 195.826 34.101 195.857 34.0376 195.857C34.0376 195.857 34.0059 195.857 33.9742 195.857C33.9742 195.826 34.0376 195.794 34.0693 195.762C33.9742 195.762 33.9108 195.794 33.8474 195.794C33.8157 195.794 33.7523 195.826 33.7206 195.826C33.6889 195.826 33.6572 195.857 33.6255 195.889C33.5304 195.921 33.4353 195.985 33.3719 196.016C33.3085 196.08 33.2134 196.112 33.15 196.175C33.1183 196.207 33.0549 196.207 33.0232 196.143C32.9915 196.112 32.9915 196.08 32.9598 196.08C32.9281 196.08 32.8964 196.08 32.8647 196.048C32.833 196.048 32.8013 196.016 32.8013 196.016C32.7379 195.985 32.6745 195.889 32.8013 195.889C32.9598 195.857 33.15 195.826 33.3085 195.762C33.3402 195.73 33.3719 195.73 33.4036 195.699C33.4353 195.699 33.4353 195.667 33.4353 195.667C33.467 195.635 33.467 195.635 33.4987 195.635L33.5304 195.603C33.5621 195.603 33.5621 195.572 33.5938 195.572C33.6255 195.54 33.6889 195.508 33.7206 195.476C33.7523 195.445 33.784 195.413 33.8157 195.413H33.8474L33.8791 195.381C33.9108 195.349 33.9108 195.254 33.8791 195.191C33.8791 195.159 33.8474 195.127 33.8157 195.127C33.7206 195.095 33.6255 195.064 33.5304 195.032C33.4353 195 33.3402 195 33.2451 195C33.0866 195 32.9281 195 32.8013 195.032C32.7379 195.032 32.7062 195.032 32.6745 195.032C32.6428 195.032 32.5794 195.064 32.5477 195.032C32.5477 195 32.5794 195 32.6111 195C32.6428 195 32.6745 195 32.6745 195C32.3574 195.381 32.294 195.381 32.2623 195.381Z" fill="#90A9E6"/>
<circle cx="58.4375" cy="65.5625" r="4.9375" fill="#008900" stroke="white"/>
<circle cx="58.4375" cy="81.4375" r="4.9375" fill="#74C043" stroke="white"/>
<circle cx="58.4375" cy="49.854" r="4.9375" fill="#E2001A" stroke="white"/>
<circle cx="58.4375" cy="34.146" r="4.9375" fill="#007ABD" stroke="white"/>
<circle cx="58.4375" cy="18.4375" r="4.9375" fill="#6B288A" stroke="white"/>
</svg>
