<svg width="81" height="259" viewBox="0 0 81 259" fill="none" xmlns="http://www.w3.org/2000/svg">
<path d="M0 0H81V211C81 237.51 59.5097 259 33 259H0V0Z" fill="#E5508D"/>
<path d="M48.417 220.657C48.4579 220.728 48.5096 220.79 48.5241 220.869C48.5313 220.904 48.5313 220.923 48.5481 220.957C48.5878 221.034 48.642 221.106 48.6841 221.183C48.7635 221.33 48.8657 221.46 48.962 221.593C49.0306 221.688 49.0895 221.781 49.1509 221.881C49.1725 221.917 49.1966 221.952 49.217 221.987C49.2339 222.014 49.2604 222.069 49.2832 222.083C49.2676 222.022 49.2207 221.964 49.2207 221.901C49.2207 221.903 49.3313 221.971 49.3398 221.978C49.3686 222.004 49.4011 222.033 49.4228 222.065C49.4348 222.083 49.4444 222.1 49.4516 222.12C49.4649 222.159 49.4673 222.193 49.4938 222.226C49.5286 222.271 49.5756 222.303 49.6105 222.349C49.6453 222.396 49.6766 222.446 49.7163 222.49C49.8282 222.611 49.9329 222.74 50.04 222.866C50.1326 222.976 50.1988 223.11 50.3046 223.208C50.3804 223.278 50.4719 223.337 50.5573 223.388C50.6054 223.417 50.6607 223.447 50.7065 223.48C50.7293 223.497 50.7377 223.521 50.7582 223.539C50.7859 223.563 50.8328 223.574 50.8629 223.6C50.9495 223.671 51.0433 223.725 51.1336 223.79C51.3104 223.918 51.4812 224.049 51.6629 224.173C51.7207 224.212 51.7712 224.241 51.8193 224.294C51.8698 224.348 51.93 224.371 51.9853 224.417C52.0611 224.48 52.1093 224.588 52.1634 224.66C52.096 224.555 52.0659 224.431 52.0022 224.329C51.9565 224.255 51.9035 224.163 51.8855 224.075C51.948 224.09 51.9962 224.156 52.0383 224.199C52.0984 224.262 52.1574 224.324 52.2187 224.386C52.2657 224.434 52.3186 224.481 52.3583 224.535C52.3836 224.571 52.398 224.619 52.4281 224.648C52.463 224.553 52.398 224.457 52.3836 224.368C52.4148 224.37 52.4786 224.442 52.4979 224.466C52.5351 224.511 52.5664 224.564 52.6025 224.61C52.6314 224.646 52.6482 224.679 52.6735 224.718C52.7 224.756 52.7481 224.779 52.783 224.807C52.8804 224.884 52.9851 224.976 53.0669 225.069C53.026 225.069 52.9923 224.979 52.9755 224.949C52.9141 224.836 52.8504 224.725 52.7878 224.612C52.7565 224.554 52.7192 224.501 52.6855 224.446C52.6735 224.425 52.6615 224.406 52.6518 224.385C52.6458 224.371 52.6458 224.358 52.6338 224.347C52.7024 224.431 52.7974 224.487 52.872 224.564C52.9093 224.602 52.9382 224.642 52.9803 224.676C53.0116 224.701 53.0308 224.731 53.0549 224.762C53.097 224.818 53.1283 224.886 53.168 224.945C53.186 224.974 53.2017 225.003 53.2185 225.033C53.2414 225.073 53.2678 225.106 53.2931 225.146C53.3075 225.169 53.3172 225.198 53.334 225.218C53.3376 225.211 53.334 225.206 53.3328 225.198C53.3292 225.171 53.3244 225.147 53.3244 225.12C53.3244 225.07 53.3159 225.013 53.3256 224.964C53.34 224.96 53.3605 224.973 53.3737 224.978C53.3785 224.98 53.4146 224.998 53.4194 224.996C53.4387 224.99 53.4278 224.944 53.4278 224.93C53.4278 224.907 53.411 224.798 53.4363 224.786C53.4615 224.806 53.4904 224.821 53.5169 224.839C53.5758 224.88 53.6203 224.932 53.6612 224.99C53.6961 225.04 53.7142 225.104 53.7707 225.135C53.7888 225.145 53.808 225.15 53.8249 225.162C53.8357 225.169 53.8453 225.179 53.8537 225.188C53.9091 225.252 53.9572 225.322 54.0113 225.387C54.0799 225.469 54.1593 225.542 54.2327 225.619C54.2892 225.678 54.3674 225.727 54.4083 225.802C54.3338 225.689 54.2363 225.579 54.1918 225.449C54.1653 225.375 54.1232 225.281 54.1124 225.204C54.1124 225.203 54.1978 225.257 54.2038 225.262C54.2447 225.299 54.2784 225.347 54.3145 225.388C54.3374 225.413 54.365 225.437 54.3807 225.469C54.3963 225.501 54.3975 225.539 54.412 225.573C54.4553 225.675 54.5503 225.752 54.6237 225.831C54.6682 225.878 54.726 225.911 54.7729 225.958C54.8342 226.021 54.8872 226.095 54.9389 226.166C55.0111 226.266 55.07 226.382 55.1073 226.5C55.1278 226.561 55.1446 226.623 55.1663 226.684C55.1807 226.722 55.2192 226.775 55.2144 226.817C55.224 226.741 55.2036 226.65 55.194 226.574C55.1819 226.489 55.1747 226.397 55.1507 226.315C55.141 226.283 55.1326 226.255 55.1266 226.22C55.111 226.133 55.0749 226.051 55.0448 225.968C55.0195 225.899 54.9894 225.827 54.9497 225.768C55.0003 225.832 55.0544 225.894 55.111 225.952C55.1531 225.995 55.1759 226.048 55.2132 226.092C55.2433 226.125 55.2722 226.14 55.2974 226.182C55.3107 226.204 55.3203 226.228 55.3323 226.251C55.366 226.313 55.3913 226.372 55.4213 226.437C55.4177 226.379 55.4346 226.303 55.4201 226.248C55.4105 226.212 55.3865 226.187 55.4009 226.147C55.4598 226.14 55.5248 226.293 55.5465 226.337C55.5802 226.406 55.6295 226.467 55.6559 226.539C55.6812 226.608 55.7137 226.673 55.739 226.741C55.769 226.824 55.7991 226.916 55.8713 226.972C55.8978 226.916 55.8508 226.81 55.8412 226.749C55.8328 226.696 55.8352 226.643 55.8268 226.59C55.8136 226.514 55.8148 226.443 55.8075 226.366C55.8484 226.444 55.8881 226.531 55.9351 226.605C55.9675 226.657 55.9976 226.705 56.0277 226.759C56.0433 226.788 56.0578 226.818 56.0806 226.842C56.0554 226.808 56.0614 226.765 56.0578 226.726C56.0554 226.691 56.0385 226.655 56.0385 226.621C56.213 226.75 56.2154 226.977 56.2804 227.17C56.296 227.215 56.3056 227.259 56.3068 227.308C56.308 227.341 56.3176 227.362 56.3237 227.386C56.3369 227.448 56.3309 227.525 56.3285 227.587C56.3586 227.557 56.3501 227.509 56.3501 227.469C56.3489 227.398 56.3489 227.327 56.3477 227.256C56.3477 227.168 56.3465 227.079 56.3465 226.99C56.3465 226.923 56.3357 226.86 56.3225 226.796C56.3104 226.735 56.2767 226.663 56.2816 226.602C56.3682 226.704 56.4247 226.835 56.474 226.959C56.4945 227.008 56.533 227.043 56.5583 227.09C56.5835 227.136 56.616 227.183 56.6389 227.23C56.6172 227.173 56.5679 227.087 56.5751 227.024C56.6148 227.06 56.6353 227.14 56.6569 227.188C56.6762 227.231 56.7002 227.273 56.7135 227.318C56.7375 227.401 56.7736 227.487 56.7808 227.572C56.7844 227.611 56.7977 227.646 56.8037 227.685C56.8085 227.719 56.8025 227.756 56.8073 227.79C56.8181 227.867 56.8241 227.935 56.8241 228.014C56.8229 227.852 56.8217 227.691 56.8217 227.528C56.8205 227.427 56.8193 227.325 56.8205 227.223C56.8205 227.174 56.8169 227.128 56.8085 227.079C56.8037 227.045 56.7844 226.998 56.8001 226.964C56.7917 226.981 56.8542 227.063 56.8638 227.078C56.8879 227.117 56.9144 227.155 56.9288 227.199C56.9348 227.217 56.9384 227.236 56.9457 227.254C56.9625 227.295 56.9745 227.338 56.9854 227.381C57.0058 227.468 57.0142 227.558 57.0166 227.647C57.0214 227.833 56.9998 228.015 56.9914 228.2C56.983 228.384 56.9866 228.574 57.0443 228.752C57.1021 228.384 57.1586 228.015 57.2163 227.647C57.2139 227.661 57.2332 227.693 57.238 227.705C57.2464 227.728 57.2548 227.752 57.2621 227.776C57.2765 227.822 57.2909 227.867 57.303 227.913C57.3282 228.007 57.3487 228.103 57.3643 228.198C57.38 228.292 57.3908 228.387 57.3968 228.482C57.404 228.598 57.398 228.714 57.4112 228.83C57.4233 228.931 57.392 229.038 57.3703 229.134C57.3607 229.18 57.3655 229.225 57.3391 229.264C57.3679 229.213 57.4004 229.169 57.4233 229.113C57.4449 229.056 57.4774 229.001 57.4798 228.939C57.481 228.911 57.4858 228.884 57.4919 228.855C57.5075 228.784 57.5195 228.712 57.5279 228.641C57.546 228.497 57.552 228.351 57.5448 228.204C57.6134 228.477 57.6206 228.766 57.564 229.04C57.6266 228.947 57.6892 228.853 57.7529 228.759C57.7481 228.766 57.7625 228.812 57.765 228.823C57.7686 228.846 57.7722 228.87 57.7746 228.892C57.7806 228.942 57.7842 228.991 57.7854 229.04C57.7866 229.09 57.7854 229.139 57.7818 229.188C57.7806 229.211 57.7782 229.235 57.7758 229.258C57.771 229.3 57.7589 229.336 57.7517 229.379C57.7445 229.419 57.7589 229.46 57.7493 229.502C57.7433 229.53 57.7385 229.565 57.7301 229.591C57.7156 229.637 57.6928 229.648 57.688 229.701C57.6819 229.776 57.6747 229.828 57.6254 229.884C57.7084 229.899 57.7938 229.724 57.842 229.672C57.8696 229.641 57.9021 229.617 57.9286 229.583C57.9418 229.566 57.9562 229.541 57.9707 229.524C57.9923 229.542 57.9863 229.589 57.9863 229.616C57.9863 229.695 57.9863 229.776 57.9875 229.855C57.9887 229.926 57.9779 229.976 57.9647 230.045C57.9478 230.132 57.931 230.217 57.9129 230.304C57.8985 230.372 57.8744 230.475 57.8792 230.544C57.8997 230.533 57.9045 230.494 57.9129 230.473C57.9262 230.444 57.9442 230.417 57.9623 230.392C57.9923 230.349 58.0296 230.301 58.0838 230.295C58.091 230.316 58.0862 230.335 58.0669 230.353C58.0417 230.435 58.0164 230.517 57.9899 230.598C57.9587 230.7 57.9165 230.801 57.9021 230.906C57.9394 230.918 58.0224 230.88 58.0609 230.875C58.0994 230.87 58.1319 230.868 58.168 230.876C58.2775 230.898 58.3232 230.929 58.3364 231.045C58.3605 231.249 58.2185 231.408 58.1163 231.565C58.1945 231.598 58.2642 231.509 58.3208 231.471C58.3436 231.455 58.3882 231.396 58.4134 231.392C58.4327 231.432 58.4182 231.513 58.4182 231.555C58.4182 231.622 58.4194 231.69 58.4194 231.756C58.4194 231.84 58.3978 231.964 58.4254 232.046C58.4748 232.028 58.5205 231.927 58.5722 231.929C58.5903 231.976 58.5494 232.023 58.5542 232.071C58.5566 232.101 58.577 232.117 58.5794 232.146C58.6264 232.156 58.642 232.078 58.6961 232.123C58.7118 232.135 58.7142 232.153 58.7238 232.168C58.737 232.19 58.7527 232.202 58.7659 232.22C58.8225 232.297 58.7792 232.448 58.7996 232.54C58.8068 232.575 58.8201 232.608 58.8225 232.643C58.8249 232.667 58.8225 232.691 58.8201 232.716C58.8092 232.804 58.7876 232.942 58.7358 233.015C58.7972 232.999 58.8417 232.922 58.885 232.88C58.9079 232.858 58.9295 232.834 58.9512 232.812C58.9753 232.788 59.0186 232.739 59.0535 232.738C59.0775 232.77 59.0727 232.843 59.0571 232.88C59.0378 232.926 59.0138 232.971 58.9849 233.011C58.9596 233.046 58.9127 233.079 58.8694 233.086C58.8718 233.098 58.8959 233.095 58.9067 233.096C58.9344 233.101 58.9572 233.104 58.9873 233.104C59.0535 233.104 59.1196 233.101 59.1858 233.114C59.2387 233.124 59.2881 233.108 59.341 233.107C59.3711 233.107 59.4024 233.098 59.4312 233.09C59.4493 233.084 59.4685 233.072 59.489 233.079C59.4685 233.113 59.4252 233.154 59.3951 233.178C59.3831 233.188 59.3506 233.197 59.3482 233.216C59.3843 233.227 59.4324 233.209 59.4649 233.2C59.5491 233.175 59.6165 233.117 59.6983 233.09C59.7404 233.077 59.7837 233.05 59.8198 233.025C59.8415 233.009 59.8776 233.002 59.8932 232.979C59.8824 232.99 59.8776 233.006 59.8691 233.018C59.8559 233.037 59.8379 233.052 59.8246 233.071C59.8102 233.092 59.8018 233.117 59.7873 233.136C59.7789 233.147 59.7669 233.156 59.7645 233.169C59.7765 233.166 59.7885 233.143 59.7982 233.133C59.8246 233.106 59.8547 233.088 59.8836 233.064C59.9269 233.026 59.9738 232.993 60.0135 232.95C60.0556 232.906 60.0905 232.853 60.1314 232.806C60.1555 232.777 60.1807 232.747 60.2108 232.726C60.2457 232.701 60.2866 232.692 60.3227 232.674C60.3456 232.705 60.3047 232.778 60.2926 232.809C60.2794 232.841 60.2662 232.872 60.2529 232.905C60.2409 232.931 60.2349 232.954 60.2192 232.978C60.2012 233.007 60.1976 233.036 60.1844 233.067C60.2 233.041 60.2457 233.03 60.2698 233.012C60.3817 232.93 60.4851 232.842 60.591 232.752C60.609 232.738 60.6271 232.724 60.6475 232.715C60.6788 232.7 60.7125 232.693 60.7414 232.673C60.7847 232.641 60.8148 232.593 60.84 232.546C60.8689 232.491 60.9026 232.439 60.9303 232.383C60.9495 232.344 60.976 232.31 60.9976 232.273C61.0205 232.233 61.0458 232.195 61.071 232.156C61.1071 232.101 61.1408 232.043 61.1697 231.982C61.1974 231.922 61.2202 231.842 61.2659 231.794C61.2804 231.853 61.2804 231.924 61.2804 231.986C61.2804 232.036 61.284 232.087 61.2804 232.137C61.29 232.128 61.2948 232.116 61.3008 232.104C61.3237 232.054 61.3477 232.006 61.373 231.958C61.4091 231.887 61.4428 231.815 61.4741 231.741C61.5029 231.673 61.5198 231.61 61.5294 231.536C61.5402 231.456 61.5571 231.376 61.5487 231.295C61.5607 231.35 61.5703 231.397 61.5727 231.455C61.5763 231.528 61.5884 231.604 61.5835 231.678C61.5872 231.643 61.598 231.61 61.6052 231.577C61.6208 231.506 61.6341 231.43 61.6437 231.358C61.6593 231.232 61.6702 231.109 61.669 230.982C61.6678 230.867 61.6678 230.749 61.6293 230.639C61.6052 230.572 61.5847 230.494 61.5487 230.43C61.6004 230.467 61.6076 230.567 61.6329 230.625C61.6617 230.691 61.669 230.763 61.699 230.828C61.7231 230.881 61.7303 230.941 61.7544 230.993C61.758 230.982 61.7568 230.973 61.7556 230.961C61.7544 230.918 61.7628 230.878 61.764 230.835C61.7676 230.745 61.7532 230.655 61.7532 230.564C61.7532 230.455 61.7556 230.347 61.7363 230.24C61.7207 230.153 61.6954 230.069 61.6834 229.982C61.6581 229.808 61.6353 229.626 61.5715 229.462C61.5475 229.397 61.521 229.333 61.4981 229.267C61.4849 229.228 61.456 229.184 61.4608 229.142C61.4729 229.157 61.4753 229.18 61.4837 229.198C61.4945 229.222 61.509 229.244 61.5198 229.268C61.5282 229.293 61.539 229.316 61.5511 229.34C61.5595 229.348 61.5667 229.357 61.5727 229.368C61.5872 229.394 61.5908 229.423 61.6076 229.448C61.6521 229.517 61.7002 229.581 61.7424 229.65C61.7592 229.679 61.8145 229.816 61.8482 229.806C61.8518 229.776 61.8169 229.713 61.8085 229.689C61.7664 229.577 61.7219 229.471 61.6942 229.356C61.6846 229.316 61.6738 229.275 61.6605 229.237C61.6509 229.206 61.6425 229.18 61.6389 229.149C61.6341 229.114 61.6172 229.084 61.6028 229.053C61.5787 229 61.5691 228.944 61.5462 228.89C61.5294 228.853 61.509 228.819 61.4885 228.783C61.4632 228.738 61.4452 228.692 61.4247 228.645C61.4139 228.621 61.4055 228.586 61.3874 228.566C61.4043 228.576 61.4127 228.591 61.4271 228.603C61.4464 228.619 61.4668 228.63 61.4825 228.651C61.5126 228.687 61.5378 228.726 61.5703 228.761C61.6557 228.854 61.7026 228.986 61.8121 229.054C61.7977 229.034 61.7869 229.012 61.7748 228.99C61.7448 228.933 61.7051 228.883 61.6774 228.825C61.6244 228.714 61.5715 228.606 61.5029 228.504C61.4632 228.444 61.4344 228.366 61.4127 228.296C61.3971 228.249 61.3838 228.203 61.3718 228.156C61.367 228.136 61.3477 228.102 61.3694 228.092C61.3898 228.083 61.4283 228.108 61.4464 228.114C61.5029 228.133 61.5559 228.166 61.6076 228.197C61.6726 228.236 61.77 228.298 61.8494 228.29C61.8278 228.295 61.8145 228.273 61.8001 228.258C61.776 228.233 61.7472 228.219 61.7219 228.196C61.6774 228.156 61.6244 228.091 61.6004 228.036C61.5631 227.949 61.515 227.865 61.4765 227.778C61.4344 227.682 61.3826 227.593 61.3333 227.502C61.2996 227.439 61.2804 227.371 61.2371 227.313C61.2202 227.29 61.1733 227.241 61.1697 227.212C61.1853 227.214 61.2022 227.235 61.2166 227.243C61.2395 227.255 61.2599 227.27 61.2816 227.284C61.3237 227.31 61.3646 227.343 61.4091 227.366C61.4596 227.391 61.5065 227.444 61.5487 227.482C61.5655 227.498 61.5823 227.511 61.6028 227.521C61.6257 227.532 61.6557 227.555 61.6786 227.558C61.7039 227.516 61.592 227.433 61.5667 227.407C61.5186 227.356 61.468 227.306 61.4151 227.261C61.296 227.161 61.1697 227.073 61.047 226.98C60.994 226.94 60.9459 226.892 60.8966 226.848C60.8569 226.814 60.8124 226.786 60.7715 226.753C60.7125 226.706 60.662 226.65 60.6018 226.603C60.5742 226.583 60.5296 226.56 60.514 226.526C60.526 226.538 60.5573 226.542 60.5705 226.545C60.6139 226.559 60.6487 226.575 60.6885 226.596C60.7378 226.621 60.7823 226.655 60.8328 226.679C60.8954 226.71 60.9519 226.755 61.0157 226.783C61.0638 226.805 61.1155 226.824 61.1649 226.842C61.1095 226.752 61.0097 226.687 60.9387 226.61C60.7907 226.451 60.6211 226.303 60.4875 226.131C60.5128 226.168 60.5429 226.17 60.5754 226.19C60.5934 226.201 60.609 226.216 60.6283 226.225C60.6584 226.24 60.6897 226.254 60.7221 226.265C60.7426 226.272 60.7558 226.272 60.7775 226.273C60.7943 226.275 60.8088 226.282 60.8268 226.283C60.8449 226.284 60.8641 226.282 60.8821 226.283C60.8966 226.284 60.9086 226.294 60.9231 226.294C60.9122 226.277 60.8785 226.282 60.8605 226.275C60.834 226.264 60.8027 226.252 60.7775 226.236C60.7546 226.222 60.739 226.201 60.7173 226.186C60.7029 226.176 60.6945 226.172 60.6824 226.159C60.6752 226.151 60.6644 226.143 60.656 226.136C60.6283 226.111 60.6066 226.082 60.579 226.057C60.5525 226.033 60.526 226.009 60.5068 225.977C60.4719 225.922 60.437 225.868 60.3997 225.814C60.3889 225.797 60.2974 225.681 60.366 225.696C60.3793 225.698 60.3865 225.709 60.3985 225.713C60.4153 225.719 60.4286 225.721 60.4442 225.731C60.4683 225.744 60.4948 225.749 60.5188 225.762C60.5405 225.774 60.5585 225.786 60.5838 225.787C60.6078 225.789 60.6295 225.796 60.6536 225.797C60.6752 225.798 60.6969 225.797 60.7185 225.797C60.7306 225.797 60.7462 225.795 60.7582 225.797C60.7703 225.799 60.7775 225.808 60.7895 225.807C60.7751 225.807 60.7594 225.799 60.745 225.797C60.733 225.795 60.7173 225.791 60.7053 225.786C60.6885 225.779 60.6668 225.772 60.6512 225.762C60.6211 225.744 60.5934 225.712 60.5657 225.689C60.5441 225.669 60.526 225.647 60.5032 225.63C60.4851 225.616 60.4719 225.597 60.4538 225.585C60.4202 225.562 60.3841 225.538 60.3492 225.517C60.3299 225.505 60.3095 225.499 60.2902 225.485C60.2686 225.47 60.2445 225.459 60.2229 225.442C60.1844 225.412 60.1447 225.384 60.1062 225.354C60.0845 225.337 60.0616 225.321 60.0424 225.3C60.0207 225.276 60.0015 225.25 59.9798 225.224C59.963 225.205 59.9449 225.186 59.9377 225.161C59.9329 225.145 59.9317 225.122 59.9413 225.108C59.9461 225.1 59.951 225.097 59.9594 225.094C59.9931 225.086 60.0424 225.11 60.0725 225.121C60.1086 225.133 60.141 225.15 60.1759 225.164C60.2084 225.177 60.2373 225.198 60.271 225.21C60.3251 225.23 60.3769 225.254 60.4322 225.272C60.4635 225.282 60.4984 225.289 60.5308 225.293C60.5513 225.295 60.5778 225.3 60.5958 225.312C60.585 225.304 60.5754 225.306 60.5645 225.302C60.5381 225.293 60.5164 225.275 60.4899 225.265C60.4141 225.238 60.3552 225.191 60.2854 225.15C60.2433 225.126 60.2084 225.096 60.1711 225.067C60.1519 225.052 60.1302 225.043 60.111 225.028C60.1001 225.02 60.0917 225.009 60.0785 225.003C60.0725 224.999 60.0653 225.001 60.0592 224.996C60.0448 224.986 60.0376 224.969 60.0243 224.96C60.0027 224.943 59.981 224.927 59.9582 224.913C59.9413 224.902 59.9365 224.883 59.9197 224.873C59.9028 224.862 59.8848 224.851 59.8667 224.843C59.8319 224.825 59.7982 224.802 59.7633 224.782C59.7416 224.768 59.7164 224.762 59.6935 224.749C59.6706 224.736 59.6442 224.727 59.6189 224.718C59.5708 224.7 59.5239 224.682 59.4781 224.659C59.4324 224.636 59.3819 224.61 59.341 224.577C59.3037 224.547 59.2628 224.52 59.2291 224.487C59.2159 224.474 59.2014 224.46 59.1894 224.447C59.1786 224.436 59.1726 224.424 59.1629 224.413C59.1726 224.428 59.1822 224.427 59.1942 224.433C59.2099 224.44 59.2219 224.452 59.2375 224.46C59.2652 224.475 59.2929 224.487 59.3205 224.496C59.3723 224.516 59.4132 224.555 59.4709 224.559C59.489 224.56 59.5058 224.555 59.5239 224.554C59.5864 224.548 59.6502 224.573 59.7115 224.578C59.7368 224.581 59.7633 224.579 59.7885 224.579C59.809 224.579 59.8258 224.572 59.8463 224.57C59.8667 224.567 59.9064 224.582 59.9209 224.564C59.8607 224.545 59.7946 224.539 59.7356 224.516C59.7019 224.502 59.6658 224.492 59.6321 224.478C59.5973 224.464 59.5672 224.439 59.5347 224.423C59.5215 224.417 59.513 224.407 59.5022 224.398C59.4625 224.368 59.4132 224.332 59.3651 224.314C59.3518 224.309 59.3386 224.306 59.3254 224.299C59.2845 224.277 59.2472 224.244 59.2111 224.215C59.1678 224.181 59.1088 224.16 59.0583 224.138C58.9873 224.109 58.9163 224.077 58.8453 224.049C58.808 224.034 58.7731 224.024 58.7382 224.006C58.6998 223.985 58.6745 223.985 58.6492 223.95C58.6336 223.929 58.6119 223.908 58.5867 223.897C58.571 223.891 58.5349 223.883 58.5313 223.861C58.5758 223.848 58.6276 223.868 58.6697 223.877C58.7178 223.886 58.7659 223.889 58.8128 223.9C58.8369 223.906 58.8598 223.909 58.8838 223.914C58.9115 223.92 58.9404 223.913 58.9692 223.918C59.0029 223.924 59.0294 223.927 59.0643 223.926C59.0883 223.926 59.1244 223.944 59.1461 223.933C59.1425 223.912 59.1064 223.912 59.0908 223.907C59.0811 223.903 59.0751 223.901 59.0643 223.898C59.0511 223.896 59.0378 223.891 59.0246 223.888C58.9885 223.878 58.9536 223.865 58.9187 223.852C58.8586 223.829 58.7948 223.813 58.737 223.784C58.6889 223.76 58.6432 223.73 58.5963 223.705C58.577 223.694 58.5638 223.682 58.547 223.67C58.5301 223.658 58.5085 223.652 58.4892 223.645C58.4423 223.625 58.393 223.61 58.3436 223.603C58.322 223.599 58.3003 223.6 58.2811 223.592C58.2474 223.578 58.2125 223.559 58.1776 223.552C58.1499 223.546 58.1355 223.534 58.1307 223.498C58.1704 223.489 58.2101 223.506 58.2498 223.506C58.2955 223.506 58.3424 223.518 58.3857 223.529C58.4423 223.545 58.5012 223.57 58.5602 223.571C58.5951 223.572 58.6288 223.58 58.6637 223.581C58.6781 223.582 58.7034 223.586 58.7118 223.574C58.6998 223.569 58.6889 223.574 58.6781 223.571C58.6673 223.569 58.6564 223.563 58.6456 223.562C58.6023 223.553 58.5662 223.54 58.5253 223.526C58.4928 223.514 58.4543 223.497 58.4254 223.476C58.3665 223.432 58.3087 223.394 58.2402 223.362C58.2113 223.349 58.1848 223.34 58.156 223.325C58.1319 223.313 58.0946 223.295 58.0693 223.29C58.02 223.279 57.9767 223.272 57.9274 223.252C57.9009 223.242 57.8768 223.232 57.8492 223.225C57.8323 223.221 57.8059 223.227 57.7962 223.207C57.8383 223.19 57.9117 223.212 57.9562 223.215C57.9996 223.219 58.0441 223.222 58.0886 223.226C58.1163 223.228 58.1499 223.238 58.1752 223.23C58.1668 223.175 58.0754 223.177 58.0429 223.165C57.9671 223.139 57.8877 223.153 57.8131 223.131C57.7854 223.122 57.7613 223.12 57.7325 223.119C57.6663 223.116 57.5977 223.116 57.534 223.092C57.4846 223.073 57.4305 223.071 57.38 223.054C57.3162 223.033 57.2416 222.999 57.1851 222.961C57.2091 222.953 57.2476 222.955 57.2741 222.952C57.3078 222.948 57.3403 222.943 57.374 222.938C57.4257 222.932 57.4738 222.93 57.5267 222.935C57.5761 222.938 57.6254 222.942 57.6747 222.947C57.7108 222.95 57.7493 222.956 57.7854 222.956C57.8047 222.956 57.8227 222.938 57.8407 222.943C57.6711 222.937 57.5111 222.876 57.3475 222.841C57.3006 222.83 57.2512 222.825 57.2043 222.812C57.1718 222.802 57.1466 222.79 57.1117 222.788C57.072 222.786 57.0323 222.782 56.9914 222.778C56.9144 222.772 56.8362 222.747 56.7592 222.748C56.8566 222.747 56.9529 222.715 57.0347 222.656C56.9902 222.656 56.9457 222.648 56.9023 222.657C56.8867 222.659 56.8723 222.656 56.8566 222.652C56.8193 222.642 56.7808 222.632 56.7435 222.62C56.705 222.608 56.6677 222.593 56.6304 222.578C56.6124 222.569 56.5932 222.561 56.5751 222.552C56.5667 222.549 56.5571 222.544 56.5486 222.539C56.545 222.537 56.5282 222.526 56.5246 222.527L56.6509 222.479C56.4945 222.467 56.3393 222.415 56.1985 222.328C56.231 222.331 56.2647 222.333 56.2972 222.337C56.2527 222.312 56.2082 222.286 56.1637 222.261C56.2479 222.255 56.3333 222.274 56.4103 222.315C56.2467 222.172 56.0241 222.176 55.8232 222.207C55.7979 222.211 55.7714 222.214 55.7498 222.199C55.7341 222.188 55.7221 222.156 55.7329 222.137C55.7366 222.13 55.7438 222.128 55.7498 222.124C55.7714 222.111 55.7895 222.09 55.8111 222.076" fill="#FF9DC6"/>
<path d="M48.6851 221.33C48.7212 221.416 48.7621 221.506 48.815 221.579C48.8294 221.546 48.7921 221.458 48.8439 221.451C48.9413 221.544 49.0183 221.671 49.0761 221.792C49.1326 221.909 49.2144 222.019 49.2962 222.121C49.4093 222.262 49.5188 222.445 49.662 222.557C49.7065 222.592 49.7582 222.611 49.8075 222.636C49.8881 222.677 49.9603 222.734 50.0349 222.785C50.3742 223.015 50.7508 223.238 51.1297 223.394C51.5556 223.57 51.9611 223.797 52.4026 223.931C53.4721 224.176 54.3997 224.311 55.9649 223.75C55.8314 223.754 55.6978 223.744 55.5643 223.75C55.586 223.749 55.6124 223.737 55.6329 223.731C55.6605 223.721 55.6894 223.712 55.7171 223.701C55.7724 223.679 55.8266 223.654 55.8783 223.626C55.9168 223.606 55.9565 223.587 55.989 223.558C56.0203 223.53 56.0576 223.524 56.0961 223.512C56.1947 223.482 56.2898 223.443 56.3812 223.396L56.321 223.374C56.4149 223.306 56.5256 223.263 56.6399 223.25C56.6194 223.25 56.6014 223.234 56.5977 223.215C56.7024 223.155 56.8311 223.138 56.9478 223.17C56.9045 223.141 56.86 223.125 56.8239 223.084C56.8179 223.076 56.8119 223.068 56.8131 223.058C56.8143 223.043 56.8348 223.036 56.8504 223.033C57.0333 223.003 57.2197 222.998 57.4038 223.02C57.3557 223.003 57.3088 222.979 57.2667 222.949C57.2606 222.944 57.2546 222.939 57.2534 222.933C57.2498 222.918 57.2679 222.907 57.2835 222.903C57.3376 222.888 57.3966 222.879 57.4531 222.883C57.4904 222.885 57.5253 222.9 57.5614 222.909C57.6733 222.938 57.7744 222.974 57.8622 223.05C57.8189 222.987 57.7828 222.92 57.7551 222.849C57.9512 222.948 58.1473 223.048 58.3422 223.146C58.3049 223.114 58.2676 223.081 58.2303 223.05C58.2472 223.064 58.2857 223.07 58.3061 223.079C58.3326 223.09 58.3579 223.102 58.3831 223.115C58.4337 223.14 58.4818 223.17 58.5287 223.203C58.5744 223.235 58.6189 223.271 58.6598 223.31C58.6803 223.329 58.6983 223.352 58.72 223.369C58.7356 223.381 58.7549 223.387 58.7705 223.399C58.862 223.47 58.9462 223.55 59.034 223.625C59.1218 223.7 59.2096 223.773 59.3023 223.842C59.4707 223.967 59.6524 224.076 59.8521 224.144C59.8304 224.097 59.7113 223.973 59.7125 223.934C59.9856 224.111 60.3177 224.163 60.6185 224.262C60.5992 224.229 60.4813 224.166 60.4957 224.132C60.7424 224.223 61.0022 224.282 61.2429 224.381C61.2032 224.329 61.1623 224.264 61.1081 224.224C61.2272 224.277 61.3066 224.316 61.4317 224.314C62.0297 224.311 62.8418 224.203 63.4409 224.199C63.9149 224.17 64.4142 224.254 64.875 224.144C65.0879 224.053 65.2239 223.836 65.4164 223.712C65.4789 223.671 65.5379 223.635 65.5788 223.57C65.7737 223.082 65.687 222.522 65.7677 222.007C65.7737 221.66 65.7087 221.313 65.598 220.986C65.5728 220.88 65.4801 220.815 65.373 220.818C65.296 220.829 65.278 220.818 65.2118 220.792C65.1457 220.797 65.0795 220.806 65.0145 220.815C65.0097 220.826 64.9423 220.824 64.9014 220.845C64.7908 220.911 64.6825 220.984 64.5778 221.06C64.4767 221.18 64.3456 221.269 64.2494 221.391C64.0701 221.634 64.4178 222.146 64.016 222.239C63.4325 222.22 62.6216 222.211 62.0393 222.121C61.931 222.098 61.8059 222.083 61.7097 222.024C61.457 221.884 61.1538 221.826 60.9409 221.614C60.995 221.616 61.0588 221.669 61.1081 221.653C60.7845 221.397 60.6124 220.986 60.3802 220.652C60.4127 220.67 60.4356 220.739 60.4693 220.767C60.5439 220.818 60.6281 220.874 60.7123 220.9C60.5258 220.75 60.3827 220.637 60.3153 220.396C60.2034 220.066 60.0217 219.762 59.7967 219.507C59.8762 219.575 59.958 219.642 60.0578 219.68C59.816 219.395 59.6416 219.058 59.3672 218.802C59.4527 218.866 59.5369 218.992 59.6464 219.003C59.5573 218.972 59.5212 218.834 59.4551 218.777C59.3456 218.661 59.2421 218.517 59.1411 218.389C59.1242 218.358 59.1038 218.329 59.0833 218.3C59.0605 218.281 59.0364 218.262 59.0135 218.241C58.9654 218.187 58.9101 218.07 58.8415 218.055C58.9462 218.05 59.0328 218.013 59.1423 218.037C59.0641 217.974 58.9859 217.913 58.9089 217.85C59.1014 217.926 59.2794 218.039 59.4334 218.181C59.3612 218.056 59.2878 217.931 59.2157 217.806C59.289 217.878 59.3624 217.95 59.4358 218.022C59.419 217.965 59.4033 217.907 59.3865 217.849C59.5068 217.949 59.6271 218.049 59.7474 218.149C59.6825 218.076 59.6355 217.987 59.6115 217.892C59.6716 217.932 59.7318 217.971 59.7919 218.01C59.7582 217.922 59.7234 217.836 59.6897 217.748C59.8196 217.873 59.9604 217.986 60.1096 218.086C60.0795 218.022 60.0506 217.96 60.0205 217.896C60.2299 217.971 60.4597 217.984 60.675 217.933C60.5595 217.88 60.4596 217.791 60.3935 217.681C60.5318 217.808 60.7123 217.885 60.8964 217.896C60.8434 217.851 60.8013 217.793 60.7749 217.728C61.0504 217.793 61.3403 217.789 61.6146 217.718C61.5557 217.729 61.4907 217.696 61.4618 217.642C61.6242 217.624 61.7866 217.606 61.9479 217.588C61.8805 217.557 61.8143 217.524 61.747 217.493C61.8576 217.51 61.9731 217.489 62.0718 217.434C61.9106 217.408 61.9599 217.207 62.1295 217.115C62.4435 216.924 62.642 216.607 62.8778 216.339C63.3976 215.771 63.9089 215.194 64.4142 214.613C64.4214 214.532 64.4936 213.043 64.354 212.799C64.4298 212.017 63.8812 211.907 63.3326 212.338C63.1052 212.529 62.7383 212.69 62.778 213.039C62.7948 213.27 62.7431 213.514 62.8008 213.737C62.8093 213.763 62.8345 213.858 62.8213 213.872C62.4219 214.261 62.0898 214.655 61.6074 214.951C61.3596 215.181 61.0058 215.125 60.7388 214.956C60.5018 214.84 60.2371 214.804 59.9772 214.769C60.0314 214.744 60.0855 214.72 60.1384 214.695C59.8112 214.652 59.3552 214.621 59.2036 214.277C59.2469 214.271 59.2927 214.276 59.3348 214.29C59.2686 214.245 59.2193 214.175 59.1964 214.097C59.2638 214.097 59.3083 214.174 59.3648 214.209C59.3047 214.158 59.2457 214.053 59.3191 213.99C59.3841 213.925 59.4827 213.928 59.5561 213.88C59.5778 213.868 59.5994 213.849 59.6079 213.826C59.6295 213.806 59.662 213.824 59.6849 213.812C59.7378 213.778 59.6861 213.709 59.6704 213.667C59.668 213.645 59.668 213.623 59.656 213.603C59.6139 213.51 59.5441 213.424 59.5465 213.315C59.5429 213.199 59.644 213.121 59.6572 213.007C59.7811 212.713 59.8004 212.363 59.9748 212.101C60.0626 212.011 60.1721 211.936 60.201 211.817C60.2106 211.808 60.2226 211.802 60.2299 211.792C60.2563 211.735 60.2106 211.735 60.1878 211.707C60.1841 211.617 60.112 211.571 60.041 211.532C60.0073 211.508 60.0097 211.474 60.0073 211.434C59.9471 211.007 59.9532 210.551 59.8028 210.143C59.7739 210.042 59.8533 209.938 59.8689 209.835C59.9159 209.755 59.9628 209.671 59.9664 209.578C59.9941 209.556 60.0229 209.51 59.9652 209.502C59.9339 209.496 59.9014 209.491 59.8798 209.466C59.8004 209.411 59.6969 209.408 59.6223 209.346C59.5621 209.308 59.5621 209.233 59.5513 209.169C59.5068 208.913 59.4154 208.647 59.2253 208.465C59.2614 208.471 59.2987 208.476 59.3348 208.482C59.1399 208.334 58.9329 208.169 58.8668 207.931C59.0051 207.937 59.1014 208.072 59.1772 208.192C59.1314 208.014 58.9799 207.894 58.8595 207.764C58.7705 207.649 58.7513 207.482 58.6634 207.361C58.7104 207.388 58.7657 207.398 58.8186 207.405C58.637 207.286 58.5371 207.055 58.4697 206.854C58.4373 206.579 58.8126 206.692 58.9462 206.786C58.8559 206.724 58.7729 206.652 58.6995 206.57C58.8295 206.619 58.9594 206.67 59.0881 206.719C59.0099 206.663 58.9474 206.582 58.9089 206.491C59.0593 206.6 59.2205 206.694 59.3889 206.772C59.3275 206.696 59.2746 206.613 59.2313 206.526C59.3083 206.592 59.3853 206.658 59.4623 206.724C59.3817 206.557 59.3324 206.373 59.3203 206.185C59.5489 206.38 59.8172 206.524 60.1023 206.61C59.9772 206.509 59.8725 206.381 59.7967 206.237C59.9652 206.344 60.136 206.461 60.266 206.615C60.2166 206.538 60.1733 206.45 60.1577 206.357C60.3177 206.322 60.4873 206.468 60.6329 206.528C60.7472 206.573 60.9301 206.539 61.0816 206.594C60.9794 206.484 60.8783 206.374 60.7761 206.263C61.2681 206.658 63.8331 206.117 64.3985 206.008C64.6067 205.985 64.8148 205.961 65.0242 205.939C65.0987 205.93 65.1866 205.912 65.2142 205.84C65.2239 205.817 65.2239 205.791 65.2347 205.768C65.272 205.686 65.3755 205.715 65.4344 205.663C65.5764 205.507 65.7376 205.361 65.8832 205.201C65.9565 205.105 65.9481 204.96 65.9565 204.846C65.9974 204.337 66.0095 203.827 65.9926 203.317C65.9986 203.105 65.9469 202.855 65.7111 202.795C65.6185 202.76 65.5812 202.64 65.6161 202.635C65.4284 202.611 65.2648 202.729 65.1276 202.842C64.9869 202.937 64.822 203.019 64.6825 203.111C64.3985 203.294 64.3552 203.92 64.3552 203.92C63.8175 204.111 63.5155 204.062 62.861 204.012C62.5675 203.967 62.2583 203.984 61.9779 203.88C61.8612 203.827 61.7397 203.763 61.6074 203.766C61.3078 203.728 61.0215 203.584 60.7219 203.565C60.7857 203.554 60.8494 203.544 60.912 203.534C60.1529 203.422 59.4334 203.143 58.7368 202.843C58.7104 202.836 58.4409 202.749 58.4361 202.76C58.4517 202.729 58.483 202.707 58.5167 202.705C58.4108 202.667 58.3109 202.611 58.2243 202.539C58.3025 202.543 58.3807 202.512 58.4361 202.456C58.3242 202.482 58.2027 202.441 58.1209 202.359C58.1269 202.365 58.1954 202.327 58.2123 202.315C58.483 202.107 58.8499 202.234 59.1351 202.347L59.1651 202.357C59.0845 202.255 58.9919 202.162 58.8896 202.083C59.0941 202.16 59.2975 202.238 59.5008 202.318C59.4238 202.208 59.3288 202.11 59.2193 202.033C59.3516 202.104 59.4767 202.189 59.5946 202.282C59.5549 202.225 59.514 202.166 59.4743 202.108C59.591 202.125 59.7101 202.133 59.828 202.13C59.7462 202.078 59.674 202.013 59.6151 201.936C59.7414 202.045 59.899 202.118 60.0626 202.139C59.8316 202.027 59.7763 201.747 59.7546 201.511C59.9014 201.605 60.0362 201.719 60.1541 201.85C60.0855 201.751 60.041 201.634 60.0253 201.512C60.1372 201.58 60.2347 201.675 60.3045 201.788C60.3165 201.574 60.2732 201.357 60.1817 201.165C60.3502 201.349 60.5186 201.532 60.6858 201.716C60.5884 201.594 60.515 201.451 60.4705 201.299C60.5607 201.362 60.6521 201.425 60.7424 201.487C60.7315 201.438 60.7195 201.388 60.7087 201.34C60.8988 201.396 61.0985 201.413 61.2934 201.387C61.1671 201.327 61.0696 201.204 61.0383 201.065C61.2404 201.121 61.451 201.139 61.6591 201.117C61.6062 201.096 61.5581 201.06 61.522 201.013C61.6976 200.995 62.1247 200.853 62.2799 200.872C62.2041 200.86 62.1307 200.839 62.061 200.807C62.2053 200.775 62.3473 200.73 62.4844 200.675C62.4568 200.644 62.4303 200.611 62.4026 200.58C62.4038 200.581 62.5747 200.522 62.5927 200.517C62.642 200.507 62.6866 200.502 62.7299 200.473C63.3122 200.089 64.0448 200.012 64.6151 199.621C64.7883 199.518 64.8088 199.325 64.792 199.139C64.8702 198.566 64.9748 197.997 64.8449 197.416C64.8293 197.305 64.8064 197.18 64.7162 197.118C64.6368 197.085 64.6067 197.019 64.5934 196.938C64.5477 196.817 64.4046 196.82 64.2987 196.834C64.117 196.868 63.9065 196.919 63.7705 197.059C63.6298 197.204 63.1654 197.415 63.2123 197.657C63.2592 197.898 63.2123 198.198 63.2123 198.198C63.2123 198.198 62.7852 198.368 62.2691 198.513C61.8336 198.651 61.3596 198.645 60.9168 198.749C60.8567 198.761 60.7881 198.744 60.7279 198.74C60.2503 198.694 59.7667 198.712 59.2903 198.692C59.0304 198.607 58.7465 198.63 58.4758 198.603C58.5708 198.57 58.6658 198.536 58.7597 198.502C58.6658 198.516 58.5732 198.528 58.4794 198.54C58.2917 198.562 58.104 198.582 57.9163 198.594C57.7659 198.605 57.6132 198.62 57.4616 198.601C57.3004 198.58 57.1439 198.534 56.9851 198.499C56.9057 198.481 56.8263 198.466 56.7457 198.458C56.7144 198.454 56.534 198.431 56.5159 198.46C56.5737 198.366 56.8275 198.223 56.8853 198.131C56.5977 198.232 56.2729 198.218 55.9914 198.103C55.8807 198.057 55.7784 197.995 55.6954 197.906C55.6822 197.891 55.6329 197.847 55.6449 197.823C55.6509 197.809 55.663 197.817 55.6738 197.814C55.7027 197.804 55.7772 197.841 55.8025 197.848C55.8939 197.872 55.9854 197.897 56.0768 197.921C55.7989 197.665 55.4669 197.469 55.1083 197.349C55.2455 197.343 55.3814 197.336 55.5186 197.329C55.2659 197.202 54.9988 197.103 54.7245 197.032C54.899 197.016 55.071 196.98 55.2359 196.921C54.7907 196.976 54.3299 196.893 53.9329 196.687C54.0448 196.641 54.1627 196.613 54.283 196.603C54.0881 196.47 53.868 196.376 53.6382 196.325C53.7946 196.285 53.9558 196.267 54.117 196.271C53.5756 195.959 52.8297 196.246 52.2979 195.916C52.3473 195.837 52.4194 195.774 52.5024 195.734C52.3112 195.744 52.1199 195.752 51.9286 195.762C52.085 195.658 52.2775 195.627 52.464 195.599C51.8456 195.575 51.226 195.582 50.6076 195.621C50.6942 195.529 50.7808 195.437 50.8675 195.345C50.669 195.369 50.4692 195.381 50.2683 195.381C50.3742 195.337 50.4608 195.249 50.5053 195.144C50.302 195.22 50.0963 195.296 49.8809 195.318C49.7558 195.331 49.4647 195.331 49.3432 195.297C49.289 195.283 49.2373 195.261 49.188 195.235C49.1663 195.224 49.1446 195.217 49.123 195.206C49.1013 195.195 49.0809 195.183 49.0604 195.169C49.0051 195.13 48.9558 195.083 48.91 195.033C48.8872 195.007 48.8655 194.981 48.8439 194.953C48.833 194.94 48.8222 194.927 48.8126 194.912C48.8042 194.901 48.7933 194.88 48.7825 194.874C48.8475 194.911 48.9197 194.935 48.9943 194.944C48.9425 194.913 48.8956 194.877 48.8547 194.834C48.809 194.787 48.7705 194.734 48.7404 194.678C48.7248 194.649 48.7115 194.619 48.7007 194.589C48.6959 194.574 48.6923 194.559 48.6839 194.544C48.6754 194.528 48.6622 194.512 48.6634 194.492C48.6742 194.485 48.7212 194.494 48.726 194.508C48.6995 194.426 48.6718 194.344 48.6454 194.263C48.6899 194.3 48.7344 194.336 48.7801 194.373C48.7657 194.348 48.7524 194.322 48.7392 194.295C48.7272 194.271 48.7236 194.246 48.7163 194.22C48.7055 194.188 48.6863 194.158 48.6742 194.125C48.649 194.056 48.6369 193.983 48.6177 193.903C48.5888 193.785 48.5263 193.674 48.4336 193.595C48.4108 193.576 48.3855 193.558 48.359 193.542C48.3314 193.526 48.3013 193.517 48.2736 193.501C48.2495 193.488 48.2327 193.47 48.2062 193.461C48.1701 193.449 48.1316 193.442 48.0956 193.434C48.0751 193.429 48.0534 193.424 48.033 193.417C48.0186 193.412 48.0053 193.401 47.9945 193.39C47.9777 193.374 47.9656 193.353 47.9524 193.334C47.9464 193.324 47.9404 193.316 47.9343 193.307C47.9283 193.297 47.9247 193.288 47.9163 193.278C47.8718 193.23 47.8261 193.185 47.7779 193.14C47.6949 193.063 47.6071 192.993 47.5157 192.931C47.4242 192.867 47.3292 192.812 47.2317 192.764C47.1824 192.74 47.1331 192.718 47.0838 192.697C47.0585 192.687 47.0332 192.678 47.008 192.669C46.9755 192.656 46.943 192.643 46.9093 192.64C46.9009 192.638 46.8925 192.642 46.8853 192.641C46.8744 192.64 46.8648 192.628 46.8576 192.619C46.8347 192.596 46.8058 192.579 46.7782 192.569C46.7517 192.558 46.7252 192.558 46.6988 192.561C46.6446 192.57 46.5941 192.593 46.5484 192.62C46.5279 192.632 46.5051 192.643 46.4882 192.661C46.4822 192.667 46.4774 192.675 46.4702 192.679C46.4305 192.709 46.3836 192.73 46.3427 192.759C46.2657 192.812 46.1923 192.872 46.1189 192.928C45.995 193.025 45.8698 193.121 45.7459 193.217C45.6653 193.28 45.5811 193.345 45.48 193.369C45.4175 193.384 45.3501 193.383 45.2827 193.382C45.1372 193.381 44.9916 193.378 44.846 193.377C44.7762 193.376 44.7065 193.38 44.6355 193.372C44.5465 193.363 44.4598 193.402 44.3816 193.441C44.354 193.469 44.2962 193.485 44.2613 193.506C44.2252 193.528 44.1927 193.553 44.1555 193.571C44.1001 193.599 44.0556 193.648 44.0087 193.688L43.8523 193.821C43.7464 193.913 43.6405 194.003 43.5335 194.094C43.4372 194.176 43.341 194.259 43.2447 194.341C43.1966 194.382 43.1485 194.423 43.1003 194.465C43.0306 194.525 43.0161 194.543 42.9091 194.526C42.713 194.495 42.5301 194.43 42.3292 194.437C42.1295 194.444 41.9334 194.491 41.7348 194.501C41.4918 194.484 41.2247 194.494 40.995 194.47C41.0034 194.554 41.0058 194.591 41.0732 194.648C41.2681 194.885 41.3619 195.236 41.6181 195.421C41.73 195.535 42.0308 195.62 41.9033 195.828C41.7866 195.999 41.5424 195.975 41.3787 196.085C41.2199 196.148 41.0792 196.262 40.9107 196.295C40.8049 196.313 40.7194 196.4 40.6376 196.464C40.527 196.535 40.3994 196.587 40.2647 196.569C40.2226 196.562 40.1672 196.528 40.1251 196.544C40.1323 196.562 40.1468 196.593 40.1468 196.611C40.0914 196.612 40.0493 196.556 40 196.542C40.0349 196.621 40.3609 196.861 40.456 196.918C40.6148 197.036 40.7952 197.137 40.9613 197.255C41.3342 197.474 41.8985 197.705 42.1066 198.074C42.0922 197.995 42.0561 197.915 42.038 197.839C42.121 197.873 42.1511 198.004 42.2293 198.039C42.3159 198.02 42.3496 198.135 42.4062 198.176C42.4086 198.144 42.4074 198.128 42.4423 198.145C42.571 198.21 42.589 198.365 42.6829 198.463C42.6913 198.432 42.6745 198.393 42.7178 198.416C43.1521 198.808 43.2592 199.443 43.59 199.92C43.5491 199.826 43.5323 199.731 43.513 199.634C43.5551 199.626 43.6189 199.768 43.6369 199.793C43.7957 199.96 43.8318 200.212 43.8571 200.434C43.8511 200.448 43.8523 200.46 43.8595 200.469C43.8884 200.421 43.8595 200.356 43.8691 200.304C43.8836 200.265 43.8884 200.223 43.8824 200.181C43.9497 200.315 44.0496 200.446 44.0484 200.603C44.0496 200.637 44.0339 200.723 44.058 200.746C44.0809 200.671 44.117 200.723 44.117 200.77C44.1218 200.759 44.1314 200.75 44.141 200.747C44.2385 200.917 44.2926 201.132 44.4442 201.261C44.4141 201.19 44.3648 201.096 44.366 201.017C44.461 201.108 44.5031 201.268 44.609 201.364C44.5874 201.339 44.603 201.275 44.6162 201.249C44.8953 201.502 45.1961 201.802 45.3008 202.18C45.2984 202.163 45.2948 202.148 45.2936 202.132C45.6124 202.226 45.5847 202.635 45.7544 202.866C45.7435 202.829 45.7411 202.789 45.7483 202.75C46.0335 202.962 46.1538 203.336 46.3354 203.633C46.3391 203.585 46.2897 203.537 46.3126 203.494C46.3535 203.435 46.4365 203.485 46.4545 203.542C46.5652 203.71 46.6795 203.886 46.7108 204.093C46.8095 204.384 46.724 204.711 46.7962 205C46.8648 205.178 46.925 205.359 46.9755 205.543C47.0068 205.653 47.0236 205.773 47.0621 205.881C47.097 205.981 47.2017 206.043 47.2185 206.151C47.3123 206.469 47.5097 206.754 47.4796 207.103C47.4988 207.406 47.5084 207.709 47.5109 208.014C47.5121 208.111 47.5084 208.2 47.5277 208.293C47.5494 208.4 47.5361 208.518 47.5361 208.627C47.5361 208.787 47.5121 208.941 47.5084 209.1C47.5072 209.156 47.5121 209.212 47.5097 209.269C47.5072 209.34 47.4904 209.403 47.482 209.473C47.476 209.523 47.4699 209.6 47.4555 209.645C47.4459 209.675 47.4122 209.684 47.4327 209.721C47.4724 209.714 47.4748 209.65 47.5121 209.627C47.4736 209.84 47.4615 210.062 47.4014 210.268C47.3701 210.374 47.3364 210.483 47.3015 210.587C47.2871 210.628 47.2197 210.738 47.2402 210.783C47.2979 210.792 47.3737 210.711 47.4302 210.699C47.4675 210.723 47.393 210.952 47.3833 210.981C47.3364 211.113 47.2799 211.243 47.2366 211.376C47.1932 211.509 47.1559 211.653 47.1343 211.792C47.1223 211.866 47.1174 211.942 47.1066 212.018C47.0958 212.095 47.1114 212.174 47.0994 212.25C47.0946 212.201 47.1704 212.073 47.2065 212.042C47.2077 212.074 47.1944 212.102 47.1896 212.133C47.1752 212.21 47.1824 212.292 47.1824 212.37C47.1824 212.428 47.1824 212.486 47.1824 212.543C47.1824 212.6 47.1824 212.657 47.1812 212.713C47.1812 212.738 47.174 212.774 47.1872 212.797C47.1944 212.809 47.2173 212.813 47.2233 212.825C47.2546 212.88 47.2378 212.983 47.2317 213.043C47.2125 213.233 47.1728 213.412 47.1247 213.597C47.0741 213.796 47.0922 214.003 47.0645 214.204C47.0561 214.259 47.0417 214.313 47.038 214.37C47.0272 214.554 47.0886 214.744 47.1006 214.928C47.1211 215.25 47.2257 215.585 47.2859 215.901C47.3123 216.042 47.3292 216.19 47.3472 216.331C47.3569 216.403 47.3388 216.476 47.352 216.551C47.3665 216.63 47.3737 216.697 47.3737 216.778C47.3725 216.943 47.3749 217.107 47.3725 217.272C47.3713 217.377 47.3978 217.476 47.4014 217.581C47.4038 217.64 47.3905 217.696 47.429 217.747C47.4254 217.694 47.4038 217.618 47.4266 217.568C47.4675 217.476 47.5036 217.595 47.5097 217.646C47.5145 217.69 47.5253 217.726 47.5337 217.77C47.5421 217.809 47.5277 217.851 47.5349 217.891C47.5433 217.942 47.5554 217.996 47.5662 218.045C47.6264 218.339 47.6961 218.638 47.7539 218.935C47.7803 219.073 47.8333 219.205 47.8682 219.34C47.9043 219.477 47.9584 219.624 48.0258 219.748C48.0944 219.875 48.128 220.034 48.1689 220.172C48.2026 220.285 48.2532 220.396 48.3097 220.499C48.3277 220.533 48.3458 220.564 48.3578 220.601C48.3662 220.625 48.3723 220.65 48.3783 220.675C48.3951 220.744 48.4553 220.863 48.4324 220.933C48.4408 220.909 48.4517 220.884 48.4673 220.865C48.5624 220.959 48.5924 221.121 48.6418 221.238C48.6586 221.265 48.6718 221.297 48.6851 221.33Z" fill="#FF9DC6"/>
<path d="M55.7928 169.005C55.7928 169.005 55.6223 169.013 55.5562 169.092C55.4889 169.17 55.1746 169.611 54.9008 169.549C54.6271 169.488 53.8186 169.662 53.474 170.004C53.1284 170.347 52.8987 170.91 52.8987 170.91C52.8987 170.91 52.5994 170.94 51.6274 170.609C51.1645 170.451 52.241 172.282 52.5136 172.62C52.5171 172.632 52.5205 172.645 52.5229 172.653C52.5484 172.752 52.7978 173.264 53.372 173.798C53.4996 173.916 53.6515 174.026 53.8 174.126C53.9299 174.24 54.0819 174.359 54.2651 174.476C54.3545 174.534 54.4531 174.585 54.554 174.634C55.0191 174.993 55.888 175.818 56.1292 177.205C56.1118 177.563 56.0921 177.99 56.0794 178.499L56.0654 178.536C55.9842 180.629 56.2789 181.383 56.3299 181.962C56.381 182.541 56.4819 183.336 55.7105 184.146C54.9391 184.958 53.8986 185.661 53.1249 185.703C52.3512 185.745 51.9197 185.687 51.9197 185.687C51.9197 185.687 50.9488 185.72 51.0021 186.241C51.0578 186.763 51.6169 187.039 52.8036 187.036C53.9902 187.031 55.4251 186.808 56.5028 185.762C57.5815 184.714 57.7973 184.338 57.7973 184.338C57.7973 184.338 58.3529 184.286 58.7949 184.557C59.2368 184.828 59.8168 185.103 59.9734 185.11C60.1323 185.118 60.3852 185.187 60.3852 185.187C60.3852 185.187 60.4502 185.499 60.5256 185.579C60.5998 185.659 60.688 185.892 60.688 185.892C60.688 185.892 60.9037 186.326 61.0023 186.33C61.1009 186.335 61.3654 186.598 61.4605 186.66C61.5568 186.722 61.7436 186.942 61.8398 187.004C61.9361 187.068 62.1832 187.252 62.3386 187.316C62.4952 187.381 63.11 187.736 63.2469 187.762C63.3838 187.788 64.0009 188.104 64.3245 187.965C64.647 187.826 64.959 187.493 64.9451 187.396C64.93 187.3 64.9544 186.762 64.8013 186.678C64.647 186.595 64.3709 186.562 64.3709 186.562L63.8536 186.635L63.5206 186.581L63.2353 186.337L62.8479 186.166L63.0219 185.866C63.0219 185.866 62.9673 185.748 62.9708 185.671C62.9743 185.594 62.7063 185.429 62.7121 185.294C62.7179 185.16 62.82 185.107 62.8235 185.049C62.827 184.992 62.6298 184.963 62.6936 184.87C62.7574 184.776 62.7504 184.506 62.6959 184.446C62.6391 184.387 62.6286 184.193 62.617 184.019C62.6043 183.846 62.5439 183.881 62.4941 183.706C62.4419 183.531 62.6425 183.481 62.7411 183.486C62.8397 183.49 63.0393 183.442 63.538 182.964C64.0357 182.487 64.5716 182.012 64.6423 181.38C64.7119 180.747 64.7003 180.171 64.7003 180.171C64.7003 180.171 64.4417 179.793 64.1412 179.875C63.8408 179.957 63.6424 180.372 63.61 180.64C63.5775 180.908 63.3559 181.398 63.3559 181.398L63.1552 181.446L62.9987 181.419L62.8455 181.316L62.6855 180.944L62.5347 180.803L62.5323 180.437L62.4859 180.184L62.4999 179.877L62.4906 179.665C62.4906 179.665 62.4094 179.277 62.3757 179.159C62.3421 179.042 62.2969 178.751 62.2969 178.751L62.3514 178.427C62.3514 178.427 62.2041 178.208 62.2087 178.112C62.2133 178.016 62.1936 178.016 62.1635 177.822C62.1333 177.628 62.1356 177.59 62.102 177.473C62.0683 177.355 62.0289 177.353 62.0521 177.279C62.0753 177.203 62.0741 177.241 62.0614 177.087L62.0498 176.932C62.0498 176.932 61.9234 176.695 62.0417 176.682C62.1611 176.668 62.2679 176.5 62.3862 176.506C62.5045 176.511 63.088 176.306 63.1889 176.272C63.2886 176.238 63.9081 176.112 64.0264 176.117C64.1447 176.123 64.7618 176.016 64.872 175.79C64.9822 175.563 64.9892 174.986 64.9892 174.986C64.9892 174.986 65.017 174.41 64.9834 174.313C64.9486 174.215 64.5182 174.1 64.3512 174.284C64.1842 174.468 63.9928 174.749 63.9928 174.749L63.8106 174.836C63.8106 174.836 63.4719 174.898 63.5137 174.842C63.5554 174.786 63.3594 174.758 63.3594 174.758C63.3594 174.758 63.1796 174.789 63.1239 174.71C63.0683 174.629 62.8281 174.696 62.8281 174.696L62.6321 174.668L62.3781 174.617L62.1623 174.57L62.0231 174.582L61.8932 174.405L61.6948 174.414C61.6948 174.414 62.2458 173.948 62.3282 173.875C62.4105 173.802 63.2237 172.934 63.2701 172.783C63.3176 172.632 63.5172 172.198 63.6819 172.051C63.8466 171.906 64.0287 171.52 64.031 171.462C64.0334 171.405 64.0218 171.269 64.103 171.215C64.1842 171.161 64.2665 171.087 64.2909 170.993C64.3141 170.898 64.4544 170.884 64.4823 170.713C64.5101 170.541 64.5356 170.426 64.5994 170.333C64.6621 170.24 64.7328 170.013 64.6597 169.874C64.5867 169.736 64.176 169.255 63.8373 169.723C63.4986 170.188 63.4696 170.359 63.4696 170.359L63.1437 170.556L62.8339 170.849L62.6275 171.032C62.6275 171.032 62.4047 171.137 62.3433 171.172C62.2829 171.208 62.1205 171.315 62.1205 171.315C62.1205 171.315 62.0509 171.506 61.9918 171.503C61.9326 171.499 61.7668 171.646 61.7668 171.646L61.5638 171.771L61.3202 171.894L61.1172 172.02L61.0336 172.112C61.0336 172.112 60.8991 172.029 60.7993 172.063C60.6984 172.097 60.6346 172.19 60.6346 172.19C60.6346 172.19 60.34 172.138 60.2414 172.134C60.1428 172.129 60.021 172.201 60.021 172.201L59.7681 172.112L59.412 172.116C59.412 172.116 59.2357 172.089 59.1568 172.085C59.1023 172.083 58.984 172.051 58.9155 172.03L58.9213 172.015C58.9213 172.015 58.8262 171.934 58.745 171.888C58.7322 171.875 58.7183 171.862 58.7056 171.852C58.6244 171.788 58.4098 171.785 58.4098 171.785C58.4098 171.785 58.1406 171.701 58.0734 171.687C58.0061 171.672 57.8878 171.552 57.8878 171.552C57.8878 171.552 57.7973 171.227 57.6871 171.086C57.5757 170.945 57.4075 170.743 57.3611 170.64C57.3136 170.535 57.2219 170.254 57.237 170.188C57.2533 170.121 57.2034 169.724 56.9969 169.573C56.8426 169.459 56.5677 169.296 56.5677 169.296C56.5677 169.296 56.3902 169.087 56.1617 169.035C55.9309 168.982 55.7928 169.005 55.7928 169.005Z" fill="white"/>
<path d="M63 148.864V150.81H53.032V148.864H63ZM63 142.97V145.35L57.778 148.85L53.032 145.63V143.306L57.708 146.652L63 142.97ZM55.51 135.146C56.0607 135.034 56.896 134.978 58.016 134.978C59.136 134.978 59.9713 135.034 60.522 135.146C61.0727 135.258 61.5767 135.543 62.034 136C62.734 136.7 63.084 137.587 63.084 138.66C63.084 139.743 62.734 140.634 62.034 141.334C61.5767 141.791 61.0773 142.076 60.536 142.188C59.9853 142.291 59.1453 142.342 58.016 142.342C56.8867 142.342 56.0513 142.291 55.51 142.188C54.9593 142.076 54.4553 141.791 53.998 141.334C53.298 140.634 52.948 139.743 52.948 138.66C52.948 137.587 53.298 136.7 53.998 136C54.4553 135.543 54.9593 135.258 55.51 135.146ZM58.016 136.924C57.092 136.924 56.448 136.961 56.084 137.036C55.72 137.101 55.4307 137.227 55.216 137.414C54.8613 137.722 54.684 138.137 54.684 138.66C54.684 139.173 54.8613 139.593 55.216 139.92C55.4307 140.107 55.72 140.233 56.084 140.298C56.448 140.363 57.092 140.396 58.016 140.396C58.94 140.396 59.584 140.363 59.948 140.298C60.3027 140.233 60.5873 140.107 60.802 139.92C61.166 139.584 61.348 139.164 61.348 138.66C61.348 138.147 61.166 137.731 60.802 137.414C60.578 137.227 60.2887 137.101 59.934 137.036C59.57 136.961 58.9307 136.924 58.016 136.924ZM63 121.488V132.996H53.032V131.05H61.264V128.208H53.032V126.262H61.264V123.434H53.032V121.488H63ZM63 112.594V119.16H53.032V112.594H54.768V117.214H57.106V113.28H58.842V117.214H61.264V112.594H63ZM63 103.418V105.364H58.828V108.738H63V110.684H53.032V108.738H57.106V105.364H53.032V103.418H63ZM59.248 97.8657L63 99.5037V101.814L58.856 99.7557C58.6133 100.288 58.2587 100.708 57.792 101.016C57.316 101.314 56.7653 101.464 56.14 101.464C55.1973 101.464 54.446 101.16 53.886 100.554C53.3167 99.9471 53.032 99.1584 53.032 98.1877V94.3237H63V96.2697H59.248V97.8657ZM57.526 96.2697H54.74V98.0897C54.74 98.5284 54.866 98.8784 55.118 99.1397C55.37 99.4011 55.7013 99.5317 56.112 99.5317C56.5227 99.5317 56.8633 99.4011 57.134 99.1397C57.3953 98.8691 57.526 98.5191 57.526 98.0897V96.2697Z" fill="white"/>
</svg>
