<svg width="119" height="119" viewBox="0 0 119 119" fill="none" xmlns="http://www.w3.org/2000/svg">
<path d="M69.6985 108.21C96.7093 102.469 113.952 75.918 108.21 48.9072C102.469 21.8964 75.9182 4.65411 48.9074 10.3954C21.8966 16.1368 4.65426 42.6876 10.3956 69.6984C16.1369 96.7092 42.6877 113.952 69.6985 108.21Z" fill="white"/>
<path d="M68.7231 103.62C93.1987 98.4174 108.823 74.3586 103.62 49.883C98.4177 25.4074 74.3589 9.78346 49.8834 14.9859C25.4078 20.1883 9.78382 44.2471 14.9863 68.7227C20.1887 93.1983 44.2475 108.822 68.7231 103.62Z" fill="white"/>
<path d="M68.2137 104.176C67.9992 104.222 67.7482 104.096 67.6935 103.839C67.6479 103.624 67.7739 103.373 68.0313 103.318C68.2458 103.273 68.5059 103.442 68.5515 103.656C68.5971 103.871 68.4711 104.122 68.2137 104.176ZM69.7956 103.392C69.75 103.177 69.876 102.926 70.0905 102.881C70.3051 102.835 70.556 102.961 70.6016 103.176C70.6472 103.39 70.5212 103.641 70.3067 103.687C70.0493 103.741 69.8412 103.606 69.7956 103.392ZM66.1362 104.528C65.9217 104.574 65.7045 104.396 65.6589 104.181C65.6133 103.967 65.7913 103.75 66.0058 103.704C66.2203 103.658 66.4375 103.836 66.4831 104.051C66.5287 104.265 66.3507 104.483 66.1362 104.528ZM71.8367 102.868C71.7911 102.654 71.9171 102.403 72.1316 102.357C72.3461 102.312 72.5971 102.438 72.6427 102.652C72.6882 102.867 72.6051 103.108 72.3477 103.163C72.3477 103.163 72.3477 103.163 72.3048 103.172C72.1332 103.209 71.8822 103.083 71.8367 102.868ZM63.9975 104.803C63.7739 104.806 63.5658 104.671 63.5111 104.414C63.5084 104.19 63.6436 103.982 63.901 103.927C64.1155 103.882 64.3327 104.06 64.3874 104.317C64.3901 104.541 64.2549 104.749 64.0404 104.794C64.0404 104.794 64.0404 104.794 63.9975 104.803ZM73.8503 102.216C73.7618 102.011 73.8878 101.76 74.0932 101.671C74.2986 101.583 74.5496 101.709 74.6381 101.914C74.7266 102.119 74.6006 102.37 74.3952 102.459L74.3523 102.468C74.1469 102.556 73.9388 102.421 73.8503 102.216ZM61.8836 104.984C61.6599 104.986 61.4427 104.808 61.44 104.585C61.4374 104.361 61.6154 104.144 61.839 104.141C62.0626 104.139 62.2798 104.317 62.2825 104.54C62.2852 104.764 62.141 104.929 61.9265 104.975C61.9265 104.975 61.9265 104.975 61.8836 104.984ZM75.8457 101.478C75.7572 101.273 75.8833 101.022 76.0886 100.933C76.294 100.845 76.545 100.971 76.6335 101.176C76.722 101.381 76.596 101.632 76.3906 101.721C76.3906 101.721 76.3477 101.73 76.3048 101.739C76.0903 101.785 75.8913 101.692 75.8457 101.478ZM59.7422 105.035C59.5186 105.038 59.3014 104.86 59.2987 104.636C59.296 104.413 59.4741 104.196 59.6977 104.193C59.9213 104.19 60.1385 104.368 60.1412 104.592C60.1439 104.815 59.9996 104.981 59.7851 105.026C59.7851 105.026 59.7851 105.026 59.7422 105.035ZM77.7891 100.706C77.7006 100.501 77.7838 100.259 77.9891 100.17C78.1945 100.082 78.4364 100.165 78.5249 100.37C78.6134 100.576 78.5303 100.818 78.334 100.949C78.2911 100.958 78.2911 100.958 78.2482 100.967C78.0675 100.961 77.8685 100.869 77.7891 100.706ZM57.6347 105.035C57.4111 105.038 57.2276 104.808 57.225 104.584C57.2223 104.36 57.4523 104.177 57.6759 104.174C57.8996 104.172 58.083 104.402 58.0857 104.625C58.0792 104.806 57.935 104.971 57.7634 105.008C57.6776 105.026 57.6776 105.026 57.6347 105.035ZM79.6961 99.7627C79.6076 99.5574 79.6907 99.3155 79.887 99.1841C80.0923 99.0956 80.3342 99.1787 80.4656 99.375C80.5541 99.5804 80.471 99.8222 80.2747 99.9536C80.2318 99.9627 80.1889 99.9719 80.146 99.981C79.9835 100.06 79.7846 99.9681 79.6961 99.7627ZM55.4998 104.906C55.267 104.866 55.0927 104.678 55.133 104.446C55.1303 104.222 55.3603 104.039 55.5931 104.079C55.8167 104.076 56.0001 104.306 55.9599 104.539C55.9535 104.72 55.8092 104.885 55.6376 104.921C55.5856 104.888 55.5427 104.897 55.4998 104.906ZM81.551 98.7856C81.4196 98.5893 81.5027 98.3474 81.699 98.216C81.8952 98.0846 82.1371 98.1677 82.2685 98.364C82.3999 98.5603 82.3168 98.8021 82.1205 98.9335C82.0776 98.9427 82.0347 98.9518 81.9918 98.9609C81.8293 99.0403 81.6304 98.948 81.551 98.7856ZM53.3804 104.639C53.1477 104.599 52.9734 104.412 53.0136 104.179C53.0538 103.946 53.241 103.772 53.4737 103.812C53.7064 103.852 53.8807 104.039 53.8405 104.272C53.8341 104.453 53.6899 104.618 53.5183 104.654C53.4754 104.664 53.4325 104.673 53.3804 104.639ZM83.3877 97.7226C83.2563 97.5263 83.3302 97.2415 83.5356 97.153C83.7319 97.0216 83.9738 97.1048 84.1052 97.301C84.2366 97.4973 84.1534 97.7392 83.9572 97.8705C83.9143 97.8797 83.8805 97.9317 83.8376 97.9408C83.6569 97.9344 83.467 97.8851 83.3877 97.7226ZM51.252 104.329C51.0192 104.289 50.8787 104.05 50.9189 103.817C50.9591 103.584 51.1983 103.444 51.3881 103.493C51.6209 103.533 51.7614 103.772 51.7121 103.962C51.6627 104.152 51.5523 104.265 51.3807 104.302C51.3469 104.354 51.304 104.363 51.252 104.329ZM85.1112 96.5491C84.9798 96.3528 85.0109 96.0772 85.2071 95.9458C85.4034 95.8144 85.679 95.8455 85.8104 96.0418C85.9418 96.238 85.9016 96.4708 85.7145 96.6451C85.6716 96.6542 85.6378 96.7062 85.552 96.7244C85.4233 96.7518 85.2334 96.7025 85.1112 96.5491ZM49.1481 103.924C48.9154 103.884 48.7749 103.645 48.8151 103.412C48.8553 103.179 49.0945 103.039 49.3272 103.079C49.56 103.119 49.7005 103.358 49.6603 103.591C49.6018 103.738 49.5005 103.894 49.3289 103.931C49.286 103.94 49.2339 103.906 49.1481 103.924ZM86.8256 95.3328C86.6942 95.1365 86.7253 94.8608 86.9215 94.7295C87.1178 94.5981 87.3505 94.6383 87.5157 94.7825C87.6471 94.9788 87.616 95.2544 87.4627 95.3767C87.4289 95.4287 87.3431 95.447 87.3002 95.4561C87.0857 95.5017 86.9387 95.4432 86.8256 95.3328ZM47.1028 103.373C46.87 103.332 46.7295 103.093 46.8126 102.851C46.8528 102.619 47.092 102.478 47.3339 102.561C47.5666 102.601 47.7071 102.841 47.624 103.082C47.5656 103.229 47.4551 103.342 47.2835 103.379C47.2406 103.388 47.1548 103.406 47.1028 103.373ZM88.4697 93.9968C88.3383 93.8005 88.3356 93.5769 88.5228 93.4026C88.719 93.2712 88.9426 93.2685 89.117 93.4557C89.2912 93.6428 89.251 93.8756 89.0639 94.0499C89.0301 94.1019 88.9443 94.1201 88.8585 94.1384C88.7298 94.1657 88.5828 94.1073 88.4697 93.9968ZM45.0483 102.778C44.8064 102.695 44.7088 102.447 44.801 102.248C44.8841 102.006 45.1324 101.908 45.3223 101.957C45.5641 102.041 45.6617 102.289 45.5695 102.488C45.5111 102.635 45.4006 102.748 45.2719 102.775C45.1861 102.793 45.1432 102.803 45.0483 102.778ZM90.0527 92.5842C89.8784 92.397 89.9186 92.1643 90.0628 91.9991C90.25 91.8248 90.4827 91.865 90.6479 92.0093C90.8222 92.1964 90.782 92.4292 90.6378 92.5944C90.5611 92.6555 90.5182 92.6646 90.4324 92.6829C90.3128 92.7531 90.1659 92.6947 90.0527 92.5842ZM43.0522 102.036C42.8104 101.953 42.7128 101.705 42.805 101.506C42.8881 101.264 43.1364 101.167 43.3353 101.259C43.5343 101.351 43.6748 101.59 43.5826 101.789C43.5242 101.936 43.4046 102.006 43.2759 102.034C43.1992 102.095 43.1043 102.07 43.0522 102.036ZM91.5837 91.1378C91.4185 90.9935 91.4067 90.727 91.5938 90.5527C91.7381 90.3875 92.0046 90.3757 92.1789 90.5629C92.3532 90.75 92.3559 90.9737 92.1687 91.1479C92.0921 91.2091 92.0583 91.2611 91.9725 91.2793C91.8346 91.2638 91.6968 91.2483 91.5837 91.1378ZM41.0471 101.252C40.8481 101.16 40.7505 100.911 40.8427 100.712C40.935 100.513 41.1832 100.416 41.3822 100.508C41.5812 100.6 41.6788 100.849 41.5866 101.048C41.5281 101.195 41.4085 101.265 41.2798 101.292C41.2369 101.301 41.142 101.277 41.0471 101.252ZM93.0015 89.5809C92.8363 89.4367 92.8245 89.1701 92.9687 89.005C93.113 88.8398 93.3795 88.828 93.5447 88.9722C93.7099 89.1165 93.7217 89.383 93.5774 89.5482C93.5008 89.6093 93.4241 89.6705 93.3383 89.6887C93.2525 89.7069 93.1146 89.6914 93.0015 89.5809ZM39.1095 100.363C38.9105 100.271 38.8129 100.023 38.896 99.781C38.9882 99.5821 39.2365 99.4845 39.4784 99.5676C39.6774 99.6598 39.775 99.9081 39.6919 100.15C39.6243 100.254 39.5138 100.367 39.3851 100.395C39.2993 100.413 39.2044 100.388 39.1095 100.363ZM94.4102 87.9811C94.245 87.8369 94.1903 87.5795 94.3254 87.3714C94.4697 87.2062 94.7271 87.1515 94.8923 87.2958C95.0574 87.44 95.1121 87.6974 94.977 87.9055C94.9003 87.9666 94.8236 88.0278 94.7378 88.046C94.6183 88.1163 94.4713 88.0578 94.4102 87.9811ZM37.2394 99.3709C37.0405 99.2787 36.9338 98.9875 37.0689 98.7794C37.1611 98.5804 37.4523 98.4737 37.6604 98.6088C37.8685 98.7439 37.9661 98.9922 37.8309 99.2003C37.7634 99.3044 37.6438 99.3746 37.558 99.3929C37.4293 99.4202 37.3344 99.3955 37.2394 99.3709ZM95.6719 86.3229C95.4639 86.1878 95.452 85.9213 95.5872 85.7132C95.7223 85.5051 95.9888 85.4933 96.1969 85.6284C96.3621 85.7727 96.4168 86.0301 96.2817 86.2382C96.2141 86.3422 96.1283 86.3604 95.9996 86.3878C95.9138 86.406 95.776 86.3905 95.6719 86.3229ZM35.3941 98.2834C35.186 98.1483 35.1313 97.8909 35.2664 97.6828C35.4015 97.4747 35.659 97.42 35.867 97.5551C36.0751 97.6903 36.1298 97.9477 35.9947 98.1558C35.9271 98.2598 35.8504 98.3209 35.7217 98.3483C35.593 98.3757 35.4981 98.351 35.3941 98.2834ZM96.9155 84.5789C96.7074 84.4438 96.6527 84.1864 96.7878 83.9783C96.9229 83.7702 97.1803 83.7155 97.3884 83.8506C97.5965 83.9858 97.6512 84.2432 97.5161 84.4512C97.4485 84.5553 97.3718 84.6164 97.2431 84.6438C97.1144 84.6711 97.0195 84.6465 96.9155 84.5789ZM33.5825 97.1439C33.3744 97.0088 33.3197 96.7514 33.4548 96.5433C33.59 96.3353 33.8474 96.2805 34.0554 96.4157C34.2635 96.5508 34.3182 96.8082 34.1831 97.0163C34.1155 97.1203 34.0389 97.1815 33.9102 97.2088C33.8244 97.2271 33.6865 97.2115 33.5825 97.1439ZM98.0641 82.8102C97.8651 82.718 97.8013 82.4177 97.9455 82.2525C98.0806 82.0444 98.338 81.9897 98.537 82.0819C98.7451 82.2171 98.7998 82.4745 98.7076 82.6734C98.64 82.7775 98.5204 82.8477 98.4346 82.866C98.263 82.9025 98.1252 82.8869 98.0641 82.8102ZM31.8814 95.8913C31.7162 95.7471 31.6615 95.4897 31.7966 95.2816C31.9409 95.1164 32.1983 95.0617 32.4063 95.1968C32.5715 95.3411 32.6262 95.5985 32.4911 95.8065C32.4235 95.9106 32.3377 95.9288 32.2519 95.9471C32.0803 95.9835 31.9854 95.9589 31.8814 95.8913ZM99.1086 80.974C98.9097 80.8817 98.8029 80.5906 98.938 80.3825C99.0303 80.1835 99.2786 80.0859 99.5295 80.2119C99.7285 80.3041 99.8352 80.5953 99.7001 80.8034C99.6325 80.9074 99.513 80.9777 99.4272 80.9959C99.3076 81.0662 99.2127 81.0415 99.1086 80.974ZM30.1711 94.5958C30.006 94.4515 29.9512 94.1941 30.1384 94.0198C30.2826 93.8546 30.54 93.7999 30.7052 93.9442C30.8704 94.0884 30.9251 94.3458 30.79 94.5539C30.7133 94.615 30.6366 94.6762 30.5508 94.6944C30.413 94.6789 30.2752 94.6633 30.1711 94.5958ZM100.058 79.1131C99.8593 79.0208 99.7617 78.7725 99.8448 78.5307C99.937 78.3317 100.185 78.2341 100.427 78.3172C100.626 78.4094 100.724 78.6577 100.632 78.8567C100.564 78.9607 100.453 79.0739 100.325 79.1012C100.248 79.1624 100.153 79.1377 100.058 79.1131ZM28.5714 93.1871C28.4062 93.0428 28.3944 92.7763 28.5386 92.6111C28.6829 92.4459 28.9494 92.4341 29.1146 92.5784C29.2798 92.7226 29.2916 92.9892 29.1564 93.1972C29.0798 93.2584 29.0031 93.3195 28.9173 93.3377C28.8223 93.3131 28.6845 93.2975 28.5714 93.1871ZM100.947 77.1755C100.748 77.0832 100.65 76.8349 100.742 76.636C100.835 76.437 101.083 76.3394 101.282 76.4316C101.481 76.5239 101.578 76.7721 101.486 76.9711C101.428 77.118 101.308 77.1883 101.179 77.2157C101.137 77.2248 101.051 77.243 100.947 77.1755ZM27.0483 91.7172C26.874 91.5301 26.8713 91.3065 27.0584 91.1322C27.2027 90.967 27.4692 90.9552 27.6435 91.1423C27.8087 91.2866 27.8205 91.5531 27.6333 91.7274C27.5567 91.7885 27.48 91.8497 27.4371 91.8588C27.2993 91.8432 27.1185 91.8368 27.0483 91.7172ZM101.74 75.2132C101.541 75.121 101.401 74.8818 101.493 74.6828C101.585 74.4839 101.824 74.3434 102.023 74.4356C102.265 74.5187 102.363 74.767 102.271 74.966C102.212 75.1129 102.102 75.226 101.973 75.2534C101.887 75.2716 101.835 75.2379 101.74 75.2132ZM25.559 90.1954C25.3847 90.0082 25.4249 89.7755 25.5691 89.6103C25.7563 89.436 26.0319 89.4671 26.1542 89.6205C26.3285 89.8076 26.2883 90.0404 26.144 90.2055C26.0674 90.2667 26.0245 90.2758 25.9387 90.294C25.8191 90.3643 25.6721 90.3058 25.559 90.1954ZM102.439 73.2263C102.197 73.1432 102.099 72.8949 102.149 72.705C102.232 72.4632 102.437 72.3747 102.67 72.4149C102.912 72.498 103.01 72.7463 102.96 72.9361C102.902 73.0831 102.791 73.1962 102.663 73.2236C102.577 73.2418 102.534 73.2509 102.439 73.2263ZM24.1372 88.5695C24.0058 88.3732 23.994 88.1067 24.1903 87.9753C24.3866 87.8439 24.6102 87.8412 24.7845 88.0283C24.9159 88.2246 24.9186 88.4482 24.7314 88.6225C24.6976 88.6746 24.6118 88.6928 24.526 88.711C24.4064 88.7813 24.2595 88.7229 24.1372 88.5695ZM103.043 71.2147C102.81 71.1745 102.669 70.9353 102.753 70.6935C102.793 70.4607 103.032 70.3202 103.274 70.4033C103.507 70.4435 103.647 70.6827 103.564 70.9245C103.506 71.0715 103.395 71.1846 103.223 71.2211C103.181 71.2302 103.138 71.2394 103.043 71.2147ZM22.8442 86.9162C22.7128 86.72 22.7439 86.4443 22.9401 86.3129C23.1364 86.1815 23.4121 86.2126 23.5435 86.4089C23.6749 86.6051 23.6438 86.8808 23.4475 87.0122C23.4137 87.0642 23.3279 87.0824 23.285 87.0916C23.1134 87.128 22.9236 87.0787 22.8442 86.9162ZM103.542 69.1355C103.31 69.0953 103.169 68.8562 103.209 68.6234C103.25 68.3907 103.489 68.2502 103.721 68.2904C103.954 68.3306 104.095 68.5697 104.055 68.8025C104.005 68.9923 103.895 69.1055 103.723 69.142C103.68 69.1511 103.637 69.1602 103.542 69.1355ZM21.5849 85.2109C21.4535 85.0147 21.4937 84.7819 21.69 84.6505C21.8863 84.5191 22.1619 84.5502 22.2933 84.7465C22.4247 84.9428 22.3936 85.2184 22.1974 85.3498C22.1545 85.3589 22.1207 85.411 22.0349 85.4292C21.8541 85.4228 21.6981 85.3214 21.5849 85.2109ZM103.956 67.0746C103.724 67.0344 103.583 66.7952 103.632 66.6054C103.673 66.3727 103.912 66.2321 104.092 66.2386C104.325 66.2788 104.466 66.5179 104.416 66.7078C104.41 66.8885 104.257 67.0108 104.085 67.0473C104.094 67.0902 104.051 67.0993 103.956 67.0746ZM20.3932 83.4016C20.2618 83.2054 20.3449 82.9635 20.5412 82.8321C20.7375 82.7007 21.0222 82.7747 21.1107 82.9801C21.2421 83.1764 21.1681 83.4611 20.9628 83.5496C20.9199 83.5587 20.8861 83.6108 20.8432 83.6199C20.7145 83.6472 20.5155 83.555 20.3932 83.4016ZM104.275 64.9891C104.043 64.9488 103.868 64.7617 103.908 64.529C103.949 64.2962 104.136 64.1219 104.369 64.1621C104.601 64.2023 104.776 64.3895 104.735 64.6222C104.729 64.8029 104.585 64.9681 104.413 65.0046C104.361 64.9708 104.318 64.9799 104.275 64.9891ZM19.3302 81.565C19.2417 81.3596 19.282 81.1268 19.4782 80.9954C19.6745 80.864 19.9164 80.9472 20.0478 81.1434C20.1792 81.3397 20.096 81.5815 19.8998 81.7129C19.8569 81.7221 19.814 81.7312 19.7711 81.7403C19.6086 81.8197 19.4096 81.7275 19.3302 81.565ZM104.499 62.8788C104.276 62.8815 104.092 62.6515 104.09 62.4278C104.087 62.2042 104.317 62.0208 104.541 62.0181C104.764 62.0154 104.948 62.2454 104.95 62.4691C104.944 62.6498 104.8 62.815 104.628 62.8515C104.585 62.8606 104.542 62.8697 104.499 62.8788ZM18.3439 79.6672C18.2554 79.4618 18.3386 79.2199 18.5348 79.0885C18.7402 79 18.9821 79.0831 19.1135 79.2794C19.202 79.4848 19.1189 79.7266 18.9226 79.858C18.8797 79.8672 18.8368 79.8763 18.8368 79.8763C18.6314 79.9648 18.4324 79.8725 18.3439 79.6672ZM104.638 60.7868C104.414 60.7895 104.24 60.6024 104.228 60.3358C104.225 60.1122 104.412 59.9379 104.679 59.9261C104.902 59.9234 105.077 60.1105 105.089 60.3771C105.082 60.5578 104.938 60.723 104.766 60.7595C104.68 60.7777 104.638 60.7868 104.638 60.7868ZM17.4434 77.7511C17.3549 77.5457 17.438 77.3039 17.6863 77.2062C17.8917 77.1177 18.1336 77.2009 18.2312 77.4491C18.3197 77.6545 18.2366 77.8964 17.9883 77.994C17.9454 78.0031 17.9454 78.0031 17.9025 78.0123C17.7309 78.0487 17.5319 77.9565 17.4434 77.7511ZM104.638 58.6793C104.414 58.682 104.197 58.5039 104.194 58.2803C104.192 58.0567 104.37 57.8395 104.593 57.8368C104.817 57.8341 105.034 58.0121 105.037 58.2357C105.04 58.4594 104.895 58.6246 104.724 58.661C104.681 58.6701 104.681 58.6701 104.638 58.6793ZM16.6196 75.7739C16.5311 75.5685 16.6571 75.3175 16.8625 75.2291C17.0679 75.1406 17.3189 75.2666 17.4074 75.472C17.4959 75.6773 17.3699 75.9283 17.1645 76.0168L17.1216 76.0259C16.9071 76.0715 16.7081 75.9793 16.6196 75.7739ZM104.543 56.5471C104.32 56.5498 104.103 56.3717 104.1 56.1481C104.097 55.9245 104.275 55.7073 104.499 55.7046C104.723 55.7019 104.94 55.8799 104.942 56.1035C104.945 56.3272 104.801 56.4923 104.629 56.5288C104.586 56.5379 104.586 56.5379 104.543 56.5471ZM15.9245 73.7694C15.836 73.564 15.962 73.313 16.2103 73.2154C16.4157 73.1269 16.6667 73.2529 16.7643 73.5012C16.8528 73.7066 16.7268 73.9576 16.5214 74.0461L16.4785 74.0552C16.1782 74.119 15.9701 73.9839 15.9245 73.7694ZM104.363 54.4331C104.149 54.4787 103.931 54.3006 103.886 54.0861C103.84 53.8716 104.018 53.6544 104.233 53.6088C104.447 53.5632 104.665 53.7413 104.71 53.9558C104.765 54.2132 104.621 54.3784 104.363 54.4331C104.406 54.424 104.406 54.424 104.363 54.4331ZM15.2723 71.7557C15.2267 71.5412 15.3527 71.2902 15.5672 71.2446C15.7817 71.199 16.0327 71.325 16.0783 71.5396C16.1239 71.7541 15.9979 72.005 15.7834 72.0506C15.7834 72.0506 15.7834 72.0506 15.7405 72.0598C15.5689 72.0962 15.3608 71.9611 15.2723 71.7557ZM104.097 52.3373C103.883 52.3829 103.665 52.2049 103.62 51.9904C103.574 51.7759 103.743 51.5158 103.967 51.5131C104.181 51.4675 104.398 51.6455 104.444 51.8601C104.49 52.0746 104.354 52.2826 104.097 52.3373ZM14.7397 69.6718C14.6941 69.4573 14.8201 69.2063 15.0775 69.1516C15.292 69.106 15.543 69.232 15.5886 69.4465C15.6342 69.661 15.5081 69.912 15.2936 69.9576C15.0453 70.0552 14.7944 69.9292 14.7397 69.6718ZM103.234 49.9649C103.188 49.7504 103.314 49.4994 103.572 49.4447C103.786 49.3991 104.037 49.5251 104.092 49.7826C104.138 49.9971 104.012 50.248 103.754 50.3028C103.488 50.3146 103.28 50.1794 103.234 49.9649ZM14.8221 67.9504C14.6076 67.996 14.3475 67.827 14.3448 67.6034C14.2993 67.3889 14.4773 67.1717 14.6918 67.1261C14.9063 67.0805 15.1664 67.2494 15.1691 67.4731C15.1627 67.6538 15.0367 67.9048 14.8221 67.9504ZM102.817 48.2151C102.772 48.0006 102.898 47.7496 103.112 47.704C103.327 47.6584 103.578 47.7844 103.623 47.9989C103.669 48.2134 103.543 48.4644 103.328 48.51C103.114 48.5556 102.863 48.4296 102.817 48.2151ZM14.4611 65.83C14.2466 65.8756 14.0294 65.6975 13.9838 65.483C13.9382 65.2685 14.1163 65.0513 14.3308 65.0057C14.5453 64.9601 14.7625 65.1382 14.8081 65.3527C14.8628 65.6101 14.6756 65.7844 14.4611 65.83ZM102.251 46.1832C102.162 45.9778 102.288 45.7268 102.546 45.6721C102.76 45.6265 103.011 45.7525 103.057 45.967C103.102 46.1815 102.976 46.4325 102.762 46.4781L102.719 46.4872C102.547 46.5237 102.339 46.3886 102.251 46.1832ZM14.195 63.7342C13.9714 63.7369 13.7633 63.6018 13.7515 63.3353C13.7488 63.1116 13.8839 62.9036 14.1505 62.8917C14.3741 62.889 14.5822 63.0242 14.594 63.2907C14.6396 63.5052 14.4615 63.7224 14.247 63.768L14.195 63.7342ZM101.608 44.2124C101.519 44.007 101.645 43.7561 101.851 43.6676C102.056 43.5791 102.307 43.7051 102.396 43.9105C102.484 44.1159 102.358 44.3668 102.153 44.4553L102.11 44.4645C101.895 44.5101 101.696 44.4178 101.608 44.2124ZM14.0238 61.6632C13.8002 61.6659 13.583 61.4878 13.5803 61.2642C13.5776 61.0406 13.7557 60.8234 13.9793 60.8207C14.2029 60.818 14.4201 60.996 14.4228 61.2196C14.4255 61.4433 14.2812 61.6084 14.0667 61.654C14.0667 61.654 14.0667 61.654 14.0238 61.6632ZM100.879 42.2599C100.79 42.0545 100.874 41.8127 101.122 41.715C101.327 41.6266 101.569 41.7097 101.667 41.958C101.755 42.1633 101.672 42.4052 101.424 42.5028C101.381 42.5119 101.381 42.5119 101.338 42.5211C101.166 42.5575 100.967 42.4653 100.879 42.2599ZM13.9722 59.5218C13.7486 59.5245 13.5314 59.3465 13.5716 59.1137C13.5689 58.8901 13.747 58.6729 13.9797 58.7131C14.2033 58.7104 14.4205 58.8885 14.3803 59.1212C14.3739 59.3019 14.2388 59.51 14.0243 59.5556L13.9722 59.5218ZM100.021 40.3347C99.9328 40.1294 100.016 39.8875 100.221 39.799C100.427 39.7105 100.669 39.7936 100.8 39.9899C100.888 40.1953 100.805 40.4371 100.609 40.5685C100.566 40.5776 100.566 40.5776 100.523 40.5868C100.309 40.6324 100.11 40.5401 100.021 40.3347ZM14.0156 57.4052C13.7919 57.4079 13.6085 57.1778 13.6058 56.9542C13.6031 56.7306 13.8332 56.5471 14.0568 56.5444C14.2804 56.5417 14.4638 56.7718 14.4665 56.9954C14.4601 57.1761 14.3159 57.3413 14.1443 57.3778C14.0676 57.4389 14.0247 57.4481 14.0156 57.4052ZM99.087 38.4707C98.9985 38.2653 99.0816 38.0235 99.2779 37.8921C99.4833 37.8036 99.7251 37.8867 99.8565 38.083C99.945 38.2883 99.871 38.5731 99.6657 38.6616C99.6228 38.6707 99.5799 38.6798 99.537 38.689C99.3653 38.7254 99.2093 38.6241 99.087 38.4707ZM14.1538 55.3132C13.9211 55.273 13.7468 55.0858 13.787 54.8531C13.8272 54.6203 14.0143 54.446 14.2471 54.4862C14.4798 54.5264 14.6541 54.7136 14.6139 54.9463C14.6075 55.127 14.4632 55.2922 14.2916 55.3287C14.1967 55.304 14.1967 55.304 14.1538 55.3132ZM98.1098 36.6158C97.9784 36.4195 98.0615 36.1777 98.2578 36.0463C98.4541 35.9149 98.6959 35.998 98.8273 36.1943C98.9587 36.3905 98.8847 36.6753 98.6794 36.7638C98.6365 36.7729 98.5935 36.782 98.5506 36.7911C98.3882 36.8705 98.1892 36.7783 98.1098 36.6158ZM14.3779 53.2029C14.1451 53.1627 13.9708 52.9756 14.011 52.7428C14.0512 52.5101 14.2384 52.3358 14.4711 52.376C14.7039 52.4162 14.8782 52.6033 14.838 52.8361C14.7886 53.0259 14.6782 53.1391 14.5066 53.1756C14.4728 53.2276 14.4299 53.2367 14.3779 53.2029ZM97.0131 34.8312C96.8817 34.6349 96.9648 34.393 97.1181 34.2707C97.3144 34.1393 97.5992 34.2133 97.6785 34.3758C97.8099 34.5721 97.7359 34.8569 97.5306 34.9454C97.4877 34.9545 97.4539 35.0065 97.411 35.0156C97.2914 35.0859 97.0924 34.9936 97.0131 34.8312ZM14.6968 51.1173C14.4641 51.0771 14.3236 50.838 14.3638 50.6052C14.404 50.3725 14.6431 50.232 14.8759 50.2722C15.1086 50.3124 15.2492 50.5515 15.2089 50.7843C15.1596 50.9741 15.0491 51.0873 14.8775 51.1238C14.8346 51.1329 14.7488 51.1511 14.6968 51.1173ZM95.7967 33.1168C95.6653 32.9205 95.7055 32.6878 95.8927 32.5135C96.0889 32.3821 96.3217 32.4223 96.496 32.6094C96.6274 32.8057 96.5963 33.0813 96.4 33.2127C96.3662 33.2647 96.2804 33.283 96.2375 33.2921C96.1088 33.3195 95.919 33.2701 95.7967 33.1168ZM15.1536 49.0473C14.9209 49.0071 14.7804 48.7679 14.8206 48.5352C14.8608 48.3024 15.0999 48.1619 15.3418 48.245C15.5745 48.2852 15.7151 48.5244 15.6749 48.7572C15.6255 48.947 15.5151 49.0602 15.3435 49.0966C15.2485 49.072 15.2056 49.0811 15.1536 49.0473ZM94.5466 31.4544C94.4152 31.2581 94.4463 30.9825 94.5996 30.8602C94.7959 30.7288 95.0286 30.769 95.1938 30.9133C95.3252 31.1095 95.2941 31.3852 95.1407 31.5074C95.107 31.5595 95.0212 31.5777 94.9783 31.5868C94.8158 31.6662 94.6688 31.6078 94.5466 31.4544ZM15.6624 47.0111C15.4206 46.928 15.3321 46.7226 15.3723 46.4898C15.4125 46.2571 15.6608 46.1595 15.8935 46.1997C16.1263 46.2399 16.2239 46.4882 16.1837 46.7209C16.1252 46.8679 16.0148 46.981 15.886 47.0084C15.8002 47.0266 15.7144 47.0448 15.6624 47.0111ZM93.2197 29.8532C93.0454 29.666 93.0765 29.3904 93.2728 29.259C93.4599 29.0847 93.7356 29.1158 93.867 29.312C93.9984 29.5083 94.0102 29.7748 93.8139 29.9062C93.7801 29.9582 93.6943 29.9765 93.6085 29.9947C93.4798 30.0221 93.3329 29.9636 93.2197 29.8532ZM16.2662 44.9995C16.0243 44.9164 15.9267 44.6681 16.0189 44.4691C16.102 44.2273 16.3503 44.1296 16.5493 44.2219C16.7911 44.305 16.8887 44.5533 16.7965 44.7522C16.7381 44.8992 16.6276 45.0123 16.4989 45.0397C16.4469 45.0059 16.3611 45.0241 16.2662 44.9995ZM91.8162 28.3131C91.6419 28.1259 91.673 27.8503 91.8264 27.728C92.0135 27.5537 92.2463 27.5939 92.4115 27.7381C92.5858 27.9253 92.5455 28.158 92.4013 28.3232C92.3246 28.3844 92.2817 28.3935 92.1959 28.4117C92.0672 28.4391 91.9294 28.4235 91.8162 28.3131ZM17.0077 43.0034C16.7658 42.9203 16.6682 42.672 16.7605 42.4731C16.8527 42.2741 17.0919 42.1336 17.2908 42.2258C17.4898 42.3181 17.6303 42.5572 17.5381 42.7562C17.4796 42.9031 17.36 42.9734 17.2313 43.0007C17.1455 43.019 17.0597 43.0372 17.0077 43.0034ZM90.336 26.8341C90.1709 26.6899 90.1591 26.4233 90.3033 26.2581C90.4475 26.093 90.7141 26.0812 90.8792 26.2254C91.0444 26.3697 91.0562 26.6362 90.912 26.8014C90.8353 26.8625 90.7586 26.9236 90.7157 26.9328C90.587 26.9601 90.4492 26.9446 90.336 26.8341ZM17.8013 41.0412C17.6023 40.9489 17.5047 40.7007 17.5878 40.4588C17.68 40.2598 17.9283 40.1622 18.1273 40.2544C18.3263 40.3467 18.4239 40.595 18.3316 40.7939C18.2732 40.9409 18.1536 41.0111 18.0249 41.0385C17.9911 41.0905 17.8962 41.0658 17.8013 41.0412ZM88.7792 25.4163C88.614 25.272 88.6022 25.0055 88.7373 24.7974C88.8816 24.6323 89.1481 24.6204 89.3133 24.7647C89.4784 24.9089 89.4902 25.1755 89.3551 25.3835C89.2784 25.4447 89.2018 25.5058 89.116 25.5241C89.0301 25.5423 88.8923 25.5268 88.7792 25.4163ZM18.6989 39.1465C18.4999 39.0543 18.4023 38.806 18.5283 38.555C18.6206 38.356 18.8689 38.2584 19.0769 38.3935C19.2759 38.4858 19.3735 38.734 19.2904 38.9759C19.2228 39.08 19.1124 39.1931 18.9837 39.2205C18.8887 39.1958 18.7938 39.1711 18.6989 39.1465ZM87.1976 24.0934C87.0325 23.9491 86.9777 23.6917 87.1129 23.4837C87.2571 23.3185 87.5145 23.2638 87.7226 23.3989C87.8878 23.5431 87.9425 23.8005 87.8074 24.0086C87.7307 24.0698 87.654 24.1309 87.5682 24.1491C87.4395 24.1765 87.3017 24.161 87.1976 24.0934ZM19.6823 37.2335C19.4742 37.0984 19.4195 36.841 19.5118 36.642C19.6469 36.434 19.9043 36.3793 20.1033 36.4715C20.3113 36.6066 20.366 36.864 20.2738 37.063C20.2063 37.167 20.0867 37.2373 20.0009 37.2555C19.8813 37.3258 19.7864 37.3011 19.6823 37.2335ZM85.5394 22.8316C85.3313 22.6965 85.3195 22.43 85.4546 22.2219C85.5898 22.0138 85.8563 22.002 86.0644 22.1371C86.2725 22.2723 86.2843 22.5388 86.1491 22.7469C86.0816 22.8509 85.9958 22.8691 85.8671 22.8965C85.7384 22.9239 85.6435 22.8992 85.5394 22.8316ZM20.736 35.4402C20.5279 35.3051 20.4732 35.0477 20.6083 34.8396C20.7435 34.6315 21.0009 34.5768 21.2089 34.7119C21.417 34.847 21.4717 35.1045 21.3366 35.3125C21.269 35.4166 21.1924 35.4777 21.0637 35.5051C20.9779 35.5233 20.84 35.5078 20.736 35.4402ZM83.8045 21.631C83.5964 21.4959 83.5417 21.2385 83.6768 21.0304C83.812 20.8223 84.0694 20.7676 84.2775 20.9027C84.4855 21.0379 84.5403 21.2953 84.4051 21.5034C84.3376 21.6074 84.2609 21.6685 84.1322 21.6959C84.0035 21.7232 83.9085 21.6986 83.8045 21.631ZM21.9275 33.6624C21.7194 33.5273 21.7076 33.2607 21.7998 33.0618C21.935 32.8537 22.1924 32.799 22.4004 32.9341C22.6085 33.0692 22.6203 33.3358 22.5281 33.5347C22.4605 33.6388 22.3747 33.657 22.246 33.6844C22.1265 33.7546 21.9886 33.7391 21.9275 33.6624ZM82.002 20.5344C81.794 20.3993 81.7392 20.1419 81.8315 19.9429C81.9666 19.7349 82.224 19.6801 82.423 19.7724C82.6311 19.9075 82.6858 20.1649 82.5935 20.3639C82.526 20.4679 82.4064 20.5382 82.3206 20.5564C82.201 20.6267 82.1061 20.602 82.002 20.5344ZM23.1372 31.9704C22.9721 31.8261 22.9173 31.5687 23.0525 31.3607C23.1967 31.1955 23.4541 31.1408 23.6622 31.2759C23.8274 31.4201 23.8821 31.6775 23.747 31.8856C23.6703 31.9468 23.5936 32.0079 23.5078 32.0261C23.3791 32.0535 23.2413 32.038 23.1372 31.9704ZM80.1749 19.5328C79.976 19.4406 79.8692 19.1494 80.0043 18.9413C80.0966 18.7423 80.3878 18.6356 80.5958 18.7707C80.7948 18.8629 80.8924 19.1112 80.7573 19.3193C80.6897 19.4234 80.5793 19.5365 80.4506 19.5639C80.3648 19.5821 80.2698 19.5574 80.1749 19.5328ZM24.4419 30.3031C24.2767 30.1588 24.2649 29.8923 24.4 29.6842C24.5443 29.519 24.8108 29.5072 25.0189 29.6423C25.1841 29.7866 25.1959 30.0531 25.0607 30.2612C24.9841 30.3223 24.9074 30.3835 24.8216 30.4017C24.6929 30.4291 24.5459 30.3706 24.4419 30.3031ZM78.314 18.5831C78.115 18.4909 78.0174 18.2426 78.1005 18.0008C78.1928 17.8018 78.441 17.7042 78.64 17.7964C78.839 17.8886 78.9366 18.1369 78.8444 18.3359C78.7768 18.4399 78.6663 18.5531 78.5376 18.5805C78.5038 18.6325 78.418 18.6507 78.314 18.5831ZM25.8506 28.7033C25.6854 28.559 25.6736 28.2925 25.8178 28.1273C25.9621 27.9621 26.2286 27.9503 26.3938 28.0946C26.559 28.2388 26.5708 28.5054 26.4357 28.7134C26.359 28.7746 26.2823 28.8357 26.2394 28.8448C26.1016 28.8293 25.9637 28.8137 25.8506 28.7033ZM76.3855 17.7376C76.1866 17.6453 76.0889 17.397 76.1812 17.1981C76.2734 16.9991 76.5217 16.9015 76.7207 16.9937C76.9196 17.086 77.0601 17.3251 76.925 17.5332C76.8665 17.6801 76.747 17.7504 76.6183 17.7778C76.5754 17.7869 76.4896 17.8051 76.3855 17.7376ZM27.2775 27.1893C27.1123 27.0451 27.1434 26.7694 27.2877 26.6042C27.4748 26.4299 27.7076 26.4701 27.8728 26.6144C28.0379 26.7586 28.0497 27.0252 27.8626 27.1995C27.7859 27.2606 27.743 27.2697 27.6572 27.288C27.5285 27.3153 27.3907 27.2998 27.2775 27.1893ZM74.4324 16.9869C74.1905 16.9038 74.0929 16.6555 74.1851 16.4565C74.2682 16.2147 74.5165 16.117 74.7155 16.2093C74.9574 16.2924 75.055 16.5407 74.9627 16.7396C74.9043 16.8866 74.7938 16.9997 74.6651 17.0271C74.5793 17.0453 74.5273 17.0115 74.4324 16.9869ZM28.8085 25.7429C28.6342 25.5558 28.6653 25.2801 28.8616 25.1487C29.0487 24.9744 29.2815 25.0146 29.4558 25.2018C29.6301 25.3889 29.599 25.6646 29.4027 25.796C29.326 25.8571 29.2831 25.8662 29.1973 25.8845C29.0595 25.8689 28.9217 25.8534 28.8085 25.7429ZM72.4546 16.3311C72.2127 16.248 72.1151 15.9997 72.1644 15.8099C72.2475 15.568 72.4529 15.4795 72.6857 15.5197C72.9275 15.6028 73.0251 15.8511 72.9758 16.041C72.9174 16.1879 72.8069 16.3011 72.6782 16.3284C72.5924 16.3467 72.5066 16.3649 72.4546 16.3311ZM30.3915 24.3303C30.2601 24.134 30.2912 23.8584 30.4446 23.7361C30.6408 23.6047 30.8736 23.6449 31.0387 23.7891C31.1701 23.9854 31.1391 24.2611 30.9857 24.3833C30.9519 24.4354 30.8661 24.4536 30.8232 24.4627C30.7036 24.533 30.5138 24.4836 30.3915 24.3303ZM70.4521 15.7703C70.2194 15.7301 70.0789 15.4909 70.162 15.2491C70.2022 15.0163 70.4413 14.8758 70.6832 14.9589C70.9159 14.9991 71.0565 15.2383 70.9734 15.4801C70.9149 15.6271 70.8044 15.7402 70.6328 15.7767C70.547 15.795 70.5041 15.8041 70.4521 15.7703ZM32.0877 23.0281C31.9563 22.8319 31.9873 22.5562 32.1836 22.4248C32.3799 22.2934 32.6555 22.3245 32.7869 22.5208C32.9183 22.717 32.8872 22.9927 32.691 23.1241C32.6572 23.1761 32.5714 23.1943 32.5285 23.2035C32.3569 23.2399 32.167 23.1906 32.0877 23.0281ZM68.3821 15.3135C68.1493 15.2733 68.0088 15.0341 68.049 14.8014C68.0892 14.5686 68.3284 14.4281 68.5611 14.4683C68.7939 14.5085 68.9344 14.7477 68.8942 14.9805C68.8878 15.1612 68.7344 15.2834 68.5628 15.3199C68.5108 15.2861 68.4679 15.2953 68.3821 15.3135ZM33.802 21.8118C33.6706 21.6155 33.7017 21.3398 33.9071 21.2514C34.1034 21.12 34.3361 21.1602 34.4675 21.3564C34.5989 21.5527 34.5249 21.8375 34.3625 21.9168C34.3287 21.9689 34.2858 21.978 34.2 21.9962C34.0713 22.0236 33.8814 21.9742 33.802 21.8118ZM66.3212 14.8996C66.0884 14.8594 65.9141 14.6723 65.9543 14.4395C65.9945 14.2068 66.2246 14.0233 66.4144 14.0727C66.6472 14.1129 66.8215 14.3 66.7813 14.5328C66.7319 14.7226 66.6215 14.8358 66.4499 14.8723C66.4161 14.9243 66.3732 14.9334 66.3212 14.8996ZM35.5776 20.6721C35.4462 20.4758 35.5293 20.234 35.7256 20.1026C35.9218 19.9712 36.1637 20.0543 36.2951 20.2505C36.4265 20.4468 36.3525 20.7316 36.1471 20.8201C36.1042 20.8292 36.0613 20.8383 36.0184 20.8474C35.8468 20.8839 35.657 20.8346 35.5776 20.6721ZM64.2447 14.6235C64.012 14.5833 63.8377 14.3962 63.8779 14.1634C63.9181 13.9307 64.1052 13.7564 64.338 13.7966C64.5707 13.8368 64.745 14.024 64.7048 14.2567C64.6984 14.4374 64.5541 14.6026 64.3825 14.6391C64.3396 14.6482 64.2967 14.6573 64.2447 14.6235ZM37.3622 19.5753C37.2737 19.3699 37.3139 19.1372 37.5531 18.9967C37.7585 18.9082 37.9912 18.9484 38.1318 19.1876C38.2203 19.3929 38.18 19.6257 37.9409 19.7662C37.898 19.7753 37.8551 19.7844 37.8122 19.7936C37.6406 19.83 37.4936 19.7716 37.3622 19.5753ZM62.1436 14.4424C61.92 14.4451 61.7365 14.215 61.7338 13.9914C61.7312 13.7678 61.9612 13.5844 62.1848 13.5817C62.4085 13.579 62.5919 13.809 62.5946 14.0327C62.5881 14.2134 62.4439 14.3786 62.2723 14.415C62.2385 14.4671 62.1956 14.4762 62.1436 14.4424ZM39.2692 18.6319C39.1807 18.4265 39.2638 18.1847 39.46 18.0533C39.6654 17.9648 39.9073 18.0479 40.0387 18.2441C40.1272 18.4495 40.0441 18.6914 39.8478 18.8228C39.8049 18.8319 39.762 18.841 39.762 18.841C39.5475 18.8866 39.3485 18.7944 39.2692 18.6319ZM60.0698 14.39C59.8462 14.3926 59.6719 14.2055 59.6601 13.939C59.6574 13.7153 59.8445 13.541 60.1111 13.5292C60.3347 13.5265 60.509 13.7137 60.5117 13.9373C60.5053 14.118 60.3701 14.3261 60.1985 14.3626C60.1556 14.3717 60.1127 14.3808 60.0698 14.39ZM41.1852 17.7314C41.0967 17.526 41.1798 17.2842 41.4281 17.1865C41.6335 17.098 41.8754 17.1812 41.973 17.4294C42.0615 17.6348 41.9784 17.8767 41.7301 17.9743C41.6872 17.9834 41.6872 17.9834 41.6443 17.9926C41.4727 18.029 41.2646 17.8939 41.1852 17.7314ZM57.9623 14.3895C57.7387 14.3922 57.5215 14.2142 57.5188 13.9906C57.5161 13.7669 57.6941 13.5497 57.9177 13.5471C58.1413 13.5444 58.3585 13.7224 58.3612 13.946C58.3639 14.1696 58.2197 14.3348 58.0481 14.3713C58.0481 14.3713 58.0052 14.3804 57.9623 14.3895ZM43.1195 16.9167C43.031 16.7113 43.157 16.4603 43.3624 16.3718C43.5678 16.2834 43.8188 16.4094 43.9073 16.6147C43.9958 16.8201 43.8697 17.0711 43.6644 17.1596L43.6215 17.1687C43.4161 17.2572 43.208 17.1221 43.1195 16.9167ZM55.8821 14.5178C55.6585 14.5205 55.4413 14.3425 55.4386 14.1189C55.4359 13.8952 55.6139 13.678 55.8375 13.6753C56.0612 13.6726 56.2784 13.8507 56.281 14.0743C56.2837 14.2979 56.1395 14.4631 55.925 14.5087C55.925 14.5087 55.925 14.5087 55.8821 14.5178ZM45.124 16.2216C45.0355 16.0162 45.1616 15.7652 45.4098 15.6676C45.6152 15.5791 45.8662 15.7051 45.9638 15.9534C46.0094 16.1679 45.9263 16.4098 45.6689 16.4645L45.626 16.4736C45.3777 16.5712 45.1696 16.4361 45.124 16.2216ZM53.8201 14.7319C53.6056 14.7775 53.3884 14.5995 53.3428 14.385C53.2972 14.1705 53.4753 13.9533 53.6898 13.9077C53.9043 13.8621 54.1215 14.0401 54.1671 14.2546C54.2127 14.4691 54.0775 14.6772 53.8201 14.7319ZM47.1468 15.6123C47.1012 15.3978 47.2272 15.1468 47.4417 15.1012C47.6563 15.0556 47.9072 15.1816 47.9528 15.3961C47.9984 15.6106 47.8724 15.8616 47.6579 15.9072C47.4005 15.9619 47.1924 15.8268 47.1468 15.6123ZM51.7335 15.0409C51.519 15.0865 51.2589 14.9176 51.2562 14.694C51.2106 14.4795 51.3795 14.2194 51.6032 14.2167C51.8177 14.1711 52.0778 14.34 52.0805 14.5636C52.1261 14.7781 51.9909 14.9862 51.7335 15.0409ZM49.1878 15.0888C49.1422 14.8743 49.2683 14.6233 49.5257 14.5686C49.7402 14.523 49.9912 14.649 50.0367 14.8635C50.0823 15.078 49.9563 15.329 49.7418 15.3746C49.4506 15.4813 49.2426 15.3462 49.1878 15.0888Z" fill="#E2001A"/>
<path d="M68.6784 106.365C68.421 106.419 68.2038 106.241 68.1582 106.027C68.1126 105.812 68.2816 105.552 68.4961 105.507C68.7535 105.452 68.9707 105.63 69.0163 105.844C69.0619 106.059 68.8929 106.319 68.6784 106.365ZM70.3033 105.571C70.2486 105.313 70.3837 105.105 70.6411 105.051C70.8985 104.996 71.1066 105.131 71.1613 105.388C71.216 105.646 71.0809 105.854 70.8235 105.909C70.5999 105.911 70.3489 105.785 70.3033 105.571ZM65.9429 106.363C65.8882 106.106 66.0662 105.888 66.3236 105.834C66.581 105.779 66.7983 105.957 66.853 106.214C66.9077 106.472 66.7297 106.689 66.4722 106.744C66.2148 106.799 65.9976 106.621 65.9429 106.363ZM72.4639 104.977C72.4092 104.72 72.5443 104.512 72.7497 104.423C72.9642 104.377 73.2152 104.503 73.3037 104.709C73.3493 104.923 73.2233 105.174 73.0179 105.263L72.975 105.272C72.7267 105.37 72.5186 105.234 72.4639 104.977ZM64.2478 107.037C63.9813 107.049 63.7641 106.871 63.7614 106.647C63.7587 106.424 63.9367 106.207 64.1512 106.161C64.4086 106.106 64.6258 106.284 64.6376 106.551C64.6403 106.774 64.5052 106.983 64.2478 107.037ZM74.5725 104.349C74.4749 104.101 74.6009 103.85 74.8583 103.795C75.1066 103.698 75.3576 103.824 75.4123 104.081C75.5008 104.287 75.3839 104.581 75.1265 104.635L75.0836 104.644C74.8599 104.647 74.6181 104.564 74.5725 104.349ZM61.996 107.202C61.7724 107.205 61.5552 107.027 61.5525 106.803C61.5498 106.579 61.7278 106.362 61.9852 106.308C62.2089 106.305 62.4261 106.483 62.4379 106.749C62.4406 106.973 62.3054 107.181 62.0909 107.227C62.0389 107.193 62.0389 107.193 61.996 107.202ZM76.6537 103.593C76.5652 103.388 76.6821 103.094 76.8875 103.005C77.0929 102.917 77.3868 103.034 77.4753 103.239C77.5638 103.445 77.4469 103.738 77.2415 103.827C77.1986 103.836 77.1986 103.836 77.1557 103.845C76.9412 103.891 76.7422 103.799 76.6537 103.593ZM59.778 107.315C59.5544 107.317 59.3372 107.139 59.3254 106.873C59.3227 106.649 59.5007 106.432 59.7672 106.42C59.9909 106.418 60.2081 106.596 60.2199 106.862C60.2226 107.086 60.0783 107.251 59.8638 107.297C59.8209 107.306 59.8209 107.306 59.778 107.315ZM78.7076 102.708C78.6191 102.503 78.6931 102.218 78.9414 102.12C79.1468 102.032 79.4315 102.106 79.5291 102.354C79.6176 102.56 79.5436 102.844 79.2954 102.942C79.2525 102.951 79.2525 102.951 79.2096 102.96C78.9951 103.006 78.7961 102.914 78.7076 102.708ZM57.5235 107.256C57.2999 107.259 57.0736 107.038 57.1138 106.805C57.1111 106.581 57.332 106.355 57.5648 106.395C57.7884 106.392 58.0147 106.613 57.9745 106.846C57.9772 107.07 57.8329 107.235 57.6184 107.281C57.6184 107.281 57.5664 107.247 57.5235 107.256ZM80.7094 101.79C80.6209 101.584 80.6949 101.299 80.9003 101.211C81.1057 101.122 81.3905 101.196 81.479 101.402C81.6104 101.598 81.4935 101.892 81.2881 101.98C81.2452 101.99 81.2023 101.999 81.1594 102.008C80.9878 102.044 80.7888 101.952 80.7094 101.79ZM55.3028 107.145C55.0701 107.105 54.8958 106.918 54.884 106.651C54.9242 106.418 55.1113 106.244 55.3778 106.232C55.6106 106.272 55.7849 106.46 55.7967 106.726C55.7903 106.907 55.646 107.072 55.4315 107.118C55.3886 107.127 55.3457 107.136 55.3028 107.145ZM82.641 100.751C82.5096 100.555 82.5836 100.27 82.8228 100.13C83.0191 99.9982 83.3038 100.072 83.4352 100.268C83.5666 100.465 83.4926 100.75 83.2964 100.881C83.2535 100.89 83.2106 100.899 83.1677 100.908C82.9623 100.997 82.7633 100.905 82.641 100.751ZM53.0547 106.905C52.822 106.865 52.6386 106.635 52.6788 106.402C52.719 106.17 52.949 105.986 53.1818 106.026C53.4145 106.067 53.598 106.297 53.5577 106.529C53.5084 106.719 53.4071 106.875 53.1926 106.921C53.1834 106.878 53.1405 106.887 53.0547 106.905ZM84.5453 99.5841C84.4139 99.3879 84.4879 99.1031 84.6841 98.9717C84.8804 98.8403 85.1652 98.9143 85.2966 99.1106C85.428 99.3069 85.354 99.5916 85.1577 99.723C85.1148 99.7321 85.081 99.7841 84.9952 99.8024C84.8236 99.8389 84.6767 99.7804 84.5453 99.5841ZM50.8742 106.562C50.6415 106.522 50.4581 106.292 50.5412 106.05C50.5814 105.817 50.8115 105.634 51.0533 105.717C51.2861 105.757 51.4695 105.987 51.3864 106.229C51.337 106.419 51.2266 106.532 51.055 106.568C50.96 106.544 50.9171 106.553 50.8742 106.562ZM86.3975 98.3833C86.2661 98.1871 86.2972 97.9114 86.4934 97.78C86.6897 97.6486 86.9654 97.6797 87.0968 97.876C87.2282 98.0723 87.1971 98.3479 87.0008 98.4793C86.967 98.5313 86.8812 98.5496 86.8383 98.5587C86.6667 98.5952 86.5198 98.5367 86.3975 98.3833ZM48.6664 106.089C48.4336 106.049 48.2931 105.81 48.3333 105.577C48.3735 105.345 48.6127 105.204 48.8455 105.244C49.0782 105.284 49.2187 105.524 49.1785 105.756C49.1292 105.946 49.0187 106.059 48.8471 106.096C48.8042 106.105 48.7184 106.123 48.6664 106.089ZM88.1886 97.1058C88.0572 96.9096 88.0883 96.6339 88.2754 96.4596C88.4717 96.3282 88.7473 96.3593 88.9216 96.5465C89.053 96.7427 89.0219 97.0184 88.8257 97.1498C88.7919 97.2018 88.7061 97.22 88.6632 97.2292C88.4487 97.2748 88.3017 97.2163 88.1886 97.1058ZM46.4923 105.565C46.2505 105.482 46.1099 105.243 46.193 105.001C46.2762 104.759 46.5153 104.619 46.7572 104.702C46.9899 104.742 47.1396 105.024 47.0565 105.266C46.998 105.413 46.8875 105.526 46.7159 105.562C46.6301 105.581 46.5443 105.599 46.4923 105.565ZM89.9094 95.7088C89.7351 95.5216 89.7662 95.246 89.9533 95.0717C90.1405 94.8974 90.4161 94.9285 90.5904 95.1156C90.7647 95.3028 90.7336 95.5784 90.5465 95.7527C90.4698 95.8138 90.4269 95.823 90.3411 95.8412C90.1695 95.8777 90.0225 95.8192 89.9094 95.7088ZM44.3338 104.903C44.0919 104.82 43.9943 104.572 44.0345 104.339C44.1176 104.097 44.3659 103.999 44.5987 104.04C44.8405 104.123 44.9381 104.371 44.8979 104.604C44.8395 104.751 44.729 104.864 44.5574 104.9C44.5145 104.909 44.4287 104.928 44.3338 104.903ZM91.5691 94.235C91.3948 94.0479 91.4259 93.7722 91.5701 93.607C91.7573 93.4327 92.0329 93.4638 92.1981 93.6081C92.3724 93.7952 92.3413 94.0709 92.197 94.236C92.1204 94.2972 92.0866 94.3492 92.0008 94.3674C91.8292 94.4039 91.6822 94.3455 91.5691 94.235ZM42.2428 104.137C42.001 104.054 41.9033 103.805 41.9865 103.563C42.0696 103.322 42.3179 103.224 42.5597 103.307C42.8016 103.39 42.8992 103.638 42.8161 103.88C42.7576 104.027 42.6472 104.14 42.4756 104.177C42.3898 104.195 42.2948 104.17 42.2428 104.137ZM93.1676 92.6846C92.9933 92.4974 92.9815 92.2309 93.1686 92.0566C93.3558 91.8823 93.6223 91.8705 93.7966 92.0576C93.9709 92.2448 93.9827 92.5113 93.7956 92.6856C93.7189 92.7467 93.6422 92.8079 93.5564 92.8261C93.4277 92.8535 93.2808 92.795 93.1676 92.6846ZM40.1856 103.318C39.9438 103.235 39.837 102.944 39.9722 102.736C40.0553 102.494 40.3465 102.387 40.5546 102.523C40.7964 102.606 40.9032 102.897 40.768 103.105C40.7096 103.252 40.59 103.322 40.4613 103.35C40.3326 103.377 40.2377 103.352 40.1856 103.318ZM94.6621 91.0665C94.4878 90.8794 94.476 90.6129 94.6202 90.4477C94.7645 90.2825 95.0739 90.2616 95.2391 90.4058C95.4043 90.5501 95.4252 90.8595 95.281 91.0247C95.2043 91.0858 95.1276 91.147 95.0418 91.1652C94.9131 91.1925 94.7753 91.177 94.6621 91.0665ZM38.144 102.362C37.945 102.27 37.8383 101.979 37.9305 101.78C38.0228 101.581 38.314 101.474 38.5129 101.567C38.721 101.702 38.8186 101.95 38.7264 102.149C38.6588 102.253 38.5484 102.366 38.4197 102.393C38.3339 102.412 38.248 102.43 38.144 102.362ZM96.1046 89.4148C95.9394 89.2705 95.8756 88.9702 96.0198 88.805C96.155 88.5969 96.4644 88.576 96.6296 88.7202C96.8376 88.8554 96.8586 89.1648 96.7143 89.33C96.6468 89.434 96.5609 89.4523 96.4752 89.4705C96.3465 89.4979 96.2086 89.4823 96.1046 89.4148ZM36.1362 101.354C35.9281 101.219 35.8305 100.971 35.9656 100.763C36.1007 100.555 36.349 100.457 36.5571 100.592C36.7652 100.727 36.8628 100.976 36.7277 101.184C36.6601 101.288 36.5405 101.358 36.4118 101.385C36.3689 101.395 36.2311 101.379 36.1362 101.354ZM97.4768 87.6434C97.2687 87.5082 97.2569 87.2417 97.392 87.0336C97.5272 86.8255 97.7937 86.8137 98.0018 86.9489C98.2099 87.084 98.2308 87.3934 98.0865 87.5586C98.019 87.6626 97.9423 87.7238 97.8136 87.7511C97.7278 87.7694 97.5809 87.7109 97.4768 87.6434ZM34.2296 100.19C34.0216 100.055 33.9669 99.7976 34.102 99.5896C34.2371 99.3815 34.4945 99.3268 34.7026 99.4619C34.9107 99.597 34.9654 99.8544 34.8303 100.063C34.7627 100.167 34.6431 100.237 34.5573 100.255C34.4286 100.282 34.3337 100.258 34.2296 100.19ZM98.7541 85.8473C98.546 85.7122 98.4913 85.4548 98.6264 85.2467C98.7616 85.0386 99.019 84.9839 99.2271 85.119C99.4351 85.2542 99.4899 85.5116 99.3547 85.7197C99.2872 85.8237 99.1676 85.894 99.0818 85.9122C98.996 85.9304 98.8581 85.9149 98.7541 85.8473ZM32.314 98.9831C32.1059 98.848 32.0512 98.5906 32.1864 98.3825C32.3215 98.1744 32.5789 98.1197 32.787 98.2549C32.9951 98.39 33.0498 98.6474 32.9146 98.8555C32.8471 98.9595 32.7704 99.0206 32.6417 99.048C32.5559 99.0662 32.4181 99.0507 32.314 98.9831ZM99.9703 83.9746C99.7622 83.8395 99.7075 83.5821 99.8426 83.374C99.9777 83.1659 100.235 83.1112 100.434 83.2034C100.642 83.3385 100.697 83.596 100.562 83.804C100.494 83.9081 100.375 83.9783 100.289 83.9966C100.169 84.0668 100.074 84.0422 99.9703 83.9746ZM30.518 97.7058C30.3099 97.5707 30.289 97.2613 30.4332 97.0961C30.5683 96.888 30.8778 96.8671 31.043 97.0113C31.251 97.1465 31.272 97.4559 31.1277 97.6211C31.0602 97.7251 30.9743 97.7433 30.8456 97.7707C30.7598 97.7889 30.622 97.7734 30.518 97.7058ZM101.039 82.0434C100.831 81.9083 100.734 81.66 100.869 81.4519C101.004 81.2439 101.252 81.1462 101.46 81.2814C101.659 81.3736 101.766 81.6648 101.631 81.8729C101.563 81.9769 101.453 82.0901 101.324 82.1174C101.281 82.1265 101.144 82.111 101.039 82.0434ZM28.7466 96.3336C28.5814 96.1894 28.5176 95.8891 28.7047 95.7148C28.8399 95.5067 29.1493 95.4857 29.3236 95.6729C29.4888 95.8171 29.5526 96.1174 29.3655 96.2918C29.2888 96.3529 29.2121 96.414 29.1263 96.4323C28.9885 96.4167 28.8506 96.4012 28.7466 96.3336ZM102.057 80.0785C101.815 79.9954 101.751 79.6951 101.843 79.4961C101.978 79.288 102.227 79.1904 102.426 79.2826C102.667 79.3657 102.731 79.666 102.639 79.865C102.581 80.012 102.461 80.0822 102.332 80.1096C102.247 80.1278 102.161 80.146 102.057 80.0785ZM27.0857 94.8482C26.9114 94.6611 26.8996 94.3946 27.0438 94.2294C27.1881 94.0642 27.4975 94.0433 27.6627 94.1875C27.837 94.3747 27.8488 94.6412 27.7045 94.8064C27.6279 94.8675 27.5512 94.9286 27.4654 94.9469C27.3367 94.9742 27.1988 94.9587 27.0857 94.8482ZM103.022 78.0797C102.78 77.9966 102.673 77.7054 102.808 77.4974C102.892 77.2555 103.183 77.1488 103.391 77.2839C103.633 77.367 103.739 77.6582 103.647 77.8572C103.589 78.0041 103.469 78.0744 103.34 78.1017C103.16 78.0953 103.074 78.1135 103.022 78.0797ZM25.4586 93.3108C25.2843 93.1237 25.2724 92.8571 25.4596 92.6829C25.6467 92.5085 25.9133 92.4967 26.0876 92.6839C26.2619 92.871 26.2737 93.1376 26.0865 93.3119C26.0098 93.373 25.9332 93.4341 25.8903 93.4433C25.7187 93.4797 25.5717 93.4213 25.4586 93.3108ZM103.84 76.0226C103.598 75.9394 103.501 75.6912 103.584 75.4493C103.667 75.2074 103.915 75.1098 104.157 75.1929C104.399 75.276 104.496 75.5243 104.413 75.7662C104.355 75.9131 104.244 76.0263 104.073 76.0628C103.978 76.0381 103.935 76.0472 103.84 76.0226ZM23.9081 91.7123C23.7338 91.5251 23.7649 91.2495 23.9521 91.0752C24.1392 90.9009 24.4148 90.932 24.5891 91.1191C24.7634 91.3063 24.7324 91.5819 24.5452 91.7562C24.4685 91.8174 24.4256 91.8265 24.3398 91.8447C24.1682 91.8812 24.0213 91.8228 23.9081 91.7123ZM104.563 73.9407C104.322 73.8576 104.181 73.6184 104.264 73.3766C104.347 73.1347 104.586 72.9942 104.828 73.0773C105.07 73.1604 105.211 73.3996 105.128 73.6414C105.069 73.7884 104.959 73.9015 104.787 73.938C104.701 73.9563 104.649 73.9225 104.563 73.9407ZM22.4252 90.0097C22.2509 89.8226 22.282 89.5469 22.4692 89.3726C22.6563 89.1983 22.932 89.2294 23.1063 89.4166C23.2806 89.6037 23.2495 89.8793 23.0623 90.0536C23.0285 90.1057 22.9427 90.1239 22.8569 90.1421C22.6944 90.2215 22.5475 90.1631 22.4252 90.0097ZM105.183 71.7913C104.941 71.7082 104.8 71.469 104.883 71.2272C104.924 70.9944 105.206 70.8448 105.438 70.885C105.671 70.9252 105.821 71.2073 105.781 71.44C105.731 71.6299 105.612 71.7001 105.44 71.7366C105.321 71.8069 105.278 71.816 105.183 71.7913ZM21.0282 88.2889C20.8968 88.0926 20.9278 87.817 21.1241 87.6856C21.3204 87.5542 21.596 87.5853 21.7274 87.7815C21.8588 87.9778 21.8277 88.2535 21.6406 88.4277C21.6068 88.4798 21.521 88.498 21.4781 88.5071C21.3403 88.4916 21.1413 88.3993 21.0282 88.2889ZM105.716 69.6601C105.483 69.6199 105.343 69.3808 105.383 69.148C105.423 68.9153 105.663 68.7748 105.895 68.815C106.128 68.8552 106.269 69.0943 106.228 69.3271C106.179 69.5169 106.069 69.6301 105.897 69.6666C105.845 69.6328 105.802 69.6419 105.716 69.6601ZM19.7415 86.4549C19.6101 86.2586 19.6412 85.983 19.8375 85.8516C20.0338 85.7202 20.3094 85.7513 20.4408 85.9476C20.5722 86.1438 20.5411 86.4195 20.3019 86.56C20.259 86.5691 20.1824 86.6302 20.1395 86.6394C20.0199 86.7096 19.8209 86.6174 19.7415 86.4549ZM106.189 67.4523C105.956 67.4121 105.772 67.182 105.813 66.9493C105.853 66.7165 106.083 66.5331 106.316 66.5733C106.548 66.6135 106.732 66.8436 106.692 67.0763C106.642 67.2662 106.532 67.3793 106.317 67.4249C106.283 67.4769 106.241 67.4861 106.189 67.4523ZM18.4978 84.6118C18.3664 84.4155 18.4404 84.1308 18.6367 83.9994C18.833 83.868 19.1177 83.942 19.2491 84.1382C19.3805 84.3345 19.3065 84.6193 19.1103 84.7507C19.0674 84.7598 19.0336 84.8118 18.9907 84.8209C18.8099 84.8145 18.6201 84.7652 18.4978 84.6118ZM106.489 65.2809C106.257 65.2407 106.073 65.0106 106.113 64.7779C106.154 64.5452 106.384 64.3617 106.616 64.402C106.849 64.4422 107.032 64.6722 106.992 64.905C106.943 65.0948 106.842 65.2509 106.627 65.2964C106.575 65.2627 106.532 65.2718 106.489 65.2809ZM17.3646 82.6556C17.2332 82.4593 17.3072 82.1745 17.5463 82.034C17.7426 81.9026 18.0274 81.9766 18.1679 82.2158C18.2993 82.412 18.2253 82.6968 17.9861 82.8373C17.9432 82.8464 17.9003 82.8556 17.8574 82.8647C17.652 82.9532 17.4531 82.8609 17.3646 82.6556ZM106.738 63.0757C106.514 63.0784 106.331 62.8484 106.328 62.6248C106.326 62.4011 106.556 62.2177 106.779 62.215C107.003 62.2123 107.186 62.4424 107.189 62.666C107.183 62.8467 107.038 63.0119 106.824 63.0575C106.824 63.0575 106.781 63.0666 106.738 63.0757ZM16.3171 80.6811C16.2286 80.4757 16.3026 80.1909 16.508 80.1024C16.7134 80.0139 16.9982 80.0879 17.0867 80.2933C17.1752 80.4987 17.1012 80.7834 16.8958 80.8719C16.8529 80.8811 16.81 80.8902 16.81 80.8902C16.6046 80.9787 16.4056 80.8864 16.3171 80.6811ZM106.849 60.855C106.625 60.8577 106.399 60.6368 106.396 60.4132C106.394 60.1896 106.614 59.9632 106.838 59.9605C107.062 59.9578 107.288 60.1788 107.291 60.4024C107.293 60.626 107.149 60.7912 106.935 60.8368C106.935 60.8368 106.892 60.8459 106.849 60.855ZM15.3984 78.6792C15.3008 78.4309 15.3839 78.1891 15.6322 78.0914C15.8805 77.9938 16.1223 78.0769 16.2199 78.3252C16.3084 78.5306 16.2344 78.8154 15.9862 78.913C15.9433 78.9221 15.9433 78.9221 15.9004 78.9312C15.6858 78.9768 15.4778 78.8417 15.3984 78.6792ZM106.874 58.6526C106.65 58.6553 106.433 58.4772 106.421 58.2107C106.409 57.9442 106.597 57.7699 106.863 57.7581C107.087 57.7554 107.304 57.9334 107.316 58.1999C107.318 58.4236 107.174 58.5887 106.96 58.6343C106.917 58.6435 106.917 58.6435 106.874 58.6526ZM14.5134 76.6253C14.4158 76.377 14.5418 76.1261 14.7472 76.0376C14.9526 75.9491 15.2465 76.066 15.2921 76.2805C15.3806 76.4859 15.2637 76.7797 15.0492 76.8253C15.0063 76.8345 15.0063 76.8345 14.9634 76.8436C14.8438 76.9138 14.5928 76.7878 14.5134 76.6253ZM106.804 56.4254C106.58 56.4281 106.363 56.2501 106.318 56.0356C106.306 55.7691 106.493 55.5948 106.708 55.5492C106.931 55.5465 107.148 55.7245 107.194 55.939C107.197 56.1626 107.062 56.3707 106.847 56.4163C106.804 56.4254 106.804 56.4254 106.804 56.4254ZM13.791 74.4921C13.6933 74.2438 13.8194 73.9928 14.0768 73.9381C14.325 73.8405 14.576 73.9665 14.6307 74.2239C14.7192 74.4293 14.5932 74.6803 14.3449 74.7779L14.302 74.787C14.0875 74.8326 13.8366 74.7066 13.791 74.4921ZM106.606 54.2257C106.348 54.2804 106.131 54.1023 106.119 53.8358C106.074 53.6213 106.242 53.3612 106.509 53.3494C106.723 53.3038 106.984 53.4727 106.995 53.7392C106.998 53.9629 106.863 54.171 106.606 54.2257ZM13.1114 72.3497C13.0567 72.0923 13.1918 71.8842 13.3972 71.7957C13.6546 71.741 13.8627 71.8762 13.9512 72.0815C14.0059 72.3389 13.8708 72.547 13.6654 72.6355C13.6654 72.6355 13.6654 72.6355 13.6225 72.6446C13.4171 72.7331 13.1661 72.6071 13.1114 72.3497ZM106.312 52.0012C106.055 52.0559 105.837 51.8779 105.783 51.6205C105.728 51.3631 105.906 51.1459 106.163 51.0912C106.378 51.0456 106.638 51.2145 106.684 51.429C106.705 51.7384 106.57 51.9465 106.312 52.0012ZM12.5605 70.18C12.5058 69.9226 12.6409 69.7145 12.8983 69.6598C13.1128 69.6142 13.3638 69.7402 13.4185 69.9976C13.4733 70.255 13.3381 70.4631 13.0807 70.5178C12.8662 70.5634 12.6152 70.4374 12.5605 70.18ZM105.379 49.5092C105.324 49.2518 105.502 49.0346 105.717 48.989C105.931 48.9434 106.191 49.1123 106.237 49.3268C106.292 49.5843 106.114 49.8015 105.899 49.847C105.685 49.8926 105.424 49.7237 105.379 49.5092ZM12.6248 68.3728C12.3674 68.4275 12.1502 68.2494 12.1046 68.0349C12.0499 67.7775 12.2279 67.5603 12.4424 67.5147C12.6998 67.46 12.917 67.6381 12.9626 67.8526C13.0082 68.0671 12.8822 68.318 12.6248 68.3728ZM104.944 47.6736C104.889 47.4162 105.024 47.2081 105.273 47.1105C105.53 47.0558 105.738 47.1909 105.836 47.4392C105.89 47.6966 105.755 47.9047 105.498 47.9594C105.25 48.057 105.041 47.9219 104.944 47.6736ZM12.2455 66.1666C11.9881 66.2213 11.7709 66.0432 11.7591 65.7767C11.7044 65.5193 11.8824 65.3021 12.1489 65.2903C12.3634 65.2447 12.6235 65.4136 12.6354 65.6801C12.638 65.9038 12.5029 66.1118 12.2455 66.1666ZM104.359 45.5559C104.304 45.2985 104.44 45.0904 104.645 45.0019C104.902 44.9472 105.11 45.0823 105.199 45.2877C105.245 45.5022 105.119 45.7532 104.913 45.8417L104.87 45.8508C104.656 45.8964 104.448 45.7613 104.359 45.5559ZM11.9612 63.985C11.6946 63.9968 11.4774 63.8188 11.4747 63.5952C11.4721 63.3716 11.6501 63.1544 11.8646 63.1088C12.1311 63.097 12.3483 63.275 12.351 63.4986C12.3537 63.7222 12.2186 63.9303 12.0041 63.9759C12.0041 63.9759 12.0041 63.9759 11.9612 63.985ZM103.689 43.4564C103.591 43.2081 103.717 42.9571 103.975 42.9024C104.18 42.8139 104.474 42.9308 104.529 43.1882C104.626 43.4365 104.5 43.6875 104.243 43.7422L104.2 43.7513C103.985 43.7969 103.777 43.6618 103.689 43.4564ZM11.8055 61.7761C11.5819 61.7788 11.3647 61.6008 11.3529 61.3343C11.3502 61.1106 11.5282 60.8934 11.7948 60.8816C12.0184 60.8789 12.2356 61.057 12.2474 61.3235C12.2501 61.5471 12.1058 61.7123 11.8913 61.7579C11.8484 61.767 11.8484 61.767 11.8055 61.7761ZM102.899 41.4272C102.801 41.1789 102.927 40.9279 103.132 40.8394C103.338 40.751 103.632 40.8678 103.72 41.0732C103.818 41.3215 103.692 41.5725 103.486 41.661C103.444 41.6701 103.444 41.6701 103.401 41.6792C103.186 41.7248 102.987 41.6326 102.899 41.4272ZM11.7357 59.549C11.5121 59.5517 11.2858 59.3308 11.2831 59.1071C11.2804 58.8835 11.4584 58.6663 11.7249 58.6545C11.9914 58.6427 12.1749 58.8727 12.1776 59.0964C12.1803 59.32 12.036 59.4852 11.8215 59.5308C11.7786 59.5399 11.7786 59.5399 11.7357 59.549ZM102.023 39.4162C101.934 39.2109 102.008 38.9261 102.257 38.8285C102.462 38.74 102.747 38.814 102.844 39.0623C102.933 39.2676 102.859 39.5524 102.611 39.65C102.568 39.6591 102.568 39.6591 102.525 39.6683C102.31 39.7139 102.111 39.6216 102.023 39.4162ZM11.7608 57.3465C11.5372 57.3492 11.3108 57.1283 11.351 56.8956C11.3484 56.6719 11.5693 56.4456 11.802 56.4858C12.0257 56.4831 12.252 56.7041 12.2118 56.9368C12.2053 57.1175 12.0702 57.3256 11.8557 57.3712C11.8466 57.3283 11.8037 57.3374 11.7608 57.3465ZM101.061 37.4235C100.93 37.2272 101.047 36.9334 101.252 36.8449C101.448 36.7135 101.742 36.8304 101.831 37.0357C101.962 37.232 101.845 37.5259 101.64 37.6144C101.597 37.6235 101.554 37.6326 101.511 37.6417C101.349 37.7211 101.15 37.6289 101.061 37.4235ZM11.9146 55.1167C11.6818 55.0765 11.5075 54.8894 11.4957 54.6228C11.5359 54.3901 11.7231 54.2158 11.9896 54.204C12.2223 54.2442 12.3966 54.4313 12.4085 54.6979C12.402 54.8786 12.2578 55.0438 12.0433 55.0893C12.0095 55.1414 11.9575 55.1076 11.9146 55.1167ZM99.9891 35.5439C99.8577 35.3477 99.9317 35.0629 100.128 34.9315C100.324 34.8001 100.609 34.8741 100.74 35.0704C100.872 35.2666 100.798 35.5514 100.602 35.6828C100.559 35.6919 100.525 35.7439 100.482 35.7531C100.301 35.7466 100.111 35.6973 99.9891 35.5439ZM12.1633 52.9115C11.9305 52.8713 11.7471 52.6413 11.7873 52.4085C11.8275 52.1758 12.0576 51.9924 12.2903 52.0326C12.5231 52.0728 12.7065 52.3029 12.6663 52.5356C12.6599 52.7163 12.5156 52.8815 12.344 52.918C12.2582 52.9362 12.2062 52.9024 12.1633 52.9115ZM98.865 33.6306C98.7336 33.4343 98.8076 33.1495 99.0038 33.0182C99.2001 32.8868 99.4849 32.9607 99.6163 33.157C99.7477 33.3533 99.6737 33.638 99.4774 33.7694C99.4345 33.7786 99.4007 33.8306 99.3149 33.8488C99.1433 33.8853 98.9443 33.7931 98.865 33.6306ZM12.5069 50.731C12.2742 50.6908 12.0908 50.4608 12.1739 50.2189C12.2141 49.9862 12.4441 49.8028 12.686 49.8859C12.9187 49.9261 13.1021 50.1561 13.019 50.398C12.9697 50.5878 12.8592 50.701 12.6876 50.7375C12.6447 50.7466 12.5498 50.7219 12.5069 50.731ZM97.6304 31.8304C97.499 31.6341 97.5301 31.3585 97.7263 31.2271C97.9226 31.0957 98.1983 31.1268 98.3297 31.323C98.4611 31.5193 98.43 31.795 98.2337 31.9263C98.1908 31.9355 98.1141 31.9966 98.0712 32.0057C97.8996 32.0422 97.7098 31.9929 97.6304 31.8304ZM12.9363 48.5323C12.7036 48.4921 12.5631 48.2529 12.5942 47.9773C12.6344 47.7445 12.8736 47.604 13.1063 47.6442C13.339 47.6844 13.4796 47.9236 13.4485 48.1993C13.3991 48.3891 13.2887 48.5023 13.1171 48.5387C13.0742 48.5479 13.0313 48.557 12.9363 48.5323ZM96.2762 30.1005C96.1448 29.9042 96.1759 29.6285 96.3722 29.4971C96.5684 29.3657 96.835 29.3539 97.0093 29.5411C97.1407 29.7373 97.1096 30.013 96.9224 30.1873C96.8886 30.2393 96.8028 30.2575 96.717 30.2758C96.5883 30.3031 96.3985 30.2538 96.2762 30.1005ZM13.5127 46.392C13.2709 46.3089 13.1303 46.0697 13.2135 45.8279C13.2966 45.586 13.5357 45.4455 13.7776 45.5286C14.0195 45.6117 14.16 45.8509 14.0769 46.0928C14.0184 46.2397 13.908 46.3529 13.7363 46.3893C13.6505 46.4076 13.6076 46.4167 13.5127 46.392ZM94.8882 28.4225C94.7139 28.2354 94.745 27.9597 94.9322 27.7854C95.1193 27.6111 95.395 27.6422 95.5693 27.8294C95.7436 28.0165 95.7125 28.2922 95.5253 28.4665C95.4486 28.5276 95.4058 28.5367 95.3199 28.555C95.1912 28.5823 95.0014 28.533 94.8882 28.4225ZM14.184 44.2764C13.9422 44.1933 13.8445 43.945 13.9277 43.7031C14.0108 43.4613 14.259 43.3637 14.5009 43.4468C14.7428 43.5299 14.8404 43.7782 14.7573 44.02C14.6988 44.167 14.5884 44.2801 14.4168 44.3166C14.3218 44.2919 14.236 44.3102 14.184 44.2764ZM93.4236 26.8058C93.2493 26.6186 93.2375 26.3521 93.4246 26.1778C93.6118 26.0035 93.8874 26.0346 94.0526 26.1788C94.2269 26.366 94.2387 26.6325 94.0516 26.8068C93.9749 26.8679 93.932 26.8771 93.8462 26.8953C93.6746 26.9318 93.5368 26.9162 93.4236 26.8058ZM14.9073 42.1946C14.6655 42.1114 14.5679 41.8632 14.651 41.6213C14.7341 41.3794 14.9824 41.2818 15.2242 41.3649C15.4661 41.448 15.5637 41.6963 15.4806 41.9382C15.4222 42.0851 15.3117 42.1983 15.183 42.2256C15.0972 42.2439 15.0023 42.2192 14.9073 42.1946ZM91.8823 25.2501C91.708 25.063 91.6962 24.7964 91.8833 24.6221C92.0705 24.4478 92.337 24.436 92.5113 24.6232C92.6856 24.8103 92.6974 25.0769 92.5102 25.2512C92.4336 25.3123 92.3569 25.3734 92.2711 25.3917C92.1333 25.3761 91.9863 25.3177 91.8823 25.2501ZM15.7685 40.1283C15.5266 40.0451 15.4199 39.754 15.555 39.5459C15.6381 39.304 15.9293 39.1973 16.1374 39.3324C16.3793 39.4155 16.4431 39.7158 16.3509 39.9148C16.2924 40.0617 16.1728 40.132 16.0441 40.1593C15.9583 40.1776 15.8725 40.1958 15.7685 40.1283ZM90.2643 23.7556C90.0991 23.6114 90.0781 23.3019 90.2224 23.1368C90.4095 22.9625 90.6761 22.9506 90.8412 23.0949C91.0064 23.2391 91.0274 23.5486 90.8831 23.7137C90.8064 23.7749 90.7297 23.836 90.6439 23.8543C90.5152 23.8816 90.3774 23.8661 90.2643 23.7556ZM16.6908 38.1386C16.4827 38.0035 16.3851 37.7552 16.4773 37.5563C16.6124 37.3482 16.8607 37.2506 17.0688 37.3857C17.2677 37.4779 17.3745 37.7691 17.2823 37.9681C17.2147 38.0721 17.1042 38.1853 16.9755 38.2126C16.8806 38.188 16.7857 38.1633 16.6908 38.1386ZM88.5787 22.3652C88.4135 22.2209 88.3497 21.9206 88.4939 21.7554C88.629 21.5473 88.9385 21.5264 89.1037 21.6707C89.3117 21.8058 89.3327 22.1152 89.1884 22.2804C89.1209 22.3844 89.0351 22.4027 88.9063 22.43C88.8205 22.4483 88.6827 22.4327 88.5787 22.3652ZM17.7509 36.1646C17.5428 36.0294 17.4452 35.7811 17.5803 35.5731C17.7154 35.365 17.9637 35.2674 18.1718 35.4025C18.3799 35.5376 18.4346 35.795 18.3424 35.994C18.2748 36.098 18.1552 36.1683 18.0265 36.1957C17.9498 36.2568 17.8549 36.2321 17.7509 36.1646ZM86.8164 21.0358C86.6083 20.9007 86.5874 20.5913 86.7317 20.4261C86.8668 20.218 87.1242 20.1633 87.3414 20.3413C87.5495 20.4765 87.5704 20.7859 87.4262 20.9511C87.3586 21.0551 87.2819 21.1162 87.1532 21.1436C87.0583 21.1189 86.9205 21.1034 86.8164 21.0358ZM18.8721 34.2672C18.664 34.132 18.6093 33.8746 18.7444 33.6666C18.8796 33.4585 19.137 33.4038 19.345 33.5389C19.5531 33.674 19.6078 33.9314 19.4727 34.1395C19.4052 34.2436 19.2856 34.3138 19.1998 34.332C19.0711 34.3594 18.9761 34.3347 18.8721 34.2672ZM84.9866 19.8105C84.7785 19.6754 84.7238 19.418 84.8589 19.2099C84.9941 19.0019 85.2515 18.9471 85.4595 19.0823C85.6676 19.2174 85.7223 19.4748 85.5872 19.6829C85.5196 19.7869 85.4001 19.8572 85.3143 19.8754C85.2285 19.8937 85.0906 19.8781 84.9866 19.8105ZM20.0883 32.3945C19.8802 32.2593 19.8255 32.0019 19.9606 31.7938C20.0957 31.5858 20.3531 31.531 20.5612 31.6662C20.7693 31.8013 20.824 32.0587 20.646 32.2759C20.5784 32.3799 20.5017 32.4411 20.373 32.4684C20.2872 32.4867 20.1923 32.462 20.0883 32.3945ZM83.123 18.6373C82.9149 18.5022 82.8602 18.2448 82.9524 18.0458C83.0876 17.8377 83.345 17.783 83.5439 17.8752C83.752 18.0104 83.8067 18.2678 83.7145 18.4667C83.6469 18.5708 83.5273 18.641 83.3986 18.6684C83.3649 18.7204 83.227 18.7049 83.123 18.6373ZM21.3656 30.5984C21.1575 30.4633 21.1365 30.1539 21.2808 29.9887C21.4159 29.7806 21.7254 29.7597 21.8905 29.9039C22.0986 30.039 22.1195 30.3485 21.9753 30.5136C21.9077 30.6177 21.8219 30.6359 21.6932 30.6633C21.6165 30.7244 21.4787 30.7089 21.3656 30.5984ZM81.1918 17.5681C80.9837 17.4329 80.8861 17.1847 81.0213 16.9766C81.1564 16.7685 81.4047 16.6709 81.6128 16.806C81.8208 16.9411 81.9184 17.1894 81.7833 17.3975C81.7158 17.5015 81.6053 17.6147 81.4766 17.6421C81.4337 17.6512 81.2959 17.6356 81.1918 17.5681ZM22.7469 28.8699C22.5817 28.7257 22.5179 28.4254 22.705 28.2511C22.8493 28.0859 23.1496 28.0221 23.3239 28.2092C23.4891 28.3535 23.5529 28.6538 23.3658 28.8281C23.2891 28.8892 23.2124 28.9503 23.1266 28.9686C22.9979 28.9959 22.8601 28.9804 22.7469 28.8699ZM79.236 16.5938C78.9941 16.5107 78.9303 16.2104 79.0225 16.0114C79.1056 15.7695 79.4059 15.7057 79.6049 15.7979C79.8468 15.881 79.9106 16.1813 79.8184 16.3803C79.7599 16.5272 79.6403 16.5975 79.5116 16.6249C79.4258 16.6431 79.3309 16.6184 79.236 16.5938ZM24.1894 27.2181C24.0151 27.031 24.0033 26.7645 24.1475 26.5993C24.3347 26.425 24.6012 26.4132 24.7664 26.5574C24.9407 26.7446 24.9525 27.0111 24.8082 27.1763C24.7316 27.2374 24.6549 27.2986 24.5691 27.3168C24.4404 27.3441 24.2934 27.2857 24.1894 27.2181ZM77.2555 15.7144C77.0136 15.6313 76.9069 15.3401 76.9991 15.1411C77.0822 14.8993 77.3305 14.8017 77.5724 14.8848C77.8142 14.9679 77.9119 15.2162 77.8287 15.458C77.7703 15.605 77.6598 15.7181 77.5311 15.7455C77.4024 15.7728 77.3075 15.7482 77.2555 15.7144ZM25.7268 25.591C25.5525 25.4039 25.5407 25.1373 25.7278 24.963C25.915 24.7887 26.1815 24.7769 26.3558 24.9641C26.5301 25.1512 26.5419 25.4177 26.3548 25.592C26.2781 25.6532 26.2014 25.7143 26.1585 25.7234C25.9869 25.7599 25.8399 25.7015 25.7268 25.591ZM75.1983 14.8962C74.9564 14.813 74.8588 14.5648 74.9419 14.3229C75.0251 14.081 75.2733 13.9834 75.5152 14.0665C75.7571 14.1496 75.8547 14.3979 75.7716 14.6398C75.7131 14.7867 75.6027 14.8999 75.4311 14.9364C75.3452 14.9546 75.2595 14.9728 75.1983 14.8962ZM27.3344 24.0835C27.1601 23.8963 27.1912 23.6207 27.3784 23.4464C27.5655 23.2721 27.8412 23.3032 28.0155 23.4903C28.1898 23.6775 28.1587 23.9531 27.9715 24.1274C27.8949 24.1885 27.852 24.1977 27.7661 24.2159C27.5945 24.2524 27.4476 24.1939 27.3344 24.0835ZM73.0827 14.2249C72.8408 14.1417 72.7003 13.9026 72.7834 13.6607C72.8665 13.4189 73.1057 13.2783 73.3475 13.3614C73.5894 13.4446 73.7299 13.6837 73.6468 13.9256C73.5884 14.0725 73.4779 14.1857 73.3063 14.2222C73.2634 14.2313 73.1776 14.2495 73.0827 14.2249ZM28.9941 22.6097C28.8627 22.4134 28.8938 22.1378 29.0381 21.9726C29.2343 21.8412 29.5009 21.8294 29.6752 22.0165C29.8495 22.2037 29.8184 22.4793 29.6312 22.6536C29.5545 22.7148 29.5116 22.7239 29.4258 22.7421C29.2633 22.8215 29.1164 22.7631 28.9941 22.6097ZM70.9853 13.6394C70.7525 13.5992 70.6029 13.3171 70.6431 13.0843C70.6833 12.8516 70.9654 12.702 71.1981 12.7422C71.4309 12.7824 71.5805 13.0644 71.5403 13.2972C71.491 13.487 71.3805 13.6002 71.2089 13.6367C71.1231 13.6549 71.0373 13.6731 70.9853 13.6394ZM30.7241 21.2555C30.5927 21.0593 30.6238 20.7836 30.82 20.6522C31.0163 20.5208 31.2919 20.5519 31.4233 20.7482C31.5547 20.9444 31.5236 21.2201 31.3274 21.3515C31.2936 21.4035 31.2078 21.4217 31.1649 21.4309C31.0362 21.4582 30.8463 21.4089 30.7241 21.2555ZM68.8632 13.1488C68.6305 13.1086 68.4471 12.8785 68.5302 12.6367C68.5704 12.4039 68.8096 12.2634 69.0423 12.3036C69.2751 12.3438 69.4156 12.583 69.3754 12.8157C69.326 13.0056 69.2156 13.1187 69.044 13.1552C68.949 13.1306 68.9061 13.1397 68.8632 13.1488ZM32.5151 19.978C32.3837 19.7818 32.4577 19.497 32.654 19.3656C32.8503 19.2342 33.1259 19.2653 33.2664 19.5045C33.3978 19.7007 33.3667 19.9764 33.1276 20.1169C33.0847 20.126 33.0509 20.178 32.9651 20.1963C32.8273 20.1807 32.6374 20.1314 32.5151 19.978ZM66.6645 12.7194C66.4318 12.6791 66.2483 12.4491 66.2886 12.2164C66.3288 11.9836 66.5588 11.8002 66.7916 11.8404C67.0243 11.8806 67.2077 12.1107 67.1675 12.3434C67.1182 12.5332 67.0168 12.6893 66.8023 12.7349C66.8023 12.7349 66.7165 12.7531 66.6645 12.7194ZM34.4103 18.7681C34.2789 18.5718 34.3528 18.2871 34.5491 18.1557C34.7454 18.0243 35.0302 18.0983 35.1615 18.2945C35.2929 18.4908 35.219 18.7756 35.0227 18.907C34.9798 18.9161 34.946 18.9681 34.9031 18.9772C34.6886 19.0228 34.4896 18.9306 34.4103 18.7681ZM64.5022 12.4615C64.2695 12.4213 64.0952 12.2342 64.1263 11.9585C64.1665 11.7258 64.3966 11.5424 64.6293 11.5826C64.862 11.6228 65.0363 11.8099 65.0052 12.0856C64.9988 12.2663 64.8546 12.4315 64.6401 12.4771C64.588 12.4433 64.5452 12.4524 64.5022 12.4615ZM36.3236 17.644C36.1922 17.4477 36.2662 17.1629 36.5054 17.0224C36.7016 16.891 36.9864 16.965 37.084 17.2133C37.2154 17.4096 37.1414 17.6943 36.9023 17.8348C36.8594 17.844 36.8165 17.8531 36.7736 17.8622C36.6019 17.8987 36.403 17.8065 36.3236 17.644ZM62.3062 12.2557C62.0735 12.2155 61.8992 12.0284 61.8965 11.8047C61.9367 11.572 62.1147 11.3548 62.3475 11.395C62.5711 11.3923 62.7545 11.6224 62.7572 11.846C62.7508 12.0267 62.6065 12.1919 62.392 12.2375C62.392 12.2375 62.3491 12.2466 62.3062 12.2557ZM38.2552 16.6056C38.1667 16.4003 38.2407 16.1155 38.4461 16.027C38.6515 15.9385 38.9362 16.0125 39.0247 16.2179C39.1132 16.4233 39.0392 16.708 38.8339 16.7965C38.791 16.8056 38.748 16.8148 38.748 16.8148C38.5427 16.9033 38.3437 16.811 38.2552 16.6056ZM60.1375 12.1786C59.871 12.1904 59.6876 11.9604 59.6849 11.7367C59.6822 11.5131 59.9031 11.2868 60.1267 11.2841C60.3504 11.2814 60.5767 11.5023 60.5794 11.726C60.5821 11.9496 60.4378 12.1148 60.2233 12.1604C60.1804 12.1695 60.1375 12.1786 60.1375 12.1786ZM40.3 15.6778C40.2023 15.4295 40.2855 15.1876 40.5337 15.09C40.7391 15.0015 41.0239 15.0755 41.1215 15.3238C41.21 15.5292 41.136 15.8139 40.8877 15.9116C40.8448 15.9207 40.8448 15.9207 40.8019 15.9298C40.5874 15.9754 40.3456 15.8923 40.3 15.6778ZM57.9442 12.1964C57.6776 12.2082 57.5033 12.0211 57.4915 11.7546C57.4888 11.5309 57.6669 11.3137 57.9334 11.3019C58.157 11.2992 58.3742 11.4773 58.386 11.7438C58.3887 11.9674 58.2445 12.1326 58.03 12.1782C57.9871 12.1873 57.9442 12.1964 57.9442 12.1964ZM42.32 14.8448C42.2316 14.6395 42.3484 14.3456 42.6058 14.2909C42.8112 14.2024 43.1051 14.3193 43.1598 14.5767C43.2483 14.782 43.1314 15.0759 42.874 15.1306C42.8311 15.1398 42.8311 15.1398 42.8311 15.1398C42.6166 15.1854 42.4085 15.0502 42.32 14.8448ZM55.7262 12.3092C55.5025 12.3119 55.2853 12.1338 55.2397 11.9193C55.237 11.6957 55.4151 11.4785 55.6296 11.4329C55.8532 11.4302 56.0704 11.6082 56.116 11.8227C56.1187 12.0464 55.9836 12.2544 55.7691 12.3L55.7262 12.3092ZM44.4104 14.1315C44.3557 13.8741 44.4817 13.6231 44.6962 13.5775C44.9445 13.4799 45.1617 13.6579 45.2502 13.8633C45.2958 14.0778 45.1698 14.3288 44.9644 14.4173L44.9215 14.4264C44.707 14.472 44.4989 14.3369 44.4104 14.1315ZM53.5264 12.5077C53.2599 12.5195 53.0518 12.3844 53.04 12.1179C52.9944 11.9034 53.1633 11.6433 53.4298 11.6314C53.6443 11.5858 53.9044 11.7548 53.9162 12.0213C53.9618 12.2358 53.7838 12.453 53.5264 12.5077C53.5693 12.4986 53.5693 12.4986 53.5264 12.5077ZM46.5528 13.4519C46.498 13.1945 46.6332 12.9864 46.8815 12.8888C47.1389 12.8341 47.347 12.9692 47.4354 13.1746C47.4902 13.432 47.355 13.6401 47.1067 13.7377C46.8156 13.8445 46.6075 13.7093 46.5528 13.4519ZM51.354 12.8349C51.0966 12.8897 50.8794 12.7116 50.8338 12.4971C50.779 12.2397 50.9571 12.0225 51.1716 11.9769C51.429 11.9222 51.6462 12.1002 51.7009 12.3576C51.7894 12.563 51.6114 12.7802 51.354 12.8349ZM48.6796 12.9102C48.634 12.6957 48.8029 12.4356 49.0174 12.39C49.2748 12.3353 49.4829 12.4704 49.5376 12.7278C49.5923 12.9852 49.4143 13.2024 49.1998 13.248C48.9853 13.2936 48.7343 13.1676 48.6796 12.9102Z" fill="#E2001A"/>
<path d="M33.1712 80.7256L30.5114 81.291L28.6967 72.7536L25.8223 73.3646L27.637 81.9019L24.9342 82.4764L22.6089 71.5366L30.8459 69.7858L33.1712 80.7256Z" fill="#E2001A"/>
<path d="M41.8888 71.743C41.9526 72.0433 42.0867 72.4632 42.2144 73.0638C42.342 73.6645 42.4332 74.0935 42.4542 74.4029C42.518 74.7032 42.548 75.0555 42.5534 75.5028C42.6017 75.9409 42.546 76.3115 42.4382 76.6483C42.3304 76.985 42.1797 77.3309 41.9771 77.6431C41.3352 78.6315 40.4305 79.2273 39.1864 79.4918C37.9423 79.7562 36.8735 79.5798 35.8851 78.938C35.573 78.7353 35.2946 78.4806 35.0592 78.2167C34.8237 77.9529 34.6559 77.585 34.488 77.2171C34.3539 76.7972 34.2381 76.4632 34.1313 76.172C34.0675 75.8717 33.9334 75.4518 33.8057 74.8512C33.6781 74.2505 33.5869 73.8215 33.566 73.5121C33.5021 73.2118 33.4721 72.8595 33.4667 72.4122C33.4184 71.9741 33.4741 71.6035 33.5819 71.2667C33.6897 70.9299 33.8404 70.584 34.0431 70.2719C34.6849 69.2835 35.5896 68.6877 36.8337 68.4232C38.0778 68.1588 39.1466 68.3352 40.135 68.977C40.4472 69.1797 40.7255 69.4344 40.9609 69.6983C41.1964 69.9621 41.3642 70.33 41.5321 70.6978C41.7091 71.1086 41.825 71.4427 41.8888 71.743ZM39.827 75.5442C39.797 75.1919 39.7031 74.5393 39.5116 73.6383C39.3201 72.7374 39.1404 72.103 39.0246 71.7689C38.9087 71.4348 38.7253 71.2048 38.5601 71.0605C38.2389 70.8149 37.8592 70.7163 37.3873 70.8166C36.9154 70.9169 36.6086 71.1615 36.4151 71.5165C36.3228 71.7154 36.2488 72.0002 36.2789 72.3525C36.3089 72.7049 36.4028 73.3575 36.5943 74.2584C36.7858 75.1593 36.9655 75.7937 37.0813 76.1278C37.1972 76.4619 37.3806 76.692 37.5458 76.8362C37.8762 77.1247 38.2467 77.1805 38.7186 77.0802C39.1906 76.9799 39.4973 76.7353 39.6909 76.3803C39.7831 76.1813 39.8142 75.9057 39.827 75.5442Z" fill="#E2001A"/>
<path d="M53.4637 76.4123L50.7609 76.9868L49.8399 72.6537L46.9655 73.2647L47.8865 77.5977L45.1837 78.1722L42.8584 67.2324L45.5612 66.6579L46.4548 70.8622L49.3292 70.2513L48.4356 66.047L51.1383 65.4725L53.4637 76.4123Z" fill="#E2001A"/>
<path d="M64.5751 74.0508L61.7436 74.6526L60.8823 73.1318L57.536 73.8431L57.3248 75.5919L54.4933 76.1937L56.1578 64.4058L58.217 63.9681L64.5751 74.0508ZM59.7646 71.0377L58.2436 68.3119L57.8769 71.439L59.7646 71.0377Z" fill="#E2001A"/>
<path d="M76.024 73.9041L73.4499 74.4512L72.9757 72.2203L67.6989 73.342L68.1731 75.5728L65.599 76.12L64.6233 71.5295L65.6958 71.3016C65.863 70.1899 65.9171 68.9677 65.8334 67.73C65.7406 66.4494 65.4981 64.8867 65.0969 62.999L64.9966 62.5271L72.0324 61.0316L73.847 69.569L75.0912 69.3045L76.0669 73.8949L76.024 73.9041ZM71.1442 70.1435L69.8402 64.0086L68.1242 64.3733L68.188 64.6736C68.6257 66.7329 68.6929 68.7364 68.4415 70.7179L71.1442 70.1435Z" fill="#E2001A"/>
<path d="M95.0713 64.1608C95.2993 65.2333 95.1385 66.1643 94.5706 66.8679C94.0027 67.5715 93.1656 68.0633 92.136 68.2822C91.1064 68.501 90.1416 68.3922 89.3367 67.9804C88.5317 67.5686 88.0061 66.7835 87.7781 65.711C87.6869 65.282 87.6907 64.8776 87.7893 64.4979C87.888 64.1183 87.962 63.8335 88.1062 63.6683C88.2076 63.5123 88.3427 63.3042 88.5207 63.087C87.6546 62.5985 87.1226 61.9941 86.9493 61.179C86.7396 60.1923 86.9096 59.3042 87.4774 58.6006C88.0453 57.897 88.8395 57.4143 89.8262 57.2045C90.8129 56.9948 91.6919 57.1219 92.5398 57.5245C93.3876 57.9272 93.8612 58.6785 94.0709 59.6653C94.2442 60.4804 94.0131 61.2918 93.4115 62.0474C93.6624 62.1734 93.8705 62.3086 94.0266 62.4099C94.1826 62.5112 94.409 62.7322 94.6535 63.0389C94.8123 63.3639 94.9801 63.7318 95.0713 64.1608ZM92.352 65.5011C92.5209 65.241 92.5858 64.9133 92.5219 64.613C92.4581 64.3127 92.2655 64.0397 92.0054 63.8708C91.7453 63.7019 91.4177 63.637 91.1174 63.7009C90.8171 63.7647 90.5441 63.9572 90.3752 64.2173C90.2063 64.4774 90.1414 64.8051 90.2053 65.1054C90.2691 65.4057 90.4616 65.6787 90.7217 65.8476C90.9818 66.0165 91.3095 66.0814 91.6098 66.0175C91.953 65.9446 92.1831 65.7612 92.352 65.5011ZM91.3178 61.0576C91.4867 60.7975 91.5269 60.5647 91.4631 60.2644C91.3993 59.9641 91.2679 59.7678 91.0078 59.5989C90.7477 59.43 90.472 59.3989 90.2146 59.4536C89.9572 59.5084 89.718 59.6489 89.5491 59.909C89.3802 60.1691 89.3491 60.4447 89.4038 60.7021C89.4677 61.0024 89.5991 61.1987 89.8592 61.3676C90.1193 61.5365 90.3949 61.5676 90.6523 61.5129C90.9097 61.4582 91.1918 61.3086 91.3178 61.0576Z" fill="#E2001A"/>
<path d="M86.1608 65.9037C86.3959 67.0096 86.2219 67.9354 85.6388 68.6809C85.064 69.4137 84.234 69.8955 83.1489 70.1261C82.0638 70.3568 81.1044 70.2554 80.2707 69.8219C79.4453 69.3758 78.915 68.5997 78.6799 67.4938C78.589 67.066 78.5893 66.657 78.6808 66.2668C78.7806 65.8639 78.8839 65.5802 78.9907 65.4157C79.0975 65.2513 79.2416 65.0571 79.423 64.8331C78.5261 64.3586 77.9889 63.704 77.8115 62.8693C77.5963 61.8572 77.7803 60.9784 78.3634 60.2329C78.9465 59.4874 79.7388 59.0082 80.7404 58.7953C81.7421 58.5824 82.6608 58.6979 83.4967 59.1418C84.3326 59.5857 84.8581 60.3137 85.0732 61.3257C85.2506 62.1604 85.0262 62.9769 84.3998 63.7753C84.6566 63.9061 84.8672 64.0249 85.0317 64.1317C85.1962 64.2385 85.4007 64.4567 85.6452 64.7864C85.898 65.1035 86.0699 65.4759 86.1608 65.9037ZM83.4128 67.2893C83.5936 67.0109 83.6496 66.7101 83.5808 66.3866C83.5121 66.0632 83.3385 65.8111 83.0602 65.6303C82.7819 65.4496 82.481 65.3936 82.1576 65.4623C81.8341 65.5311 81.582 65.7046 81.4013 65.983C81.2205 66.2613 81.1645 66.5622 81.2333 66.8856C81.302 67.209 81.4756 67.4611 81.7539 67.6419C82.0322 67.8226 82.3331 67.8786 82.6566 67.8099C82.98 67.7411 83.2321 67.5676 83.4128 67.2893ZM82.3699 62.7673C82.5342 62.5143 82.5853 62.2417 82.5232 61.9495C82.4611 61.6574 82.3035 61.4292 82.0505 61.2649C81.7975 61.1005 81.5249 61.0494 81.2328 61.1115C80.9406 61.1736 80.7124 61.3312 80.5481 61.5842C80.3838 61.8372 80.3327 62.1098 80.3948 62.402C80.4569 62.6941 80.6144 62.9223 80.8674 63.0867C81.1205 63.251 81.393 63.3021 81.6852 63.24C81.9773 63.1779 82.2056 63.0203 82.3699 62.7673Z" fill="#E2001A"/>
<path d="M97.4475 57.1989C97.5296 57.585 97.4647 57.9127 97.2529 58.1819C97.0411 58.4511 96.7252 58.6528 96.382 58.7257C96.0388 58.7987 95.6683 58.7429 95.3653 58.5831C95.0623 58.4233 94.8697 58.1504 94.7876 57.7643L94.6053 56.9062C94.5232 56.5201 94.5881 56.1925 94.7999 55.9233C95.0117 55.654 95.3276 55.4524 95.6708 55.3794C96.014 55.3065 96.3845 55.3622 96.6875 55.522C96.9905 55.6818 97.1831 55.9548 97.2651 56.3409L97.4475 57.1989ZM96.4088 57.3748L96.2446 56.6026C96.199 56.3881 96.0859 56.2777 95.8714 56.3233C95.6569 56.3688 95.5984 56.5158 95.644 56.7303L95.8082 57.5025C95.8538 57.717 95.9669 57.8275 96.1814 57.7819C96.353 57.7454 96.4544 57.5894 96.4088 57.3748ZM99.8413 54.5378L98.154 61.5775L97.0386 61.8146L98.7259 54.7749L99.8413 54.5378ZM102.275 59.4461C102.357 59.8323 102.292 60.1599 102.08 60.4291C101.868 60.6984 101.552 60.9 101.209 60.973C100.823 61.055 100.504 61.0331 100.192 60.8304C99.8894 60.6706 99.6968 60.3976 99.6147 60.0115L99.4324 59.1535C99.3503 58.7674 99.4152 58.4397 99.627 58.1705C99.8388 57.9013 100.155 57.6996 100.498 57.6267C100.884 57.5446 101.212 57.6095 101.515 57.7693C101.818 57.9291 102.01 58.202 102.092 58.5881L102.275 59.4461ZM101.236 59.6221L101.072 58.8499C101.026 58.6354 100.913 58.5249 100.698 58.5705C100.484 58.6161 100.426 58.763 100.471 58.9775L100.635 59.7498C100.681 59.9643 100.794 60.0747 101.009 60.0291C101.18 59.9927 101.281 59.8366 101.236 59.6221Z" fill="#E2001A"/>
<path d="M68.1183 33.2613C67.9177 32.3175 67.11 31.6821 66.1544 31.6161C66.1115 31.6253 66.1023 31.5824 66.1452 31.5732C67.2607 31.3362 67.9701 30.2437 67.733 29.1283C67.4959 28.0129 66.4035 27.3034 65.2881 27.5405C64.1726 27.7776 62.5424 28.1241 61.1787 28.4588C60.3298 28.6841 58.6566 29.0398 57.4892 29.2431C56.8456 29.3799 56.2798 28.8275 56.3758 28.2242C56.5934 26.2947 56.9729 22.8062 56.9257 21.7401C56.8687 19.1516 52.8434 19.2 52.4387 21.3039C52.1106 23.3465 50.4646 29.5255 47.5131 32.3052C47.1817 32.6447 47.0155 33.1284 47.1158 33.6003L49.4985 45.0211C49.6353 45.6647 52.7575 47.0636 56.5757 46.252L65.2418 44.41L67.2581 43.9814C68.3736 43.7443 69.083 42.6519 68.8459 41.5365C68.6453 40.5927 67.8376 39.9572 66.882 39.8913C66.8391 39.9004 66.83 39.8575 66.8729 39.8484C67.9883 39.6113 68.6977 38.5189 68.4606 37.4035C68.26 36.4596 67.4524 35.8242 66.4967 35.7583C66.4538 35.7674 66.4447 35.7245 66.4876 35.7154C67.6459 35.4692 68.3554 34.3767 68.1183 33.2613Z" fill="#E2001A"/>
<path d="M43.631 32.8165L39.2979 33.7375C38.4399 33.9199 37.9423 34.7431 38.1155 35.5582L40.5594 47.0557C40.7418 47.9137 41.565 48.4113 42.3801 48.2381L46.7132 47.3171C47.5712 47.1347 48.0688 46.3115 47.8955 45.4964L45.4517 33.9988C45.2355 33.1928 44.4461 32.6432 43.631 32.8165ZM44.0692 45.6371C43.4257 45.7739 42.8015 45.3685 42.6647 44.725C42.5279 44.0814 42.9333 43.4572 43.5768 43.3204C44.2203 43.1836 44.8446 43.589 44.9814 44.2325C45.1181 44.8761 44.7128 45.5003 44.0692 45.6371Z" fill="#E2001A"/>
<path fill-rule="evenodd" clip-rule="evenodd" d="M55.1583 97.1763C55.0477 96.6558 55.3799 96.1442 55.9004 96.0336L77.3939 91.465C77.9144 91.3544 78.426 91.6866 78.5366 92.2071C78.6472 92.7275 78.315 93.2392 77.7945 93.3498L56.301 97.9184C55.7806 98.029 55.2689 97.6968 55.1583 97.1763Z" fill="#E2001A"/>
<path d="M89.779 46.7902C89.9048 47.0743 90.0381 47.5476 90.1789 48.2101C90.3197 48.8726 90.3905 49.3592 90.3911 49.6699C90.3969 49.9795 90.2991 50.2892 90.0979 50.5992C89.8021 51.0546 89.3621 51.3444 88.7778 51.4686C88.1935 51.5928 87.6736 51.507 87.2182 51.2113C86.9082 51.01 86.6904 50.7673 86.5645 50.4833C86.444 50.1981 86.3133 49.7243 86.1724 49.0617C86.0316 48.3992 85.9583 47.9131 85.9525 47.6036C85.9519 47.2929 86.0522 46.9826 86.2535 46.6727C86.5493 46.2172 86.9893 45.9274 87.5736 45.8032C88.1578 45.679 88.6777 45.7648 89.1331 46.0606C89.4431 46.2619 89.6584 46.5051 89.779 46.7902ZM89.5224 49.5847C89.5164 49.3515 89.4536 48.9532 89.3338 48.3898C89.214 47.8263 89.1095 47.4369 89.02 47.2215C88.9295 47.0008 88.8015 46.8344 88.6359 46.7224C88.368 46.5395 88.0671 46.4835 87.7332 46.5544C87.3994 46.6254 87.1473 46.7989 86.977 47.075C86.8724 47.2499 86.8236 47.4566 86.8306 47.695C86.8366 47.9282 86.8989 48.3239 87.0175 48.8821C87.1362 49.4403 87.2402 49.8271 87.3296 50.0426C87.4191 50.258 87.5471 50.4244 87.7138 50.5416C87.988 50.7287 88.2894 50.7873 88.6181 50.7174C88.9468 50.6476 89.1983 50.4714 89.3727 50.189C89.4784 50.0193 89.5283 49.8178 89.5224 49.5847Z" fill="#E2001A"/>
<path d="M85.5168 52.1129L84.6639 52.2942L84.1466 49.8606L81.893 50.3396L82.4102 52.7732L81.5651 52.9529L80.3809 47.3813L81.226 47.2017L81.7333 49.5884L83.9869 49.1094L83.4796 46.7227L84.3326 46.5414L85.5168 52.1129Z" fill="#E2001A"/>
<path d="M80.8053 53.1144L79.921 53.3024L79.2919 52.2666L77.093 52.7339L76.9396 53.9361L76.0475 54.1257L76.9057 48.1201L77.5864 47.9754L80.8053 53.1144ZM78.9119 51.5949L77.5334 49.3034L77.1826 51.9625L78.9119 51.5949Z" fill="#E2001A"/>
<path d="M75.2037 52.6689C75.3057 53.1488 75.2354 53.5618 74.9927 53.9078C74.7552 54.2527 74.3756 54.4806 73.8539 54.5915L71.6003 55.0706L70.416 49.499L72.5836 49.0383C73.0896 48.9307 73.5259 48.9825 73.8925 49.1936C74.2579 49.3994 74.4889 49.7293 74.5854 50.1831C74.7051 50.7465 74.5406 51.2041 74.0919 51.5557C74.7056 51.6979 75.0762 52.0689 75.2037 52.6689ZM73.634 51.056C73.7658 50.8808 73.8051 50.6679 73.7519 50.4175C73.6987 50.1671 73.5762 49.9887 73.3846 49.8822C73.1929 49.7757 72.9562 49.7524 72.6745 49.8123L71.4225 50.0784L71.7618 51.6748L73.0138 51.4086C73.2955 51.3488 73.5023 51.2312 73.634 51.056ZM74.2234 53.4825C74.3571 53.2905 74.3962 53.0641 74.3408 52.8032C74.2853 52.5424 74.1581 52.3541 73.959 52.2383C73.7651 52.1214 73.5273 52.0928 73.2456 52.1527L71.9231 52.4338L72.2841 54.1319L73.6065 53.8508C73.8882 53.7909 74.0939 53.6681 74.2234 53.4825Z" fill="#E2001A"/>
<path d="M69.3522 51.132C69.478 51.4161 69.6113 51.8894 69.7522 52.5519C69.893 53.2144 69.9637 53.701 69.9643 54.0117C69.9701 54.3213 69.8724 54.631 69.6711 54.941C69.3753 55.3964 68.9353 55.6862 68.351 55.8104C67.7667 55.9346 67.2469 55.8488 66.7914 55.5531C66.4815 55.3518 66.2636 55.1091 66.1378 54.8251C66.0172 54.5399 65.8865 54.066 65.7457 53.4035C65.6048 52.741 65.5315 52.2549 65.5257 51.9454C65.5251 51.6347 65.6254 51.3244 65.8267 51.0145C66.1225 50.559 66.5625 50.2692 67.1468 50.145C67.7311 50.0208 68.2509 50.1066 68.7064 50.4024C69.0163 50.6037 69.2316 50.8469 69.3522 51.132ZM69.0956 53.9265C69.0896 53.6933 69.0268 53.295 68.907 52.7315C68.7873 52.1681 68.6827 51.7787 68.5933 51.5633C68.5028 51.3426 68.3747 51.1762 68.2091 51.0642C67.9412 50.8812 67.6404 50.8252 67.3065 50.8962C66.9726 50.9672 66.7205 51.1407 66.5502 51.4168C66.4456 51.5917 66.3968 51.7984 66.4039 52.0368C66.4098 52.27 66.4721 52.6657 66.5908 53.2239C66.7094 53.7821 66.8135 54.1689 66.9029 54.3844C66.9923 54.5998 67.1203 54.7661 67.287 54.8834C67.5613 55.0705 67.8627 55.1291 68.1913 55.0592C68.52 54.9894 68.7715 54.8132 68.946 54.5308C69.0517 54.3611 69.1015 54.1596 69.0956 53.9265Z" fill="#E2001A"/>
<path d="M61.5479 52.1776L61.8123 53.4218C62.064 54.606 62.0805 55.5812 61.8617 56.3475L63.9588 55.9017L63.0972 51.8483L61.5479 52.1776ZM60.5727 51.5915L63.781 50.9096L64.8039 55.7221L65.4613 55.5823L65.8887 57.5934L65.0593 57.7697L64.7931 56.5177L61.4126 57.2362L61.6788 58.4883L60.8571 58.6629L60.4297 56.6518L60.9148 56.5487C61.219 55.748 61.2214 54.6433 60.922 53.2348L60.5727 51.5915Z" fill="#E2001A"/>
<path d="M59.6877 57.6027L58.8348 57.784L58.3175 55.3503L56.0639 55.8294L56.5811 58.263L55.736 58.4426L54.5518 52.8711L55.3969 52.6915L55.9042 55.0781L58.1578 54.5991L57.6505 52.2124L58.5035 52.0311L59.6877 57.6027Z" fill="#E2001A"/>
<path d="M54.5895 58.6866L51.0212 59.4451L49.8369 53.8735L53.4052 53.1151L53.5665 53.8741L50.8434 54.4529L51.1893 56.0806L53.5056 55.5882L53.6653 56.3395L51.349 56.8318L51.705 58.5064L54.4281 57.9276L54.5895 58.6866Z" fill="#E2001A"/>
<path d="M49.5697 59.7535L48.7167 59.9348L47.925 56.2101L47.2188 59.1982L46.5928 59.3312L44.7088 56.8937L45.5006 60.6185L44.6555 60.7981L43.4712 55.2266L44.3085 55.0486L46.673 58.1692L47.5403 54.3616L48.3854 54.182L49.5697 59.7535Z" fill="#E2001A"/>
<path d="M42.4455 56.8513C42.5713 57.1353 42.7046 57.6086 42.8454 58.2711C42.9862 58.9337 43.057 59.4203 43.0576 59.7309C43.0634 60.0405 42.9657 60.3503 42.7644 60.6602C42.4686 61.1157 42.0286 61.4055 41.4443 61.5297C40.86 61.6539 40.3401 61.5681 39.8847 61.2723C39.5747 61.071 39.3569 60.8283 39.2311 60.5443C39.1105 60.2591 38.9798 59.7853 38.8389 59.1228C38.6981 58.4602 38.6248 57.9742 38.619 57.6646C38.6184 57.354 38.7187 57.0437 38.92 56.7337C39.2158 56.2782 39.6558 55.9884 40.2401 55.8642C40.8243 55.74 41.3442 55.8258 41.7997 56.1216C42.1096 56.3229 42.3249 56.5661 42.4455 56.8513ZM42.1889 59.6457C42.1829 59.4125 42.1201 59.0142 42.0003 58.4508C41.8805 57.8874 41.776 57.4979 41.6865 57.2825C41.596 57.0618 41.468 56.8955 41.3024 56.7835C41.0345 56.6005 40.7336 56.5445 40.3997 56.6155C40.0659 56.6864 39.8138 56.86 39.6435 57.1361C39.5389 57.311 39.4901 57.5176 39.4972 57.756C39.5031 57.9892 39.5654 58.3849 39.684 58.9431C39.8027 59.5013 39.9067 59.8881 39.9961 60.1036C40.0856 60.319 40.2136 60.4854 40.3803 60.6026C40.6545 60.7897 40.956 60.8483 41.2846 60.7784C41.6133 60.7086 41.8648 60.5324 42.0392 60.25C42.1449 60.0803 42.1948 59.8789 42.1889 59.6457Z" fill="#E2001A"/>
<path d="M35.6891 62.7039L34.8439 62.8835L33.6597 57.312L34.5048 57.1324L35.6891 62.7039ZM39.0148 61.997L37.9427 62.2249L35.0765 59.7834L36.5941 56.6883L37.6349 56.4671L36.0496 59.5521L39.0148 61.997Z" fill="#E2001A"/>
<path d="M33.6739 63.1324L30.1057 63.8909L28.9214 58.3193L32.4897 57.5609L32.651 58.3199L29.9278 58.8987L30.2738 60.5264L32.5901 60.034L32.7497 60.7853L30.4335 61.2776L30.7894 62.9522L33.5126 62.3734L33.6739 63.1324Z" fill="#E2001A"/>
<path d="M27.5435 59.1107C27.9398 59.3591 28.1901 59.7285 28.2943 60.2189C28.3985 60.7092 28.3201 61.1485 28.0591 61.5365C27.8022 61.9183 27.4051 62.1663 26.8678 62.2805L25.6001 62.55L26.0675 64.7488L25.2224 64.9285L24.0381 59.3569L26.1509 58.9078C26.6882 58.7936 27.1524 58.8613 27.5435 59.1107ZM27.3295 61.1437C27.4714 60.939 27.5113 60.6906 27.4492 60.3985C27.3871 60.1063 27.2502 59.8983 27.0384 59.7742C26.8256 59.645 26.5678 59.6126 26.2653 59.6769L25.0445 59.9363L25.4404 61.7987L26.6611 61.5393C26.9637 61.4749 27.1865 61.3431 27.3295 61.1437Z" fill="#E2001A"/>
<path d="M90.7459 78.2651L90.5645 78.8353L89.5811 78.48L89.8303 79.4984L89.2434 79.6232L89.0568 78.5914L88.303 79.316L87.9054 78.8689L88.7038 78.2003L87.7008 77.9064L87.8822 77.3362L88.8656 77.6915L88.618 76.6809L89.2049 76.5561L89.3899 77.5801L90.1437 76.8555L90.5413 77.3026L89.7446 77.979L90.7459 78.2651Z" fill="#E2001A"/>
<path d="M87.3453 81.163C87.4473 81.643 87.377 82.0559 87.1343 82.402C86.8968 82.7469 86.5172 82.9748 85.9955 83.0857L83.7419 83.5647L82.5576 77.9932L84.7252 77.5324C85.2312 77.4249 85.6675 77.4766 86.0341 77.6877C86.3995 77.8935 86.6305 78.2234 86.727 78.6773C86.8467 79.2407 86.6822 79.6982 86.2336 80.0498C86.8472 80.192 87.2178 80.5631 87.3453 81.163ZM85.7756 79.5501C85.9074 79.3749 85.9467 79.1621 85.8935 78.9117C85.8403 78.6613 85.7178 78.4828 85.5262 78.3763C85.3345 78.2699 85.0978 78.2466 84.8161 78.3064L83.5641 78.5726L83.9034 80.1689L85.1554 79.9028C85.4371 79.8429 85.6439 79.7253 85.7756 79.5501ZM86.365 81.9766C86.4987 81.7846 86.5378 81.5582 86.4824 81.2974C86.4269 81.0365 86.2997 80.8482 86.1006 80.7324C85.9067 80.6155 85.6689 80.587 85.3872 80.6469L84.0647 80.9279L84.4257 82.626L85.7481 82.3449C86.0298 82.285 86.2355 82.1623 86.365 81.9766Z" fill="#E2001A"/>
<path d="M82.2867 83.8743L81.4416 84.054L80.2573 78.4824L81.1024 78.3028L82.2867 83.8743Z" fill="#E2001A"/>
<path d="M77.4195 84.9085L76.5744 85.0881L75.3901 79.5166L76.2353 79.337L77.4195 84.9085ZM80.7452 84.2016L79.6732 84.4295L76.8069 81.988L78.3246 78.8929L79.3653 78.6716L77.7801 81.7567L80.7452 84.2016Z" fill="#E2001A"/>
<path d="M75.0962 85.4024L74.2511 85.582L73.3912 81.5364L71.7548 86.1126L70.988 86.2756L69.8037 80.7041L70.6488 80.5245L71.5071 84.5623L73.1372 79.9955L73.9119 79.8309L75.0962 85.4024Z" fill="#E2001A"/>
<path d="M69.5288 86.5858L68.6837 86.7655L68.2196 84.5822C67.6295 84.8331 67.1441 84.999 66.7633 85.0799C66.3563 85.1664 65.9882 85.1274 65.6588 84.963C65.3335 84.7922 65.1221 84.4773 65.0245 84.0182L64.5571 81.8193L65.4101 81.638L65.8342 83.6335C65.9495 84.176 66.2915 84.3868 66.8601 84.266C67.2044 84.1928 67.6055 84.053 68.0633 83.8467L67.4994 81.1939L68.3445 81.0143L69.5288 86.5858Z" fill="#E2001A"/>
<path d="M61.2026 83.326L61.4671 84.5702C61.7188 85.7544 61.7353 86.7297 61.5165 87.4959L63.6136 87.0501L62.752 82.9967L61.2026 83.326ZM60.2275 82.74L63.4358 82.058L64.4587 86.8705L65.116 86.7308L65.5435 88.7419L64.714 88.9182L64.4479 87.6661L61.0674 88.3847L61.3336 89.6367L60.5119 89.8114L60.0844 87.8003L60.5696 87.6972C60.8738 86.8964 60.8762 85.7918 60.5768 84.3833L60.2275 82.74Z" fill="#E2001A"/>
<path d="M58.7829 84.4538C58.9087 84.7379 59.042 85.2112 59.1828 85.8737C59.3236 86.5362 59.3944 87.0228 59.395 87.3335C59.4008 87.643 59.3031 87.9528 59.1018 88.2627C58.806 88.7182 58.366 89.008 57.7817 89.1322C57.1974 89.2564 56.6775 89.1706 56.2221 88.8748C55.9121 88.6736 55.6943 88.4309 55.5685 88.1468C55.4479 87.8617 55.3172 87.3878 55.1763 86.7253C55.0355 86.0628 54.9622 85.5767 54.9564 85.2672C54.9558 84.9565 55.0561 84.6462 55.2574 84.3362C55.5532 83.8808 55.9932 83.591 56.5775 83.4668C57.1617 83.3426 57.6816 83.4284 58.1371 83.7241C58.447 83.9254 58.6623 84.1687 58.7829 84.4538ZM58.5263 87.2482C58.5203 87.015 58.4575 86.6167 58.3377 86.0533C58.2179 85.4899 58.1134 85.1005 58.0239 84.885C57.9334 84.6644 57.8054 84.498 57.6398 84.386C57.3719 84.203 57.071 84.147 56.7371 84.218C56.4033 84.289 56.1512 84.4625 55.9809 84.7386C55.8763 84.9135 55.8275 85.1202 55.8346 85.3586C55.8405 85.5918 55.9028 85.9875 56.0215 86.5457C56.1401 87.1039 56.2441 87.4907 56.3335 87.7061C56.423 87.9216 56.551 88.0879 56.7177 88.2052C56.9919 88.3922 57.2934 88.4508 57.622 88.381C57.9507 88.3111 58.2022 88.135 58.3766 87.8525C58.4823 87.6829 58.5322 87.4814 58.5263 87.2482Z" fill="#E2001A"/>
<path d="M54.4244 88.1606C54.5264 88.6405 54.4561 89.0535 54.2134 89.3995C53.9759 89.7444 53.5963 89.9723 53.0746 90.0832L50.821 90.5623L49.6367 84.9907L51.8043 84.53C52.3103 84.4224 52.7466 84.4742 53.1132 84.6853C53.4786 84.8911 53.7096 85.221 53.8061 85.6748C53.9258 86.2382 53.7613 86.6958 53.3127 87.0474C53.9263 87.1896 54.2969 87.5606 54.4244 88.1606ZM52.8547 86.5477C52.9865 86.3725 53.0258 86.1596 52.9726 85.9092C52.9194 85.6588 52.7969 85.4804 52.6053 85.3739C52.4136 85.2674 52.1769 85.2441 51.8952 85.304L50.6432 85.5701L50.9825 87.1665L52.2345 86.9003C52.5162 86.8405 52.723 86.7229 52.8547 86.5477ZM53.4441 88.9742C53.5778 88.7822 53.6169 88.5558 53.5615 88.2949C53.506 88.0341 53.3788 87.8458 53.1797 87.73C52.9858 87.6131 52.748 87.5845 52.4663 87.6444L51.1438 87.9255L51.5048 89.6236L52.8272 89.3425C53.1089 89.2826 53.3146 89.1598 53.4441 88.9742Z" fill="#E2001A"/>
<path d="M50.023 90.7321L49.1388 90.9201L48.5097 89.8842L46.3108 90.3516L46.1574 91.5538L45.2653 91.7434L46.1234 85.7378L46.8042 85.593L50.023 90.7321ZM48.1297 89.2126L46.7512 86.9211L46.4004 89.5801L48.1297 89.2126Z" fill="#E2001A"/>
<path d="M42.8373 92.3085C42.3313 92.4161 41.8693 92.3589 41.4513 92.1369C41.0334 91.9149 40.7204 91.5453 40.5122 91.0279L41.3574 90.8483C41.4873 91.126 41.667 91.3304 41.8966 91.4616C42.1315 91.5916 42.3976 91.625 42.6949 91.5618C43.0079 91.4952 43.2438 91.3606 43.4024 91.1579C43.5652 90.9488 43.6172 90.706 43.5584 90.4295C43.4963 90.1374 43.3631 89.934 43.1588 89.8193C42.9597 89.7035 42.701 89.6794 42.3828 89.747L41.6707 89.8984L41.521 89.1941L42.2488 89.0394C42.5305 88.9795 42.7314 88.8605 42.8517 88.6823C42.976 88.4977 43.0094 88.2698 42.9517 87.9985C42.8963 87.7377 42.7669 87.5525 42.5637 87.443C42.3605 87.3336 42.1102 87.3104 41.8129 87.3736C41.5155 87.4368 41.2892 87.5776 41.1339 87.796C40.9774 88.0092 40.8964 88.2691 40.8906 88.5756L40.0377 88.7569C40.0174 88.1997 40.153 87.7346 40.4445 87.3619C40.7413 86.988 41.1479 86.7462 41.6644 86.6364C42.1913 86.5244 42.6536 86.5706 43.0515 86.775C43.4494 86.9794 43.6965 87.3086 43.793 87.7624C43.915 88.3363 43.7464 88.8001 43.2873 89.154C43.9047 89.2627 44.2816 89.6378 44.418 90.2795C44.5211 90.7647 44.4217 91.1947 44.1197 91.5697C43.823 91.9436 43.3955 92.1898 42.8373 92.3085Z" fill="#E2001A"/>
</svg>
