<svg width="80" height="80" viewBox="0 0 80 80" fill="none" xmlns="http://www.w3.org/2000/svg">
<path d="M46.4313 72.0869C64.4251 68.2622 75.9115 50.5747 72.0868 32.5808C68.2621 14.587 50.5746 3.10062 32.5808 6.92533C14.5869 10.75 3.10054 28.4375 6.92526 46.4314C10.75 64.4252 28.4374 75.9116 46.4313 72.0869Z" fill="white"/>
<path d="M45.7817 69.029C62.0867 65.5633 72.495 49.536 69.0292 33.231C65.5635 16.9261 49.5362 6.51781 33.2312 9.98354C16.9263 13.4493 6.51802 29.4766 9.98375 45.7815C13.4495 62.0865 29.4768 72.4948 45.7817 69.029Z" fill="white"/>
<path d="M45.4425 69.3996C45.2996 69.43 45.1324 69.346 45.0959 69.1745C45.0655 69.0316 45.1495 68.8645 45.321 68.828C45.4639 68.7976 45.6371 68.9102 45.6675 69.0531C45.6979 69.196 45.6139 69.3631 45.4425 69.3996ZM46.4963 68.8769C46.4659 68.734 46.5499 68.5668 46.6928 68.5364C46.8357 68.506 47.0029 68.59 47.0333 68.7329C47.0636 68.8758 46.9797 69.043 46.8368 69.0734C46.6653 69.1098 46.5267 69.0198 46.4963 68.8769ZM44.0585 69.634C43.9156 69.6644 43.7709 69.5458 43.7405 69.4029C43.7102 69.26 43.8288 69.1153 43.9716 69.0849C44.1145 69.0546 44.2592 69.1732 44.2896 69.3161C44.32 69.459 44.2014 69.6036 44.0585 69.634ZM47.856 68.5281C47.8256 68.3852 47.9096 68.218 48.0525 68.1877C48.1954 68.1573 48.3626 68.2412 48.3929 68.3841C48.4233 68.527 48.3679 68.6882 48.1965 68.7246C48.1965 68.7246 48.1965 68.7246 48.1679 68.7307C48.0536 68.755 47.8864 68.671 47.856 68.5281ZM42.6338 69.8174C42.4848 69.8192 42.3462 69.7291 42.3098 69.5577C42.308 69.4087 42.398 69.2701 42.5695 69.2336C42.7124 69.2033 42.857 69.3219 42.8935 69.4933C42.8953 69.6423 42.8053 69.7809 42.6624 69.8113C42.6624 69.8113 42.6624 69.8113 42.6338 69.8174ZM49.1974 68.0936C49.1385 67.9568 49.2224 67.7896 49.3593 67.7307C49.4961 67.6717 49.6633 67.7557 49.7222 67.8925C49.7812 68.0293 49.6972 68.1965 49.5604 68.2555L49.5318 68.2615C49.395 68.3205 49.2564 68.2305 49.1974 68.0936ZM41.2255 69.9375C41.0765 69.9393 40.9319 69.8207 40.9301 69.6717C40.9283 69.5227 41.0469 69.378 41.1958 69.3762C41.3448 69.3744 41.4895 69.493 41.4913 69.642C41.4931 69.791 41.397 69.901 41.2541 69.9314C41.2541 69.9314 41.2541 69.9314 41.2255 69.9375ZM50.5267 67.602C50.4678 67.4652 50.5517 67.298 50.6886 67.239C50.8254 67.1801 50.9926 67.264 51.0515 67.4008C51.1105 67.5377 51.0265 67.7049 50.8897 67.7638C50.8897 67.7638 50.8611 67.7699 50.8326 67.776C50.6897 67.8063 50.5571 67.7449 50.5267 67.602ZM39.799 69.9719C39.6501 69.9736 39.5054 69.8551 39.5036 69.7061C39.5018 69.5571 39.6204 69.4124 39.7693 69.4106C39.9183 69.4088 40.063 69.5274 40.0648 69.6764C40.0666 69.8254 39.9705 69.9354 39.8276 69.9658C39.8276 69.9658 39.8276 69.9658 39.799 69.9719ZM51.8214 67.0878C51.7624 66.951 51.8178 66.7899 51.9546 66.7309C52.0914 66.672 52.2526 66.7274 52.3115 66.8642C52.3705 67.001 52.3151 67.1621 52.1844 67.2497C52.1558 67.2557 52.1558 67.2557 52.1272 67.2618C52.0068 67.2575 51.8743 67.1961 51.8214 67.0878ZM38.395 69.9716C38.2461 69.9734 38.1239 69.8201 38.1221 69.6711C38.1203 69.5222 38.2735 69.4 38.4225 69.3982C38.5715 69.3964 38.6937 69.5496 38.6955 69.6986C38.6912 69.819 38.5951 69.929 38.4808 69.9533C38.4236 69.9655 38.4236 69.9655 38.395 69.9716ZM53.0917 66.4594C53.0328 66.3225 53.0881 66.1614 53.2189 66.0739C53.3557 66.0149 53.5168 66.0703 53.6044 66.2011C53.6633 66.3379 53.608 66.499 53.4772 66.5865C53.4486 66.5926 53.42 66.5987 53.3915 66.6048C53.2832 66.6576 53.1507 66.5962 53.0917 66.4594ZM36.9728 69.8856C36.8178 69.8588 36.7017 69.7341 36.7284 69.579C36.7267 69.4301 36.8799 69.3079 37.035 69.3347C37.1839 69.3329 37.3061 69.4861 37.2793 69.6412C37.275 69.7616 37.179 69.8716 37.0646 69.8959C37.03 69.8734 37.0014 69.8795 36.9728 69.8856ZM54.3274 65.8084C54.2399 65.6777 54.2952 65.5165 54.426 65.429C54.5567 65.3415 54.7179 65.3968 54.8054 65.5276C54.8929 65.6583 54.8376 65.8194 54.7068 65.907C54.6782 65.9131 54.6497 65.9191 54.6211 65.9252C54.5128 65.9781 54.3803 65.9166 54.3274 65.8084ZM35.561 69.7077C35.4059 69.6809 35.2898 69.5563 35.3166 69.4012C35.3434 69.2462 35.468 69.1301 35.6231 69.1568C35.7781 69.1836 35.8943 69.3083 35.8675 69.4633C35.8632 69.5837 35.7671 69.6938 35.6528 69.7181C35.6242 69.7241 35.5956 69.7302 35.561 69.7077ZM55.551 65.1003C55.4634 64.9695 55.5127 64.7798 55.6495 64.7209C55.7803 64.6333 55.9414 64.6887 56.0289 64.8194C56.1165 64.9502 56.0611 65.1113 55.9304 65.1988C55.9018 65.2049 55.8793 65.2396 55.8507 65.2457C55.7303 65.2414 55.6038 65.2085 55.551 65.1003ZM34.143 69.5013C33.988 69.4745 33.8944 69.3152 33.9212 69.1601C33.9479 69.0051 34.1073 68.9115 34.2337 68.9443C34.3888 68.9711 34.4824 69.1305 34.4495 69.2569C34.4167 69.3834 34.3431 69.4588 34.2288 69.4831C34.2063 69.5177 34.1777 69.5238 34.143 69.5013ZM56.6991 64.3185C56.6116 64.1878 56.6323 64.0042 56.763 63.9166C56.8938 63.8291 57.0774 63.8498 57.1649 63.9806C57.2525 64.1113 57.2257 64.2664 57.101 64.3825C57.0724 64.3885 57.0499 64.4232 56.9928 64.4353C56.907 64.4536 56.7806 64.4207 56.6991 64.3185ZM32.7415 69.2317C32.5865 69.2049 32.4929 69.0455 32.5197 68.8905C32.5464 68.7354 32.7058 68.6418 32.8608 68.6686C33.0159 68.6954 33.1095 68.8547 33.0827 69.0098C33.0438 69.1077 32.9762 69.2116 32.8619 69.2359C32.8333 69.242 32.7987 69.2195 32.7415 69.2317ZM57.8412 63.5082C57.7537 63.3775 57.7744 63.1939 57.9051 63.1063C58.0359 63.0188 58.1909 63.0456 58.301 63.1417C58.3885 63.2724 58.3678 63.456 58.2656 63.5375C58.2431 63.5722 58.1859 63.5843 58.1574 63.5904C58.0145 63.6208 57.9166 63.5818 57.8412 63.5082ZM31.379 68.8641C31.2239 68.8373 31.1303 68.678 31.1857 68.5169C31.2125 68.3618 31.3718 68.2682 31.5329 68.3236C31.6879 68.3504 31.7816 68.5097 31.7262 68.6708C31.6873 68.7687 31.6137 68.8441 31.4993 68.8684C31.4708 68.8745 31.4136 68.8866 31.379 68.8641ZM58.9365 62.6183C58.8489 62.4875 58.8472 62.3385 58.9718 62.2224C59.1026 62.1349 59.2515 62.1331 59.3677 62.2578C59.4838 62.3825 59.457 62.5375 59.3323 62.6536C59.3098 62.6883 59.2526 62.7004 59.1955 62.7126C59.1097 62.7308 59.0119 62.6919 58.9365 62.6183ZM30.0103 68.468C29.8492 68.4126 29.7842 68.2472 29.8456 68.1147C29.901 67.9536 30.0664 67.8885 30.1928 67.9214C30.354 67.9768 30.419 68.1422 30.3575 68.2747C30.3186 68.3726 30.245 68.448 30.1593 68.4662C30.1021 68.4784 30.0735 68.4844 30.0103 68.468ZM59.991 61.6772C59.8749 61.5525 59.9017 61.3975 59.9978 61.2875C60.1225 61.1714 60.2775 61.1981 60.3876 61.2942C60.5037 61.4189 60.4769 61.574 60.3808 61.684C60.3297 61.7247 60.3011 61.7308 60.244 61.7429C60.1643 61.7897 60.0664 61.7508 59.991 61.6772ZM28.6806 67.974C28.5195 67.9186 28.4545 67.7532 28.5159 67.6207C28.5713 67.4596 28.7367 67.3945 28.8692 67.456C29.0017 67.5174 29.0954 67.6768 29.0339 67.8093C28.995 67.9072 28.9153 67.954 28.8296 67.9722C28.7785 68.0129 28.7153 67.9965 28.6806 67.974ZM61.0109 60.7137C60.9009 60.6176 60.893 60.44 61.0177 60.3239C61.1138 60.2139 61.2913 60.206 61.4074 60.3307C61.5236 60.4553 61.5254 60.6043 61.4007 60.7204C61.3496 60.7612 61.3271 60.7958 61.2699 60.808C61.1781 60.7976 61.0863 60.7873 61.0109 60.7137ZM27.3448 67.4514C27.2123 67.39 27.1472 67.2246 27.2087 67.092C27.2701 66.9595 27.4355 66.8945 27.5681 66.9559C27.7006 67.0173 27.7656 67.1827 27.7042 67.3153C27.6653 67.4132 27.5856 67.46 27.4999 67.4782C27.4713 67.4843 27.4081 67.4678 27.3448 67.4514ZM61.9554 59.6765C61.8454 59.5804 61.8375 59.4029 61.9336 59.2928C62.0297 59.1828 62.2073 59.1749 62.3173 59.271C62.4273 59.3671 62.4352 59.5447 62.3391 59.6547C62.288 59.6954 62.2369 59.7362 62.1798 59.7483C62.1226 59.7605 62.0308 59.7501 61.9554 59.6765ZM26.054 66.8595C25.9215 66.7981 25.8565 66.6327 25.9118 66.4716C25.9733 66.339 26.1387 66.274 26.2998 66.3294C26.4323 66.3908 26.4974 66.5562 26.442 66.7173C26.397 66.7866 26.3234 66.862 26.2377 66.8802C26.1805 66.8924 26.1173 66.876 26.054 66.8595ZM62.8939 58.6108C62.7838 58.5147 62.7474 58.3432 62.8374 58.2046C62.9335 58.0946 63.105 58.0581 63.215 58.1542C63.325 58.2503 63.3615 58.4218 63.2715 58.5604C63.2204 58.6011 63.1693 58.6419 63.1122 58.654C63.0325 58.7008 62.9346 58.6619 62.8939 58.6108ZM24.8083 66.1983C24.6757 66.1369 24.6046 65.9429 24.6947 65.8043C24.7561 65.6717 24.9501 65.6006 25.0887 65.6907C25.2273 65.7807 25.2923 65.9461 25.2023 66.0847C25.1573 66.154 25.0776 66.2008 25.0205 66.213C24.9348 66.2312 24.8715 66.2148 24.8083 66.1983ZM63.7344 57.5061C63.5958 57.4161 63.5879 57.2386 63.6779 57.0999C63.768 56.9613 63.9455 56.9535 64.0841 57.0435C64.1942 57.1396 64.2306 57.311 64.1406 57.4497C64.0956 57.519 64.0384 57.5311 63.9527 57.5493C63.8955 57.5615 63.8037 57.5511 63.7344 57.5061ZM23.5789 65.4739C23.4403 65.3839 23.4039 65.2124 23.4939 65.0738C23.5839 64.9352 23.7554 64.8987 23.894 64.9887C24.0326 65.0787 24.0691 65.2502 23.9791 65.3888C23.9341 65.4582 23.883 65.4989 23.7972 65.5171C23.7115 65.5353 23.6483 65.5189 23.5789 65.4739ZM64.5628 56.3443C64.4242 56.2543 64.3877 56.0828 64.4778 55.9442C64.5678 55.8056 64.7393 55.7691 64.8779 55.8592C65.0165 55.9492 65.0529 56.1206 64.9629 56.2593C64.9179 56.3286 64.8668 56.3693 64.7811 56.3875C64.6954 56.4058 64.6321 56.3893 64.5628 56.3443ZM22.3721 64.7148C22.2335 64.6248 22.1971 64.4533 22.2871 64.3147C22.3771 64.1761 22.5486 64.1396 22.6872 64.2296C22.8258 64.3197 22.8623 64.4911 22.7722 64.6298C22.7272 64.6991 22.6761 64.7398 22.5904 64.758C22.5332 64.7702 22.4414 64.7598 22.3721 64.7148ZM65.328 55.1661C65.1954 55.1046 65.1529 54.9046 65.249 54.7945C65.339 54.6559 65.5105 54.6195 65.643 54.6809C65.7817 54.7709 65.8181 54.9424 65.7567 55.0749C65.7117 55.1443 65.632 55.1911 65.5748 55.2032C65.4605 55.2275 65.3687 55.2171 65.328 55.1661ZM21.2389 63.8803C21.1288 63.7842 21.0924 63.6128 21.1824 63.4741C21.2785 63.3641 21.45 63.3277 21.5886 63.4177C21.6986 63.5138 21.7351 63.6852 21.6451 63.8239C21.6001 63.8932 21.5429 63.9053 21.4857 63.9175C21.3714 63.9418 21.3082 63.9253 21.2389 63.8803ZM66.0238 53.9428C65.8913 53.8814 65.8202 53.6874 65.9102 53.5488C65.9716 53.4162 66.1371 53.3512 66.3042 53.4351C66.4368 53.4966 66.5079 53.6906 66.4179 53.8292C66.3729 53.8985 66.2932 53.9453 66.236 53.9574C66.1564 54.0042 66.0931 53.9878 66.0238 53.9428ZM20.0996 63.0173C19.9895 62.9212 19.9531 62.7497 20.0778 62.6336C20.1738 62.5236 20.3453 62.4871 20.4554 62.5832C20.5654 62.6793 20.6018 62.8508 20.5118 62.9894C20.4607 63.0301 20.4097 63.0709 20.3525 63.083C20.2607 63.0726 20.1689 63.0623 20.0996 63.0173ZM66.6565 52.7031C66.5239 52.6417 66.4589 52.4763 66.5143 52.3151C66.5757 52.1826 66.7411 52.1176 66.9022 52.1729C67.0348 52.2344 67.0998 52.3998 67.0383 52.5323C66.9933 52.6016 66.9197 52.677 66.834 52.6952C66.7829 52.736 66.7197 52.7195 66.6565 52.7031ZM19.0338 62.0788C18.9238 61.9827 18.9159 61.8052 19.012 61.6952C19.1081 61.5851 19.2857 61.5772 19.3957 61.6733C19.5057 61.7694 19.5136 61.947 19.4236 62.0856C19.3725 62.1263 19.3214 62.1671 19.2643 62.1792C19.201 62.1628 19.1092 62.1524 19.0338 62.0788ZM67.2483 51.4123C67.1158 51.3509 67.0508 51.1855 67.1122 51.053C67.1737 50.9204 67.3391 50.8554 67.4716 50.9168C67.6041 50.9783 67.6692 51.1437 67.6077 51.2762C67.5688 51.3741 67.4891 51.4209 67.4034 51.4391C67.3748 51.4452 67.3177 51.4573 67.2483 51.4123ZM18.0192 61.0997C17.9031 60.975 17.9013 60.826 18.026 60.7099C18.1221 60.5999 18.2996 60.592 18.4157 60.7167C18.5258 60.8128 18.5336 60.9903 18.409 61.1064C18.3579 61.1472 18.3068 61.1879 18.2782 61.194C18.1864 61.1836 18.066 61.1793 18.0192 61.0997ZM67.777 50.1051C67.6445 50.0437 67.5509 49.8844 67.6123 49.7518C67.6737 49.6193 67.8331 49.5257 67.9656 49.5871C68.1267 49.6425 68.1918 49.8079 68.1303 49.9404C68.0914 50.0383 68.0178 50.1137 67.9321 50.1319C67.8749 50.1441 67.8402 50.1216 67.777 50.1051ZM17.0271 60.0858C16.9109 59.9612 16.9377 59.8061 17.0338 59.6961C17.1585 59.58 17.3421 59.6007 17.4236 59.7029C17.5397 59.8275 17.5129 59.9826 17.4168 60.0926C17.3657 60.1334 17.3372 60.1394 17.28 60.1516C17.2003 60.1984 17.1024 60.1594 17.0271 60.0858ZM68.2424 48.7815C68.0813 48.7261 68.0163 48.5607 68.0491 48.4343C68.1045 48.2731 68.2413 48.2142 68.3964 48.241C68.5575 48.2963 68.6225 48.4617 68.5897 48.5882C68.5507 48.6861 68.4771 48.7615 68.3914 48.7797C68.3342 48.7919 68.3057 48.7979 68.2424 48.7815ZM16.0799 59.0027C15.9924 58.872 15.9845 58.6944 16.1153 58.6069C16.246 58.5194 16.395 58.5176 16.5111 58.6422C16.5986 58.773 16.6004 58.922 16.4758 59.0381C16.4533 59.0727 16.3961 59.0849 16.3389 59.097C16.2593 59.1438 16.1614 59.1049 16.0799 59.0027ZM68.6446 47.4414C68.4896 47.4147 68.396 47.2553 68.4513 47.0942C68.4781 46.9392 68.6374 46.8455 68.7986 46.9009C68.9536 46.9277 69.0472 47.087 68.9919 47.2481C68.9529 47.346 68.8793 47.4214 68.765 47.4457C68.7364 47.4518 68.7079 47.4579 68.6446 47.4414ZM15.2185 57.9014C15.131 57.7706 15.1517 57.587 15.2825 57.4995C15.4132 57.4119 15.5968 57.4326 15.6844 57.5634C15.7719 57.6941 15.7512 57.8778 15.6205 57.9653C15.5979 58 15.5408 58.0121 15.5122 58.0182C15.3979 58.0425 15.2714 58.0096 15.2185 57.9014ZM68.9775 46.0564C68.8225 46.0296 68.7288 45.8703 68.7556 45.7152C68.7824 45.5602 68.9417 45.4665 69.0968 45.4933C69.2518 45.5201 69.3455 45.6794 69.3187 45.8345C69.2858 45.961 69.2122 46.0363 69.0979 46.0606C69.0693 46.0667 69.0407 46.0728 68.9775 46.0564ZM14.3797 56.7654C14.2921 56.6346 14.3189 56.4796 14.4497 56.392C14.5804 56.3045 14.764 56.3252 14.8516 56.456C14.9391 56.5867 14.9184 56.7703 14.7876 56.8579C14.7591 56.8639 14.7366 56.8986 14.6794 56.9108C14.559 56.9065 14.455 56.839 14.3797 56.7654ZM69.2532 44.6834C69.0982 44.6567 69.0046 44.4973 69.0374 44.3709C69.0642 44.2158 69.2235 44.1222 69.3439 44.1265C69.499 44.1533 69.5926 44.3126 69.5597 44.4391C69.5554 44.5595 69.4533 44.6409 69.339 44.6652C69.345 44.6938 69.3165 44.6999 69.2532 44.6834ZM13.5858 55.56C13.4983 55.4293 13.5536 55.2682 13.6844 55.1806C13.8151 55.0931 14.0048 55.1424 14.0638 55.2792C14.1513 55.41 14.102 55.5997 13.9652 55.6586C13.9366 55.6647 13.9141 55.6994 13.8855 55.7054C13.7998 55.7237 13.6672 55.6622 13.5858 55.56ZM69.4657 43.2941C69.3107 43.2673 69.1945 43.1426 69.2213 42.9876C69.2481 42.8325 69.3728 42.7164 69.5278 42.7432C69.6829 42.77 69.799 42.8947 69.7722 43.0497C69.7679 43.1701 69.6718 43.2801 69.5575 43.3044C69.5229 43.2819 69.4943 43.288 69.4657 43.2941ZM12.8777 54.3365C12.8187 54.1997 12.8455 54.0446 12.9762 53.9571C13.107 53.8696 13.2681 53.9249 13.3556 54.0557C13.4432 54.1864 13.3878 54.3476 13.2571 54.4351C13.2285 54.4412 13.1999 54.4472 13.1713 54.4533C13.0631 54.5062 12.9305 54.4448 12.8777 54.3365ZM69.615 41.8883C69.466 41.8901 69.3438 41.7368 69.342 41.5879C69.3402 41.4389 69.4935 41.3167 69.6424 41.3149C69.7914 41.3131 69.9136 41.4664 69.9154 41.6153C69.9111 41.7357 69.815 41.8458 69.7007 41.8701C69.6721 41.8761 69.6435 41.8822 69.615 41.8883ZM12.2206 53.0722C12.1617 52.9354 12.217 52.7743 12.3478 52.6868C12.4846 52.6278 12.6457 52.6832 12.7332 52.8139C12.7922 52.9507 12.7368 53.1119 12.6061 53.1994C12.5775 53.2055 12.5489 53.2115 12.5489 53.2115C12.4121 53.2705 12.2796 53.2091 12.2206 53.0722ZM69.7071 40.4947C69.5581 40.4965 69.442 40.3718 69.4341 40.1942C69.4323 40.0453 69.557 39.9291 69.7345 39.9213C69.8835 39.9195 69.9996 40.0442 70.0075 40.2217C70.0032 40.3421 69.9071 40.4521 69.7928 40.4764C69.7356 40.4886 69.7071 40.4947 69.7071 40.4947ZM11.6207 51.7958C11.5618 51.659 11.6171 51.4979 11.7825 51.4328C11.9194 51.3739 12.0805 51.4293 12.1455 51.5947C12.2045 51.7315 12.1491 51.8926 11.9837 51.9576C11.9551 51.9637 11.9551 51.9637 11.9265 51.9698C11.8122 51.9941 11.6797 51.9326 11.6207 51.7958ZM69.7073 39.0907C69.5584 39.0925 69.4137 38.9739 69.4119 38.8249C69.4101 38.6759 69.5287 38.5312 69.6777 38.5294C69.8266 38.5276 69.9713 38.6462 69.9731 38.7952C69.9749 38.9442 69.8788 39.0542 69.7645 39.0785C69.7359 39.0846 69.7359 39.0846 69.7073 39.0907ZM11.0719 50.4787C11.013 50.3418 11.0969 50.1746 11.2337 50.1157C11.3705 50.0567 11.5377 50.1407 11.5967 50.2775C11.6556 50.4143 11.5717 50.5815 11.4349 50.6405L11.4063 50.6466C11.2634 50.6769 11.1309 50.6155 11.0719 50.4787ZM69.6444 37.6703C69.4954 37.6721 69.3507 37.5535 69.3489 37.4045C69.3471 37.2555 69.4657 37.1108 69.6147 37.109C69.7637 37.1072 69.9084 37.2258 69.9102 37.3748C69.912 37.5238 69.8159 37.6338 69.7015 37.6581C69.673 37.6642 69.673 37.6642 69.6444 37.6703ZM10.6088 49.1433C10.5499 49.0065 10.6338 48.8393 10.7992 48.7743C10.9361 48.7153 11.1033 48.7992 11.1683 48.9646C11.2272 49.1015 11.1433 49.2687 11.0065 49.3276L10.9779 49.3337C10.7778 49.3762 10.6392 49.2862 10.6088 49.1433ZM69.5243 36.262C69.3814 36.2924 69.2367 36.1738 69.2063 36.0309C69.1759 35.888 69.2945 35.7433 69.4374 35.7129C69.5803 35.6825 69.725 35.8011 69.7554 35.944C69.7919 36.1155 69.6958 36.2255 69.5243 36.262C69.5529 36.2559 69.5529 36.2559 69.5243 36.262ZM10.1744 47.8018C10.144 47.659 10.2279 47.4918 10.3708 47.4614C10.5137 47.431 10.6809 47.515 10.7113 47.6578C10.7417 47.8007 10.6577 47.9679 10.5148 47.9983C10.5148 47.9983 10.5148 47.9983 10.4862 48.0044C10.3719 48.0287 10.2333 47.9387 10.1744 47.8018ZM69.347 34.8659C69.2041 34.8962 69.0594 34.7776 69.029 34.6347C68.9987 34.4918 69.1112 34.3186 69.2602 34.3168C69.4031 34.2864 69.5478 34.405 69.5781 34.5479C69.6085 34.6908 69.5185 34.8294 69.347 34.8659ZM9.81953 46.4136C9.78916 46.2707 9.8731 46.1035 10.0446 46.0671C10.1875 46.0367 10.3547 46.1206 10.385 46.2635C10.4154 46.4064 10.3315 46.5736 10.1886 46.604C10.0232 46.669 9.85598 46.5851 9.81953 46.4136ZM68.7721 33.2854C68.7417 33.1425 68.8257 32.9753 68.9972 32.9389C69.1401 32.9085 69.3073 32.9925 69.3437 33.1639C69.3741 33.3068 69.2901 33.474 69.1187 33.5105C68.9411 33.5183 68.8025 33.4283 68.7721 33.2854ZM9.87448 45.2668C9.73158 45.2972 9.55831 45.1847 9.55652 45.0357C9.52614 44.8928 9.64474 44.7481 9.78764 44.7177C9.93054 44.6874 10.1038 44.7999 10.1056 44.9489C10.1013 45.0693 10.0174 45.2365 9.87448 45.2668ZM68.4945 32.1197C68.4641 31.9768 68.548 31.8096 68.6909 31.7793C68.8338 31.7489 69.001 31.8328 69.0314 31.9757C69.0618 32.1186 68.9778 32.2858 68.8349 32.3162C68.692 32.3466 68.5248 32.2626 68.4945 32.1197ZM9.63398 43.8543C9.49108 43.8847 9.34639 43.7661 9.31601 43.6232C9.28564 43.4803 9.40424 43.3356 9.54714 43.3052C9.69003 43.2748 9.83473 43.3934 9.8651 43.5363C9.90155 43.7078 9.77688 43.8239 9.63398 43.8543ZM68.1171 30.7661C68.0582 30.6293 68.1421 30.4621 68.3136 30.4257C68.4565 30.3953 68.6237 30.4792 68.6541 30.6221C68.6844 30.765 68.6005 30.9322 68.4576 30.9626L68.429 30.9687C68.3147 30.993 68.1761 30.903 68.1171 30.7661ZM9.45671 42.4582C9.30773 42.4599 9.16912 42.3699 9.16125 42.1924C9.15945 42.0434 9.24947 41.9048 9.42703 41.8969C9.576 41.8951 9.71462 41.9851 9.72248 42.1627C9.75286 42.3056 9.63426 42.4503 9.49136 42.4807L9.45671 42.4582ZM67.6887 29.4533C67.6298 29.3164 67.7137 29.1492 67.8505 29.0903C67.9874 29.0313 68.1546 29.1153 68.2135 29.2521C68.2725 29.3889 68.1885 29.5561 68.0517 29.6151L68.0231 29.6212C67.8802 29.6515 67.7477 29.5901 67.6887 29.4533ZM9.34267 41.0785C9.1937 41.0803 9.049 40.9617 9.04721 40.8127C9.04542 40.6637 9.16401 40.519 9.31299 40.5172C9.46196 40.5154 9.60665 40.634 9.60845 40.783C9.61024 40.932 9.51415 41.042 9.37125 41.0724C9.37125 41.0724 9.37125 41.0724 9.34267 41.0785ZM67.2031 28.1525C67.1442 28.0157 67.1996 27.8546 67.365 27.7896C67.5018 27.7306 67.6629 27.786 67.7279 27.9514C67.7869 28.0882 67.7315 28.2493 67.5661 28.3144C67.5375 28.3204 67.5375 28.3204 67.509 28.3265C67.3946 28.3508 67.2621 28.2894 67.2031 28.1525ZM9.3083 39.652C9.15932 39.6538 9.01463 39.5352 9.04142 39.3801C9.03962 39.2311 9.15822 39.0864 9.31327 39.1132C9.46224 39.1114 9.60693 39.23 9.58015 39.3851C9.57587 39.5055 9.48585 39.6441 9.34295 39.6745L9.3083 39.652ZM66.6318 26.8701C66.5729 26.7332 66.6282 26.5721 66.7651 26.5132C66.9019 26.4542 67.063 26.5096 67.1506 26.6403C67.2095 26.7771 67.1541 26.9383 67.0234 27.0258C66.9948 27.0319 66.9948 27.0319 66.9662 27.0379C66.8233 27.0683 66.6908 27.0069 66.6318 26.8701ZM9.33716 38.2419C9.18818 38.2437 9.066 38.0904 9.0642 37.9415C9.06241 37.7925 9.21566 37.6703 9.36463 37.6685C9.51361 37.6667 9.63579 37.82 9.63759 37.9689C9.63331 38.0893 9.53721 38.1994 9.4229 38.2237C9.37181 38.2644 9.34323 38.2705 9.33716 38.2419ZM66.0094 25.6283C65.9505 25.4915 66.0059 25.3303 66.1366 25.2428C66.2734 25.1839 66.4345 25.2392 66.5221 25.37C66.581 25.5068 66.5317 25.6965 66.3949 25.7554C66.3663 25.7615 66.3378 25.7676 66.3092 25.7737C66.1949 25.798 66.0909 25.7305 66.0094 25.6283ZM9.42925 36.8483C9.2742 36.8215 9.15809 36.6968 9.18488 36.5418C9.21166 36.3867 9.33634 36.2706 9.49138 36.2974C9.64643 36.3242 9.76254 36.4488 9.73576 36.6039C9.73148 36.7243 9.63538 36.8343 9.52107 36.8586C9.45783 36.8422 9.45783 36.8422 9.42925 36.8483ZM65.3585 24.3926C65.2709 24.2619 65.3263 24.1007 65.457 24.0132C65.5878 23.9257 65.7489 23.981 65.8365 24.1118C65.924 24.2425 65.8747 24.4322 65.7379 24.4912C65.7093 24.4973 65.6807 24.5033 65.6521 24.5094C65.5439 24.5623 65.4113 24.5008 65.3585 24.3926ZM9.57851 35.4425C9.42346 35.4157 9.30735 35.291 9.33413 35.136C9.36092 34.9809 9.48559 34.8648 9.64064 34.8916C9.79569 34.9184 9.9118 35.0431 9.88501 35.1981C9.85215 35.3246 9.77856 35.4 9.66425 35.4243C9.64174 35.4589 9.61316 35.465 9.57851 35.4425ZM64.6278 23.2037C64.5403 23.073 64.5957 22.9118 64.6978 22.8304C64.8286 22.7429 65.0183 22.7921 65.0712 22.9004C65.1587 23.0311 65.1094 23.2208 64.9726 23.2798C64.944 23.2859 64.9215 23.3205 64.8929 23.3266C64.8133 23.3734 64.6807 23.312 64.6278 23.2037ZM9.79099 34.0531C9.63595 34.0263 9.54234 33.867 9.56912 33.712C9.59591 33.5569 9.75524 33.4633 9.91029 33.4901C10.0653 33.5169 10.1589 33.6762 10.1322 33.8313C10.0993 33.9577 10.0257 34.0331 9.91139 34.0574C9.88281 34.0635 9.82565 34.0756 9.79099 34.0531ZM63.8175 22.0616C63.73 21.9309 63.7568 21.7758 63.8814 21.6597C64.0122 21.5722 64.1672 21.599 64.2834 21.7236C64.3709 21.8544 64.3502 22.038 64.2194 22.1256C64.1969 22.1602 64.1398 22.1724 64.1112 22.1784C64.0255 22.1967 63.899 22.1638 63.8175 22.0616ZM10.0953 32.6741C9.94025 32.6473 9.84664 32.488 9.87343 32.333C9.90021 32.1779 10.0595 32.0843 10.2207 32.1397C10.3757 32.1665 10.4693 32.3258 10.4425 32.4808C10.4097 32.6073 10.3361 32.6827 10.2218 32.707C10.1585 32.6906 10.13 32.6966 10.0953 32.6741ZM62.9847 20.9542C62.8972 20.8235 62.9179 20.6398 63.0201 20.5584C63.1508 20.4708 63.3059 20.4976 63.4159 20.5937C63.5034 20.7245 63.4827 20.9081 63.3805 20.9896C63.358 21.0242 63.3009 21.0364 63.2723 21.0424C63.1641 21.0953 63.0662 21.0564 62.9847 20.9542ZM10.4343 31.3176C10.2731 31.2623 10.2142 31.1254 10.241 30.9704C10.2677 30.8154 10.4332 30.7503 10.5882 30.7771C10.7432 30.8039 10.8083 30.9693 10.7815 31.1243C10.7426 31.2222 10.669 31.2976 10.5832 31.3158C10.5261 31.328 10.4689 31.3401 10.4343 31.3176ZM62.1008 19.8875C61.9847 19.7628 62.0054 19.5792 62.1362 19.4917C62.2608 19.3756 62.4445 19.3963 62.532 19.527C62.6195 19.6578 62.6274 19.8353 62.4967 19.9229C62.4742 19.9575 62.417 19.9697 62.3598 19.9818C62.2741 20 62.1762 19.9611 62.1008 19.8875ZM10.8364 29.9776C10.6753 29.9222 10.6103 29.7568 10.6717 29.6243C10.7271 29.4631 10.8925 29.3981 11.025 29.4596C11.1862 29.5149 11.2512 29.6803 11.1898 29.8129C11.1508 29.9108 11.0772 29.9861 10.9915 30.0044C10.9568 29.9819 10.8997 29.994 10.8364 29.9776ZM61.1658 18.8615C61.0497 18.7369 61.0704 18.5532 61.1726 18.4718C61.2973 18.3557 61.4523 18.3824 61.5624 18.4785C61.6785 18.6032 61.6517 18.7583 61.5556 18.8683C61.5045 18.909 61.4759 18.9151 61.4188 18.9273C61.333 18.9455 61.2412 18.9351 61.1658 18.8615ZM11.3304 28.6479C11.1693 28.5925 11.1043 28.4271 11.1657 28.2946C11.2272 28.162 11.3865 28.0684 11.519 28.1298C11.6516 28.1913 11.7452 28.3506 11.6838 28.4832C11.6448 28.581 11.5652 28.6278 11.4794 28.6461C11.4223 28.6582 11.3651 28.6704 11.3304 28.6479ZM60.1798 17.8763C60.0697 17.7802 60.0619 17.6026 60.158 17.4926C60.2541 17.3826 60.4316 17.3747 60.5417 17.4708C60.6517 17.5669 60.6596 17.7444 60.5635 17.8545C60.5124 17.8952 60.4613 17.9359 60.4327 17.942C60.347 17.9602 60.2552 17.9499 60.1798 17.8763ZM11.8591 27.3407C11.7266 27.2792 11.6615 27.1138 11.7169 26.9527C11.7783 26.8202 11.9437 26.7551 12.0763 26.8166C12.2088 26.878 12.2739 27.0434 12.2124 27.1759C12.1735 27.2738 12.0938 27.3206 12.0081 27.3389C11.9856 27.3735 11.9223 27.3571 11.8591 27.3407ZM59.1426 16.9318C59.0326 16.8357 59.0247 16.6581 59.1148 16.5195C59.2108 16.4095 59.3884 16.4016 59.4984 16.4977C59.6085 16.5938 59.6163 16.7714 59.5263 16.91C59.4752 16.9507 59.4242 16.9914 59.367 17.0036C59.3098 17.0157 59.218 17.0054 59.1426 16.9318ZM12.4571 26.0785C12.3245 26.017 12.2595 25.8516 12.3434 25.6844C12.4049 25.5519 12.5703 25.4869 12.7089 25.5769C12.8414 25.6383 12.9065 25.8037 12.8511 25.9648C12.8061 26.0341 12.7325 26.1095 12.6468 26.1278C12.5835 26.1113 12.5203 26.0949 12.4571 26.0785ZM58.0891 16.0505C57.979 15.9544 57.9426 15.7829 58.0326 15.6443C58.1287 15.5343 58.3002 15.4978 58.4388 15.5879C58.5488 15.6839 58.5853 15.8554 58.4953 15.994C58.4442 16.0348 58.3931 16.0755 58.3359 16.0876C58.2502 16.1059 58.1584 16.0955 58.0891 16.0505ZM13.1122 24.8041C12.9736 24.7141 12.9371 24.5426 12.9986 24.4101C13.0886 24.2715 13.2601 24.235 13.3926 24.2965C13.5312 24.3865 13.5677 24.558 13.5062 24.6905C13.4612 24.7598 13.3816 24.8066 13.3244 24.8188C13.2447 24.8656 13.1815 24.8491 13.1122 24.8041ZM56.9844 15.21C56.8458 15.1199 56.8379 14.9424 56.9279 14.8038C57.018 14.6652 57.1955 14.6573 57.3341 14.7473C57.4727 14.8373 57.4806 15.0149 57.3906 15.1535C57.3456 15.2228 57.2884 15.235 57.2027 15.2532C57.1169 15.2714 57.0537 15.255 56.9844 15.21ZM13.8141 23.6094C13.6755 23.5194 13.6391 23.3479 13.7291 23.2093C13.8191 23.0707 13.9906 23.0343 14.1292 23.1243C14.2678 23.2143 14.3043 23.3858 14.2142 23.5244C14.1692 23.5937 14.1181 23.6344 14.0324 23.6527C13.9753 23.6648 13.8834 23.6545 13.8141 23.6094ZM55.8287 14.4101C55.69 14.3201 55.6536 14.1486 55.7436 14.01C55.8336 13.8714 56.0051 13.835 56.1437 13.925C56.2823 14.015 56.3188 14.1865 56.2288 14.3251C56.1838 14.3944 56.1327 14.4351 56.0469 14.4534C55.9612 14.4716 55.898 14.4551 55.8287 14.4101ZM14.6079 22.4251C14.4693 22.3351 14.4614 22.1575 14.5228 22.025C14.6128 21.8864 14.7843 21.8499 14.9229 21.94C15.0616 22.03 15.0694 22.2075 15.008 22.3401C14.963 22.4094 14.9058 22.4215 14.8201 22.4398C14.7404 22.4866 14.6486 22.4762 14.6079 22.4251ZM54.6279 13.6796C54.4893 13.5896 54.4528 13.4181 54.5143 13.2856C54.6043 13.147 54.7758 13.1105 54.9083 13.172C55.0469 13.262 55.0834 13.4335 55.0219 13.566C54.9769 13.6353 54.8973 13.6821 54.8401 13.6943C54.7604 13.7411 54.6972 13.7246 54.6279 13.6796ZM15.4138 21.298C15.3037 21.2019 15.2673 21.0304 15.3573 20.8918C15.4534 20.7817 15.6249 20.7453 15.7635 20.8353C15.8735 20.9314 15.91 21.1029 15.82 21.2415C15.7689 21.2822 15.7178 21.3229 15.6606 21.3351C15.5749 21.3533 15.4831 21.343 15.4138 21.298ZM53.4107 13.0124C53.2782 12.9509 53.2071 12.7569 53.2971 12.6183C53.3585 12.4858 53.5525 12.4147 53.6911 12.5047C53.8237 12.5661 53.8887 12.7315 53.7987 12.8701C53.7537 12.9395 53.6801 13.0148 53.5943 13.0331C53.5372 13.0452 53.474 13.0288 53.4107 13.0124ZM16.2829 20.1872C16.1729 20.0911 16.165 19.9136 16.255 19.775C16.3511 19.6649 16.5287 19.657 16.6673 19.7471C16.7773 19.8432 16.7852 20.0207 16.6952 20.1593C16.6441 20.2001 16.593 20.2408 16.5358 20.2529C16.4501 20.2712 16.3522 20.2322 16.2829 20.1872ZM52.171 12.3797C52.0385 12.3183 51.9735 12.1529 52.0288 11.9918C52.0903 11.8592 52.2557 11.7942 52.3882 11.8556C52.5208 11.9171 52.5858 12.0825 52.5243 12.215C52.4793 12.2843 52.4057 12.3597 52.32 12.3779C52.2975 12.4126 52.2403 12.4247 52.171 12.3797ZM17.2213 19.1215C17.1113 19.0254 17.1034 18.8478 17.1995 18.7378C17.2956 18.6278 17.4732 18.6199 17.5832 18.716C17.6932 18.8121 17.7011 18.9896 17.6111 19.1283C17.56 19.169 17.5089 19.2097 17.4803 19.2158C17.3885 19.2054 17.2967 19.1951 17.2213 19.1215ZM50.8863 11.8164C50.7538 11.755 50.6888 11.5896 50.7502 11.457C50.8116 11.3245 50.977 11.2595 51.1096 11.3209C51.2421 11.3823 51.3357 11.5417 51.2457 11.6803C51.2068 11.7782 51.1271 11.825 51.0414 11.8432C51.0128 11.8493 50.9556 11.8614 50.8863 11.8164ZM18.1719 18.1129C18.0619 18.0168 18.0826 17.8332 18.1787 17.7232C18.3034 17.6071 18.4584 17.6338 18.5684 17.7299C18.6785 17.826 18.6864 18.0036 18.5617 18.1197C18.5106 18.1604 18.482 18.1665 18.4249 18.1786C18.3391 18.1969 18.2473 18.1865 18.1719 18.1129ZM49.5852 11.3163C49.4241 11.261 49.359 11.0956 49.4205 10.963C49.4759 10.8019 49.6413 10.7369 49.7738 10.7983C49.9349 10.8537 49.9999 11.0191 49.9385 11.1516C49.8996 11.2495 49.826 11.3249 49.7403 11.3431C49.6831 11.3553 49.6484 11.3328 49.5852 11.3163ZM19.1918 17.1494C19.0757 17.0247 19.0964 16.8411 19.2272 16.7535C19.3518 16.6374 19.5069 16.6642 19.623 16.7889C19.7391 16.9136 19.7184 17.0972 19.5876 17.1847C19.5366 17.2254 19.508 17.2315 19.4508 17.2437C19.359 17.2333 19.2672 17.223 19.1918 17.1494ZM48.2676 10.8795C48.1065 10.8241 48.0415 10.6587 48.0744 10.5323C48.1297 10.3711 48.2665 10.3122 48.4216 10.339C48.5827 10.3943 48.6477 10.5597 48.6149 10.6862C48.5759 10.7841 48.5024 10.8595 48.4166 10.8777C48.3595 10.8899 48.3023 10.902 48.2676 10.8795ZM20.2464 16.2083C20.1588 16.0776 20.1795 15.8939 20.2817 15.8125C20.4125 15.7249 20.5675 15.7517 20.6775 15.8478C20.7651 15.9786 20.7444 16.1622 20.6422 16.2437C20.6197 16.2783 20.5625 16.2905 20.534 16.2965C20.4543 16.3433 20.3278 16.3105 20.2464 16.2083ZM46.9336 10.5059C46.7786 10.4791 46.685 10.3198 46.7404 10.1587C46.7671 10.0036 46.9265 9.90999 47.0876 9.96536C47.2426 9.99214 47.3363 10.1515 47.2809 10.3126C47.242 10.4105 47.1684 10.4859 47.054 10.5102C46.9969 10.5223 46.9683 10.5284 46.9336 10.5059ZM21.3763 15.3409C21.2888 15.2101 21.3095 15.0265 21.4402 14.9389C21.571 14.8514 21.7546 14.8721 21.8421 15.0029C21.9297 15.1336 21.909 15.3172 21.7782 15.4048C21.7557 15.4394 21.6985 15.4516 21.67 15.4577C21.5556 15.482 21.4292 15.4491 21.3763 15.3409ZM45.5547 10.2016C45.3996 10.1748 45.306 10.0155 45.3328 9.86042C45.3596 9.70538 45.5189 9.61177 45.6739 9.63855C45.829 9.66534 45.9226 9.82467 45.8958 9.97972C45.8915 10.1001 45.7894 10.1816 45.675 10.2059C45.6404 10.1834 45.6118 10.1894 45.5547 10.2016ZM22.5184 14.5305C22.4308 14.3998 22.4516 14.2162 22.5884 14.1572C22.7191 14.0697 22.8742 14.0965 22.9617 14.2272C23.0492 14.358 22.9999 14.5477 22.8917 14.6005C22.8692 14.6352 22.8406 14.6413 22.7835 14.6534C22.6977 14.6717 22.5713 14.6388 22.5184 14.5305ZM44.1817 9.92586C44.0267 9.89908 43.9106 9.7744 43.9373 9.61936C43.9641 9.46431 44.1174 9.34212 44.2439 9.37498C44.3989 9.40177 44.515 9.52644 44.4882 9.68149C44.4554 9.80796 44.3818 9.88334 44.2675 9.90764C44.245 9.94229 44.2164 9.94837 44.1817 9.92586ZM23.7012 13.7713C23.6137 13.6406 23.669 13.4795 23.7998 13.3919C23.9305 13.3044 24.0916 13.3598 24.1792 13.4905C24.2667 13.6213 24.2174 13.811 24.0806 13.8699C24.052 13.876 24.0234 13.8821 23.9949 13.8881C23.8805 13.9124 23.7541 13.8796 23.7012 13.7713ZM42.7984 9.74195C42.6434 9.71517 42.5273 9.59049 42.5541 9.43545C42.5809 9.2804 42.7055 9.16429 42.8606 9.19107C43.0156 9.21786 43.1317 9.34253 43.105 9.49758C43.1007 9.61797 43.0046 9.72801 42.8903 9.75231C42.8617 9.75838 42.8331 9.76446 42.7984 9.74195ZM24.8901 13.0407C24.8311 12.9039 24.8579 12.7488 25.0172 12.6552C25.1541 12.5963 25.3091 12.623 25.4027 12.7824C25.4617 12.9192 25.4349 13.0742 25.2756 13.1679C25.247 13.1739 25.2184 13.18 25.1898 13.1861C25.0755 13.2104 24.9776 13.1714 24.8901 13.0407ZM41.3987 9.62128C41.2498 9.62307 41.1276 9.46982 41.1258 9.32085C41.124 9.17187 41.2772 9.04969 41.4262 9.04789C41.5752 9.0461 41.6974 9.19935 41.6992 9.34832C41.6949 9.46872 41.5988 9.57876 41.4845 9.60306C41.462 9.63771 41.4334 9.64378 41.3987 9.62128ZM26.1604 12.4122C26.1015 12.2754 26.1568 12.1143 26.2876 12.0267C26.4244 11.9678 26.5855 12.0232 26.6731 12.1539C26.732 12.2907 26.6766 12.4518 26.5459 12.5394C26.5173 12.5455 26.4887 12.5515 26.4887 12.5515C26.3458 12.5819 26.2133 12.5205 26.1604 12.4122ZM40.0173 9.58634C39.8683 9.58814 39.7522 9.46346 39.7443 9.28591C39.7425 9.13694 39.8672 9.02082 40.0447 9.01296C40.1937 9.01116 40.3098 9.13584 40.3116 9.28481C40.3073 9.4052 40.2173 9.54382 40.103 9.56812C40.0744 9.57419 40.0458 9.58027 40.0173 9.58634ZM27.4368 11.8123C27.3779 11.6755 27.4333 11.5144 27.5987 11.4494C27.7355 11.3904 27.8966 11.4458 27.9616 11.6112C28.0206 11.748 27.9652 11.9091 27.7998 11.9741C27.7712 11.9802 27.7712 11.9802 27.7427 11.9863C27.6283 12.0106 27.4897 11.9206 27.4368 11.8123ZM38.6133 9.58606C38.4643 9.58786 38.3196 9.46926 38.3178 9.32028C38.316 9.17131 38.4346 9.02662 38.5836 9.02482C38.7326 9.02303 38.8772 9.14163 38.879 9.2906C38.8808 9.43958 38.7847 9.54961 38.6704 9.57391C38.6704 9.57391 38.6418 9.57999 38.6133 9.58606ZM28.7254 11.2696C28.6665 11.1328 28.7504 10.9656 28.8872 10.9066C29.024 10.8477 29.1912 10.9316 29.2502 11.0684C29.3091 11.2053 29.2252 11.3725 29.0884 11.4314L29.0598 11.4375C28.923 11.4964 28.7844 11.4064 28.7254 11.2696ZM37.2275 9.67152C37.0785 9.67331 36.9338 9.55472 36.932 9.40574C36.9302 9.25677 37.0488 9.11208 37.1978 9.11028C37.3468 9.10849 37.4915 9.22709 37.4933 9.37606C37.4951 9.52503 37.399 9.63507 37.2561 9.66544C37.2561 9.66544 37.2561 9.66544 37.2275 9.67152ZM30.0608 10.8065C30.0018 10.6697 30.0858 10.5025 30.2512 10.4375C30.388 10.3785 30.5552 10.4625 30.6202 10.6279C30.6506 10.7708 30.5952 10.9319 30.4238 10.9683L30.3952 10.9744C30.2298 11.0394 30.0912 10.9494 30.0608 10.8065ZM35.8539 9.81414C35.711 9.84451 35.5663 9.72591 35.5359 9.58301C35.5055 9.44012 35.6241 9.29542 35.767 9.26505C35.9099 9.23467 36.0546 9.35327 36.085 9.49617C36.1154 9.63907 36.0254 9.77769 35.8539 9.81414ZM31.4083 10.4006C31.3779 10.2577 31.4619 10.0905 31.6048 10.0602C31.7477 10.0298 31.9149 10.1137 31.9452 10.2566C31.9756 10.3995 31.8917 10.5667 31.7488 10.5971C31.5773 10.6335 31.4387 10.5435 31.4083 10.4006ZM34.4638 10.02C34.3209 10.0504 34.1477 9.93784 34.1459 9.78886C34.1155 9.64597 34.228 9.47269 34.377 9.4709C34.5199 9.44053 34.6932 9.55305 34.695 9.70202C34.7253 9.84492 34.6353 9.98354 34.4638 10.02ZM32.768 10.0519C32.7376 9.90898 32.8215 9.74178 32.993 9.70533C33.1359 9.67496 33.3031 9.7589 33.3335 9.9018C33.3639 10.0447 33.2799 10.2119 33.137 10.2423C32.943 10.3134 32.8044 10.2234 32.768 10.0519Z" fill="#E2001A"/>
<path d="M45.7516 70.8565C45.5801 70.8929 45.4354 70.7743 45.405 70.6314C45.3747 70.4885 45.4872 70.3152 45.6301 70.2849C45.8016 70.2484 45.9463 70.367 45.9766 70.5099C46.007 70.6528 45.8945 70.8261 45.7516 70.8565ZM46.834 70.3277C46.7976 70.1562 46.8876 70.0176 47.0591 69.9811C47.2305 69.9447 47.3692 70.0347 47.4056 70.2062C47.4421 70.3777 47.352 70.5163 47.1806 70.5527C47.0316 70.5545 46.8644 70.4706 46.834 70.3277ZM43.9293 70.8555C43.8928 70.684 44.0114 70.5393 44.1829 70.5029C44.3544 70.4664 44.4991 70.585 44.5355 70.7565C44.5719 70.928 44.4534 71.0727 44.2819 71.1091C44.1104 71.1456 43.9657 71.027 43.9293 70.8555ZM48.2734 69.9321C48.2369 69.7606 48.3269 69.622 48.4637 69.5631C48.6066 69.5327 48.7738 69.6166 48.8328 69.7535C48.8632 69.8964 48.7792 70.0636 48.6424 70.1225L48.6138 70.1286C48.4484 70.1936 48.3098 70.1036 48.2734 69.9321ZM42.8 71.3046C42.6225 71.3125 42.4778 71.1939 42.476 71.0449C42.4742 70.8959 42.5928 70.7513 42.7357 70.7209C42.9072 70.6844 43.0518 70.803 43.0597 70.9806C43.0615 71.1296 42.9715 71.2682 42.8 71.3046ZM49.678 69.5141C49.613 69.3487 49.697 69.1815 49.8684 69.145C50.0338 69.08 50.201 69.1639 50.2375 69.3354C50.2964 69.4722 50.2186 69.668 50.0471 69.7045L50.0185 69.7105C49.8695 69.7123 49.7084 69.657 49.678 69.5141ZM41.2999 71.4144C41.151 71.4162 41.0063 71.2976 41.0045 71.1486C41.0027 70.9996 41.1213 70.8549 41.2928 70.8185C41.4417 70.8167 41.5864 70.9353 41.5943 71.1128C41.5961 71.2618 41.5061 71.4004 41.3632 71.4308C41.3285 71.4083 41.3285 71.4083 41.2999 71.4144ZM51.0645 69.0103C51.0055 68.8734 51.0834 68.6777 51.2202 68.6187C51.3571 68.5598 51.5528 68.6376 51.6118 68.7745C51.6707 68.9113 51.5929 69.1071 51.4561 69.166C51.4275 69.1721 51.4275 69.1721 51.3989 69.1782C51.256 69.2085 51.1234 69.1471 51.0645 69.0103ZM39.8224 71.4895C39.6734 71.4913 39.5287 71.3727 39.5208 71.1951C39.519 71.0461 39.6376 70.9015 39.8152 70.8936C39.9641 70.8918 40.1088 71.0104 40.1167 71.1879C40.1185 71.3369 40.0224 71.447 39.8795 71.4773C39.8509 71.4834 39.8509 71.4834 39.8224 71.4895ZM52.4327 68.4207C52.3738 68.2839 52.4231 68.0942 52.5885 68.0292C52.7253 67.9702 52.915 68.0195 52.98 68.1849C53.039 68.3218 52.9897 68.5114 52.8243 68.5765C52.7957 68.5826 52.7957 68.5826 52.7671 68.5886C52.6242 68.619 52.4917 68.5576 52.4327 68.4207ZM38.3205 71.4503C38.1715 71.4521 38.0207 71.3049 38.0475 71.1498C38.0457 71.0009 38.1929 70.8501 38.3479 70.8769C38.4969 70.8751 38.6477 71.0223 38.6209 71.1773C38.6227 71.3263 38.5266 71.4363 38.3837 71.4667C38.3837 71.4667 38.3491 71.4442 38.3205 71.4503ZM53.7663 67.8087C53.7074 67.6719 53.7566 67.4822 53.8935 67.4232C54.0303 67.3643 54.22 67.4136 54.2789 67.5504C54.3665 67.6811 54.2886 67.8769 54.1518 67.9359C54.1232 67.9419 54.0946 67.948 54.0661 67.9541C53.9517 67.9784 53.8192 67.9169 53.7663 67.8087ZM36.8411 71.3764C36.6861 71.3496 36.5699 71.2249 36.5621 71.0474C36.5889 70.8923 36.7135 70.7762 36.8911 70.7683C37.0461 70.7951 37.1622 70.9198 37.1701 71.0974C37.1658 71.2178 37.0697 71.3278 36.9268 71.3582C36.8983 71.3642 36.8697 71.3703 36.8411 71.3764ZM55.0531 67.117C54.9655 66.9862 55.0148 66.7965 55.1742 66.7029C55.3049 66.6154 55.4946 66.6647 55.5822 66.7954C55.6697 66.9262 55.6204 67.1159 55.4896 67.2034C55.4611 67.2095 55.4325 67.2156 55.4039 67.2216C55.2671 67.2806 55.1345 67.2192 55.0531 67.117ZM35.3435 71.2168C35.1885 71.19 35.0663 71.0367 35.093 70.8817C35.1198 70.7266 35.2731 70.6045 35.4281 70.6312C35.5832 70.658 35.7054 70.8113 35.6786 70.9663C35.6457 71.0928 35.5782 71.1968 35.4353 71.2271C35.4292 71.1986 35.4007 71.2046 35.3435 71.2168ZM56.3216 66.3395C56.2341 66.2088 56.2834 66.0191 56.4141 65.9316C56.5449 65.844 56.7346 65.8933 56.8221 66.0241C56.9097 66.1548 56.8604 66.3445 56.7296 66.4321C56.701 66.4381 56.6785 66.4728 56.6214 66.4849C56.5071 66.5092 56.4092 66.4703 56.3216 66.3395ZM33.8909 70.9879C33.7359 70.9611 33.6137 70.8078 33.669 70.6467C33.6958 70.4917 33.8491 70.3695 34.0102 70.4248C34.1653 70.4516 34.2874 70.6049 34.2321 70.766C34.1992 70.8925 34.1256 70.9678 34.0113 70.9921C33.9481 70.9757 33.9195 70.9818 33.8909 70.9879ZM57.5555 65.5396C57.468 65.4088 57.4887 65.2252 57.6195 65.1377C57.7502 65.0502 57.9338 65.0709 58.0214 65.2016C58.1089 65.3324 58.0882 65.516 57.9574 65.6035C57.9349 65.6382 57.8778 65.6503 57.8492 65.6564C57.7349 65.6807 57.637 65.6418 57.5555 65.5396ZM32.4201 70.6732C32.2651 70.6464 32.1714 70.4871 32.1982 70.332C32.225 70.177 32.3843 70.0834 32.5394 70.1102C32.6944 70.137 32.788 70.2963 32.7613 70.4513C32.7284 70.5778 32.6548 70.6532 32.5405 70.6775C32.5119 70.6836 32.4548 70.6957 32.4201 70.6732ZM58.7487 64.6886C58.6612 64.5578 58.6819 64.3742 58.8066 64.2581C58.9373 64.1705 59.1209 64.1913 59.237 64.3159C59.3246 64.4467 59.3039 64.6303 59.1731 64.7178C59.1506 64.7525 59.0934 64.7646 59.0649 64.7707C58.922 64.8011 58.8241 64.7622 58.7487 64.6886ZM30.9718 70.3239C30.8107 70.2685 30.7171 70.1092 30.7724 69.9481C30.8278 69.787 30.9871 69.6933 31.1482 69.7487C31.3033 69.7755 31.403 69.9634 31.3476 70.1245C31.3087 70.2224 31.2351 70.2978 31.1208 70.3221C31.0636 70.3342 31.0064 70.3464 30.9718 70.3239ZM59.8951 63.7579C59.7789 63.6332 59.7997 63.4496 59.9243 63.3335C60.049 63.2173 60.2326 63.2381 60.3487 63.3627C60.4649 63.4874 60.4441 63.671 60.3195 63.7871C60.2684 63.8279 60.2398 63.8339 60.1826 63.8461C60.0683 63.8704 59.9704 63.8315 59.8951 63.7579ZM29.5338 69.8828C29.3727 69.8274 29.3077 69.662 29.3345 69.507C29.3898 69.3458 29.5552 69.2808 29.7103 69.3076C29.8714 69.363 29.9364 69.5284 29.9097 69.6834C29.8707 69.7813 29.7971 69.8567 29.6828 69.881C29.6542 69.887 29.5971 69.8992 29.5338 69.8828ZM61.0007 62.7761C60.8846 62.6514 60.9053 62.4678 61.0014 62.3578C61.1261 62.2416 61.3097 62.2623 61.4197 62.3584C61.5358 62.4831 61.5151 62.6667 61.419 62.7768C61.3679 62.8175 61.3454 62.8522 61.2883 62.8643C61.174 62.8886 61.0761 62.8497 61.0007 62.7761ZM28.1409 69.3723C27.9798 69.317 27.9147 69.1516 27.9701 68.9904C28.0255 68.8293 28.1909 68.7643 28.352 68.8197C28.5131 68.875 28.5782 69.0404 28.5228 69.2016C28.4839 69.2994 28.4103 69.3748 28.2959 69.3991C28.2388 69.4113 28.1756 69.3948 28.1409 69.3723ZM62.0656 61.7432C61.9495 61.6186 61.9416 61.441 62.0663 61.3249C62.191 61.2088 62.3685 61.2009 62.4846 61.3256C62.6007 61.4503 62.6086 61.6278 62.4839 61.7439C62.4329 61.7846 62.3818 61.8254 62.3246 61.8375C62.2389 61.8557 62.141 61.8168 62.0656 61.7432ZM26.7705 68.8272C26.6093 68.7719 26.5382 68.5779 26.6283 68.4393C26.6836 68.2782 26.8776 68.2071 27.0162 68.2971C27.1773 68.3524 27.2484 68.5464 27.1584 68.685C27.1195 68.7829 27.0398 68.8297 26.9541 68.848C26.8683 68.8662 26.8051 68.8498 26.7705 68.8272ZM63.0612 60.6654C62.9451 60.5407 62.9372 60.3631 63.0333 60.2531C63.1294 60.143 63.3355 60.1291 63.4456 60.2252C63.5556 60.3213 63.5695 60.5274 63.4735 60.6375C63.4224 60.6782 63.3713 60.7189 63.3141 60.7311C63.2284 60.7493 63.1366 60.7389 63.0612 60.6654ZM25.4104 68.1903C25.2778 68.1289 25.2067 67.9349 25.2682 67.8024C25.3296 67.6698 25.5236 67.5987 25.6561 67.6602C25.7948 67.7502 25.8598 67.9156 25.7983 68.0481C25.7533 68.1174 25.6797 68.1928 25.594 68.2111C25.5368 68.2232 25.4797 68.2354 25.4104 68.1903ZM64.0221 59.565C63.9121 59.4689 63.8696 59.2688 63.9657 59.1588C64.0557 59.0202 64.2618 59.0062 64.3719 59.1023C64.5105 59.1923 64.5244 59.3985 64.4283 59.5085C64.3833 59.5778 64.3262 59.59 64.269 59.6021C64.1833 59.6203 64.0914 59.61 64.0221 59.565ZM24.0728 67.5188C23.9342 67.4288 23.8692 67.2634 23.9592 67.1247C24.0492 66.9861 24.2146 66.9211 24.3532 67.0111C24.4918 67.1011 24.5569 67.2665 24.4668 67.4052C24.4218 67.4745 24.3422 67.5213 24.2564 67.5395C24.2278 67.5456 24.136 67.5352 24.0728 67.5188ZM64.9363 58.3849C64.7977 58.2949 64.7898 58.1174 64.8798 57.9787C64.9698 57.8401 65.1474 57.8322 65.286 57.9223C65.4246 58.0123 65.4386 58.2184 65.3425 58.3285C65.2974 58.3978 65.2464 58.4385 65.1606 58.4567C65.1035 58.4689 65.0056 58.4299 64.9363 58.3849ZM22.8027 66.7433C22.6641 66.6532 22.6277 66.4818 22.7177 66.3431C22.8077 66.2045 22.9792 66.1681 23.1178 66.2581C23.2564 66.3481 23.2929 66.5196 23.2028 66.6582C23.1578 66.7275 23.0782 66.7743 23.021 66.7865C22.9353 66.8047 22.872 66.7883 22.8027 66.7433ZM65.7872 57.1884C65.6486 57.0984 65.6121 56.927 65.7021 56.7883C65.7921 56.6497 65.9636 56.6133 66.1022 56.7033C66.2409 56.7933 66.2773 56.9648 66.1873 57.1034C66.1423 57.1727 66.0626 57.2195 66.0055 57.2317C65.9483 57.2438 65.8565 57.2335 65.7872 57.1884ZM21.5266 65.9392C21.388 65.8491 21.3515 65.6777 21.4416 65.5391C21.5316 65.4004 21.703 65.364 21.8417 65.454C21.9803 65.544 22.0167 65.7155 21.9267 65.8541C21.8817 65.9234 21.8306 65.9642 21.7449 65.9824C21.6877 65.9945 21.5959 65.9842 21.5266 65.9392ZM66.5973 55.9409C66.4587 55.8509 66.4223 55.6794 66.5123 55.5408C66.6023 55.4022 66.7738 55.3657 66.9063 55.4272C67.045 55.5172 67.0814 55.6886 66.9914 55.8273C66.9464 55.8966 66.8667 55.9434 66.8096 55.9555C66.7299 56.0023 66.6667 55.9859 66.5973 55.9409ZM20.3301 65.0883C20.1915 64.9982 20.1776 64.7921 20.2737 64.6821C20.3637 64.5435 20.5698 64.5295 20.6798 64.6256C20.8185 64.7156 20.8324 64.9218 20.7363 65.0318C20.6913 65.1011 20.6341 65.1133 20.5484 65.1315C20.4912 65.1436 20.3994 65.1333 20.3301 65.0883ZM67.3096 54.6544C67.171 54.5644 67.106 54.399 67.196 54.2604C67.286 54.1217 67.4514 54.0567 67.59 54.1467C67.7226 54.2082 67.7937 54.4022 67.7037 54.5408C67.6587 54.6101 67.5851 54.6855 67.4993 54.7037C67.4708 54.7098 67.3789 54.6994 67.3096 54.6544ZM19.1501 64.1741C19.04 64.078 18.9975 63.878 19.1222 63.7619C19.2122 63.6232 19.4183 63.6093 19.5345 63.734C19.6445 63.8301 19.687 64.0301 19.5623 64.1462C19.5113 64.187 19.4602 64.2277 19.403 64.2398C19.3112 64.2295 19.2194 64.2191 19.1501 64.1741ZM67.9873 53.3454C67.8261 53.29 67.7836 53.09 67.8451 52.9574C67.9351 52.8188 68.1005 52.7538 68.233 52.8152C68.3941 52.8706 68.4367 53.0706 68.3752 53.2032C68.3363 53.3011 68.2566 53.3479 68.1709 53.3661C68.1137 53.3783 68.0566 53.3904 67.9873 53.3454ZM18.0436 63.1846C17.9275 63.0599 17.9196 62.8824 18.0157 62.7723C18.1118 62.6623 18.318 62.6484 18.428 62.7445C18.5441 62.8691 18.552 63.0467 18.4559 63.1567C18.4048 63.1974 18.3537 63.2382 18.2966 63.2503C18.2108 63.2685 18.119 63.2582 18.0436 63.1846ZM68.6302 52.0139C68.4691 51.9585 68.398 51.7646 68.488 51.6259C68.5434 51.4648 68.7374 51.3937 68.876 51.4837C69.0371 51.5391 69.1082 51.7331 69.0468 51.8656C69.0078 51.9635 68.9282 52.0103 68.8424 52.0285C68.7221 52.0243 68.6649 52.0364 68.6302 52.0139ZM16.9597 62.1604C16.8436 62.0358 16.8357 61.8582 16.9604 61.7421C17.085 61.626 17.2626 61.6181 17.3787 61.7428C17.4948 61.8675 17.5027 62.045 17.378 62.1611C17.3269 62.2019 17.2758 62.2426 17.2473 62.2487C17.1329 62.273 17.0351 62.234 16.9597 62.1604ZM69.1753 50.6435C69.0142 50.5881 68.9492 50.4227 69.0045 50.2616C69.0599 50.1004 69.2253 50.0354 69.3864 50.0908C69.5476 50.1461 69.6126 50.3116 69.5572 50.4727C69.5183 50.5706 69.4447 50.6459 69.3304 50.6702C69.2671 50.6538 69.2386 50.6599 69.1753 50.6435ZM15.9268 61.0955C15.8107 60.9709 15.8314 60.7872 15.9561 60.6711C16.0808 60.555 16.2644 60.5757 16.3805 60.7004C16.4966 60.8251 16.4759 61.0087 16.3512 61.1248C16.3001 61.1655 16.2716 61.1716 16.2144 61.1837C16.1001 61.208 16.0022 61.1691 15.9268 61.0955ZM69.6572 49.2566C69.4961 49.2012 69.4025 49.0419 69.4578 48.8808C69.5132 48.7197 69.6725 48.626 69.8336 48.6814C69.9948 48.7368 70.0884 48.8961 70.033 49.0572C69.9941 49.1551 69.9205 49.2305 69.8062 49.2548C69.749 49.2669 69.7143 49.2444 69.6572 49.2566ZM14.939 59.9613C14.8228 59.8366 14.8436 59.653 14.9682 59.5369C15.0929 59.4208 15.2765 59.4415 15.3926 59.5662C15.5088 59.6908 15.488 59.8745 15.3634 59.9906C15.3409 60.0252 15.2837 60.0374 15.2265 60.0495C15.1183 60.1024 15.0204 60.0635 14.939 59.9613ZM70.0697 47.8247C69.9086 47.7694 69.815 47.61 69.8704 47.4489C69.8971 47.2938 70.0851 47.1942 70.2401 47.221C70.3951 47.2477 70.4948 47.4357 70.468 47.5907C70.4352 47.7172 70.3555 47.764 70.2412 47.7883C70.1615 47.8351 70.133 47.8411 70.0697 47.8247ZM14.0083 58.8149C13.9207 58.6842 13.9414 58.5006 14.0722 58.413C14.2029 58.3255 14.3866 58.3462 14.4741 58.477C14.5616 58.6077 14.5409 58.7913 14.4162 58.9075C14.3937 58.9421 14.3366 58.9543 14.308 58.9603C14.2162 58.95 14.0836 58.8885 14.0083 58.8149ZM70.4251 46.405C70.2701 46.3782 70.1765 46.2189 70.2032 46.0638C70.23 45.9088 70.3894 45.8152 70.5444 45.842C70.6995 45.8687 70.7931 46.0281 70.7663 46.1831C70.7334 46.3096 70.6598 46.385 70.5455 46.4093C70.5109 46.3868 70.4823 46.3928 70.4251 46.405ZM13.1511 57.5932C13.0636 57.4625 13.0843 57.2788 13.2151 57.1913C13.3458 57.1038 13.5295 57.1245 13.617 57.2552C13.7045 57.386 13.6838 57.5696 13.5245 57.6632C13.4959 57.6693 13.4448 57.71 13.4162 57.7161C13.3366 57.7629 13.204 57.7014 13.1511 57.5932ZM70.7398 44.9342C70.5847 44.9074 70.4625 44.7541 70.4893 44.5991C70.5161 44.444 70.6694 44.3219 70.8244 44.3486C70.9795 44.3754 71.1016 44.5287 71.0749 44.6837C71.042 44.8102 70.9684 44.8856 70.8255 44.9159C70.803 44.9506 70.7744 44.9567 70.7398 44.9342ZM12.3226 56.3654C12.2351 56.2346 12.2844 56.0449 12.4151 55.9574C12.5459 55.8699 12.7356 55.9192 12.8231 56.0499C12.9106 56.1807 12.8614 56.3704 12.7306 56.4579C12.702 56.464 12.6795 56.4986 12.6509 56.5047C12.5305 56.5004 12.4041 56.4676 12.3226 56.3654ZM70.9401 43.4877C70.7851 43.4609 70.6629 43.3076 70.6897 43.1526C70.7164 42.9975 70.8697 42.8753 71.0247 42.9021C71.1798 42.9289 71.302 43.0822 71.2752 43.2372C71.2423 43.3637 71.1748 43.4676 71.0319 43.498C70.9973 43.4755 70.9687 43.4816 70.9401 43.4877ZM11.5677 55.0622C11.4801 54.9314 11.5294 54.7417 11.6888 54.6481C11.8195 54.5606 12.0092 54.6099 12.1028 54.7692C12.1904 54.9 12.1411 55.0897 11.9817 55.1833C11.9532 55.1893 11.9246 55.1954 11.896 55.2015C11.7592 55.2604 11.6266 55.199 11.5677 55.0622ZM71.1058 42.0186C70.9568 42.0204 70.8346 41.8672 70.8328 41.7182C70.831 41.5692 70.9843 41.447 71.1333 41.4453C71.2822 41.4435 71.4044 41.5967 71.4062 41.7457C71.4019 41.8661 71.3059 41.9761 71.163 42.0065C71.163 42.0065 71.1344 42.0126 71.1058 42.0186ZM10.8699 53.7468C10.811 53.61 10.8602 53.4203 10.9971 53.3613C11.1339 53.3024 11.3236 53.3517 11.3825 53.4885C11.4415 53.6253 11.3922 53.815 11.2554 53.874C11.2268 53.8801 11.1982 53.8861 11.1982 53.8861C11.0614 53.9451 10.9289 53.8836 10.8699 53.7468ZM71.1797 40.5393C71.0307 40.5411 70.8799 40.3939 70.8781 40.2449C70.8763 40.0959 71.0235 39.9452 71.1725 39.9434C71.3215 39.9416 71.4722 40.0888 71.474 40.2377C71.4758 40.3867 71.3797 40.4967 71.2368 40.5271C71.2368 40.5271 71.2083 40.5332 71.1797 40.5393ZM10.2579 52.4132C10.1928 52.2478 10.2482 52.0867 10.4136 52.0217C10.579 51.9567 10.7401 52.012 10.8052 52.1774C10.8641 52.3143 10.8148 52.504 10.6494 52.569C10.6208 52.5751 10.6208 52.5751 10.5923 52.5811C10.4494 52.6115 10.3107 52.5215 10.2579 52.4132ZM71.1964 39.072C71.0474 39.0738 70.9027 38.9552 70.8948 38.7777C70.887 38.6001 71.0116 38.484 71.1892 38.4762C71.3382 38.4744 71.4829 38.593 71.4907 38.7705C71.4925 38.9195 71.3964 39.0295 71.2535 39.0599C71.225 39.066 71.225 39.066 71.1964 39.072ZM9.66833 51.045C9.6033 50.8796 9.68724 50.7124 9.82407 50.6535C9.96089 50.5945 10.1567 50.6724 10.187 50.8153C10.246 50.9521 10.1681 51.1479 10.0252 51.1783C9.99665 51.1843 9.99665 51.1843 9.96807 51.1904C9.88841 51.2372 9.72121 51.1533 9.66833 51.045ZM71.1499 37.5884C71.0009 37.5902 70.8562 37.4716 70.8258 37.3287C70.8179 37.1511 70.9426 37.035 71.0855 37.0046C71.2345 37.0029 71.3792 37.1215 71.4096 37.2644C71.4114 37.4133 71.3213 37.5519 71.1784 37.5823C71.1499 37.5884 71.1499 37.5884 71.1499 37.5884ZM9.18704 49.6239C9.12201 49.4585 9.20595 49.2913 9.37743 49.2548C9.54283 49.1898 9.71003 49.2738 9.74648 49.4452C9.80543 49.5821 9.72149 49.7493 9.55609 49.8143L9.52751 49.8204C9.38461 49.8507 9.21741 49.7668 9.18704 49.6239ZM71.0176 36.123C70.8461 36.1594 70.7014 36.0408 70.6936 35.8633C70.6632 35.7204 70.7757 35.5471 70.9533 35.5392C71.0962 35.5088 71.2694 35.6214 71.2773 35.7989C71.2791 35.9479 71.1891 36.0865 71.0176 36.123ZM8.73432 48.1967C8.69788 48.0252 8.7879 47.8866 8.92472 47.8277C9.0962 47.7912 9.23481 47.8812 9.29377 48.0181C9.33022 48.1895 9.2402 48.3282 9.10337 48.3871C9.10337 48.3871 9.10337 48.3871 9.07479 48.3932C8.93797 48.4521 8.77077 48.3682 8.73432 48.1967ZM70.8221 34.6411C70.6506 34.6775 70.5059 34.5589 70.4695 34.3875C70.433 34.216 70.5516 34.0713 70.7231 34.0349C70.866 34.0045 71.0393 34.117 71.0697 34.2599C71.0836 34.466 70.9936 34.6046 70.8221 34.6411ZM8.36735 46.7513C8.3309 46.5798 8.42092 46.4412 8.5924 46.4048C8.7353 46.3744 8.9025 46.4583 8.93894 46.6298C8.97539 46.8013 8.88537 46.9399 8.7139 46.9764C8.571 47.0067 8.4038 46.9228 8.36735 46.7513ZM70.2004 32.981C70.1639 32.8095 70.2825 32.6648 70.4254 32.6345C70.5683 32.6041 70.7416 32.7166 70.772 32.8595C70.8084 33.031 70.6898 33.1757 70.5469 33.206C70.404 33.2364 70.2308 33.1239 70.2004 32.981ZM8.41016 45.5474C8.23868 45.5838 8.09399 45.4652 8.06361 45.3223C8.02716 45.1508 8.14576 45.0062 8.28866 44.9758C8.46014 44.9393 8.60483 45.0579 8.6352 45.2008C8.66558 45.3437 8.58163 45.5109 8.41016 45.5474ZM69.9106 31.7581C69.8741 31.5867 69.9642 31.4481 70.1296 31.383C70.3011 31.3466 70.4397 31.4366 70.5047 31.602C70.5411 31.7735 70.4511 31.9121 70.2796 31.9485C70.1142 32.0136 69.9756 31.9235 69.9106 31.7581ZM8.1575 44.0777C7.98602 44.1141 7.84133 43.9955 7.83346 43.818C7.79701 43.6465 7.91561 43.5018 8.09316 43.4939C8.23606 43.4635 8.40934 43.5761 8.4172 43.7536C8.419 43.9026 8.32898 44.0412 8.1575 44.0777ZM69.5211 30.3474C69.4847 30.1759 69.5747 30.0373 69.7115 29.9783C69.883 29.9419 70.0216 30.0319 70.0806 30.1687C70.1109 30.3116 70.027 30.4788 69.8902 30.5378L69.8616 30.5439C69.7187 30.5742 69.5801 30.4842 69.5211 30.3474ZM7.96808 42.6244C7.79053 42.6322 7.64584 42.5136 7.64404 42.3647C7.64225 42.2157 7.76085 42.071 7.90374 42.0406C8.0813 42.0328 8.22599 42.1514 8.22778 42.3003C8.22958 42.4493 8.13956 42.5879 7.99666 42.6183C7.99666 42.6183 7.99666 42.6183 7.96808 42.6244ZM69.0745 28.9488C69.0095 28.7834 69.0934 28.6162 69.2649 28.5797C69.4017 28.5208 69.5975 28.5986 69.6339 28.7701C69.699 28.9355 69.615 29.1027 69.4435 29.1392L69.415 29.1452C69.2721 29.1756 69.1334 29.0856 69.0745 28.9488ZM7.8644 41.1529C7.71543 41.1547 7.57073 41.0361 7.56286 40.8585C7.56107 40.7095 7.67967 40.5649 7.85722 40.557C8.00619 40.5552 8.15089 40.6738 8.15876 40.8513C8.16055 41.0003 8.06446 41.1103 7.92156 41.1407C7.89298 41.1468 7.89298 41.1468 7.8644 41.1529ZM68.5482 27.597C68.4832 27.4316 68.5671 27.2644 68.7039 27.2054C68.8407 27.1465 69.0365 27.2243 69.0955 27.3612C69.1605 27.5266 69.0766 27.6938 68.9397 27.7527C68.9112 27.7588 68.9112 27.7588 68.8826 27.7649C68.7397 27.7952 68.6071 27.7338 68.5482 27.597ZM7.81788 39.6692C7.6689 39.671 7.51814 39.5238 7.51634 39.3749C7.51455 39.2259 7.63315 39.0812 7.8107 39.0733C7.98825 39.0655 8.11044 39.2187 8.11223 39.3677C8.11403 39.5167 8.01793 39.6267 7.87503 39.6571C7.84646 39.6631 7.84646 39.6631 7.81788 39.6692ZM67.9647 26.2573C67.9058 26.1205 67.9551 25.9308 68.1205 25.8658C68.2573 25.8068 68.447 25.8561 68.512 26.0215C68.571 26.1583 68.5217 26.348 68.3563 26.4131C68.3277 26.4191 68.3277 26.4191 68.2991 26.4252C68.1562 26.4556 68.0237 26.3941 67.9647 26.2573ZM7.83459 38.202C7.68561 38.2038 7.53485 38.0566 7.56163 37.9016C7.55984 37.7526 7.70702 37.6018 7.86206 37.6286C8.01104 37.6268 8.1618 37.774 8.13502 37.929C8.13074 38.0494 8.04072 38.1881 7.89782 38.2184C7.89175 38.1898 7.86317 38.1959 7.83459 38.202ZM67.3241 24.9298C67.2366 24.7991 67.3144 24.6033 67.4513 24.5443C67.582 24.4568 67.7778 24.5347 67.8367 24.6715C67.9243 24.8023 67.8464 24.998 67.7096 25.057C67.681 25.0631 67.6524 25.0691 67.6238 25.0752C67.5156 25.1281 67.3831 25.0666 67.3241 24.9298ZM7.93704 36.7165C7.78199 36.6898 7.66588 36.5651 7.65801 36.3875C7.68479 36.2325 7.80947 36.1164 7.98702 36.1085C8.14207 36.1353 8.25818 36.26 8.26605 36.4375C8.26177 36.5579 8.16567 36.6679 8.02278 36.6983C8.00027 36.733 7.96562 36.7105 7.93704 36.7165ZM66.6099 23.6777C66.5224 23.547 66.5716 23.3573 66.7024 23.2697C66.8331 23.1822 67.0228 23.2315 67.1104 23.3622C67.1979 23.493 67.1486 23.6827 67.0179 23.7702C66.9893 23.7763 66.9668 23.8109 66.9382 23.817C66.8178 23.8127 66.6914 23.7799 66.6099 23.6777ZM8.10272 35.2475C7.94767 35.2207 7.82549 35.0675 7.85227 34.9124C7.87906 34.7574 8.03231 34.6352 8.18736 34.662C8.34241 34.6888 8.46459 34.842 8.43781 34.9971C8.43353 35.1175 8.33743 35.2275 8.22311 35.2518C8.16595 35.264 8.1313 35.2415 8.10272 35.2475ZM65.861 22.4031C65.7735 22.2723 65.8228 22.0826 65.9535 21.9951C66.0843 21.9076 66.274 21.9569 66.3615 22.0876C66.4491 22.2183 66.3998 22.408 66.269 22.4956C66.2404 22.5017 66.2179 22.5363 66.1608 22.5485C66.0465 22.5728 65.9139 22.5113 65.861 22.4031ZM8.33164 33.7949C8.17659 33.7682 8.0544 33.6149 8.10977 33.4538C8.13655 33.2987 8.28981 33.1765 8.45093 33.2319C8.60598 33.2587 8.72817 33.4119 8.6728 33.5731C8.63994 33.6995 8.56635 33.7749 8.45203 33.7992C8.42345 33.8053 8.36022 33.7889 8.33164 33.7949ZM65.0386 21.2038C64.951 21.0731 64.9718 20.8895 65.1025 20.8019C65.2332 20.7144 65.4169 20.7351 65.5044 20.8659C65.5919 20.9966 65.5712 21.1802 65.4405 21.2678C65.4119 21.2738 65.3608 21.3146 65.3322 21.3206C65.2179 21.3449 65.0915 21.3121 65.0386 21.2038ZM8.61772 32.3302C8.46267 32.3034 8.36906 32.1441 8.38977 31.9605C8.41656 31.8054 8.57588 31.7118 8.73093 31.7386C8.88598 31.7654 8.97959 31.9247 8.95888 32.1083C8.92602 32.2348 8.85243 32.3102 8.73811 32.3345C8.70953 32.3406 8.68095 32.3466 8.61772 32.3302ZM64.1365 20.0514C64.0489 19.9206 64.0696 19.737 64.2004 19.6495C64.3311 19.562 64.5087 19.5541 64.6248 19.6788C64.7123 19.8095 64.6916 19.9931 64.5669 20.1092C64.5444 20.1439 64.4873 20.1561 64.4301 20.1682C64.3444 20.1864 64.2179 20.1536 64.1365 20.0514ZM9.00168 30.9044C8.84056 30.849 8.74695 30.6897 8.80232 30.5286C8.85768 30.3675 9.01701 30.2739 9.17813 30.3292C9.33925 30.3846 9.43286 30.5439 9.3775 30.705C9.33856 30.8029 9.26497 30.8783 9.15066 30.9026C9.0935 30.9148 9.06492 30.9208 9.00168 30.9044ZM63.2118 18.9336C63.0957 18.8089 63.1164 18.6253 63.2411 18.5092C63.3658 18.3931 63.5494 18.4138 63.6655 18.5385C63.7816 18.6631 63.7609 18.8468 63.6363 18.9629C63.5852 19.0036 63.5566 19.0097 63.4994 19.0218C63.4137 19.0401 63.2872 19.0072 63.2118 18.9336ZM9.44888 29.495C9.28776 29.4397 9.22273 29.2743 9.2781 29.1131C9.33346 28.952 9.49887 28.887 9.65999 28.9424C9.82111 28.9977 9.88614 29.1631 9.83077 29.3242C9.79184 29.4221 9.71825 29.4975 9.60393 29.5218C9.5407 29.5054 9.48354 29.5175 9.44888 29.495ZM62.2361 17.8566C62.12 17.7319 62.1122 17.5543 62.2368 17.4382C62.3615 17.3221 62.5451 17.3428 62.6552 17.4389C62.7713 17.5636 62.7791 17.7411 62.6545 17.8573C62.6034 17.898 62.5748 17.9041 62.5176 17.9162C62.4033 17.9405 62.3115 17.9301 62.2361 17.8566ZM9.93074 28.1082C9.76962 28.0528 9.70459 27.8874 9.75995 27.7263C9.81532 27.5651 9.98072 27.5001 10.1418 27.5555C10.303 27.6108 10.368 27.7762 10.3126 27.9374C10.2737 28.0353 10.2001 28.1106 10.1144 28.1289C10.0572 28.141 9.99397 28.1246 9.93074 28.1082ZM61.2093 16.8202C61.0932 16.6956 61.0854 16.518 61.21 16.4019C61.3347 16.2858 61.5123 16.2779 61.6284 16.4026C61.7445 16.5273 61.7524 16.7048 61.6277 16.8209C61.5766 16.8617 61.5255 16.9024 61.4683 16.9145C61.3765 16.9042 61.2787 16.8652 61.2093 16.8202ZM10.5044 26.7316C10.3433 26.6763 10.2722 26.4823 10.3622 26.3437C10.4176 26.1826 10.6115 26.1115 10.7502 26.2015C10.9113 26.2568 10.9538 26.4569 10.8924 26.5894C10.8534 26.6873 10.7738 26.7341 10.688 26.7524C10.6309 26.7645 10.5737 26.7767 10.5044 26.7316ZM60.1315 15.8246C60.0214 15.7285 60.0075 15.5224 60.1036 15.4124C60.2283 15.2963 60.4058 15.2884 60.5158 15.3845C60.6259 15.4806 60.6398 15.6867 60.5437 15.7968C60.4926 15.8375 60.4416 15.8782 60.3844 15.8904C60.2987 15.9086 60.2068 15.8982 60.1315 15.8246ZM11.1188 25.4062C10.9802 25.3162 10.9152 25.1508 10.9766 25.0183C11.0666 24.8796 11.232 24.8146 11.3706 24.9046C11.5032 24.9661 11.5743 25.16 11.5128 25.2926C11.4678 25.3619 11.3942 25.4373 11.3085 25.4555C11.2453 25.4391 11.182 25.4226 11.1188 25.4062ZM59.0086 14.8984C58.8985 14.8023 58.856 14.6022 58.9521 14.4922C59.0421 14.3535 59.2483 14.3396 59.3583 14.4357C59.4969 14.5257 59.5109 14.7318 59.4148 14.8419C59.3698 14.9112 59.3126 14.9233 59.2269 14.9416C59.1697 14.9537 59.0779 14.9434 59.0086 14.8984ZM11.825 24.0911C11.6864 24.0011 11.6214 23.8357 11.7114 23.6971C11.8014 23.5585 11.9668 23.4935 12.1054 23.5835C12.244 23.6735 12.2805 23.845 12.2191 23.9775C12.174 24.0468 12.0944 24.0936 12.0086 24.1119C11.9576 24.1526 11.8943 24.1362 11.825 24.0911ZM57.8346 14.0128C57.696 13.9228 57.682 13.7166 57.7781 13.6066C57.8682 13.468 58.0396 13.4315 58.1843 13.5501C58.323 13.6402 58.3369 13.8463 58.2408 13.9563C58.1958 14.0256 58.1447 14.0664 58.059 14.0846C57.9957 14.0682 57.9039 14.0578 57.8346 14.0128ZM12.572 22.8272C12.4333 22.7371 12.3969 22.5657 12.4869 22.427C12.5769 22.2884 12.7484 22.252 12.887 22.342C13.0256 22.432 13.0621 22.6035 12.9721 22.7421C12.9271 22.8114 12.8474 22.8582 12.7902 22.8704C12.7045 22.8886 12.6413 22.8722 12.572 22.8272ZM56.6156 13.1965C56.477 13.1065 56.4406 12.935 56.5306 12.7964C56.6206 12.6578 56.7921 12.6214 56.9307 12.7114C57.0693 12.8014 57.1058 12.9729 57.0157 13.1115C56.9707 13.1808 56.8911 13.2276 56.8339 13.2398C56.7768 13.2519 56.6849 13.2416 56.6156 13.1965ZM13.3821 21.5796C13.2435 21.4896 13.2071 21.3181 13.2971 21.1795C13.3871 21.0409 13.5586 21.0044 13.6972 21.0944C13.8358 21.1845 13.8723 21.3559 13.7537 21.5006C13.7087 21.5699 13.6576 21.6107 13.5718 21.6289C13.5147 21.641 13.4514 21.6246 13.3821 21.5796ZM55.3741 12.415C55.2355 12.3249 55.1991 12.1535 55.2605 12.0209C55.3505 11.8823 55.522 11.8458 55.6546 11.9073C55.7932 11.9973 55.8296 12.1688 55.7682 12.3013C55.7232 12.3706 55.6435 12.4174 55.5578 12.4357C55.5353 12.4703 55.4435 12.46 55.3741 12.415ZM14.233 20.3831C14.0944 20.2931 14.0805 20.087 14.1766 19.9769C14.2666 19.8383 14.4727 19.8244 14.5828 19.9205C14.7214 20.0105 14.7353 20.2166 14.6392 20.3267C14.5942 20.396 14.537 20.4081 14.4513 20.4263C14.4002 20.4671 14.3084 20.4567 14.233 20.3831ZM54.0877 11.7027C53.949 11.6126 53.884 11.4472 53.974 11.3086C54.0641 11.17 54.2294 11.105 54.3681 11.195C54.5067 11.285 54.5717 11.4504 54.4817 11.589C54.4367 11.6583 54.3631 11.7337 54.2774 11.752C54.2488 11.758 54.157 11.7477 54.0877 11.7027ZM15.1532 19.2317C15.0432 19.1356 15.0007 18.9355 15.1254 18.8194C15.2214 18.7094 15.4215 18.6668 15.5376 18.7915C15.6477 18.8876 15.6902 19.0877 15.5655 19.2038C15.5144 19.2445 15.4633 19.2852 15.4062 19.2974C15.3204 19.3156 15.2286 19.3052 15.1532 19.2317ZM52.7847 11.0536C52.6236 10.9982 52.5811 10.7982 52.6425 10.6656C52.6979 10.5045 52.8979 10.462 53.0305 10.5234C53.1916 10.5788 53.2341 10.7789 53.1727 10.9114C53.1338 11.0093 53.0541 11.0561 52.9684 11.0743C52.9112 11.0865 52.848 11.07 52.7847 11.0536ZM16.1142 18.1313C15.9981 18.0066 15.9902 17.8291 16.0863 17.719C16.211 17.6029 16.3885 17.595 16.4986 17.6911C16.6147 17.8158 16.6225 17.9934 16.5264 18.1034C16.4754 18.1441 16.4243 18.1848 16.3671 18.197C16.2814 18.2152 16.1835 18.1763 16.1142 18.1313ZM51.4654 10.4678C51.3043 10.4124 51.2332 10.2184 51.2946 10.0859C51.35 9.92478 51.5154 9.85976 51.6765 9.91512C51.8376 9.97048 51.9026 10.1359 51.8473 10.297C51.8083 10.3949 51.7347 10.4703 51.649 10.4885C51.5633 10.5067 51.5 10.4903 51.4654 10.4678ZM17.1384 17.0473C17.0222 16.9227 17.0144 16.7451 17.139 16.629C17.2637 16.5129 17.4413 16.505 17.5574 16.6297C17.6735 16.7544 17.6814 16.9319 17.5567 17.048C17.5056 17.0888 17.4545 17.1295 17.4259 17.1356C17.3116 17.1599 17.2137 17.1209 17.1384 17.0473ZM50.0949 9.92271C49.9338 9.86734 49.8688 9.70194 49.9242 9.54082C49.9795 9.37969 50.1449 9.31467 50.306 9.37003C50.4672 9.4254 50.5322 9.5908 50.4768 9.75192C50.4379 9.84981 50.3643 9.92519 50.25 9.94949C50.1928 9.96164 50.1357 9.97379 50.0949 9.92271ZM18.2093 16.043C18.0932 15.9184 18.1139 15.7347 18.2386 15.6186C18.3633 15.5025 18.5469 15.5232 18.663 15.6479C18.7791 15.7726 18.7584 15.9562 18.6337 16.0723C18.5827 16.113 18.5541 16.1191 18.4969 16.1313C18.3826 16.1556 18.2847 16.1166 18.2093 16.043ZM48.6856 9.47551C48.5244 9.42014 48.4308 9.26081 48.4862 9.09969C48.5416 8.93857 48.7009 8.84496 48.862 8.90033C49.0231 8.95569 49.1167 9.11502 49.0614 9.27614C49.0224 9.37403 48.9489 9.44941 48.8345 9.47371C48.806 9.47979 48.7488 9.49194 48.6856 9.47551ZM19.315 15.0613C19.2274 14.9305 19.2481 14.7469 19.3442 14.6368C19.475 14.5493 19.6525 14.5414 19.7687 14.6661C19.8848 14.7908 19.8641 14.9744 19.7394 15.0905C19.6883 15.1313 19.6597 15.1373 19.6026 15.1495C19.4943 15.2024 19.3964 15.1634 19.315 15.0613ZM47.2883 9.08547C47.1333 9.05868 47.0336 8.87077 47.0604 8.71573C47.0872 8.56068 47.2751 8.461 47.4301 8.48778C47.5852 8.51457 47.6849 8.70248 47.6581 8.85752C47.6252 8.98399 47.5516 9.05937 47.4373 9.08367C47.3802 9.09582 47.323 9.10797 47.2883 9.08547ZM20.4674 14.1591C20.3799 14.0284 20.4006 13.8448 20.5313 13.7572C20.6621 13.6697 20.8457 13.6904 20.9332 13.8212C21.0208 13.9519 21.0001 14.1355 20.8693 14.2231C20.8468 14.2577 20.7897 14.2699 20.7611 14.276C20.6753 14.2942 20.5489 14.2613 20.4674 14.1591ZM45.8747 8.75866C45.7196 8.73188 45.5975 8.57862 45.6528 8.4175C45.6796 8.26245 45.8389 8.16884 45.994 8.19563C46.149 8.22242 46.2426 8.38174 46.2158 8.53679C46.183 8.66326 46.1094 8.73864 45.9951 8.76294C45.9318 8.74651 45.9033 8.75259 45.8747 8.75866ZM21.6606 13.3081C21.573 13.1774 21.6223 12.9877 21.7531 12.9001C21.8838 12.8126 22.0675 12.8333 22.1611 12.9926C22.2486 13.1234 22.2279 13.307 22.0686 13.4006C22.04 13.4067 22.0175 13.4413 21.9603 13.4535C21.8685 13.4431 21.742 13.4103 21.6606 13.3081ZM44.41 8.47258C44.2549 8.4458 44.1327 8.29254 44.1595 8.1375C44.1863 7.98245 44.3395 7.86026 44.4946 7.88705C44.6496 7.91383 44.7718 8.06709 44.745 8.22213C44.7122 8.3486 44.6447 8.45257 44.5018 8.48294C44.5018 8.48294 44.4446 8.49509 44.41 8.47258ZM22.923 12.5021C22.8355 12.3713 22.8848 12.1816 23.0156 12.0941C23.1463 12.0066 23.336 12.0559 23.4235 12.1866C23.5111 12.3174 23.4618 12.5071 23.331 12.5946C23.3025 12.6007 23.2799 12.6353 23.2514 12.6414C23.1085 12.6718 22.9759 12.6103 22.923 12.5021ZM42.9695 8.30082C42.8145 8.27404 42.6984 8.14937 42.7191 7.96574C42.7459 7.81069 42.8991 7.6885 43.0542 7.71529C43.2092 7.74207 43.3253 7.86675 43.3046 8.05038C43.3003 8.17077 43.2042 8.28081 43.0613 8.31118C43.0267 8.28867 42.9981 8.29475 42.9695 8.30082ZM24.1977 11.7532C24.1101 11.6225 24.1594 11.4328 24.3188 11.3392C24.4495 11.2516 24.6392 11.3009 24.7042 11.4663C24.7918 11.5971 24.7425 11.7868 24.5832 11.8804C24.5546 11.8865 24.526 11.8925 24.4974 11.8986C24.3831 11.9229 24.2506 11.8615 24.1977 11.7532ZM41.5066 8.16372C41.3515 8.13693 41.2354 8.01226 41.2336 7.86329C41.2604 7.70824 41.379 7.56355 41.534 7.59033C41.683 7.58854 41.8052 7.74179 41.807 7.89076C41.8027 8.01116 41.7066 8.1212 41.5637 8.15157C41.5637 8.15157 41.5352 8.15764 41.5066 8.16372ZM25.4844 11.0615C25.4255 10.9247 25.4748 10.735 25.6116 10.676C25.7484 10.6171 25.9381 10.6664 25.9971 10.8032C26.056 10.94 26.0068 11.1297 25.8699 11.1887C25.8413 11.1948 25.8128 11.2008 25.8128 11.2008C25.6759 11.2598 25.5434 11.1983 25.4844 11.0615ZM40.0618 8.11235C39.8843 8.12022 39.7621 7.96697 39.7603 7.818C39.7585 7.66902 39.9057 7.51826 40.0547 7.51646C40.2036 7.51467 40.3544 7.66185 40.3562 7.81082C40.358 7.95979 40.2619 8.06983 40.119 8.1002C40.0904 8.10628 40.0618 8.11235 40.0618 8.11235ZM26.8466 10.4434C26.7816 10.278 26.8369 10.1169 27.0023 10.0519C27.1392 9.9929 27.3289 10.0422 27.3939 10.2076C27.4529 10.3444 27.4036 10.5341 27.2382 10.5991C27.2096 10.6052 27.2096 10.6052 27.181 10.6113C27.0381 10.6417 26.877 10.5863 26.8466 10.4434ZM38.6007 8.12422C38.4232 8.13209 38.307 8.00742 38.2992 7.82987C38.2974 7.68089 38.416 7.5362 38.5935 7.52833C38.7425 7.52654 38.8872 7.64514 38.8951 7.82269C38.8969 7.97166 38.8008 8.0817 38.6579 8.11207C38.6293 8.11815 38.6007 8.12422 38.6007 8.12422ZM28.1923 9.88853C28.1334 9.7517 28.2113 9.55593 28.3827 9.51948C28.5196 9.46052 28.7153 9.53839 28.7518 9.70987C28.8107 9.84669 28.7329 10.0425 28.5614 10.0789C28.5328 10.085 28.5328 10.085 28.5328 10.085C28.3899 10.1154 28.2513 10.0253 28.1923 9.88853ZM37.1231 8.19932C36.9742 8.20112 36.8295 8.08252 36.7991 7.93962C36.7973 7.79065 36.9159 7.64596 37.0588 7.61558C37.2078 7.61379 37.3524 7.73239 37.3828 7.87529C37.3846 8.02426 37.2946 8.16288 37.1517 8.19325L37.1231 8.19932ZM29.5849 9.41331C29.5484 9.24183 29.6324 9.07463 29.7753 9.04426C29.9407 8.97923 30.0854 9.09783 30.1443 9.23465C30.1747 9.37755 30.0907 9.54475 29.9539 9.6037L29.9253 9.60978C29.7824 9.64015 29.6438 9.55013 29.5849 9.41331ZM35.6577 8.33159C35.4801 8.33946 35.3415 8.24944 35.3337 8.07188C35.3033 7.92899 35.4158 7.75571 35.5934 7.74784C35.7363 7.71747 35.9095 7.83 35.9174 8.00755C35.9478 8.15045 35.8292 8.29514 35.6577 8.33159C35.6863 8.32551 35.6863 8.32551 35.6577 8.33159ZM31.0121 8.9606C30.9756 8.78912 31.0656 8.6505 31.231 8.58547C31.4025 8.54902 31.5411 8.63904 31.6001 8.77587C31.6365 8.94735 31.5465 9.08596 31.3811 9.15099C31.1871 9.22209 31.0485 9.13207 31.0121 8.9606ZM34.2105 8.54959C34.039 8.58604 33.8943 8.46744 33.8639 8.32454C33.8275 8.15306 33.9461 8.00837 34.089 7.97799C34.2605 7.94155 34.4052 8.06014 34.4416 8.23162C34.5006 8.36845 34.382 8.51314 34.2105 8.54959ZM32.4289 8.5997C32.3985 8.4568 32.511 8.28353 32.6539 8.25315C32.8254 8.2167 32.964 8.30672 33.0005 8.4782C33.0369 8.64968 32.9183 8.79437 32.7754 8.82475C32.6325 8.85512 32.4653 8.77118 32.4289 8.5997Z" fill="#E2001A"/>
<path d="M20.0989 46.4505L18.3269 46.8272L17.118 41.1398L15.2032 41.5468L16.4121 47.2342L14.6116 47.6169L13.0625 40.3291L18.5498 39.1627L20.0989 46.4505Z" fill="#E2001A"/>
<path d="M25.9061 40.4668C25.9487 40.6669 26.038 40.9466 26.123 41.3467C26.2081 41.7468 26.2688 42.0326 26.2828 42.2387C26.3253 42.4388 26.3453 42.6735 26.3489 42.9715C26.3811 43.2633 26.3439 43.5102 26.2721 43.7345C26.2004 43.9589 26.1 44.1893 25.9649 44.3973C25.5374 45.0557 24.9347 45.4526 24.1059 45.6288C23.2771 45.805 22.5651 45.6875 21.9066 45.2599C21.6987 45.1248 21.5133 44.9552 21.3565 44.7794C21.1996 44.6036 21.0878 44.3586 20.9759 44.1135C20.8866 43.8338 20.8094 43.6112 20.7383 43.4172C20.6958 43.2172 20.6065 42.9375 20.5214 42.5374C20.4364 42.1372 20.3756 41.8514 20.3617 41.6453C20.3192 41.4453 20.2992 41.2105 20.2956 40.9126C20.2634 40.6207 20.3005 40.3739 20.3723 40.1495C20.4441 39.9252 20.5445 39.6947 20.6795 39.4868C21.1071 38.8284 21.7098 38.4314 22.5386 38.2553C23.3674 38.0791 24.0794 38.1966 24.7378 38.6242C24.9458 38.7592 25.1312 38.9289 25.288 39.1046C25.4449 39.2804 25.5567 39.5255 25.6685 39.7705C25.7864 40.0442 25.8636 40.2667 25.9061 40.4668ZM24.5327 42.9991C24.5126 42.7644 24.4501 42.3296 24.3225 41.7294C24.195 41.1292 24.0753 40.7066 23.9981 40.4841C23.9209 40.2615 23.7987 40.1082 23.6887 40.0121C23.4747 39.8485 23.2217 39.7828 22.9074 39.8496C22.593 39.9165 22.3887 40.0794 22.2597 40.3159C22.1983 40.4484 22.149 40.6381 22.169 40.8728C22.189 41.1076 22.2515 41.5423 22.3791 42.1425C22.5067 42.7427 22.6264 43.1653 22.7036 43.3878C22.7807 43.6104 22.9029 43.7637 23.013 43.8598C23.233 44.0519 23.4799 44.0891 23.7943 44.0223C24.1087 43.9554 24.313 43.7925 24.4419 43.556C24.5034 43.4235 24.5241 43.2398 24.5327 42.9991Z" fill="#E2001A"/>
<path d="M33.6172 43.5773L31.8167 43.96L31.2031 41.0735L29.2883 41.4805L29.9018 44.367L28.1013 44.7497L26.5522 37.4619L28.3528 37.0792L28.9481 39.88L30.8629 39.473L30.2676 36.6722L32.0681 36.2895L33.6172 43.5773Z" fill="#E2001A"/>
<path d="M41.0192 42.0038L39.1329 42.4047L38.5591 41.3916L36.3299 41.8654L36.1892 43.0304L34.303 43.4314L35.4118 35.5786L36.7836 35.287L41.0192 42.0038ZM37.8146 39.9966L36.8013 38.1807L36.557 40.2639L37.8146 39.9966Z" fill="#E2001A"/>
<path d="M48.646 41.9069L46.9312 42.2714L46.6154 40.7852L43.1001 41.5324L43.4159 43.0186L41.7012 43.3831L41.0512 40.325L41.7657 40.1732C41.8771 39.4326 41.9131 38.6184 41.8573 37.7939C41.7955 36.9408 41.634 35.8998 41.3667 34.6423L41.2998 34.3279L45.9869 33.3316L47.1958 39.019L48.0246 38.8428L48.6746 41.9008L48.646 41.9069ZM45.3953 39.4017L44.5266 35.3148L43.3834 35.5578L43.4259 35.7578C43.7175 37.1297 43.7622 38.4643 43.5948 39.7844L45.3953 39.4017Z" fill="#E2001A"/>
<path d="M62.9182 30.7777C62.9729 31.0349 62.9297 31.2532 62.7886 31.4325C62.6475 31.6119 62.4371 31.7462 62.2084 31.7948C61.9798 31.8434 61.7329 31.8063 61.5311 31.6998C61.3292 31.5934 61.201 31.4115 61.1463 31.1543L61.0248 30.5827C60.9701 30.3255 61.0133 30.1072 61.1544 29.9279C61.2955 29.7485 61.506 29.6142 61.7346 29.5656C61.9632 29.517 62.2101 29.5541 62.412 29.6606C62.6138 29.767 62.7421 29.9489 62.7967 30.2061L62.9182 30.7777ZM62.2262 30.8949L62.1169 30.3805C62.0865 30.2376 62.0111 30.164 61.8682 30.1943C61.7254 30.2247 61.6864 30.3226 61.7168 30.4655L61.8261 30.9799C61.8565 31.1228 61.9319 31.1964 62.0748 31.166C62.1891 31.1417 62.2566 31.0378 62.2262 30.8949ZM64.5129 29.0049L63.3889 33.6946L62.6458 33.8525L63.7698 29.1629L64.5129 29.0049ZM66.1339 32.2747C66.1886 32.5319 66.1454 32.7502 66.0043 32.9296C65.8632 33.1089 65.6528 33.2433 65.4241 33.2919C65.1669 33.3465 64.9547 33.3319 64.7468 33.1969C64.5449 33.0904 64.4167 32.9086 64.362 32.6514L64.2405 32.0798C64.1858 31.8226 64.229 31.6043 64.3701 31.4249C64.5112 31.2456 64.7216 31.1112 64.9503 31.0626C65.2075 31.008 65.4258 31.0512 65.6276 31.1576C65.8295 31.2641 65.9577 31.4459 66.0124 31.7031L66.1339 32.2747ZM65.4419 32.3919L65.3326 31.8775C65.3022 31.7346 65.2268 31.661 65.0839 31.6914C64.941 31.7218 64.9021 31.8197 64.9325 31.9626L65.0418 32.477C65.0722 32.6199 65.1476 32.6935 65.2905 32.6631C65.4048 32.6388 65.4723 32.5348 65.4419 32.3919Z" fill="#E2001A"/>
<path d="M45.3794 22.1585C45.2457 21.5297 44.7077 21.1064 44.0711 21.0625C44.0425 21.0686 44.0364 21.04 44.065 21.0339C44.8081 20.876 45.2807 20.1482 45.1227 19.4052C44.9648 18.6621 44.2371 18.1895 43.494 18.3474C42.7509 18.5054 41.6649 18.7362 40.7564 18.9592C40.1909 19.1093 39.0763 19.3462 38.2986 19.4816C37.8699 19.5728 37.493 19.2048 37.5569 18.8029C37.7019 17.5175 37.9547 15.1936 37.9232 14.4834C37.8852 12.7589 35.2037 12.7912 34.9341 14.1927C34.7155 15.5535 33.619 19.6698 31.6528 21.5215C31.432 21.7477 31.3213 22.0699 31.3881 22.3843L32.9754 29.9926C33.0665 30.4213 35.1465 31.3532 37.6901 30.8125L43.4632 29.5854L44.8064 29.2999C45.5495 29.142 46.0221 28.4142 45.8641 27.6712C45.7305 27.0424 45.1924 26.6191 44.5558 26.5752C44.5272 26.5813 44.5212 26.5527 44.5497 26.5466C45.2928 26.3887 45.7654 25.6609 45.6075 24.9179C45.4738 24.2891 44.9358 23.8658 44.2992 23.8219C44.2706 23.828 44.2645 23.7994 44.2931 23.7933C45.0647 23.6293 45.5373 22.9016 45.3794 22.1585Z" fill="#E2001A"/>
<path d="M29.0665 21.8613L26.18 22.4749C25.6084 22.5964 25.2769 23.1448 25.3923 23.6878L27.0203 31.3471C27.1418 31.9187 27.6902 32.2502 28.2333 32.1348L31.1198 31.5212C31.6914 31.3997 32.0229 30.8514 31.9075 30.3083L30.2794 22.649C30.1354 22.1121 29.6095 21.7459 29.0665 21.8613ZM29.3585 30.4021C28.9298 30.4932 28.5139 30.2231 28.4228 29.7944C28.3317 29.3657 28.6018 28.9499 29.0305 28.8588C29.4591 28.7677 29.875 29.0377 29.9661 29.4664C30.0572 29.8951 29.7872 30.311 29.3585 30.4021Z" fill="#E2001A"/>
<path fill-rule="evenodd" clip-rule="evenodd" d="M36.7448 64.7362C36.6711 64.3895 36.8924 64.0487 37.2391 63.975L51.5575 60.9315C51.9042 60.8578 52.2451 61.0791 52.3188 61.4258C52.3925 61.7726 52.1711 62.1134 51.8244 62.1871L37.506 65.2306C37.1593 65.3043 36.8185 65.0829 36.7448 64.7362Z" fill="#E2001A"/>
<path d="M62.1648 35.7764C62.338 36.5915 62.2181 37.2773 61.805 37.834C61.3919 38.3908 60.8077 38.7494 60.0525 38.9099C59.2973 39.0704 58.6178 38.9804 58.014 38.6398C57.4102 38.2993 57.0216 37.7215 56.8484 36.9065C56.7371 36.3831 56.814 35.6047 57.0789 34.5715L57.9819 30.9332L60.0007 30.504L59.0844 33.9694C59.1812 33.9098 59.3268 33.8593 59.5212 33.818C60.0595 33.7035 60.5954 33.8163 61.1287 34.1562C61.6621 34.4961 62.0074 35.0362 62.1648 35.7764ZM60.2328 36.8904C60.3549 36.6926 60.3857 36.4516 60.3253 36.1674C60.2649 35.8833 60.1395 35.6794 59.9491 35.5557C59.7572 35.4246 59.5453 35.3837 59.3135 35.433C59.0817 35.4822 58.9047 35.6058 58.7827 35.8037C58.659 35.9941 58.6274 36.2313 58.6878 36.5155C58.7482 36.7996 58.8744 37.0073 59.0664 37.1384C59.2568 37.262 59.4679 37.2992 59.6997 37.2499C59.9315 37.2007 60.1092 37.0808 60.2328 36.8904Z" fill="#E2001A"/>
<path d="M55.3652 34.1035C55.4336 34.425 55.448 34.7502 55.4085 35.079C55.3673 35.4003 55.2753 35.8497 55.1323 36.4272L54.2317 40.0768L52.2129 40.5059L53.1292 37.0405C53.0324 37.1001 52.8869 37.1506 52.6925 37.1919C52.1541 37.3064 51.6182 37.1936 51.0849 36.8537C50.5516 36.5138 50.2062 35.9737 50.0489 35.2335C49.8756 34.4185 49.9956 33.7326 50.4087 33.1759C50.8217 32.6192 51.4059 32.2606 52.1611 32.1C52.9163 31.9395 53.5958 32.0295 54.1996 32.3701C54.8035 32.7106 55.192 33.2884 55.3652 34.1035ZM53.4333 35.2175C53.5554 35.0196 53.5862 34.7786 53.5258 34.4944C53.4654 34.2103 53.34 34.0064 53.1496 33.8828C52.9576 33.7516 52.7457 33.7107 52.5139 33.76C52.2821 33.8093 52.1052 33.9328 51.9832 34.1307C51.8595 34.3211 51.8279 34.5584 51.8883 34.8425C51.9487 35.1266 52.0749 35.3343 52.2669 35.4654C52.4573 35.589 52.6684 35.6262 52.9002 35.577C53.1319 35.5277 53.3097 35.4079 53.4333 35.2175Z" fill="#E2001A"/>
<path d="M63.4429 52.3085L63.3052 52.7411L62.559 52.4715L62.7481 53.2443L62.3028 53.339L62.1612 52.5561L61.5892 53.1059L61.2874 52.7666L61.8933 52.2593L61.1322 52.0363L61.2698 51.6036L62.016 51.8732L61.8282 51.1063L62.2735 51.0117L62.4139 51.7886L62.9859 51.2388L63.2876 51.5781L62.683 52.0914L63.4429 52.3085Z" fill="#E2001A"/>
<path d="M60.9618 55.7272L60.3205 55.8635L59.4219 51.6357L60.0632 51.4994L60.9618 55.7272Z" fill="#E2001A"/>
<path d="M59.2195 56.0982L58.5723 56.2358L58.1798 54.3891L56.4697 54.7526L56.8622 56.5992L56.2209 56.7356L55.3223 52.5078L55.9636 52.3715L56.3485 54.1825L58.0586 53.8191L57.6737 52.008L58.3209 51.8704L59.2195 56.0982Z" fill="#E2001A"/>
<path d="M55.3504 56.9208L52.6428 57.4963L51.7441 53.2686L54.4518 52.693L54.5742 53.269L52.5079 53.7082L52.7704 54.9433L54.528 54.5697L54.6491 55.1397L52.8915 55.5133L53.1616 56.784L55.228 56.3448L55.3504 56.9208Z" fill="#E2001A"/>
<path d="M51.5344 57.7321L50.8931 57.8684L50.1169 54.2166L48.8997 54.4754L49.1836 55.8114C49.3662 56.6704 49.3912 57.294 49.2586 57.6821C49.129 58.0655 48.8426 58.3042 48.3992 58.3985L48.132 58.4553L48.0096 57.8793L48.1224 57.8553C48.2491 57.8284 48.3529 57.7815 48.4339 57.7147C48.514 57.6438 48.5782 57.5371 48.6265 57.3944C48.6787 57.2509 48.6966 57.0527 48.68 56.7997C48.6666 56.5419 48.6203 56.2269 48.5412 55.8548L48.1538 54.0319L50.6358 53.5043L51.5344 57.7321Z" fill="#E2001A"/>
<path d="M47.0749 55.3282C47.1704 55.5438 47.2716 55.9029 47.3784 56.4056C47.4853 56.9084 47.5389 57.2776 47.5394 57.5133C47.5438 57.7482 47.4696 57.9833 47.3169 58.2185C47.0925 58.5641 46.7586 58.784 46.3152 58.8782C45.8719 58.9725 45.4774 58.9074 45.1318 58.6829C44.8966 58.5302 44.7312 58.3461 44.6358 58.1305C44.5443 57.9141 44.4451 57.5546 44.3382 57.0518C44.2314 56.5491 44.1757 56.1803 44.1713 55.9454C44.1709 55.7097 44.247 55.4742 44.3997 55.239C44.6242 54.8934 44.9581 54.6735 45.4014 54.5792C45.8448 54.485 46.2393 54.5501 46.5849 54.7745C46.8201 54.9273 46.9834 55.1118 47.0749 55.3282ZM46.8802 57.4487C46.8757 57.2717 46.828 56.9695 46.7371 56.5419C46.6463 56.1144 46.5669 55.8189 46.499 55.6554C46.4304 55.488 46.3332 55.3618 46.2075 55.2768C46.0043 55.1379 45.7759 55.0954 45.5226 55.1493C45.2693 55.2031 45.078 55.3348 44.9487 55.5443C44.8694 55.677 44.8324 55.8339 44.8377 56.0148C44.8422 56.1917 44.8895 56.492 44.9795 56.9155C45.0696 57.3391 45.1485 57.6326 45.2163 57.7961C45.2842 57.9596 45.3814 58.0858 45.5078 58.1748C45.7159 58.3167 45.9447 58.3612 46.1941 58.3082C46.4434 58.2552 46.6343 58.1215 46.7667 57.9072C46.8469 57.7785 46.8847 57.6256 46.8802 57.4487Z" fill="#E2001A"/>
<path d="M43.7682 58.1417C43.8456 58.5058 43.7922 58.8192 43.6081 59.0818C43.4279 59.3435 43.1398 59.5164 42.744 59.6006L41.0339 59.9641L40.1353 55.7363L41.78 55.3867C42.164 55.3051 42.4951 55.3444 42.7732 55.5045C43.0505 55.6607 43.2258 55.911 43.299 56.2554C43.3899 56.683 43.2651 57.0301 42.9246 57.297C43.3902 57.4049 43.6714 57.6864 43.7682 58.1417ZM42.5771 56.9178C42.6771 56.7848 42.7069 56.6233 42.6666 56.4333C42.6262 56.2433 42.5333 56.1079 42.3878 56.0271C42.2424 55.9463 42.0628 55.9286 41.849 55.974L40.899 56.176L41.1564 57.3873L42.1065 57.1854C42.3203 57.1399 42.4771 57.0507 42.5771 56.9178ZM43.0244 58.759C43.1258 58.6133 43.1555 58.4415 43.1134 58.2436C43.0713 58.0457 42.9748 57.9028 42.8237 57.8149C42.6766 57.7262 42.4961 57.7045 42.2824 57.75L41.2789 57.9633L41.5527 59.2518L42.5562 59.0385C42.77 58.9931 42.926 58.8999 43.0244 58.759Z" fill="#E2001A"/>
<path d="M39.3279 56.9747C39.4233 57.1902 39.5245 57.5494 39.6313 58.0521C39.7382 58.5549 39.7919 58.9241 39.7923 59.1598C39.7967 59.3947 39.7226 59.6298 39.5698 59.865C39.3454 60.2106 39.0115 60.4305 38.5681 60.5247C38.1248 60.619 37.7303 60.5539 37.3847 60.3294C37.1495 60.1767 36.9842 59.9925 36.8887 59.777C36.7972 59.5606 36.698 59.2011 36.5912 58.6983C36.4843 58.1956 36.4287 57.8268 36.4243 57.5919C36.4238 57.3561 36.4999 57.1207 36.6527 56.8855C36.8771 56.5399 37.211 56.32 37.6544 56.2257C38.0977 56.1315 38.4922 56.1966 38.8378 56.421C39.073 56.5738 39.2364 56.7583 39.3279 56.9747ZM39.1331 59.0951C39.1286 58.9182 39.0809 58.616 38.9901 58.1884C38.8992 57.7609 38.8198 57.4654 38.752 57.3019C38.6833 57.1345 38.5861 57.0082 38.4605 56.9232C38.2572 56.7844 38.0289 56.7419 37.7755 56.7958C37.5222 56.8496 37.3309 56.9813 37.2017 57.1908C37.1223 57.3235 37.0853 57.4803 37.0906 57.6612C37.0952 57.8382 37.1424 58.1385 37.2325 58.562C37.3225 58.9856 37.4014 59.2791 37.4693 59.4426C37.5371 59.6061 37.6343 59.7323 37.7608 59.8213C37.9689 59.9632 38.1976 60.0077 38.447 59.9547C38.6964 59.9017 38.8872 59.768 39.0196 59.5537C39.0998 59.4249 39.1376 59.2721 39.1331 59.0951Z" fill="#E2001A"/>
<path d="M33.406 57.7684L33.6066 58.7125C33.7976 59.6111 33.8101 60.3511 33.6441 60.9325L35.2354 60.5943L34.5816 57.5185L33.406 57.7684ZM32.666 57.3237L35.1005 56.8062L35.8767 60.458L36.3755 60.3519L36.6999 61.878L36.0704 62.0118L35.8685 61.0617L33.3034 61.6069L33.5053 62.557L32.8818 62.6895L32.5575 61.1635L32.9256 61.0852C33.1564 60.4776 33.1582 59.6394 32.931 58.5706L32.666 57.3237Z" fill="#E2001A"/>
<path d="M32.3741 61.8041L31.7031 61.9467L31.2257 61.1607L29.5572 61.5154L29.4408 62.4276L28.7639 62.5715L29.415 58.0143L29.9316 57.9045L32.3741 61.8041ZM30.9374 60.6511L29.8914 58.9123L29.6251 60.93L30.9374 60.6511Z" fill="#E2001A"/>
<path d="M26.9208 63.0008C26.5368 63.0824 26.1862 63.039 25.8691 62.8706C25.552 62.7021 25.3144 62.4216 25.1565 62.029L25.7978 61.8927C25.8964 62.1035 26.0328 62.2586 26.207 62.3581C26.3852 62.4568 26.5871 62.4821 26.8128 62.4341C27.0503 62.3837 27.2292 62.2815 27.3496 62.1276C27.4731 61.969 27.5126 61.7848 27.468 61.575C27.4208 61.3533 27.3198 61.1989 27.1647 61.1119C27.0137 61.024 26.8174 61.0058 26.5759 61.0571L26.0356 61.1719L25.922 60.6375L26.4742 60.5201C26.688 60.4747 26.8405 60.3844 26.9317 60.2491C27.026 60.1091 27.0513 59.9361 27.0076 59.7303C26.9655 59.5324 26.8674 59.3919 26.7132 59.3088C26.559 59.2257 26.3691 59.2082 26.1435 59.2561C25.9178 59.3041 25.7461 59.4109 25.6282 59.5767C25.5095 59.7384 25.448 59.9356 25.4436 60.1682L24.7964 60.3058C24.781 59.8829 24.8839 59.5301 25.1051 59.2472C25.3303 58.9635 25.6389 58.78 26.0308 58.6967C26.4306 58.6117 26.7814 58.6468 27.0833 58.8019C27.3852 58.957 27.5728 59.2068 27.646 59.5512C27.7385 59.9866 27.6106 60.3386 27.2622 60.6071C27.7307 60.6896 28.0167 60.9742 28.1202 61.4611C28.1985 61.8293 28.123 62.1556 27.8939 62.4402C27.6687 62.7239 27.3443 62.9107 26.9208 63.0008Z" fill="#E2001A"/>
<path d="M60.6774 46.962C60.7548 47.3262 60.7014 47.6395 60.5173 47.9021C60.3371 48.1638 60.049 48.3368 59.6532 48.4209L57.9431 48.7844L57.0444 44.5566L58.6892 44.207C59.0732 44.1254 59.4043 44.1647 59.6824 44.3248C59.9597 44.481 60.135 44.7313 60.2082 45.0757C60.2991 45.5033 60.1743 45.8504 59.8338 46.1173C60.2994 46.2252 60.5806 46.5067 60.6774 46.962ZM59.4863 45.7381C59.5863 45.6051 59.6161 45.4436 59.5757 45.2536C59.5353 45.0636 59.4424 44.9282 59.297 44.8474C59.1516 44.7666 58.972 44.7489 58.7582 44.7944L57.8081 44.9963L58.0656 46.2076L59.0157 46.0057C59.2294 45.9602 59.3863 45.871 59.4863 45.7381ZM59.9335 47.5793C60.035 47.4336 60.0647 47.2618 60.0226 47.0639C59.9805 46.866 59.8839 46.7231 59.7329 46.6352C59.5857 46.5465 59.4053 46.5249 59.1915 46.5703L58.188 46.7836L58.4619 48.0721L59.4654 47.8588C59.6792 47.8134 59.8352 47.7202 59.9335 47.5793Z" fill="#E2001A"/>
<path d="M56.8388 49.0182L56.1975 49.1545L55.2988 44.9268L55.9401 44.7904L56.8388 49.0182Z" fill="#E2001A"/>
<path d="M53.1454 49.8043L52.5041 49.9406L51.6055 45.7129L52.2468 45.5766L53.1454 49.8043ZM55.669 49.2679L54.8555 49.4408L52.6806 47.5882L53.8322 45.2396L54.6219 45.0717L53.419 47.4127L55.669 49.2679Z" fill="#E2001A"/>
<path d="M51.3822 50.1784L50.7409 50.3147L50.0884 47.2449L48.8468 50.7173L48.2648 50.841L47.3662 46.6133L48.0075 46.477L48.6588 49.5409L49.8957 46.0756L50.4836 45.9507L51.3822 50.1784Z" fill="#E2001A"/>
<path d="M47.1578 51.0768L46.5165 51.2131L46.1644 49.5565C45.7166 49.7468 45.3483 49.8727 45.0593 49.9341C44.7505 49.9998 44.4712 49.9702 44.2212 49.8454C43.9744 49.7158 43.814 49.4768 43.7399 49.1285L43.3853 47.46L44.0325 47.3224L44.3543 48.8365C44.4418 49.2482 44.7013 49.4082 45.1328 49.3165C45.3941 49.261 45.6984 49.1549 46.0457 48.9983L45.6179 46.9854L46.2592 46.8491L47.1578 51.0768Z" fill="#E2001A"/>
<path d="M40.84 48.6024L41.0407 49.5465C41.2317 50.4451 41.2442 51.1851 41.0782 51.7665L42.6695 51.4283L42.0157 48.3525L40.84 48.6024ZM40.1001 48.1576L42.5346 47.6402L43.3108 51.2919L43.8096 51.1859L44.1339 52.712L43.5045 52.8457L43.3026 51.8957L40.7374 52.4409L40.9394 53.391L40.3159 53.5235L39.9915 51.9975L40.3597 51.9192C40.5905 51.3116 40.5923 50.4734 40.3651 49.4046L40.1001 48.1576Z" fill="#E2001A"/>
<path d="M39.0032 49.4581C39.0986 49.6736 39.1998 50.0328 39.3066 50.5355C39.4135 51.0383 39.4672 51.4075 39.4676 51.6432C39.472 51.8781 39.3979 52.1132 39.2451 52.3484C39.0207 52.694 38.6868 52.9139 38.2434 53.0081C37.8001 53.1024 37.4056 53.0373 37.06 52.8128C36.8248 52.6601 36.6595 52.4759 36.564 52.2604C36.4725 52.044 36.3733 51.6845 36.2665 51.1817C36.1596 50.679 36.104 50.3102 36.0995 50.0753C36.0991 49.8395 36.1752 49.6041 36.328 49.3689C36.5524 49.0233 36.8863 48.8034 37.3297 48.7091C37.773 48.6149 38.1675 48.68 38.5131 48.9044C38.7483 49.0572 38.9116 49.2417 39.0032 49.4581ZM38.8084 51.5785C38.8039 51.4016 38.7562 51.0994 38.6653 50.6718C38.5745 50.2443 38.4951 49.9488 38.4273 49.7853C38.3586 49.6179 38.2614 49.4916 38.1358 49.4066C37.9325 49.2678 37.7042 49.2253 37.4508 49.2792C37.1975 49.333 37.0062 49.4647 36.8769 49.6742C36.7976 49.8069 36.7606 49.9637 36.7659 50.1446C36.7704 50.3216 36.8177 50.6219 36.9077 51.0454C36.9978 51.469 37.0767 51.7625 37.1446 51.926C37.2124 52.0895 37.3096 52.2157 37.4361 52.3047C37.6441 52.4466 37.8729 52.4911 38.1223 52.4381C38.3717 52.3851 38.5625 52.2514 38.6949 52.0371C38.7751 51.9083 38.8129 51.7555 38.8084 51.5785Z" fill="#E2001A"/>
<path d="M35.6964 52.2715C35.7738 52.6357 35.7205 52.9491 35.5363 53.2117C35.3561 53.4734 35.0681 53.6463 34.6722 53.7305L32.9621 54.094L32.0635 49.8662L33.7083 49.5166C34.0922 49.435 34.4233 49.4743 34.7015 49.6344C34.9788 49.7906 35.154 50.0409 35.2272 50.3853C35.3181 50.8128 35.1933 51.16 34.8528 51.4268C35.3185 51.5347 35.5997 51.8163 35.6964 52.2715ZM34.5054 51.0476C34.6054 50.9147 34.6352 50.7532 34.5948 50.5632C34.5544 50.3732 34.4615 50.2378 34.316 50.157C34.1706 50.0762 33.991 50.0585 33.7772 50.1039L32.8272 50.3059L33.0847 51.5172L34.0347 51.3153C34.2485 51.2698 34.4054 51.1806 34.5054 51.0476ZM34.9526 52.8889C35.054 52.7432 35.0837 52.5714 35.0416 52.3735C34.9996 52.1756 34.903 52.0327 34.7519 51.9448C34.6048 51.8561 34.4243 51.8344 34.2106 51.8799L33.2071 52.0932L33.481 53.3817L34.4845 53.1684C34.6982 53.1229 34.8543 53.0298 34.9526 52.8889Z" fill="#E2001A"/>
<path d="M32.3565 54.2231L31.6855 54.3657L31.2081 53.5797L29.5396 53.9343L29.4232 54.8466L28.7463 54.9904L29.3974 50.4333L29.914 50.3235L32.3565 54.2231ZM30.9198 53.07L29.8738 51.3312L29.6076 53.3489L30.9198 53.07Z" fill="#E2001A"/>
<path d="M26.9037 55.4187C26.5197 55.5003 26.1691 55.4569 25.852 55.2885C25.5349 55.1201 25.2973 54.8396 25.1394 54.447L25.7807 54.3107C25.8793 54.5214 26.0157 54.6766 26.1899 54.7761C26.3681 54.8747 26.57 54.9001 26.7957 54.8521C27.0332 54.8016 27.2121 54.6995 27.3325 54.5456C27.456 54.387 27.4955 54.2027 27.4509 53.9929C27.4037 53.7713 27.3027 53.6169 27.1476 53.5299C26.9966 53.442 26.8003 53.4237 26.5588 53.475L26.0185 53.5899L25.9049 53.0555L26.4571 52.9381C26.6709 52.8927 26.8234 52.8023 26.9146 52.6671C27.009 52.5271 27.0343 52.3541 26.9905 52.1483C26.9484 51.9503 26.8503 51.8098 26.6961 51.7268C26.5419 51.6437 26.352 51.6261 26.1264 51.6741C25.9007 51.7221 25.729 51.8289 25.6111 51.9946C25.4924 52.1564 25.4309 52.3536 25.4266 52.5862L24.7793 52.7238C24.7639 52.3009 24.8668 51.948 25.088 51.6652C25.3132 51.3815 25.6218 51.198 26.0137 51.1147C26.4135 51.0297 26.7643 51.0648 27.0662 51.2199C27.3681 51.375 27.5557 51.6247 27.6289 51.9691C27.7215 52.4046 27.5935 52.7566 27.2451 53.0251C27.7136 53.1075 27.9996 53.3922 28.1031 53.8791C28.1814 54.2473 28.1059 54.5736 27.8768 54.8581C27.6516 55.1418 27.3273 55.3287 26.9037 55.4187Z" fill="#E2001A"/>
</svg>
