<svg width="120" height="120" viewBox="0 0 120 120" fill="none" xmlns="http://www.w3.org/2000/svg">
<path d="M106 59.5C106 85.1812 85.1812 106 59.5 106C33.8188 106 13 85.1812 13 59.5C13 33.8188 33.8188 13 59.5 13C85.1812 13 106 33.8188 106 59.5Z" fill="#E2001A"/>
<path d="M12.0003 34.7282C12.4089 34.932 12.7357 35.1358 12.94 35.3396C13.1443 35.5434 13.3077 35.788 13.4303 36.0733C13.6346 36.5624 13.5937 37.0923 13.2669 37.663C12.9809 38.1929 12.654 38.5597 12.2046 38.7228C11.6735 38.8858 11.0606 38.8043 10.3252 38.4782L10.7746 37.5407C11.1832 37.7445 11.5509 37.826 11.8369 37.7445C12.082 37.663 12.2455 37.4999 12.368 37.2554C12.4906 37.0108 12.5315 36.7662 12.4498 36.5217C12.3272 36.2364 12.0003 35.951 11.4692 35.6657C10.8972 35.3804 10.4478 35.2989 10.1618 35.3804C9.91665 35.4619 9.75322 35.6249 9.63065 35.8287L9.3038 36.4402L8.48667 36.0326L8.81353 35.4211C8.93609 35.1766 8.93609 34.9728 8.85438 34.769C8.73181 34.4836 8.40496 34.1983 7.87383 33.913C7.34269 33.6277 6.89327 33.5461 6.60727 33.6277C6.36214 33.7092 6.19871 33.8722 6.07614 34.1168C5.95357 34.3614 5.95357 34.6059 6.03528 34.8097C6.15785 35.0951 6.40299 35.3396 6.85241 35.5434L6.40299 36.4809C5.74929 36.1141 5.29987 35.7065 5.09559 35.1766C4.93216 34.6874 4.97302 34.1983 5.25901 33.6684C5.54501 33.0978 5.91271 32.7309 6.40299 32.6086C6.68899 32.5271 6.97498 32.4864 7.30184 32.5679C7.58783 32.6494 7.95554 32.7717 8.3641 32.9755C8.97695 33.2608 9.34466 33.5869 9.54894 33.9945C9.67151 34.2391 9.71237 34.4836 9.71237 34.7282C9.91665 34.5652 10.1618 34.4836 10.4069 34.4021C10.8155 34.2798 11.3466 34.4021 12.0003 34.7282Z" fill="#E2001A"/>
<path d="M17.2707 30.6526L16.6578 31.5901L14.6967 30.8564L13.6344 32.5683L15.1461 34.0357L14.5741 34.9732L8.28223 28.6145L8.81336 27.7585L17.2707 30.6526ZM13.8387 30.4895L9.9982 29.0221L12.9399 31.8754L13.8387 30.4895Z" fill="#E2001A"/>
<path d="M20.4577 26.6168L19.804 27.432L13.7164 22.6222L12.4907 24.1304L18.5783 28.9809L17.9246 29.7961L11.1016 24.3749L13.6347 21.2363L20.4577 26.6168Z" fill="#E2001A"/>
<path d="M24.7058 22.2146L23.9295 22.9891L22.1727 21.8477L20.7427 23.2744L21.9276 25.0271L21.1513 25.8016L16.3711 18.22L17.1065 17.4863L24.7058 22.2146ZM21.3556 21.3586L17.9236 19.1168L20.2116 22.4999L21.3556 21.3586Z" fill="#E2001A"/>
<path d="M22.8276 13.6548L21.7245 14.5923L26.7499 20.5027L25.9327 21.1956L20.9074 15.2853L19.8043 16.2228L19.1914 15.4891L22.2148 12.9211L22.8276 13.6548Z" fill="#E2001A"/>
<path d="M31.6114 16.9156L28.8331 18.8314L23.8486 11.6982L26.6269 9.78247L27.158 10.5569L25.2786 11.8613L26.9537 14.2662L28.588 13.1249L29.1191 13.8993L27.4849 15.0406L29.16 17.4455L31.0394 16.1412L31.6114 16.9156Z" fill="#E2001A"/>
<path d="M36.4336 14.1848L35.4939 14.6739L33.5737 11.2092L31.8986 12.1467L33.8188 15.6114L32.8791 16.1006L28.6709 8.47826L29.6106 7.98913L31.4491 11.3315L33.1243 10.394L31.2857 7.05163L32.2254 6.5625L36.4336 14.1848Z" fill="#E2001A"/>
<path d="M38.1493 4.93215L36.801 5.5028L39.8653 12.636L38.8847 13.0436L35.8205 5.91041L34.4722 6.48107L34.1045 5.62509L37.7816 4.07617L38.1493 4.93215Z" fill="#E2001A"/>
<path d="M43.9507 3.83142C44.155 4.27979 44.4818 5.09501 44.8495 6.27708C45.2173 7.45914 45.4624 8.31512 45.5441 8.80426C45.6258 9.29339 45.585 9.74176 45.4215 10.1086C45.1764 10.6385 44.7678 10.9646 44.1958 11.1684C43.6239 11.3722 43.0927 11.2907 42.5616 11.0053C42.1939 10.8015 41.9487 10.4755 41.7036 10.0271C41.4993 9.57871 41.1725 8.76349 40.8048 7.58143C40.437 6.39936 40.1919 5.54338 40.1102 5.05425C40.0285 4.56512 40.0693 4.11675 40.2328 3.7499C40.4779 3.22001 40.8865 2.89392 41.4585 2.69012C42.0304 2.48631 42.5616 2.56783 43.0927 2.85316C43.4196 3.05696 43.7056 3.38305 43.9507 3.83142ZM44.441 8.76349C44.3593 8.35588 44.155 7.62219 43.8281 6.60316C43.5013 5.58414 43.2561 4.8912 43.0927 4.48359C42.9293 4.07599 42.725 3.83142 42.5207 3.66838C42.3164 3.50533 42.0304 3.46457 41.7445 3.58686C41.4585 3.66838 41.2542 3.87218 41.1725 4.11675C41.0907 4.36131 41.0907 4.6874 41.1725 5.09501C41.2542 5.50262 41.4585 6.23632 41.7853 7.25534C42.1122 8.27436 42.3573 8.9673 42.5207 9.37491C42.6841 9.78251 42.8884 10.0271 43.0927 10.1901C43.297 10.3532 43.583 10.3939 43.869 10.2716C44.155 10.1901 44.3593 9.98632 44.441 9.74175C44.5227 9.49719 44.5227 9.1711 44.441 8.76349Z" fill="#E2001A"/>
<path d="M51.181 6.8887C51.2627 7.37783 51.3035 7.78544 51.3035 8.07077C51.2627 8.3561 51.181 8.64142 51.0175 8.88599C50.7315 9.2936 50.2413 9.57892 49.5467 9.70121L47.7082 10.0681L45.9922 1.50826L47.8307 1.14141C48.5253 1.01913 49.0973 1.05989 49.5058 1.34522C49.7101 1.50826 49.9144 1.71207 50.037 1.91587C50.1595 2.16044 50.2821 2.48652 50.3638 2.93489C50.4864 3.62783 50.4455 4.15772 50.1595 4.56533C50.037 4.72837 49.9144 4.85066 49.751 4.97294C49.9553 4.97294 50.1596 5.05446 50.323 5.17674C50.5681 5.33979 50.7724 5.54359 50.895 5.78816C50.9767 6.11425 51.0992 6.44033 51.181 6.8887ZM49.3016 3.26098C49.2199 2.77185 49.0564 2.405 48.8521 2.24196C48.6479 2.07891 48.3619 2.03815 47.9533 2.11968L47.177 2.28272L47.7082 5.0137L48.4844 4.85066C48.8521 4.76913 49.0973 4.60609 49.2198 4.36153C49.3833 4.0762 49.4241 3.70935 49.3016 3.26098ZM50.1187 7.01099C49.9961 6.48109 49.8327 6.11424 49.5876 5.91044C49.3424 5.70663 49.0564 5.66587 48.6479 5.70663L47.9124 5.86968L48.5253 8.92675L49.2607 8.7637C49.6693 8.68218 49.9144 8.51914 50.0778 8.23381C50.2413 7.98925 50.2413 7.58164 50.1187 7.01099Z" fill="#E2001A"/>
<path d="M57.6375 8.68212L56.5344 8.76364L55.9215 6.76636L53.9195 6.9294L53.6744 9.00821L52.5713 9.08973L53.8378 0.24461L54.8592 0.163086L57.6375 8.68212ZM55.6764 5.82885L54.5324 1.91581L54.083 5.9919L55.6764 5.82885Z" fill="#E2001A"/>
<path d="M62.743 8.72284H61.6808L61.7625 4.76903L59.8422 4.72827L59.7605 8.68208H58.6982L58.8617 0H59.9239L59.8422 3.79077L61.7625 3.83153L61.8442 0.0407634H62.9065L62.743 8.72284Z" fill="#E2001A"/>
<path d="M68.831 9.4159L67.7279 9.29362L67.5645 7.21481L65.5625 6.97024L64.9088 8.96753L63.8057 8.84525L66.9108 0.489258L67.9322 0.611539L68.831 9.4159ZM67.5236 6.23655L67.2376 2.16045L65.9302 6.03274L67.5236 6.23655Z" fill="#E2001A"/>
<path d="M79.4537 4.64656C79.6172 5.29874 79.4946 6.19548 79.1269 7.37754C78.7592 8.55961 78.3506 9.37483 77.8603 9.8232C77.3701 10.2716 76.6755 10.3939 75.7358 10.1493L75.4498 11.1275L74.4692 10.8422L74.7552 9.86396C73.8564 9.53787 73.3253 9.04874 73.1618 8.39657C72.9984 7.74439 73.121 6.84765 73.4887 5.66558C73.8564 4.48352 74.265 3.6683 74.7552 3.21993C75.2455 2.77156 75.9401 2.64928 76.8798 2.89384L77.1249 2.11938L78.1055 2.40471L77.8603 3.17917C78.8 3.50526 79.3312 3.99439 79.4537 4.64656ZM75.0412 8.96722L76.6346 3.74982C76.0627 3.62754 75.6541 3.70906 75.3681 4.03515C75.0821 4.36123 74.7961 5.01341 74.5101 5.95091C74.2241 6.88841 74.1015 7.58135 74.1833 8.02972C74.1833 8.43733 74.4693 8.76341 75.0412 8.96722ZM77.2884 9.00798C77.5743 8.68189 77.8603 8.07048 78.1463 7.09222C78.4323 6.15471 78.5549 5.46178 78.514 5.01341C78.4732 4.56504 78.1463 4.27971 77.6152 4.07591L76.0218 9.29331C76.5529 9.41559 77.0024 9.29331 77.2884 9.00798Z" fill="#E2001A"/>
<path d="M85.6637 7.66317C85.5412 8.1523 85.2143 8.96752 84.6832 10.1088C84.1521 11.2501 83.7843 12.0246 83.4983 12.4322C83.2123 12.8398 82.8855 13.1251 82.5178 13.2882C81.9867 13.5327 81.4555 13.492 80.8835 13.2474C80.3115 13.0028 79.9438 12.5952 79.7804 12.0653C79.6578 11.6985 79.6578 11.2501 79.7804 10.761C79.903 10.2719 80.2298 9.45665 80.761 8.31534C81.2921 7.17404 81.6598 6.39958 81.9458 5.99197C82.2318 5.58436 82.5586 5.29904 82.9264 5.13599C83.4575 4.89143 83.9886 4.93219 84.5606 5.17675C85.1326 5.42132 85.5003 5.82893 85.6637 6.35882C85.7863 6.72567 85.7863 7.17404 85.6637 7.66317ZM82.7629 11.6577C82.9672 11.2909 83.2941 10.6387 83.7435 9.66045C84.1929 8.68219 84.4789 7.98926 84.6015 7.58165C84.724 7.17404 84.7649 6.84795 84.724 6.60338C84.6832 6.31806 84.4789 6.15501 84.1929 6.03273C83.9069 5.91045 83.6209 5.91045 83.4166 6.03273C83.2124 6.15501 82.9672 6.39958 82.7629 6.76643C82.5586 7.13328 82.2318 7.78545 81.7824 8.76371C81.333 9.74197 81.047 10.4349 80.9244 10.8425C80.8018 11.2501 80.761 11.5762 80.8018 11.8208C80.8427 12.1061 81.047 12.2691 81.333 12.4322C81.6189 12.5545 81.8641 12.5545 82.1092 12.4322C82.3135 12.2691 82.5178 12.0246 82.7629 11.6577Z" fill="#E2001A"/>
<path d="M90.8943 11.4945C90.4449 12.269 89.9546 12.7581 89.4643 12.9212C88.974 13.0842 88.4429 13.0027 87.8301 12.6358L87.0538 12.1875L85.2153 15.326L84.3164 14.7962L88.7289 7.29614L90.404 8.27441C91.0169 8.64125 91.3437 9.04886 91.4663 9.53799C91.548 10.0679 91.3846 10.7201 90.8943 11.4945ZM89.9955 10.9646C90.2815 10.4755 90.404 10.0679 90.404 9.78256C90.3632 9.49723 90.1997 9.25267 89.9137 9.04886L89.1783 8.60049L87.5441 11.3722L88.2795 11.8206C88.6063 11.9836 88.8923 12.0244 89.1375 11.9021C89.4235 11.7798 89.7095 11.4538 89.9955 10.9646Z" fill="#E2001A"/>
<path d="M93.4263 20.9512L92.6092 20.299L96.368 15.3669L92.7726 17.7718L92.2415 17.3642L93.5898 13.3697L89.8718 18.2202L89.0547 17.568L94.366 10.6387L95.1423 11.2501L93.5898 16.1414L97.9205 13.3697L98.6968 13.9811L93.4263 20.9512Z" fill="#E2001A"/>
<path d="M103.682 18.7091L96.9406 22.3776C96.4504 22.6629 96.0009 22.7444 95.6741 22.7037C95.3472 22.6222 94.9387 22.3776 94.4893 21.97L95.143 21.2771C95.3881 21.5216 95.6332 21.6847 95.8375 21.6847C96.0418 21.7254 96.2869 21.6439 96.6138 21.4401L97.4718 20.951L100.25 15.4482L101.067 16.2635L98.82 20.2988L102.783 17.9347L103.682 18.7091Z" fill="#E2001A"/>
<path d="M100.864 28.7774L100.169 27.9621L106.134 22.9486L105.113 21.7665L102.171 24.2529C101.64 24.7013 101.15 25.0681 100.741 25.3127C100.332 25.5573 99.9647 25.7611 99.6787 25.8426C99.3927 25.9241 99.1476 25.9649 98.9025 25.9241C98.6573 25.8833 98.4939 25.8018 98.3305 25.6795C98.167 25.5573 98.0445 25.435 97.881 25.2312L97.6768 24.9866L98.4122 24.3752L98.4939 24.4567C98.6165 24.6198 98.739 24.7013 98.8616 24.7828C98.9842 24.8643 99.1476 24.8643 99.3927 24.8236C99.6379 24.7828 99.9239 24.6605 100.292 24.4159C100.659 24.1714 101.15 23.8453 101.681 23.3562L105.235 20.3806L107.564 23.1524L100.864 28.7774Z" fill="#E2001A"/>
<path d="M104.336 33.7903L103.723 32.8528L105.194 31.3855L104.091 29.7143L102.129 30.5295L101.517 29.6327L109.892 26.4941L110.464 27.3501L104.336 33.7903ZM105.847 30.7333L108.748 27.8393L104.949 29.3882L105.847 30.7333Z" fill="#E2001A"/>
<path d="M112.262 32.568H111.854L111.895 31.7936L111.118 32.2419L110.914 31.8751L111.731 31.4675L111.077 31.1006L111.282 30.7338L111.935 31.1414V30.3669H112.385L112.344 31.1414L113.12 30.693L113.325 31.0599L112.507 31.4675L113.202 31.8343L112.957 32.2012L112.303 31.7936L112.262 32.568Z" fill="#E2001A"/>
<path d="M113.774 35.5844L113.365 35.5436L113.447 34.7692L112.63 35.1768L112.426 34.7692L113.243 34.4023L112.589 33.9947L112.834 33.6278L113.447 34.0762L113.488 33.3018L113.937 33.3425L113.856 34.117L114.673 33.7094L114.877 34.117L114.06 34.4838L114.714 34.8914L114.469 35.2583L113.856 34.8099L113.774 35.5844Z" fill="#E2001A"/>
<path d="M44.4722 52.4185H43.0423V48.4647H41.2854V52.4185H39.8555V43.3289H41.2854V47.1604H43.0423V43.3289H44.4722V52.4185Z" fill="white"/>
<path d="M51.1335 52.4185H49.6218L49.2541 50.6251H47.1704L46.8027 52.4185H45.291L47.5381 43.3289H48.9272L51.1335 52.4185ZM49.009 49.3207L48.2327 45.5299L47.4564 49.3207H49.009Z" fill="white"/>
<path d="M56.5252 43.3289L54.1147 50.8696C53.9104 51.481 53.6653 51.9294 53.3384 52.0925C53.0116 52.2963 52.4804 52.3778 51.745 52.3778V51.1142C52.1536 51.1142 52.4396 51.0327 52.603 50.9104C52.7664 50.7881 52.9298 50.5435 53.0116 50.1767L53.2158 49.443L51.2139 43.3289H52.7664L53.8695 47.5272L54.9727 43.3289H56.5252Z" fill="white"/>
<path d="M58.7737 52.4185H57.3438V43.3289H58.7737V52.4185ZM62.5734 52.4185H60.98L58.7737 47.6903L60.8166 43.3289H62.3282L60.2446 47.6088L62.5734 52.4185Z" fill="white"/>
<path d="M67.801 45.3261C67.8827 45.856 67.9236 46.712 67.9236 47.8941C67.9236 49.0761 67.8827 49.9321 67.801 50.462C67.7193 50.9919 67.5559 51.4403 67.2699 51.7663C66.8205 52.2962 66.2485 52.5408 65.5131 52.5408C64.7777 52.5408 64.1648 52.2962 63.7562 51.7663C63.4702 51.4403 63.3068 50.9919 63.2251 50.462C63.1434 49.9321 63.1025 49.0761 63.1025 47.8941C63.1025 46.712 63.1434 45.856 63.2251 45.3261C63.3068 44.7962 63.4702 44.3479 63.7562 44.0218C64.2057 43.4919 64.7777 43.2473 65.5131 43.2473C66.2485 43.2473 66.8613 43.4919 67.2699 44.0218C67.515 44.3479 67.7193 44.7962 67.801 45.3261ZM66.4119 49.9321C66.4528 49.4837 66.4528 48.7908 66.4528 47.8941C66.4528 46.9973 66.4528 46.3044 66.4119 45.856C66.3711 45.4076 66.2893 45.0816 66.1668 44.8778C66.0033 44.6332 65.7991 44.5517 65.4722 44.5517C65.1454 44.5517 64.9411 44.6739 64.7777 44.8778C64.5734 45.2038 64.4508 46.2229 64.4508 47.8941C64.4508 49.5653 64.5734 50.5435 64.7777 50.9104C64.9411 51.1549 65.1454 51.2364 65.4722 51.2364C65.7991 51.2364 66.0033 51.1142 66.1668 50.9104C66.2893 50.7066 66.3711 50.3805 66.4119 49.9321Z" fill="white"/>
<path d="M73.8492 49.8098C73.8492 50.3397 73.8083 50.7473 73.7266 51.0734C73.6449 51.3588 73.4815 51.6441 73.2772 51.8479C72.9095 52.2147 72.2967 52.4185 71.4795 52.4185H69.2324V43.3289H71.5204C72.3375 43.3289 72.9095 43.5327 73.2772 43.8995C73.4815 44.1033 73.6449 44.3479 73.7266 44.6332C73.8083 44.9185 73.8492 45.2854 73.8492 45.7745C73.8492 46.4674 73.6858 46.9973 73.3181 47.3642C73.1546 47.5272 73.0321 47.6088 72.8278 47.6903C73.0321 47.7718 73.1955 47.8941 73.3181 48.0164C73.6449 48.3425 73.8492 48.9539 73.8492 49.8098ZM72.3784 45.856C72.3784 45.4077 72.2967 45.0816 72.1332 44.9185C71.9698 44.7147 71.7247 44.6332 71.3161 44.6332H70.5807V47.0789H71.3161C71.6838 47.0789 71.929 46.9973 72.0924 46.7935C72.2967 46.5897 72.3784 46.3044 72.3784 45.856ZM72.3784 49.7283C72.3784 49.2392 72.2967 48.8723 72.1332 48.6278C71.9698 48.424 71.6838 48.3017 71.3161 48.3017H70.6215V51.1142H71.3161C71.7247 51.1142 71.9698 50.9919 72.1332 50.7881C72.2967 50.6251 72.3784 50.2582 72.3784 49.7283Z" fill="white"/>
<path d="M79.7307 45.3261C79.8124 45.856 79.8533 46.712 79.8533 47.8941C79.8533 49.0761 79.8124 49.9321 79.7307 50.462C79.649 50.9919 79.4856 51.4403 79.1996 51.7663C78.7502 52.2962 78.1782 52.5408 77.4428 52.5408C76.7073 52.5408 76.0945 52.2962 75.6859 51.7663C75.3999 51.4403 75.2365 50.9919 75.1548 50.462C75.0731 49.9321 75.0322 49.0761 75.0322 47.8941C75.0322 46.712 75.0731 45.856 75.1548 45.3261C75.2365 44.7962 75.3999 44.3479 75.6859 44.0218C76.1354 43.4919 76.7073 43.2473 77.4428 43.2473C78.1782 43.2473 78.791 43.4919 79.1996 44.0218C79.4447 44.3479 79.649 44.7962 79.7307 45.3261ZM78.3416 49.9321C78.3825 49.4837 78.3825 48.7908 78.3825 47.8941C78.3825 46.9973 78.3825 46.3044 78.3416 45.856C78.3007 45.4076 78.219 45.0816 78.0965 44.8778C77.933 44.6332 77.7288 44.5517 77.4019 44.5517C77.0751 44.5517 76.8708 44.6739 76.7073 44.8778C76.5031 45.2038 76.3805 46.2229 76.3805 47.8941C76.3805 49.5653 76.5031 50.5435 76.7073 50.9104C76.8708 51.1549 77.0751 51.2364 77.4019 51.2364C77.7288 51.2364 77.933 51.1142 78.0965 50.9104C78.219 50.7066 78.3007 50.3805 78.3416 49.9321Z" fill="white"/>
<path d="M30.255 77.2417H28.0896V73.777H22.1654V77.2417H20V71.2091H20.9397C21.7568 68.6411 22.1654 65.7064 22.1654 62.364V55.5569H29.0701V71.2091H30.2958V77.2417H30.255ZM26.7413 71.2091V58.1248H24.3308V63.0977C24.3308 66.114 23.9631 68.8449 23.2685 71.2091H26.7413Z" fill="white"/>
<path d="M38.9587 59.5109C39.0812 60.5707 39.163 62.2826 39.163 64.6875C39.163 67.0517 39.0812 68.8044 38.9587 69.8642C38.8361 70.924 38.5501 71.7799 38.0598 72.4729C37.3653 73.5327 36.4256 74.0218 35.2407 74.0218C34.0559 74.0218 33.1162 73.4919 32.4216 72.4729C31.9722 71.7799 31.6862 70.924 31.5637 69.8642C31.4411 68.8044 31.3594 67.0924 31.3594 64.7283C31.3594 62.3642 31.4411 60.6522 31.5637 59.5924C31.6862 58.5326 31.9722 57.6359 32.4216 56.9837C33.1162 55.9239 34.0559 55.4348 35.2407 55.4348C36.4256 55.4348 37.3653 55.9647 38.0598 56.9837C38.5501 57.5544 38.8361 58.4104 38.9587 59.5109ZM36.7524 68.7636C36.8341 67.8669 36.8341 66.5218 36.8341 64.6875C36.8341 62.8533 36.7933 61.5082 36.7524 60.6114C36.6707 59.7147 36.5481 59.0625 36.3439 58.6549C36.0987 58.2066 35.731 57.962 35.2407 57.962C34.7505 57.962 34.3828 58.2066 34.1376 58.6549C33.8108 59.3479 33.6065 61.3451 33.6065 64.6875C33.6065 68.0299 33.7699 70.068 34.1376 70.7202C34.3828 71.1685 34.7505 71.4131 35.2407 71.4131C35.731 71.4131 36.0987 71.1685 36.3439 70.7202C36.5481 70.3125 36.6707 69.6604 36.7524 68.7636Z" fill="white"/>
<path d="M48.682 68.5599C48.682 69.6196 48.6003 70.4756 48.4777 71.087C48.3551 71.6984 48.11 72.1876 47.7423 72.6359C47.1294 73.4104 46.1489 73.7773 44.8823 73.7773H41.2461V55.5164H44.9232C46.2306 55.5164 47.1703 55.8832 47.7423 56.6577C48.0691 57.0653 48.3143 57.5544 48.4777 58.1251C48.6003 58.655 48.682 59.4294 48.682 60.4077C48.682 61.7935 48.396 62.8533 47.824 63.587C47.5789 63.8723 47.3337 64.0762 47.0477 64.2392C47.3746 64.443 47.6606 64.6468 47.8648 64.8914C48.396 65.6251 48.682 66.8479 48.682 68.5599ZM46.3532 60.5707C46.3532 59.674 46.2306 59.0626 45.9854 58.655C45.7403 58.2881 45.2909 58.0843 44.7189 58.0843H43.5749V63.0164H44.7189C45.2909 63.0164 45.7403 62.8126 45.9854 62.4457C46.1897 62.0789 46.3532 61.4675 46.3532 60.5707ZM46.394 68.356C46.394 67.337 46.2714 66.6033 45.9854 66.1957C45.6995 65.7474 45.25 65.5435 44.6372 65.5435H43.5341V71.2501H44.6372C45.25 71.2501 45.6995 71.0463 45.9854 70.5979C46.2306 70.1088 46.394 69.3751 46.394 68.356Z" fill="white"/>
<path d="M57.0582 73.7773H50.9297V55.5164H57.0582V58.1251H53.2177V63.3017H56.527V65.9104H53.2177V71.2093H57.0582V73.7773Z" fill="white"/>
<path d="M68.3751 77.2417H66.2097V73.777H60.2855V77.2417H58.1201V71.2091H59.0598C59.8769 68.6411 60.2855 65.7064 60.2855 62.364V55.5569H67.1903V71.2091H68.4159V77.2417H68.3751ZM64.8614 71.2091V58.1248H62.4509V63.0977C62.4509 66.114 62.0832 68.8449 61.3886 71.2091H64.8614Z" fill="white"/>
<path d="M76.3003 73.7773H70.1719V55.5164H76.3003V58.1251H72.4598V63.3017H75.7692V65.9104H72.4598V71.2093H76.3003V73.7773Z" fill="white"/>
<path d="M85.7386 73.7773H83.4506V65.7881H80.5907V73.7773H78.3027V55.5164H80.5907V63.2202H83.4506V55.5164H85.7386V73.7773Z" fill="white"/>
<path d="M95.4196 59.5109C95.5422 60.5707 95.6239 62.2826 95.6239 64.6875C95.6239 67.0517 95.5422 68.8044 95.4196 69.8642C95.2971 70.924 95.0111 71.7799 94.5208 72.4729C93.8262 73.5327 92.8865 74.0218 91.7017 74.0218C90.5168 74.0218 89.5771 73.4919 88.8826 72.4729C88.4332 71.7799 88.1472 70.924 88.0246 69.8642C87.902 68.8044 87.8203 67.0924 87.8203 64.7283C87.8203 62.3642 87.902 60.6522 88.0246 59.5924C88.1472 58.5326 88.4332 57.6359 88.8826 56.9837C89.5771 55.9239 90.5168 55.4348 91.7017 55.4348C92.8865 55.4348 93.8262 55.9647 94.5208 56.9837C95.0111 57.5544 95.2971 58.4104 95.4196 59.5109ZM93.2134 68.7636C93.2951 67.8669 93.2951 66.5218 93.2951 64.6875C93.2951 62.8533 93.2542 61.5082 93.2134 60.6114C93.1317 59.7147 93.0091 59.0625 92.8048 58.6549C92.5597 58.2066 92.192 57.962 91.7017 57.962C91.2114 57.962 90.8437 58.2066 90.5985 58.6549C90.2717 59.3479 90.0674 61.3451 90.0674 64.6875C90.0674 68.0299 90.2308 70.068 90.5985 70.7202C90.8437 71.1685 91.2114 71.4131 91.7017 71.4131C92.192 71.4131 92.5597 71.1685 92.8048 70.7202C93.0499 70.3125 93.1725 69.6604 93.2134 68.7636Z" fill="white"/>
<path d="M99.3835 56.5354L99.0975 57.0245L98.3621 56.5762L98.403 57.5544H97.7901L97.831 56.5762L97.0956 57.0245L96.8096 56.5354L97.5858 56.1278L96.8096 55.7202L97.0956 55.1903L97.831 55.6387L97.7901 54.6604H98.403L98.3621 55.6387L99.0975 55.1903L99.3835 55.7202L98.6073 56.1278L99.3835 56.5354Z" fill="white"/>
<path d="M5.30741 83.6819L4 80.258L12.1304 77.1194L13.4378 80.5433L12.2939 80.9917L11.4767 78.8721L9.18877 79.7688L9.88334 81.6031L8.73935 82.0515L8.04479 80.2172L5.67512 81.114L6.49225 83.2335L5.30741 83.6819Z" fill="#E2001A"/>
<path d="M7.18593 87.5543L6.53223 86.3315L14.2132 82.2554L14.867 83.4782L7.18593 87.5543ZM8.9019 90.8152L8.20735 89.4701L11.2307 85.4755L15.8475 85.2309L16.5421 86.4945L11.9661 86.6575L8.9019 90.8152Z" fill="#E2001A"/>
<path d="M14.6234 95.0952C13.9289 95.5436 13.2752 95.7067 12.7032 95.5844C12.172 95.4621 11.7226 95.1768 11.3958 94.6876C10.9872 94.117 10.8646 93.5056 11.028 92.8942C11.1506 92.4866 11.3958 92.1197 11.7635 91.7528C12.1312 91.386 12.7849 90.8969 13.7246 90.2447C14.6643 89.5925 15.3588 89.1442 15.8083 88.9403C16.2577 88.6958 16.7071 88.6143 17.1157 88.655C17.7694 88.6958 18.3005 89.0219 18.7091 89.5925C19.0768 90.0817 19.1993 90.6115 19.1176 91.1822C19.0359 91.7529 18.6682 92.3235 18.0145 92.8126L17.2382 91.6713C17.5651 91.4268 17.7285 91.223 17.8102 91.0192C17.8919 90.7746 17.8919 90.5708 17.6877 90.3262C17.5242 90.0817 17.3199 89.9594 17.034 90.0001C16.7888 90.0001 16.5028 90.1224 16.1351 90.3262C15.7674 90.53 15.2363 90.8969 14.5008 91.386C13.7654 91.8751 13.2752 92.2827 12.9483 92.5681C12.6215 92.8534 12.4172 93.098 12.3355 93.3018C12.2537 93.5463 12.2537 93.7909 12.4172 94.0355C12.5806 94.28 12.7849 94.4023 13.03 94.4023C13.2343 94.4023 13.5203 94.28 13.8471 94.0762L14.6234 95.0952Z" fill="#E2001A"/>
<path d="M15.5199 99.7826L14.6211 98.7636L21.0764 92.9348L22.0161 93.9538L15.5199 99.7826ZM17.9713 102.473L16.9499 101.332L18.911 96.7256L23.3235 95.3805L24.3041 96.4402L19.9324 97.7038L17.9713 102.473Z" fill="#E2001A"/>
<path d="M23.694 107.487L22.6318 106.59L27.4528 100.883L26.3906 99.9866L23.98 102.84C23.4489 103.451 22.9995 103.94 22.5909 104.266C22.1824 104.593 21.8147 104.756 21.4878 104.796C21.1609 104.837 20.875 104.796 20.6707 104.715C20.4255 104.633 20.1804 104.47 19.9353 104.226L19.6084 103.981L20.4255 103.044L20.5072 103.125C20.6298 103.207 20.7115 103.288 20.7932 103.329C20.875 103.37 20.9975 103.41 21.1609 103.37C21.3244 103.37 21.4469 103.329 21.6512 103.207C21.8146 103.125 22.0189 102.962 22.2641 102.718C22.5092 102.473 22.7952 102.188 23.1221 101.821L26.2272 98.1116L29.3322 100.72L23.694 107.487Z" fill="#E2001A"/>
<path d="M27.9827 110.503L26.7979 109.81L31.2921 102.35L32.4769 103.043L30.5158 106.304L31.2921 106.753C31.7415 105.978 32.1501 105.448 32.436 105.081C32.722 104.714 33.0898 104.511 33.4575 104.348C34.0703 104.144 34.6832 104.225 35.296 104.592C35.9088 104.959 36.2766 105.448 36.3583 106.1C36.44 106.508 36.3583 106.956 36.154 107.445C35.9497 107.935 35.582 108.628 34.9691 109.606C34.3972 110.584 33.9477 111.277 33.6209 111.644C33.294 112.051 32.9263 112.296 32.5178 112.418C31.9049 112.622 31.2921 112.541 30.6792 112.174C30.0664 111.807 29.6987 111.318 29.6169 110.666C29.5761 110.299 29.6169 109.891 29.7395 109.484C29.9029 109.076 30.1889 108.505 30.5975 107.772L29.8212 107.323L27.9827 110.503ZM32.722 110.543C32.9672 110.176 33.3349 109.647 33.7843 108.913C34.2337 108.179 34.5606 107.609 34.724 107.201C34.8874 106.793 35.01 106.508 35.01 106.263C35.01 106.019 34.8874 105.815 34.6014 105.652C34.3563 105.489 34.1112 105.489 33.866 105.611C33.5392 105.774 32.9263 106.549 32.1092 107.935C31.2921 109.32 30.8835 110.176 30.8835 110.584C30.8835 110.829 31.0061 111.032 31.2512 111.195C31.4963 111.359 31.7415 111.359 31.9866 111.236C32.2318 111.114 32.4769 110.869 32.722 110.543Z" fill="#E2001A"/>
<path d="M40.5272 114.049C40.2003 114.823 39.7918 115.353 39.3015 115.557C38.7703 115.802 38.1575 115.802 37.5038 115.516C36.8501 115.272 36.4415 114.905 36.2372 114.416C36.033 113.886 36.033 113.234 36.3598 112.459L37.6264 112.989C37.4629 113.356 37.4221 113.641 37.5038 113.927C37.5855 114.13 37.7489 114.293 37.9532 114.416C38.1984 114.497 38.4026 114.497 38.6069 114.416C38.8521 114.293 39.0563 113.967 39.2606 113.519C39.4649 112.989 39.5058 112.622 39.4241 112.337C39.3423 112.133 39.1789 112.011 38.9746 111.929L38.3209 111.685L38.7704 110.625L39.4241 110.87C39.6283 110.951 39.8326 110.951 39.996 110.87C40.2412 110.747 40.4863 110.462 40.6906 109.973C40.8949 109.484 40.9357 109.158 40.854 108.913C40.7723 108.709 40.6497 108.546 40.4046 108.465C40.1595 108.383 39.9552 108.383 39.7509 108.465C39.5466 108.587 39.3423 108.831 39.1789 109.198L37.9124 108.668C38.1984 107.935 38.6478 107.446 39.2198 107.201C39.71 106.997 40.282 107.038 40.8949 107.283C41.5486 107.568 41.998 107.935 42.1614 108.465C42.284 108.75 42.3249 109.035 42.284 109.321C42.2431 109.606 42.1614 109.973 41.998 110.38C41.7529 110.951 41.4669 111.318 41.0992 111.522C40.8949 111.644 40.6497 111.726 40.3638 111.766C40.5272 111.97 40.6497 112.174 40.7315 112.418C40.854 112.867 40.8132 113.397 40.5272 114.049Z" fill="#E2001A"/>
<path d="M43.8342 117.636L42.6494 117.31L44.8965 108.913L46.2039 109.28L44.8148 114.416L48.0833 109.769L49.2682 110.095L47.0211 118.492L45.7137 118.125L47.1028 112.989L43.8342 117.636Z" fill="#E2001A"/>
<path d="M55.1534 117.269C55.0717 117.758 54.99 118.166 54.8674 118.451C54.7448 118.736 54.5814 118.94 54.3363 119.144C53.9277 119.47 53.3149 119.551 52.5795 119.47L50.4141 119.185L51.5172 110.543L53.6826 110.829C54.4589 110.91 54.99 111.195 55.276 111.562C55.4394 111.807 55.562 112.051 55.6028 112.296C55.6437 112.581 55.6437 112.948 55.6028 113.396C55.5211 114.049 55.276 114.538 54.9083 114.823C54.7449 114.945 54.5814 115.027 54.418 115.068C54.5814 115.19 54.7448 115.312 54.8674 115.435C55.1534 115.842 55.276 116.454 55.1534 117.269ZM53.8051 116.983C53.8869 116.494 53.846 116.168 53.6826 115.924C53.56 115.679 53.3149 115.557 52.9472 115.516L52.2935 115.435L51.9258 118.125L52.5795 118.206C52.9472 118.247 53.2332 118.206 53.3966 118.002C53.6417 117.799 53.7643 117.473 53.8051 116.983ZM54.2546 113.315C54.2954 112.907 54.2546 112.581 54.132 112.377C54.0094 112.174 53.7643 112.051 53.3966 112.011L52.702 111.929L52.416 114.252L53.1106 114.334C53.4783 114.375 53.7234 114.334 53.8869 114.171C54.0911 114.008 54.2137 113.723 54.2546 113.315Z" fill="#E2001A"/>
<path d="M62.7105 119.878L61.3214 119.918L61.2397 116.128L59.5237 116.168L59.6054 119.959L58.2163 120L58.0938 111.318L59.4829 111.277L59.5237 114.946L61.2397 114.905L61.1988 111.236L62.588 111.196L62.7105 119.878Z" fill="#E2001A"/>
<path d="M70.7606 119.063L69.3306 119.266L68.7586 117.595L66.7566 117.84L66.6341 119.592L65.2041 119.796L66.2255 110.91L67.5329 110.747L70.7606 119.063ZM68.3909 116.413L67.1652 112.908L66.8792 116.617L68.3909 116.413Z" fill="#E2001A"/>
<path d="M80.6465 109.973C80.8508 110.339 81.0142 110.788 81.2185 111.318C81.4227 111.848 81.5453 112.337 81.5862 112.744C81.6679 113.152 81.6679 113.519 81.5862 113.926C81.5453 114.293 81.341 114.66 81.055 114.945C80.769 115.231 80.3605 115.475 79.8293 115.679L80.1562 116.657L78.8488 117.106L78.5219 116.128C78.1134 116.25 77.7048 116.291 77.378 116.291C77.0511 116.291 76.7242 116.209 76.4791 116.087C76.234 115.964 75.9888 115.761 75.7845 115.516C75.5803 115.272 75.4168 114.986 75.2534 114.66C75.1308 114.375 74.9674 113.967 74.804 113.56C74.5997 112.989 74.4771 112.5 74.4363 112.092C74.3546 111.685 74.3546 111.318 74.4363 110.91C74.518 110.543 74.6814 110.217 74.9674 109.932C75.2534 109.647 75.662 109.443 76.1523 109.239L75.8663 108.424L77.1737 107.975L77.4597 108.791C77.9908 108.628 78.4811 108.587 78.8488 108.628C79.2574 108.668 79.5842 108.831 79.8702 109.117C80.197 109.28 80.4422 109.606 80.6465 109.973ZM78.1951 114.905L76.6017 110.258C76.1114 110.462 75.8254 110.747 75.7845 111.155C75.7437 111.562 75.8663 112.174 76.1523 112.989C76.4383 113.804 76.7243 114.375 76.9694 114.66C77.2554 114.986 77.664 115.068 78.1951 114.905ZM80.2788 113.6C80.3196 113.193 80.1971 112.581 79.9111 111.766C79.6251 110.91 79.3391 110.38 79.0531 110.054C78.7671 109.769 78.3585 109.687 77.8682 109.85L79.4616 114.497C79.9519 114.293 80.2379 114.008 80.2788 113.6Z" fill="#E2001A"/>
<path d="M86.4891 106.223C86.7751 106.631 87.1837 107.364 87.7148 108.343C88.246 109.362 88.5728 110.095 88.7362 110.585C88.8997 111.074 88.9405 111.522 88.8588 111.93C88.7362 112.582 88.3277 113.03 87.7148 113.356C87.102 113.682 86.4891 113.723 85.8763 113.479C85.4677 113.316 85.1409 113.03 84.8549 112.623C84.5689 112.215 84.1603 111.481 83.6292 110.503C83.098 109.525 82.7712 108.75 82.6078 108.261C82.4443 107.772 82.4035 107.324 82.4852 106.916C82.6078 106.264 83.0163 105.816 83.6292 105.489C84.242 105.163 84.8549 105.123 85.4677 105.367C85.8354 105.489 86.2031 105.816 86.4891 106.223ZM87.3471 110.748C87.1837 110.34 86.8977 109.769 86.4891 108.995C86.0806 108.22 85.7537 107.65 85.5494 107.283C85.3043 106.916 85.1 106.672 84.8957 106.549C84.6506 106.427 84.4055 106.427 84.1603 106.549C83.9152 106.672 83.7517 106.875 83.7517 107.161C83.7109 107.528 84.0786 108.424 84.814 109.851C85.5494 111.278 86.0806 112.093 86.4074 112.256C86.6117 112.378 86.8568 112.378 87.1428 112.256C87.4288 112.133 87.5514 111.93 87.5923 111.644C87.5923 111.441 87.5105 111.114 87.3471 110.748Z" fill="#E2001A"/>
<path d="M92.5773 103.125C93.1084 103.858 93.3127 104.511 93.2718 105.081C93.231 105.611 92.8633 106.141 92.2096 106.589L91.515 107.038L93.4353 109.85L92.2913 110.625L87.3477 103.451L89.1453 102.228C89.799 101.78 90.371 101.617 90.9022 101.78C91.4333 101.943 92.087 102.35 92.5773 103.125ZM91.9236 104.877C91.8827 104.592 91.7602 104.266 91.4742 103.899C91.1882 103.492 90.943 103.247 90.6979 103.125C90.4528 103.002 90.2076 103.043 89.9216 103.247L89.2679 103.695L90.8613 106.019L91.515 105.57C91.801 105.367 91.9236 105.122 91.9236 104.877Z" fill="#E2001A"/>
<path d="M102.914 102.106L101.893 103.043L98.2157 99.0487L99.7682 102.473L99.1962 103.003L95.9686 101.209L99.6048 105.163L98.5834 106.1L92.6592 99.7009L93.558 98.8449L97.9297 101.046L96.0503 96.5623L96.9491 95.7063L102.914 102.106Z" fill="#E2001A"/>
<path d="M101.32 90.5706L105.487 96.9293C105.814 97.4592 105.977 97.9075 105.937 98.2744C105.896 98.6412 105.651 99.0896 105.201 99.6195L104.261 98.845C104.507 98.5597 104.629 98.3151 104.629 98.1113C104.629 97.9075 104.547 97.663 104.343 97.3369L103.935 96.7255L98.1738 94.4836L99.1135 93.3423L102.913 95.0543L100.462 91.7119L101.32 90.5706Z" fill="#E2001A"/>
<path d="M111.861 90.3669L111.125 91.5083L104.833 87.5137L104.098 88.6957L107.285 90.693C107.979 91.1414 108.51 91.5083 108.878 91.9159C109.246 92.2827 109.491 92.6496 109.573 92.9349C109.654 93.261 109.654 93.5055 109.613 93.7501C109.573 93.9947 109.45 94.2392 109.246 94.5653L109.041 94.8914L107.979 94.2392L108.061 94.117C108.143 93.9947 108.183 93.8724 108.224 93.7909C108.265 93.7093 108.265 93.5871 108.224 93.424C108.183 93.261 108.143 93.1387 108.02 92.9756C107.897 92.8126 107.693 92.6496 107.448 92.405C107.203 92.1604 106.876 91.9566 106.467 91.6713L102.382 89.0626L104.588 85.6387L111.861 90.3669Z" fill="#E2001A"/>
<path d="M115.58 82.8667L114.967 84.1711L113.251 83.7635L112.393 85.5977L113.823 86.6167L113.21 87.9211L106.183 82.3368L106.755 81.114L115.58 82.8667ZM112.025 83.4781L108.389 82.6222L111.371 84.8232L112.025 83.4781Z" fill="#E2001A"/>
</svg>
