<svg width="119" height="119" viewBox="0 0 119 119" fill="none" xmlns="http://www.w3.org/2000/svg">
<path d="M69.6986 108.21C96.7094 102.469 113.952 75.9183 108.21 48.9075C102.469 21.8967 75.9182 4.65435 48.9074 10.3957C21.8966 16.137 4.65426 42.6878 10.3956 69.6986C16.1369 96.7095 42.6878 113.952 69.6986 108.21Z" fill="white"/>
<path d="M68.7231 103.62C93.1987 98.4176 108.823 74.3588 103.62 49.8832C98.4177 25.4077 74.3589 9.7837 49.8834 14.9861C25.4078 20.1886 9.78382 44.2474 14.9863 68.723C20.1887 93.1985 44.2475 108.823 68.7231 103.62Z" fill="white"/>
<path d="M68.2137 104.177C67.9992 104.222 67.7482 104.096 67.6935 103.839C67.6479 103.624 67.7739 103.373 68.0313 103.319C68.2458 103.273 68.5059 103.442 68.5515 103.656C68.5971 103.871 68.4711 104.122 68.2137 104.177ZM69.7956 103.392C69.75 103.177 69.8761 102.926 70.0906 102.881C70.3051 102.835 70.5561 102.961 70.6016 103.176C70.6472 103.39 70.5212 103.641 70.3067 103.687C70.0493 103.742 69.8412 103.606 69.7956 103.392ZM66.1362 104.529C65.9217 104.574 65.7045 104.396 65.6589 104.182C65.6133 103.967 65.7913 103.75 66.0058 103.704C66.2203 103.659 66.4375 103.837 66.4831 104.051C66.5287 104.266 66.3507 104.483 66.1362 104.529ZM71.8367 102.868C71.7911 102.654 71.9171 102.403 72.1316 102.357C72.3461 102.312 72.5971 102.438 72.6427 102.652C72.6883 102.867 72.6051 103.109 72.3477 103.163C72.3477 103.163 72.3477 103.163 72.3048 103.172C72.1332 103.209 71.8823 103.083 71.8367 102.868ZM63.9976 104.804C63.7739 104.806 63.5658 104.671 63.5111 104.414C63.5084 104.19 63.6436 103.982 63.901 103.927C64.1155 103.882 64.3327 104.06 64.3874 104.317C64.3901 104.541 64.255 104.749 64.0405 104.795C64.0405 104.795 64.0405 104.795 63.9976 104.804ZM73.8503 102.216C73.7618 102.011 73.8878 101.76 74.0932 101.671C74.2986 101.583 74.5496 101.709 74.6381 101.914C74.7266 102.12 74.6006 102.371 74.3952 102.459L74.3523 102.468C74.1469 102.557 73.9388 102.422 73.8503 102.216ZM61.8836 104.984C61.66 104.987 61.4428 104.809 61.4401 104.585C61.4374 104.361 61.6154 104.144 61.839 104.142C62.0626 104.139 62.2798 104.317 62.2825 104.541C62.2852 104.764 62.141 104.929 61.9265 104.975C61.9265 104.975 61.9265 104.975 61.8836 104.984ZM75.8457 101.478C75.7573 101.273 75.8833 101.022 76.0886 100.933C76.294 100.845 76.545 100.971 76.6335 101.176C76.722 101.382 76.596 101.633 76.3906 101.721C76.3906 101.721 76.3477 101.73 76.3048 101.739C76.1332 101.776 75.9342 101.684 75.8457 101.478ZM59.7422 105.036C59.5186 105.038 59.3014 104.86 59.2987 104.637C59.296 104.413 59.4741 104.196 59.6977 104.193C59.9213 104.19 60.1385 104.368 60.1412 104.592C60.1439 104.816 59.9997 104.981 59.7852 105.027C59.8281 105.017 59.7851 105.027 59.7422 105.036ZM77.7892 100.706C77.7007 100.501 77.7838 100.259 77.9892 100.171C78.1945 100.082 78.4364 100.165 78.5249 100.371C78.6134 100.576 78.5303 100.818 78.334 100.949C78.2911 100.958 78.2911 100.958 78.2482 100.968C78.0675 100.961 77.8685 100.869 77.7892 100.706ZM57.6347 105.035C57.4111 105.038 57.2277 104.808 57.225 104.584C57.2223 104.361 57.4523 104.177 57.676 104.174C57.8996 104.172 58.083 104.402 58.0857 104.625C58.0793 104.806 57.935 104.971 57.7634 105.008C57.7205 105.017 57.6776 105.026 57.6347 105.035ZM79.6961 99.763C79.6076 99.5576 79.6907 99.3157 79.887 99.1844C80.0924 99.0959 80.3342 99.179 80.4656 99.3752C80.5541 99.5806 80.471 99.8225 80.2747 99.9539C80.2318 99.963 80.1889 99.9721 80.146 99.9812C79.9835 100.061 79.7846 99.9684 79.6961 99.763ZM55.4998 104.906C55.2671 104.866 55.0928 104.679 55.133 104.446C55.1303 104.222 55.3603 104.039 55.5931 104.079C55.8167 104.076 56.0001 104.307 55.9599 104.539C55.9535 104.72 55.8092 104.885 55.6376 104.922C55.5856 104.888 55.5427 104.897 55.4998 104.906ZM81.551 98.7858C81.4196 98.5896 81.5027 98.3477 81.699 98.2163C81.8952 98.0849 82.1371 98.168 82.2685 98.3643C82.3999 98.5605 82.3168 98.8024 82.1205 98.9338C82.0776 98.9429 82.0347 98.952 81.9918 98.9612C81.8293 99.0405 81.6304 98.9483 81.551 98.7858ZM53.3804 104.639C53.1477 104.599 52.9734 104.412 53.0136 104.179C53.0538 103.946 53.241 103.772 53.4737 103.812C53.7065 103.852 53.8808 104.04 53.8405 104.272C53.8341 104.453 53.6899 104.618 53.5183 104.655C53.4754 104.664 53.4325 104.673 53.3804 104.639ZM83.3877 97.7228C83.2563 97.5266 83.3303 97.2418 83.5357 97.1533C83.7319 97.0219 83.9738 97.105 84.1052 97.3013C84.2366 97.4975 84.1535 97.7394 83.9572 97.8708C83.9143 97.8799 83.8805 97.9319 83.8376 97.9411C83.6569 97.9346 83.467 97.8853 83.3877 97.7228ZM51.252 104.329C51.0192 104.289 50.8787 104.05 50.9189 103.817C50.9591 103.584 51.1983 103.444 51.3881 103.493C51.6209 103.533 51.7614 103.773 51.7121 103.962C51.6627 104.152 51.5523 104.265 51.3807 104.302C51.3898 104.345 51.304 104.363 51.252 104.329ZM85.1541 96.5403C85.0227 96.344 85.0538 96.0683 85.25 95.9369C85.4463 95.8055 85.722 95.8366 85.8533 96.0329C85.9847 96.2292 85.9445 96.4619 85.7574 96.6362C85.7145 96.6453 85.6807 96.6973 85.5949 96.7156C85.4233 96.7521 85.2335 96.7027 85.1541 96.5403ZM49.191 103.915C48.9583 103.875 48.8178 103.636 48.858 103.403C48.8982 103.171 49.1374 103.03 49.3701 103.07C49.6029 103.11 49.7434 103.35 49.7032 103.582C49.6447 103.729 49.5434 103.885 49.3718 103.922C49.286 103.94 49.2339 103.906 49.191 103.915ZM86.8256 95.333C86.6942 95.1367 86.7253 94.8611 86.9215 94.7297C87.1178 94.5983 87.3506 94.6385 87.5157 94.7828C87.6471 94.979 87.616 95.2547 87.4627 95.377C87.4289 95.429 87.3431 95.4472 87.3002 95.4563C87.0857 95.5019 86.9387 95.4435 86.8256 95.333ZM47.1028 103.373C46.87 103.333 46.7295 103.093 46.8126 102.852C46.8528 102.619 47.092 102.478 47.3339 102.561C47.5666 102.602 47.7071 102.841 47.624 103.083C47.5656 103.23 47.4551 103.343 47.2835 103.379C47.2406 103.388 47.1548 103.407 47.1028 103.373ZM88.4697 93.9971C88.3383 93.8008 88.3356 93.5772 88.5228 93.4029C88.719 93.2715 88.9427 93.2688 89.117 93.4559C89.2913 93.6431 89.2511 93.8758 89.0639 94.0501C89.0301 94.1022 88.9443 94.1204 88.8585 94.1386C88.7298 94.166 88.5829 94.1075 88.4697 93.9971ZM45.0483 102.778C44.8064 102.695 44.7088 102.447 44.801 102.248C44.8841 102.006 45.1324 101.908 45.3223 101.958C45.5642 102.041 45.6618 102.289 45.5695 102.488C45.5111 102.635 45.4006 102.748 45.2719 102.775C45.1861 102.794 45.1432 102.803 45.0483 102.778ZM90.0527 92.5845C89.8784 92.3973 89.9186 92.1646 90.0629 91.9994C90.25 91.8251 90.4828 91.8653 90.6479 92.0095C90.8222 92.1967 90.782 92.4294 90.6378 92.5946C90.5611 92.6557 90.5182 92.6649 90.4324 92.6831C90.3128 92.7534 90.1659 92.6949 90.0527 92.5845ZM43.0523 102.037C42.8104 101.954 42.7128 101.705 42.805 101.506C42.8881 101.264 43.1364 101.167 43.3354 101.259C43.5343 101.351 43.6748 101.59 43.5826 101.789C43.5242 101.936 43.4046 102.007 43.2759 102.034C43.1992 102.095 43.1043 102.07 43.0523 102.037ZM91.5837 91.138C91.4185 90.9938 91.4067 90.7273 91.5938 90.553C91.7381 90.3878 92.0046 90.376 92.1789 90.5631C92.3532 90.7503 92.3559 90.9739 92.1688 91.1482C92.0921 91.2093 92.0583 91.2614 91.9725 91.2796C91.8347 91.2641 91.6968 91.2485 91.5837 91.138ZM41.0471 101.252C40.8481 101.16 40.7505 100.912 40.8427 100.713C40.935 100.514 41.1833 100.416 41.3822 100.508C41.5812 100.601 41.6788 100.849 41.5866 101.048C41.5281 101.195 41.4085 101.265 41.2798 101.292C41.2369 101.302 41.142 101.277 41.0471 101.252ZM93.0015 89.5812C92.8363 89.4369 92.8245 89.1704 92.9688 89.0052C93.113 88.84 93.3795 88.8282 93.5447 88.9725C93.7099 89.1167 93.7217 89.3832 93.5775 89.5484C93.5008 89.6096 93.4241 89.6707 93.3383 89.6889C93.2525 89.7072 93.1147 89.6916 93.0015 89.5812ZM39.1524 100.355C38.9534 100.262 38.8558 100.014 38.9389 99.7722C39.0312 99.5732 39.2794 99.4756 39.5213 99.5587C39.7203 99.6509 39.8179 99.8992 39.7348 100.141C39.6672 100.245 39.5567 100.358 39.428 100.386C39.2993 100.413 39.2044 100.388 39.1524 100.355ZM94.4102 87.9814C94.245 87.8371 94.1903 87.5797 94.3254 87.3717C94.4697 87.2065 94.7271 87.1518 94.8923 87.296C95.0575 87.4403 95.1122 87.6977 94.977 87.9058C94.9004 87.9669 94.8237 88.028 94.7379 88.0463C94.6183 88.1165 94.5142 88.049 94.4102 87.9814ZM37.2395 99.3711C37.0405 99.2789 36.9338 98.9877 37.0689 98.7796C37.1611 98.5807 37.4523 98.4739 37.6604 98.6091C37.8685 98.7442 37.9661 98.9925 37.831 99.2006C37.7634 99.3046 37.6438 99.3749 37.558 99.3931C37.4293 99.4205 37.3344 99.3958 37.2395 99.3711ZM95.7149 86.3141C95.5068 86.1789 95.495 85.9124 95.6301 85.7043C95.7652 85.4962 96.0318 85.4844 96.2398 85.6196C96.405 85.7638 96.4597 86.0212 96.3246 86.2293C96.257 86.3333 96.1712 86.3516 96.0425 86.3789C95.9138 86.4063 95.776 86.3907 95.7149 86.3141ZM35.3941 98.2837C35.186 98.1486 35.1313 97.8911 35.2664 97.6831C35.4016 97.475 35.659 97.4203 35.867 97.5554C36.0751 97.6905 36.1298 97.9479 35.9947 98.156C35.9271 98.2601 35.8505 98.3212 35.7218 98.3485C35.5931 98.3759 35.4981 98.3512 35.3941 98.2837ZM96.9155 84.5791C96.7074 84.444 96.6527 84.1866 96.7878 83.9785C96.9229 83.7705 97.1803 83.7157 97.3884 83.8509C97.5965 83.986 97.6512 84.2434 97.5161 84.4515C97.4485 84.5555 97.3719 84.6167 97.2431 84.644C97.1144 84.6714 97.0195 84.6467 96.9155 84.5791ZM33.6254 97.1351C33.4173 97 33.3626 96.7426 33.4977 96.5345C33.6329 96.3264 33.8903 96.2717 34.0984 96.4068C34.3064 96.5419 34.3611 96.7993 34.226 97.0074C34.1585 97.1115 34.0818 97.1726 33.9531 97.1999C33.8244 97.2273 33.6865 97.2118 33.6254 97.1351ZM98.0641 82.8105C97.8651 82.7182 97.8013 82.4179 97.9455 82.2528C98.0807 82.0447 98.3381 81.99 98.537 82.0822C98.7451 82.2173 98.7998 82.4747 98.7076 82.6737C98.64 82.7777 98.5204 82.848 98.4346 82.8662C98.263 82.9027 98.1681 82.878 98.0641 82.8105ZM31.8814 95.8916C31.7162 95.7473 31.6615 95.4899 31.7966 95.2818C31.9409 95.1166 32.1983 95.0619 32.4064 95.1971C32.5715 95.3413 32.6263 95.5987 32.4911 95.8068C32.4236 95.9108 32.3378 95.9291 32.2519 95.9473C32.0803 95.9838 31.9854 95.9591 31.8814 95.8916ZM99.1086 80.9742C98.9097 80.882 98.8029 80.5908 98.9381 80.3827C99.0303 80.1838 99.2786 80.0861 99.5296 80.2122C99.7285 80.3044 99.8353 80.5956 99.7001 80.8037C99.6326 80.9077 99.513 80.978 99.4272 80.9962C99.3076 81.0664 99.2127 81.0418 99.1086 80.9742ZM30.214 94.5869C30.0489 94.4427 29.9942 94.1852 30.1813 94.011C30.3256 93.8458 30.583 93.7911 30.7481 93.9353C30.9133 94.0796 30.968 94.337 30.8329 94.545C30.7562 94.6062 30.6795 94.6673 30.5937 94.6856C30.413 94.6791 30.3181 94.6545 30.214 94.5869ZM100.058 79.1133C99.8593 79.0211 99.7617 78.7728 99.8448 78.5309C99.937 78.332 100.185 78.2343 100.427 78.3175C100.626 78.4097 100.724 78.658 100.632 78.8569C100.564 78.961 100.454 79.0741 100.325 79.1015C100.248 79.1626 100.153 79.138 100.058 79.1133ZM28.5714 93.1873C28.4062 93.0431 28.3944 92.7766 28.5386 92.6114C28.6829 92.4462 28.9494 92.4344 29.1146 92.5786C29.2798 92.7229 29.2916 92.9894 29.1564 93.1975C29.0798 93.2586 29.0031 93.3198 28.9173 93.338C28.8224 93.3133 28.6845 93.2978 28.5714 93.1873ZM100.947 77.1757C100.748 77.0835 100.65 76.8352 100.742 76.6362C100.835 76.4373 101.083 76.3397 101.282 76.4319C101.481 76.5241 101.578 76.7724 101.486 76.9714C101.428 77.1183 101.308 77.1886 101.18 77.2159C101.137 77.225 101.051 77.2433 100.947 77.1757ZM27.0483 91.7175C26.874 91.5303 26.8713 91.3067 27.0584 91.1324C27.2027 90.9672 27.4692 90.9554 27.6435 91.1426C27.8087 91.2868 27.8205 91.5533 27.6334 91.7276C27.5567 91.7888 27.48 91.8499 27.4371 91.859C27.2993 91.8435 27.1614 91.828 27.0483 91.7175ZM101.74 75.2134C101.541 75.1212 101.401 74.8821 101.493 74.6831C101.585 74.4841 101.824 74.3436 102.023 74.4358C102.265 74.5189 102.363 74.7672 102.271 74.9662C102.212 75.1131 102.102 75.2263 101.973 75.2537C101.887 75.2719 101.835 75.2381 101.74 75.2134ZM25.559 90.1956C25.3847 90.0085 25.4249 89.7757 25.5691 89.6106C25.7563 89.4363 26.0319 89.4673 26.1542 89.6207C26.3285 89.8079 26.2883 90.0406 26.144 90.2058C26.0674 90.2669 26.0245 90.276 25.9387 90.2943C25.8191 90.3645 25.6721 90.3061 25.559 90.1956ZM102.439 73.2265C102.197 73.1434 102.1 72.8951 102.149 72.7053C102.232 72.4634 102.437 72.3749 102.67 72.4151C102.912 72.4982 103.01 72.7465 102.96 72.9364C102.902 73.0833 102.791 73.1965 102.663 73.2238C102.577 73.2421 102.534 73.2512 102.439 73.2265ZM24.1801 88.5606C24.0487 88.3643 24.0369 88.0978 24.2332 87.9664C24.4295 87.835 24.6531 87.8323 24.8274 88.0195C24.9588 88.2158 24.9615 88.4394 24.7743 88.6137C24.7405 88.6657 24.6547 88.6839 24.5689 88.7022C24.4494 88.7724 24.2595 88.7231 24.1801 88.5606ZM103.043 71.2149C102.81 71.1747 102.669 70.9356 102.753 70.6937C102.793 70.461 103.032 70.3204 103.274 70.4036C103.507 70.4438 103.647 70.6829 103.564 70.9248C103.506 71.0717 103.395 71.1849 103.223 71.2214C103.181 71.2305 103.138 71.2396 103.043 71.2149ZM22.8442 86.9165C22.7128 86.7202 22.7439 86.4446 22.9402 86.3132C23.1364 86.1818 23.4121 86.2129 23.5435 86.4091C23.6749 86.6054 23.6438 86.881 23.4475 87.0124C23.4137 87.0645 23.3279 87.0827 23.285 87.0918C23.1134 87.1283 22.9236 87.079 22.8442 86.9165ZM103.542 69.1358C103.31 69.0956 103.169 68.8564 103.209 68.6237C103.25 68.3909 103.489 68.2504 103.721 68.2906C103.954 68.3308 104.095 68.57 104.055 68.8027C104.005 68.9926 103.895 69.1057 103.723 69.1422C103.68 69.1513 103.637 69.1604 103.542 69.1358ZM21.5849 85.2112C21.4535 85.0149 21.4937 84.7822 21.69 84.6508C21.8863 84.5194 22.1619 84.5505 22.2933 84.7468C22.4247 84.943 22.3936 85.2187 22.1974 85.3501C22.1545 85.3592 22.1207 85.4112 22.0349 85.4294C21.8542 85.423 21.6981 85.3217 21.5849 85.2112ZM103.956 67.0749C103.724 67.0347 103.583 66.7955 103.632 66.6057C103.673 66.3729 103.912 66.2324 104.092 66.2388C104.325 66.279 104.466 66.5182 104.416 66.708C104.41 66.8888 104.257 67.011 104.085 67.0475C104.094 67.0904 104.051 67.0995 103.956 67.0749ZM20.4361 83.3928C20.3047 83.1965 20.3879 82.9546 20.5841 82.8232C20.7804 82.6918 21.0651 82.7658 21.1536 82.9712C21.285 83.1675 21.2111 83.4522 21.0057 83.5407C20.9628 83.5499 20.929 83.6019 20.8861 83.611C20.7145 83.6475 20.5155 83.5553 20.4361 83.3928ZM104.275 64.9893C104.043 64.9491 103.868 64.7619 103.908 64.5292C103.949 64.2965 104.136 64.1222 104.369 64.1624C104.601 64.2026 104.776 64.3897 104.735 64.6225C104.729 64.8032 104.585 64.9684 104.413 65.0048C104.361 64.9711 104.361 64.9711 104.275 64.9893ZM19.3302 81.5652C19.2418 81.3598 19.282 81.1271 19.4782 80.9957C19.6745 80.8643 19.9164 80.9474 20.0478 81.1437C20.1792 81.3399 20.0961 81.5818 19.8998 81.7132C19.8569 81.7223 19.814 81.7314 19.7711 81.7406C19.6086 81.8199 19.4096 81.7277 19.3302 81.5652ZM104.499 62.8791C104.276 62.8817 104.092 62.6517 104.09 62.4281C104.087 62.2044 104.317 62.021 104.541 62.0183C104.764 62.0156 104.948 62.2457 104.95 62.4693C104.944 62.65 104.8 62.8152 104.628 62.8517C104.585 62.8608 104.542 62.8699 104.499 62.8791ZM18.3439 79.6674C18.2555 79.462 18.3386 79.2202 18.5348 79.0888C18.7402 79.0003 18.9821 79.0834 19.1135 79.2796C19.202 79.485 19.1189 79.7269 18.9226 79.8583C18.8797 79.8674 18.8368 79.8765 18.8368 79.8765C18.6314 79.965 18.4324 79.8728 18.3439 79.6674ZM104.638 60.7871C104.414 60.7898 104.24 60.6026 104.228 60.3361C104.225 60.1125 104.412 59.9382 104.679 59.9263C104.902 59.9236 105.077 60.1108 105.089 60.3773C105.082 60.558 104.938 60.7232 104.766 60.7597C104.68 60.7779 104.68 60.7779 104.638 60.7871ZM17.4434 77.7514C17.3549 77.546 17.4381 77.3041 17.6863 77.2065C17.8917 77.118 18.1336 77.2011 18.2312 77.4494C18.3197 77.6548 18.2366 77.8966 17.9883 77.9943C17.9454 78.0034 17.9454 78.0034 17.9025 78.0125C17.7309 78.049 17.5319 77.9567 17.4434 77.7514ZM104.638 58.6795C104.414 58.6822 104.197 58.5042 104.194 58.2805C104.192 58.0569 104.37 57.8397 104.593 57.837C104.817 57.8343 105.034 58.0124 105.037 58.236C105.04 58.4596 104.895 58.6248 104.724 58.6613C104.681 58.6704 104.681 58.6704 104.638 58.6795ZM16.6196 75.7742C16.5311 75.5688 16.6571 75.3178 16.8625 75.2293C17.0679 75.1408 17.3189 75.2668 17.4074 75.4722C17.4959 75.6776 17.3699 75.9286 17.1645 76.0171L17.1216 76.0262C16.9071 76.0718 16.7081 75.9796 16.6196 75.7742ZM104.586 56.5382C104.363 56.5409 104.146 56.3628 104.143 56.1392C104.14 55.9156 104.318 55.6984 104.542 55.6957C104.765 55.693 104.983 55.871 104.985 56.0947C104.988 56.3183 104.844 56.4835 104.672 56.5199C104.586 56.5382 104.586 56.5382 104.586 56.5382ZM15.9245 73.7696C15.836 73.5642 15.962 73.3133 16.2103 73.2156C16.4157 73.1271 16.6667 73.2532 16.7643 73.5014C16.8528 73.7068 16.7268 73.9578 16.5214 74.0463L16.4785 74.0554C16.1782 74.1193 15.9701 73.9841 15.9245 73.7696ZM104.363 54.4333C104.149 54.4789 103.931 54.3009 103.886 54.0864C103.84 53.8719 104.018 53.6547 104.233 53.6091C104.447 53.5635 104.665 53.7415 104.71 53.956C104.765 54.2134 104.621 54.3786 104.363 54.4333C104.406 54.4242 104.406 54.4242 104.363 54.4333ZM15.2723 71.756C15.2267 71.5415 15.3527 71.2905 15.5672 71.2449C15.7817 71.1993 16.0327 71.3253 16.0783 71.5398C16.1239 71.7543 15.9979 72.0053 15.7834 72.0509C15.7834 72.0509 15.7834 72.0509 15.7405 72.06C15.5689 72.0965 15.3608 71.9613 15.2723 71.756ZM104.097 52.3376C103.883 52.3832 103.665 52.2052 103.62 51.9907C103.574 51.7761 103.743 51.516 103.967 51.5134C104.181 51.4678 104.398 51.6458 104.444 51.8603C104.49 52.0748 104.354 52.2829 104.097 52.3376ZM14.7397 69.672C14.6941 69.4575 14.8201 69.2066 15.0775 69.1518C15.292 69.1062 15.543 69.2323 15.5886 69.4468C15.6342 69.6613 15.5081 69.9122 15.2936 69.9578C15.0454 70.0555 14.7944 69.9295 14.7397 69.672ZM103.234 49.9652C103.189 49.7507 103.315 49.4997 103.572 49.445C103.786 49.3994 104.037 49.5254 104.092 49.7828C104.138 49.9973 104.012 50.2483 103.754 50.303C103.488 50.3148 103.28 50.1797 103.234 49.9652ZM14.8221 67.9506C14.6076 67.9962 14.3475 67.8273 14.3449 67.6037C14.2993 67.3892 14.4773 67.172 14.6918 67.1264C14.9063 67.0808 15.1664 67.2497 15.1691 67.4733C15.2056 67.6449 15.0367 67.905 14.8221 67.9506ZM102.817 48.2153C102.772 48.0008 102.898 47.7499 103.112 47.7043C103.327 47.6587 103.578 47.7847 103.623 47.9992C103.669 48.2137 103.543 48.4647 103.328 48.5103C103.114 48.5559 102.863 48.4299 102.817 48.2153ZM14.4611 65.8302C14.2466 65.8758 14.0294 65.6978 13.9838 65.4833C13.9382 65.2688 14.1163 65.0516 14.3308 65.006C14.5453 64.9604 14.7625 65.1384 14.8081 65.3529C14.8628 65.6103 14.6756 65.7846 14.4611 65.8302ZM102.251 46.1834C102.162 45.9781 102.288 45.7271 102.546 45.6724C102.76 45.6268 103.011 45.7528 103.057 45.9673C103.103 46.1818 102.977 46.4328 102.762 46.4784L102.719 46.4875C102.547 46.524 102.339 46.3888 102.251 46.1834ZM14.195 63.7345C13.9714 63.7372 13.7633 63.602 13.7515 63.3355C13.7488 63.1119 13.8839 62.9038 14.1505 62.892C14.3741 62.8893 14.5822 63.0244 14.594 63.291C14.6396 63.5055 14.4616 63.7227 14.247 63.7683L14.195 63.7345ZM101.608 44.2127C101.519 44.0073 101.645 43.7563 101.851 43.6678C102.056 43.5793 102.307 43.7053 102.396 43.9107C102.484 44.1161 102.358 44.3671 102.153 44.4556L102.11 44.4647C101.895 44.5103 101.696 44.4181 101.608 44.2127ZM14.0238 61.6634C13.8002 61.6661 13.583 61.4881 13.5803 61.2644C13.5776 61.0408 13.7557 60.8236 13.9793 60.8209C14.2029 60.8182 14.4201 60.9963 14.4228 61.2199C14.4255 61.4435 14.2813 61.6087 14.0667 61.6543C14.0667 61.6543 14.0667 61.6543 14.0238 61.6634ZM100.879 42.2602C100.79 42.0548 100.874 41.8129 101.122 41.7153C101.327 41.6268 101.569 41.7099 101.667 41.9582C101.755 42.1636 101.672 42.4054 101.424 42.5031C101.381 42.5122 101.381 42.5122 101.338 42.5213C101.166 42.5578 100.967 42.4655 100.879 42.2602ZM13.9722 59.5221C13.7486 59.5248 13.5314 59.3467 13.5716 59.114C13.5689 58.8904 13.747 58.6732 13.9797 58.7134C14.2033 58.7107 14.4205 58.8887 14.3803 59.1215C14.3739 59.3022 14.2388 59.5103 14.0243 59.5559C14.0243 59.5559 14.0151 59.513 13.9722 59.5221ZM100.021 40.335C99.9328 40.1296 100.016 39.8877 100.221 39.7992C100.427 39.7108 100.669 39.7939 100.8 39.9901C100.888 40.1955 100.805 40.4374 100.609 40.5688C100.566 40.5779 100.566 40.5779 100.523 40.587C100.309 40.6326 100.11 40.5404 100.021 40.335ZM14.0156 57.4054C13.7919 57.4081 13.6085 57.1781 13.6058 56.9544C13.6031 56.7308 13.8332 56.5474 14.0568 56.5447C14.2804 56.542 14.4639 56.772 14.4666 56.9957C14.4601 57.1764 14.3159 57.3416 14.1443 57.3781C14.0676 57.4392 14.0247 57.4483 14.0156 57.4054ZM99.1299 38.4618C99.0414 38.2565 99.1245 38.0146 99.3208 37.8832C99.5262 37.7947 99.7681 37.8778 99.8995 38.0741C99.988 38.2795 99.914 38.5642 99.7086 38.6527C99.6657 38.6618 99.6228 38.671 99.5799 38.6801C99.4083 38.7166 99.2093 38.6243 99.1299 38.4618ZM14.1538 55.3134C13.9211 55.2732 13.7468 55.086 13.787 54.8533C13.8272 54.6206 14.0143 54.4463 14.2471 54.4865C14.4798 54.5267 14.6541 54.7138 14.6139 54.9466C14.6075 55.1273 14.4632 55.2925 14.2916 55.329C14.2396 55.2952 14.1967 55.3043 14.1538 55.3134ZM98.1098 36.6161C97.9784 36.4198 98.0616 36.1779 98.2578 36.0465C98.4541 35.9151 98.696 35.9982 98.8274 36.1945C98.9588 36.3908 98.8848 36.6755 98.6794 36.764C98.6365 36.7732 98.5936 36.7823 98.5507 36.7914C98.3882 36.8708 98.1892 36.7785 98.1098 36.6161ZM14.3779 53.2032C14.1451 53.163 13.9708 52.9758 14.011 52.7431C14.0512 52.5103 14.2384 52.336 14.4711 52.3762C14.7039 52.4164 14.8782 52.6036 14.838 52.8363C14.7886 53.0262 14.6782 53.1393 14.5066 53.1758C14.4728 53.2278 14.4299 53.2369 14.3779 53.2032ZM97.0131 34.8314C96.8817 34.6351 96.9648 34.3933 97.1181 34.271C97.3144 34.1396 97.5992 34.2136 97.6786 34.3761C97.81 34.5723 97.736 34.8571 97.5306 34.9456C97.4877 34.9547 97.4539 35.0067 97.411 35.0159C97.2914 35.0861 97.0924 34.9939 97.0131 34.8314ZM14.6968 51.1176C14.4641 51.0774 14.3236 50.8382 14.3638 50.6055C14.404 50.3727 14.6431 50.2322 14.8759 50.2724C15.1086 50.3126 15.2492 50.5518 15.2089 50.7845C15.1596 50.9744 15.0492 51.0875 14.8775 51.124C14.8346 51.1331 14.7488 51.1514 14.6968 51.1176ZM95.8396 33.1079C95.7082 32.9116 95.7484 32.6789 95.9356 32.5046C96.1318 32.3732 96.3646 32.4134 96.5389 32.6005C96.6703 32.7968 96.6392 33.0725 96.4429 33.2039C96.4091 33.2559 96.3233 33.2741 96.2804 33.2832C96.1088 33.3197 95.919 33.2704 95.8396 33.1079ZM15.1536 49.0476C14.9209 49.0073 14.7804 48.7682 14.8206 48.5354C14.8608 48.3027 15.0999 48.1622 15.3418 48.2453C15.5745 48.2855 15.7151 48.5247 15.6749 48.7574C15.6255 48.9473 15.5151 49.0604 15.3435 49.0969C15.2485 49.0722 15.2056 49.0813 15.1536 49.0476ZM94.5466 31.4546C94.4152 31.2584 94.4463 30.9827 94.5996 30.8604C94.7959 30.729 95.0286 30.7693 95.1938 30.9135C95.3252 31.1098 95.2941 31.3854 95.1408 31.5077C95.107 31.5597 95.0212 31.578 94.9783 31.5871C94.8587 31.6573 94.6688 31.608 94.5466 31.4546ZM15.6624 47.0113C15.4206 46.9282 15.3321 46.7228 15.3723 46.4901C15.4125 46.2573 15.6608 46.1597 15.8935 46.1999C16.1263 46.2401 16.2239 46.4884 16.1837 46.7212C16.1252 46.8681 16.0148 46.9813 15.8861 47.0086C15.8003 47.0269 15.7574 47.036 15.6624 47.0113ZM93.2198 29.8534C93.0455 29.6662 93.0765 29.3906 93.2728 29.2592C93.46 29.0849 93.7356 29.116 93.867 29.3123C93.9984 29.5085 94.0102 29.7751 93.8139 29.9065C93.7802 29.9585 93.6944 29.9767 93.6086 29.995C93.4799 30.0223 93.3329 29.9639 93.2198 29.8534ZM16.3091 44.9906C16.0672 44.9075 15.9696 44.6592 16.0618 44.4602C16.1449 44.2184 16.3932 44.1208 16.5922 44.213C16.834 44.2961 16.9316 44.5444 16.8394 44.7434C16.781 44.8903 16.6705 45.0035 16.5418 45.0308C16.4469 45.0061 16.3611 45.0244 16.3091 44.9906ZM91.8162 28.3133C91.6419 28.1262 91.673 27.8505 91.8264 27.7282C92.0136 27.5539 92.2463 27.5941 92.4115 27.7384C92.5858 27.9255 92.5456 28.1583 92.4013 28.3235C92.3246 28.3846 92.2817 28.3937 92.1959 28.412C92.0672 28.4393 91.9294 28.4238 91.8162 28.3133ZM17.0077 43.0037C16.7659 42.9206 16.6682 42.6723 16.7605 42.4733C16.8527 42.2744 17.0919 42.1338 17.2908 42.2261C17.4898 42.3183 17.6303 42.5575 17.5381 42.7564C17.4796 42.9034 17.36 42.9736 17.2313 43.001C17.1884 43.0101 17.1026 43.0283 17.0077 43.0037ZM90.3361 26.8343C90.1709 26.6901 90.1591 26.4236 90.3033 26.2584C90.4476 26.0932 90.7141 26.0814 90.8793 26.2256C91.0445 26.3699 91.0563 26.6364 90.912 26.8016C90.8353 26.8627 90.7586 26.9239 90.7157 26.933C90.587 26.9604 90.4492 26.9448 90.3361 26.8343ZM17.8013 41.0414C17.6023 40.9492 17.5047 40.7009 17.5878 40.459C17.6801 40.2601 17.9283 40.1625 18.1273 40.2547C18.3263 40.3469 18.4239 40.5952 18.3317 40.7942C18.2732 40.9411 18.1536 41.0114 18.0249 41.0387C17.9911 41.0907 17.8962 41.0661 17.8013 41.0414ZM88.8221 25.4074C88.6569 25.2632 88.6451 24.9966 88.7802 24.7886C88.9245 24.6234 89.191 24.6116 89.3562 24.7558C89.5214 24.9001 89.5332 25.1666 89.398 25.3747C89.3213 25.4358 89.2447 25.4969 89.1589 25.5152C89.0302 25.5425 88.8923 25.527 88.8221 25.4074ZM18.6989 39.1467C18.5 39.0545 18.4023 38.8062 18.5283 38.5552C18.6206 38.3563 18.8689 38.2587 19.0769 38.3938C19.2759 38.486 19.3735 38.7343 19.2904 38.9762C19.2228 39.0802 19.1124 39.1934 18.9837 39.2207C18.8888 39.196 18.7938 39.1714 18.6989 39.1467ZM87.1976 24.0936C87.0325 23.9494 86.9778 23.692 87.1129 23.4839C87.2571 23.3187 87.5145 23.264 87.7226 23.3991C87.8878 23.5434 87.9425 23.8008 87.8074 24.0089C87.7307 24.07 87.654 24.1311 87.5682 24.1494C87.4395 24.1767 87.3017 24.1612 87.1976 24.0936ZM19.6823 37.2338C19.4743 37.0987 19.4195 36.8413 19.5118 36.6423C19.6469 36.4342 19.9043 36.3795 20.1033 36.4717C20.3113 36.6069 20.3661 36.8643 20.2738 37.0632C20.2063 37.1673 20.0867 37.2375 20.0009 37.2558C19.8813 37.326 19.7864 37.3014 19.6823 37.2338ZM85.5394 22.8319C85.3313 22.6967 85.3195 22.4302 85.4547 22.2221C85.5898 22.0141 85.8563 22.0022 86.0644 22.1374C86.2725 22.2725 86.2843 22.539 86.1492 22.7471C86.0816 22.8512 85.9958 22.8694 85.8671 22.8967C85.7384 22.9241 85.6435 22.8994 85.5394 22.8319ZM20.7789 35.4313C20.5708 35.2962 20.5161 35.0388 20.6512 34.8307C20.7864 34.6226 21.0438 34.5679 21.2519 34.703C21.4599 34.8382 21.5146 35.0956 21.3795 35.3037C21.312 35.4077 21.2353 35.4688 21.1066 35.4962C20.9779 35.5235 20.84 35.508 20.7789 35.4313ZM83.8045 21.6313C83.5964 21.4961 83.5417 21.2387 83.6769 21.0306C83.812 20.8226 84.0694 20.7678 84.2775 20.903C84.4856 21.0381 84.5403 21.2955 84.4051 21.5036C84.3376 21.6076 84.2609 21.6688 84.1322 21.6961C84.0035 21.7235 83.9086 21.6988 83.8045 21.6313ZM21.9275 33.6626C21.7194 33.5275 21.7076 33.261 21.7998 33.062C21.935 32.8539 22.1924 32.7992 22.4005 32.9344C22.6085 33.0695 22.6203 33.336 22.5281 33.535C22.4606 33.639 22.3748 33.6572 22.2461 33.6846C22.1265 33.7549 22.0315 33.7302 21.9275 33.6626ZM82.0021 20.5347C81.794 20.3996 81.7393 20.1421 81.8315 19.9432C81.9666 19.7351 82.224 19.6804 82.423 19.7726C82.6311 19.9077 82.6858 20.1652 82.5936 20.3641C82.526 20.4682 82.4064 20.5384 82.3206 20.5567C82.2439 20.6178 82.1061 20.6022 82.0021 20.5347ZM23.1372 31.9706C22.9721 31.8264 22.9173 31.569 23.0525 31.3609C23.1967 31.1957 23.4541 31.141 23.6622 31.2761C23.8274 31.4204 23.8821 31.6778 23.747 31.8859C23.6703 31.947 23.5936 32.0081 23.5078 32.0264C23.3791 32.0537 23.2413 32.0382 23.1372 31.9706ZM80.1749 19.533C79.976 19.4408 79.8692 19.1496 80.0044 18.9415C80.0966 18.7426 80.3878 18.6358 80.5959 18.771C80.7948 18.8632 80.8924 19.1115 80.7573 19.3196C80.6897 19.4236 80.5793 19.5368 80.4506 19.5641C80.3648 19.5824 80.2698 19.5577 80.1749 19.533ZM24.4419 30.3033C24.2767 30.159 24.2649 29.8925 24.4 29.6844C24.5443 29.5193 24.8108 29.5074 25.0189 29.6426C25.1841 29.7868 25.1959 30.0534 25.0608 30.2614C24.9841 30.3226 24.9074 30.3837 24.8216 30.402C24.6929 30.4293 24.5459 30.3709 24.4419 30.3033ZM78.314 18.5834C78.1151 18.4912 78.0174 18.2429 78.1005 18.001C78.1928 17.802 78.4411 17.7044 78.64 17.7967C78.839 17.8889 78.9366 18.1372 78.8444 18.3361C78.7768 18.4402 78.6663 18.5533 78.5376 18.5807C78.5039 18.6327 78.418 18.651 78.314 18.5834ZM25.8506 28.7035C25.6854 28.5593 25.6736 28.2927 25.8179 28.1276C25.9621 27.9624 26.2286 27.9506 26.3938 28.0948C26.559 28.2391 26.5708 28.5056 26.4357 28.7137C26.359 28.7748 26.2823 28.836 26.2394 28.8451C26.1016 28.8295 25.9638 28.814 25.8506 28.7035ZM76.3855 17.7378C76.1866 17.6456 76.089 17.3973 76.1812 17.1983C76.2734 16.9994 76.5217 16.9017 76.7207 16.994C76.9196 17.0862 77.0601 17.3254 76.925 17.5334C76.8666 17.6804 76.747 17.7506 76.6183 17.778C76.5754 17.7871 76.4896 17.8054 76.3855 17.7378ZM27.3204 27.1804C27.1553 27.0362 27.1863 26.7605 27.3306 26.5954C27.5177 26.4211 27.7505 26.4613 27.9157 26.6055C28.0808 26.7498 28.0926 27.0163 27.9055 27.1906C27.8288 27.2517 27.7859 27.2608 27.7001 27.2791C27.5714 27.3064 27.3907 27.3 27.3204 27.1804ZM74.4324 16.9871C74.1905 16.904 74.0929 16.6557 74.1851 16.4568C74.2683 16.2149 74.5165 16.1173 74.7155 16.2095C74.9574 16.2926 75.055 16.5409 74.9628 16.7399C74.9043 16.8868 74.7938 17 74.6651 17.0273C74.6222 17.0364 74.5273 17.0118 74.4324 16.9871ZM28.8514 25.734C28.6771 25.5469 28.7082 25.2712 28.9045 25.1398C29.0916 24.9655 29.3244 25.0057 29.4987 25.1929C29.673 25.38 29.6419 25.6557 29.4456 25.7871C29.3689 25.8482 29.326 25.8573 29.2402 25.8756C29.1024 25.86 28.9217 25.8536 28.8514 25.734ZM72.4546 16.3314C72.2127 16.2483 72.1151 16 72.1644 15.8101C72.2475 15.5683 72.4529 15.4798 72.6857 15.52C72.9275 15.6031 73.0252 15.8514 72.9758 16.0412C72.9174 16.1882 72.8069 16.3013 72.6782 16.3287C72.5924 16.3469 72.5066 16.3651 72.4546 16.3314ZM30.4344 24.3214C30.303 24.1251 30.3341 23.8495 30.4875 23.7272C30.6837 23.5958 30.9165 23.636 31.0817 23.7803C31.2131 23.9765 31.182 24.2522 31.0286 24.3745C30.9948 24.4265 30.909 24.4447 30.8661 24.4538C30.7036 24.5332 30.5138 24.4839 30.4344 24.3214ZM70.4521 15.7705C70.2194 15.7303 70.0789 15.4912 70.162 15.2493C70.2022 15.0166 70.4413 14.876 70.6832 14.9591C70.916 14.9994 71.0565 15.2385 70.9734 15.4804C70.9149 15.6273 70.8044 15.7405 70.6328 15.777C70.5899 15.7861 70.5041 15.8043 70.4521 15.7705ZM32.0877 23.0284C31.9563 22.8321 31.9874 22.5564 32.1836 22.4251C32.3799 22.2937 32.6555 22.3247 32.7869 22.521C32.9183 22.7173 32.8872 22.9929 32.691 23.1243C32.6572 23.1763 32.5714 23.1946 32.5285 23.2037C32.3569 23.2402 32.167 23.1908 32.0877 23.0284ZM68.3821 15.3137C68.1494 15.2735 68.0088 15.0344 68.049 14.8016C68.0893 14.5689 68.3284 14.4284 68.5612 14.4686C68.7939 14.5088 68.9344 14.7479 68.8942 14.9807C68.8878 15.1614 68.7344 15.2837 68.5628 15.3202C68.5108 15.2864 68.4679 15.2955 68.3821 15.3137ZM33.8021 21.812C33.6707 21.6157 33.7017 21.3401 33.9071 21.2516C34.1034 21.1202 34.3362 21.1604 34.4675 21.3567C34.5989 21.5529 34.525 21.8377 34.3625 21.9171C34.3287 21.9691 34.2858 21.9782 34.2 21.9965C34.0713 22.0238 33.8814 21.9745 33.8021 21.812ZM66.3212 14.8999C66.0884 14.8596 65.9141 14.6725 65.9543 14.4398C65.9946 14.207 66.2246 14.0236 66.4144 14.0729C66.6472 14.1131 66.8215 14.3003 66.7813 14.533C66.732 14.7229 66.6215 14.836 66.4499 14.8725C66.459 14.9154 66.3732 14.9336 66.3212 14.8999ZM35.5776 20.6723C35.4462 20.4761 35.5293 20.2342 35.7256 20.1028C35.9218 19.9714 36.1637 20.0545 36.2951 20.2508C36.4265 20.4471 36.3525 20.7318 36.1471 20.8203C36.1042 20.8294 36.0613 20.8386 36.0184 20.8477C35.8468 20.8841 35.657 20.8348 35.5776 20.6723ZM64.2447 14.6238C64.012 14.5836 63.8377 14.3964 63.8779 14.1637C63.9181 13.9309 64.1052 13.7566 64.338 13.7969C64.5707 13.8371 64.745 14.0242 64.7048 14.257C64.6984 14.4377 64.5541 14.6029 64.3825 14.6393C64.3396 14.6484 64.2967 14.6576 64.2447 14.6238ZM37.3622 19.5756C37.2737 19.3702 37.314 19.1374 37.5531 18.9969C37.7585 18.9084 37.9913 18.9486 38.1318 19.1878C38.2203 19.3932 38.1801 19.6259 37.9409 19.7664C37.898 19.7756 37.8551 19.7847 37.8122 19.7938C37.6406 19.8303 37.4936 19.7718 37.3622 19.5756ZM62.1865 14.4335C61.9629 14.4362 61.7795 14.2062 61.7768 13.9825C61.7741 13.7589 62.0041 13.5755 62.2277 13.5728C62.4514 13.5701 62.6348 13.8002 62.6375 14.0238C62.6311 14.2045 62.4868 14.3697 62.3152 14.4062C62.2385 14.4673 62.1956 14.4764 62.1865 14.4335ZM39.2692 18.6322C39.1807 18.4268 39.2638 18.1849 39.46 18.0535C39.6654 17.965 39.9073 18.0481 40.0387 18.2444C40.1272 18.4498 40.0441 18.6916 39.8478 18.823C39.8049 18.8322 39.762 18.8413 39.762 18.8413C39.5475 18.8869 39.3486 18.7946 39.2692 18.6322ZM60.0698 14.3902C59.8462 14.3929 59.6719 14.2057 59.6601 13.9392C59.6574 13.7156 59.8446 13.5413 60.1111 13.5295C60.3347 13.5268 60.509 13.7139 60.5117 13.9376C60.5053 14.1183 60.3701 14.3264 60.1985 14.3628C60.1556 14.372 60.1127 14.3811 60.0698 14.3902ZM41.1852 17.7317C41.0967 17.5263 41.1798 17.2844 41.4281 17.1868C41.6335 17.0983 41.8754 17.1814 41.973 17.4297C42.0615 17.6351 41.9784 17.8769 41.7301 17.9746C41.6872 17.9837 41.6872 17.9837 41.6443 17.9928C41.4727 18.0293 41.2646 17.8941 41.1852 17.7317ZM58.0052 14.3807C57.7816 14.3833 57.5644 14.2053 57.5617 13.9817C57.559 13.7581 57.737 13.5409 57.9606 13.5382C58.1843 13.5355 58.4015 13.7135 58.4042 13.9371C58.4068 14.1608 58.2626 14.3259 58.091 14.3624C58.0481 14.3715 58.0052 14.3807 58.0052 14.3807ZM43.1195 16.917C43.031 16.7116 43.157 16.4606 43.3624 16.3721C43.5678 16.2836 43.8188 16.4096 43.9073 16.615C43.9958 16.8204 43.8698 17.0714 43.6644 17.1599L43.6215 17.169C43.4161 17.2575 43.208 17.1223 43.1195 16.917ZM55.8821 14.5181C55.6585 14.5207 55.4413 14.3427 55.4386 14.1191C55.4359 13.8955 55.6139 13.6783 55.8375 13.6756C56.0612 13.6729 56.2784 13.8509 56.2811 14.0745C56.2837 14.2982 56.1395 14.4633 55.925 14.5089C55.925 14.5089 55.925 14.5089 55.8821 14.5181ZM45.124 16.2218C45.0356 16.0165 45.1616 15.7655 45.4098 15.6679C45.6152 15.5794 45.8662 15.7054 45.9638 15.9537C46.0094 16.1682 45.9263 16.41 45.6689 16.4647L45.626 16.4739C45.4206 16.5624 45.1696 16.4363 45.124 16.2218ZM53.8201 14.7321C53.6056 14.7777 53.3884 14.5997 53.3428 14.3852C53.2973 14.1707 53.4753 13.9535 53.6898 13.9079C53.9043 13.8623 54.1215 14.0403 54.1671 14.2548C54.2127 14.4693 54.0776 14.6774 53.8201 14.7321ZM47.1468 15.6125C47.1012 15.398 47.2273 15.147 47.4418 15.1014C47.6563 15.0558 47.9072 15.1819 47.9528 15.3964C47.9984 15.6109 47.8724 15.8618 47.6579 15.9074C47.4005 15.9622 47.1924 15.827 47.1468 15.6125ZM51.7335 15.0411C51.519 15.0867 51.2589 14.9178 51.2562 14.6942C51.2106 14.4797 51.3795 14.2196 51.6032 14.2169C51.8177 14.1713 52.0778 14.3402 52.0805 14.5638C52.1261 14.7784 51.9909 14.9864 51.7335 15.0411C51.7764 15.032 51.7764 15.032 51.7335 15.0411ZM49.1879 15.089C49.1423 14.8745 49.2683 14.6235 49.5257 14.5688C49.7402 14.5232 49.9912 14.6492 50.0368 14.8637C50.0824 15.0782 49.9563 15.3292 49.7418 15.3748C49.4506 15.4815 49.2426 15.3464 49.1879 15.089Z" fill="#E2001A"/>
<path d="M68.6785 106.365C68.421 106.419 68.2038 106.241 68.1582 106.027C68.1127 105.812 68.2816 105.552 68.4961 105.507C68.7535 105.452 68.9707 105.63 69.0163 105.844C69.0619 106.059 68.893 106.319 68.6785 106.365ZM70.3033 105.571C70.2486 105.313 70.3837 105.105 70.6411 105.051C70.8985 104.996 71.1066 105.131 71.1613 105.388C71.216 105.646 71.0809 105.854 70.8235 105.909C70.5999 105.911 70.3489 105.785 70.3033 105.571ZM65.9429 106.363C65.8882 106.106 66.0662 105.888 66.3237 105.834C66.5811 105.779 66.7983 105.957 66.853 106.215C66.9077 106.472 66.7297 106.689 66.4722 106.744C66.2148 106.799 65.9976 106.621 65.9429 106.363ZM72.4639 104.977C72.4092 104.72 72.5443 104.512 72.7497 104.423C72.9642 104.377 73.2152 104.503 73.3037 104.709C73.3493 104.923 73.2233 105.174 73.0179 105.263L72.975 105.272C72.7267 105.37 72.5186 105.234 72.4639 104.977ZM64.2478 107.037C63.9813 107.049 63.7641 106.871 63.7614 106.647C63.7587 106.424 63.9367 106.207 64.1512 106.161C64.4086 106.106 64.6258 106.284 64.6377 106.551C64.6403 106.774 64.5052 106.983 64.2478 107.037ZM74.5725 104.349C74.4749 104.101 74.6009 103.85 74.8583 103.795C75.1066 103.698 75.3576 103.824 75.4123 104.081C75.5008 104.287 75.3839 104.581 75.1265 104.635L75.0836 104.644C74.86 104.647 74.661 104.555 74.5725 104.349ZM61.996 107.202C61.7724 107.205 61.5552 107.027 61.5525 106.803C61.5498 106.579 61.7278 106.362 61.9852 106.308C62.2089 106.305 62.4261 106.483 62.4379 106.749C62.4406 106.973 62.3054 107.181 62.0909 107.227C62.0389 107.193 62.0389 107.193 61.996 107.202ZM76.6537 103.593C76.5652 103.388 76.6821 103.094 76.8875 103.005C77.0929 102.917 77.3868 103.034 77.4753 103.239C77.5638 103.445 77.4469 103.739 77.2415 103.827C77.1986 103.836 77.1986 103.836 77.1557 103.845C76.9412 103.891 76.7422 103.799 76.6537 103.593ZM59.778 107.315C59.5544 107.317 59.3372 107.139 59.3254 106.873C59.3227 106.649 59.5007 106.432 59.7672 106.42C59.9908 106.418 60.2081 106.596 60.2199 106.862C60.2226 107.086 60.0783 107.251 59.8638 107.297C59.8209 107.306 59.8209 107.306 59.778 107.315ZM78.7076 102.708C78.6191 102.503 78.6931 102.218 78.9414 102.12C79.1468 102.032 79.4315 102.106 79.5291 102.354C79.6176 102.56 79.5437 102.844 79.2954 102.942C79.2525 102.951 79.2525 102.951 79.2096 102.96C78.995 103.006 78.7961 102.914 78.7076 102.708ZM57.5235 107.256C57.2999 107.259 57.0736 107.038 57.1138 106.805C57.1111 106.581 57.332 106.355 57.5648 106.395C57.7884 106.393 58.0147 106.613 57.9745 106.846C57.9772 107.07 57.8329 107.235 57.6184 107.281C57.6184 107.281 57.5664 107.247 57.5235 107.256ZM80.7095 101.79C80.621 101.584 80.6949 101.299 80.9003 101.211C81.1057 101.122 81.3905 101.196 81.479 101.402C81.6104 101.598 81.4935 101.892 81.2881 101.98C81.2452 101.99 81.2023 101.999 81.1594 102.008C80.9878 102.044 80.7888 101.952 80.7095 101.79ZM55.3028 107.145C55.0701 107.105 54.8958 106.918 54.8839 106.651C54.9242 106.418 55.1113 106.244 55.3778 106.232C55.6106 106.272 55.7849 106.46 55.7967 106.726C55.7903 106.907 55.646 107.072 55.4315 107.118C55.3886 107.127 55.3457 107.136 55.3028 107.145ZM82.641 100.751C82.5096 100.555 82.5836 100.27 82.8228 100.13C83.0191 99.9982 83.3038 100.072 83.4352 100.269C83.5666 100.465 83.4926 100.75 83.2964 100.881C83.2535 100.89 83.2106 100.899 83.1677 100.908C82.9623 100.997 82.7633 100.905 82.641 100.751ZM53.0977 106.896C52.8649 106.856 52.6815 106.626 52.7217 106.393C52.7619 106.161 52.9919 105.977 53.2247 106.017C53.4574 106.058 53.6409 106.288 53.6006 106.52C53.5513 106.71 53.45 106.866 53.2355 106.912C53.1835 106.878 53.1406 106.887 53.0977 106.896ZM84.5453 99.5842C84.4139 99.3879 84.4879 99.1031 84.6841 98.9717C84.8804 98.8403 85.1652 98.9143 85.2966 99.1106C85.428 99.3069 85.354 99.5916 85.1577 99.723C85.1148 99.7321 85.081 99.7842 84.9952 99.8024C84.8665 99.8298 84.6767 99.7804 84.5453 99.5842ZM50.8742 106.562C50.6415 106.522 50.4581 106.292 50.5412 106.05C50.5814 105.817 50.8115 105.634 51.0533 105.717C51.2861 105.757 51.4695 105.987 51.3864 106.229C51.337 106.419 51.2266 106.532 51.055 106.568C50.96 106.544 50.9171 106.553 50.8742 106.562ZM86.3975 98.3834C86.2661 98.1871 86.2972 97.9114 86.4935 97.78C86.6897 97.6486 86.9654 97.6797 87.0968 97.876C87.2282 98.0723 87.1971 98.3479 87.0008 98.4793C86.967 98.5313 86.8812 98.5496 86.8383 98.5587C86.6667 98.5952 86.5198 98.5367 86.3975 98.3834ZM48.6664 106.089C48.4337 106.049 48.2931 105.81 48.3333 105.577C48.3736 105.345 48.6127 105.204 48.8455 105.244C49.0782 105.284 49.2187 105.524 49.1785 105.756C49.1292 105.946 49.0187 106.059 48.8471 106.096C48.8042 106.105 48.7184 106.123 48.6664 106.089ZM88.1886 97.1059C88.0572 96.9096 88.0883 96.6339 88.2754 96.4596C88.4717 96.3282 88.7473 96.3593 88.9216 96.5465C89.053 96.7428 89.0219 97.0184 88.8257 97.1498C88.7919 97.2018 88.7061 97.22 88.6632 97.2292C88.4487 97.2748 88.3017 97.2163 88.1886 97.1059ZM46.4923 105.565C46.2505 105.482 46.1099 105.243 46.1931 105.001C46.2762 104.759 46.5153 104.619 46.7572 104.702C46.9899 104.742 47.1396 105.024 47.0565 105.266C46.998 105.413 46.8876 105.526 46.7159 105.562C46.6301 105.581 46.5872 105.59 46.4923 105.565ZM89.9094 95.7088C89.7351 95.5216 89.7662 95.246 89.9533 95.0717C90.1405 94.8974 90.4161 94.9285 90.5904 95.1156C90.7647 95.3028 90.7336 95.5784 90.5465 95.7527C90.4698 95.8139 90.4269 95.823 90.3411 95.8412C90.1695 95.8777 90.0226 95.8192 89.9094 95.7088ZM44.3338 104.903C44.0919 104.82 43.9943 104.572 44.0345 104.339C44.1176 104.097 44.3659 103.999 44.5987 104.04C44.8405 104.123 44.9381 104.371 44.8979 104.604C44.8395 104.751 44.729 104.864 44.5574 104.9C44.5145 104.909 44.4287 104.928 44.3338 104.903ZM91.5691 94.235C91.3948 94.0479 91.4259 93.7722 91.5701 93.607C91.7573 93.4327 92.0329 93.4638 92.1981 93.6081C92.3724 93.7952 92.3413 94.0709 92.197 94.236C92.1204 94.2972 92.0866 94.3492 92.0008 94.3674C91.8292 94.4039 91.6822 94.3455 91.5691 94.235ZM42.2428 104.137C42.001 104.054 41.9033 103.805 41.9865 103.563C42.0696 103.322 42.3179 103.224 42.5597 103.307C42.8016 103.39 42.8992 103.638 42.8161 103.88C42.7576 104.027 42.6472 104.14 42.4756 104.177C42.3898 104.195 42.3377 104.161 42.2428 104.137ZM93.1676 92.6846C92.9933 92.4974 92.9815 92.2309 93.1687 92.0566C93.3558 91.8823 93.6223 91.8705 93.7966 92.0576C93.9709 92.2448 93.9827 92.5113 93.7956 92.6856C93.7189 92.7467 93.6422 92.8079 93.5564 92.8261C93.4277 92.8535 93.2808 92.795 93.1676 92.6846ZM40.1856 103.318C39.9438 103.235 39.837 102.944 39.9722 102.736C40.0553 102.494 40.3465 102.387 40.5546 102.523C40.7964 102.606 40.9032 102.897 40.768 103.105C40.7096 103.252 40.59 103.322 40.4613 103.35C40.3326 103.377 40.2377 103.352 40.1856 103.318ZM94.6621 91.0666C94.4878 90.8794 94.476 90.6129 94.6202 90.4477C94.7645 90.2825 95.0739 90.2616 95.2391 90.4058C95.4043 90.5501 95.4252 90.8595 95.281 91.0247C95.2043 91.0858 95.1276 91.147 95.0418 91.1652C94.9131 91.1926 94.7753 91.177 94.6621 91.0666ZM38.144 102.362C37.945 102.27 37.8383 101.979 37.9305 101.78C38.0228 101.581 38.314 101.474 38.5129 101.567C38.721 101.702 38.8186 101.95 38.7264 102.149C38.6588 102.253 38.5484 102.366 38.4197 102.393C38.3339 102.412 38.248 102.43 38.144 102.362ZM96.1046 89.4148C95.9394 89.2705 95.8756 88.9702 96.0198 88.805C96.155 88.5969 96.4644 88.576 96.6296 88.7203C96.8376 88.8554 96.8586 89.1648 96.7143 89.33C96.6468 89.434 96.561 89.4523 96.4752 89.4705C96.3465 89.4979 96.2086 89.4823 96.1046 89.4148ZM36.1362 101.354C35.9281 101.219 35.8305 100.971 35.9656 100.763C36.1007 100.555 36.349 100.457 36.5571 100.592C36.7652 100.727 36.8628 100.976 36.7277 101.184C36.6601 101.288 36.5405 101.358 36.4118 101.385C36.3689 101.395 36.2311 101.379 36.1362 101.354ZM97.4768 87.6434C97.2687 87.5082 97.2569 87.2417 97.392 87.0336C97.5272 86.8256 97.7937 86.8138 98.0018 86.9489C98.2099 87.084 98.2308 87.3934 98.0866 87.5586C98.019 87.6626 97.9423 87.7238 97.8136 87.7511C97.7278 87.7694 97.5808 87.7109 97.4768 87.6434ZM34.2296 100.19C34.0216 100.055 33.9668 99.7977 34.102 99.5896C34.2371 99.3815 34.4945 99.3268 34.7026 99.4619C34.9107 99.597 34.9654 99.8544 34.8303 100.063C34.7627 100.167 34.6431 100.237 34.5573 100.255C34.4286 100.282 34.3337 100.258 34.2296 100.19ZM98.7541 85.8473C98.546 85.7122 98.4913 85.4548 98.6265 85.2467C98.7616 85.0386 99.019 84.9839 99.2271 85.1191C99.4351 85.2542 99.4899 85.5116 99.3547 85.7197C99.2872 85.8237 99.1676 85.894 99.0818 85.9122C98.996 85.9304 98.8582 85.9149 98.7541 85.8473ZM32.3569 98.974C32.1488 98.8389 32.0941 98.5815 32.2293 98.3734C32.3644 98.1653 32.6218 98.1106 32.8299 98.2457C33.038 98.3809 33.0927 98.6383 32.9575 98.8464C32.89 98.9504 32.8133 99.0115 32.6846 99.0389C32.5559 99.0663 32.461 99.0416 32.3569 98.974ZM99.9703 83.9746C99.7622 83.8395 99.7075 83.5821 99.8426 83.374C99.9777 83.1659 100.235 83.1112 100.434 83.2034C100.642 83.3386 100.697 83.596 100.562 83.804C100.494 83.9081 100.375 83.9783 100.289 83.9966C100.169 84.0668 100.074 84.0422 99.9703 83.9746ZM30.518 97.7058C30.3099 97.5707 30.289 97.2613 30.4332 97.0961C30.5683 96.888 30.8778 96.8671 31.043 97.0113C31.251 97.1465 31.272 97.4559 31.1277 97.6211C31.0602 97.7251 30.9743 97.7434 30.8456 97.7707C30.7598 97.789 30.622 97.7734 30.518 97.7058ZM101.039 82.0434C100.831 81.9083 100.734 81.66 100.869 81.4519C101.004 81.2439 101.252 81.1462 101.46 81.2814C101.659 81.3736 101.766 81.6648 101.631 81.8729C101.563 81.9769 101.453 82.0901 101.324 82.1174C101.281 82.1265 101.144 82.111 101.039 82.0434ZM28.7466 96.3336C28.5814 96.1894 28.5176 95.8891 28.7047 95.7148C28.8399 95.5067 29.1493 95.4858 29.3236 95.6729C29.4888 95.8172 29.5526 96.1175 29.3655 96.2918C29.2888 96.3529 29.2121 96.414 29.1263 96.4323C28.9885 96.4167 28.8506 96.4012 28.7466 96.3336ZM102.1 80.0694C101.858 79.9863 101.794 79.686 101.886 79.487C102.021 79.2789 102.27 79.1813 102.469 79.2735C102.71 79.3566 102.774 79.6569 102.682 79.8559C102.624 80.0028 102.504 80.0731 102.375 80.1005C102.247 80.1278 102.161 80.1461 102.1 80.0694ZM27.0857 94.8482C26.9114 94.6611 26.8996 94.3946 27.0438 94.2294C27.1881 94.0642 27.4975 94.0433 27.6627 94.1875C27.837 94.3747 27.8488 94.6412 27.7045 94.8064C27.6279 94.8675 27.5512 94.9286 27.4654 94.9469C27.3367 94.9742 27.1988 94.9587 27.0857 94.8482ZM103.022 78.0798C102.78 77.9966 102.673 77.7055 102.808 77.4974C102.892 77.2555 103.183 77.1488 103.391 77.2839C103.633 77.367 103.739 77.6582 103.647 77.8572C103.589 78.0041 103.469 78.0744 103.34 78.1017C103.16 78.0953 103.117 78.1044 103.022 78.0798ZM25.4586 93.3108C25.2843 93.1237 25.2724 92.8572 25.4596 92.6829C25.6467 92.5086 25.9133 92.4968 26.0876 92.6839C26.2619 92.871 26.2737 93.1376 26.0865 93.3119C26.0098 93.373 25.9332 93.4342 25.8903 93.4433C25.7187 93.4797 25.5717 93.4213 25.4586 93.3108ZM103.84 76.0226C103.598 75.9395 103.501 75.6912 103.584 75.4493C103.667 75.2074 103.915 75.1098 104.157 75.1929C104.399 75.276 104.496 75.5243 104.413 75.7662C104.355 75.9131 104.244 76.0263 104.073 76.0628C104.021 76.029 103.935 76.0472 103.84 76.0226ZM23.9081 91.7123C23.7338 91.5251 23.7649 91.2495 23.9521 91.0752C24.1392 90.9009 24.4148 90.932 24.5891 91.1191C24.7634 91.3063 24.7324 91.5819 24.5452 91.7562C24.4685 91.8174 24.4256 91.8265 24.3398 91.8447C24.1682 91.8812 24.0213 91.8228 23.9081 91.7123ZM104.563 73.9407C104.322 73.8576 104.181 73.6184 104.264 73.3766C104.347 73.1347 104.586 72.9942 104.828 73.0773C105.07 73.1604 105.211 73.3996 105.128 73.6415C105.069 73.7884 104.959 73.9016 104.787 73.938C104.701 73.9563 104.649 73.9225 104.563 73.9407ZM22.4252 90.0097C22.2509 89.8226 22.282 89.5469 22.4692 89.3726C22.6563 89.1983 22.932 89.2294 23.1063 89.4166C23.2806 89.6037 23.2495 89.8794 23.0623 90.0537C23.0285 90.1057 22.9427 90.1239 22.8569 90.1421C22.6945 90.2215 22.5475 90.1631 22.4252 90.0097ZM105.183 71.7913C104.941 71.7082 104.8 71.469 104.883 71.2272C104.924 70.9944 105.206 70.8448 105.438 70.885C105.671 70.9252 105.821 71.2073 105.781 71.44C105.731 71.6299 105.612 71.7001 105.44 71.7366C105.363 71.7977 105.278 71.816 105.183 71.7913ZM21.0281 88.2889C20.8967 88.0926 20.9278 87.817 21.1241 87.6856C21.3204 87.5542 21.596 87.5853 21.7274 87.7815C21.8588 87.9778 21.8277 88.2535 21.6406 88.4278C21.6068 88.4798 21.521 88.498 21.4781 88.5071C21.3403 88.4916 21.1413 88.3994 21.0281 88.2889ZM105.759 69.651C105.526 69.6108 105.386 69.3717 105.426 69.1389C105.466 68.9062 105.705 68.7656 105.938 68.8059C106.171 68.8461 106.311 69.0852 106.271 69.318C106.222 69.5078 106.111 69.621 105.94 69.6574C105.845 69.6328 105.802 69.6419 105.759 69.651ZM19.7415 86.4549C19.6101 86.2586 19.6412 85.983 19.8375 85.8516C20.0338 85.7202 20.3094 85.7513 20.4408 85.9476C20.5722 86.1438 20.5411 86.4195 20.3019 86.56C20.259 86.5691 20.1824 86.6303 20.1395 86.6394C20.0199 86.7096 19.8209 86.6174 19.7415 86.4549ZM106.189 67.4523C105.956 67.4121 105.772 67.182 105.813 66.9493C105.853 66.7165 106.083 66.5331 106.316 66.5733C106.548 66.6135 106.732 66.8436 106.692 67.0763C106.642 67.2662 106.532 67.3793 106.317 67.4249C106.283 67.477 106.241 67.4861 106.189 67.4523ZM18.4978 84.6118C18.3664 84.4156 18.4404 84.1308 18.6367 83.9994C18.833 83.868 19.1177 83.942 19.2491 84.1382C19.3805 84.3345 19.3065 84.6193 19.1102 84.7507C19.0673 84.7598 19.0336 84.8118 18.9907 84.8209C18.8099 84.8145 18.6201 84.7652 18.4978 84.6118ZM106.489 65.2809C106.257 65.2407 106.073 65.0107 106.113 64.7779C106.154 64.5452 106.384 64.3617 106.616 64.402C106.849 64.4422 107.032 64.6722 106.992 64.905C106.943 65.0948 106.842 65.2509 106.627 65.2965C106.618 65.2536 106.532 65.2718 106.489 65.2809ZM17.3646 82.6556C17.2332 82.4593 17.3072 82.1745 17.5463 82.034C17.7426 81.9026 18.0274 81.9766 18.1679 82.2158C18.2993 82.412 18.2253 82.6968 17.9861 82.8373C17.9432 82.8464 17.9003 82.8556 17.8574 82.8647C17.652 82.9532 17.496 82.8518 17.3646 82.6556ZM106.738 63.0757C106.514 63.0784 106.331 62.8484 106.328 62.6248C106.326 62.4011 106.556 62.2177 106.779 62.215C107.003 62.2123 107.186 62.4424 107.189 62.666C107.183 62.8467 107.038 63.0119 106.824 63.0575C106.824 63.0575 106.781 63.0666 106.738 63.0757ZM16.3171 80.6811C16.2286 80.4757 16.3026 80.1909 16.508 80.1024C16.7134 80.0139 16.9982 80.0879 17.0867 80.2933C17.1752 80.4987 17.1012 80.7835 16.8958 80.872C16.8529 80.8811 16.81 80.8902 16.81 80.8902C16.6475 80.9696 16.4056 80.8865 16.3171 80.6811ZM106.849 60.855C106.625 60.8577 106.399 60.6368 106.396 60.4132C106.394 60.1896 106.614 59.9632 106.838 59.9605C107.062 59.9579 107.288 60.1788 107.291 60.4024C107.293 60.626 107.149 60.7912 106.935 60.8368C106.935 60.8368 106.892 60.8459 106.849 60.855ZM15.3984 78.6792C15.3008 78.4309 15.3839 78.1891 15.6322 78.0914C15.8805 77.9938 16.1223 78.0769 16.2199 78.3252C16.3084 78.5306 16.2344 78.8154 15.9862 78.913C15.9433 78.9221 15.9433 78.9221 15.9003 78.9312C15.6858 78.9768 15.4778 78.8417 15.3984 78.6792ZM106.874 58.6526C106.65 58.6553 106.433 58.4772 106.421 58.2107C106.409 57.9442 106.597 57.7699 106.863 57.7581C107.087 57.7554 107.304 57.9334 107.316 58.1999C107.319 58.4236 107.174 58.5887 106.96 58.6343C106.917 58.6435 106.917 58.6435 106.874 58.6526ZM14.5563 76.6162C14.4587 76.3679 14.5847 76.117 14.7901 76.0285C14.9955 75.94 15.2894 76.0569 15.335 76.2714C15.4235 76.4768 15.3066 76.7706 15.0921 76.8162C15.0492 76.8253 15.0492 76.8254 15.0063 76.8345C14.8438 76.9138 14.5928 76.7878 14.5563 76.6162ZM106.804 56.4254C106.58 56.4281 106.363 56.2501 106.318 56.0356C106.306 55.7691 106.493 55.5948 106.708 55.5492C106.931 55.5465 107.148 55.7245 107.194 55.939C107.197 56.1626 107.062 56.3707 106.847 56.4163L106.804 56.4254ZM13.791 74.4921C13.6933 74.2438 13.8193 73.9928 14.0768 73.9381C14.325 73.8405 14.576 73.9665 14.6307 74.2239C14.7192 74.4293 14.5932 74.6803 14.3449 74.7779L14.302 74.787C14.0875 74.8326 13.8365 74.7066 13.791 74.4921ZM106.606 54.2257C106.348 54.2804 106.131 54.1024 106.119 53.8358C106.074 53.6213 106.242 53.3612 106.509 53.3494C106.723 53.3038 106.984 53.4727 106.995 53.7392C106.998 53.9629 106.863 54.171 106.606 54.2257ZM13.1114 72.3497C13.0567 72.0923 13.1918 71.8842 13.3972 71.7957C13.6546 71.741 13.8627 71.8762 13.9512 72.0815C14.0059 72.339 13.8708 72.547 13.6654 72.6355C13.6654 72.6355 13.6654 72.6355 13.6225 72.6447C13.4171 72.7332 13.209 72.598 13.1114 72.3497ZM106.312 52.0012C106.055 52.0559 105.837 51.8779 105.783 51.6205C105.728 51.3631 105.906 51.1459 106.164 51.0912C106.378 51.0456 106.638 51.2145 106.684 51.429C106.705 51.7384 106.57 51.9465 106.312 52.0012ZM12.5605 70.18C12.5058 69.9226 12.6409 69.7145 12.8983 69.6598C13.1128 69.6142 13.3638 69.7402 13.4185 69.9976C13.4733 70.255 13.3381 70.4631 13.0807 70.5178C12.8662 70.5634 12.6152 70.4374 12.5605 70.18ZM105.379 49.5092C105.324 49.2518 105.502 49.0346 105.717 48.989C105.931 48.9434 106.191 49.1123 106.237 49.3269C106.292 49.5843 106.114 49.8015 105.899 49.8471C105.685 49.8926 105.424 49.7237 105.379 49.5092ZM12.6248 68.3728C12.3674 68.4275 12.1502 68.2495 12.1046 68.0349C12.0499 67.7775 12.2279 67.5603 12.4424 67.5147C12.6998 67.46 12.917 67.6381 12.9626 67.8526C13.0082 68.0671 12.8822 68.3181 12.6248 68.3728ZM104.987 47.6645C104.932 47.4071 105.067 47.199 105.315 47.1014C105.573 47.0467 105.781 47.1818 105.879 47.4301C105.933 47.6875 105.798 47.8956 105.541 47.9503C105.25 48.057 105.041 47.9219 104.987 47.6645ZM12.2455 66.1666C11.9881 66.2213 11.7709 66.0432 11.7591 65.7767C11.7044 65.5193 11.8824 65.3021 12.1489 65.2903C12.3634 65.2447 12.6235 65.4136 12.6353 65.6801C12.638 65.9038 12.5029 66.1119 12.2455 66.1666ZM104.359 45.5559C104.304 45.2985 104.44 45.0904 104.645 45.0019C104.902 44.9472 105.11 45.0823 105.199 45.2877C105.245 45.5022 105.119 45.7532 104.913 45.8417L104.87 45.8508C104.656 45.8964 104.448 45.7613 104.359 45.5559ZM12.0041 63.9759C11.7375 63.9877 11.5203 63.8097 11.5176 63.5861C11.515 63.3624 11.693 63.1452 11.9075 63.0997C12.174 63.0878 12.3912 63.2659 12.3939 63.4895C12.3966 63.7131 12.2615 63.9212 12.047 63.9668C12.0041 63.9759 12.0041 63.9759 12.0041 63.9759ZM103.689 43.4564C103.591 43.2081 103.717 42.9572 103.975 42.9024C104.18 42.8139 104.474 42.9308 104.529 43.1882C104.626 43.4365 104.5 43.6875 104.243 43.7422L104.2 43.7513C103.985 43.7969 103.777 43.6618 103.689 43.4564ZM11.8055 61.7761C11.5819 61.7788 11.3647 61.6008 11.3529 61.3343C11.3502 61.1106 11.5282 60.8935 11.7948 60.8816C12.0184 60.8789 12.2356 61.057 12.2474 61.3235C12.2501 61.5471 12.1058 61.7123 11.8913 61.7579C11.8484 61.767 11.8484 61.767 11.8055 61.7761ZM102.899 41.4272C102.801 41.1789 102.927 40.9279 103.132 40.8395C103.338 40.751 103.632 40.8679 103.72 41.0732C103.818 41.3215 103.692 41.5725 103.486 41.661C103.444 41.6701 103.444 41.6701 103.401 41.6792C103.229 41.7157 102.987 41.6326 102.899 41.4272ZM11.7357 59.549C11.5121 59.5517 11.2858 59.3308 11.2831 59.1071C11.2804 58.8835 11.4584 58.6663 11.7249 58.6545C11.9914 58.6427 12.1749 58.8727 12.1776 59.0964C12.1802 59.32 12.036 59.4852 11.8215 59.5308C11.8215 59.5308 11.7786 59.5399 11.7357 59.549ZM102.023 39.4162C101.934 39.2109 102.008 38.9261 102.257 38.8285C102.462 38.74 102.747 38.814 102.844 39.0623C102.933 39.2677 102.859 39.5524 102.611 39.65C102.568 39.6591 102.568 39.6592 102.525 39.6683C102.353 39.7047 102.111 39.6216 102.023 39.4162ZM11.7608 57.3465C11.5372 57.3492 11.3108 57.1283 11.351 56.8956C11.3483 56.6719 11.5693 56.4456 11.802 56.4858C12.0256 56.4831 12.252 56.7041 12.2118 56.9368C12.2053 57.1175 12.0702 57.3256 11.8557 57.3712C11.8466 57.3283 11.8037 57.3374 11.7608 57.3465ZM101.061 37.4235C100.93 37.2272 101.047 36.9334 101.252 36.8449C101.448 36.7135 101.742 36.8304 101.831 37.0357C101.962 37.232 101.845 37.5259 101.64 37.6144C101.597 37.6235 101.554 37.6326 101.511 37.6418C101.349 37.7211 101.15 37.6289 101.061 37.4235ZM11.9146 55.1167C11.6818 55.0765 11.5075 54.8894 11.4957 54.6228C11.5359 54.3901 11.7231 54.2158 11.9896 54.204C12.2223 54.2442 12.3966 54.4313 12.4085 54.6979C12.402 54.8786 12.2578 55.0438 12.0433 55.0894C12.0095 55.1414 11.9575 55.1076 11.9146 55.1167ZM99.9891 35.5439C99.8577 35.3477 99.9317 35.0629 100.128 34.9315C100.324 34.8001 100.609 34.8741 100.74 35.0704C100.872 35.2666 100.798 35.5514 100.602 35.6828C100.559 35.6919 100.525 35.7439 100.482 35.7531C100.301 35.7466 100.111 35.6973 99.9891 35.5439ZM12.1633 52.9116C11.9305 52.8713 11.7471 52.6413 11.7873 52.4086C11.8275 52.1758 12.0576 51.9924 12.2903 52.0326C12.5231 52.0728 12.7065 52.3029 12.6663 52.5356C12.6598 52.7163 12.5156 52.8815 12.344 52.918C12.2582 52.9362 12.2062 52.9024 12.1633 52.9116ZM98.865 33.6306C98.7336 33.4343 98.8076 33.1496 99.0038 33.0182C99.2001 32.8868 99.4849 32.9608 99.6163 33.157C99.7477 33.3533 99.6737 33.638 99.4774 33.7694C99.4345 33.7786 99.4007 33.8306 99.3149 33.8488C99.1433 33.8853 98.9444 33.7931 98.865 33.6306ZM12.5069 50.7311C12.2742 50.6908 12.0907 50.4608 12.1739 50.2189C12.2141 49.9862 12.4441 49.8028 12.686 49.8859C12.9187 49.9261 13.1021 50.1561 13.019 50.398C12.9697 50.5878 12.8592 50.701 12.6876 50.7375C12.6447 50.7466 12.5498 50.7219 12.5069 50.7311ZM97.6304 31.8304C97.499 31.6341 97.5301 31.3585 97.7264 31.2271C97.9226 31.0957 98.1983 31.1268 98.3297 31.323C98.4611 31.5193 98.43 31.795 98.2337 31.9264C98.1908 31.9355 98.1141 31.9966 98.0712 32.0057C97.8996 32.0422 97.7098 31.9929 97.6304 31.8304ZM12.9792 48.5232C12.7465 48.483 12.606 48.2438 12.6371 47.9682C12.6773 47.7354 12.9165 47.5949 13.1492 47.6351C13.3819 47.6753 13.5225 47.9145 13.4914 48.1901C13.442 48.38 13.3316 48.4931 13.16 48.5296C13.0742 48.5479 13.0313 48.557 12.9792 48.5232ZM96.3191 30.0913C96.1877 29.8951 96.2188 29.6194 96.4151 29.488C96.6113 29.3566 96.8779 29.3448 97.0522 29.532C97.1836 29.7282 97.1525 30.0039 96.9653 30.1782C96.9315 30.2302 96.8457 30.2484 96.7599 30.2667C96.5883 30.3031 96.3985 30.2538 96.3191 30.0913ZM13.5127 46.392C13.2709 46.3089 13.1303 46.0697 13.2135 45.8279C13.2966 45.586 13.5357 45.4455 13.7776 45.5286C14.0195 45.6117 14.16 45.8509 14.0769 46.0928C14.0184 46.2397 13.908 46.3529 13.7363 46.3893C13.6505 46.4076 13.6076 46.4167 13.5127 46.392ZM94.8882 28.4225C94.714 28.2354 94.745 27.9597 94.9322 27.7854C95.1193 27.6111 95.395 27.6422 95.5693 27.8294C95.7436 28.0165 95.7125 28.2922 95.5253 28.4665C95.4487 28.5276 95.4058 28.5367 95.32 28.555C95.1913 28.5823 95.0014 28.533 94.8882 28.4225ZM14.184 44.2764C13.9422 44.1933 13.8445 43.945 13.9276 43.7031C14.0108 43.4613 14.259 43.3637 14.5009 43.4468C14.7428 43.5299 14.8404 43.7782 14.7573 44.02C14.6988 44.167 14.5884 44.2801 14.4168 44.3166C14.3218 44.2919 14.236 44.3102 14.184 44.2764ZM93.4236 26.8058C93.2493 26.6186 93.2375 26.3521 93.4246 26.1778C93.6118 26.0035 93.8874 26.0346 94.0526 26.1788C94.2269 26.366 94.2387 26.6325 94.0516 26.8068C93.9749 26.8679 93.932 26.8771 93.8462 26.8953C93.6746 26.9318 93.5368 26.9162 93.4236 26.8058ZM14.9073 42.1946C14.6655 42.1114 14.5679 41.8632 14.651 41.6213C14.7341 41.3794 14.9824 41.2818 15.2242 41.3649C15.4661 41.448 15.5637 41.6963 15.4806 41.9382C15.4222 42.0851 15.3117 42.1983 15.183 42.2256C15.0972 42.2439 15.0023 42.2192 14.9073 42.1946ZM91.8823 25.2501C91.708 25.063 91.6962 24.7964 91.8833 24.6221C92.0705 24.4478 92.337 24.436 92.5113 24.6232C92.6856 24.8103 92.6974 25.0769 92.5102 25.2512C92.4336 25.3123 92.3569 25.3734 92.2711 25.3917C92.1333 25.3761 91.9863 25.3177 91.8823 25.2501ZM15.7685 40.1283C15.5266 40.0451 15.4199 39.754 15.555 39.5459C15.6381 39.304 15.9293 39.1973 16.1374 39.3324C16.3792 39.4155 16.4431 39.7158 16.3509 39.9148C16.2924 40.0617 16.1728 40.132 16.0441 40.1593C15.9583 40.1776 15.8725 40.1958 15.7685 40.1283ZM90.2643 23.7556C90.0991 23.6114 90.0782 23.3019 90.2224 23.1368C90.4096 22.9625 90.6761 22.9506 90.8413 23.0949C91.0064 23.2391 91.0274 23.5486 90.8831 23.7138C90.8064 23.7749 90.7297 23.836 90.6439 23.8543C90.5152 23.8816 90.3774 23.8661 90.2643 23.7556ZM16.6908 38.1386C16.4827 38.0035 16.3851 37.7552 16.4773 37.5563C16.6124 37.3482 16.8607 37.2506 17.0688 37.3857C17.2677 37.4779 17.3745 37.7691 17.2823 37.9681C17.2147 38.0721 17.1042 38.1853 16.9755 38.2126C16.9235 38.1788 16.7857 38.1633 16.6908 38.1386ZM88.5787 22.3652C88.4135 22.2209 88.3497 21.9206 88.4939 21.7554C88.629 21.5473 88.9385 21.5264 89.1037 21.6707C89.3117 21.8058 89.3327 22.1152 89.1884 22.2804C89.1209 22.3844 89.0351 22.4027 88.9064 22.43C88.8206 22.4483 88.6827 22.4327 88.5787 22.3652ZM17.7509 36.1646C17.5428 36.0294 17.4452 35.7812 17.5803 35.5731C17.7154 35.365 17.9637 35.2674 18.1718 35.4025C18.3799 35.5376 18.4346 35.795 18.3423 35.994C18.2748 36.098 18.1552 36.1683 18.0265 36.1957C17.9498 36.2568 17.8549 36.2321 17.7509 36.1646ZM86.8164 21.0358C86.6083 20.9007 86.5874 20.5913 86.7317 20.4261C86.8668 20.218 87.1242 20.1633 87.3414 20.3413C87.5495 20.4765 87.5704 20.7859 87.4262 20.9511C87.3586 21.0551 87.2819 21.1162 87.1532 21.1436C87.0583 21.1189 86.9205 21.1034 86.8164 21.0358ZM18.8721 34.2672C18.664 34.1321 18.6093 33.8746 18.7444 33.6666C18.8796 33.4585 19.137 33.4038 19.3451 33.5389C19.5531 33.674 19.6078 33.9314 19.4727 34.1395C19.4052 34.2436 19.2856 34.3138 19.1998 34.332C19.0711 34.3594 18.9761 34.3347 18.8721 34.2672ZM84.9866 19.8106C84.7785 19.6754 84.7238 19.418 84.8589 19.2099C84.9941 19.0019 85.2515 18.9471 85.4596 19.0823C85.6676 19.2174 85.7224 19.4748 85.5872 19.6829C85.5197 19.7869 85.4001 19.8572 85.3143 19.8754C85.2285 19.8937 85.0906 19.8781 84.9866 19.8106ZM20.0883 32.3945C19.8802 32.2593 19.8255 32.0019 19.9606 31.7938C20.0957 31.5858 20.3531 31.531 20.5612 31.6662C20.7693 31.8013 20.824 32.0587 20.646 32.2759C20.5784 32.3799 20.5017 32.4411 20.373 32.4684C20.2872 32.4867 20.1923 32.462 20.0883 32.3945ZM83.123 18.6373C82.9149 18.5022 82.8602 18.2448 82.9524 18.0458C83.0876 17.8377 83.345 17.783 83.5439 17.8752C83.752 18.0104 83.8067 18.2678 83.7145 18.4667C83.6469 18.5708 83.5273 18.641 83.3986 18.6684C83.3649 18.7204 83.227 18.7049 83.123 18.6373ZM21.3656 30.5984C21.1575 30.4633 21.1366 30.1539 21.2808 29.9887C21.4159 29.7806 21.7254 29.7597 21.8905 29.9039C22.0986 30.039 22.1195 30.3485 21.9753 30.5136C21.9077 30.6177 21.8219 30.6359 21.6932 30.6633C21.6165 30.7244 21.4787 30.7089 21.3656 30.5984ZM81.2347 17.559C81.0266 17.4238 80.929 17.1755 81.0642 16.9675C81.1993 16.7594 81.4476 16.6618 81.6557 16.7969C81.8637 16.932 81.9614 17.1803 81.8262 17.3884C81.7587 17.4924 81.6482 17.6056 81.5195 17.6329C81.4337 17.6512 81.2959 17.6356 81.2347 17.559ZM22.7469 28.8699C22.5817 28.7257 22.5179 28.4254 22.705 28.2511C22.8493 28.0859 23.1496 28.0221 23.3239 28.2092C23.4891 28.3535 23.5529 28.6538 23.3658 28.8281C23.2891 28.8892 23.2124 28.9504 23.1266 28.9686C22.9979 28.9959 22.8601 28.9804 22.7469 28.8699ZM79.236 16.5938C78.9941 16.5107 78.9303 16.2104 79.0225 16.0114C79.1056 15.7695 79.4059 15.7057 79.6049 15.7979C79.8468 15.881 79.9106 16.1813 79.8184 16.3803C79.7599 16.5272 79.6403 16.5975 79.5116 16.6249C79.4258 16.6431 79.3309 16.6184 79.236 16.5938ZM24.1894 27.2181C24.0151 27.031 24.0033 26.7645 24.1475 26.5993C24.3347 26.425 24.6012 26.4132 24.7664 26.5574C24.9407 26.7446 24.9525 27.0111 24.8082 27.1763C24.7315 27.2374 24.6549 27.2986 24.5691 27.3168C24.4404 27.3442 24.2934 27.2857 24.1894 27.2181ZM77.2555 15.7144C77.0136 15.6313 76.9069 15.3401 76.9991 15.1411C77.0822 14.8993 77.3305 14.8017 77.5724 14.8848C77.8142 14.9679 77.9119 15.2162 77.8288 15.458C77.7703 15.605 77.6598 15.7181 77.5311 15.7455C77.4024 15.7728 77.3075 15.7482 77.2555 15.7144ZM25.7268 25.591C25.5525 25.4039 25.5407 25.1373 25.7278 24.963C25.915 24.7887 26.1815 24.7769 26.3558 24.9641C26.5301 25.1512 26.5419 25.4177 26.3548 25.592C26.2781 25.6532 26.2014 25.7143 26.1585 25.7234C25.9869 25.7599 25.8399 25.7015 25.7268 25.591ZM75.1983 14.8962C74.9565 14.813 74.8588 14.5648 74.9419 14.3229C75.025 14.081 75.2733 13.9834 75.5152 14.0665C75.7571 14.1496 75.8547 14.3979 75.7716 14.6398C75.7131 14.7867 75.6027 14.8999 75.4311 14.9364C75.3453 14.9546 75.2595 14.9728 75.1983 14.8962ZM27.3344 24.0835C27.1601 23.8963 27.1912 23.6207 27.3784 23.4464C27.5655 23.2721 27.8412 23.3032 28.0155 23.4903C28.1898 23.6775 28.1587 23.9531 27.9715 24.1274C27.8949 24.1885 27.8519 24.1977 27.7661 24.2159C27.5945 24.2524 27.4476 24.1939 27.3344 24.0835ZM73.0827 14.2249C72.8408 14.1417 72.7003 13.9026 72.7834 13.6607C72.8665 13.4189 73.1057 13.2783 73.3476 13.3614C73.5894 13.4446 73.7299 13.6837 73.6468 13.9256C73.5884 14.0725 73.4779 14.1857 73.3063 14.2222C73.2634 14.2313 73.1776 14.2495 73.0827 14.2249ZM28.9941 22.6097C28.8627 22.4134 28.8938 22.1378 29.0381 21.9726C29.2343 21.8412 29.5009 21.8294 29.6752 22.0165C29.8495 22.2037 29.8184 22.4793 29.6312 22.6536C29.5545 22.7148 29.5116 22.7239 29.4258 22.7421C29.2633 22.8215 29.1164 22.7631 28.9941 22.6097ZM70.9853 13.6394C70.7525 13.5992 70.6029 13.3171 70.6431 13.0843C70.6833 12.8516 70.9654 12.702 71.1982 12.7422C71.4309 12.7824 71.5805 13.0644 71.5403 13.2972C71.491 13.487 71.3805 13.6002 71.2089 13.6367C71.1231 13.6549 71.0373 13.6731 70.9853 13.6394ZM30.7241 21.2555C30.5927 21.0593 30.6238 20.7836 30.82 20.6522C31.0163 20.5208 31.2919 20.5519 31.4233 20.7482C31.5547 20.9444 31.5236 21.2201 31.3274 21.3515C31.2936 21.4035 31.2078 21.4217 31.1649 21.4309C31.0362 21.4582 30.8463 21.4089 30.7241 21.2555ZM68.8632 13.1488C68.6305 13.1086 68.4471 12.8785 68.5302 12.6367C68.5704 12.4039 68.8096 12.2634 69.0423 12.3036C69.2751 12.3438 69.4156 12.583 69.3754 12.8157C69.326 13.0056 69.2156 13.1187 69.044 13.1552C68.9491 13.1305 68.9061 13.1397 68.8632 13.1488ZM32.5151 19.978C32.3837 19.7818 32.4577 19.497 32.654 19.3656C32.8503 19.2342 33.1259 19.2653 33.2664 19.5045C33.3978 19.7007 33.3667 19.9764 33.1276 20.1169C33.0847 20.126 33.0509 20.178 32.9651 20.1963C32.8273 20.1807 32.6374 20.1314 32.5151 19.978ZM66.6645 12.7194C66.4318 12.6791 66.2483 12.4491 66.2886 12.2164C66.3288 11.9836 66.5588 11.8002 66.7916 11.8404C67.0243 11.8806 67.2077 12.1107 67.1675 12.3434C67.1182 12.5332 67.0168 12.6893 66.8023 12.7349C66.8023 12.7349 66.7165 12.7531 66.6645 12.7194ZM34.4103 18.7681C34.2789 18.5718 34.3528 18.2871 34.5491 18.1557C34.7454 18.0243 35.0302 18.0983 35.1616 18.2945C35.2929 18.4908 35.219 18.7756 35.0227 18.907C34.9798 18.9161 34.946 18.9681 34.9031 18.9772C34.6886 19.0228 34.4896 18.9306 34.4103 18.7681ZM64.5022 12.4615C64.2695 12.4213 64.0952 12.2342 64.1263 11.9585C64.1665 11.7258 64.3966 11.5424 64.6293 11.5826C64.862 11.6228 65.0363 11.8099 65.0053 12.0856C64.9988 12.2663 64.8546 12.4315 64.6401 12.4771C64.5881 12.4433 64.5451 12.4524 64.5022 12.4615ZM36.3236 17.644C36.1922 17.4477 36.2662 17.1629 36.5054 17.0224C36.7016 16.891 36.9864 16.965 37.084 17.2133C37.2154 17.4096 37.1414 17.6943 36.9023 17.8348C36.8594 17.844 36.8165 17.8531 36.7736 17.8622C36.6019 17.8987 36.403 17.8065 36.3236 17.644ZM62.3062 12.2557C62.0735 12.2155 61.8992 12.0284 61.8965 11.8047C61.9367 11.572 62.1147 11.3548 62.3475 11.395C62.5711 11.3923 62.7545 11.6224 62.7572 11.846C62.7508 12.0267 62.6065 12.1919 62.392 12.2375C62.392 12.2375 62.3491 12.2466 62.3062 12.2557ZM38.2552 16.6056C38.1667 16.4003 38.2407 16.1155 38.4461 16.027C38.6515 15.9385 38.9362 16.0125 39.0247 16.2179C39.1132 16.4233 39.0392 16.708 38.8339 16.7965C38.791 16.8056 38.748 16.8148 38.748 16.8148C38.5856 16.8941 38.3437 16.811 38.2552 16.6056ZM60.1375 12.1786C59.871 12.1904 59.6876 11.9604 59.6849 11.7367C59.6822 11.5131 59.9031 11.2868 60.1268 11.2841C60.3504 11.2814 60.5767 11.5023 60.5794 11.726C60.5821 11.9496 60.4378 12.1148 60.2233 12.1604C60.1804 12.1695 60.1375 12.1786 60.1375 12.1786ZM40.3 15.6778C40.2023 15.4295 40.2855 15.1876 40.5337 15.09C40.7391 15.0015 41.0239 15.0755 41.1215 15.3238C41.21 15.5292 41.136 15.8139 40.8877 15.9116C40.8448 15.9207 40.8448 15.9207 40.8019 15.9298C40.5874 15.9754 40.3885 15.8832 40.3 15.6778ZM57.9442 12.1964C57.6776 12.2082 57.5033 12.0211 57.4915 11.7546C57.4888 11.5309 57.6669 11.3137 57.9334 11.3019C58.157 11.2992 58.3742 11.4773 58.386 11.7438C58.3887 11.9674 58.2445 12.1326 58.03 12.1782C57.9871 12.1873 57.9442 12.1964 57.9442 12.1964ZM42.32 14.8448C42.2315 14.6395 42.3484 14.3456 42.6059 14.2909C42.8112 14.2024 43.1051 14.3193 43.1598 14.5767C43.2483 14.782 43.1314 15.0759 42.874 15.1306C42.8311 15.1398 42.8311 15.1398 42.8311 15.1398C42.6166 15.1854 42.4085 15.0502 42.32 14.8448ZM55.7262 12.3092C55.5025 12.3119 55.2853 12.1338 55.2397 11.9193C55.237 11.6957 55.4151 11.4785 55.6296 11.4329C55.8532 11.4302 56.0704 11.6082 56.116 11.8227C56.1187 12.0464 55.9836 12.2544 55.7691 12.3C55.7691 12.3 55.7691 12.3 55.7262 12.3092ZM44.4104 14.1315C44.3557 13.8741 44.4817 13.6231 44.6962 13.5775C44.9445 13.4799 45.1617 13.6579 45.2502 13.8633C45.2958 14.0778 45.1698 14.3288 44.9644 14.4173L44.9215 14.4264C44.707 14.472 44.4989 14.3369 44.4104 14.1315ZM53.5264 12.5077C53.2599 12.5195 53.0518 12.3844 53.04 12.1179C52.9944 11.9034 53.1633 11.6433 53.4298 11.6314C53.6443 11.5858 53.9044 11.7548 53.9162 12.0213C53.9618 12.2358 53.7838 12.453 53.5264 12.5077C53.5693 12.4986 53.5693 12.4986 53.5264 12.5077ZM46.5528 13.4519C46.498 13.1945 46.6332 12.9864 46.8815 12.8888C47.1389 12.8341 47.347 12.9692 47.4354 13.1746C47.4902 13.432 47.355 13.6401 47.1067 13.7377C46.8585 13.8353 46.6075 13.7093 46.5528 13.4519ZM51.354 12.8349C51.0966 12.8897 50.8794 12.7116 50.8338 12.4971C50.779 12.2397 50.9571 12.0225 51.1716 11.9769C51.429 11.9222 51.6462 12.1002 51.7009 12.3576C51.7894 12.563 51.6114 12.7802 51.354 12.8349C51.3969 12.8258 51.3969 12.8258 51.354 12.8349ZM48.6796 12.9102C48.634 12.6957 48.8029 12.4356 49.0174 12.39C49.2748 12.3353 49.4829 12.4704 49.5376 12.7278C49.5923 12.9852 49.4143 13.2024 49.1998 13.248C48.9853 13.2936 48.7343 13.1676 48.6796 12.9102Z" fill="#E2001A"/>
<path d="M33.9593 84.1503C34.0232 84.4506 34.0259 84.6743 34.0194 84.855C34.013 85.0357 33.9637 85.2255 33.8623 85.3816C33.7025 85.6846 33.4205 85.8342 32.9914 85.9254C32.6053 86.0075 32.2868 85.9855 32.0696 85.8075C31.7575 85.6048 31.5558 85.289 31.4464 84.7741L32.0899 84.6374C32.1537 84.9377 32.2422 85.1431 32.3983 85.2444C32.5115 85.3549 32.6922 85.3613 32.8638 85.3248C33.0354 85.2883 33.1979 85.209 33.2563 85.062C33.3485 84.8631 33.3796 84.5874 33.2976 84.2013C33.2155 83.8152 33.075 83.576 32.9098 83.4318C32.8058 83.3642 32.6159 83.3149 32.4872 83.3422L32.0582 83.4334L31.9397 82.8757L32.3687 82.7845C32.5403 82.7481 32.6599 82.6778 32.7183 82.5308C32.8105 82.3319 32.8416 82.0562 32.7687 81.713C32.6866 81.3269 32.589 81.0786 32.4329 80.9773C32.3198 80.8668 32.139 80.8604 31.9674 80.8969C31.7958 80.9333 31.6762 81.0036 31.5749 81.1597C31.4736 81.3157 31.4762 81.5394 31.5401 81.8397L30.8966 81.9764C30.7963 81.5045 30.852 81.134 31.0547 80.8218C31.2236 80.5617 31.4966 80.3692 31.8827 80.2871C32.2688 80.2051 32.5965 80.2699 32.8566 80.4388C33.0126 80.5402 33.1349 80.6936 33.2143 80.856C33.2936 81.0185 33.3913 81.2668 33.446 81.5242C33.5372 81.9532 33.5152 82.2718 33.3892 82.5228C33.3307 82.6697 33.2203 82.7829 33.1098 82.896C33.2567 82.9545 33.4037 83.0129 33.5597 83.1143C33.7094 83.3963 33.859 83.6784 33.9593 84.1503Z" fill="#E2001A"/>
<path d="M37.9159 84.834L37.2295 84.9799L36.6985 83.7476L35.4543 84.0121L35.4705 85.3538L34.7841 85.4997L34.913 79.7777L35.5565 79.6409L37.9159 84.834ZM36.4512 83.2173L35.4075 80.8384L35.4216 83.4361L36.4512 83.2173Z" fill="#E2001A"/>
<path d="M40.6432 82.6848C40.7071 82.9852 40.7189 83.2517 40.7124 83.4324C40.706 83.6131 40.6567 83.803 40.5553 83.959C40.3864 84.2191 40.0706 84.4208 39.6416 84.512L38.4403 84.7673L37.2822 79.3188L38.4406 79.0726C38.8696 78.9814 39.2401 79.0372 39.5002 79.2061C39.6563 79.3075 39.7695 79.4179 39.8488 79.5804C39.9282 79.7429 40.0167 79.9483 40.0805 80.2486C40.1717 80.6776 40.1589 81.039 39.99 81.2991C39.9224 81.4032 39.8548 81.5072 39.7353 81.5775C39.8731 81.593 39.968 81.6177 40.1241 81.719C40.2801 81.8204 40.3933 81.9309 40.4726 82.0933C40.5 82.222 40.5885 82.4274 40.6432 82.6848ZM39.3941 80.3945C39.3303 80.0942 39.2327 79.8459 39.0766 79.7446C38.9634 79.6341 38.7307 79.5939 38.5162 79.6395L38.0443 79.7398L38.4182 81.4987L38.8901 81.3984C39.1046 81.3528 39.2579 81.2306 39.3593 81.0745C39.4606 80.9184 39.458 80.6948 39.3941 80.3945ZM39.9477 82.7878C39.8747 82.4446 39.7771 82.1963 39.6211 82.095C39.4559 81.9508 39.2752 81.9443 39.0177 81.999L38.5458 82.0993L38.9653 84.0728L39.4372 83.9725C39.6946 83.9178 39.848 83.7955 39.9493 83.6394C40.0324 83.3976 40.0206 83.1311 39.9477 82.7878Z" fill="#E2001A"/>
<path d="M43.2583 79.1694C43.365 79.4606 43.5265 80.0092 43.6906 80.7814C43.8548 81.5537 43.9304 82.1205 43.9513 82.4299C43.9723 82.7394 43.8983 83.0241 43.7631 83.2322C43.5605 83.5443 43.2875 83.7369 42.9014 83.8189C42.5153 83.901 42.1876 83.8361 41.8755 83.6334C41.6674 83.4983 41.5269 83.2591 41.3773 82.9771C41.2705 82.6859 41.1091 82.1373 40.9449 81.3651C40.7808 80.5928 40.7051 80.026 40.6842 79.7166C40.6633 79.4071 40.7373 79.1224 40.8724 78.9143C41.0751 78.6022 41.348 78.4097 41.7342 78.3276C42.1203 78.2455 42.4479 78.3104 42.7601 78.5131C43.011 78.6391 43.1516 78.8783 43.2583 79.1694ZM43.296 82.3002C43.2842 82.0337 43.1839 81.5618 43.0471 80.9182C42.9103 80.2747 42.81 79.8028 42.7124 79.5545C42.6148 79.3062 42.5263 79.1008 42.4131 78.9904C42.3 78.8799 42.1101 78.8306 41.9385 78.8671C41.724 78.9126 41.6135 79.0258 41.5551 79.1727C41.4966 79.3197 41.4564 79.5524 41.5112 79.8098C41.523 80.0764 41.6233 80.5483 41.7692 81.2347C41.9151 81.9211 42.0063 82.3501 42.113 82.6413C42.2106 82.8896 42.2991 83.095 42.4123 83.2055C42.5254 83.3159 42.7153 83.3653 42.8869 83.3288C43.1014 83.2832 43.2119 83.17 43.2703 83.0231C43.3105 82.7903 43.3169 82.6096 43.296 82.3002Z" fill="#E2001A"/>
<path d="M48.1218 83.6959L47.4783 83.8327L47.2686 82.8459L45.0377 83.3201L45.2474 84.3069L44.6468 84.4345L44.3185 82.8901L44.6617 82.8171C44.7979 81.9811 44.7351 81.0528 44.5254 80.0661L44.0603 77.8781L46.3341 77.3948L47.3645 82.2426L47.7935 82.1514L48.1218 83.6959ZM46.721 82.3794L45.8182 78.1322L44.8315 78.3419L45.2054 80.1009C45.406 81.0447 45.4597 81.9301 45.3573 82.7141L46.7301 82.4223L46.721 82.3794Z" fill="#E2001A"/>
<path d="M50.872 82.08L50.2284 82.2167L49.809 80.2433C49.6036 80.3318 49.3462 80.3865 49.1317 80.4321C48.7456 80.5142 48.427 80.4922 48.2189 80.3571C48.0108 80.2219 47.8092 79.9061 47.718 79.4771L47.2256 77.1604L47.8691 77.0236L48.3433 79.2545C48.398 79.5119 48.4865 79.7173 48.5905 79.7848C48.6946 79.8524 48.8844 79.9017 49.056 79.8653C49.2276 79.8288 49.4421 79.7832 49.6475 79.6947L49.0274 76.7774L49.6709 76.6406L50.8291 82.0891L50.872 82.08Z" fill="#E2001A"/>
<path d="M54.4333 81.3232L53.7898 81.46L52.9874 77.6847L52.4599 81.7427L51.8593 81.8703L50.7012 76.4219L51.3447 76.2851L52.1472 80.0604L52.6746 76.0024L53.2752 75.8747L54.4333 81.3232Z" fill="#E2001A"/>
<path d="M56.0633 80.9765L55.4198 81.1132L54.2617 75.6648L54.9052 75.528L56.0633 80.9765ZM58.2942 80.5023L57.5649 80.6573L55.5044 78.1359L56.321 75.2271L57.0503 75.0721L56.1817 77.9471L58.2942 80.5023Z" fill="#E2001A"/>
<path d="M59.496 80.2472L58.8524 80.384L57.6943 74.9355L58.3379 74.7988L59.496 80.2472Z" fill="#E2001A"/>
<path d="M62.6941 77.9977C62.7579 78.298 62.7697 78.5645 62.7633 78.7452C62.7569 78.926 62.7075 79.1158 62.6062 79.2719C62.4373 79.532 62.1214 79.7336 61.6924 79.8248L60.5341 80.071L59.376 74.6226L60.5343 74.3763C60.9633 74.2852 61.3339 74.3409 61.594 74.5098C61.75 74.6112 61.8632 74.7216 61.9426 74.8841C62.022 75.0466 62.1105 75.252 62.1743 75.5523C62.2655 75.9813 62.2526 76.3428 62.0837 76.6029C62.0162 76.7069 61.9486 76.8109 61.829 76.8812C61.9668 76.8967 62.0618 76.9214 62.2178 77.0228C62.3739 77.1241 62.487 77.2346 62.5664 77.3971C62.5509 77.5349 62.6394 77.7403 62.6941 77.9977ZM61.4879 75.6982C61.424 75.3979 61.3264 75.1496 61.1704 75.0483C61.0572 74.9378 60.8245 74.8976 60.61 74.9432L60.138 75.0435L60.5119 76.8024L60.9838 76.7021C61.1983 76.6565 61.3517 76.5343 61.453 76.3782C61.5115 76.2313 61.5517 75.9985 61.4879 75.6982ZM62.0414 78.0916C61.9685 77.7483 61.8709 77.5001 61.7148 77.3987C61.5496 77.2545 61.3689 77.248 61.1115 77.3027L60.6396 77.4031L61.0591 79.3765L61.531 79.2762C61.7884 79.2215 61.9417 79.0992 62.0431 78.9432C62.0833 78.7104 62.1144 78.4348 62.0414 78.0916Z" fill="#E2001A"/>
<path d="M67.3363 77.0558C67.4001 77.3561 67.4028 77.5798 67.3964 77.7605C67.3899 77.9412 67.3406 78.1311 67.2393 78.2871C67.0795 78.5901 66.7974 78.7398 66.3684 78.8309C65.9823 78.913 65.6637 78.8911 65.4465 78.713C65.1344 78.5103 64.9328 78.1945 64.8233 77.6797L65.4669 77.5429C65.5307 77.8432 65.6192 78.0486 65.7752 78.1499C65.8884 78.2604 66.0691 78.2668 66.2407 78.2303C66.4123 78.1939 66.5748 78.1145 66.6333 77.9675C66.7255 77.7686 66.7566 77.4929 66.6745 77.1068C66.5924 76.7207 66.4519 76.4815 66.2868 76.3373C66.1827 76.2697 65.9929 76.2204 65.8642 76.2478L65.4352 76.3389L65.3166 75.7812L65.7456 75.69C65.9172 75.6536 66.0368 75.5833 66.0953 75.4364C66.1875 75.2374 66.2186 74.9618 66.1456 74.6185C66.0635 74.2324 65.9659 73.9842 65.8099 73.8828C65.6967 73.7723 65.516 73.7659 65.3444 73.8024C65.1728 73.8389 65.0532 73.9091 64.9519 74.0652C64.8505 74.2212 64.8532 74.4449 64.917 74.7452L64.2735 74.882C64.1732 74.4101 64.229 74.0395 64.4317 73.7274C64.6006 73.4673 64.8735 73.2747 65.2596 73.1927C65.6457 73.1106 65.9734 73.1755 66.2335 73.3444C66.3896 73.4457 66.5118 73.5991 66.5912 73.7616C66.6706 73.9241 66.7682 74.1723 66.8229 74.4297C66.9141 74.8588 66.8921 75.1773 66.7661 75.4283C66.7077 75.5752 66.5972 75.6884 66.4867 75.8015C66.6337 75.86 66.7806 75.9184 66.9367 76.0198C67.0863 76.3019 67.236 76.5839 67.3363 77.0558Z" fill="#E2001A"/>
<path d="M71.2498 77.7486L70.5634 77.8945L70.0324 76.6622L68.7883 76.9266L68.8045 78.2684L68.1181 78.4143L68.247 72.6923L68.8905 72.5555L71.2498 77.7486ZM69.7852 76.1318L68.7415 73.753L68.7556 76.3507L69.7852 76.1318Z" fill="#E2001A"/>
<path d="M75.193 77.9419L74.5495 78.0787L74.3398 77.0919L72.1089 77.5661L72.3186 78.5529L71.6751 78.6896L71.3468 77.1452L71.6901 77.0723C71.8262 76.2362 71.7634 75.3079 71.5537 74.3212L71.0886 72.1332L73.3624 71.6499L74.3928 76.4978L74.8218 76.4066L75.1501 77.951L75.193 77.9419ZM73.7922 76.6254L72.8894 72.3782L71.9027 72.5879L72.2766 74.3469C72.4772 75.2907 72.5309 76.1761 72.4285 76.9601L73.8013 76.6683L73.7922 76.6254Z" fill="#E2001A"/>
<path d="M77.064 71.9839C77.1707 72.2751 77.3321 72.8237 77.4963 73.5959C77.6604 74.3681 77.7361 74.935 77.757 75.2444C77.7779 75.5538 77.7039 75.8386 77.5688 76.0467C77.3661 76.3588 77.0932 76.5513 76.7071 76.6334C76.3209 76.7155 75.9933 76.6506 75.6812 76.4479C75.4731 76.3128 75.3326 76.0736 75.1829 75.7915C75.0762 75.5003 74.9147 74.9517 74.7506 74.1795C74.5865 73.4073 74.5108 72.8405 74.4899 72.531C74.469 72.2216 74.5429 71.9368 74.6781 71.7288C74.8808 71.4166 75.1537 71.2241 75.5398 71.142C75.9259 71.06 76.2536 71.1248 76.5657 71.3275C76.7738 71.4627 76.9572 71.6927 77.064 71.9839ZM77.0588 75.1238C77.047 74.8572 76.9466 74.3853 76.8099 73.7418C76.6731 73.0983 76.5728 72.6264 76.4752 72.3781C76.3775 72.1298 76.289 71.9244 76.1759 71.8139C76.0627 71.7035 75.8729 71.6541 75.7013 71.6906C75.4868 71.7362 75.3763 71.8494 75.3179 71.9963C75.2594 72.1433 75.2192 72.376 75.2739 72.6334C75.2857 72.8999 75.386 73.3719 75.5319 74.0583C75.6778 74.7447 75.769 75.1737 75.8758 75.4649C75.9734 75.7132 76.0619 75.9186 76.175 76.029C76.2882 76.1395 76.478 76.1888 76.6496 76.1524C76.8641 76.1068 76.9746 75.9936 77.0331 75.8467C77.0733 75.6139 77.0797 75.4332 77.0588 75.1238Z" fill="#E2001A"/>
<path d="M81.0984 74.0856C81.1622 74.3859 81.174 74.6524 81.1676 74.8331C81.1612 75.0138 81.1118 75.2037 81.0105 75.3598C80.8416 75.6199 80.5257 75.8215 80.0967 75.9127L78.9384 76.1589L77.7803 70.7104L78.9386 70.4642C79.3676 70.373 79.7382 70.4288 79.9983 70.5977C80.1543 70.6991 80.2675 70.8095 80.3469 70.972C80.4263 71.1345 80.5148 71.3399 80.5786 71.6402C80.6698 72.0692 80.6569 72.4307 80.488 72.6908C80.4205 72.7948 80.3529 72.8988 80.2333 72.9691C80.3711 72.9846 80.466 73.0093 80.6221 73.1106C80.7782 73.212 80.8913 73.3225 80.9707 73.4849C80.9552 73.6228 81.0437 73.8282 81.0984 74.0856ZM79.8922 71.7861C79.8283 71.4858 79.7307 71.2375 79.5747 71.1362C79.4615 71.0257 79.2288 70.9855 79.0143 71.0311L78.5423 71.1314L78.9162 72.8903L79.3881 72.79C79.6026 72.7444 79.756 72.6222 79.8574 72.4661C79.9158 72.3192 79.956 72.0864 79.8922 71.7861ZM80.4457 74.1794C80.3728 73.8362 80.2752 73.5879 80.1191 73.4866C79.9539 73.3424 79.7732 73.3359 79.5158 73.3906L79.0439 73.4909L79.4634 75.4644L79.9353 75.3641C80.1927 75.3094 80.346 75.1871 80.4474 75.031C80.4876 74.7983 80.5187 74.5227 80.4457 74.1794Z" fill="#E2001A"/>
<path d="M83.7573 70.561C83.864 70.8522 84.0255 71.4008 84.1896 72.1731C84.3538 72.9453 84.4294 73.5121 84.4504 73.8215C84.4713 74.131 84.3973 74.4157 84.2622 74.6238C84.0595 74.9359 83.7865 75.1285 83.4004 75.2105C83.0143 75.2926 82.6866 75.2277 82.3745 75.025C82.1664 74.8899 82.0259 74.6507 81.8763 74.3687C81.7695 74.0775 81.6081 73.5289 81.444 72.7567C81.2798 71.9844 81.2042 71.4176 81.1832 71.1082C81.1623 70.7988 81.2363 70.514 81.3714 70.3059C81.5741 69.9938 81.8471 69.8013 82.2332 69.7192C82.6193 69.6371 82.947 69.702 83.2591 69.9047C83.4672 70.0398 83.6506 70.2699 83.7573 70.561ZM83.7521 73.7009C83.7403 73.4344 83.64 72.9625 83.5032 72.319C83.3664 71.6754 83.2661 71.2035 83.1685 70.9552C83.0709 70.7069 82.9824 70.5016 82.8692 70.3911C82.7561 70.2806 82.5662 70.2313 82.3946 70.2678C82.1801 70.3134 82.0697 70.4265 82.0112 70.5735C81.9528 70.7204 81.9126 70.9532 81.9673 71.2106C81.9791 71.4771 82.0794 71.949 82.2253 72.6354C82.3712 73.3218 82.4624 73.7509 82.5691 74.042C82.6667 74.2903 82.7552 74.4957 82.8684 74.6062C82.9816 74.7167 83.1714 74.766 83.343 74.7295C83.5575 74.6839 83.668 74.5707 83.7264 74.4238C83.7666 74.1911 83.773 74.0103 83.7521 73.7009Z" fill="#E2001A"/>
<path d="M87.982 74.1921L87.3385 74.3289L86.3081 69.4811L85.3213 69.6908L85.832 72.0933C85.9232 72.5223 85.9624 72.9175 85.9833 73.2269C86.0042 73.5364 86.016 73.8029 85.9667 73.9927C85.9174 74.1826 85.8589 74.3295 85.7485 74.4427C85.638 74.5558 85.5704 74.6599 85.4417 74.6872C85.313 74.7146 85.1934 74.7848 85.0647 74.8122L84.8931 74.8487L84.7655 74.2481L84.8513 74.2298C84.98 74.2025 85.0658 74.1842 85.1425 74.1231C85.2191 74.0619 85.2867 73.9579 85.3114 73.863C85.3698 73.716 85.3762 73.5353 85.3553 73.2259C85.3344 72.9165 85.2614 72.5732 85.1702 72.1442L84.5593 69.2699L86.833 68.7866L87.982 74.1921Z" fill="#E2001A"/>
<path d="M91.0708 73.5356L88.9687 73.9824L87.8105 68.5339L89.9127 68.0871L90.0404 68.6877L88.5817 68.9978L88.9738 70.8425L90.218 70.5781L90.3457 71.1787L89.1015 71.4431L89.4936 73.2879L90.9523 72.9778L91.0708 73.5356Z" fill="#E2001A"/>
<path d="M94.3739 72.8334L93.7304 72.9702L93.2106 70.5248L92.0094 70.7801L92.5292 73.2255L91.8856 73.3623L90.7275 67.9138L91.3711 67.777L91.8726 70.1366L93.0738 69.8813L92.5723 67.5217L93.2158 67.3849L94.3739 72.8334Z" fill="#E2001A"/>
<path d="M96.0047 72.487L95.3612 72.6237L94.2031 67.1753L94.8466 67.0385L96.0047 72.487Z" fill="#E2001A"/>
<path d="M55.7781 86.5974C55.8966 87.1551 55.8591 87.6114 55.6902 87.8715C55.5304 88.1745 55.2054 88.3333 54.7764 88.4245L54.2187 88.543L54.702 90.8168L54.0585 90.9536L52.9004 85.5051L54.1016 85.2498C54.5306 85.1586 54.9012 85.2144 55.1613 85.3833C55.4214 85.5522 55.6595 86.0396 55.7781 86.5974ZM55.0917 86.7433C55.0187 86.4 54.9211 86.1518 54.7559 86.0075C54.5907 85.8633 54.4529 85.8477 54.1955 85.9024L53.6378 86.021L54.0573 87.9944L54.615 87.8759C54.8295 87.8303 54.9828 87.708 55.0842 87.552C55.1764 87.353 55.1737 87.1294 55.0917 86.7433Z" fill="#E2001A"/>
<path d="M59.7303 89.7928L59.0439 89.9387L58.5129 88.7064L57.2688 88.9708L57.285 90.3126L56.5985 90.4585L56.7275 84.7364L57.371 84.5997L59.7303 89.7928ZM58.2566 88.1331L57.2128 85.7543L57.2269 88.352L58.2566 88.1331Z" fill="#E2001A"/>
<path d="M63.4332 90.1266L62.7897 90.2634L62.5617 89.1909L60.245 89.6833L59.0869 84.2349L59.7304 84.0981L60.7609 88.9459L61.9621 88.6906L60.9317 83.8427L61.5752 83.706L62.6056 88.5538L63.0346 88.4626L63.3903 90.1358L63.4332 90.1266Z" fill="#E2001A"/>
<path d="M64.535 88.7714L63.8915 88.9082L62.7334 83.4597L63.3769 83.3229L64.535 88.7714Z" fill="#E2001A"/>
<path d="M67.0806 83.6568C67.1873 83.9479 67.3487 84.4965 67.5129 85.2688C67.677 86.041 67.7527 86.6078 67.7736 86.9172C67.7945 87.2267 67.7205 87.5114 67.5854 87.7195C67.3827 88.0316 67.1098 88.2242 66.7236 88.3062C66.3375 88.3883 66.0099 88.3234 65.6978 88.1207C65.4897 87.9856 65.3492 87.7465 65.1995 87.4644C65.0928 87.1732 64.9313 86.6246 64.7672 85.8524C64.6031 85.0801 64.5274 84.5133 64.5065 84.2039C64.4855 83.8945 64.5595 83.6097 64.6947 83.4016C64.8974 83.0895 65.1703 82.897 65.5564 82.8149C65.9425 82.7328 66.2702 82.7977 66.5823 83.0004C66.7904 83.1355 66.9309 83.3747 67.0806 83.6568ZM67.0845 86.8395C67.0727 86.573 66.9724 86.1011 66.8356 85.4576C66.6988 84.814 66.5985 84.3421 66.5009 84.0938C66.4033 83.8456 66.3148 83.6402 66.2016 83.5297C66.0884 83.4192 65.8986 83.3699 65.727 83.4064C65.5125 83.452 65.402 83.5651 65.3436 83.7121C65.2851 83.859 65.2449 84.0918 65.2996 84.3492C65.3115 84.6157 65.4118 85.0876 65.5577 85.774C65.7036 86.4605 65.7948 86.8895 65.9015 87.1807C65.9991 87.4289 66.0876 87.6343 66.2008 87.7448C66.3139 87.8553 66.5038 87.9046 66.6754 87.8681C66.8899 87.8225 67.0003 87.7094 67.0588 87.5624C67.099 87.3297 67.0963 87.1061 67.0845 86.8395Z" fill="#E2001A"/>
<path d="M71.4422 87.3033L70.7987 87.44L70.2789 84.9947L69.0348 85.2591L69.5546 87.7045L68.911 87.8413L67.7529 82.3928L68.3964 82.256L68.898 84.6156L70.0992 84.3603L69.5977 82.0007L70.2412 81.8639L71.3993 87.3124L71.4422 87.3033Z" fill="#E2001A"/>
<path d="M73.9448 82.1978C74.0515 82.489 74.213 83.0376 74.3771 83.8098C74.5413 84.582 74.6169 85.1488 74.6379 85.4583C74.6588 85.7677 74.5848 86.0525 74.4497 86.2605C74.247 86.5727 73.974 86.7652 73.5879 86.8473C73.2018 86.9293 72.8741 86.8645 72.562 86.6618C72.3539 86.5266 72.2134 86.2875 72.0638 86.0054C71.957 85.7142 71.7956 85.1656 71.6315 84.3934C71.4673 83.6212 71.3917 83.0543 71.3707 82.7449C71.3498 82.4355 71.4238 82.1507 71.5589 81.9426C71.7616 81.6305 72.0346 81.438 72.4207 81.3559C72.8068 81.2738 73.1345 81.3387 73.4466 81.5414C73.6547 81.6765 73.8381 81.9066 73.9448 82.1978ZM73.9487 85.3805C73.9369 85.114 73.8366 84.6421 73.6998 83.9986C73.5631 83.3551 73.4627 82.8831 73.3651 82.6349C73.2675 82.3866 73.179 82.1812 73.0659 82.0707C72.9527 81.9603 72.7629 81.9109 72.5913 81.9474C72.3767 81.993 72.2663 82.1062 72.2078 82.2531C72.1494 82.4 72.1092 82.6328 72.1639 82.8902C72.1757 83.1567 72.276 83.6286 72.4219 84.315C72.5678 85.0015 72.659 85.4305 72.7657 85.7217C72.8634 85.97 72.9519 86.1753 73.065 86.2858C73.1782 86.3963 73.368 86.4456 73.5396 86.4091C73.7541 86.3635 73.8646 86.2504 73.923 86.1034C73.9632 85.8707 73.9606 85.6471 73.9487 85.3805Z" fill="#E2001A"/>
<path d="M79.2074 85.6525L78.5639 85.7893L77.7432 81.9282L77.4232 84.6418L76.9941 84.733L75.6072 82.4271L76.4188 86.2453L75.7753 86.382L74.6172 80.9336L75.2178 80.8059L76.9716 83.5719L77.4058 80.3409L78.0064 80.2132L79.1645 85.6617L79.2074 85.6525Z" fill="#E2001A"/>
<path d="M31.1726 72.726L28.4699 73.3005L26.6552 64.7631L23.7808 65.3741L25.5955 73.9115L22.8927 74.486L20.5674 63.5461L28.8044 61.7953L31.1297 72.7351L31.1726 72.726Z" fill="#E2001A"/>
<path d="M39.8903 63.7435C39.9541 64.0438 40.0882 64.4637 40.2158 65.0643C40.3435 65.6649 40.4347 66.094 40.4556 66.4034C40.5195 66.7037 40.5495 67.056 40.5549 67.5033C40.6032 67.9414 40.5474 68.312 40.4397 68.6488C40.3319 68.9855 40.1812 69.3314 39.9785 69.6436C39.3367 70.6319 38.432 71.2278 37.1879 71.4922C35.9437 71.7567 34.8749 71.5803 33.8865 70.9384C33.5744 70.7358 33.2961 70.481 33.0606 70.2172C32.8252 69.9534 32.6573 69.5855 32.4895 69.2176C32.3554 68.7977 32.2395 68.4636 32.1328 68.1725C32.0689 67.8721 31.9349 67.4523 31.8072 66.8516C31.6795 66.251 31.5883 65.822 31.5674 65.5126C31.5036 65.2123 31.4735 64.8599 31.4681 64.4127C31.4199 63.9746 31.4756 63.604 31.5834 63.2672C31.6911 62.9304 31.8418 62.5845 32.0445 62.2724C32.6864 61.284 33.591 60.6882 34.8352 60.4237C36.0793 60.1593 37.1481 60.3357 38.1365 60.9775C38.4486 61.1802 38.727 61.4349 38.9624 61.6988C39.1978 61.9626 39.3657 62.3305 39.5336 62.6983C39.7106 63.1091 39.8264 63.4432 39.8903 63.7435ZM37.8285 67.5447C37.7984 67.1924 37.7046 66.5397 37.5131 65.6388C37.3216 64.7379 37.1419 64.1035 37.026 63.7694C36.9102 63.4353 36.7268 63.2053 36.5616 63.061C36.2403 62.8154 35.8607 62.7168 35.3887 62.8171C34.9168 62.9174 34.6101 63.1619 34.4165 63.517C34.3243 63.7159 34.2503 64.0007 34.2803 64.353C34.3104 64.7053 34.4043 65.358 34.5958 66.2589C34.7873 67.1598 34.967 67.7942 35.0828 68.1283C35.1987 68.4624 35.3821 68.6925 35.5473 68.8367C35.8776 69.1252 36.2482 69.181 36.7201 69.0807C37.192 68.9803 37.4987 68.7358 37.6923 68.3808C37.7846 68.1818 37.8585 67.897 37.8285 67.5447Z" fill="#E2001A"/>
<path d="M51.4646 68.4128L48.7619 68.9873L47.8408 64.6542L44.9665 65.2652L45.8875 69.5982L43.1847 70.1727L40.8594 59.2329L43.5621 58.6584L44.4558 62.8627L47.3302 62.2518L46.4365 58.0474L49.1393 57.473L51.4646 68.4128Z" fill="#E2001A"/>
<path d="M62.619 66.0417L59.7876 66.6436L58.9262 65.1228L55.5799 65.834L55.3687 67.5828L52.5372 68.1847L54.2017 56.3968L56.261 55.9591L62.619 66.0417ZM57.7656 63.0378L56.2446 60.312L55.878 63.439L57.7656 63.0378Z" fill="#E2001A"/>
<path d="M74.024 65.9045L71.4499 66.4517L70.9757 64.2208L65.6989 65.3424L66.1731 67.5733L63.599 68.1204L62.6233 63.53L63.6958 63.302C63.863 62.1903 63.9171 60.9682 63.8334 59.7305C63.7406 58.4499 63.4981 56.8872 63.0969 54.9995L62.9966 54.5276L70.0324 53.0321L71.847 61.5694L73.0912 61.305L74.0669 65.8954L74.024 65.9045ZM69.1443 62.1439L67.8402 56.0091L66.1242 56.3738L66.188 56.6741C66.6257 58.7334 66.6929 60.7369 66.4415 62.7184L69.1443 62.1439Z" fill="#E2001A"/>
<path d="M83.6325 53.7283C83.7237 54.1573 83.7291 54.6046 83.6916 55.061C83.654 55.5173 83.5152 56.1298 83.327 56.932L82.1056 61.9446L79.36 62.5282L80.5931 57.7822C80.4735 57.8524 80.2681 57.9409 80.0107 57.9956C79.2814 58.1507 78.5312 57.9963 77.8029 57.5233C77.0746 57.0504 76.601 56.2991 76.3913 55.3123C76.1542 54.1969 76.315 53.2659 76.8647 52.4765C77.4234 51.73 78.2176 51.2473 79.2473 51.0284C80.2769 50.8096 81.1987 50.9275 82.0128 51.3822C82.8698 51.8278 83.3954 52.6129 83.6325 53.7283ZM80.9925 55.2311C81.1614 54.971 81.2263 54.6433 81.1442 54.2572C81.0622 53.8711 80.9125 53.589 80.6095 53.4293C80.3494 53.2603 80.0646 53.1864 79.7214 53.2593C79.4211 53.3231 79.1482 53.5157 78.9793 53.7758C78.8104 54.0359 78.7455 54.3635 78.8276 54.7497C78.9096 55.1358 79.1022 55.4087 79.3623 55.5776C79.6224 55.7465 79.9071 55.8205 80.2503 55.7476C80.5935 55.6746 80.8236 55.4912 80.9925 55.2311Z" fill="#E2001A"/>
<path d="M92.0491 59.7861L89.518 60.3241L87.7671 52.0871L85.8791 54.5958L85.3046 51.8931L87.1926 49.3843L89.7238 48.8463L92.0491 59.7861Z" fill="#E2001A"/>
<path d="M95.4485 49.1989C95.5306 49.585 95.4657 49.9127 95.2539 50.1819C95.0421 50.4511 94.7262 50.6528 94.383 50.7257C94.0398 50.7987 93.6692 50.7429 93.3662 50.5831C93.0632 50.4233 92.8707 50.1504 92.7886 49.7643L92.6062 48.9062C92.5242 48.5201 92.5891 48.1925 92.8009 47.9232C93.0127 47.654 93.3285 47.4524 93.6717 47.3794C94.0149 47.3065 94.3855 47.3622 94.6885 47.522C94.9915 47.6818 95.1841 47.9548 95.2661 48.3409L95.4485 49.1989ZM94.4098 49.3748L94.2456 48.6026C94.2 48.3881 94.0869 48.2777 93.8724 48.3233C93.6578 48.3688 93.5994 48.5158 93.645 48.7303L93.8091 49.5025C93.8547 49.717 93.9679 49.8275 94.1824 49.7819C94.3969 49.7363 94.4554 49.5894 94.4098 49.3748ZM97.8423 46.5378L96.155 53.5775L95.0396 53.8146L96.7268 46.7749L97.8423 46.5378ZM100.276 51.4461C100.358 51.8323 100.293 52.1599 100.081 52.4291C99.8692 52.6984 99.5533 52.9 99.2101 52.973C98.824 53.055 98.5055 53.0331 98.1933 52.8304C97.8903 52.6706 97.6978 52.3976 97.6157 52.0115L97.4334 51.1535C97.3513 50.7674 97.4162 50.4397 97.628 50.1705C97.8398 49.9013 98.1556 49.6996 98.4988 49.6267C98.885 49.5446 99.2126 49.6095 99.5156 49.7693C99.8186 49.9291 100.011 50.202 100.093 50.5881L100.276 51.4461ZM99.2369 51.6221L99.0727 50.8499C99.0271 50.6354 98.914 50.5249 98.6995 50.5705C98.485 50.6161 98.4265 50.763 98.4721 50.9775L98.6362 51.7498C98.6818 51.9643 98.795 52.0747 99.0095 52.0291C99.224 51.9836 99.2824 51.8366 99.2369 51.6221Z" fill="#E2001A"/>
<path d="M68.1158 33.2613C67.9152 32.3175 67.1076 31.6821 66.1519 31.6161C66.109 31.6253 66.0999 31.5824 66.1428 31.5732C67.2582 31.3362 67.9677 30.2437 67.7306 29.1283C67.4935 28.0129 66.401 27.3034 65.2856 27.5405C64.1702 27.7776 62.5399 28.1241 61.1762 28.4588C60.3273 28.6841 58.6542 29.0398 57.4867 29.2431C56.8432 29.3799 56.2774 28.8275 56.3734 28.2242C56.591 26.2947 56.9705 22.8062 56.9232 21.7401C56.8662 19.1516 52.841 19.2 52.4362 21.3039C52.1081 23.3465 50.4621 29.5255 47.5106 32.3052C47.1792 32.6447 47.013 33.1284 47.1133 33.6003L49.4961 45.0212C49.6328 45.6647 52.7551 47.0636 56.5733 46.252L65.2393 44.41L67.2557 43.9814C68.3711 43.7443 69.0805 42.6519 68.8435 41.5365C68.6428 40.5927 67.8352 39.9572 66.8796 39.8913C66.8366 39.9004 66.8275 39.8575 66.8704 39.8484C67.9859 39.6113 68.6953 38.5189 68.4582 37.4035C68.2576 36.4596 67.4499 35.8242 66.4943 35.7583C66.4514 35.7674 66.4423 35.7245 66.4852 35.7154C67.6435 35.4692 68.3529 34.3768 68.1158 33.2613Z" fill="#E2001A"/>
<path d="M43.6284 32.8164L39.2525 33.7465C38.3945 33.9289 37.8969 34.7521 38.0701 35.5672L40.514 47.0647C40.6964 47.9228 41.5196 48.4204 42.3347 48.2471L46.6677 47.3261C47.5258 47.1437 48.0234 46.3205 47.8501 45.5054L45.4063 34.0079C45.2759 33.1836 44.4436 32.6431 43.6284 32.8164ZM44.0667 45.637C43.4232 45.7738 42.799 45.3684 42.6622 44.7249C42.5254 44.0814 42.9308 43.4571 43.5743 43.3203C44.2178 43.1835 44.8421 43.5889 44.9789 44.2325C45.1156 44.876 44.7103 45.5002 44.0667 45.637Z" fill="#E2001A"/>
<path d="M56.1006 96.9763L77.5941 92.4077" stroke="#E2001A" stroke-width="1.9269" stroke-miterlimit="10" stroke-linecap="round" stroke-linejoin="round"/>
</svg>
