<svg width="290" height="84" viewBox="0 0 290 84" fill="none" xmlns="http://www.w3.org/2000/svg">
<rect x="1" y="1" width="288" height="82" rx="19" fill="white" stroke="#96D0F1" stroke-width="2" stroke-linecap="round" stroke-linejoin="round" stroke-dasharray="8 8"/>
<path d="M75.5234 26H74.2274V18.62H70.7714V26H69.4754V17.456H75.5234V26ZM82.4045 22.952C82.4045 23.512 82.3525 23.98 82.2485 24.356C82.1445 24.732 81.9565 25.064 81.6845 25.352C81.2205 25.832 80.6125 26.072 79.8605 26.072C79.1165 26.072 78.5125 25.832 78.0485 25.352C77.7765 25.064 77.5885 24.732 77.4845 24.356C77.3805 23.98 77.3285 23.512 77.3285 22.952C77.3285 22.4 77.3805 21.936 77.4845 21.56C77.5885 21.176 77.7765 20.844 78.0485 20.564C78.5125 20.084 79.1165 19.844 79.8605 19.844C80.6125 19.844 81.2205 20.084 81.6845 20.564C81.9565 20.844 82.1445 21.176 82.2485 21.56C82.3525 21.936 82.4045 22.4 82.4045 22.952ZM80.7605 24.62C81.0405 24.34 81.1805 23.784 81.1805 22.952C81.1805 22.12 81.0405 21.564 80.7605 21.284C80.5285 21.052 80.2285 20.936 79.8605 20.936C79.5005 20.936 79.2045 21.052 78.9725 21.284C78.6925 21.564 78.5525 22.12 78.5525 22.952C78.5525 23.784 78.6925 24.34 78.9725 24.62C79.2125 24.86 79.5085 24.98 79.8605 24.98C80.2205 24.98 80.5205 24.86 80.7605 24.62ZM88.4658 25.22C88.1538 25.532 87.8498 25.752 87.5538 25.88C87.2578 26.008 86.8978 26.072 86.4738 26.072C85.6098 26.072 84.9378 25.8 84.4578 25.256C83.9858 24.704 83.7498 23.928 83.7498 22.928C83.7498 21.96 83.9898 21.204 84.4698 20.66C84.9498 20.116 85.6178 19.844 86.4738 19.844C86.8978 19.844 87.2538 19.912 87.5418 20.048C87.8298 20.176 88.1378 20.396 88.4658 20.708L87.6498 21.5C87.4418 21.292 87.2498 21.144 87.0738 21.056C86.9058 20.96 86.7018 20.912 86.4618 20.912C86.0138 20.912 85.6658 21.052 85.4178 21.332C85.1698 21.604 85.0258 21.98 84.9858 22.46H87.1578V23.324H84.9738C85.0058 23.836 85.1418 24.244 85.3818 24.548C85.6298 24.852 85.9898 25.004 86.4618 25.004C86.7098 25.004 86.9178 24.96 87.0858 24.872C87.2538 24.776 87.4418 24.624 87.6498 24.416L88.4658 25.22ZM91.6021 20.984V21.956C91.6021 23.116 91.4101 24.108 91.0261 24.932H93.3181V20.984H91.6021ZM90.4381 19.916H94.5421V24.932H95.3821V27.56H94.2061V26H90.2581V27.56H89.0941V24.932H89.7421C89.9741 24.476 90.1461 24 90.2581 23.504C90.3781 23 90.4381 22.32 90.4381 21.464V19.916ZM101.578 26H100.354V23.408H97.9304V26H96.7064V19.916H97.9304V22.34H100.354V19.916H101.578V26ZM108.003 26H106.803V25.448C106.579 25.672 106.343 25.832 106.095 25.928C105.855 26.024 105.551 26.072 105.183 26.072C104.463 26.072 103.919 25.888 103.551 25.52C103.231 25.184 103.071 24.748 103.071 24.212C103.071 23.684 103.251 23.26 103.611 22.94C103.979 22.62 104.503 22.46 105.183 22.46H106.779V22.028C106.779 21.636 106.675 21.348 106.467 21.164C106.259 20.98 105.919 20.888 105.447 20.888C105.127 20.888 104.867 20.936 104.667 21.032C104.475 21.12 104.291 21.272 104.115 21.488L103.323 20.732C103.603 20.404 103.903 20.176 104.223 20.048C104.551 19.912 104.975 19.844 105.495 19.844C107.167 19.844 108.003 20.54 108.003 21.932V26ZM106.779 23.804V23.312H105.375C104.631 23.312 104.259 23.604 104.259 24.188C104.259 24.764 104.643 25.052 105.411 25.052C105.899 25.052 106.267 24.936 106.515 24.704C106.691 24.536 106.779 24.236 106.779 23.804ZM114.762 26H113.538V23.408H111.114V26H109.89V19.916H111.114V22.34H113.538V19.916H114.762V26ZM121.582 26H120.358V23.408H117.934V26H116.71V19.916H117.934V22.34H120.358V19.916H121.582V26ZM126.747 22.748V20.9H125.319C125.007 20.9 124.763 20.984 124.587 21.152C124.411 21.32 124.323 21.548 124.323 21.836C124.323 22.124 124.411 22.348 124.587 22.508C124.763 22.668 125.007 22.748 125.319 22.748H126.747ZM124.467 26H123.063L124.383 23.504C123.991 23.392 123.683 23.184 123.459 22.88C123.235 22.576 123.123 22.208 123.123 21.776C123.123 21.224 123.303 20.776 123.663 20.432C124.031 20.088 124.507 19.916 125.091 19.916H127.959V26H126.735V23.732H125.619L124.467 26ZM137.192 25.208C136.648 25.784 135.98 26.072 135.188 26.072C134.828 26.072 134.492 26.016 134.18 25.904C133.868 25.784 133.58 25.608 133.316 25.376C133.06 25.136 132.856 24.812 132.704 24.404C132.552 23.988 132.476 23.504 132.476 22.952C132.476 22.4 132.552 21.92 132.704 21.512C132.856 21.096 133.06 20.772 133.316 20.54C133.58 20.3 133.868 20.124 134.18 20.012C134.492 19.9 134.828 19.844 135.188 19.844C135.988 19.844 136.656 20.128 137.192 20.696L136.352 21.512C136.16 21.304 135.976 21.156 135.8 21.068C135.632 20.98 135.428 20.936 135.188 20.936C134.708 20.936 134.332 21.116 134.06 21.476C133.82 21.78 133.7 22.272 133.7 22.952C133.7 23.64 133.82 24.136 134.06 24.44C134.332 24.8 134.708 24.98 135.188 24.98C135.428 24.98 135.632 24.936 135.8 24.848C135.976 24.76 136.16 24.612 136.352 24.404L137.192 25.208ZM143.209 19.916L140.521 27.212C140.233 28.012 139.669 28.412 138.829 28.412H138.337V27.308H138.649C138.905 27.308 139.093 27.264 139.213 27.176C139.333 27.096 139.437 26.928 139.525 26.672L139.861 25.712L137.725 19.916H139.033L140.485 24.212L141.901 19.916H143.209ZM149.178 26H147.714L146.43 23.924L145.146 26H143.67L145.758 22.892L143.754 19.916H145.23L146.43 21.896L147.63 19.916H149.094L147.09 22.892L149.178 26ZM154.967 22.952C154.967 23.512 154.915 23.98 154.811 24.356C154.707 24.732 154.519 25.064 154.247 25.352C153.783 25.832 153.175 26.072 152.423 26.072C151.679 26.072 151.075 25.832 150.611 25.352C150.339 25.064 150.151 24.732 150.047 24.356C149.943 23.98 149.891 23.512 149.891 22.952C149.891 22.4 149.943 21.936 150.047 21.56C150.151 21.176 150.339 20.844 150.611 20.564C151.075 20.084 151.679 19.844 152.423 19.844C153.175 19.844 153.783 20.084 154.247 20.564C154.519 20.844 154.707 21.176 154.811 21.56C154.915 21.936 154.967 22.4 154.967 22.952ZM153.323 24.62C153.603 24.34 153.743 23.784 153.743 22.952C153.743 22.12 153.603 21.564 153.323 21.284C153.091 21.052 152.791 20.936 152.423 20.936C152.063 20.936 151.767 21.052 151.535 21.284C151.255 21.564 151.115 22.12 151.115 22.952C151.115 23.784 151.255 24.34 151.535 24.62C151.775 24.86 152.071 24.98 152.423 24.98C152.783 24.98 153.083 24.86 153.323 24.62ZM160.62 20.984H157.896V26H156.672V19.916H160.62V20.984ZM166.463 22.952C166.463 23.512 166.411 23.98 166.307 24.356C166.203 24.732 166.015 25.064 165.743 25.352C165.279 25.832 164.671 26.072 163.919 26.072C163.175 26.072 162.571 25.832 162.107 25.352C161.835 25.064 161.647 24.732 161.543 24.356C161.439 23.98 161.387 23.512 161.387 22.952C161.387 22.4 161.439 21.936 161.543 21.56C161.647 21.176 161.835 20.844 162.107 20.564C162.571 20.084 163.175 19.844 163.919 19.844C164.671 19.844 165.279 20.084 165.743 20.564C166.015 20.844 166.203 21.176 166.307 21.56C166.411 21.936 166.463 22.4 166.463 22.952ZM164.819 24.62C165.099 24.34 165.239 23.784 165.239 22.952C165.239 22.12 165.099 21.564 164.819 21.284C164.587 21.052 164.287 20.936 163.919 20.936C163.559 20.936 163.263 21.052 163.031 21.284C162.751 21.564 162.611 22.12 162.611 22.952C162.611 23.784 162.751 24.34 163.031 24.62C163.271 24.86 163.567 24.98 163.919 24.98C164.279 24.98 164.579 24.86 164.819 24.62ZM175.983 22.952C175.983 24.208 175.755 25.068 175.299 25.532C174.939 25.892 174.447 26.072 173.823 26.072C173.143 26.072 172.611 25.84 172.227 25.376V28.46H171.003V19.916H172.203V20.564C172.603 20.084 173.139 19.844 173.811 19.844C174.443 19.844 174.939 20.024 175.299 20.384C175.755 20.848 175.983 21.704 175.983 22.952ZM174.711 23.732C174.743 23.516 174.759 23.256 174.759 22.952C174.759 22.648 174.743 22.388 174.711 22.172C174.687 21.956 174.631 21.748 174.543 21.548C174.463 21.348 174.335 21.196 174.159 21.092C173.983 20.988 173.763 20.936 173.499 20.936C173.227 20.936 173.003 20.988 172.827 21.092C172.651 21.196 172.519 21.348 172.431 21.548C172.351 21.748 172.295 21.956 172.263 22.172C172.239 22.388 172.227 22.648 172.227 22.952C172.227 23.256 172.239 23.516 172.263 23.732C172.295 23.948 172.351 24.16 172.431 24.368C172.519 24.568 172.651 24.72 172.827 24.824C173.011 24.928 173.235 24.98 173.499 24.98C173.763 24.98 173.983 24.928 174.159 24.824C174.335 24.72 174.463 24.568 174.543 24.368C174.631 24.16 174.687 23.948 174.711 23.732ZM182.112 26H180.912V25.448C180.688 25.672 180.452 25.832 180.204 25.928C179.964 26.024 179.66 26.072 179.292 26.072C178.572 26.072 178.028 25.888 177.66 25.52C177.34 25.184 177.18 24.748 177.18 24.212C177.18 23.684 177.36 23.26 177.72 22.94C178.088 22.62 178.612 22.46 179.292 22.46H180.888V22.028C180.888 21.636 180.784 21.348 180.576 21.164C180.368 20.98 180.028 20.888 179.556 20.888C179.236 20.888 178.976 20.936 178.776 21.032C178.584 21.12 178.4 21.272 178.224 21.488L177.432 20.732C177.712 20.404 178.012 20.176 178.332 20.048C178.66 19.912 179.084 19.844 179.604 19.844C181.276 19.844 182.112 20.54 182.112 21.932V26ZM180.888 23.804V23.312H179.484C178.74 23.312 178.368 23.604 178.368 24.188C178.368 24.764 178.752 25.052 179.52 25.052C180.008 25.052 180.376 24.936 180.624 24.704C180.8 24.536 180.888 24.236 180.888 23.804ZM189.735 27.56H188.559V26H183.999V19.916H185.223V24.932H187.647V19.916H188.871V24.932H189.735V27.56ZM192.266 26H191.042V19.916H192.266V26ZM192.302 18.716H191.006V17.42H192.302V18.716ZM198.994 22.952C198.994 23.512 198.942 23.98 198.838 24.356C198.734 24.732 198.546 25.064 198.274 25.352C197.81 25.832 197.202 26.072 196.45 26.072C195.706 26.072 195.102 25.832 194.638 25.352C194.366 25.064 194.178 24.732 194.074 24.356C193.97 23.98 193.918 23.512 193.918 22.952C193.918 22.4 193.97 21.936 194.074 21.56C194.178 21.176 194.366 20.844 194.638 20.564C195.102 20.084 195.706 19.844 196.45 19.844C197.202 19.844 197.81 20.084 198.274 20.564C198.546 20.844 198.734 21.176 198.838 21.56C198.942 21.936 198.994 22.4 198.994 22.952ZM197.35 24.62C197.63 24.34 197.77 23.784 197.77 22.952C197.77 22.12 197.63 21.564 197.35 21.284C197.118 21.052 196.818 20.936 196.45 20.936C196.09 20.936 195.794 21.052 195.562 21.284C195.282 21.564 195.142 22.12 195.142 22.952C195.142 23.784 195.282 24.34 195.562 24.62C195.802 24.86 196.098 24.98 196.45 24.98C196.81 24.98 197.11 24.86 197.35 24.62ZM205.524 26H204.3V23.408H201.876V26H200.652V19.916H201.876V22.34H204.3V19.916H205.524V26ZM212.009 19.916L209.321 27.212C209.033 28.012 208.469 28.412 207.629 28.412H207.137V27.308H207.449C207.705 27.308 207.893 27.264 208.013 27.176C208.133 27.096 208.237 26.928 208.325 26.672L208.661 25.712L206.525 19.916H207.833L209.285 24.212L210.701 19.916H212.009ZM220.133 24.236C220.133 24.78 219.905 25.22 219.449 25.556C219.001 25.892 218.457 26.06 217.817 26.06C216.745 26.06 215.893 25.772 215.261 25.196L215.993 24.428C216.441 24.828 216.989 25.028 217.637 25.028C217.981 25.028 218.281 24.952 218.537 24.8C218.801 24.64 218.933 24.428 218.933 24.164C218.933 23.62 218.581 23.348 217.877 23.348H216.977V22.436H217.865C218.161 22.436 218.397 22.364 218.573 22.22C218.749 22.076 218.837 21.876 218.837 21.62C218.837 21.372 218.729 21.184 218.513 21.056C218.305 20.92 218.017 20.852 217.649 20.852C217.097 20.852 216.609 21.004 216.185 21.308L215.501 20.528C216.093 20.072 216.873 19.844 217.841 19.844C218.465 19.844 218.985 19.992 219.401 20.288C219.825 20.576 220.037 20.976 220.037 21.488C220.037 21.784 219.957 22.052 219.797 22.292C219.637 22.532 219.421 22.708 219.149 22.82C219.445 22.932 219.681 23.116 219.857 23.372C220.041 23.62 220.133 23.908 220.133 24.236ZM229.547 24.284C229.547 24.812 229.383 25.232 229.055 25.544C228.727 25.848 228.279 26 227.711 26H224.699V19.916H227.615C228.175 19.916 228.619 20.064 228.947 20.36C229.283 20.656 229.451 21.052 229.451 21.548C229.451 22.156 229.167 22.592 228.599 22.856C229.231 23.144 229.547 23.62 229.547 24.284ZM228.251 21.632C228.251 21.392 228.171 21.208 228.011 21.08C227.859 20.944 227.639 20.876 227.351 20.876H225.911V22.412H227.351C227.951 22.412 228.251 22.152 228.251 21.632ZM228.347 24.2C228.347 23.936 228.263 23.732 228.095 23.588C227.935 23.436 227.711 23.36 227.423 23.36H225.911V25.04H227.423C227.711 25.04 227.935 24.964 228.095 24.812C228.263 24.66 228.347 24.456 228.347 24.2ZM235.967 22.952C235.967 23.512 235.915 23.98 235.811 24.356C235.707 24.732 235.519 25.064 235.247 25.352C234.783 25.832 234.175 26.072 233.423 26.072C232.679 26.072 232.075 25.832 231.611 25.352C231.339 25.064 231.151 24.732 231.047 24.356C230.943 23.98 230.891 23.512 230.891 22.952C230.891 22.4 230.943 21.936 231.047 21.56C231.151 21.176 231.339 20.844 231.611 20.564C232.075 20.084 232.679 19.844 233.423 19.844C234.175 19.844 234.783 20.084 235.247 20.564C235.519 20.844 235.707 21.176 235.811 21.56C235.915 21.936 235.967 22.4 235.967 22.952ZM234.323 24.62C234.603 24.34 234.743 23.784 234.743 22.952C234.743 22.12 234.603 21.564 234.323 21.284C234.091 21.052 233.791 20.936 233.423 20.936C233.063 20.936 232.767 21.052 232.535 21.284C232.255 21.564 232.115 22.12 232.115 22.952C232.115 23.784 232.255 24.34 232.535 24.62C232.775 24.86 233.071 24.98 233.423 24.98C233.783 24.98 234.083 24.86 234.323 24.62ZM242.106 26H240.882V20.984H239.118V22.748C239.118 23.38 239.074 23.912 238.986 24.344C238.898 24.776 238.766 25.112 238.59 25.352C238.414 25.584 238.21 25.752 237.978 25.856C237.754 25.952 237.486 26 237.174 26H236.598V24.92H236.79C236.918 24.92 237.026 24.912 237.114 24.896C237.202 24.872 237.302 24.816 237.414 24.728C237.534 24.632 237.626 24.504 237.69 24.344C237.762 24.176 237.822 23.932 237.87 23.612C237.918 23.284 237.942 22.896 237.942 22.448V19.916H242.106V26ZM248.846 22.952C248.846 23.512 248.794 23.98 248.69 24.356C248.586 24.732 248.398 25.064 248.126 25.352C247.662 25.832 247.054 26.072 246.302 26.072C245.558 26.072 244.954 25.832 244.49 25.352C244.218 25.064 244.03 24.732 243.926 24.356C243.822 23.98 243.77 23.512 243.77 22.952C243.77 22.4 243.822 21.936 243.926 21.56C244.03 21.176 244.218 20.844 244.49 20.564C244.954 20.084 245.558 19.844 246.302 19.844C247.054 19.844 247.662 20.084 248.126 20.564C248.398 20.844 248.586 21.176 248.69 21.56C248.794 21.936 248.846 22.4 248.846 22.952ZM247.202 24.62C247.482 24.34 247.622 23.784 247.622 22.952C247.622 22.12 247.482 21.564 247.202 21.284C246.97 21.052 246.67 20.936 246.302 20.936C245.942 20.936 245.646 21.052 245.414 21.284C245.134 21.564 244.994 22.12 244.994 22.952C244.994 23.784 245.134 24.34 245.414 24.62C245.654 24.86 245.95 24.98 246.302 24.98C246.662 24.98 246.962 24.86 247.202 24.62ZM254.499 20.984H251.775V26H250.551V19.916H254.499V20.984ZM260.665 26H259.441V21.812L256.837 26H255.613V19.916H256.837V24.044L259.441 19.916H260.665V26ZM268.657 26H267.433V22.1L266.029 24.884H265.261L263.833 22.1V26H262.609V19.916H263.821L265.645 23.54L267.457 19.916H268.657V26ZM87.8169 34.984V35.956C87.8169 37.116 87.6249 38.108 87.2409 38.932H89.5329V34.984H87.8169ZM86.6529 33.916H90.7569V38.932H91.5969V41.56H90.4209V40H86.4729V41.56H85.3089V38.932H85.9569C86.1889 38.476 86.3609 38 86.4729 37.504C86.5929 37 86.6529 36.32 86.6529 35.464V33.916ZM97.5334 36.952C97.5334 37.512 97.4814 37.98 97.3774 38.356C97.2734 38.732 97.0854 39.064 96.8134 39.352C96.3494 39.832 95.7414 40.072 94.9894 40.072C94.2454 40.072 93.6414 39.832 93.1774 39.352C92.9054 39.064 92.7174 38.732 92.6134 38.356C92.5094 37.98 92.4574 37.512 92.4574 36.952C92.4574 36.4 92.5094 35.936 92.6134 35.56C92.7174 35.176 92.9054 34.844 93.1774 34.564C93.6414 34.084 94.2454 33.844 94.9894 33.844C95.7414 33.844 96.3494 34.084 96.8134 34.564C97.0854 34.844 97.2734 35.176 97.3774 35.56C97.4814 35.936 97.5334 36.4 97.5334 36.952ZM95.8894 38.62C96.1694 38.34 96.3094 37.784 96.3094 36.952C96.3094 36.12 96.1694 35.564 95.8894 35.284C95.6574 35.052 95.3574 34.936 94.9894 34.936C94.6294 34.936 94.3334 35.052 94.1014 35.284C93.8214 35.564 93.6814 36.12 93.6814 36.952C93.6814 37.784 93.8214 38.34 94.1014 38.62C94.3414 38.86 94.6374 38.98 94.9894 38.98C95.3494 38.98 95.6494 38.86 95.8894 38.62ZM104.063 40H102.839V34.984H100.415V40H99.1908V33.916H104.063V40ZM110.74 36.952C110.74 37.512 110.688 37.98 110.584 38.356C110.48 38.732 110.292 39.064 110.02 39.352C109.556 39.832 108.948 40.072 108.196 40.072C107.452 40.072 106.848 39.832 106.384 39.352C106.112 39.064 105.924 38.732 105.82 38.356C105.716 37.98 105.664 37.512 105.664 36.952C105.664 36.4 105.716 35.936 105.82 35.56C105.924 35.176 106.112 34.844 106.384 34.564C106.848 34.084 107.452 33.844 108.196 33.844C108.948 33.844 109.556 34.084 110.02 34.564C110.292 34.844 110.48 35.176 110.584 35.56C110.688 35.936 110.74 36.4 110.74 36.952ZM109.096 38.62C109.376 38.34 109.516 37.784 109.516 36.952C109.516 36.12 109.376 35.564 109.096 35.284C108.864 35.052 108.564 34.936 108.196 34.936C107.836 34.936 107.54 35.052 107.308 35.284C107.028 35.564 106.888 36.12 106.888 36.952C106.888 37.784 107.028 38.34 107.308 38.62C107.548 38.86 107.844 38.98 108.196 38.98C108.556 38.98 108.856 38.86 109.096 38.62ZM118.446 40H117.222V36.1L115.818 38.884H115.05L113.622 36.1V40H112.398V33.916H113.61L115.434 37.54L117.246 33.916H118.446V40ZM124.878 40H123.678V39.448C123.454 39.672 123.218 39.832 122.97 39.928C122.73 40.024 122.426 40.072 122.058 40.072C121.338 40.072 120.794 39.888 120.426 39.52C120.106 39.184 119.946 38.748 119.946 38.212C119.946 37.684 120.126 37.26 120.486 36.94C120.854 36.62 121.378 36.46 122.058 36.46H123.654V36.028C123.654 35.636 123.55 35.348 123.342 35.164C123.134 34.98 122.794 34.888 122.322 34.888C122.002 34.888 121.742 34.936 121.542 35.032C121.35 35.12 121.166 35.272 120.99 35.488L120.198 34.732C120.478 34.404 120.778 34.176 121.098 34.048C121.426 33.912 121.85 33.844 122.37 33.844C124.042 33.844 124.878 34.54 124.878 35.932V40ZM123.654 37.804V37.312H122.25C121.506 37.312 121.134 37.604 121.134 38.188C121.134 38.764 121.518 39.052 122.286 39.052C122.774 39.052 123.142 38.936 123.39 38.704C123.566 38.536 123.654 38.236 123.654 37.804ZM130.761 34.984H128.037V40H126.813V33.916H130.761V34.984ZM136.233 40H135.033V39.448C134.809 39.672 134.573 39.832 134.325 39.928C134.085 40.024 133.781 40.072 133.413 40.072C132.693 40.072 132.149 39.888 131.781 39.52C131.461 39.184 131.301 38.748 131.301 38.212C131.301 37.684 131.481 37.26 131.841 36.94C132.209 36.62 132.733 36.46 133.413 36.46H135.009V36.028C135.009 35.636 134.905 35.348 134.697 35.164C134.489 34.98 134.149 34.888 133.677 34.888C133.357 34.888 133.097 34.936 132.897 35.032C132.705 35.12 132.521 35.272 132.345 35.488L131.553 34.732C131.833 34.404 132.133 34.176 132.453 34.048C132.781 33.912 133.205 33.844 133.725 33.844C135.397 33.844 136.233 34.54 136.233 35.932V40ZM135.009 37.804V37.312H133.605C132.861 37.312 132.489 37.604 132.489 38.188C132.489 38.764 132.873 39.052 133.641 39.052C134.129 39.052 134.497 38.936 134.745 38.704C134.921 38.536 135.009 38.236 135.009 37.804ZM142.524 39.22C142.212 39.532 141.908 39.752 141.612 39.88C141.316 40.008 140.956 40.072 140.532 40.072C139.668 40.072 138.996 39.8 138.516 39.256C138.044 38.704 137.808 37.928 137.808 36.928C137.808 35.96 138.048 35.204 138.528 34.66C139.008 34.116 139.676 33.844 140.532 33.844C140.956 33.844 141.312 33.912 141.6 34.048C141.888 34.176 142.196 34.396 142.524 34.708L141.708 35.5C141.5 35.292 141.308 35.144 141.132 35.056C140.964 34.96 140.76 34.912 140.52 34.912C140.072 34.912 139.724 35.052 139.476 35.332C139.228 35.604 139.084 35.98 139.044 36.46H141.216V37.324H139.032C139.064 37.836 139.2 38.244 139.44 38.548C139.688 38.852 140.048 39.004 140.52 39.004C140.768 39.004 140.976 38.96 141.144 38.872C141.312 38.776 141.5 38.624 141.708 38.416L142.524 39.22ZM151.699 40H150.475V34.984H148.051V40H146.827V33.916H151.699V40ZM154.813 40H153.589V33.916H154.813V40ZM154.849 32.716H153.553V31.42H154.849V32.716ZM158.469 34.984V35.956C158.469 37.116 158.277 38.108 157.893 38.932H160.185V34.984H158.469ZM157.305 33.916H161.409V38.932H162.249V41.56H161.073V40H157.125V41.56H155.961V38.932H156.609C156.841 38.476 157.013 38 157.125 37.504C157.245 37 157.305 36.32 157.305 35.464V33.916ZM168.422 38.284C168.422 38.812 168.258 39.232 167.93 39.544C167.602 39.848 167.154 40 166.586 40H163.574V33.916H166.49C167.05 33.916 167.494 34.064 167.822 34.36C168.158 34.656 168.326 35.052 168.326 35.548C168.326 36.156 168.042 36.592 167.474 36.856C168.106 37.144 168.422 37.62 168.422 38.284ZM167.126 35.632C167.126 35.392 167.046 35.208 166.886 35.08C166.734 34.944 166.514 34.876 166.226 34.876H164.786V36.412H166.226C166.826 36.412 167.126 36.152 167.126 35.632ZM167.222 38.2C167.222 37.936 167.138 37.732 166.97 37.588C166.81 37.436 166.586 37.36 166.298 37.36H164.786V39.04H166.298C166.586 39.04 166.81 38.964 166.97 38.812C167.138 38.66 167.222 38.456 167.222 38.2ZM175.165 40H173.941V35.812L171.337 40H170.113V33.916H171.337V38.044L173.941 33.916H175.165V40ZM185.761 41.56H184.597V40H177.109V33.916H178.333V38.932H180.397V33.916H181.621V38.932H183.673V33.916H184.897V38.932H185.761V41.56ZM192.122 40H190.898V35.812L188.294 40H187.07V33.916H188.294V38.044L190.898 33.916H192.122V40ZM198.183 34.984H196.323V40H195.099V34.984H193.167V33.916H198.183V34.984ZM204.344 40H203.12V35.812L200.516 40H199.292V33.916H200.516V38.044L203.12 33.916H204.344V40ZM213.575 39.208C213.031 39.784 212.363 40.072 211.571 40.072C211.211 40.072 210.875 40.016 210.563 39.904C210.251 39.784 209.963 39.608 209.699 39.376C209.443 39.136 209.239 38.812 209.087 38.404C208.935 37.988 208.859 37.504 208.859 36.952C208.859 36.4 208.935 35.92 209.087 35.512C209.239 35.096 209.443 34.772 209.699 34.54C209.963 34.3 210.251 34.124 210.563 34.012C210.875 33.9 211.211 33.844 211.571 33.844C212.371 33.844 213.039 34.128 213.575 34.696L212.735 35.512C212.543 35.304 212.359 35.156 212.183 35.068C212.015 34.98 211.811 34.936 211.571 34.936C211.091 34.936 210.715 35.116 210.443 35.476C210.203 35.78 210.083 36.272 210.083 36.952C210.083 37.64 210.203 38.136 210.443 38.44C210.715 38.8 211.091 38.98 211.571 38.98C211.811 38.98 212.015 38.936 212.183 38.848C212.359 38.76 212.543 38.612 212.735 38.404L213.575 39.208ZM221.043 40H219.819V36.1L218.415 38.884H217.647L216.219 36.1V40H214.995V33.916H216.207L218.031 37.54L219.843 33.916H221.043V40ZM227.475 40H226.275V39.448C226.051 39.672 225.815 39.832 225.567 39.928C225.327 40.024 225.023 40.072 224.655 40.072C223.935 40.072 223.391 39.888 223.023 39.52C222.703 39.184 222.543 38.748 222.543 38.212C222.543 37.684 222.723 37.26 223.083 36.94C223.451 36.62 223.975 36.46 224.655 36.46H226.251V36.028C226.251 35.636 226.147 35.348 225.939 35.164C225.731 34.98 225.391 34.888 224.919 34.888C224.599 34.888 224.339 34.936 224.139 35.032C223.947 35.12 223.763 35.272 223.587 35.488L222.795 34.732C223.075 34.404 223.375 34.176 223.695 34.048C224.023 33.912 224.447 33.844 224.967 33.844C226.639 33.844 227.475 34.54 227.475 35.932V40ZM226.251 37.804V37.312H224.847C224.103 37.312 223.731 37.604 223.731 38.188C223.731 38.764 224.115 39.052 224.883 39.052C225.371 39.052 225.739 38.936 225.987 38.704C226.163 38.536 226.251 38.236 226.251 37.804ZM230.623 40H229.387V33.916H230.623V40ZM234.595 40H233.095L230.635 36.832L232.951 33.916H234.415L231.991 36.772L234.595 40ZM240.115 36.952C240.115 37.512 240.063 37.98 239.959 38.356C239.855 38.732 239.667 39.064 239.395 39.352C238.931 39.832 238.323 40.072 237.571 40.072C236.827 40.072 236.223 39.832 235.759 39.352C235.487 39.064 235.299 38.732 235.195 38.356C235.091 37.98 235.039 37.512 235.039 36.952C235.039 36.4 235.091 35.936 235.195 35.56C235.299 35.176 235.487 34.844 235.759 34.564C236.223 34.084 236.827 33.844 237.571 33.844C238.323 33.844 238.931 34.084 239.395 34.564C239.667 34.844 239.855 35.176 239.959 35.56C240.063 35.936 240.115 36.4 240.115 36.952ZM238.471 38.62C238.751 38.34 238.891 37.784 238.891 36.952C238.891 36.12 238.751 35.564 238.471 35.284C238.239 35.052 237.939 34.936 237.571 34.936C237.211 34.936 236.915 35.052 236.683 35.284C236.403 35.564 236.263 36.12 236.263 36.952C236.263 37.784 236.403 38.34 236.683 38.62C236.923 38.86 237.219 38.98 237.571 38.98C237.931 38.98 238.231 38.86 238.471 38.62ZM246.621 38.284C246.621 38.812 246.457 39.232 246.129 39.544C245.801 39.848 245.353 40 244.785 40H241.773V33.916H244.689C245.249 33.916 245.693 34.064 246.021 34.36C246.357 34.656 246.525 35.052 246.525 35.548C246.525 36.156 246.241 36.592 245.673 36.856C246.305 37.144 246.621 37.62 246.621 38.284ZM245.325 35.632C245.325 35.392 245.245 35.208 245.085 35.08C244.933 34.944 244.713 34.876 244.425 34.876H242.985V36.412H244.425C245.025 36.412 245.325 36.152 245.325 35.632ZM245.421 38.2C245.421 37.936 245.337 37.732 245.169 37.588C245.009 37.436 244.785 37.36 244.497 37.36H242.985V39.04H244.497C244.785 39.04 245.009 38.964 245.169 38.812C245.337 38.66 245.421 38.456 245.421 38.2ZM252.791 33.916L250.103 41.212C249.815 42.012 249.251 42.412 248.411 42.412H247.919V41.308H248.231C248.487 41.308 248.675 41.264 248.795 41.176C248.915 41.096 249.019 40.928 249.107 40.672L249.443 39.712L247.307 33.916H248.615L250.067 38.212L251.483 33.916H252.791ZM81.5862 54H80.3622V48.984H77.9382V54H76.7142V47.916H81.5862V54ZM88.4559 50.952C88.4559 52.208 88.2279 53.068 87.7719 53.532C87.4119 53.892 86.9199 54.072 86.2959 54.072C85.6159 54.072 85.0839 53.84 84.6999 53.376V56.46H83.4759V47.916H84.6759V48.564C85.0759 48.084 85.6119 47.844 86.2839 47.844C86.9159 47.844 87.4119 48.024 87.7719 48.384C88.2279 48.848 88.4559 49.704 88.4559 50.952ZM87.1839 51.732C87.2159 51.516 87.2319 51.256 87.2319 50.952C87.2319 50.648 87.2159 50.388 87.1839 50.172C87.1599 49.956 87.1039 49.748 87.0159 49.548C86.9359 49.348 86.8079 49.196 86.6319 49.092C86.4559 48.988 86.2359 48.936 85.9719 48.936C85.6999 48.936 85.4759 48.988 85.2999 49.092C85.1239 49.196 84.9919 49.348 84.9039 49.548C84.8239 49.748 84.7679 49.956 84.7359 50.172C84.7119 50.388 84.6999 50.648 84.6999 50.952C84.6999 51.256 84.7119 51.516 84.7359 51.732C84.7679 51.948 84.8239 52.16 84.9039 52.368C84.9919 52.568 85.1239 52.72 85.2999 52.824C85.4839 52.928 85.7079 52.98 85.9719 52.98C86.2359 52.98 86.4559 52.928 86.6319 52.824C86.8079 52.72 86.9359 52.568 87.0159 52.368C87.1039 52.16 87.1599 51.948 87.1839 51.732ZM95.1607 54H93.9367V49.812L91.3327 54H90.1087V47.916H91.3327V52.044L93.9367 47.916H95.1607V54ZM101.953 52.284C101.953 52.812 101.789 53.232 101.461 53.544C101.133 53.848 100.685 54 100.117 54H97.1048V47.916H100.021C100.581 47.916 101.025 48.064 101.353 48.36C101.689 48.656 101.857 49.052 101.857 49.548C101.857 50.156 101.573 50.592 101.005 50.856C101.637 51.144 101.953 51.62 101.953 52.284ZM100.657 49.632C100.657 49.392 100.577 49.208 100.417 49.08C100.265 48.944 100.045 48.876 99.7568 48.876H98.3168V50.412H99.7568C100.357 50.412 100.657 50.152 100.657 49.632ZM100.753 52.2C100.753 51.936 100.669 51.732 100.501 51.588C100.341 51.436 100.117 51.36 99.8288 51.36H98.3168V53.04H99.8288C100.117 53.04 100.341 52.964 100.501 52.812C100.669 52.66 100.753 52.456 100.753 52.2ZM108.12 54H106.92V53.448C106.696 53.672 106.46 53.832 106.212 53.928C105.972 54.024 105.668 54.072 105.3 54.072C104.58 54.072 104.036 53.888 103.668 53.52C103.348 53.184 103.188 52.748 103.188 52.212C103.188 51.684 103.368 51.26 103.728 50.94C104.096 50.62 104.62 50.46 105.3 50.46H106.896V50.028C106.896 49.636 106.792 49.348 106.584 49.164C106.376 48.98 106.036 48.888 105.564 48.888C105.244 48.888 104.984 48.936 104.784 49.032C104.592 49.12 104.408 49.272 104.232 49.488L103.44 48.732C103.72 48.404 104.02 48.176 104.34 48.048C104.668 47.912 105.092 47.844 105.612 47.844C107.284 47.844 108.12 48.54 108.12 49.932V54ZM106.896 51.804V51.312H105.492C104.748 51.312 104.376 51.604 104.376 52.188C104.376 52.764 104.76 53.052 105.528 53.052C106.016 53.052 106.384 52.936 106.632 52.704C106.808 52.536 106.896 52.236 106.896 51.804ZM112.359 52.968C112.743 52.968 113.043 52.848 113.259 52.608C113.515 52.304 113.643 51.764 113.643 50.988C113.643 50.18 113.519 49.636 113.271 49.356C113.039 49.1 112.735 48.972 112.359 48.972C111.967 48.972 111.659 49.1 111.435 49.356C111.163 49.668 111.027 50.204 111.027 50.964C111.027 51.732 111.171 52.28 111.459 52.608C111.691 52.848 111.991 52.968 112.359 52.968ZM112.371 54.072C111.859 54.072 111.411 53.964 111.027 53.748C110.643 53.532 110.359 53.22 110.175 52.812C109.935 52.3 109.815 51.404 109.815 50.124C109.815 48.796 109.871 47.884 109.983 47.388C110.095 46.892 110.343 46.48 110.727 46.152C110.975 45.936 111.299 45.772 111.699 45.66C112.107 45.548 112.479 45.48 112.815 45.456C113.159 45.432 113.679 45.408 114.375 45.384V46.464C114.255 46.472 114.039 46.484 113.727 46.5C113.415 46.516 113.159 46.532 112.959 46.548C112.759 46.564 112.531 46.604 112.275 46.668C112.019 46.732 111.811 46.82 111.651 46.932C111.371 47.116 111.179 47.348 111.075 47.628C110.971 47.9 110.919 48.264 110.919 48.72C111.047 48.48 111.263 48.288 111.567 48.144C111.879 48 112.219 47.928 112.587 47.928C113.211 47.928 113.707 48.1 114.075 48.444C114.603 48.94 114.867 49.772 114.867 50.94C114.867 52.068 114.619 52.884 114.123 53.388C113.683 53.844 113.099 54.072 112.371 54.072ZM121.098 54H119.874V48.984H118.11V50.748C118.11 51.38 118.066 51.912 117.978 52.344C117.89 52.776 117.758 53.112 117.582 53.352C117.406 53.584 117.202 53.752 116.97 53.856C116.746 53.952 116.478 54 116.166 54H115.59V52.92H115.782C115.91 52.92 116.018 52.912 116.106 52.896C116.194 52.872 116.294 52.816 116.406 52.728C116.526 52.632 116.618 52.504 116.682 52.344C116.754 52.176 116.814 51.932 116.862 51.612C116.91 51.284 116.934 50.896 116.934 50.448V47.916H121.098V54ZM128.102 54H126.878V49.812L124.274 54H123.05V47.916H124.274V52.044L126.878 47.916H128.102V54ZM134.894 52.284C134.894 52.812 134.73 53.232 134.402 53.544C134.074 53.848 133.626 54 133.058 54H130.046V47.916H132.962C133.522 47.916 133.966 48.064 134.294 48.36C134.63 48.656 134.798 49.052 134.798 49.548C134.798 50.156 134.514 50.592 133.946 50.856C134.578 51.144 134.894 51.62 134.894 52.284ZM133.598 49.632C133.598 49.392 133.518 49.208 133.358 49.08C133.206 48.944 132.986 48.876 132.698 48.876H131.258V50.412H132.698C133.298 50.412 133.598 50.152 133.598 49.632ZM133.694 52.2C133.694 51.936 133.61 51.732 133.442 51.588C133.282 51.436 133.058 51.36 132.77 51.36H131.258V53.04H132.77C133.058 53.04 133.282 52.964 133.442 52.812C133.61 52.66 133.694 52.456 133.694 52.2ZM137.809 54H136.585V47.916H137.809V54ZM137.845 46.716H136.549V45.42H137.845V46.716ZM144.153 53.208C143.609 53.784 142.941 54.072 142.149 54.072C141.789 54.072 141.453 54.016 141.141 53.904C140.829 53.784 140.541 53.608 140.277 53.376C140.021 53.136 139.817 52.812 139.665 52.404C139.513 51.988 139.437 51.504 139.437 50.952C139.437 50.4 139.513 49.92 139.665 49.512C139.817 49.096 140.021 48.772 140.277 48.54C140.541 48.3 140.829 48.124 141.141 48.012C141.453 47.9 141.789 47.844 142.149 47.844C142.949 47.844 143.617 48.128 144.153 48.696L143.313 49.512C143.121 49.304 142.937 49.156 142.761 49.068C142.593 48.98 142.389 48.936 142.149 48.936C141.669 48.936 141.293 49.116 141.021 49.476C140.781 49.78 140.661 50.272 140.661 50.952C140.661 51.64 140.781 52.136 141.021 52.44C141.293 52.8 141.669 52.98 142.149 52.98C142.389 52.98 142.593 52.936 142.761 52.848C142.937 52.76 143.121 52.612 143.313 52.404L144.153 53.208ZM149.808 48.984H147.948V54H146.724V48.984H144.792V47.916H149.808V48.984ZM155.165 50.736C155.533 51.08 155.717 51.536 155.717 52.104C155.717 52.672 155.533 53.132 155.165 53.484C154.805 53.828 154.333 54 153.749 54H150.917V47.916H152.141V50.208H153.749C154.333 50.208 154.805 50.384 155.165 50.736ZM154.253 52.764C154.421 52.604 154.505 52.384 154.505 52.104C154.505 51.824 154.421 51.608 154.253 51.456C154.085 51.296 153.849 51.216 153.545 51.216H152.141V53.004H153.545C153.849 53.004 154.085 52.924 154.253 52.764ZM161.727 48.984V49.956C161.727 51.116 161.535 52.108 161.151 52.932H163.443V48.984H161.727ZM160.563 47.916H164.667V52.932H165.507V55.56H164.331V54H160.383V55.56H159.219V52.932H159.867C160.099 52.476 160.271 52 160.383 51.504C160.503 51 160.563 50.32 160.563 49.464V47.916ZM171.547 54H170.323V48.984H168.559V50.748C168.559 51.38 168.515 51.912 168.427 52.344C168.339 52.776 168.207 53.112 168.031 53.352C167.855 53.584 167.651 53.752 167.419 53.856C167.195 53.952 166.927 54 166.615 54H166.039V52.92H166.231C166.359 52.92 166.467 52.912 166.555 52.896C166.643 52.872 166.743 52.816 166.855 52.728C166.975 52.632 167.067 52.504 167.131 52.344C167.203 52.176 167.263 51.932 167.311 51.612C167.359 51.284 167.383 50.896 167.383 50.448V47.916H171.547V54ZM176.715 50.748V48.9H175.287C174.975 48.9 174.731 48.984 174.555 49.152C174.379 49.32 174.291 49.548 174.291 49.836C174.291 50.124 174.379 50.348 174.555 50.508C174.731 50.668 174.975 50.748 175.287 50.748H176.715ZM174.435 54H173.031L174.351 51.504C173.959 51.392 173.651 51.184 173.427 50.88C173.203 50.576 173.091 50.208 173.091 49.776C173.091 49.224 173.271 48.776 173.631 48.432C173.999 48.088 174.475 47.916 175.059 47.916H177.927V54H176.703V51.732H175.587L174.435 54ZM187.629 54H186.405V48.984H183.981V54H182.757V47.916H187.629V54ZM194.367 51.312H190.419C190.419 51.848 190.551 52.268 190.815 52.572C191.087 52.868 191.471 53.016 191.967 53.016C192.295 53.016 192.567 52.968 192.783 52.872C192.999 52.776 193.219 52.616 193.443 52.392L194.223 53.124C193.895 53.452 193.559 53.692 193.215 53.844C192.879 53.996 192.455 54.072 191.943 54.072C191.111 54.072 190.447 53.824 189.951 53.328C189.455 52.832 189.207 52.04 189.207 50.952C189.207 49.976 189.439 49.216 189.903 48.672C190.367 48.12 190.995 47.844 191.787 47.844C192.595 47.844 193.227 48.112 193.683 48.648C194.139 49.184 194.367 49.9 194.367 50.796V51.312ZM193.155 50.46C193.131 50.1 193.075 49.824 192.987 49.632C192.755 49.12 192.355 48.864 191.787 48.864C191.211 48.864 190.807 49.12 190.575 49.632C190.479 49.84 190.427 50.116 190.419 50.46H193.155ZM200.968 50.952C200.968 52.208 200.74 53.068 200.284 53.532C199.924 53.892 199.432 54.072 198.808 54.072C198.128 54.072 197.596 53.84 197.212 53.376V56.46H195.988V47.916H197.188V48.564C197.588 48.084 198.124 47.844 198.796 47.844C199.428 47.844 199.924 48.024 200.284 48.384C200.74 48.848 200.968 49.704 200.968 50.952ZM199.696 51.732C199.728 51.516 199.744 51.256 199.744 50.952C199.744 50.648 199.728 50.388 199.696 50.172C199.672 49.956 199.616 49.748 199.528 49.548C199.448 49.348 199.32 49.196 199.144 49.092C198.968 48.988 198.748 48.936 198.484 48.936C198.212 48.936 197.988 48.988 197.812 49.092C197.636 49.196 197.504 49.348 197.416 49.548C197.336 49.748 197.28 49.956 197.248 50.172C197.224 50.388 197.212 50.648 197.212 50.952C197.212 51.256 197.224 51.516 197.248 51.732C197.28 51.948 197.336 52.16 197.416 52.368C197.504 52.568 197.636 52.72 197.812 52.824C197.996 52.928 198.22 52.98 198.484 52.98C198.748 52.98 198.968 52.928 199.144 52.824C199.32 52.72 199.448 52.568 199.528 52.368C199.616 52.16 199.672 51.948 199.696 51.732ZM207.468 51.312H203.52C203.52 51.848 203.652 52.268 203.916 52.572C204.188 52.868 204.572 53.016 205.068 53.016C205.396 53.016 205.668 52.968 205.884 52.872C206.1 52.776 206.32 52.616 206.544 52.392L207.324 53.124C206.996 53.452 206.66 53.692 206.316 53.844C205.98 53.996 205.556 54.072 205.044 54.072C204.212 54.072 203.548 53.824 203.052 53.328C202.556 52.832 202.308 52.04 202.308 50.952C202.308 49.976 202.54 49.216 203.004 48.672C203.468 48.12 204.096 47.844 204.888 47.844C205.696 47.844 206.328 48.112 206.784 48.648C207.24 49.184 207.468 49.9 207.468 50.796V51.312ZM206.256 50.46C206.232 50.1 206.176 49.824 206.088 49.632C205.856 49.12 205.456 48.864 204.888 48.864C204.312 48.864 203.908 49.12 203.676 49.632C203.58 49.84 203.528 50.116 203.52 50.46H206.256ZM211.441 52.968C211.825 52.968 212.125 52.848 212.341 52.608C212.597 52.304 212.725 51.764 212.725 50.988C212.725 50.18 212.601 49.636 212.353 49.356C212.121 49.1 211.817 48.972 211.441 48.972C211.049 48.972 210.741 49.1 210.517 49.356C210.245 49.668 210.109 50.204 210.109 50.964C210.109 51.732 210.253 52.28 210.541 52.608C210.773 52.848 211.073 52.968 211.441 52.968ZM211.453 54.072C210.941 54.072 210.493 53.964 210.109 53.748C209.725 53.532 209.441 53.22 209.257 52.812C209.017 52.3 208.897 51.404 208.897 50.124C208.897 48.796 208.953 47.884 209.065 47.388C209.177 46.892 209.425 46.48 209.809 46.152C210.057 45.936 210.381 45.772 210.781 45.66C211.189 45.548 211.561 45.48 211.897 45.456C212.241 45.432 212.761 45.408 213.457 45.384V46.464C213.337 46.472 213.121 46.484 212.809 46.5C212.497 46.516 212.241 46.532 212.041 46.548C211.841 46.564 211.613 46.604 211.357 46.668C211.101 46.732 210.893 46.82 210.733 46.932C210.453 47.116 210.261 47.348 210.157 47.628C210.053 47.9 210.001 48.264 210.001 48.72C210.129 48.48 210.345 48.288 210.649 48.144C210.961 48 211.301 47.928 211.669 47.928C212.293 47.928 212.789 48.1 213.157 48.444C213.685 48.94 213.949 49.772 213.949 50.94C213.949 52.068 213.701 52.884 213.205 53.388C212.765 53.844 212.181 54.072 211.453 54.072ZM216.805 54H215.581V47.916H216.805V54ZM216.841 46.716H215.545V45.42H216.841V46.716ZM223.725 50.952C223.725 52.208 223.497 53.068 223.041 53.532C222.681 53.892 222.189 54.072 221.565 54.072C220.885 54.072 220.353 53.84 219.969 53.376V56.46H218.745V47.916H219.945V48.564C220.345 48.084 220.881 47.844 221.553 47.844C222.185 47.844 222.681 48.024 223.041 48.384C223.497 48.848 223.725 49.704 223.725 50.952ZM222.453 51.732C222.485 51.516 222.501 51.256 222.501 50.952C222.501 50.648 222.485 50.388 222.453 50.172C222.429 49.956 222.373 49.748 222.285 49.548C222.205 49.348 222.077 49.196 221.901 49.092C221.725 48.988 221.505 48.936 221.241 48.936C220.969 48.936 220.745 48.988 220.569 49.092C220.393 49.196 220.261 49.348 220.173 49.548C220.093 49.748 220.037 49.956 220.005 50.172C219.981 50.388 219.969 50.648 219.969 50.952C219.969 51.256 219.981 51.516 220.005 51.732C220.037 51.948 220.093 52.16 220.173 52.368C220.261 52.568 220.393 52.72 220.569 52.824C220.753 52.928 220.977 52.98 221.241 52.98C221.505 52.98 221.725 52.928 221.901 52.824C222.077 52.72 222.205 52.568 222.285 52.368C222.373 52.16 222.429 51.948 222.453 51.732ZM229.86 54H228.636V48.984H226.872V50.748C226.872 51.38 226.828 51.912 226.74 52.344C226.652 52.776 226.52 53.112 226.344 53.352C226.168 53.584 225.964 53.752 225.732 53.856C225.508 53.952 225.24 54 224.928 54H224.352V52.92H224.544C224.672 52.92 224.78 52.912 224.868 52.896C224.956 52.872 225.056 52.816 225.168 52.728C225.288 52.632 225.38 52.504 225.444 52.344C225.516 52.176 225.576 51.932 225.624 51.612C225.672 51.284 225.696 50.896 225.696 50.448V47.916H229.86V54ZM236.864 54H235.64V49.812L233.036 54H231.812V47.916H233.036V52.044L235.64 47.916H236.864V54ZM243.656 52.284C243.656 52.812 243.492 53.232 243.164 53.544C242.836 53.848 242.388 54 241.82 54H238.808V47.916H241.724C242.284 47.916 242.728 48.064 243.056 48.36C243.392 48.656 243.56 49.052 243.56 49.548C243.56 50.156 243.276 50.592 242.708 50.856C243.34 51.144 243.656 51.62 243.656 52.284ZM242.36 49.632C242.36 49.392 242.28 49.208 242.12 49.08C241.968 48.944 241.748 48.876 241.46 48.876H240.02V50.412H241.46C242.06 50.412 242.36 50.152 242.36 49.632ZM242.456 52.2C242.456 51.936 242.372 51.732 242.204 51.588C242.044 51.436 241.82 51.36 241.532 51.36H240.02V53.04H241.532C241.82 53.04 242.044 52.964 242.204 52.812C242.372 52.66 242.456 52.456 242.456 52.2ZM250.076 50.952C250.076 51.512 250.024 51.98 249.92 52.356C249.816 52.732 249.628 53.064 249.356 53.352C248.892 53.832 248.284 54.072 247.532 54.072C246.788 54.072 246.184 53.832 245.72 53.352C245.448 53.064 245.26 52.732 245.156 52.356C245.052 51.98 245 51.512 245 50.952C245 50.4 245.052 49.936 245.156 49.56C245.26 49.176 245.448 48.844 245.72 48.564C246.184 48.084 246.788 47.844 247.532 47.844C248.284 47.844 248.892 48.084 249.356 48.564C249.628 48.844 249.816 49.176 249.92 49.56C250.024 49.936 250.076 50.4 250.076 50.952ZM248.432 52.62C248.712 52.34 248.852 51.784 248.852 50.952C248.852 50.12 248.712 49.564 248.432 49.284C248.2 49.052 247.9 48.936 247.532 48.936C247.172 48.936 246.876 49.052 246.644 49.284C246.364 49.564 246.224 50.12 246.224 50.952C246.224 51.784 246.364 52.34 246.644 52.62C246.884 52.86 247.18 52.98 247.532 52.98C247.892 52.98 248.192 52.86 248.432 52.62ZM255.73 48.984H253.006V54H251.782V47.916H255.73V48.984ZM261.573 50.952C261.573 51.512 261.521 51.98 261.417 52.356C261.313 52.732 261.125 53.064 260.853 53.352C260.389 53.832 259.781 54.072 259.029 54.072C258.285 54.072 257.681 53.832 257.217 53.352C256.945 53.064 256.757 52.732 256.653 52.356C256.549 51.98 256.497 51.512 256.497 50.952C256.497 50.4 256.549 49.936 256.653 49.56C256.757 49.176 256.945 48.844 257.217 48.564C257.681 48.084 258.285 47.844 259.029 47.844C259.781 47.844 260.389 48.084 260.853 48.564C261.125 48.844 261.313 49.176 261.417 49.56C261.521 49.936 261.573 50.4 261.573 50.952ZM259.929 52.62C260.209 52.34 260.349 51.784 260.349 50.952C260.349 50.12 260.209 49.564 259.929 49.284C259.697 49.052 259.397 48.936 259.029 48.936C258.669 48.936 258.373 49.052 258.141 49.284C257.861 49.564 257.721 50.12 257.721 50.952C257.721 51.784 257.861 52.34 258.141 52.62C258.381 52.86 258.677 52.98 259.029 52.98C259.389 52.98 259.689 52.86 259.929 52.62ZM83.0945 68H81.8945V67.448C81.6705 67.672 81.4345 67.832 81.1865 67.928C80.9465 68.024 80.6425 68.072 80.2745 68.072C79.5545 68.072 79.0105 67.888 78.6425 67.52C78.3225 67.184 78.1625 66.748 78.1625 66.212C78.1625 65.684 78.3425 65.26 78.7025 64.94C79.0705 64.62 79.5945 64.46 80.2745 64.46H81.8705V64.028C81.8705 63.636 81.7665 63.348 81.5585 63.164C81.3505 62.98 81.0105 62.888 80.5385 62.888C80.2185 62.888 79.9585 62.936 79.7585 63.032C79.5665 63.12 79.3825 63.272 79.2065 63.488L78.4145 62.732C78.6945 62.404 78.9945 62.176 79.3145 62.048C79.6425 61.912 80.0665 61.844 80.5865 61.844C82.2585 61.844 83.0945 62.54 83.0945 63.932V68ZM81.8705 65.804V65.312H80.4665C79.7225 65.312 79.3505 65.604 79.3505 66.188C79.3505 66.764 79.7345 67.052 80.5025 67.052C80.9905 67.052 81.3585 66.936 81.6065 66.704C81.7825 66.536 81.8705 66.236 81.8705 65.804ZM89.8538 68H88.6298V62.984H86.2058V68H84.9818V61.916H89.8538V68ZM96.5915 65.312H92.6435C92.6435 65.848 92.7755 66.268 93.0395 66.572C93.3115 66.868 93.6955 67.016 94.1915 67.016C94.5195 67.016 94.7915 66.968 95.0075 66.872C95.2235 66.776 95.4435 66.616 95.6675 66.392L96.4475 67.124C96.1195 67.452 95.7835 67.692 95.4395 67.844C95.1035 67.996 94.6795 68.072 94.1675 68.072C93.3355 68.072 92.6715 67.824 92.1755 67.328C91.6795 66.832 91.4315 66.04 91.4315 64.952C91.4315 63.976 91.6635 63.216 92.1275 62.672C92.5915 62.12 93.2195 61.844 94.0115 61.844C94.8195 61.844 95.4515 62.112 95.9075 62.648C96.3635 63.184 96.5915 63.9 96.5915 64.796V65.312ZM95.3795 64.46C95.3555 64.1 95.2995 63.824 95.2115 63.632C94.9795 63.12 94.5795 62.864 94.0115 62.864C93.4355 62.864 93.0315 63.12 92.7995 63.632C92.7035 63.84 92.6515 64.116 92.6435 64.46H95.3795ZM102.33 62.984H100.47V68H99.2456V62.984H97.3136V61.916H102.33V62.984ZM108.491 68H107.267V63.812L104.663 68H103.439V61.916H104.663V66.044L107.267 61.916H108.491V68ZM114.552 62.984H112.692V68H111.468V62.984H109.536V61.916H114.552V62.984ZM120.621 61.916L117.933 69.212C117.645 70.012 117.081 70.412 116.241 70.412H115.749V69.308H116.061C116.317 69.308 116.505 69.264 116.625 69.176C116.745 69.096 116.849 68.928 116.937 68.672L117.273 67.712L115.137 61.916H116.445L117.897 66.212L119.313 61.916H120.621ZM128.96 67.208C128.416 67.784 127.748 68.072 126.956 68.072C126.596 68.072 126.26 68.016 125.948 67.904C125.636 67.784 125.348 67.608 125.084 67.376C124.828 67.136 124.624 66.812 124.472 66.404C124.32 65.988 124.244 65.504 124.244 64.952C124.244 64.4 124.32 63.92 124.472 63.512C124.624 63.096 124.828 62.772 125.084 62.54C125.348 62.3 125.636 62.124 125.948 62.012C126.26 61.9 126.596 61.844 126.956 61.844C127.756 61.844 128.424 62.128 128.96 62.696L128.12 63.512C127.928 63.304 127.744 63.156 127.568 63.068C127.4 62.98 127.196 62.936 126.956 62.936C126.476 62.936 126.1 63.116 125.828 63.476C125.588 63.78 125.468 64.272 125.468 64.952C125.468 65.64 125.588 66.136 125.828 66.44C126.1 66.8 126.476 66.98 126.956 66.98C127.196 66.98 127.4 66.936 127.568 66.848C127.744 66.76 127.928 66.612 128.12 66.404L128.96 67.208ZM134.976 61.916L132.288 69.212C132 70.012 131.436 70.412 130.596 70.412H130.104V69.308H130.416C130.672 69.308 130.86 69.264 130.98 69.176C131.1 69.096 131.204 68.928 131.292 68.672L131.628 67.712L129.492 61.916H130.8L132.252 66.212L133.668 61.916H134.976ZM137.289 68H136.053V61.916H137.289V68ZM141.261 68H139.761L137.301 64.832L139.617 61.916H141.081L138.657 64.772L141.261 68ZM149.959 66.284C149.959 66.812 149.795 67.232 149.467 67.544C149.139 67.848 148.691 68 148.123 68H145.111V61.916H148.027C148.587 61.916 149.031 62.064 149.359 62.36C149.695 62.656 149.863 63.052 149.863 63.548C149.863 64.156 149.579 64.592 149.011 64.856C149.643 65.144 149.959 65.62 149.959 66.284ZM148.663 63.632C148.663 63.392 148.583 63.208 148.423 63.08C148.271 62.944 148.051 62.876 147.763 62.876H146.323V64.412H147.763C148.363 64.412 148.663 64.152 148.663 63.632ZM148.759 66.2C148.759 65.936 148.675 65.732 148.507 65.588C148.347 65.436 148.123 65.36 147.835 65.36H146.323V67.04H147.835C148.123 67.04 148.347 66.964 148.507 66.812C148.675 66.66 148.759 66.456 148.759 66.2ZM159.405 68H158.181V62.984H155.757V68H154.533V61.916H159.405V68ZM166.142 65.312H162.194C162.194 65.848 162.326 66.268 162.59 66.572C162.862 66.868 163.246 67.016 163.742 67.016C164.07 67.016 164.342 66.968 164.558 66.872C164.774 66.776 164.994 66.616 165.218 66.392L165.998 67.124C165.67 67.452 165.334 67.692 164.99 67.844C164.654 67.996 164.23 68.072 163.718 68.072C162.886 68.072 162.222 67.824 161.726 67.328C161.23 66.832 160.982 66.04 160.982 64.952C160.982 63.976 161.214 63.216 161.678 62.672C162.142 62.12 162.77 61.844 163.562 61.844C164.37 61.844 165.002 62.112 165.458 62.648C165.914 63.184 166.142 63.9 166.142 64.796V65.312ZM164.93 64.46C164.906 64.1 164.85 63.824 164.762 63.632C164.53 63.12 164.13 62.864 163.562 62.864C162.986 62.864 162.582 63.12 162.35 63.632C162.254 63.84 162.202 64.116 162.194 64.46H164.93ZM172.743 64.952C172.743 66.208 172.515 67.068 172.059 67.532C171.699 67.892 171.207 68.072 170.583 68.072C169.903 68.072 169.371 67.84 168.987 67.376V70.46H167.763V61.916H168.963V62.564C169.363 62.084 169.899 61.844 170.571 61.844C171.203 61.844 171.699 62.024 172.059 62.384C172.515 62.848 172.743 63.704 172.743 64.952ZM171.471 65.732C171.503 65.516 171.519 65.256 171.519 64.952C171.519 64.648 171.503 64.388 171.471 64.172C171.447 63.956 171.391 63.748 171.303 63.548C171.223 63.348 171.095 63.196 170.919 63.092C170.743 62.988 170.523 62.936 170.259 62.936C169.987 62.936 169.763 62.988 169.587 63.092C169.411 63.196 169.279 63.348 169.191 63.548C169.111 63.748 169.055 63.956 169.023 64.172C168.999 64.388 168.987 64.648 168.987 64.952C168.987 65.256 168.999 65.516 169.023 65.732C169.055 65.948 169.111 66.16 169.191 66.368C169.279 66.568 169.411 66.72 169.587 66.824C169.771 66.928 169.995 66.98 170.259 66.98C170.523 66.98 170.743 66.928 170.919 66.824C171.095 66.72 171.223 66.568 171.303 66.368C171.391 66.16 171.447 65.948 171.471 65.732ZM175.62 68H174.396V61.916H175.62V68ZM175.656 60.716H174.36V59.42H175.656V60.716ZM182.348 64.952C182.348 65.512 182.296 65.98 182.192 66.356C182.088 66.732 181.9 67.064 181.628 67.352C181.164 67.832 180.556 68.072 179.804 68.072C179.06 68.072 178.456 67.832 177.992 67.352C177.72 67.064 177.532 66.732 177.428 66.356C177.324 65.98 177.272 65.512 177.272 64.952C177.272 64.4 177.324 63.936 177.428 63.56C177.532 63.176 177.72 62.844 177.992 62.564C178.456 62.084 179.06 61.844 179.804 61.844C180.556 61.844 181.164 62.084 181.628 62.564C181.9 62.844 182.088 63.176 182.192 63.56C182.296 63.936 182.348 64.4 182.348 64.952ZM180.704 66.62C180.984 66.34 181.124 65.784 181.124 64.952C181.124 64.12 180.984 63.564 180.704 63.284C180.472 63.052 180.172 62.936 179.804 62.936C179.444 62.936 179.148 63.052 178.916 63.284C178.636 63.564 178.496 64.12 178.496 64.952C178.496 65.784 178.636 66.34 178.916 66.62C179.156 66.86 179.452 66.98 179.804 66.98C180.164 66.98 180.464 66.86 180.704 66.62ZM185.487 62.984V63.956C185.487 65.116 185.295 66.108 184.911 66.932H187.203V62.984H185.487ZM184.323 61.916H188.427V66.932H189.267V69.56H188.091V68H184.143V69.56H182.979V66.932H183.627C183.859 66.476 184.031 66 184.143 65.504C184.263 65 184.323 64.32 184.323 63.464V61.916ZM198.454 64.952C198.454 66.208 198.226 67.068 197.77 67.532C197.41 67.892 196.918 68.072 196.294 68.072C195.614 68.072 195.082 67.84 194.698 67.376V70.46H193.474V61.916H194.674V62.564C195.074 62.084 195.61 61.844 196.282 61.844C196.914 61.844 197.41 62.024 197.77 62.384C198.226 62.848 198.454 63.704 198.454 64.952ZM197.182 65.732C197.214 65.516 197.23 65.256 197.23 64.952C197.23 64.648 197.214 64.388 197.182 64.172C197.158 63.956 197.102 63.748 197.014 63.548C196.934 63.348 196.806 63.196 196.63 63.092C196.454 62.988 196.234 62.936 195.97 62.936C195.698 62.936 195.474 62.988 195.298 63.092C195.122 63.196 194.99 63.348 194.902 63.548C194.822 63.748 194.766 63.956 194.734 64.172C194.71 64.388 194.698 64.648 194.698 64.952C194.698 65.256 194.71 65.516 194.734 65.732C194.766 65.948 194.822 66.16 194.902 66.368C194.99 66.568 195.122 66.72 195.298 66.824C195.482 66.928 195.706 66.98 195.97 66.98C196.234 66.98 196.454 66.928 196.63 66.824C196.806 66.72 196.934 66.568 197.014 66.368C197.102 66.16 197.158 65.948 197.182 65.732ZM204.955 65.312H201.007C201.007 65.848 201.139 66.268 201.403 66.572C201.675 66.868 202.059 67.016 202.555 67.016C202.883 67.016 203.155 66.968 203.371 66.872C203.587 66.776 203.807 66.616 204.031 66.392L204.811 67.124C204.483 67.452 204.147 67.692 203.803 67.844C203.467 67.996 203.043 68.072 202.531 68.072C201.699 68.072 201.035 67.824 200.539 67.328C200.043 66.832 199.795 66.04 199.795 64.952C199.795 63.976 200.027 63.216 200.491 62.672C200.955 62.12 201.583 61.844 202.375 61.844C203.183 61.844 203.815 62.112 204.271 62.648C204.727 63.184 204.955 63.9 204.955 64.796V65.312ZM203.743 64.46C203.719 64.1 203.663 63.824 203.575 63.632C203.343 63.12 202.943 62.864 202.375 62.864C201.799 62.864 201.395 63.12 201.163 63.632C201.067 63.84 201.015 64.116 201.007 64.46H203.743ZM211.448 68H210.224V62.984H207.8V68H206.576V61.916H211.448V68ZM218.317 64.952C218.317 66.208 218.089 67.068 217.633 67.532C217.273 67.892 216.781 68.072 216.157 68.072C215.477 68.072 214.945 67.84 214.561 67.376V70.46H213.337V61.916H214.537V62.564C214.937 62.084 215.473 61.844 216.145 61.844C216.777 61.844 217.273 62.024 217.633 62.384C218.089 62.848 218.317 63.704 218.317 64.952ZM217.045 65.732C217.077 65.516 217.093 65.256 217.093 64.952C217.093 64.648 217.077 64.388 217.045 64.172C217.021 63.956 216.965 63.748 216.877 63.548C216.797 63.348 216.669 63.196 216.493 63.092C216.317 62.988 216.097 62.936 215.833 62.936C215.561 62.936 215.337 62.988 215.161 63.092C214.985 63.196 214.853 63.348 214.765 63.548C214.685 63.748 214.629 63.956 214.597 64.172C214.573 64.388 214.561 64.648 214.561 64.952C214.561 65.256 214.573 65.516 214.597 65.732C214.629 65.948 214.685 66.16 214.765 66.368C214.853 66.568 214.985 66.72 215.161 66.824C215.345 66.928 215.569 66.98 215.833 66.98C216.097 66.98 216.317 66.928 216.493 66.824C216.669 66.72 216.797 66.568 216.877 66.368C216.965 66.16 217.021 65.948 217.045 65.732ZM224.758 64.952C224.758 65.512 224.706 65.98 224.602 66.356C224.498 66.732 224.31 67.064 224.038 67.352C223.574 67.832 222.966 68.072 222.214 68.072C221.47 68.072 220.866 67.832 220.402 67.352C220.13 67.064 219.942 66.732 219.838 66.356C219.734 65.98 219.682 65.512 219.682 64.952C219.682 64.4 219.734 63.936 219.838 63.56C219.942 63.176 220.13 62.844 220.402 62.564C220.866 62.084 221.47 61.844 222.214 61.844C222.966 61.844 223.574 62.084 224.038 62.564C224.31 62.844 224.498 63.176 224.602 63.56C224.706 63.936 224.758 64.4 224.758 64.952ZM223.114 66.62C223.394 66.34 223.534 65.784 223.534 64.952C223.534 64.12 223.394 63.564 223.114 63.284C222.882 63.052 222.582 62.936 222.214 62.936C221.854 62.936 221.558 63.052 221.326 63.284C221.046 63.564 220.906 64.12 220.906 64.952C220.906 65.784 221.046 66.34 221.326 66.62C221.566 66.86 221.862 66.98 222.214 66.98C222.574 66.98 222.874 66.86 223.114 66.62ZM227.897 62.984V63.956C227.897 65.116 227.705 66.108 227.321 66.932H229.613V62.984H227.897ZM226.733 61.916H230.837V66.932H231.677V69.56H230.501V68H226.553V69.56H225.389V66.932H226.037C226.269 66.476 226.441 66 226.553 65.504C226.673 65 226.733 64.32 226.733 63.464V61.916ZM237.363 61.916L234.675 69.212C234.387 70.012 233.823 70.412 232.983 70.412H232.491V69.308H232.803C233.059 69.308 233.247 69.264 233.367 69.176C233.487 69.096 233.591 68.928 233.679 68.672L234.015 67.712L231.879 61.916H233.187L234.639 66.212L236.055 61.916H237.363ZM239.675 68H238.439V61.916H239.675V68ZM243.647 68H242.147L239.687 64.832L242.003 61.916H243.467L241.043 64.772L243.647 68ZM250.351 69.56H249.175V68H244.615V61.916H245.839V66.932H248.263V61.916H249.487V66.932H250.351V69.56ZM252.882 68H251.658V61.916H252.882V68ZM252.918 60.716H251.622V59.42H252.918V60.716ZM256.046 68H254.822V61.916H256.046V68ZM257.282 60.752H256.178V59.456H257.282V60.752ZM254.69 60.752H253.586V59.456H254.69V60.752ZM259.414 68H257.95V66.536H259.414V68Z" fill="#E2001A"/>
<path d="M30.7333 51.1404C26.6317 51.1404 13 50.7785 13 46.0738C13 45.8325 13.1206 45.4706 13.2413 45.2293L15.654 38.1119C16.0159 36.0611 19.273 34.7341 25.7872 34.2516C27.9587 34.131 34.2317 34.131 35.7999 34.2516C42.3142 34.7341 45.5713 36.0611 45.8126 38.2325L48.3459 45.4706C48.4665 45.5912 48.4665 45.8325 48.4665 46.0738C48.4665 50.7785 34.8348 51.1404 30.7333 51.1404ZM30.492 35.458C28.6825 35.458 26.7523 35.458 25.7872 35.5786C20.3587 36.0611 16.9809 37.1468 16.7397 38.4738L14.2063 45.7119C14.0857 45.8325 14.0857 45.9531 14.0857 46.0738C14.0857 48.6071 22.4095 49.9341 30.6126 49.9341C38.8158 49.9341 47.1395 48.6071 47.1395 46.0738V45.9531L44.6062 38.5944C44.3649 37.0262 40.9872 35.9405 35.6793 35.5786C34.8348 35.458 32.6634 35.458 30.492 35.458Z" fill="#E2001A"/>
<path d="M30.7335 40.7661C29.2858 40.7661 16.2573 40.6455 16.2573 37.7502C16.2573 34.855 29.2858 34.7344 30.7335 34.7344C32.1811 34.7344 45.2096 34.855 45.2096 37.7502C45.2096 40.6455 32.1811 40.7661 30.7335 40.7661ZM30.7335 35.9407C22.5303 35.9407 17.8256 37.1471 17.4637 37.7502C17.8256 38.3534 22.5303 39.5598 30.7335 39.5598C38.6953 39.5598 43.4001 38.474 44.0032 37.7502C43.4001 37.1471 38.6953 35.9407 30.7335 35.9407Z" fill="#E2001A"/>
<path d="M36.4033 37.7505C37.4693 37.7505 38.3334 37.2644 38.3334 36.6648C38.3334 36.0652 37.4693 35.5791 36.4033 35.5791C35.3373 35.5791 34.4731 36.0652 34.4731 36.6648C34.4731 37.2644 35.3373 37.7505 36.4033 37.7505Z" fill="#E2001A"/>
<path d="M36.4033 37.9918C35.197 37.9918 34.3525 37.3886 34.3525 36.7854C34.3525 36.1823 35.3176 35.5791 36.4033 35.5791C37.6097 35.5791 38.4541 36.1823 38.4541 36.7854C38.4541 37.3886 37.489 37.9918 36.4033 37.9918ZM36.4033 35.6997C35.4382 35.6997 34.5938 36.1823 34.5938 36.6648C34.5938 37.1473 35.4382 37.6299 36.4033 37.6299C37.3684 37.6299 38.2128 37.1473 38.2128 36.6648C38.2128 36.1823 37.3684 35.6997 36.4033 35.6997Z" fill="white"/>
<path d="M41.108 37.0264C40.9874 37.0264 40.8668 37.0264 40.7461 37.0264C40.7461 36.6645 40.143 36.4233 39.4192 36.4233C39.2985 36.4233 39.1779 36.4233 39.0572 36.4233V36.3026C39.0572 35.9407 38.4541 35.6995 37.7303 35.6995C37.6096 35.6995 37.489 35.6995 37.3684 35.6995V35.5788C37.3684 35.2169 36.7652 34.855 36.0414 34.855C35.9208 34.855 35.8001 34.855 35.6795 34.855V34.7344C35.6795 34.3725 35.0763 34.1312 34.3525 34.1312C34.2319 34.1312 34.1112 34.1312 33.9906 34.1312V34.0106C33.9906 33.6487 33.3874 33.4074 32.6636 33.4074C32.4224 33.4074 32.3017 33.4074 32.1811 33.4074C32.1811 33.0455 31.5779 32.8042 30.8541 32.8042C30.7335 32.8042 30.6128 32.8042 30.4922 32.8042C30.2509 32.6836 29.889 32.6836 29.6478 32.6836C28.924 32.6836 28.3208 32.9249 28.3208 33.2868C28.2002 33.2868 28.0795 33.2868 27.9589 33.2868C27.2351 33.2868 26.6319 33.6487 26.6319 33.8899V34.0106C26.5113 34.0106 26.3906 34.0106 26.27 34.0106C25.5462 34.0106 24.943 34.2518 24.943 34.6137V34.7344C24.8224 34.7344 24.7018 34.7344 24.5811 34.7344C23.8573 34.7344 23.2541 34.9756 23.2541 35.4582V35.5788C23.1335 35.5788 23.0129 35.5788 22.8922 35.5788C22.1684 35.5788 21.5653 35.8201 21.5653 36.182V36.3026C21.4446 36.3026 21.324 36.3026 21.2034 36.3026C20.4796 36.3026 19.8764 36.5439 19.8764 36.9058C19.7557 36.9058 19.6351 36.9058 19.5145 36.9058C18.7907 36.9058 18.1875 37.1471 18.1875 37.509C18.1875 37.8709 18.7907 38.1121 19.5145 38.3534C19.8764 38.474 20.3589 38.5947 20.9621 38.8359C22.2891 39.3185 24.943 39.5598 26.27 39.4391L33.6287 39.5598C33.87 39.5598 34.1112 39.5598 34.2319 39.5598C35.3176 39.4391 37.9715 39.1979 38.816 38.9566C39.4192 38.8359 40.2636 38.3534 40.5049 38.2328C41.2287 37.9915 41.8318 37.9915 41.8318 37.509C42.435 37.2677 41.8318 37.0264 41.108 37.0264Z" fill="#E2001A"/>
<path d="M34.2318 39.8011L26.8731 39.6804C25.4255 39.6804 22.7715 39.5598 21.4445 38.9566C21.0826 38.836 20.8414 38.7154 20.6001 38.7154C20.3588 38.5947 20.2382 38.5947 19.9969 38.4741C19.1525 38.1122 18.5493 37.8709 18.5493 37.3884C18.5493 36.9059 19.1525 36.544 19.9969 36.544C20.1176 36.544 20.1176 36.544 20.2382 36.544C20.3588 36.182 20.962 35.9408 21.6858 35.9408H21.8064C21.8064 35.4582 22.4096 35.217 23.2541 35.217C23.3747 35.217 23.3747 35.217 23.3747 35.217C23.4953 34.7344 24.0985 34.4932 24.8223 34.4932C24.9429 34.4932 24.9429 34.4932 24.9429 34.4932C24.9429 34.0106 25.6667 33.7694 26.3906 33.7694H26.5112C26.6318 33.4075 27.235 33.0456 27.9588 33.0456C28.0794 33.0456 28.0794 33.0456 28.2001 33.0456C28.3207 32.6837 28.9239 32.4424 29.6477 32.4424C30.0096 32.4424 30.2509 32.4424 30.4921 32.563C30.6128 32.563 30.7334 32.563 30.854 32.563C31.5778 32.563 32.181 32.8043 32.3016 33.1662C32.4223 33.1662 32.5429 33.1662 32.6635 33.1662C33.3873 33.1662 34.1112 33.5281 34.1112 33.89H34.2318C35.0762 33.89 35.6794 34.2519 35.6794 34.6138H35.8C36.5238 34.6138 37.2476 34.9757 37.2476 35.3376H37.3683C38.2127 35.3376 38.8159 35.6995 38.8159 36.0614C38.9365 36.0614 38.9365 36.0614 39.0572 36.0614C39.781 36.0614 40.3841 36.3027 40.5048 36.6646C40.5048 36.6646 40.6254 36.6646 40.746 36.6646C41.5905 36.6646 42.1937 37.0265 42.1937 37.509C42.1937 37.9916 41.7111 38.1122 41.1079 38.2328L40.8667 38.3535C40.746 38.3535 40.5048 38.4741 40.2635 38.5947C39.9016 38.836 39.4191 38.9566 39.0572 39.0773C38.5746 39.1979 37.3683 39.3185 36.1619 39.4392C35.4381 39.5598 34.835 39.5598 34.4731 39.6804C34.5937 39.8011 34.4731 39.8011 34.2318 39.8011ZM26.7525 39.4392L34.1112 39.5598C34.3524 39.5598 34.4731 39.5598 34.7143 39.5598C35.1969 39.5598 35.8 39.4392 36.4032 39.3185C37.4889 39.1979 38.6953 39.0773 39.1778 38.9566C39.5397 38.836 39.9016 38.7154 40.2635 38.4741C40.5048 38.3535 40.746 38.2328 40.8667 38.2328L41.1079 38.1122C41.5905 37.9916 41.9524 37.8709 41.9524 37.6297C41.9524 37.3884 41.4698 37.1471 40.746 37.1471C40.6254 37.1471 40.5048 37.1471 40.5048 37.1471H40.3841V37.0265C40.3841 36.7852 39.9016 36.544 39.2984 36.544C39.1778 36.544 39.0572 36.544 38.9365 36.544H38.6953L38.8159 36.3027C38.8159 36.0614 38.3334 35.8201 37.7302 35.8201C37.6095 35.8201 37.4889 35.8201 37.3683 35.8201L37.2476 35.9408L37.3683 35.6995C37.3683 35.4582 36.8857 35.217 36.1619 35.217H36.0413H35.9207H35.8V35.0963V34.9757C35.8 34.7344 35.3175 34.4932 34.7143 34.4932C34.5937 34.4932 34.4731 34.4932 34.4731 34.4932L34.2318 34.6138V34.3725V34.2519C34.2318 34.0106 33.7492 33.7694 33.1461 33.7694C33.0254 33.7694 32.7842 33.7694 32.6635 33.7694H32.4223V33.5281C32.4223 33.2868 31.9397 33.0456 31.2159 33.0456C31.0953 33.0456 30.9747 33.0456 30.854 33.0456C30.6128 32.9249 30.3715 32.9249 30.0096 32.9249C29.2858 32.9249 28.9239 33.1662 28.9239 33.4075V33.6487H28.6826C28.562 33.6487 28.562 33.6487 28.4413 33.6487C27.8382 33.6487 27.235 33.89 27.235 34.1313V34.2519V34.4932H26.9937C26.8731 34.4932 26.7525 34.4932 26.6318 34.4932C26.0286 34.4932 25.5461 34.7344 25.5461 34.9757V35.0963V35.217H25.3048C25.1842 35.217 25.1842 35.217 25.0636 35.217C24.3398 35.217 23.8572 35.4582 23.8572 35.6995L23.9779 35.9408H23.7366C23.616 35.9408 23.4953 35.9408 23.3747 35.9408C22.6509 35.9408 22.289 36.182 22.289 36.4233L22.4096 36.6646H22.1683C22.0477 36.6646 21.9271 36.6646 21.8064 36.6646C21.0826 36.6646 20.7207 36.9059 20.7207 37.1471V37.2678H20.6001H20.4795C20.4795 37.2678 20.3588 37.2678 20.2382 37.2678C19.5144 37.2678 19.1525 37.509 19.1525 37.7503C19.1525 37.9916 19.9969 38.3535 20.3588 38.4741C20.4795 38.4741 20.7207 38.5947 20.8414 38.5947C21.0826 38.7154 21.4445 38.7154 21.6858 38.9566C22.7715 39.1979 25.4255 39.4392 26.7525 39.4392Z" fill="white"/>
<path d="M30.973 38.1127C31.7725 38.1127 32.4206 37.7886 32.4206 37.3888C32.4206 36.9891 31.7725 36.665 30.973 36.665C30.1735 36.665 29.5254 36.9891 29.5254 37.3888C29.5254 37.7886 30.1735 38.1127 30.973 38.1127Z" fill="#E2001A"/>
<path d="M30.9735 38.2328C30.1291 38.2328 29.4053 37.8709 29.4053 37.3884C29.4053 36.9058 30.1291 36.5439 30.9735 36.5439C31.818 36.5439 32.5418 36.9058 32.5418 37.3884C32.5418 37.8709 31.818 38.2328 30.9735 38.2328ZM30.9735 36.7852C30.2497 36.7852 29.7672 37.0265 29.7672 37.3884C29.7672 37.7503 30.2497 37.9916 30.9735 37.9916C31.6973 37.9916 32.1799 37.7503 32.1799 37.3884C32.1799 37.0265 31.6973 36.7852 30.9735 36.7852Z" fill="white"/>
<path d="M32.6621 35.6997C33.7281 35.6997 34.5922 35.2136 34.5922 34.614C34.5922 34.0144 33.7281 33.5283 32.6621 33.5283C31.5961 33.5283 30.7319 34.0144 30.7319 34.614C30.7319 35.2136 31.5961 35.6997 32.6621 35.6997Z" fill="#E2001A"/>
<path d="M32.6626 35.8199C31.4563 35.8199 30.6118 35.2167 30.6118 34.6136C30.6118 33.8898 31.5769 33.4072 32.6626 33.4072C33.8689 33.4072 34.7134 34.0104 34.7134 34.6136C34.7134 35.3374 33.7483 35.8199 32.6626 35.8199ZM32.6626 33.6485C31.6975 33.6485 30.8531 34.131 30.8531 34.6136C30.8531 35.0961 31.6975 35.5786 32.6626 35.5786C33.6277 35.5786 34.4721 35.0961 34.4721 34.6136C34.3515 34.131 33.507 33.6485 32.6626 33.6485Z" fill="white"/>
<path d="M33.9907 36.5445C35.0567 36.5445 35.9208 36.0584 35.9208 35.4588C35.9208 34.8591 35.0567 34.373 33.9907 34.373C32.9247 34.373 32.0605 34.8591 32.0605 35.4588C32.0605 36.0584 32.9247 36.5445 33.9907 36.5445Z" fill="#E2001A"/>
<path d="M33.9912 36.7857C32.7849 36.7857 31.9404 36.1826 31.9404 35.5794C31.9404 34.9762 32.9055 34.373 33.9912 34.373C35.1976 34.373 36.042 34.9762 36.042 35.5794C36.042 36.1826 35.1976 36.7857 33.9912 36.7857ZM33.9912 34.6143C33.0261 34.6143 32.1817 35.0969 32.1817 35.5794C32.1817 36.0619 33.0261 36.5445 33.9912 36.5445C34.9563 36.5445 35.8007 36.0619 35.8007 35.5794C35.8007 35.0969 34.9563 34.6143 33.9912 34.6143Z" fill="white"/>
<path d="M37.6167 35.005C37.7047 34.547 37.0334 34.0331 36.1173 33.8571C35.2013 33.6812 34.3874 33.9099 34.2994 34.3679C34.2114 34.826 34.8827 35.3399 35.7988 35.5158C36.7148 35.6917 37.5287 35.463 37.6167 35.005Z" fill="#E2001A"/>
<path d="M36.2823 35.8198C36.041 35.8198 35.9204 35.8198 35.6791 35.6992C34.9553 35.5786 34.4727 35.2167 34.2315 34.8548C34.1108 34.6135 34.1108 34.4929 34.1108 34.2516C34.1108 34.0103 34.2315 33.8897 34.4727 33.7691C34.8346 33.5278 35.5585 33.4072 36.1616 33.5278C37.2473 33.7691 37.9711 34.3722 37.8505 34.9754C37.8505 35.2167 37.7299 35.3373 37.4886 35.4579C37.1267 35.6992 36.7648 35.8198 36.2823 35.8198ZM35.4378 34.0103C35.0759 34.0103 34.714 34.131 34.5934 34.2516C34.4727 34.3722 34.4727 34.3722 34.4727 34.4929C34.4727 34.6135 34.4727 34.7341 34.5934 34.7341C34.8346 34.9754 35.3172 35.3373 35.7997 35.4579C36.4029 35.5786 36.8854 35.4579 37.2473 35.3373C37.368 35.2167 37.368 35.2167 37.368 35.096C37.368 34.7341 36.8854 34.2516 36.041 34.131C35.7997 34.0103 35.6791 34.0103 35.4378 34.0103Z" fill="white"/>
<path d="M32.0604 35.5794C32.8599 35.5794 33.508 35.2554 33.508 34.8556C33.508 34.4559 32.8599 34.1318 32.0604 34.1318C31.2609 34.1318 30.6128 34.4559 30.6128 34.8556C30.6128 35.2554 31.2609 35.5794 32.0604 35.5794Z" fill="#E2001A"/>
<path d="M32.0609 35.6996C31.2165 35.6996 30.4927 35.3377 30.4927 34.8552C30.4927 34.3726 31.2165 34.0107 32.0609 34.0107C32.9054 34.0107 33.6292 34.3726 33.6292 34.8552C33.6292 35.3377 32.9054 35.6996 32.0609 35.6996ZM32.0609 34.252C31.3371 34.252 30.8546 34.4933 30.8546 34.8552C30.8546 35.2171 31.3371 35.4584 32.0609 35.4584C32.7847 35.4584 33.2673 35.2171 33.2673 34.8552C33.2673 34.4933 32.7847 34.252 32.0609 34.252Z" fill="white"/>
<path d="M34.472 37.0267C35.2715 37.0267 35.9196 36.7027 35.9196 36.3029C35.9196 35.9032 35.2715 35.5791 34.472 35.5791C33.6725 35.5791 33.0244 35.9032 33.0244 36.3029C33.0244 36.7027 33.6725 37.0267 34.472 37.0267Z" fill="#E2001A"/>
<path d="M34.4725 37.268C33.6281 37.268 32.9043 36.9061 32.9043 36.4235C32.9043 35.941 33.6281 35.5791 34.4725 35.5791C35.317 35.5791 36.0408 35.941 36.0408 36.4235C36.0408 36.9061 35.317 37.268 34.4725 37.268ZM34.4725 35.8204C33.7487 35.8204 33.2662 36.0616 33.2662 36.4235C33.2662 36.6648 33.7487 37.0267 34.4725 37.0267C35.1964 37.0267 35.6789 36.7854 35.6789 36.4235C35.6789 36.0616 35.1964 35.8204 34.4725 35.8204Z" fill="white"/>
<path d="M35.9208 37.9925C36.7203 37.9925 37.3684 37.6685 37.3684 37.2687C37.3684 36.869 36.7203 36.5449 35.9208 36.5449C35.1213 36.5449 34.4731 36.869 34.4731 37.2687C34.4731 37.6685 35.1213 37.9925 35.9208 37.9925Z" fill="#E2001A"/>
<path d="M35.9208 38.1127C35.0763 38.1127 34.3525 37.7508 34.3525 37.2683C34.3525 36.7857 35.0763 36.4238 35.9208 36.4238C36.7652 36.4238 37.489 36.7857 37.489 37.2683C37.489 37.7508 36.7652 38.1127 35.9208 38.1127ZM35.9208 36.6651C35.197 36.6651 34.7144 36.9064 34.7144 37.2683C34.7144 37.5095 35.197 37.8714 35.9208 37.8714C36.6446 37.8714 37.1271 37.6302 37.1271 37.2683C37.1271 37.027 36.6446 36.6651 35.9208 36.6651Z" fill="white"/>
<path d="M33.8685 39.3187C34.668 39.3187 35.3161 38.9946 35.3161 38.5949C35.3161 38.1952 34.668 37.8711 33.8685 37.8711C33.069 37.8711 32.4209 38.1952 32.4209 38.5949C32.4209 38.9946 33.069 39.3187 33.8685 39.3187Z" fill="#E2001A"/>
<path d="M33.869 39.56C33.0246 39.56 32.3008 39.1981 32.3008 38.7155C32.3008 38.233 33.0246 37.8711 33.869 37.8711C34.7135 37.8711 35.4373 38.233 35.4373 38.7155C35.4373 39.1981 34.7135 39.56 33.869 39.56ZM33.869 38.1124C33.1452 38.1124 32.6627 38.3536 32.6627 38.7155C32.6627 38.9568 33.1452 39.3187 33.869 39.3187C34.5928 39.3187 35.0754 39.0774 35.0754 38.7155C35.0754 38.3536 34.5928 38.1124 33.869 38.1124Z" fill="white"/>
<path d="M32.0604 36.9066C32.8599 36.9066 33.508 36.5825 33.508 36.1828C33.508 35.783 32.8599 35.459 32.0604 35.459C31.2609 35.459 30.6128 35.783 30.6128 36.1828C30.6128 36.5825 31.2609 36.9066 32.0604 36.9066Z" fill="#E2001A"/>
<path d="M32.0609 37.0268C31.2165 37.0268 30.4927 36.6649 30.4927 36.1823C30.4927 35.6998 31.2165 35.3379 32.0609 35.3379C32.9054 35.3379 33.6292 35.6998 33.6292 36.1823C33.6292 36.6649 32.9054 37.0268 32.0609 37.0268ZM32.0609 35.5792C31.3371 35.5792 30.8546 35.8204 30.8546 36.1823C30.8546 36.4236 31.3371 36.7855 32.0609 36.7855C32.7847 36.7855 33.2673 36.5442 33.2673 36.1823C33.2673 35.9411 32.7847 35.5792 32.0609 35.5792Z" fill="white"/>
<path d="M33.3872 38.7154C34.4532 38.7154 35.3173 38.2293 35.3173 37.6297C35.3173 37.03 34.4532 36.5439 33.3872 36.5439C32.3212 36.5439 31.457 37.03 31.457 37.6297C31.457 38.2293 32.3212 38.7154 33.3872 38.7154Z" fill="#E2001A"/>
<path d="M33.3877 38.9566C32.1814 38.9566 31.3369 38.3535 31.3369 37.7503C31.3369 37.1471 32.302 36.5439 33.3877 36.5439C34.594 36.5439 35.4385 37.1471 35.4385 37.7503C35.4385 38.3535 34.4734 38.9566 33.3877 38.9566ZM33.3877 36.6646C32.4226 36.6646 31.5782 37.1471 31.5782 37.6297C31.5782 38.1122 32.4226 38.5947 33.3877 38.5947C34.3528 38.5947 35.1972 38.1122 35.1972 37.6297C35.1972 37.1471 34.3528 36.6646 33.3877 36.6646Z" fill="white"/>
<path d="M33.9907 37.148C35.0567 37.148 35.9208 36.6619 35.9208 36.0623C35.9208 35.4627 35.0567 34.9766 33.9907 34.9766C32.9247 34.9766 32.0605 35.4627 32.0605 36.0623C32.0605 36.6619 32.9247 37.148 33.9907 37.148Z" fill="#E2001A"/>
<path d="M33.9912 37.2682C32.7849 37.2682 31.9404 36.7856 31.9404 36.0618C31.9404 35.338 32.9055 34.8555 33.9912 34.8555C35.0769 34.8555 36.042 35.338 36.042 36.0618C36.042 36.7856 35.0769 37.2682 33.9912 37.2682ZM33.9912 35.2174C33.0261 35.2174 32.1817 35.5793 32.1817 36.1824C32.1817 36.7856 33.0261 37.1475 33.9912 37.1475C34.9563 37.1475 35.8007 36.7856 35.8007 36.1824C35.8007 35.5793 34.9563 35.2174 33.9912 35.2174Z" fill="white"/>
<path d="M37.2485 37.2681C38.3145 37.2681 39.1787 36.782 39.1787 36.1824C39.1787 35.5828 38.3145 35.0967 37.2485 35.0967C36.1825 35.0967 35.3184 35.5828 35.3184 36.1824C35.3184 36.782 36.1825 37.2681 37.2485 37.2681Z" fill="#E2001A"/>
<path d="M37.249 37.3883C36.0427 37.3883 35.1982 36.7851 35.1982 36.1819C35.1982 35.5788 36.1633 34.9756 37.249 34.9756C38.4554 34.9756 39.2998 35.5788 39.2998 36.1819C39.2998 36.7851 38.4554 37.3883 37.249 37.3883ZM37.249 35.2169C36.284 35.2169 35.4395 35.6994 35.4395 36.1819C35.4395 36.6645 36.284 37.147 37.249 37.147C38.2141 37.147 39.0585 36.6645 39.0585 36.1819C39.0585 35.6994 38.2141 35.2169 37.249 35.2169Z" fill="white"/>
<path d="M40.5048 37.6303C41.3709 37.6303 42.073 37.1983 42.073 36.6653C42.073 36.1323 41.3709 35.7002 40.5048 35.7002C39.6387 35.7002 38.9365 36.1323 38.9365 36.6653C38.9365 37.1983 39.6387 37.6303 40.5048 37.6303Z" fill="#E2001A"/>
<path d="M40.5043 37.7505C39.5393 37.7505 38.6948 37.268 38.6948 36.6648C38.6948 36.0616 39.4186 35.5791 40.5043 35.5791C41.59 35.5791 42.3139 36.0616 42.3139 36.6648C42.3139 37.268 41.4694 37.7505 40.5043 37.7505ZM40.5043 35.941C39.6599 35.941 39.0567 36.3029 39.0567 36.6648C39.0567 37.0267 39.7805 37.3886 40.5043 37.3886C41.3488 37.3886 41.952 37.0267 41.952 36.6648C41.952 36.3029 41.3488 35.941 40.5043 35.941Z" fill="white"/>
<path d="M40.6259 38.354C41.492 38.354 42.1941 37.9219 42.1941 37.3889C42.1941 36.8559 41.492 36.4238 40.6259 36.4238C39.7597 36.4238 39.0576 36.8559 39.0576 37.3889C39.0576 37.9219 39.7597 38.354 40.6259 38.354Z" fill="#E2001A"/>
<path d="M40.6259 38.4742C39.6608 38.4742 38.8164 37.9916 38.8164 37.3884C38.8164 36.7853 39.5402 36.3027 40.6259 36.3027C41.7116 36.3027 42.4354 36.7853 42.4354 37.3884C42.4354 37.9916 41.591 38.4742 40.6259 38.4742ZM40.6259 36.6646C39.7815 36.6646 39.1783 37.0265 39.1783 37.3884C39.1783 37.7503 39.9021 38.1123 40.6259 38.1123C41.4704 38.1123 42.0735 37.7503 42.0735 37.3884C42.0735 37.0265 41.4704 36.6646 40.6259 36.6646Z" fill="white"/>
<path d="M38.3339 38.7153C39.2 38.7153 39.9021 38.2832 39.9021 37.7502C39.9021 37.2172 39.2 36.7852 38.3339 36.7852C37.4678 36.7852 36.7656 37.2172 36.7656 37.7502C36.7656 38.2832 37.4678 38.7153 38.3339 38.7153Z" fill="#E2001A"/>
<path d="M38.3339 38.9566C37.3689 38.9566 36.5244 38.474 36.5244 37.8709C36.5244 37.2677 37.2482 36.7852 38.3339 36.7852C39.4196 36.7852 40.1434 37.2677 40.1434 37.8709C40.0228 38.474 39.299 38.9566 38.3339 38.9566ZM38.3339 37.0264C37.4895 37.0264 36.8863 37.3883 36.8863 37.7502C36.8863 38.1121 37.6101 38.474 38.3339 38.474C39.1784 38.474 39.7815 38.1121 39.7815 37.7502C39.7815 37.3883 39.0577 37.0264 38.3339 37.0264Z" fill="white"/>
<path d="M34.9555 39.4399C35.8216 39.4399 36.5237 39.0078 36.5237 38.4748C36.5237 37.9418 35.8216 37.5098 34.9555 37.5098C34.0893 37.5098 33.3872 37.9418 33.3872 38.4748C33.3872 39.0078 34.0893 39.4399 34.9555 39.4399Z" fill="#E2001A"/>
<path d="M34.955 39.5601C33.9899 39.5601 33.1455 39.0776 33.1455 38.4744C33.1455 37.8712 33.8693 37.3887 34.955 37.3887C36.0407 37.3887 36.7645 37.8712 36.7645 38.4744C36.7645 39.0776 36.0407 39.5601 34.955 39.5601ZM34.955 37.6299C34.1106 37.6299 33.5074 37.9918 33.5074 38.3537C33.5074 38.7156 34.2312 39.0776 34.955 39.0776C35.7995 39.0776 36.4026 38.7156 36.4026 38.3537C36.4026 37.9918 35.7995 37.6299 34.955 37.6299Z" fill="white"/>
<path d="M36.4047 36.1821C37.2708 36.1821 37.9729 35.75 37.9729 35.217C37.9729 34.684 37.2708 34.252 36.4047 34.252C35.5386 34.252 34.8364 34.684 34.8364 35.217C34.8364 35.75 35.5386 36.1821 36.4047 36.1821Z" fill="#E2001A"/>
<path d="M36.4042 36.3023C35.4392 36.3023 34.5947 35.8197 34.5947 35.2166C34.5947 34.6134 35.3185 34.1309 36.4042 34.1309C37.49 34.1309 38.2138 34.6134 38.2138 35.2166C38.2138 35.8197 37.3693 36.3023 36.4042 36.3023ZM36.4042 34.4928C35.5598 34.4928 34.9566 34.8547 34.9566 35.2166C34.9566 35.5785 35.5598 35.9404 36.4042 35.9404C37.2487 35.9404 37.8519 35.5785 37.8519 35.2166C37.8519 34.8547 37.128 34.4928 36.4042 34.4928Z" fill="white"/>
<path d="M38.9364 36.9056C39.7359 36.9056 40.384 36.5816 40.384 36.1818C40.384 35.7821 39.7359 35.458 38.9364 35.458C38.1369 35.458 37.4888 35.7821 37.4888 36.1818C37.4888 36.5816 38.1369 36.9056 38.9364 36.9056Z" fill="#E2001A"/>
<path d="M38.9369 37.1469C38.0925 37.1469 37.3687 36.785 37.3687 36.3024C37.3687 35.8199 38.0925 35.458 38.9369 35.458C39.7813 35.458 40.5051 35.8199 40.5051 36.3024C40.5051 36.785 39.7813 37.1469 38.9369 37.1469ZM38.9369 35.6993C38.2131 35.6993 37.7306 35.9405 37.7306 36.3024C37.7306 36.6644 38.2131 36.9056 38.9369 36.9056C39.6607 36.9056 40.1432 36.6644 40.1432 36.3024C40.1432 35.9405 39.6607 35.6993 38.9369 35.6993Z" fill="white"/>
<path d="M31.2152 38.8363C32.0147 38.8363 32.6628 38.5122 32.6628 38.1125C32.6628 37.7127 32.0147 37.3887 31.2152 37.3887C30.4157 37.3887 29.7676 37.7127 29.7676 38.1125C29.7676 38.5122 30.4157 38.8363 31.2152 38.8363Z" fill="#E2001A"/>
<path d="M31.2157 39.0776C30.3713 39.0776 29.6475 38.7156 29.6475 38.2331C29.6475 37.7506 30.3713 37.3887 31.2157 37.3887C32.0601 37.3887 32.784 37.7506 32.784 38.2331C32.784 38.7156 32.0601 39.0776 31.2157 39.0776ZM31.2157 37.6299C30.4919 37.6299 30.0094 37.8712 30.0094 38.2331C30.0094 38.595 30.4919 38.8363 31.2157 38.8363C31.9395 38.8363 32.4221 38.595 32.4221 38.2331C32.4221 37.8712 31.9395 37.6299 31.2157 37.6299Z" fill="white"/>
<path d="M32.9043 39.5603C33.9703 39.5603 34.8344 38.8582 34.8344 37.9921C34.8344 37.126 33.9703 36.4238 32.9043 36.4238C31.8383 36.4238 30.9741 37.126 30.9741 37.9921C30.9741 38.8582 31.8383 39.5603 32.9043 39.5603Z" fill="#E2001A"/>
<path d="M32.9043 39.8016C31.698 39.8016 30.8535 38.9571 30.8535 38.1127C30.8535 37.2683 31.8186 36.4238 32.9043 36.4238C33.99 36.4238 34.9551 37.2683 34.9551 38.1127C34.9551 38.9571 33.99 39.8016 32.9043 39.8016ZM32.9043 36.6651C31.9392 36.6651 31.2154 37.2683 31.2154 37.9921C31.2154 38.7159 31.9392 39.3191 32.9043 39.3191C33.8694 39.3191 34.5932 38.7159 34.5932 37.9921C34.5932 37.2683 33.8694 36.6651 32.9043 36.6651Z" fill="white"/>
<path d="M24.7007 56.0868C24.58 56.0868 24.58 56.0868 24.4594 56.0868C24.0975 55.9662 23.9768 55.6043 24.0975 55.363L33.7482 27.6171C33.8689 27.2552 34.2308 27.1346 34.472 27.2552C34.8339 27.3758 34.9546 27.7377 34.8339 27.979L25.1832 55.7249C25.1832 55.8455 24.9419 56.0868 24.7007 56.0868Z" fill="#E2001A"/>
<path fill-rule="evenodd" clip-rule="evenodd" d="M24.2638 57.2929L24.0781 57.231C23.1115 56.9088 22.5767 55.8469 22.9764 54.9145L32.6072 27.226C32.9343 26.2617 33.9992 25.7311 34.9312 26.1383C35.8486 26.4901 36.3444 27.5198 35.9555 28.427L26.3522 56.0364C26.2984 56.258 26.1998 56.42 26.1457 56.5012C26.0459 56.651 25.9258 56.7769 25.8049 56.8776C25.5853 57.0606 25.2 57.2929 24.7009 57.2929H24.2638ZM34.8342 27.9787C34.9548 27.7375 34.8342 27.3756 34.4723 27.2549C34.2671 27.1524 33.9748 27.2242 33.8177 27.4705C33.7924 27.5101 33.7706 27.5542 33.7533 27.6028C33.7516 27.6074 33.75 27.6121 33.7485 27.6168L24.0977 55.3627C24.044 55.4701 24.0381 55.6014 24.08 55.7247C24.1322 55.8784 24.2588 56.0196 24.4596 56.0866H24.7009C24.8625 56.0866 25.0242 55.9783 25.1132 55.8705C25.1517 55.824 25.1767 55.7775 25.1822 55.74C25.183 55.7347 25.1834 55.7296 25.1834 55.7247L34.8342 27.9787Z" fill="white"/>
</svg>
