<svg width="127" height="213" viewBox="0 0 127 213" fill="none" xmlns="http://www.w3.org/2000/svg">
<rect x="1" y="1" width="125" height="178" rx="19" fill="white" stroke="#96D0F1" stroke-width="2" stroke-linecap="round" stroke-linejoin="round" stroke-dasharray="8 8"/>
<path d="M21.2695 65H19.9735V57.62H16.5175V65H15.2215V56.456H21.2695V65ZM28.1506 61.952C28.1506 62.512 28.0986 62.98 27.9946 63.356C27.8906 63.732 27.7026 64.064 27.4306 64.352C26.9666 64.832 26.3586 65.072 25.6066 65.072C24.8626 65.072 24.2586 64.832 23.7946 64.352C23.5226 64.064 23.3346 63.732 23.2306 63.356C23.1266 62.98 23.0746 62.512 23.0746 61.952C23.0746 61.4 23.1266 60.936 23.2306 60.56C23.3346 60.176 23.5226 59.844 23.7946 59.564C24.2586 59.084 24.8626 58.844 25.6066 58.844C26.3586 58.844 26.9666 59.084 27.4306 59.564C27.7026 59.844 27.8906 60.176 27.9946 60.56C28.0986 60.936 28.1506 61.4 28.1506 61.952ZM26.5066 63.62C26.7866 63.34 26.9266 62.784 26.9266 61.952C26.9266 61.12 26.7866 60.564 26.5066 60.284C26.2746 60.052 25.9746 59.936 25.6066 59.936C25.2466 59.936 24.9506 60.052 24.7186 60.284C24.4386 60.564 24.2986 61.12 24.2986 61.952C24.2986 62.784 24.4386 63.34 24.7186 63.62C24.9586 63.86 25.2546 63.98 25.6066 63.98C25.9666 63.98 26.2666 63.86 26.5066 63.62ZM34.2119 64.22C33.8999 64.532 33.5959 64.752 33.2999 64.88C33.0039 65.008 32.6439 65.072 32.2199 65.072C31.3559 65.072 30.6839 64.8 30.2039 64.256C29.7319 63.704 29.4959 62.928 29.4959 61.928C29.4959 60.96 29.7359 60.204 30.2159 59.66C30.6959 59.116 31.3639 58.844 32.2199 58.844C32.6439 58.844 32.9999 58.912 33.2879 59.048C33.5759 59.176 33.8839 59.396 34.2119 59.708L33.3959 60.5C33.1879 60.292 32.9959 60.144 32.8199 60.056C32.6519 59.96 32.4479 59.912 32.2079 59.912C31.7599 59.912 31.4119 60.052 31.1639 60.332C30.9159 60.604 30.7719 60.98 30.7319 61.46H32.9039V62.324H30.7199C30.7519 62.836 30.8879 63.244 31.1279 63.548C31.3759 63.852 31.7359 64.004 32.2079 64.004C32.4559 64.004 32.6639 63.96 32.8319 63.872C32.9999 63.776 33.1879 63.624 33.3959 63.416L34.2119 64.22ZM37.3482 59.984V60.956C37.3482 62.116 37.1562 63.108 36.7722 63.932H39.0642V59.984H37.3482ZM36.1842 58.916H40.2882V63.932H41.1282V66.56H39.9522V65H36.0042V66.56H34.8402V63.932H35.4882C35.7202 63.476 35.8922 63 36.0042 62.504C36.1242 62 36.1842 61.32 36.1842 60.464V58.916ZM47.3245 65H46.1005V62.408H43.6765V65H42.4525V58.916H43.6765V61.34H46.1005V58.916H47.3245V65ZM53.7488 65H52.5488V64.448C52.3248 64.672 52.0888 64.832 51.8408 64.928C51.6008 65.024 51.2968 65.072 50.9288 65.072C50.2088 65.072 49.6648 64.888 49.2968 64.52C48.9768 64.184 48.8168 63.748 48.8168 63.212C48.8168 62.684 48.9968 62.26 49.3568 61.94C49.7248 61.62 50.2488 61.46 50.9288 61.46H52.5248V61.028C52.5248 60.636 52.4208 60.348 52.2128 60.164C52.0048 59.98 51.6648 59.888 51.1928 59.888C50.8728 59.888 50.6128 59.936 50.4128 60.032C50.2208 60.12 50.0368 60.272 49.8608 60.488L49.0688 59.732C49.3488 59.404 49.6488 59.176 49.9688 59.048C50.2968 58.912 50.7208 58.844 51.2408 58.844C52.9128 58.844 53.7488 59.54 53.7488 60.932V65ZM52.5248 62.804V62.312H51.1208C50.3768 62.312 50.0048 62.604 50.0048 63.188C50.0048 63.764 50.3888 64.052 51.1568 64.052C51.6448 64.052 52.0128 63.936 52.2608 63.704C52.4368 63.536 52.5248 63.236 52.5248 62.804ZM60.5081 65H59.2841V62.408H56.8601V65H55.6361V58.916H56.8601V61.34H59.2841V58.916H60.5081V65ZM67.3284 65H66.1044V62.408H63.6804V65H62.4564V58.916H63.6804V61.34H66.1044V58.916H67.3284V65ZM72.4927 61.748V59.9H71.0647C70.7527 59.9 70.5087 59.984 70.3327 60.152C70.1567 60.32 70.0687 60.548 70.0687 60.836C70.0687 61.124 70.1567 61.348 70.3327 61.508C70.5087 61.668 70.7527 61.748 71.0647 61.748H72.4927ZM70.2127 65H68.8087L70.1287 62.504C69.7367 62.392 69.4287 62.184 69.2047 61.88C68.9807 61.576 68.8687 61.208 68.8687 60.776C68.8687 60.224 69.0487 59.776 69.4087 59.432C69.7767 59.088 70.2527 58.916 70.8367 58.916H73.7047V65H72.4807V62.732H71.3647L70.2127 65ZM82.9385 64.208C82.3945 64.784 81.7265 65.072 80.9345 65.072C80.5745 65.072 80.2385 65.016 79.9265 64.904C79.6145 64.784 79.3265 64.608 79.0625 64.376C78.8065 64.136 78.6025 63.812 78.4505 63.404C78.2985 62.988 78.2225 62.504 78.2225 61.952C78.2225 61.4 78.2985 60.92 78.4505 60.512C78.6025 60.096 78.8065 59.772 79.0625 59.54C79.3265 59.3 79.6145 59.124 79.9265 59.012C80.2385 58.9 80.5745 58.844 80.9345 58.844C81.7345 58.844 82.4025 59.128 82.9385 59.696L82.0985 60.512C81.9065 60.304 81.7225 60.156 81.5465 60.068C81.3785 59.98 81.1745 59.936 80.9345 59.936C80.4545 59.936 80.0785 60.116 79.8065 60.476C79.5665 60.78 79.4465 61.272 79.4465 61.952C79.4465 62.64 79.5665 63.136 79.8065 63.44C80.0785 63.8 80.4545 63.98 80.9345 63.98C81.1745 63.98 81.3785 63.936 81.5465 63.848C81.7225 63.76 81.9065 63.612 82.0985 63.404L82.9385 64.208ZM88.9547 58.916L86.2667 66.212C85.9787 67.012 85.4147 67.412 84.5747 67.412H84.0827V66.308H84.3947C84.6507 66.308 84.8387 66.264 84.9587 66.176C85.0787 66.096 85.1827 65.928 85.2707 65.672L85.6067 64.712L83.4707 58.916H84.7787L86.2307 63.212L87.6467 58.916H88.9547ZM94.9243 65H93.4603L92.1763 62.924L90.8923 65H89.4163L91.5043 61.892L89.5003 58.916H90.9763L92.1763 60.896L93.3763 58.916H94.8403L92.8363 61.892L94.9243 65ZM100.713 61.952C100.713 62.512 100.661 62.98 100.557 63.356C100.453 63.732 100.265 64.064 99.9931 64.352C99.5291 64.832 98.9211 65.072 98.1691 65.072C97.4251 65.072 96.8211 64.832 96.3571 64.352C96.0851 64.064 95.8971 63.732 95.7931 63.356C95.6891 62.98 95.6371 62.512 95.6371 61.952C95.6371 61.4 95.6891 60.936 95.7931 60.56C95.8971 60.176 96.0851 59.844 96.3571 59.564C96.8211 59.084 97.4251 58.844 98.1691 58.844C98.9211 58.844 99.5291 59.084 99.9931 59.564C100.265 59.844 100.453 60.176 100.557 60.56C100.661 60.936 100.713 61.4 100.713 61.952ZM99.0691 63.62C99.3491 63.34 99.4891 62.784 99.4891 61.952C99.4891 61.12 99.3491 60.564 99.0691 60.284C98.8371 60.052 98.5371 59.936 98.1691 59.936C97.8091 59.936 97.5131 60.052 97.2811 60.284C97.0011 60.564 96.8611 61.12 96.8611 61.952C96.8611 62.784 97.0011 63.34 97.2811 63.62C97.5211 63.86 97.8171 63.98 98.1691 63.98C98.5291 63.98 98.8291 63.86 99.0691 63.62ZM106.366 59.984H103.642V65H102.418V58.916H106.366V59.984ZM112.209 61.952C112.209 62.512 112.157 62.98 112.053 63.356C111.949 63.732 111.761 64.064 111.489 64.352C111.025 64.832 110.417 65.072 109.665 65.072C108.921 65.072 108.317 64.832 107.853 64.352C107.581 64.064 107.393 63.732 107.289 63.356C107.185 62.98 107.133 62.512 107.133 61.952C107.133 61.4 107.185 60.936 107.289 60.56C107.393 60.176 107.581 59.844 107.853 59.564C108.317 59.084 108.921 58.844 109.665 58.844C110.417 58.844 111.025 59.084 111.489 59.564C111.761 59.844 111.949 60.176 112.053 60.56C112.157 60.936 112.209 61.4 112.209 61.952ZM110.565 63.62C110.845 63.34 110.985 62.784 110.985 61.952C110.985 61.12 110.845 60.564 110.565 60.284C110.333 60.052 110.033 59.936 109.665 59.936C109.305 59.936 109.009 60.052 108.777 60.284C108.497 60.564 108.357 61.12 108.357 61.952C108.357 62.784 108.497 63.34 108.777 63.62C109.017 63.86 109.313 63.98 109.665 63.98C110.025 63.98 110.325 63.86 110.565 63.62ZM19.6473 75.952C19.6473 77.208 19.4193 78.068 18.9633 78.532C18.6033 78.892 18.1113 79.072 17.4873 79.072C16.8073 79.072 16.2753 78.84 15.8913 78.376V81.46H14.6673V72.916H15.8673V73.564C16.2673 73.084 16.8033 72.844 17.4753 72.844C18.1073 72.844 18.6033 73.024 18.9633 73.384C19.4193 73.848 19.6473 74.704 19.6473 75.952ZM18.3753 76.732C18.4073 76.516 18.4233 76.256 18.4233 75.952C18.4233 75.648 18.4073 75.388 18.3753 75.172C18.3513 74.956 18.2953 74.748 18.2073 74.548C18.1273 74.348 17.9993 74.196 17.8233 74.092C17.6473 73.988 17.4273 73.936 17.1633 73.936C16.8913 73.936 16.6673 73.988 16.4913 74.092C16.3153 74.196 16.1833 74.348 16.0953 74.548C16.0153 74.748 15.9593 74.956 15.9273 75.172C15.9033 75.388 15.8913 75.648 15.8913 75.952C15.8913 76.256 15.9033 76.516 15.9273 76.732C15.9593 76.948 16.0153 77.16 16.0953 77.368C16.1833 77.568 16.3153 77.72 16.4913 77.824C16.6753 77.928 16.8993 77.98 17.1633 77.98C17.4273 77.98 17.6473 77.928 17.8233 77.824C17.9993 77.72 18.1273 77.568 18.2073 77.368C18.2953 77.16 18.3513 76.948 18.3753 76.732ZM25.7761 79H24.5761V78.448C24.3521 78.672 24.1161 78.832 23.8681 78.928C23.6281 79.024 23.3241 79.072 22.9561 79.072C22.2361 79.072 21.6921 78.888 21.3241 78.52C21.0041 78.184 20.8441 77.748 20.8441 77.212C20.8441 76.684 21.0241 76.26 21.3841 75.94C21.7521 75.62 22.2761 75.46 22.9561 75.46H24.5521V75.028C24.5521 74.636 24.4481 74.348 24.2401 74.164C24.0321 73.98 23.6921 73.888 23.2201 73.888C22.9001 73.888 22.6401 73.936 22.4401 74.032C22.2481 74.12 22.0641 74.272 21.8881 74.488L21.0961 73.732C21.3761 73.404 21.6761 73.176 21.9961 73.048C22.3241 72.912 22.7481 72.844 23.2681 72.844C24.9401 72.844 25.7761 73.54 25.7761 74.932V79ZM24.5521 76.804V76.312H23.1481C22.4041 76.312 22.0321 76.604 22.0321 77.188C22.0321 77.764 22.4161 78.052 23.1841 78.052C23.6721 78.052 24.0401 77.936 24.2881 77.704C24.4641 77.536 24.5521 77.236 24.5521 76.804ZM33.3994 80.56H32.2234V79H27.6634V72.916H28.8874V77.932H31.3114V72.916H32.5354V77.932H33.3994V80.56ZM35.9304 79H34.7064V72.916H35.9304V79ZM35.9664 71.716H34.6704V70.42H35.9664V71.716ZM42.6584 75.952C42.6584 76.512 42.6064 76.98 42.5024 77.356C42.3984 77.732 42.2104 78.064 41.9384 78.352C41.4744 78.832 40.8664 79.072 40.1144 79.072C39.3704 79.072 38.7664 78.832 38.3024 78.352C38.0304 78.064 37.8424 77.732 37.7384 77.356C37.6344 76.98 37.5824 76.512 37.5824 75.952C37.5824 75.4 37.6344 74.936 37.7384 74.56C37.8424 74.176 38.0304 73.844 38.3024 73.564C38.7664 73.084 39.3704 72.844 40.1144 72.844C40.8664 72.844 41.4744 73.084 41.9384 73.564C42.2104 73.844 42.3984 74.176 42.5024 74.56C42.6064 74.936 42.6584 75.4 42.6584 75.952ZM41.0144 77.62C41.2944 77.34 41.4344 76.784 41.4344 75.952C41.4344 75.12 41.2944 74.564 41.0144 74.284C40.7824 74.052 40.4824 73.936 40.1144 73.936C39.7544 73.936 39.4584 74.052 39.2264 74.284C38.9464 74.564 38.8064 75.12 38.8064 75.952C38.8064 76.784 38.9464 77.34 39.2264 77.62C39.4664 77.86 39.7624 77.98 40.1144 77.98C40.4744 77.98 40.7744 77.86 41.0144 77.62ZM49.1878 79H47.9638V76.408H45.5398V79H44.3158V72.916H45.5398V75.34H47.9638V72.916H49.1878V79ZM55.6735 72.916L52.9855 80.212C52.6975 81.012 52.1335 81.412 51.2935 81.412H50.8015V80.308H51.1135C51.3695 80.308 51.5575 80.264 51.6775 80.176C51.7975 80.096 51.9015 79.928 51.9895 79.672L52.3255 78.712L50.1895 72.916H51.4975L52.9495 77.212L54.3655 72.916H55.6735ZM63.7967 77.236C63.7967 77.78 63.5687 78.22 63.1127 78.556C62.6647 78.892 62.1207 79.06 61.4807 79.06C60.4087 79.06 59.5567 78.772 58.9247 78.196L59.6567 77.428C60.1047 77.828 60.6527 78.028 61.3007 78.028C61.6447 78.028 61.9447 77.952 62.2007 77.8C62.4647 77.64 62.5967 77.428 62.5967 77.164C62.5967 76.62 62.2447 76.348 61.5407 76.348H60.6407V75.436H61.5287C61.8247 75.436 62.0607 75.364 62.2367 75.22C62.4127 75.076 62.5007 74.876 62.5007 74.62C62.5007 74.372 62.3927 74.184 62.1767 74.056C61.9687 73.92 61.6807 73.852 61.3127 73.852C60.7607 73.852 60.2727 74.004 59.8487 74.308L59.1647 73.528C59.7567 73.072 60.5367 72.844 61.5047 72.844C62.1287 72.844 62.6487 72.992 63.0647 73.288C63.4887 73.576 63.7007 73.976 63.7007 74.488C63.7007 74.784 63.6207 75.052 63.4607 75.292C63.3007 75.532 63.0847 75.708 62.8127 75.82C63.1087 75.932 63.3447 76.116 63.5207 76.372C63.7047 76.62 63.7967 76.908 63.7967 77.236ZM73.2106 77.284C73.2106 77.812 73.0466 78.232 72.7186 78.544C72.3906 78.848 71.9426 79 71.3746 79H68.3626V72.916H71.2786C71.8386 72.916 72.2826 73.064 72.6106 73.36C72.9466 73.656 73.1146 74.052 73.1146 74.548C73.1146 75.156 72.8306 75.592 72.2626 75.856C72.8946 76.144 73.2106 76.62 73.2106 77.284ZM71.9146 74.632C71.9146 74.392 71.8346 74.208 71.6746 74.08C71.5226 73.944 71.3026 73.876 71.0146 73.876H69.5746V75.412H71.0146C71.6146 75.412 71.9146 75.152 71.9146 74.632ZM72.0106 77.2C72.0106 76.936 71.9266 76.732 71.7586 76.588C71.5986 76.436 71.3746 76.36 71.0866 76.36H69.5746V78.04H71.0866C71.3746 78.04 71.5986 77.964 71.7586 77.812C71.9266 77.66 72.0106 77.456 72.0106 77.2ZM79.6311 75.952C79.6311 76.512 79.5791 76.98 79.4751 77.356C79.3711 77.732 79.1831 78.064 78.9111 78.352C78.4471 78.832 77.8391 79.072 77.0871 79.072C76.3431 79.072 75.7391 78.832 75.2751 78.352C75.0031 78.064 74.8151 77.732 74.7111 77.356C74.6071 76.98 74.5551 76.512 74.5551 75.952C74.5551 75.4 74.6071 74.936 74.7111 74.56C74.8151 74.176 75.0031 73.844 75.2751 73.564C75.7391 73.084 76.3431 72.844 77.0871 72.844C77.8391 72.844 78.4471 73.084 78.9111 73.564C79.1831 73.844 79.3711 74.176 79.4751 74.56C79.5791 74.936 79.6311 75.4 79.6311 75.952ZM77.9871 77.62C78.2671 77.34 78.4071 76.784 78.4071 75.952C78.4071 75.12 78.2671 74.564 77.9871 74.284C77.7551 74.052 77.4551 73.936 77.0871 73.936C76.7271 73.936 76.4311 74.052 76.1991 74.284C75.9191 74.564 75.7791 75.12 75.7791 75.952C75.7791 76.784 75.9191 77.34 76.1991 77.62C76.4391 77.86 76.7351 77.98 77.0871 77.98C77.4471 77.98 77.7471 77.86 77.9871 77.62ZM85.77 79H84.546V73.984H82.782V75.748C82.782 76.38 82.738 76.912 82.65 77.344C82.562 77.776 82.43 78.112 82.254 78.352C82.078 78.584 81.874 78.752 81.642 78.856C81.418 78.952 81.15 79 80.838 79H80.262V77.92H80.454C80.582 77.92 80.69 77.912 80.778 77.896C80.866 77.872 80.966 77.816 81.078 77.728C81.198 77.632 81.29 77.504 81.354 77.344C81.426 77.176 81.486 76.932 81.534 76.612C81.582 76.284 81.606 75.896 81.606 75.448V72.916H85.77V79ZM92.51 75.952C92.51 76.512 92.458 76.98 92.354 77.356C92.25 77.732 92.062 78.064 91.79 78.352C91.326 78.832 90.718 79.072 89.966 79.072C89.222 79.072 88.618 78.832 88.154 78.352C87.882 78.064 87.694 77.732 87.59 77.356C87.486 76.98 87.434 76.512 87.434 75.952C87.434 75.4 87.486 74.936 87.59 74.56C87.694 74.176 87.882 73.844 88.154 73.564C88.618 73.084 89.222 72.844 89.966 72.844C90.718 72.844 91.326 73.084 91.79 73.564C92.062 73.844 92.25 74.176 92.354 74.56C92.458 74.936 92.51 75.4 92.51 75.952ZM90.866 77.62C91.146 77.34 91.286 76.784 91.286 75.952C91.286 75.12 91.146 74.564 90.866 74.284C90.634 74.052 90.334 73.936 89.966 73.936C89.606 73.936 89.31 74.052 89.078 74.284C88.798 74.564 88.658 75.12 88.658 75.952C88.658 76.784 88.798 77.34 89.078 77.62C89.318 77.86 89.614 77.98 89.966 77.98C90.326 77.98 90.626 77.86 90.866 77.62ZM98.1633 73.984H95.4393V79H94.2153V72.916H98.1633V73.984ZM104.329 79H103.105V74.812L100.501 79H99.2767V72.916H100.501V77.044L103.105 72.916H104.329V79ZM112.321 79H111.097V75.1L109.693 77.884H108.925L107.497 75.1V79H106.273V72.916H107.485L109.309 76.54L111.121 72.916H112.321V79ZM37.2661 87.984V88.956C37.2661 90.116 37.0741 91.108 36.6901 91.932H38.9821V87.984H37.2661ZM36.1021 86.916H40.2061V91.932H41.0461V94.56H39.8701V93H35.9221V94.56H34.7581V91.932H35.4061C35.6381 91.476 35.8101 91 35.9221 90.504C36.0421 90 36.1021 89.32 36.1021 88.464V86.916ZM46.9827 89.952C46.9827 90.512 46.9307 90.98 46.8267 91.356C46.7227 91.732 46.5347 92.064 46.2627 92.352C45.7987 92.832 45.1907 93.072 44.4387 93.072C43.6947 93.072 43.0907 92.832 42.6267 92.352C42.3547 92.064 42.1667 91.732 42.0627 91.356C41.9587 90.98 41.9067 90.512 41.9067 89.952C41.9067 89.4 41.9587 88.936 42.0627 88.56C42.1667 88.176 42.3547 87.844 42.6267 87.564C43.0907 87.084 43.6947 86.844 44.4387 86.844C45.1907 86.844 45.7987 87.084 46.2627 87.564C46.5347 87.844 46.7227 88.176 46.8267 88.56C46.9307 88.936 46.9827 89.4 46.9827 89.952ZM45.3387 91.62C45.6187 91.34 45.7587 90.784 45.7587 89.952C45.7587 89.12 45.6187 88.564 45.3387 88.284C45.1067 88.052 44.8067 87.936 44.4387 87.936C44.0787 87.936 43.7827 88.052 43.5507 88.284C43.2707 88.564 43.1307 89.12 43.1307 89.952C43.1307 90.784 43.2707 91.34 43.5507 91.62C43.7907 91.86 44.0867 91.98 44.4387 91.98C44.7987 91.98 45.0987 91.86 45.3387 91.62ZM53.512 93H52.288V87.984H49.864V93H48.64V86.916H53.512V93ZM60.1897 89.952C60.1897 90.512 60.1377 90.98 60.0337 91.356C59.9297 91.732 59.7417 92.064 59.4697 92.352C59.0057 92.832 58.3977 93.072 57.6457 93.072C56.9017 93.072 56.2977 92.832 55.8337 92.352C55.5617 92.064 55.3737 91.732 55.2697 91.356C55.1657 90.98 55.1137 90.512 55.1137 89.952C55.1137 89.4 55.1657 88.936 55.2697 88.56C55.3737 88.176 55.5617 87.844 55.8337 87.564C56.2977 87.084 56.9017 86.844 57.6457 86.844C58.3977 86.844 59.0057 87.084 59.4697 87.564C59.7417 87.844 59.9297 88.176 60.0337 88.56C60.1377 88.936 60.1897 89.4 60.1897 89.952ZM58.5457 91.62C58.8257 91.34 58.9657 90.784 58.9657 89.952C58.9657 89.12 58.8257 88.564 58.5457 88.284C58.3137 88.052 58.0137 87.936 57.6457 87.936C57.2857 87.936 56.9897 88.052 56.7577 88.284C56.4777 88.564 56.3377 89.12 56.3377 89.952C56.3377 90.784 56.4777 91.34 56.7577 91.62C56.9977 91.86 57.2937 91.98 57.6457 91.98C58.0057 91.98 58.3057 91.86 58.5457 91.62ZM67.895 93H66.671V89.1L65.267 91.884H64.499L63.071 89.1V93H61.847V86.916H63.059L64.883 90.54L66.695 86.916H67.895V93ZM74.3269 93H73.1269V92.448C72.9029 92.672 72.6669 92.832 72.4189 92.928C72.1789 93.024 71.8749 93.072 71.5069 93.072C70.7869 93.072 70.2429 92.888 69.8749 92.52C69.5549 92.184 69.3949 91.748 69.3949 91.212C69.3949 90.684 69.5749 90.26 69.9349 89.94C70.3029 89.62 70.8269 89.46 71.5069 89.46H73.1029V89.028C73.1029 88.636 72.9989 88.348 72.7909 88.164C72.5829 87.98 72.2429 87.888 71.7709 87.888C71.4509 87.888 71.1909 87.936 70.9909 88.032C70.7989 88.12 70.6149 88.272 70.4389 88.488L69.6469 87.732C69.9269 87.404 70.2269 87.176 70.5469 87.048C70.8749 86.912 71.2989 86.844 71.8189 86.844C73.4909 86.844 74.3269 87.54 74.3269 88.932V93ZM73.1029 90.804V90.312H71.6989C70.9549 90.312 70.5829 90.604 70.5829 91.188C70.5829 91.764 70.9669 92.052 71.7349 92.052C72.2229 92.052 72.5909 91.936 72.8389 91.704C73.0149 91.536 73.1029 91.236 73.1029 90.804ZM80.2102 87.984H77.4862V93H76.2622V86.916H80.2102V87.984ZM85.6824 93H84.4824V92.448C84.2584 92.672 84.0224 92.832 83.7744 92.928C83.5344 93.024 83.2304 93.072 82.8624 93.072C82.1424 93.072 81.5984 92.888 81.2304 92.52C80.9104 92.184 80.7504 91.748 80.7504 91.212C80.7504 90.684 80.9304 90.26 81.2904 89.94C81.6584 89.62 82.1824 89.46 82.8624 89.46H84.4584V89.028C84.4584 88.636 84.3544 88.348 84.1464 88.164C83.9384 87.98 83.5984 87.888 83.1264 87.888C82.8064 87.888 82.5464 87.936 82.3464 88.032C82.1544 88.12 81.9704 88.272 81.7944 88.488L81.0024 87.732C81.2824 87.404 81.5824 87.176 81.9024 87.048C82.2304 86.912 82.6544 86.844 83.1744 86.844C84.8464 86.844 85.6824 87.54 85.6824 88.932V93ZM84.4584 90.804V90.312H83.0544C82.3104 90.312 81.9384 90.604 81.9384 91.188C81.9384 91.764 82.3224 92.052 83.0904 92.052C83.5784 92.052 83.9464 91.936 84.1944 91.704C84.3704 91.536 84.4584 91.236 84.4584 90.804ZM91.9737 92.22C91.6617 92.532 91.3577 92.752 91.0617 92.88C90.7657 93.008 90.4057 93.072 89.9817 93.072C89.1177 93.072 88.4457 92.8 87.9657 92.256C87.4937 91.704 87.2577 90.928 87.2577 89.928C87.2577 88.96 87.4977 88.204 87.9777 87.66C88.4577 87.116 89.1257 86.844 89.9817 86.844C90.4057 86.844 90.7617 86.912 91.0497 87.048C91.3377 87.176 91.6457 87.396 91.9737 87.708L91.1577 88.5C90.9497 88.292 90.7577 88.144 90.5817 88.056C90.4137 87.96 90.2097 87.912 89.9697 87.912C89.5217 87.912 89.1737 88.052 88.9257 88.332C88.6777 88.604 88.5337 88.98 88.4937 89.46H90.6657V90.324H88.4817C88.5137 90.836 88.6497 91.244 88.8897 91.548C89.1377 91.852 89.4977 92.004 89.9697 92.004C90.2177 92.004 90.4257 91.96 90.5937 91.872C90.7617 91.776 90.9497 91.624 91.1577 91.416L91.9737 92.22ZM15.8362 107H14.6122V101.984H12.1882V107H10.9642V100.916H15.8362V107ZM18.9499 107H17.7259V100.916H18.9499V107ZM18.9859 99.716H17.6899V98.42H18.9859V99.716ZM22.606 101.984V102.956C22.606 104.116 22.414 105.108 22.03 105.932H24.322V101.984H22.606ZM21.442 100.916H25.546V105.932H26.386V108.56H25.21V107H21.262V108.56H20.098V105.932H20.746C20.978 105.476 21.15 105 21.262 104.504C21.382 104 21.442 103.32 21.442 102.464V100.916ZM32.5583 105.284C32.5583 105.812 32.3943 106.232 32.0663 106.544C31.7383 106.848 31.2903 107 30.7223 107H27.7103V100.916H30.6263C31.1863 100.916 31.6303 101.064 31.9583 101.36C32.2943 101.656 32.4623 102.052 32.4623 102.548C32.4623 103.156 32.1783 103.592 31.6103 103.856C32.2423 104.144 32.5583 104.62 32.5583 105.284ZM31.2623 102.632C31.2623 102.392 31.1823 102.208 31.0223 102.08C30.8703 101.944 30.6503 101.876 30.3623 101.876H28.9223V103.412H30.3623C30.9623 103.412 31.2623 103.152 31.2623 102.632ZM31.3583 105.2C31.3583 104.936 31.2743 104.732 31.1063 104.588C30.9463 104.436 30.7223 104.36 30.4343 104.36H28.9223V106.04H30.4343C30.7223 106.04 30.9463 105.964 31.1063 105.812C31.2743 105.66 31.3583 105.456 31.3583 105.2ZM39.3013 107H38.0773V102.812L35.4733 107H34.2493V100.916H35.4733V105.044L38.0773 100.916H39.3013V107ZM49.8974 108.56H48.7334V107H41.2454V100.916H42.4694V105.932H44.5334V100.916H45.7574V105.932H47.8094V100.916H49.0334V105.932H49.8974V108.56ZM56.2584 107H55.0344V102.812L52.4304 107H51.2064V100.916H52.4304V105.044L55.0344 100.916H56.2584V107ZM62.3199 101.984H60.4599V107H59.2359V101.984H57.3039V100.916H62.3199V101.984ZM68.481 107H67.257V102.812L64.653 107H63.429V100.916H64.653V105.044L67.257 100.916H68.481V107ZM77.7119 106.208C77.1679 106.784 76.4999 107.072 75.7079 107.072C75.3479 107.072 75.0119 107.016 74.6999 106.904C74.3879 106.784 74.0999 106.608 73.8359 106.376C73.5799 106.136 73.3759 105.812 73.2239 105.404C73.0719 104.988 72.9959 104.504 72.9959 103.952C72.9959 103.4 73.0719 102.92 73.2239 102.512C73.3759 102.096 73.5799 101.772 73.8359 101.54C74.0999 101.3 74.3879 101.124 74.6999 101.012C75.0119 100.9 75.3479 100.844 75.7079 100.844C76.5079 100.844 77.1759 101.128 77.7119 101.696L76.8719 102.512C76.6799 102.304 76.4959 102.156 76.3199 102.068C76.1519 101.98 75.9479 101.936 75.7079 101.936C75.2279 101.936 74.8519 102.116 74.5799 102.476C74.3399 102.78 74.2199 103.272 74.2199 103.952C74.2199 104.64 74.3399 105.136 74.5799 105.44C74.8519 105.8 75.2279 105.98 75.7079 105.98C75.9479 105.98 76.1519 105.936 76.3199 105.848C76.4959 105.76 76.6799 105.612 76.8719 105.404L77.7119 106.208ZM85.1802 107H83.9562V103.1L82.5522 105.884H81.7842L80.3562 103.1V107H79.1322V100.916H80.3442L82.1682 104.54L83.9802 100.916H85.1802V107ZM91.6121 107H90.4121V106.448C90.1881 106.672 89.9521 106.832 89.7041 106.928C89.4641 107.024 89.1601 107.072 88.7921 107.072C88.0721 107.072 87.5281 106.888 87.1601 106.52C86.8401 106.184 86.6801 105.748 86.6801 105.212C86.6801 104.684 86.8601 104.26 87.2201 103.94C87.5881 103.62 88.1121 103.46 88.7921 103.46H90.3881V103.028C90.3881 102.636 90.2841 102.348 90.0761 102.164C89.8681 101.98 89.5281 101.888 89.0561 101.888C88.7361 101.888 88.4761 101.936 88.2761 102.032C88.0841 102.12 87.9001 102.272 87.7241 102.488L86.9321 101.732C87.2121 101.404 87.5121 101.176 87.8321 101.048C88.1601 100.912 88.5841 100.844 89.1041 100.844C90.7761 100.844 91.6121 101.54 91.6121 102.932V107ZM90.3881 104.804V104.312H88.9841C88.2401 104.312 87.8681 104.604 87.8681 105.188C87.8681 105.764 88.2521 106.052 89.0201 106.052C89.5081 106.052 89.8761 105.936 90.1241 105.704C90.3001 105.536 90.3881 105.236 90.3881 104.804ZM94.7593 107H93.5233V100.916H94.7593V107ZM98.7313 107H97.2313L94.7713 103.832L97.0873 100.916H98.5513L96.1273 103.772L98.7313 107ZM104.252 103.952C104.252 104.512 104.2 104.98 104.096 105.356C103.992 105.732 103.804 106.064 103.532 106.352C103.068 106.832 102.46 107.072 101.708 107.072C100.964 107.072 100.36 106.832 99.8962 106.352C99.6242 106.064 99.4362 105.732 99.3322 105.356C99.2282 104.98 99.1762 104.512 99.1762 103.952C99.1762 103.4 99.2282 102.936 99.3322 102.56C99.4362 102.176 99.6242 101.844 99.8962 101.564C100.36 101.084 100.964 100.844 101.708 100.844C102.46 100.844 103.068 101.084 103.532 101.564C103.804 101.844 103.992 102.176 104.096 102.56C104.2 102.936 104.252 103.4 104.252 103.952ZM102.608 105.62C102.888 105.34 103.028 104.784 103.028 103.952C103.028 103.12 102.888 102.564 102.608 102.284C102.376 102.052 102.076 101.936 101.708 101.936C101.348 101.936 101.052 102.052 100.82 102.284C100.54 102.564 100.4 103.12 100.4 103.952C100.4 104.784 100.54 105.34 100.82 105.62C101.06 105.86 101.356 105.98 101.708 105.98C102.068 105.98 102.368 105.86 102.608 105.62ZM110.758 105.284C110.758 105.812 110.594 106.232 110.266 106.544C109.938 106.848 109.49 107 108.922 107H105.91V100.916H108.826C109.386 100.916 109.83 101.064 110.158 101.36C110.494 101.656 110.662 102.052 110.662 102.548C110.662 103.156 110.378 103.592 109.81 103.856C110.442 104.144 110.758 104.62 110.758 105.284ZM109.462 102.632C109.462 102.392 109.382 102.208 109.222 102.08C109.07 101.944 108.85 101.876 108.562 101.876H107.122V103.412H108.562C109.162 103.412 109.462 103.152 109.462 102.632ZM109.558 105.2C109.558 104.936 109.474 104.732 109.306 104.588C109.146 104.436 108.922 104.36 108.634 104.36H107.122V106.04H108.634C108.922 106.04 109.146 105.964 109.306 105.812C109.474 105.66 109.558 105.456 109.558 105.2ZM116.927 100.916L114.239 108.212C113.951 109.012 113.387 109.412 112.547 109.412H112.055V108.308H112.367C112.623 108.308 112.811 108.264 112.931 108.176C113.051 108.096 113.155 107.928 113.243 107.672L113.579 106.712L111.443 100.916H112.751L114.203 105.212L115.619 100.916H116.927ZM17.7639 121H16.5399V115.984H14.1159V121H12.8919V114.916H17.7639V121ZM24.6336 117.952C24.6336 119.208 24.4056 120.068 23.9496 120.532C23.5896 120.892 23.0976 121.072 22.4736 121.072C21.7936 121.072 21.2616 120.84 20.8776 120.376V123.46H19.6536V114.916H20.8536V115.564C21.2536 115.084 21.7896 114.844 22.4616 114.844C23.0936 114.844 23.5896 115.024 23.9496 115.384C24.4056 115.848 24.6336 116.704 24.6336 117.952ZM23.3616 118.732C23.3936 118.516 23.4096 118.256 23.4096 117.952C23.4096 117.648 23.3936 117.388 23.3616 117.172C23.3376 116.956 23.2816 116.748 23.1936 116.548C23.1136 116.348 22.9856 116.196 22.8096 116.092C22.6336 115.988 22.4136 115.936 22.1496 115.936C21.8776 115.936 21.6536 115.988 21.4776 116.092C21.3016 116.196 21.1696 116.348 21.0816 116.548C21.0016 116.748 20.9456 116.956 20.9136 117.172C20.8896 117.388 20.8776 117.648 20.8776 117.952C20.8776 118.256 20.8896 118.516 20.9136 118.732C20.9456 118.948 21.0016 119.16 21.0816 119.368C21.1696 119.568 21.3016 119.72 21.4776 119.824C21.6616 119.928 21.8856 119.98 22.1496 119.98C22.4136 119.98 22.6336 119.928 22.8096 119.824C22.9856 119.72 23.1136 119.568 23.1936 119.368C23.2816 119.16 23.3376 118.948 23.3616 118.732ZM31.3385 121H30.1145V116.812L27.5105 121H26.2865V114.916H27.5105V119.044L30.1145 114.916H31.3385V121ZM38.1305 119.284C38.1305 119.812 37.9665 120.232 37.6385 120.544C37.3105 120.848 36.8625 121 36.2945 121H33.2825V114.916H36.1985C36.7585 114.916 37.2025 115.064 37.5305 115.36C37.8665 115.656 38.0345 116.052 38.0345 116.548C38.0345 117.156 37.7505 117.592 37.1825 117.856C37.8145 118.144 38.1305 118.62 38.1305 119.284ZM36.8345 116.632C36.8345 116.392 36.7545 116.208 36.5945 116.08C36.4425 115.944 36.2225 115.876 35.9345 115.876H34.4945V117.412H35.9345C36.5345 117.412 36.8345 117.152 36.8345 116.632ZM36.9305 119.2C36.9305 118.936 36.8465 118.732 36.6785 118.588C36.5185 118.436 36.2945 118.36 36.0065 118.36H34.4945V120.04H36.0065C36.2945 120.04 36.5185 119.964 36.6785 119.812C36.8465 119.66 36.9305 119.456 36.9305 119.2ZM44.2976 121H43.0976V120.448C42.8736 120.672 42.6376 120.832 42.3896 120.928C42.1496 121.024 41.8456 121.072 41.4776 121.072C40.7576 121.072 40.2136 120.888 39.8456 120.52C39.5256 120.184 39.3656 119.748 39.3656 119.212C39.3656 118.684 39.5456 118.26 39.9056 117.94C40.2736 117.62 40.7976 117.46 41.4776 117.46H43.0736V117.028C43.0736 116.636 42.9696 116.348 42.7616 116.164C42.5536 115.98 42.2136 115.888 41.7416 115.888C41.4216 115.888 41.1616 115.936 40.9616 116.032C40.7696 116.12 40.5856 116.272 40.4096 116.488L39.6176 115.732C39.8976 115.404 40.1976 115.176 40.5176 115.048C40.8456 114.912 41.2696 114.844 41.7896 114.844C43.4616 114.844 44.2976 115.54 44.2976 116.932V121ZM43.0736 118.804V118.312H41.6696C40.9256 118.312 40.5536 118.604 40.5536 119.188C40.5536 119.764 40.9376 120.052 41.7056 120.052C42.1936 120.052 42.5616 119.936 42.8096 119.704C42.9856 119.536 43.0736 119.236 43.0736 118.804ZM48.5369 119.968C48.9209 119.968 49.2209 119.848 49.4369 119.608C49.6929 119.304 49.8209 118.764 49.8209 117.988C49.8209 117.18 49.6969 116.636 49.4489 116.356C49.2169 116.1 48.9129 115.972 48.5369 115.972C48.1449 115.972 47.8369 116.1 47.6129 116.356C47.3409 116.668 47.2049 117.204 47.2049 117.964C47.2049 118.732 47.3489 119.28 47.6369 119.608C47.8689 119.848 48.1689 119.968 48.5369 119.968ZM48.5489 121.072C48.0369 121.072 47.5889 120.964 47.2049 120.748C46.8209 120.532 46.5369 120.22 46.3529 119.812C46.1129 119.3 45.9929 118.404 45.9929 117.124C45.9929 115.796 46.0489 114.884 46.1609 114.388C46.2729 113.892 46.5209 113.48 46.9049 113.152C47.1529 112.936 47.4769 112.772 47.8769 112.66C48.2849 112.548 48.6569 112.48 48.9929 112.456C49.3369 112.432 49.8569 112.408 50.5529 112.384V113.464C50.4329 113.472 50.2169 113.484 49.9049 113.5C49.5929 113.516 49.3369 113.532 49.1369 113.548C48.9369 113.564 48.7089 113.604 48.4529 113.668C48.1969 113.732 47.9889 113.82 47.8289 113.932C47.5489 114.116 47.3569 114.348 47.2529 114.628C47.1489 114.9 47.0969 115.264 47.0969 115.72C47.2249 115.48 47.4409 115.288 47.7449 115.144C48.0569 115 48.3969 114.928 48.7649 114.928C49.3889 114.928 49.8849 115.1 50.2529 115.444C50.7809 115.94 51.0449 116.772 51.0449 117.94C51.0449 119.068 50.7969 119.884 50.3009 120.388C49.8609 120.844 49.2769 121.072 48.5489 121.072ZM57.2759 121H56.0519V115.984H54.2879V117.748C54.2879 118.38 54.2439 118.912 54.1559 119.344C54.0679 119.776 53.9359 120.112 53.7599 120.352C53.5839 120.584 53.3799 120.752 53.1479 120.856C52.9239 120.952 52.6559 121 52.3439 121H51.7679V119.92H51.9599C52.0879 119.92 52.1959 119.912 52.2839 119.896C52.3719 119.872 52.4719 119.816 52.5839 119.728C52.7039 119.632 52.7959 119.504 52.8599 119.344C52.9319 119.176 52.9919 118.932 53.0399 118.612C53.0879 118.284 53.1119 117.896 53.1119 117.448V114.916H57.2759V121ZM64.2799 121H63.0559V116.812L60.4519 121H59.2279V114.916H60.4519V119.044L63.0559 114.916H64.2799V121ZM71.072 119.284C71.072 119.812 70.908 120.232 70.58 120.544C70.252 120.848 69.804 121 69.236 121H66.224V114.916H69.14C69.7 114.916 70.144 115.064 70.472 115.36C70.808 115.656 70.976 116.052 70.976 116.548C70.976 117.156 70.692 117.592 70.124 117.856C70.756 118.144 71.072 118.62 71.072 119.284ZM69.776 116.632C69.776 116.392 69.696 116.208 69.536 116.08C69.384 115.944 69.164 115.876 68.876 115.876H67.436V117.412H68.876C69.476 117.412 69.776 117.152 69.776 116.632ZM69.872 119.2C69.872 118.936 69.788 118.732 69.62 118.588C69.46 118.436 69.236 118.36 68.948 118.36H67.436V120.04H68.948C69.236 120.04 69.46 119.964 69.62 119.812C69.788 119.66 69.872 119.456 69.872 119.2ZM73.987 121H72.763V114.916H73.987V121ZM74.023 113.716H72.727V112.42H74.023V113.716ZM80.3311 120.208C79.7871 120.784 79.1191 121.072 78.3271 121.072C77.9671 121.072 77.6311 121.016 77.3191 120.904C77.0071 120.784 76.7191 120.608 76.4551 120.376C76.1991 120.136 75.9951 119.812 75.8431 119.404C75.6911 118.988 75.6151 118.504 75.6151 117.952C75.6151 117.4 75.6911 116.92 75.8431 116.512C75.9951 116.096 76.1991 115.772 76.4551 115.54C76.7191 115.3 77.0071 115.124 77.3191 115.012C77.6311 114.9 77.9671 114.844 78.3271 114.844C79.1271 114.844 79.7951 115.128 80.3311 115.696L79.4911 116.512C79.2991 116.304 79.1151 116.156 78.9391 116.068C78.7711 115.98 78.5671 115.936 78.3271 115.936C77.8471 115.936 77.4711 116.116 77.1991 116.476C76.9591 116.78 76.8391 117.272 76.8391 117.952C76.8391 118.64 76.9591 119.136 77.1991 119.44C77.4711 119.8 77.8471 119.98 78.3271 119.98C78.5671 119.98 78.7711 119.936 78.9391 119.848C79.1151 119.76 79.2991 119.612 79.4911 119.404L80.3311 120.208ZM85.9859 115.984H84.1259V121H82.9019V115.984H80.9699V114.916H85.9859V115.984ZM91.343 117.736C91.711 118.08 91.895 118.536 91.895 119.104C91.895 119.672 91.711 120.132 91.343 120.484C90.983 120.828 90.511 121 89.927 121H87.095V114.916H88.319V117.208H89.927C90.511 117.208 90.983 117.384 91.343 117.736ZM90.431 119.764C90.599 119.604 90.683 119.384 90.683 119.104C90.683 118.824 90.599 118.608 90.431 118.456C90.263 118.296 90.027 118.216 89.723 118.216H88.319V120.004H89.723C90.027 120.004 90.263 119.924 90.431 119.764ZM97.9048 115.984V116.956C97.9048 118.116 97.7128 119.108 97.3288 119.932H99.6208V115.984H97.9048ZM96.7408 114.916H100.845V119.932H101.685V122.56H100.509V121H96.5608V122.56H95.3968V119.932H96.0448C96.2768 119.476 96.4488 119 96.5608 118.504C96.6808 118 96.7408 117.32 96.7408 116.464V114.916ZM107.725 121H106.501V115.984H104.737V117.748C104.737 118.38 104.693 118.912 104.605 119.344C104.517 119.776 104.385 120.112 104.209 120.352C104.033 120.584 103.829 120.752 103.597 120.856C103.373 120.952 103.105 121 102.793 121H102.217V119.92H102.409C102.537 119.92 102.645 119.912 102.733 119.896C102.821 119.872 102.921 119.816 103.033 119.728C103.153 119.632 103.245 119.504 103.309 119.344C103.381 119.176 103.441 118.932 103.489 118.612C103.537 118.284 103.561 117.896 103.561 117.448V114.916H107.725V121ZM112.893 117.748V115.9H111.465C111.153 115.9 110.909 115.984 110.733 116.152C110.557 116.32 110.469 116.548 110.469 116.836C110.469 117.124 110.557 117.348 110.733 117.508C110.909 117.668 111.153 117.748 111.465 117.748H112.893ZM110.613 121H109.209L110.529 118.504C110.137 118.392 109.829 118.184 109.605 117.88C109.381 117.576 109.269 117.208 109.269 116.776C109.269 116.224 109.449 115.776 109.809 115.432C110.177 115.088 110.653 114.916 111.237 114.916H114.105V121H112.881V118.732H111.765L110.613 121ZM29.1077 135H27.8837V129.984H25.4597V135H24.2357V128.916H29.1077V135ZM35.8454 132.312H31.8974C31.8974 132.848 32.0294 133.268 32.2934 133.572C32.5654 133.868 32.9494 134.016 33.4454 134.016C33.7734 134.016 34.0454 133.968 34.2614 133.872C34.4774 133.776 34.6974 133.616 34.9214 133.392L35.7014 134.124C35.3734 134.452 35.0374 134.692 34.6934 134.844C34.3574 134.996 33.9334 135.072 33.4214 135.072C32.5894 135.072 31.9254 134.824 31.4294 134.328C30.9334 133.832 30.6854 133.04 30.6854 131.952C30.6854 130.976 30.9174 130.216 31.3814 129.672C31.8454 129.12 32.4734 128.844 33.2654 128.844C34.0734 128.844 34.7054 129.112 35.1614 129.648C35.6174 130.184 35.8454 130.9 35.8454 131.796V132.312ZM34.6334 131.46C34.6094 131.1 34.5534 130.824 34.4654 130.632C34.2334 130.12 33.8334 129.864 33.2654 129.864C32.6894 129.864 32.2854 130.12 32.0534 130.632C31.9574 130.84 31.9054 131.116 31.8974 131.46H34.6334ZM42.4461 131.952C42.4461 133.208 42.2181 134.068 41.7621 134.532C41.4021 134.892 40.9101 135.072 40.2861 135.072C39.6061 135.072 39.0741 134.84 38.6901 134.376V137.46H37.4661V128.916H38.6661V129.564C39.0661 129.084 39.6021 128.844 40.2741 128.844C40.9061 128.844 41.4021 129.024 41.7621 129.384C42.2181 129.848 42.4461 130.704 42.4461 131.952ZM41.1741 132.732C41.2061 132.516 41.2221 132.256 41.2221 131.952C41.2221 131.648 41.2061 131.388 41.1741 131.172C41.1501 130.956 41.0941 130.748 41.0061 130.548C40.9261 130.348 40.7981 130.196 40.6221 130.092C40.4461 129.988 40.2261 129.936 39.9621 129.936C39.6901 129.936 39.4661 129.988 39.2901 130.092C39.1141 130.196 38.9821 130.348 38.8941 130.548C38.8141 130.748 38.7581 130.956 38.7261 131.172C38.7021 131.388 38.6901 131.648 38.6901 131.952C38.6901 132.256 38.7021 132.516 38.7261 132.732C38.7581 132.948 38.8141 133.16 38.8941 133.368C38.9821 133.568 39.1141 133.72 39.2901 133.824C39.4741 133.928 39.6981 133.98 39.9621 133.98C40.2261 133.98 40.4461 133.928 40.6221 133.824C40.7981 133.72 40.9261 133.568 41.0061 133.368C41.0941 133.16 41.1501 132.948 41.1741 132.732ZM48.947 132.312H44.999C44.999 132.848 45.131 133.268 45.395 133.572C45.667 133.868 46.051 134.016 46.547 134.016C46.875 134.016 47.147 133.968 47.363 133.872C47.579 133.776 47.799 133.616 48.023 133.392L48.803 134.124C48.475 134.452 48.139 134.692 47.795 134.844C47.459 134.996 47.035 135.072 46.523 135.072C45.691 135.072 45.027 134.824 44.531 134.328C44.035 133.832 43.787 133.04 43.787 131.952C43.787 130.976 44.019 130.216 44.483 129.672C44.947 129.12 45.575 128.844 46.367 128.844C47.175 128.844 47.807 129.112 48.263 129.648C48.719 130.184 48.947 130.9 48.947 131.796V132.312ZM47.735 131.46C47.711 131.1 47.655 130.824 47.567 130.632C47.335 130.12 46.935 129.864 46.367 129.864C45.791 129.864 45.387 130.12 45.155 130.632C45.059 130.84 45.007 131.116 44.999 131.46H47.735ZM52.9197 133.968C53.3037 133.968 53.6037 133.848 53.8197 133.608C54.0757 133.304 54.2037 132.764 54.2037 131.988C54.2037 131.18 54.0797 130.636 53.8317 130.356C53.5997 130.1 53.2957 129.972 52.9197 129.972C52.5277 129.972 52.2197 130.1 51.9957 130.356C51.7237 130.668 51.5877 131.204 51.5877 131.964C51.5877 132.732 51.7317 133.28 52.0197 133.608C52.2517 133.848 52.5517 133.968 52.9197 133.968ZM52.9317 135.072C52.4197 135.072 51.9717 134.964 51.5877 134.748C51.2037 134.532 50.9197 134.22 50.7357 133.812C50.4957 133.3 50.3757 132.404 50.3757 131.124C50.3757 129.796 50.4317 128.884 50.5437 128.388C50.6557 127.892 50.9037 127.48 51.2877 127.152C51.5357 126.936 51.8597 126.772 52.2597 126.66C52.6677 126.548 53.0397 126.48 53.3757 126.456C53.7197 126.432 54.2397 126.408 54.9357 126.384V127.464C54.8157 127.472 54.5997 127.484 54.2877 127.5C53.9757 127.516 53.7197 127.532 53.5197 127.548C53.3197 127.564 53.0917 127.604 52.8357 127.668C52.5797 127.732 52.3717 127.82 52.2117 127.932C51.9317 128.116 51.7397 128.348 51.6357 128.628C51.5317 128.9 51.4797 129.264 51.4797 129.72C51.6077 129.48 51.8237 129.288 52.1277 129.144C52.4397 129 52.7797 128.928 53.1477 128.928C53.7717 128.928 54.2677 129.1 54.6357 129.444C55.1637 129.94 55.4277 130.772 55.4277 131.94C55.4277 133.068 55.1797 133.884 54.6837 134.388C54.2437 134.844 53.6597 135.072 52.9317 135.072ZM58.2839 135H57.0599V128.916H58.2839V135ZM58.3199 127.716H57.0239V126.42H58.3199V127.716ZM65.204 131.952C65.204 133.208 64.976 134.068 64.52 134.532C64.16 134.892 63.668 135.072 63.044 135.072C62.364 135.072 61.832 134.84 61.448 134.376V137.46H60.224V128.916H61.424V129.564C61.824 129.084 62.36 128.844 63.032 128.844C63.664 128.844 64.16 129.024 64.52 129.384C64.976 129.848 65.204 130.704 65.204 131.952ZM63.932 132.732C63.964 132.516 63.98 132.256 63.98 131.952C63.98 131.648 63.964 131.388 63.932 131.172C63.908 130.956 63.852 130.748 63.764 130.548C63.684 130.348 63.556 130.196 63.38 130.092C63.204 129.988 62.984 129.936 62.72 129.936C62.448 129.936 62.224 129.988 62.048 130.092C61.872 130.196 61.74 130.348 61.652 130.548C61.572 130.748 61.516 130.956 61.484 131.172C61.46 131.388 61.448 131.648 61.448 131.952C61.448 132.256 61.46 132.516 61.484 132.732C61.516 132.948 61.572 133.16 61.652 133.368C61.74 133.568 61.872 133.72 62.048 133.824C62.232 133.928 62.456 133.98 62.72 133.98C62.984 133.98 63.204 133.928 63.38 133.824C63.556 133.72 63.684 133.568 63.764 133.368C63.852 133.16 63.908 132.948 63.932 132.732ZM71.3384 135H70.1144V129.984H68.3504V131.748C68.3504 132.38 68.3064 132.912 68.2184 133.344C68.1304 133.776 67.9984 134.112 67.8224 134.352C67.6464 134.584 67.4424 134.752 67.2104 134.856C66.9864 134.952 66.7184 135 66.4064 135H65.8304V133.92H66.0224C66.1504 133.92 66.2584 133.912 66.3464 133.896C66.4344 133.872 66.5344 133.816 66.6464 133.728C66.7664 133.632 66.8584 133.504 66.9224 133.344C66.9944 133.176 67.0544 132.932 67.1024 132.612C67.1504 132.284 67.1744 131.896 67.1744 131.448V128.916H71.3384V135ZM78.3424 135H77.1184V130.812L74.5144 135H73.2904V128.916H74.5144V133.044L77.1184 128.916H78.3424V135ZM85.1345 133.284C85.1345 133.812 84.9705 134.232 84.6425 134.544C84.3145 134.848 83.8665 135 83.2985 135H80.2865V128.916H83.2025C83.7625 128.916 84.2065 129.064 84.5345 129.36C84.8705 129.656 85.0385 130.052 85.0385 130.548C85.0385 131.156 84.7545 131.592 84.1865 131.856C84.8185 132.144 85.1345 132.62 85.1345 133.284ZM83.8385 130.632C83.8385 130.392 83.7585 130.208 83.5985 130.08C83.4465 129.944 83.2265 129.876 82.9385 129.876H81.4985V131.412H82.9385C83.5385 131.412 83.8385 131.152 83.8385 130.632ZM83.9345 133.2C83.9345 132.936 83.8505 132.732 83.6825 132.588C83.5225 132.436 83.2985 132.36 83.0105 132.36H81.4985V134.04H83.0105C83.2985 134.04 83.5225 133.964 83.6825 133.812C83.8505 133.66 83.9345 133.456 83.9345 133.2ZM91.5549 131.952C91.5549 132.512 91.5029 132.98 91.3989 133.356C91.2949 133.732 91.1069 134.064 90.8349 134.352C90.3709 134.832 89.7629 135.072 89.0109 135.072C88.2669 135.072 87.6629 134.832 87.1989 134.352C86.9269 134.064 86.7389 133.732 86.6349 133.356C86.5309 132.98 86.4789 132.512 86.4789 131.952C86.4789 131.4 86.5309 130.936 86.6349 130.56C86.7389 130.176 86.9269 129.844 87.1989 129.564C87.6629 129.084 88.2669 128.844 89.0109 128.844C89.7629 128.844 90.3709 129.084 90.8349 129.564C91.1069 129.844 91.2949 130.176 91.3989 130.56C91.5029 130.936 91.5549 131.4 91.5549 131.952ZM89.9109 133.62C90.1909 133.34 90.3309 132.784 90.3309 131.952C90.3309 131.12 90.1909 130.564 89.9109 130.284C89.6789 130.052 89.3789 129.936 89.0109 129.936C88.6509 129.936 88.3549 130.052 88.1229 130.284C87.8429 130.564 87.7029 131.12 87.7029 131.952C87.7029 132.784 87.8429 133.34 88.1229 133.62C88.3629 133.86 88.6589 133.98 89.0109 133.98C89.3709 133.98 89.6709 133.86 89.9109 133.62ZM97.2082 129.984H94.4842V135H93.2602V128.916H97.2082V129.984ZM103.051 131.952C103.051 132.512 102.999 132.98 102.895 133.356C102.791 133.732 102.603 134.064 102.331 134.352C101.867 134.832 101.259 135.072 100.507 135.072C99.763 135.072 99.159 134.832 98.695 134.352C98.423 134.064 98.235 133.732 98.131 133.356C98.027 132.98 97.975 132.512 97.975 131.952C97.975 131.4 98.027 130.936 98.131 130.56C98.235 130.176 98.423 129.844 98.695 129.564C99.159 129.084 99.763 128.844 100.507 128.844C101.259 128.844 101.867 129.084 102.331 129.564C102.603 129.844 102.791 130.176 102.895 130.56C102.999 130.936 103.051 131.4 103.051 131.952ZM101.407 133.62C101.687 133.34 101.827 132.784 101.827 131.952C101.827 131.12 101.687 130.564 101.407 130.284C101.175 130.052 100.875 129.936 100.507 129.936C100.147 129.936 99.851 130.052 99.619 130.284C99.339 130.564 99.199 131.12 99.199 131.952C99.199 132.784 99.339 133.34 99.619 133.62C99.859 133.86 100.155 133.98 100.507 133.98C100.867 133.98 101.167 133.86 101.407 133.62ZM12.9617 149H11.7617V148.448C11.5377 148.672 11.3017 148.832 11.0537 148.928C10.8137 149.024 10.5097 149.072 10.1417 149.072C9.42167 149.072 8.87767 148.888 8.50967 148.52C8.18967 148.184 8.02967 147.748 8.02967 147.212C8.02967 146.684 8.20967 146.26 8.56967 145.94C8.93767 145.62 9.46167 145.46 10.1417 145.46H11.7377V145.028C11.7377 144.636 11.6337 144.348 11.4257 144.164C11.2177 143.98 10.8777 143.888 10.4057 143.888C10.0857 143.888 9.82567 143.936 9.62567 144.032C9.43367 144.12 9.24967 144.272 9.07367 144.488L8.28167 143.732C8.56167 143.404 8.86167 143.176 9.18167 143.048C9.50967 142.912 9.93367 142.844 10.4537 142.844C12.1257 142.844 12.9617 143.54 12.9617 144.932V149ZM11.7377 146.804V146.312H10.3337C9.58967 146.312 9.21767 146.604 9.21767 147.188C9.21767 147.764 9.60167 148.052 10.3697 148.052C10.8577 148.052 11.2257 147.936 11.4737 147.704C11.6497 147.536 11.7377 147.236 11.7377 146.804ZM19.721 149H18.497V143.984H16.073V149H14.849V142.916H19.721V149ZM26.4587 146.312H22.5107C22.5107 146.848 22.6427 147.268 22.9067 147.572C23.1787 147.868 23.5627 148.016 24.0587 148.016C24.3867 148.016 24.6587 147.968 24.8747 147.872C25.0907 147.776 25.3107 147.616 25.5347 147.392L26.3147 148.124C25.9867 148.452 25.6507 148.692 25.3067 148.844C24.9707 148.996 24.5467 149.072 24.0347 149.072C23.2027 149.072 22.5387 148.824 22.0427 148.328C21.5467 147.832 21.2987 147.04 21.2987 145.952C21.2987 144.976 21.5307 144.216 21.9947 143.672C22.4587 143.12 23.0867 142.844 23.8787 142.844C24.6867 142.844 25.3187 143.112 25.7747 143.648C26.2307 144.184 26.4587 144.9 26.4587 145.796V146.312ZM25.2467 145.46C25.2227 145.1 25.1667 144.824 25.0787 144.632C24.8467 144.12 24.4467 143.864 23.8787 143.864C23.3027 143.864 22.8987 144.12 22.6667 144.632C22.5707 144.84 22.5187 145.116 22.5107 145.46H25.2467ZM32.1968 143.984H30.3368V149H29.1128V143.984H27.1808V142.916H32.1968V143.984ZM38.358 149H37.134V144.812L34.53 149H33.306V142.916H34.53V147.044L37.134 142.916H38.358V149ZM44.4195 143.984H42.5595V149H41.3355V143.984H39.4035V142.916H44.4195V143.984ZM50.4879 142.916L47.7999 150.212C47.5119 151.012 46.9479 151.412 46.1079 151.412H45.6159V150.308H45.9279C46.1839 150.308 46.3719 150.264 46.4919 150.176C46.6119 150.096 46.7159 149.928 46.8039 149.672L47.1399 148.712L45.0039 142.916H46.3119L47.7639 147.212L49.1799 142.916H50.4879ZM58.8272 148.208C58.2832 148.784 57.6152 149.072 56.8232 149.072C56.4632 149.072 56.1272 149.016 55.8152 148.904C55.5032 148.784 55.2152 148.608 54.9512 148.376C54.6952 148.136 54.4912 147.812 54.3392 147.404C54.1872 146.988 54.1112 146.504 54.1112 145.952C54.1112 145.4 54.1872 144.92 54.3392 144.512C54.4912 144.096 54.6952 143.772 54.9512 143.54C55.2152 143.3 55.5032 143.124 55.8152 143.012C56.1272 142.9 56.4632 142.844 56.8232 142.844C57.6232 142.844 58.2912 143.128 58.8272 143.696L57.9872 144.512C57.7952 144.304 57.6112 144.156 57.4352 144.068C57.2672 143.98 57.0632 143.936 56.8232 143.936C56.3432 143.936 55.9672 144.116 55.6952 144.476C55.4552 144.78 55.3352 145.272 55.3352 145.952C55.3352 146.64 55.4552 147.136 55.6952 147.44C55.9672 147.8 56.3432 147.98 56.8232 147.98C57.0632 147.98 57.2672 147.936 57.4352 147.848C57.6112 147.76 57.7952 147.612 57.9872 147.404L58.8272 148.208ZM64.8434 142.916L62.1554 150.212C61.8674 151.012 61.3034 151.412 60.4634 151.412H59.9714V150.308H60.2834C60.5394 150.308 60.7274 150.264 60.8474 150.176C60.9674 150.096 61.0714 149.928 61.1594 149.672L61.4954 148.712L59.3594 142.916H60.6674L62.1194 147.212L63.5354 142.916H64.8434ZM67.1558 149H65.9198V142.916H67.1558V149ZM71.1278 149H69.6278L67.1678 145.832L69.4838 142.916H70.9478L68.5238 145.772L71.1278 149ZM79.8259 147.284C79.8259 147.812 79.6619 148.232 79.3339 148.544C79.0059 148.848 78.5579 149 77.9899 149H74.9779V142.916H77.8939C78.4539 142.916 78.8979 143.064 79.2259 143.36C79.5619 143.656 79.7299 144.052 79.7299 144.548C79.7299 145.156 79.4459 145.592 78.8779 145.856C79.5099 146.144 79.8259 146.62 79.8259 147.284ZM78.5299 144.632C78.5299 144.392 78.4499 144.208 78.2899 144.08C78.1379 143.944 77.9179 143.876 77.6299 143.876H76.1899V145.412H77.6299C78.2299 145.412 78.5299 145.152 78.5299 144.632ZM78.6259 147.2C78.6259 146.936 78.5419 146.732 78.3739 146.588C78.2139 146.436 77.9899 146.36 77.7019 146.36H76.1899V148.04H77.7019C77.9899 148.04 78.2139 147.964 78.3739 147.812C78.5419 147.66 78.6259 147.456 78.6259 147.2ZM89.2717 149H88.0477V143.984H85.6237V149H84.3997V142.916H89.2717V149ZM96.0095 146.312H92.0615C92.0615 146.848 92.1935 147.268 92.4575 147.572C92.7295 147.868 93.1135 148.016 93.6095 148.016C93.9375 148.016 94.2095 147.968 94.4255 147.872C94.6415 147.776 94.8615 147.616 95.0855 147.392L95.8655 148.124C95.5375 148.452 95.2015 148.692 94.8575 148.844C94.5215 148.996 94.0975 149.072 93.5855 149.072C92.7535 149.072 92.0895 148.824 91.5935 148.328C91.0975 147.832 90.8495 147.04 90.8495 145.952C90.8495 144.976 91.0815 144.216 91.5455 143.672C92.0095 143.12 92.6375 142.844 93.4295 142.844C94.2375 142.844 94.8695 143.112 95.3255 143.648C95.7815 144.184 96.0095 144.9 96.0095 145.796V146.312ZM94.7975 145.46C94.7735 145.1 94.7175 144.824 94.6295 144.632C94.3975 144.12 93.9975 143.864 93.4295 143.864C92.8535 143.864 92.4495 144.12 92.2175 144.632C92.1215 144.84 92.0695 145.116 92.0615 145.46H94.7975ZM102.61 145.952C102.61 147.208 102.382 148.068 101.926 148.532C101.566 148.892 101.074 149.072 100.45 149.072C99.7702 149.072 99.2382 148.84 98.8542 148.376V151.46H97.6302V142.916H98.8302V143.564C99.2302 143.084 99.7662 142.844 100.438 142.844C101.07 142.844 101.566 143.024 101.926 143.384C102.382 143.848 102.61 144.704 102.61 145.952ZM101.338 146.732C101.37 146.516 101.386 146.256 101.386 145.952C101.386 145.648 101.37 145.388 101.338 145.172C101.314 144.956 101.258 144.748 101.17 144.548C101.09 144.348 100.962 144.196 100.786 144.092C100.61 143.988 100.39 143.936 100.126 143.936C99.8542 143.936 99.6302 143.988 99.4542 144.092C99.2782 144.196 99.1462 144.348 99.0582 144.548C98.9782 144.748 98.9222 144.956 98.8902 145.172C98.8662 145.388 98.8542 145.648 98.8542 145.952C98.8542 146.256 98.8662 146.516 98.8902 146.732C98.9222 146.948 98.9782 147.16 99.0582 147.368C99.1462 147.568 99.2782 147.72 99.4542 147.824C99.6382 147.928 99.8622 147.98 100.126 147.98C100.39 147.98 100.61 147.928 100.786 147.824C100.962 147.72 101.09 147.568 101.17 147.368C101.258 147.16 101.314 146.948 101.338 146.732ZM105.487 149H104.263V142.916H105.487V149ZM105.523 141.716H104.227V140.42H105.523V141.716ZM112.215 145.952C112.215 146.512 112.163 146.98 112.059 147.356C111.955 147.732 111.767 148.064 111.495 148.352C111.031 148.832 110.423 149.072 109.671 149.072C108.927 149.072 108.323 148.832 107.859 148.352C107.587 148.064 107.399 147.732 107.295 147.356C107.191 146.98 107.139 146.512 107.139 145.952C107.139 145.4 107.191 144.936 107.295 144.56C107.399 144.176 107.587 143.844 107.859 143.564C108.323 143.084 108.927 142.844 109.671 142.844C110.423 142.844 111.031 143.084 111.495 143.564C111.767 143.844 111.955 144.176 112.059 144.56C112.163 144.936 112.215 145.4 112.215 145.952ZM110.571 147.62C110.851 147.34 110.991 146.784 110.991 145.952C110.991 145.12 110.851 144.564 110.571 144.284C110.339 144.052 110.039 143.936 109.671 143.936C109.311 143.936 109.015 144.052 108.783 144.284C108.503 144.564 108.363 145.12 108.363 145.952C108.363 146.784 108.503 147.34 108.783 147.62C109.023 147.86 109.319 147.98 109.671 147.98C110.031 147.98 110.331 147.86 110.571 147.62ZM115.354 143.984V144.956C115.354 146.116 115.162 147.108 114.778 147.932H117.07V143.984H115.354ZM114.19 142.916H118.294V147.932H119.134V150.56H117.958V149H114.01V150.56H112.846V147.932H113.494C113.726 147.476 113.898 147 114.01 146.504C114.13 146 114.19 145.32 114.19 144.464V142.916ZM35.5262 159.952C35.5262 161.208 35.2982 162.068 34.8422 162.532C34.4822 162.892 33.9902 163.072 33.3662 163.072C32.6862 163.072 32.1542 162.84 31.7702 162.376V165.46H30.5462V156.916H31.7462V157.564C32.1462 157.084 32.6822 156.844 33.3542 156.844C33.9862 156.844 34.4822 157.024 34.8422 157.384C35.2982 157.848 35.5262 158.704 35.5262 159.952ZM34.2542 160.732C34.2862 160.516 34.3022 160.256 34.3022 159.952C34.3022 159.648 34.2862 159.388 34.2542 159.172C34.2302 158.956 34.1742 158.748 34.0862 158.548C34.0062 158.348 33.8782 158.196 33.7022 158.092C33.5262 157.988 33.3062 157.936 33.0422 157.936C32.7702 157.936 32.5462 157.988 32.3702 158.092C32.1942 158.196 32.0622 158.348 31.9742 158.548C31.8942 158.748 31.8382 158.956 31.8062 159.172C31.7822 159.388 31.7702 159.648 31.7702 159.952C31.7702 160.256 31.7822 160.516 31.8062 160.732C31.8382 160.948 31.8942 161.16 31.9742 161.368C32.0622 161.568 32.1942 161.72 32.3702 161.824C32.5542 161.928 32.7782 161.98 33.0422 161.98C33.3062 161.98 33.5262 161.928 33.7022 161.824C33.8782 161.72 34.0062 161.568 34.0862 161.368C34.1742 161.16 34.2302 160.948 34.2542 160.732ZM42.027 160.312H38.079C38.079 160.848 38.211 161.268 38.475 161.572C38.747 161.868 39.131 162.016 39.627 162.016C39.955 162.016 40.227 161.968 40.443 161.872C40.659 161.776 40.879 161.616 41.103 161.392L41.883 162.124C41.555 162.452 41.219 162.692 40.875 162.844C40.539 162.996 40.115 163.072 39.603 163.072C38.771 163.072 38.107 162.824 37.611 162.328C37.115 161.832 36.867 161.04 36.867 159.952C36.867 158.976 37.099 158.216 37.563 157.672C38.027 157.12 38.655 156.844 39.447 156.844C40.255 156.844 40.887 157.112 41.343 157.648C41.799 158.184 42.027 158.9 42.027 159.796V160.312ZM40.815 159.46C40.791 159.1 40.735 158.824 40.647 158.632C40.415 158.12 40.015 157.864 39.447 157.864C38.871 157.864 38.467 158.12 38.235 158.632C38.139 158.84 38.087 159.116 38.079 159.46H40.815ZM48.5198 163H47.2958V157.984H44.8718V163H43.6478V156.916H48.5198V163ZM55.3895 159.952C55.3895 161.208 55.1615 162.068 54.7055 162.532C54.3455 162.892 53.8535 163.072 53.2295 163.072C52.5495 163.072 52.0175 162.84 51.6335 162.376V165.46H50.4095V156.916H51.6095V157.564C52.0095 157.084 52.5455 156.844 53.2175 156.844C53.8495 156.844 54.3455 157.024 54.7055 157.384C55.1615 157.848 55.3895 158.704 55.3895 159.952ZM54.1175 160.732C54.1495 160.516 54.1655 160.256 54.1655 159.952C54.1655 159.648 54.1495 159.388 54.1175 159.172C54.0935 158.956 54.0375 158.748 53.9495 158.548C53.8695 158.348 53.7415 158.196 53.5655 158.092C53.3895 157.988 53.1695 157.936 52.9055 157.936C52.6335 157.936 52.4095 157.988 52.2335 158.092C52.0575 158.196 51.9255 158.348 51.8375 158.548C51.7575 158.748 51.7015 158.956 51.6695 159.172C51.6455 159.388 51.6335 159.648 51.6335 159.952C51.6335 160.256 51.6455 160.516 51.6695 160.732C51.7015 160.948 51.7575 161.16 51.8375 161.368C51.9255 161.568 52.0575 161.72 52.2335 161.824C52.4175 161.928 52.6415 161.98 52.9055 161.98C53.1695 161.98 53.3895 161.928 53.5655 161.824C53.7415 161.72 53.8695 161.568 53.9495 161.368C54.0375 161.16 54.0935 160.948 54.1175 160.732ZM61.8303 159.952C61.8303 160.512 61.7783 160.98 61.6743 161.356C61.5703 161.732 61.3823 162.064 61.1103 162.352C60.6463 162.832 60.0383 163.072 59.2863 163.072C58.5423 163.072 57.9383 162.832 57.4743 162.352C57.2023 162.064 57.0143 161.732 56.9103 161.356C56.8063 160.98 56.7543 160.512 56.7543 159.952C56.7543 159.4 56.8063 158.936 56.9103 158.56C57.0143 158.176 57.2023 157.844 57.4743 157.564C57.9383 157.084 58.5423 156.844 59.2863 156.844C60.0383 156.844 60.6463 157.084 61.1103 157.564C61.3823 157.844 61.5703 158.176 61.6743 158.56C61.7783 158.936 61.8303 159.4 61.8303 159.952ZM60.1863 161.62C60.4663 161.34 60.6063 160.784 60.6063 159.952C60.6063 159.12 60.4663 158.564 60.1863 158.284C59.9543 158.052 59.6543 157.936 59.2863 157.936C58.9263 157.936 58.6303 158.052 58.3983 158.284C58.1183 158.564 57.9783 159.12 57.9783 159.952C57.9783 160.784 58.1183 161.34 58.3983 161.62C58.6383 161.86 58.9343 161.98 59.2863 161.98C59.6463 161.98 59.9463 161.86 60.1863 161.62ZM64.9693 157.984V158.956C64.9693 160.116 64.7773 161.108 64.3933 161.932H66.6853V157.984H64.9693ZM63.8053 156.916H67.9093V161.932H68.7493V164.56H67.5733V163H63.6253V164.56H62.4613V161.932H63.1093C63.3413 161.476 63.5133 161 63.6253 160.504C63.7453 160 63.8053 159.32 63.8053 158.464V156.916ZM74.4352 156.916L71.7472 164.212C71.4592 165.012 70.8952 165.412 70.0552 165.412H69.5632V164.308H69.8752C70.1312 164.308 70.3192 164.264 70.4392 164.176C70.5592 164.096 70.6632 163.928 70.7512 163.672L71.0872 162.712L68.9512 156.916H70.2592L71.7112 161.212L73.1272 156.916H74.4352ZM76.7476 163H75.5116V156.916H76.7476V163ZM80.7196 163H79.2196L76.7596 159.832L79.0756 156.916H80.5396L78.1156 159.772L80.7196 163ZM87.4228 164.56H86.2468V163H81.6868V156.916H82.9108V161.932H85.3348V156.916H86.5588V161.932H87.4228V164.56ZM89.9538 163H88.7298V156.916H89.9538V163ZM89.9898 155.716H88.6938V154.42H89.9898V155.716ZM93.1179 163H91.8939V156.916H93.1179V163ZM94.3539 155.752H93.2499V154.456H94.3539V155.752ZM91.7619 155.752H90.6579V154.456H91.7619V155.752ZM96.4859 163H95.0219V161.536H96.4859V163Z" fill="#E2001A"/>
<path d="M63.7333 39.1405C59.6317 39.1405 46 38.7786 46 34.0739C46 33.8326 46.1206 33.4707 46.2413 33.2295L48.654 26.112C49.0159 24.0612 52.273 22.7343 58.7872 22.2517C60.9587 22.1311 67.2317 22.1311 68.7999 22.2517C75.3142 22.7343 78.5713 24.0612 78.8126 26.2327L81.3459 33.4707C81.4665 33.5914 81.4665 33.8326 81.4665 34.0739C81.4665 38.7786 67.8348 39.1405 63.7333 39.1405ZM63.492 23.4581C61.6825 23.4581 59.7523 23.4581 58.7872 23.5787C53.3587 24.0612 49.9809 25.147 49.7397 26.4739L47.2063 33.712C47.0857 33.8326 47.0857 33.9533 47.0857 34.0739C47.0857 36.6072 55.4095 37.9342 63.6126 37.9342C71.8158 37.9342 80.1395 36.6072 80.1395 34.0739V33.9533L77.6062 26.5946C77.3649 25.0263 73.9872 23.9406 68.6793 23.5787C67.8348 23.4581 65.6634 23.4581 63.492 23.4581Z" fill="#E2001A"/>
<path d="M63.733 28.766C62.2853 28.766 49.2568 28.6453 49.2568 25.7501C49.2568 22.8549 62.2853 22.7343 63.733 22.7343C65.1806 22.7343 78.2091 22.8549 78.2091 25.7501C78.2091 28.6453 65.1806 28.766 63.733 28.766ZM63.733 23.9406C55.5298 23.9406 50.8251 25.1469 50.4632 25.7501C50.8251 26.3533 55.5298 27.5596 63.733 27.5596C71.6948 27.5596 76.3996 26.4739 77.0027 25.7501C76.3996 25.1469 71.6948 23.9406 63.733 23.9406Z" fill="#E2001A"/>
<path d="M69.4028 25.7502C70.4688 25.7502 71.333 25.2641 71.333 24.6644C71.333 24.0648 70.4688 23.5787 69.4028 23.5787C68.3368 23.5787 67.4727 24.0648 67.4727 24.6644C67.4727 25.2641 68.3368 25.7502 69.4028 25.7502Z" fill="#E2001A"/>
<path d="M69.4033 25.9914C68.197 25.9914 67.3525 25.3883 67.3525 24.7851C67.3525 24.1819 68.3176 23.5787 69.4033 23.5787C70.6097 23.5787 71.4541 24.1819 71.4541 24.7851C71.4541 25.3883 70.489 25.9914 69.4033 25.9914ZM69.4033 23.6994C68.4382 23.6994 67.5938 24.1819 67.5938 24.6644C67.5938 25.147 68.4382 25.6295 69.4033 25.6295C70.3684 25.6295 71.2128 25.147 71.2128 24.6644C71.2128 24.1819 70.3684 23.6994 69.4033 23.6994Z" fill="white"/>
<path d="M74.108 25.0264C73.9874 25.0264 73.8668 25.0264 73.7461 25.0264C73.7461 24.6645 73.143 24.4232 72.4192 24.4232C72.2985 24.4232 72.1779 24.4232 72.0572 24.4232V24.3026C72.0572 23.9407 71.4541 23.6994 70.7303 23.6994C70.6096 23.6994 70.489 23.6994 70.3684 23.6994V23.5788C70.3684 23.2169 69.7652 22.855 69.0414 22.855C68.9208 22.855 68.8001 22.855 68.6795 22.855V22.7343C68.6795 22.3724 68.0763 22.1311 67.3525 22.1311C67.2319 22.1311 67.1112 22.1311 66.9906 22.1311V22.0105C66.9906 21.6486 66.3874 21.4073 65.6636 21.4073C65.4224 21.4073 65.3017 21.4073 65.1811 21.4073C65.1811 21.0454 64.5779 20.8042 63.8541 20.8042C63.7335 20.8042 63.6128 20.8042 63.4922 20.8042C63.2509 20.6835 62.889 20.6835 62.6478 20.6835C61.924 20.6835 61.3208 20.9248 61.3208 21.2867C61.2002 21.2867 61.0795 21.2867 60.9589 21.2867C60.2351 21.2867 59.6319 21.6486 59.6319 21.8899V22.0105C59.5113 22.0105 59.3906 22.0105 59.27 22.0105C58.5462 22.0105 57.943 22.2518 57.943 22.6137V22.7343C57.8224 22.7343 57.7018 22.7343 57.5811 22.7343C56.8573 22.7343 56.2541 22.9756 56.2541 23.4581V23.5788C56.1335 23.5788 56.0129 23.5788 55.8922 23.5788C55.1684 23.5788 54.5653 23.82 54.5653 24.1819V24.3026C54.4446 24.3026 54.324 24.3026 54.2034 24.3026C53.4796 24.3026 52.8764 24.5438 52.8764 24.9057C52.7557 24.9057 52.6351 24.9057 52.5145 24.9057C51.7907 24.9057 51.1875 25.147 51.1875 25.5089C51.1875 25.8708 51.7907 26.1121 52.5145 26.3533C52.8764 26.474 53.3589 26.5946 53.9621 26.8359C55.2891 27.3184 57.943 27.5597 59.27 27.4391L66.6287 27.5597C66.87 27.5597 67.1112 27.5597 67.2319 27.5597C68.3176 27.4391 70.9715 27.1978 71.816 26.9565C72.4192 26.8359 73.2636 26.3533 73.5049 26.2327C74.2287 25.9914 74.8318 25.9914 74.8318 25.5089C75.435 25.2676 74.8318 25.0264 74.108 25.0264Z" fill="#E2001A"/>
<path d="M67.2323 27.801L59.8736 27.6803C58.426 27.6803 55.772 27.5597 54.445 26.9565C54.0831 26.8359 53.8419 26.7152 53.6006 26.7152C53.3593 26.5946 53.2387 26.5946 52.9974 26.474C52.153 26.1121 51.5498 25.8708 51.5498 25.3883C51.5498 24.9057 52.153 24.5438 52.9974 24.5438C53.1181 24.5438 53.1181 24.5438 53.2387 24.5438C53.3593 24.1819 53.9625 23.9407 54.6863 23.9407H54.8069C54.8069 23.4581 55.4101 23.2169 56.2545 23.2169C56.3752 23.2169 56.3752 23.2169 56.3752 23.2169C56.4958 22.7343 57.099 22.493 57.8228 22.493C57.9434 22.493 57.9434 22.493 57.9434 22.493C57.9434 22.0105 58.6672 21.7692 59.391 21.7692H59.5117C59.6323 21.4073 60.2355 21.0454 60.9593 21.0454C61.0799 21.0454 61.0799 21.0454 61.2006 21.0454C61.3212 20.6835 61.9244 20.4423 62.6482 20.4423C63.0101 20.4423 63.2513 20.4423 63.4926 20.5629C63.6132 20.5629 63.7339 20.5629 63.8545 20.5629C64.5783 20.5629 65.1815 20.8042 65.3021 21.1661C65.4228 21.1661 65.5434 21.1661 65.664 21.1661C66.3878 21.1661 67.1116 21.528 67.1116 21.8899H67.2323C68.0767 21.8899 68.6799 22.2518 68.6799 22.6137H68.8005C69.5243 22.6137 70.2481 22.9756 70.2481 23.3375H70.3688C71.2132 23.3375 71.8164 23.6994 71.8164 24.0613C71.937 24.0613 71.937 24.0613 72.0576 24.0613C72.7815 24.0613 73.3846 24.3026 73.5053 24.6645C73.5053 24.6645 73.6259 24.6645 73.7465 24.6645C74.591 24.6645 75.1941 25.0264 75.1941 25.5089C75.1941 25.9914 74.7116 26.1121 74.1084 26.2327L73.8672 26.3533C73.7465 26.3533 73.5053 26.474 73.264 26.5946C72.9021 26.8359 72.4196 26.9565 72.0576 27.0772C71.5751 27.1978 70.3688 27.3184 69.1624 27.4391C68.4386 27.5597 67.8354 27.5597 67.4735 27.6803C67.5942 27.801 67.4735 27.801 67.2323 27.801ZM59.7529 27.4391L67.1116 27.5597C67.3529 27.5597 67.4735 27.5597 67.7148 27.5597C68.1973 27.5597 68.8005 27.4391 69.4037 27.3184C70.4894 27.1978 71.6957 27.0772 72.1783 26.9565C72.5402 26.8359 72.9021 26.7152 73.264 26.474C73.5053 26.3533 73.7465 26.2327 73.8672 26.2327L74.1084 26.1121C74.591 25.9914 74.9529 25.8708 74.9529 25.6295C74.9529 25.3883 74.4703 25.147 73.7465 25.147C73.6259 25.147 73.5053 25.147 73.5053 25.147H73.3846V25.0264C73.3846 24.7851 72.9021 24.5438 72.2989 24.5438C72.1783 24.5438 72.0576 24.5438 71.937 24.5438H71.6957L71.8164 24.3026C71.8164 24.0613 71.3338 23.82 70.7307 23.82C70.61 23.82 70.4894 23.82 70.3688 23.82L70.2481 23.9407L70.3688 23.6994C70.3688 23.4581 69.8862 23.2169 69.1624 23.2169H69.0418H68.9212H68.8005V23.0962V22.9756C68.8005 22.7343 68.318 22.493 67.7148 22.493C67.5942 22.493 67.4735 22.493 67.4735 22.493L67.2323 22.6137V22.3724V22.2518C67.2323 22.0105 66.7497 21.7692 66.1466 21.7692C66.0259 21.7692 65.7847 21.7692 65.664 21.7692H65.4228V21.528C65.4228 21.2867 64.9402 21.0454 64.2164 21.0454C64.0958 21.0454 63.9751 21.0454 63.8545 21.0454C63.6132 20.9248 63.372 20.9248 63.0101 20.9248C62.2863 20.9248 61.9244 21.1661 61.9244 21.4073V21.6486H61.6831C61.5625 21.6486 61.5625 21.6486 61.4418 21.6486C60.8387 21.6486 60.2355 21.8899 60.2355 22.1311V22.2518V22.493H59.9942C59.8736 22.493 59.7529 22.493 59.6323 22.493C59.0291 22.493 58.5466 22.7343 58.5466 22.9756V23.0962V23.2169H58.3053C58.1847 23.2169 58.1847 23.2169 58.0641 23.2169C57.3403 23.2169 56.8577 23.4581 56.8577 23.6994L56.9784 23.9407H56.7371C56.6164 23.9407 56.4958 23.9407 56.3752 23.9407C55.6514 23.9407 55.2895 24.1819 55.2895 24.4232L55.4101 24.6645H55.1688C55.0482 24.6645 54.9276 24.6645 54.8069 24.6645C54.0831 24.6645 53.7212 24.9057 53.7212 25.147V25.2676H53.6006H53.48C53.48 25.2676 53.3593 25.2676 53.2387 25.2676C52.5149 25.2676 52.153 25.5089 52.153 25.7502C52.153 25.9914 52.9974 26.3533 53.3593 26.474C53.48 26.474 53.7212 26.5946 53.8419 26.5946C54.0831 26.7152 54.445 26.7152 54.6863 26.9565C55.772 27.1978 58.426 27.4391 59.7529 27.4391Z" fill="white"/>
<path d="M63.973 26.112C64.7725 26.112 65.4206 25.788 65.4206 25.3882C65.4206 24.9885 64.7725 24.6644 63.973 24.6644C63.1735 24.6644 62.5254 24.9885 62.5254 25.3882C62.5254 25.788 63.1735 26.112 63.973 26.112Z" fill="#E2001A"/>
<path d="M63.9735 26.2326C63.1291 26.2326 62.4053 25.8707 62.4053 25.3882C62.4053 24.9057 63.1291 24.5438 63.9735 24.5438C64.818 24.5438 65.5418 24.9057 65.5418 25.3882C65.5418 25.8707 64.818 26.2326 63.9735 26.2326ZM63.9735 24.785C63.2497 24.785 62.7672 25.0263 62.7672 25.3882C62.7672 25.7501 63.2497 25.9914 63.9735 25.9914C64.6973 25.9914 65.1799 25.7501 65.1799 25.3882C65.1799 25.0263 64.6973 24.785 63.9735 24.785Z" fill="white"/>
<path d="M65.6616 23.6993C66.7276 23.6993 67.5917 23.2132 67.5917 22.6136C67.5917 22.014 66.7276 21.5279 65.6616 21.5279C64.5956 21.5279 63.7314 22.014 63.7314 22.6136C63.7314 23.2132 64.5956 23.6993 65.6616 23.6993Z" fill="#E2001A"/>
<path d="M65.6621 23.82C64.4558 23.82 63.6113 23.2168 63.6113 22.6136C63.6113 21.8898 64.5764 21.4073 65.6621 21.4073C66.8685 21.4073 67.7129 22.0105 67.7129 22.6136C67.7129 23.3374 66.7478 23.82 65.6621 23.82ZM65.6621 21.6486C64.697 21.6486 63.8526 22.1311 63.8526 22.6136C63.8526 23.0962 64.697 23.5787 65.6621 23.5787C66.6272 23.5787 67.4716 23.0962 67.4716 22.6136C67.351 22.1311 66.5066 21.6486 65.6621 21.6486Z" fill="white"/>
<path d="M66.9907 24.5438C68.0567 24.5438 68.9208 24.0577 68.9208 23.4581C68.9208 22.8585 68.0567 22.3724 66.9907 22.3724C65.9247 22.3724 65.0605 22.8585 65.0605 23.4581C65.0605 24.0577 65.9247 24.5438 66.9907 24.5438Z" fill="#E2001A"/>
<path d="M66.9912 24.7851C65.7849 24.7851 64.9404 24.1819 64.9404 23.5787C64.9404 22.9755 65.9055 22.3724 66.9912 22.3724C68.1976 22.3724 69.042 22.9755 69.042 23.5787C69.042 24.1819 68.1976 24.7851 66.9912 24.7851ZM66.9912 22.6136C66.0261 22.6136 65.1817 23.0962 65.1817 23.5787C65.1817 24.0613 66.0261 24.5438 66.9912 24.5438C67.9563 24.5438 68.8007 24.0613 68.8007 23.5787C68.8007 23.0962 67.9563 22.6136 66.9912 22.6136Z" fill="white"/>
<path d="M70.6162 23.0049C70.7042 22.5469 70.0329 22.033 69.1168 21.8571C68.2008 21.6812 67.3869 21.9099 67.2989 22.3679C67.211 22.8259 67.8823 23.3398 68.7983 23.5157C69.7143 23.6916 70.5283 23.463 70.6162 23.0049Z" fill="#E2001A"/>
<path d="M69.2818 23.82C69.0405 23.82 68.9199 23.82 68.6786 23.6994C67.9548 23.5788 67.4723 23.2169 67.231 22.855C67.1104 22.6137 67.1104 22.4931 67.1104 22.2518C67.1104 22.0105 67.231 21.8899 67.4723 21.7692C67.8342 21.528 68.558 21.4073 69.1611 21.528C70.2468 21.7692 70.9707 22.3724 70.85 22.9756C70.85 23.2169 70.7294 23.3375 70.4881 23.4581C70.1262 23.6994 69.7643 23.82 69.2818 23.82ZM68.4373 22.0105C68.0754 22.0105 67.7135 22.1311 67.5929 22.2518C67.4723 22.3724 67.4723 22.3724 67.4723 22.4931C67.4723 22.6137 67.4723 22.7343 67.5929 22.7343C67.8342 22.9756 68.3167 23.3375 68.7992 23.4581C69.4024 23.5788 69.8849 23.4581 70.2468 23.3375C70.3675 23.2169 70.3675 23.2169 70.3675 23.0962C70.3675 22.7343 69.8849 22.2518 69.0405 22.1311C68.7992 22.0105 68.6786 22.0105 68.4373 22.0105Z" fill="white"/>
<path d="M65.0609 23.5787C65.8604 23.5787 66.5085 23.2547 66.5085 22.8549C66.5085 22.4552 65.8604 22.1311 65.0609 22.1311C64.2614 22.1311 63.6133 22.4552 63.6133 22.8549C63.6133 23.2547 64.2614 23.5787 65.0609 23.5787Z" fill="#E2001A"/>
<path d="M65.0614 23.6993C64.217 23.6993 63.4932 23.3374 63.4932 22.8549C63.4932 22.3723 64.217 22.0104 65.0614 22.0104C65.9059 22.0104 66.6297 22.3723 66.6297 22.8549C66.6297 23.3374 65.9059 23.6993 65.0614 23.6993ZM65.0614 22.2517C64.3376 22.2517 63.8551 22.493 63.8551 22.8549C63.8551 23.2168 64.3376 23.4581 65.0614 23.4581C65.7852 23.4581 66.2678 23.2168 66.2678 22.8549C66.2678 22.493 65.7852 22.2517 65.0614 22.2517Z" fill="white"/>
<path d="M67.472 25.0263C68.2715 25.0263 68.9196 24.7023 68.9196 24.3025C68.9196 23.9028 68.2715 23.5787 67.472 23.5787C66.6725 23.5787 66.0244 23.9028 66.0244 24.3025C66.0244 24.7023 66.6725 25.0263 67.472 25.0263Z" fill="#E2001A"/>
<path d="M67.4725 25.2676C66.6281 25.2676 65.9043 24.9057 65.9043 24.4232C65.9043 23.9406 66.6281 23.5787 67.4725 23.5787C68.317 23.5787 69.0408 23.9406 69.0408 24.4232C69.0408 24.9057 68.317 25.2676 67.4725 25.2676ZM67.4725 23.82C66.7487 23.82 66.2662 24.0613 66.2662 24.4232C66.2662 24.6644 66.7487 25.0263 67.4725 25.0263C68.1964 25.0263 68.6789 24.7851 68.6789 24.4232C68.6789 24.0613 68.1964 23.82 67.4725 23.82Z" fill="white"/>
<path d="M68.9203 25.9914C69.7198 25.9914 70.3679 25.6673 70.3679 25.2676C70.3679 24.8678 69.7198 24.5438 68.9203 24.5438C68.1208 24.5438 67.4727 24.8678 67.4727 25.2676C67.4727 25.6673 68.1208 25.9914 68.9203 25.9914Z" fill="#E2001A"/>
<path d="M68.9208 26.112C68.0763 26.112 67.3525 25.7501 67.3525 25.2676C67.3525 24.7851 68.0763 24.4232 68.9208 24.4232C69.7652 24.4232 70.489 24.7851 70.489 25.2676C70.489 25.7501 69.7652 26.112 68.9208 26.112ZM68.9208 24.6644C68.197 24.6644 67.7144 24.9057 67.7144 25.2676C67.7144 25.5089 68.197 25.8708 68.9208 25.8708C69.6446 25.8708 70.1271 25.6295 70.1271 25.2676C70.1271 25.0263 69.6446 24.6644 68.9208 24.6644Z" fill="white"/>
<path d="M66.8685 27.3184C67.668 27.3184 68.3161 26.9943 68.3161 26.5946C68.3161 26.1948 67.668 25.8708 66.8685 25.8708C66.069 25.8708 65.4209 26.1948 65.4209 26.5946C65.4209 26.9943 66.069 27.3184 66.8685 27.3184Z" fill="#E2001A"/>
<path d="M66.869 27.5597C66.0246 27.5597 65.3008 27.1978 65.3008 26.7152C65.3008 26.2327 66.0246 25.8708 66.869 25.8708C67.7135 25.8708 68.4373 26.2327 68.4373 26.7152C68.4373 27.1978 67.7135 27.5597 66.869 27.5597ZM66.869 26.1121C66.1452 26.1121 65.6627 26.3533 65.6627 26.7152C65.6627 26.9565 66.1452 27.3184 66.869 27.3184C67.5928 27.3184 68.0754 27.0771 68.0754 26.7152C68.0754 26.3533 67.5928 26.1121 66.869 26.1121Z" fill="white"/>
<path d="M65.0609 24.9057C65.8604 24.9057 66.5085 24.5816 66.5085 24.1819C66.5085 23.7821 65.8604 23.4581 65.0609 23.4581C64.2614 23.4581 63.6133 23.7821 63.6133 24.1819C63.6133 24.5816 64.2614 24.9057 65.0609 24.9057Z" fill="#E2001A"/>
<path d="M65.0614 25.0263C64.217 25.0263 63.4932 24.6644 63.4932 24.1818C63.4932 23.6993 64.217 23.3374 65.0614 23.3374C65.9059 23.3374 66.6297 23.6993 66.6297 24.1818C66.6297 24.6644 65.9059 25.0263 65.0614 25.0263ZM65.0614 23.5787C64.3376 23.5787 63.8551 23.8199 63.8551 24.1818C63.8551 24.4231 64.3376 24.785 65.0614 24.785C65.7852 24.785 66.2678 24.5437 66.2678 24.1818C66.2678 23.9406 65.7852 23.5787 65.0614 23.5787Z" fill="white"/>
<path d="M66.3872 26.7152C67.4532 26.7152 68.3173 26.2291 68.3173 25.6295C68.3173 25.0299 67.4532 24.5438 66.3872 24.5438C65.3212 24.5438 64.457 25.0299 64.457 25.6295C64.457 26.2291 65.3212 26.7152 66.3872 26.7152Z" fill="#E2001A"/>
<path d="M66.3877 26.9564C65.1814 26.9564 64.3369 26.3533 64.3369 25.7501C64.3369 25.1469 65.302 24.5438 66.3877 24.5438C67.594 24.5438 68.4385 25.1469 68.4385 25.7501C68.4385 26.3533 67.4734 26.9564 66.3877 26.9564ZM66.3877 24.6644C65.4226 24.6644 64.5782 25.1469 64.5782 25.6295C64.5782 26.112 65.4226 26.5945 66.3877 26.5945C67.3528 26.5945 68.1972 26.112 68.1972 25.6295C68.1972 25.1469 67.3528 24.6644 66.3877 24.6644Z" fill="white"/>
<path d="M66.9907 25.147C68.0567 25.147 68.9208 24.6609 68.9208 24.0613C68.9208 23.4617 68.0567 22.9756 66.9907 22.9756C65.9247 22.9756 65.0605 23.4617 65.0605 24.0613C65.0605 24.6609 65.9247 25.147 66.9907 25.147Z" fill="#E2001A"/>
<path d="M66.9912 25.2676C65.7849 25.2676 64.9404 24.7851 64.9404 24.0613C64.9404 23.3375 65.9055 22.8549 66.9912 22.8549C68.0769 22.8549 69.042 23.3375 69.042 24.0613C69.042 24.7851 68.0769 25.2676 66.9912 25.2676ZM66.9912 23.2168C66.0261 23.2168 65.1817 23.5787 65.1817 24.1819C65.1817 24.7851 66.0261 25.147 66.9912 25.147C67.9563 25.147 68.8007 24.7851 68.8007 24.1819C68.8007 23.5787 67.9563 23.2168 66.9912 23.2168Z" fill="white"/>
<path d="M70.2485 25.2676C71.3145 25.2676 72.1787 24.7815 72.1787 24.1819C72.1787 23.5823 71.3145 23.0962 70.2485 23.0962C69.1825 23.0962 68.3184 23.5823 68.3184 24.1819C68.3184 24.7815 69.1825 25.2676 70.2485 25.2676Z" fill="#E2001A"/>
<path d="M70.249 25.3882C69.0427 25.3882 68.1982 24.785 68.1982 24.1819C68.1982 23.5787 69.1633 22.9755 70.249 22.9755C71.4554 22.9755 72.2998 23.5787 72.2998 24.1819C72.2998 24.785 71.4554 25.3882 70.249 25.3882ZM70.249 23.2168C69.284 23.2168 68.4395 23.6993 68.4395 24.1819C68.4395 24.6644 69.284 25.1469 70.249 25.1469C71.2141 25.1469 72.0585 24.6644 72.0585 24.1819C72.0585 23.6993 71.2141 23.2168 70.249 23.2168Z" fill="white"/>
<path d="M73.5038 25.6295C74.3699 25.6295 75.072 25.1974 75.072 24.6644C75.072 24.1314 74.3699 23.6993 73.5038 23.6993C72.6377 23.6993 71.9355 24.1314 71.9355 24.6644C71.9355 25.1974 72.6377 25.6295 73.5038 25.6295Z" fill="#E2001A"/>
<path d="M73.5038 25.7502C72.5388 25.7502 71.6943 25.2676 71.6943 24.6644C71.6943 24.0613 72.4181 23.5787 73.5038 23.5787C74.5896 23.5787 75.3134 24.0613 75.3134 24.6644C75.3134 25.2676 74.4689 25.7502 73.5038 25.7502ZM73.5038 23.9406C72.6594 23.9406 72.0562 24.3025 72.0562 24.6644C72.0562 25.0263 72.78 25.3883 73.5038 25.3883C74.3483 25.3883 74.9515 25.0263 74.9515 24.6644C74.9515 24.3025 74.3483 23.9406 73.5038 23.9406Z" fill="white"/>
<path d="M73.6259 26.3534C74.492 26.3534 75.1941 25.9213 75.1941 25.3883C75.1941 24.8553 74.492 24.4232 73.6259 24.4232C72.7597 24.4232 72.0576 24.8553 72.0576 25.3883C72.0576 25.9213 72.7597 26.3534 73.6259 26.3534Z" fill="#E2001A"/>
<path d="M73.6259 26.474C72.6608 26.474 71.8164 25.9914 71.8164 25.3883C71.8164 24.7851 72.5402 24.3026 73.6259 24.3026C74.7116 24.3026 75.4354 24.7851 75.4354 25.3883C75.4354 25.9914 74.591 26.474 73.6259 26.474ZM73.6259 24.6645C72.7815 24.6645 72.1783 25.0264 72.1783 25.3883C72.1783 25.7502 72.9021 26.1121 73.6259 26.1121C74.4704 26.1121 75.0735 25.7502 75.0735 25.3883C75.0735 25.0264 74.4704 24.6645 73.6259 24.6645Z" fill="white"/>
<path d="M71.3339 26.7152C72.2 26.7152 72.9021 26.2832 72.9021 25.7502C72.9021 25.2172 72.2 24.7851 71.3339 24.7851C70.4678 24.7851 69.7656 25.2172 69.7656 25.7502C69.7656 26.2832 70.4678 26.7152 71.3339 26.7152Z" fill="#E2001A"/>
<path d="M71.3339 26.9565C70.3689 26.9565 69.5244 26.474 69.5244 25.8708C69.5244 25.2676 70.2482 24.7851 71.3339 24.7851C72.4196 24.7851 73.1434 25.2676 73.1434 25.8708C73.0228 26.474 72.299 26.9565 71.3339 26.9565ZM71.3339 25.0264C70.4895 25.0264 69.8863 25.3883 69.8863 25.7502C69.8863 26.1121 70.6101 26.474 71.3339 26.474C72.1784 26.474 72.7815 26.1121 72.7815 25.7502C72.7815 25.3883 72.0577 25.0264 71.3339 25.0264Z" fill="white"/>
<path d="M67.955 27.4391C68.8211 27.4391 69.5232 27.007 69.5232 26.474C69.5232 25.941 68.8211 25.5089 67.955 25.5089C67.0888 25.5089 66.3867 25.941 66.3867 26.474C66.3867 27.007 67.0888 27.4391 67.955 27.4391Z" fill="#E2001A"/>
<path d="M67.955 27.5597C66.9899 27.5597 66.1455 27.0771 66.1455 26.474C66.1455 25.8708 66.8693 25.3882 67.955 25.3882C69.0407 25.3882 69.7645 25.8708 69.7645 26.474C69.7645 27.0771 69.0407 27.5597 67.955 27.5597ZM67.955 25.6295C67.1106 25.6295 66.5074 25.9914 66.5074 26.3533C66.5074 26.7152 67.2312 27.0771 67.955 27.0771C68.7995 27.0771 69.4026 26.7152 69.4026 26.3533C69.4026 25.9914 68.7995 25.6295 67.955 25.6295Z" fill="white"/>
<path d="M69.4042 24.1819C70.2703 24.1819 70.9724 23.7498 70.9724 23.2168C70.9724 22.6838 70.2703 22.2518 69.4042 22.2518C68.5381 22.2518 67.8359 22.6838 67.8359 23.2168C67.8359 23.7498 68.5381 24.1819 69.4042 24.1819Z" fill="#E2001A"/>
<path d="M69.4042 24.3025C68.4392 24.3025 67.5947 23.82 67.5947 23.2168C67.5947 22.6136 68.3185 22.1311 69.4042 22.1311C70.49 22.1311 71.2138 22.6136 71.2138 23.2168C71.2138 23.82 70.3693 24.3025 69.4042 24.3025ZM69.4042 22.493C68.5598 22.493 67.9566 22.8549 67.9566 23.2168C67.9566 23.5787 68.5598 23.9406 69.4042 23.9406C70.2487 23.9406 70.8519 23.5787 70.8519 23.2168C70.8519 22.8549 70.128 22.493 69.4042 22.493Z" fill="white"/>
<path d="M71.9369 24.9057C72.7364 24.9057 73.3845 24.5816 73.3845 24.1819C73.3845 23.7821 72.7364 23.4581 71.9369 23.4581C71.1374 23.4581 70.4893 23.7821 70.4893 24.1819C70.4893 24.5816 71.1374 24.9057 71.9369 24.9057Z" fill="#E2001A"/>
<path d="M71.9374 25.1469C71.0929 25.1469 70.3691 24.785 70.3691 24.3025C70.3691 23.82 71.0929 23.4581 71.9374 23.4581C72.7818 23.4581 73.5056 23.82 73.5056 24.3025C73.5056 24.785 72.7818 25.1469 71.9374 25.1469ZM71.9374 23.6993C71.2136 23.6993 70.731 23.9406 70.731 24.3025C70.731 24.6644 71.2136 24.9057 71.9374 24.9057C72.6612 24.9057 73.1437 24.6644 73.1437 24.3025C73.1437 23.9406 72.6612 23.6993 71.9374 23.6993Z" fill="white"/>
<path d="M64.2152 26.8359C65.0147 26.8359 65.6628 26.5118 65.6628 26.112C65.6628 25.7123 65.0147 25.3882 64.2152 25.3882C63.4157 25.3882 62.7676 25.7123 62.7676 26.112C62.7676 26.5118 63.4157 26.8359 64.2152 26.8359Z" fill="#E2001A"/>
<path d="M64.2157 27.0771C63.3713 27.0771 62.6475 26.7152 62.6475 26.2327C62.6475 25.7501 63.3713 25.3882 64.2157 25.3882C65.0601 25.3882 65.784 25.7501 65.784 26.2327C65.784 26.7152 65.0601 27.0771 64.2157 27.0771ZM64.2157 25.6295C63.4919 25.6295 63.0094 25.8708 63.0094 26.2327C63.0094 26.5946 63.4919 26.8359 64.2157 26.8359C64.9395 26.8359 65.4221 26.5946 65.4221 26.2327C65.4221 25.8708 64.9395 25.6295 64.2157 25.6295Z" fill="white"/>
<path d="M65.9038 27.5597C66.9698 27.5597 67.8339 26.8575 67.8339 25.9914C67.8339 25.1253 66.9698 24.4232 65.9038 24.4232C64.8378 24.4232 63.9736 25.1253 63.9736 25.9914C63.9736 26.8575 64.8378 27.5597 65.9038 27.5597Z" fill="#E2001A"/>
<path d="M65.9043 27.8009C64.698 27.8009 63.8535 26.9565 63.8535 26.112C63.8535 25.2676 64.8186 24.4232 65.9043 24.4232C66.99 24.4232 67.9551 25.2676 67.9551 26.112C67.9551 26.9565 66.99 27.8009 65.9043 27.8009ZM65.9043 24.6644C64.9392 24.6644 64.2154 25.2676 64.2154 25.9914C64.2154 26.7152 64.9392 27.3184 65.9043 27.3184C66.8694 27.3184 67.5932 26.7152 67.5932 25.9914C67.5932 25.2676 66.8694 24.6644 65.9043 24.6644Z" fill="white"/>
<path d="M57.7011 44.0866C57.5805 44.0866 57.5805 44.0866 57.4599 44.0866C57.098 43.9659 56.9773 43.604 57.098 43.3628L66.7487 15.6169C66.8694 15.255 67.2313 15.1343 67.4725 15.255C67.8344 15.3756 67.9551 15.7375 67.8344 15.9788L58.1837 43.7247C58.1837 43.8453 57.9424 44.0866 57.7011 44.0866Z" fill="#E2001A"/>
<path fill-rule="evenodd" clip-rule="evenodd" d="M57.2638 45.2929L57.0781 45.231C56.1115 44.9088 55.5767 43.8469 55.9764 42.9145L65.6072 15.226C65.9343 14.2617 66.9992 13.7311 67.9312 14.1383C68.8486 14.4901 69.3444 15.5198 68.9555 16.427L59.3522 44.0364C59.2984 44.258 59.1998 44.42 59.1457 44.5012C59.0459 44.651 58.9258 44.7769 58.8049 44.8776C58.5853 45.0606 58.2 45.2929 57.7009 45.2929H57.2638ZM67.8342 15.9787C67.9548 15.7375 67.8342 15.3756 67.4723 15.2549C67.2671 15.1524 66.9748 15.2242 66.8177 15.4705C66.7924 15.5101 66.7706 15.5542 66.7533 15.6028C66.7516 15.6074 66.75 15.6121 66.7485 15.6168L57.0977 43.3627C57.044 43.4701 57.0381 43.6014 57.08 43.7247C57.1322 43.8784 57.2588 44.0196 57.4596 44.0866H57.7009C57.8625 44.0866 58.0242 43.9783 58.1132 43.8705C58.1517 43.824 58.1767 43.7775 58.1822 43.74C58.183 43.7347 58.1834 43.7296 58.1834 43.7247L67.8342 15.9787Z" fill="white"/>
<line x1="36" y1="180" x2="36" y2="209" stroke="#96D0F1" stroke-width="2" stroke-linecap="round" stroke-dasharray="6 6"/>
<circle cx="36" cy="210" r="3" fill="#96D0F1"/>
</svg>
