<svg width="57" height="60" viewBox="0 0 57 60" fill="none" xmlns="http://www.w3.org/2000/svg">
<path d="M56.1124 21.6903V12.6169C56.1124 7.9218 51.9666 4.0908 46.8419 3.97559V6.04951V8.12343V9.30441C46.8419 12.3577 44.366 14.8349 41.3142 14.8349C38.2624 14.8349 35.7864 12.3577 35.7864 9.30441V3.97559H20.1533V9.33322C20.1533 12.3865 17.6773 14.8637 14.6255 14.8637C11.5737 14.8637 9.09776 12.3865 9.09776 9.33322V8.15223V6.04951V3.97559C4.03065 4.17722 0 7.97941 0 12.5881V50.466C0 55.7372 4.26097 60.0003 9.52961 60.0003H46.4964C51.7651 60.0003 56.0261 55.7084 56.0261 50.466V21.6903H56.1124ZM51.9378 50.4948C51.9378 53.4617 49.5194 55.8812 46.554 55.8812H9.58719C6.62178 55.8812 4.20339 53.4617 4.20339 50.4948V21.6903H51.9666V50.4948H51.9378Z" fill="#E2001A"/>
<path d="M12.293 2.42007V9.36195C12.293 10.687 13.3582 11.7527 14.6826 11.7527C16.0069 11.7527 17.0722 10.687 17.0722 9.36195V2.42007C17.0722 1.09506 16.0069 0.0292969 14.6826 0.0292969C13.3582 0.0292969 12.293 1.06626 12.293 2.42007Z" fill="#E2001A"/>
<path d="M41.3427 0C40.0184 0 38.9531 1.06577 38.9531 2.39077V9.36145C38.9531 10.6865 40.0184 11.7522 41.3427 11.7522C42.6671 11.7522 43.7323 10.6865 43.7323 9.36145V2.41958C43.7323 1.06577 42.6671 0 41.3427 0Z" fill="#E2001A"/>
<path d="M16.7273 28.3726H7.83105V32.8373H16.7273V28.3726Z" fill="#E2001A"/>
<path d="M32.5906 28.3726H23.6943V32.8373H32.5906V28.3726Z" fill="#E2001A"/>
<path d="M48.2234 28.3726H39.3271V32.8373H48.2234V28.3726Z" fill="#E2001A"/>
<path d="M16.7273 37.0425H7.83105V41.5072H16.7273V37.0425Z" fill="#E2001A"/>
<path d="M32.5906 37.0425H23.6943V41.5072H32.5906V37.0425Z" fill="#E2001A"/>
<path d="M48.2234 37.0425H39.3271V41.5072H48.2234V37.0425Z" fill="#E2001A"/>
<path d="M16.9577 45.7417H8.06152V50.2064H16.9577V45.7417Z" fill="#E2001A"/>
<path d="M32.821 45.7417H23.9248V50.2064H32.821V45.7417Z" fill="#E2001A"/>
</svg>
