<svg width="512" height="448" viewBox="0 0 512 448" fill="none" xmlns="http://www.w3.org/2000/svg">
<path d="M255.6 446.8C378.704 446.8 478.5 347.004 478.5 223.9C478.5 100.796 378.704 1 255.6 1C132.496 1 32.7002 100.796 32.7002 223.9C32.7002 347.004 132.496 446.8 255.6 446.8Z" fill="#D9ECFA"/>
<path d="M332.1 295.8C332.1 295.8 344 304.4 355.1 316.3L356.5 313.6C356.5 313.6 365.2 321.5 369 326.1L370.3 322.8C375.8 326.4 378.7 328.2 382.8 330.7C382.8 330.7 388.7 346.1 385.1 359.4C380.7 375.9 399 380.3 399 380.3L402.8 329.8C403.2 325 401 320.3 397 317.5C387 310.5 368.6 295.6 366.7 279.4" fill="white"/>
<path d="M399.1 381.5C399 381.5 398.9 381.5 398.8 381.5C398.4 381.4 389.5 379.2 385.3 372.2C383.1 368.4 382.6 364 383.9 359.1C387 347.6 382.6 334.2 381.8 331.6C378.1 329.4 375.4 327.7 371 324.8L370.3 326.6C370.1 327 369.7 327.3 369.3 327.4C368.8 327.5 368.4 327.3 368.1 326.9C365.3 323.5 359.5 318 357 315.6L356.3 316.9C356.1 317.3 355.7 317.5 355.3 317.6C354.9 317.7 354.5 317.5 354.2 317.2C343.4 305.5 331.5 297 331.4 296.9C330.8 296.5 330.7 295.7 331.1 295.1C331.5 294.5 332.3 294.4 332.9 294.8C333 294.9 344.2 302.9 354.8 314.2L355.4 313.1C355.6 312.7 355.9 312.5 356.3 312.4C356.7 312.3 357.1 312.4 357.4 312.7C357.7 313 364.5 319.1 368.6 323.7L369.1 322.4C369.2 322 369.5 321.8 369.9 321.6C370.3 321.5 370.7 321.5 371 321.8C376.4 325.4 379.3 327.2 383.4 329.7C383.6 329.8 383.8 330.1 383.9 330.4C384.1 331 389.9 346.3 386.3 359.9C385.2 364.1 385.5 367.9 387.4 371C390.1 375.5 395.3 377.8 397.8 378.7L401.5 329.8C401.8 325.4 399.8 321.2 396.3 318.7C385.6 311.2 367.4 296.2 365.5 279.7C365.4 279 365.9 278.4 366.6 278.3C367.3 278.2 367.9 278.7 368 279.4C369.8 294.9 387.4 309.3 397.7 316.5C402 319.5 404.4 324.6 404 329.9L400.2 380.4C400.2 380.8 400 381.1 399.7 381.3C399.6 381.4 399.3 381.5 399.1 381.5Z" fill="#666666"/>
<path d="M207.1 265.9C207.1 265.9 219.3 299.3 197.5 328.3C180.1 351.5 191.9 374 201.2 385.2C201.2 385.2 217.2 386.5 217.2 398.8H188.1L166.6 355.4C164 350.1 163.4 344.1 165 338.4C165.9 334.9 166.4 331 166.4 325.7L162.2 326.6C163.9 321.7 165.2 309.4 165.2 309.4L161.9 310.3C163.4 300.6 161 291.1 157.6 284" fill="white"/>
<path d="M217.2 400.2H188.1C187.6 400.2 187.2 399.9 186.9 399.5L165.4 356.1C162.7 350.6 162 344.2 163.7 338.2C164.5 335.2 164.9 331.8 165 327.4L162.3 328C161.8 328.1 161.4 327.9 161.1 327.6C160.8 327.3 160.7 326.8 160.8 326.3C162 322.8 163.1 314.9 163.5 311.3L162.1 311.7C161.7 311.8 161.2 311.7 160.9 311.4C160.6 311.1 160.4 310.7 160.5 310.2C162.2 299.2 158.6 289.5 156.3 284.7C156 284.1 156.3 283.3 156.9 283C157.5 282.7 158.3 283 158.6 283.6C160.9 288.4 164.3 297.8 163.2 308.7L164.6 308.3C165 308.2 165.5 308.3 165.8 308.6C166.1 308.9 166.3 309.3 166.2 309.7C166.2 310.1 165.1 319.4 163.7 325L165.8 324.6C166.2 324.5 166.6 324.6 166.9 324.9C167.2 325.1 167.4 325.5 167.4 325.9C167.4 331.3 166.9 335.3 165.9 338.9C164.4 344.3 165 350 167.5 355L188.6 397.7H215.5C214.4 387.9 201.3 386.7 200.7 386.6C200.4 386.6 200 386.4 199.8 386.1C192.3 377 177 353.2 196.1 327.6C217.2 299.4 205.6 266.7 205.5 266.4C205.3 265.7 205.6 265 206.3 264.7C207 264.5 207.7 264.8 208 265.5C208.1 265.8 220.2 299.8 198.3 329.1C180.5 352.8 194.4 375.1 201.6 384C207.7 384.7 218.2 388.5 218.2 398.9C218.5 399.6 217.9 400.2 217.2 400.2Z" fill="#666666"/>
<path d="M355.1 316.3L356.9 314.2C357.2 313.8 359.2 316.7 359.5 316.3C363.3 311.2 368.6 297.7 370.3 289.6L364.5 276.5L333.3 296.5L355.1 316.3Z" fill="#666666"/>
<path d="M163.6 302.8C163.6 302.8 190.8 277.9 210.5 288.8C210.5 288.8 211.7 268.5 205 258.8L156.3 274.6L163.6 302.8Z" fill="#666666"/>
<path d="M141.1 217C126.9 239.2 127.3 252.5 117.9 267.4L121.5 269.7C121.5 269.7 118.4 275.8 108.7 284L112.1 286.2C112.1 286.2 107.1 292.7 97.8996 302L101.3 304.7C95.7996 311.1 87.3996 324.2 87.3996 324.2L63.8996 398.9H97.6996C97.6996 398.9 97.8996 387.9 84.6996 386.2C84.6996 386.2 94.6996 336.5 114.9 328.1C124.1 324.3 157.5 308.3 172.1 284.2C181.1 269.4 187 269.2 206 276L203 280C209.2 282.3 233.3 285.3 233.3 285.3L230.5 290C230.5 290 250.5 291.6 258.8 293.6L255.6 297.1C267.5 298.7 288.7 305.8 302.8 307.2C302.8 307.2 305.1 315.7 304.8 324.1L308.2 323.3C308.2 323.3 309.3 335.6 309.3 341.1C309.3 341.9 312.8 338.9 313.1 339.7C315.9 346.9 319.4 352.8 322.7 359.9C333.4 383.5 344.8 399 344.8 399H375.4C375.4 399 373.5 386.6 357.9 385.2L347.4 373.5C345.4 371.3 343.9 368.7 343.1 365.8C340.9 358.2 336.7 342.5 336.9 332.1C337.1 319.4 336.5 307.4 336.5 307.4C341 306.5 349.6 302.8 349.6 302.8L352.3 307.6C358.4 299.4 364.6 288 364.6 288L367.9 291.5C369.5 282.5 376.1 267.1 377 268.2L380.8 271.3C381.3 265.2 383 253.5 384.6 249.3C400.2 207.6 436.6 208.8 453.1 212C470.5 215.4 498.9 224.2 509.6 193.3L474.5 175.5L467.8 159.1C466.3 155.4 463.5 152.3 460 150.4C447.1 143.4 419.7 132 392.5 156.4C362 183.7 288.5 195.2 236.3 185.6C236.3 185.6 189.6 170.8 162.1 187.7C152.8 193.4 142.7 197.8 132 199.9C103 205.8 40.5996 202.9 3.99961 171.5C3.99961 171.5 1.59961 186.1 9.59961 193.4H1.59961C4.59961 201.6 20.7996 220.9 39.1996 226.5L34.2996 232.1C57.0996 238.2 74.4996 240.5 93.9996 232.1L94.2996 239.5C105.6 234 124.8 217.2 141.1 217Z" fill="white"/>
<path d="M375.5 400.2H344.9C344.5 400.2 344.1 400 343.9 399.7C343.8 399.5 332.3 383.8 321.6 360.4C320.3 357.6 319 355 317.7 352.4C315.8 348.6 314 345.1 312.4 341.1C312.2 341.2 311.9 341.4 311.7 341.5C310.5 342.2 309.6 342.7 308.8 342.3C308.4 342 308.1 341.6 308.1 341.1C308.1 336.8 307.4 328.4 307.1 324.9L305.2 325.4C304.8 325.5 304.4 325.4 304.1 325.1C303.8 324.8 303.6 324.5 303.6 324.1C303.8 317.5 302.4 310.8 301.8 308.5C294.1 307.6 284.6 305.2 275.5 302.9C267.9 301 260.7 299.2 255.5 298.5C255 298.4 254.6 298.1 254.5 297.7C254.3 297.2 254.4 296.7 254.8 296.4L256.5 294.6C247.4 292.9 230.7 291.5 230.5 291.5C230.1 291.5 229.7 291.2 229.5 290.8C229.3 290.4 229.3 289.9 229.5 289.5L231.3 286.5C225.4 285.7 207.9 283.3 202.6 281.4C202.2 281.3 201.9 280.9 201.8 280.6C201.7 280.2 201.8 279.8 202 279.5L204 276.9C186.8 270.9 181.7 271.2 173.3 285.1C157.3 311.6 119.7 327.8 115.5 329.6C98 336.9 88.1 377.6 86.4 385.5C99.2 387.9 99.1001 399.1 99.1001 399.3C99.1001 400 98.5 400.6 97.8 400.6H64C63.6 400.6 63.2 400.4 63 400.1C62.8 399.8 62.7 399.3 62.8 399L86.3 324.3C86.3 324.2 86.4 324.1 86.4 324C86.7 323.5 94.1 312.1 99.5 305.4L97.1001 303.5C96.8 303.3 96.6001 302.9 96.6001 302.6C96.6001 302.2 96.7 301.9 97 301.6C103.9 294.7 108.4 289.3 110.3 287.1L108.1 285.7C107.8 285.5 107.5 285.1 107.5 284.7C107.5 284.3 107.6 283.9 108 283.6C115.1 277.6 118.6 272.7 119.9 270.7L117.4 269.1C117.1 268.9 116.9 268.6 116.8 268.3C116.7 268 116.8 267.6 117 267.3C121.2 260.7 123.4 254.6 125.9 247.5C128.8 239.4 132 230.4 138.9 219C128.4 220.2 116.7 227.7 107.2 233.9C102.8 236.8 98.6 239.5 95.2 241.1C94.8 241.3 94.4 241.3 94 241C93.6 240.8 93.4 240.4 93.4 239.9L93.2 234.4C74.4 242 57.3 239.9 34.4 233.8C34 233.7 33.6 233.4 33.5 232.9C33.4 232.5 33.5 232 33.8 231.7L37.4 227.5C19.2 221.1 3.80004 202.5 0.800042 194.3C0.700042 193.9 0.700043 193.5 1.00004 193.1C1.20004 192.8 1.60004 192.5 2.10004 192.5H7.20004C1.20004 184.5 3.20004 172.2 3.20004 171.6C3.30004 171.1 3.60004 170.8 4.00004 170.6C4.40004 170.4 4.90004 170.5 5.30004 170.8C40.4 200.8 100.6 205.3 132.2 198.9C142.2 196.9 152.2 192.8 161.8 186.8C189.1 169.9 234.1 183.6 237 184.5C292.2 194.6 363.2 181.3 392 155.6C411.8 137.9 435.7 135.7 461 149.5C464.8 151.6 467.8 154.9 469.4 158.9L475.9 174.8L510.6 192.4C511.2 192.7 511.4 193.4 511.2 194C501 223.5 475 218 457.7 214.4C456.2 214.1 454.7 213.8 453.3 213.5C438.3 210.6 401.8 208.3 386.2 250C384.6 254.2 382.9 265.8 382.4 271.7C382.4 272.2 382.1 272.6 381.6 272.8C381.2 273 380.6 272.9 380.3 272.6L377.4 270.2C375.6 273.2 370.8 284.6 369.5 292.1C369.4 292.6 369.1 293 368.6 293.1C368.1 293.2 367.6 293.1 367.3 292.8L365.2 290.6C363.3 294 358.4 302.5 353.6 308.8C353.3 309.2 352.9 309.4 352.5 309.3C352.1 309.3 351.7 309 351.5 308.6L349.3 304.8C347.1 305.7 341.8 307.8 338.1 308.7C338.2 311.9 338.7 322 338.5 332.4C338.3 342.5 342.3 357.6 344.7 365.7C345.5 368.3 346.9 370.8 348.7 372.9L358.9 384.2C374.8 386 377 398.9 377 399.1C377.1 399.5 376.9 399.9 376.7 400.1C376.2 400 375.9 400.2 375.5 400.2ZM345.6 397.6H373.8C372.8 394.5 369.2 387.4 357.9 386.3C357.6 386.3 357.3 386.1 357.1 385.9L346.6 374.2C344.5 371.9 342.9 369 342 366C339.6 357.7 335.6 342.3 335.7 331.9C335.9 319.4 335.3 307.4 335.3 307.3C335.3 306.7 335.7 306.1 336.3 306C340.7 305.1 349.1 301.6 349.2 301.5C349.8 301.2 350.5 301.5 350.8 302.1L352.5 305.2C358.1 297.4 363.5 287.4 363.6 287.3C363.8 286.9 364.2 286.7 364.6 286.6C365 286.6 365.4 286.7 365.7 287L367.3 288.7C369.2 280.8 374.4 267.3 376.7 266.7C377.2 266.6 377.7 266.7 378 267L379.9 268.5C380.6 262.2 382.1 252.5 383.6 248.6C399.8 205.1 437.9 207.4 453.6 210.5C455 210.8 456.5 211.1 458.1 211.4C475.2 215 498.6 219.8 508.3 193.7L474 176.4C473.7 176.3 473.5 176 473.4 175.7L466.7 159.3C465.3 155.9 462.7 153 459.5 151.2C434.9 137.9 412.7 139.8 393.5 157C361 186 285.9 195.7 236.1 186.6C236 186.6 236 186.6 235.9 186.6C235.4 186.5 189.4 172.2 162.8 188.6C152.8 194.7 142.6 198.9 132.3 201C100.8 207.4 41.1 203.1 5.10004 173.9C4.80004 178.2 5.00004 187.3 10.5 192.3C10.9 192.7 11 193.2 10.8 193.7C10.6 194.2 10.1 194.5 9.60004 194.5H3.50004C7.90004 203.5 23.2 220.1 39.6 225.1C40 225.2 40.3 225.6 40.5 226C40.6 226.4 40.5 226.9 40.2 227.2L36.7 231.3C58.7 237.1 75.3 238.7 93.6001 230.8C94.0001 230.6 94.4 230.7 94.8 230.9C95.2001 231.1 95.4 231.5 95.4 231.9L95.6001 237.3C98.5001 235.7 102 233.5 105.6 231.2C116.2 224.3 129.3 215.8 141.2 215.7C141.7 215.7 142.1 216 142.3 216.4C142.5 216.8 142.5 217.3 142.3 217.7C134.6 229.8 131.2 239.4 128.2 247.8C125.9 254.4 123.7 260.6 119.7 267.1L122.2 268.7C122.8 269.1 123 269.8 122.7 270.4C122.6 270.6 119.7 276.3 110.9 284L112.8 285.2C113.1 285.4 113.3 285.7 113.4 286.1C113.5 286.5 113.4 286.8 113.2 287.1C113.2 287.2 108.4 293.3 99.9 302L102.2 303.8C102.5 304 102.6 304.3 102.7 304.7C102.7 305 102.6 305.4 102.4 305.7C97.4 311.6 89.7 323.4 88.7 324.9L65.8 397.8H96.5C96.1 395.1 94.1001 388.9 84.8 387.7C84.4 387.7 84.1 387.5 83.9 387.2C83.7001 386.9 83.6 386.5 83.7 386.2C84.1 384.1 94.1001 335.7 114.6 327.1C118.7 325.4 155.6 309.5 171.2 283.7C180.5 268.3 187.1 268 206.7 274.9C207.1 275 207.4 275.4 207.5 275.7C207.6 276.1 207.5 276.5 207.3 276.8L205.4 279.4C213.2 281.5 233.5 284.1 233.8 284.1C234.2 284.2 234.6 284.4 234.8 284.8C235 285.2 235 285.7 234.7 286L233 288.9C238.4 289.4 252.6 290.7 259.5 292.3C259.9 292.4 260.3 292.7 260.4 293.2C260.5 293.6 260.4 294.1 260.1 294.5L258.5 296.2C263.6 297.1 269.8 298.7 276.4 300.3C285.8 302.7 295.6 305.2 303.3 305.9C303.8 306 304.3 306.3 304.4 306.8C304.5 307.1 306.5 314.5 306.5 322.4L308.2 322C308.6 321.9 309 322 309.3 322.2C309.6 322.4 309.8 322.8 309.8 323.1C309.8 323.6 310.7 333.2 310.9 339.1C312.1 338.4 312.9 338 313.7 338.2C314.1 338.3 314.4 338.7 314.6 339.1C316.2 343.4 318.2 347.2 320.2 351.2C321.5 353.8 322.9 356.4 324.1 359.3C333.4 380 343.5 394.7 345.6 397.6Z" fill="#666666"/>
<path d="M500 188.2C500 188.2 495.7 199.9 505 202.7L509.6 193.1L500 188.2Z" fill="#666666"/>
<path d="M505.1 204C505 204 504.9 204 504.7 203.9C502 203.1 500.1 201.5 498.9 199.2C496.5 194.3 498.7 187.9 498.8 187.7C498.9 187.4 499.2 187.1 499.5 186.9C499.8 186.8 500.2 186.8 500.6 186.9L510.3 191.8C510.9 192.1 511.2 192.9 510.9 193.5L506.3 203.1C506 203.7 505.5 204 505.1 204ZM500.9 190C500.4 191.9 499.9 195.4 501.3 198.1C502 199.4 503 200.4 504.5 201.1L508.1 193.7L500.9 190Z" fill="#666666"/>
<path d="M375.5 400.2H344.9C344.5 400.2 344.1 400 343.9 399.7C343.8 399.5 332.3 383.8 321.6 360.4C320.3 357.6 319 355 317.7 352.4C315.8 348.6 314 345.1 312.4 341.1C312.2 341.2 311.9 341.4 311.7 341.5C310.5 342.2 309.6 342.7 308.8 342.3C308.4 342 308.1 341.6 308.1 341.1C308.1 336.8 307.4 328.4 307.1 324.9L305.2 325.4C304.8 325.5 304.4 325.4 304.1 325.1C303.8 324.8 303.6 324.5 303.6 324.1C303.8 317.5 302.4 310.8 301.8 308.5C294.1 307.6 284.6 305.2 275.5 302.9C267.9 301 260.7 299.2 255.5 298.5C255 298.4 254.6 298.1 254.5 297.7C254.3 297.2 254.4 296.7 254.8 296.4L256.5 294.6C247.4 292.9 230.7 291.5 230.5 291.5C230.1 291.5 229.7 291.2 229.5 290.8C229.3 290.4 229.3 289.9 229.5 289.5L231.3 286.5C225.4 285.7 207.9 283.3 202.6 281.4C202.2 281.3 201.9 280.9 201.8 280.6C201.7 280.2 201.8 279.8 202 279.5L204 276.9C186.8 270.9 181.7 271.2 173.3 285.1C157.3 311.6 119.7 327.8 115.5 329.6C98 336.9 88.1 377.6 86.4 385.5C99.2 387.9 99.1001 399.1 99.1001 399.3C99.1001 400 98.5 400.6 97.8 400.6H64C63.6 400.6 63.2 400.4 63 400.1C62.8 399.8 62.7 399.3 62.8 399L86.3 324.3C86.3 324.2 86.4 324.1 86.4 324C86.7 323.5 94.1 312.1 99.5 305.4L97.1001 303.5C96.8 303.3 96.6001 302.9 96.6001 302.6C96.6001 302.2 96.7 301.9 97 301.6C103.9 294.7 108.4 289.3 110.3 287.1L108.1 285.7C107.8 285.5 107.5 285.1 107.5 284.7C107.5 284.3 107.6 283.9 108 283.6C115.1 277.6 118.6 272.7 119.9 270.7L117.4 269.1C117.1 268.9 116.9 268.6 116.8 268.3C116.7 268 116.8 267.6 117 267.3C121.2 260.7 123.4 254.6 125.9 247.5C128.8 239.4 132 230.4 138.9 219C128.4 220.2 116.7 227.7 107.2 233.9C102.8 236.8 98.6 239.5 95.2 241.1C94.8 241.3 94.4 241.3 94 241C93.6 240.8 93.4 240.4 93.4 239.9L93.2 234.4C74.4 242 57.3 239.9 34.4 233.8C34 233.7 33.6 233.4 33.5 232.9C33.4 232.5 33.5 232 33.8 231.7L37.4 227.5C19.2 221.1 3.80004 202.5 0.800042 194.3C0.700042 193.9 0.700043 193.5 1.00004 193.1C1.20004 192.8 1.60004 192.5 2.10004 192.5H7.20004C1.20004 184.5 3.20004 172.2 3.20004 171.6C3.30004 171.1 3.60004 170.8 4.00004 170.6C4.40004 170.4 4.90004 170.5 5.30004 170.8C40.4 200.8 100.6 205.3 132.2 198.9C142.2 196.9 152.2 192.8 161.8 186.8C184.4 172.9 219.1 179.7 232.9 183.4C236.8 184.4 240.3 185.1 243.5 185.6C298.1 193.5 364.7 180 392 155.6C411.8 137.9 435.7 135.7 460.9 149.4C464.7 151.5 467.7 154.8 469.3 158.8L475.8 174.7L510.5 192.3C511.1 192.6 511.3 193.3 511.1 193.9C500.9 223.4 474.9 217.9 457.6 214.3C456.1 214 454.6 213.7 453.2 213.4C438.2 210.5 401.7 208.3 386.1 249.9C384.5 254.1 382.8 265.7 382.3 271.6C382.3 272.1 382 272.5 381.5 272.7C381.1 272.9 380.5 272.8 380.2 272.5L377.3 270.1C375.5 273.1 370.7 284.5 369.4 292C369.3 292.5 369 292.9 368.5 293C368 293.1 367.5 293 367.2 292.7L365.1 290.5C363.2 293.9 358.3 302.4 353.5 308.7C353.2 309.1 352.8 309.2 352.4 309.2C352 309.2 351.6 308.9 351.4 308.5L349.2 304.7C347 305.6 341.7 307.7 338 308.6C338.1 311.8 338.6 321.9 338.4 332.3C338.2 342.4 342.2 357.5 344.6 365.6C345.4 368.2 346.8 370.7 348.6 372.8L358.8 384.1C374.7 385.9 376.9 398.8 376.9 399C377 399.4 376.8 399.8 376.6 400C376.2 400 375.9 400.2 375.5 400.2ZM345.6 397.6H373.8C372.8 394.5 369.2 387.4 357.9 386.3C357.6 386.3 357.3 386.1 357.1 385.9L346.6 374.2C344.5 371.9 342.9 369 342 366C339.6 357.7 335.6 342.3 335.7 331.9C335.9 319.4 335.3 307.4 335.3 307.3C335.3 306.7 335.7 306.1 336.3 306C340.7 305.1 349.1 301.6 349.2 301.5C349.8 301.2 350.5 301.5 350.8 302.1L352.5 305.2C358.1 297.4 363.5 287.4 363.6 287.3C363.8 286.9 364.2 286.7 364.6 286.6C365 286.6 365.4 286.7 365.7 287L367.3 288.7C369.2 280.8 374.4 267.3 376.7 266.7C377.2 266.6 377.7 266.7 378 267L379.9 268.5C380.6 262.2 382.1 252.5 383.6 248.6C399.8 205.1 437.9 207.4 453.6 210.5C455 210.8 456.5 211.1 458.1 211.4C475.2 215 498.6 219.8 508.3 193.7L474 176.4C473.7 176.3 473.5 176 473.4 175.7L466.7 159.3C465.3 155.9 462.7 153 459.4 151.2C434.8 137.9 412.6 139.8 393.4 157C362.2 185 291 194.7 242.8 187.7C239.5 187.2 235.9 186.5 231.9 185.4C221.3 182.7 185.2 174.8 162.8 188.5C152.8 194.6 142.6 198.8 132.3 200.9C100.8 207.3 41.1 203 5.10004 173.8C4.80004 178.1 5.00004 187.2 10.5 192.2C10.9 192.6 11 193.1 10.8 193.6C10.6 194.1 10.1 194.4 9.60004 194.4H3.50004C7.90004 203.4 23.2 220 39.6 225C40 225.1 40.3 225.5 40.5 225.9C40.6 226.3 40.5 226.8 40.2 227.1L36.7 231.2C58.7 237 75.3 238.6 93.6001 230.7C94.0001 230.5 94.4 230.6 94.8 230.8C95.2001 231 95.4 231.4 95.4 231.8L95.6001 237.2C98.5001 235.6 102 233.4 105.6 231.1C116.2 224.2 129.3 215.7 141.2 215.6C141.7 215.6 142.1 215.9 142.3 216.3C142.5 216.7 142.5 217.2 142.3 217.6C134.6 229.7 131.2 239.3 128.2 247.7C125.9 254.3 123.7 260.5 119.7 267L122.2 268.6C122.8 269 123 269.7 122.7 270.3C122.6 270.5 119.7 276.2 110.9 283.9L112.8 285.1C113.1 285.3 113.3 285.6 113.4 286C113.5 286.4 113.4 286.7 113.2 287C113.2 287.1 108.4 293.2 99.9 301.9L102.2 303.7C102.5 303.9 102.6 304.2 102.7 304.6C102.7 304.9 102.6 305.3 102.4 305.6C97.4 311.5 89.7 323.3 88.7 324.8L65.8 397.7H96.5C96.1 395 94.1001 388.8 84.8 387.6C84.4 387.6 84.1 387.4 83.9 387.1C83.7001 386.8 83.6 386.4 83.7 386.1C84.1 384 94.1001 335.6 114.6 327C118.7 325.3 155.6 309.4 171.2 283.6C180.5 268.2 187.1 267.9 206.7 274.8C207.1 274.9 207.4 275.3 207.5 275.6C207.6 276 207.5 276.4 207.3 276.7L205.4 279.3C213.2 281.4 233.5 284 233.8 284C234.2 284.1 234.6 284.3 234.8 284.7C235 285.1 235 285.6 234.7 285.9L233 288.8C238.4 289.3 252.6 290.6 259.5 292.2C259.9 292.3 260.3 292.6 260.4 293.1C260.5 293.5 260.4 294 260.1 294.4L258.5 296.1C263.6 297 269.8 298.6 276.4 300.2C285.8 302.6 295.6 305.1 303.3 305.8C303.8 305.9 304.3 306.2 304.4 306.7C304.5 307 306.5 314.4 306.5 322.3L308.2 321.9C308.6 321.8 309 321.9 309.3 322.1C309.6 322.3 309.8 322.7 309.8 323C309.8 323.5 310.7 333.1 310.9 339C312.1 338.3 312.9 337.9 313.7 338.1C314.1 338.2 314.4 338.6 314.6 339C316.2 343.3 318.2 347.1 320.2 351.1C321.5 353.7 322.9 356.3 324.1 359.2C333.4 380 343.5 394.7 345.6 397.6Z" fill="#666666"/>
<path d="M431.7 153.4C431.7 153.4 437 168.4 438.1 178.9L434.7 178.3C436.3 197.7 436.2 220.8 426.1 217.8C419.6 215.9 414.2 212.7 410 210L408.3 212.1C404.8 209.5 400.9 203.5 399 200.2C395.6 194.2 393.8 187.4 393.8 180.3V173.7" fill="white"/>
<path d="M427.8 219.4C427.1 219.4 426.5 219.3 425.8 219.1C419.6 217.3 414.3 214.3 410.3 211.7L409.3 212.9C408.9 213.4 408.1 213.5 407.5 213.1C403.2 209.9 398.7 202.3 397.9 200.8C394.4 194.6 392.5 187.5 392.5 180.2V173.6C392.5 172.9 393.1 172.3 393.8 172.3C394.5 172.3 395.1 172.9 395.1 173.6V180.2C395.1 187 396.9 193.7 400.2 199.5C402.2 203 405.4 207.7 408.1 210.2L409 209.1C409.4 208.6 410.1 208.5 410.7 208.8C414.7 211.4 420.1 214.6 426.5 216.5C427.8 216.9 428.9 216.7 429.8 216C432.1 214.1 435.7 206.7 433.4 178.3C433.4 177.9 433.5 177.5 433.8 177.2C434.1 176.9 434.5 176.8 434.9 176.9L436.6 177.2C435.2 167.1 430.5 153.8 430.5 153.7C430.3 153 430.6 152.3 431.3 152.1C432 151.9 432.7 152.2 432.9 152.9C433.1 153.5 438.3 168.2 439.4 178.7C439.4 179.1 439.3 179.5 439 179.8C438.7 180.1 438.3 180.2 437.9 180.1L436.2 179.8C437.8 201.3 436.3 214.2 431.5 218C430.4 218.9 429.2 219.4 427.8 219.4Z" fill="#666666"/>
<mask id="mask0_4184_234" style="mask-type:luminance" maskUnits="userSpaceOnUse" x="32" y="1" width="447" height="446">
<path d="M255.6 446.8C378.704 446.8 478.5 347.004 478.5 223.9C478.5 100.796 378.704 1 255.6 1C132.496 1 32.7002 100.796 32.7002 223.9C32.7002 347.004 132.496 446.8 255.6 446.8Z" fill="white"/>
</mask>
<g mask="url(#mask0_4184_234)">
<path d="M588.4 400.4H-89C-89.8 400.4 -90.5 399.7 -90.5 398.9C-90.5 398.1 -89.8 397.4 -89 397.4H588.4C589.2 397.4 589.9 398.1 589.9 398.9C589.9 399.7 589.2 400.4 588.4 400.4Z" fill="#666666"/>
</g>
</svg>
