<svg width="411" height="218" viewBox="0 0 411 218" fill="none" xmlns="http://www.w3.org/2000/svg">
<path d="M205.3 217.249C150.8 217.249 99.5 212.449 60.9 203.849C21.6 195.049 0 182.949 0 169.949C0 164.049 4.20001 158.449 12.6 153.149L14.3 155.849C7 160.449 3.2 165.149 3.2 169.849C3.2 193.749 95.7 213.949 205.3 213.949C314.8 213.949 407.4 193.749 407.4 169.849C407.4 161.949 396.4 153.649 376.3 146.649C355.9 139.549 327.2 133.849 293.2 130.149L293.5 126.949C350.1 133.049 410.6 147.549 410.6 169.849C410.6 182.949 389 194.949 349.7 203.749C311.1 212.449 259.9 217.249 205.3 217.249Z" fill="#E2001A"/>
<path d="M26.6996 146.949L25.5996 143.849C36.8996 139.849 51.5996 136.249 69.2996 133.149L69.8996 136.349C52.3996 139.349 37.7996 142.949 26.6996 146.949Z" fill="#E2001A"/>
<path d="M299.5 136.849C299.5 136.849 312.4 157.449 324 157.449H275V140.449L278.4 129.849L299.5 136.849Z" fill="#666666"/>
<path d="M345.7 159.649C331.4 159.649 315 159.149 311.7 156.749C311 156.249 310.8 155.249 311.3 154.449C311.8 153.749 312.8 153.549 313.6 154.049C317.1 156.449 346.4 156.549 365.3 156.049C364.8 153.349 362.7 148.049 354.4 146.949H344.5C341 146.949 337.4 146.649 333.9 146.149C323.4 144.449 304.2 140.949 292.8 135.949C292 135.549 291.6 134.649 292 133.849C292.4 133.049 293.3 132.649 294.1 133.049C305.5 138.049 326.1 141.649 334.4 143.049C337.7 143.549 341.1 143.849 344.5 143.849H354.6C354.7 143.849 354.7 143.849 354.8 143.849C368.8 145.649 368.8 157.649 368.8 157.749C368.8 158.649 368.1 159.349 367.2 159.349C363.7 159.349 355.2 159.649 345.7 159.649Z" fill="#666666"/>
<path d="M95.5995 159.949C106.899 164.949 126.599 168.449 136.199 170.049C139.699 170.549 143.099 170.849 146.599 170.849H156.699C169.499 172.449 169.199 183.149 169.199 183.149C120.699 189.149 86.5995 179.149 86.5995 179.149C83.4995 179.149 80.7995 177.249 79.7995 174.349V174.249C78.8995 171.649 71.7995 170.049 71.7995 170.049C47.8995 170.149 31.5995 164.649 22.9995 160.649C17.0995 157.949 12.7995 152.249 12.3995 145.749C11.5995 133.149 25.4995 132.849 25.4995 132.849C15.5995 160.249 66.7995 148.349 66.7995 148.349C67.9995 126.549 84.7995 112.249 84.7995 112.249C100.799 96.8486 134.299 94.3486 157.599 94.6486C192.999 95.1486 239.599 72.9486 260.699 44.5486C264.699 39.2486 266.699 35.7486 266.699 35.7486L274.399 20.0486C278.599 11.4486 286.199 4.84858 295.499 2.54858C310.699 -1.15142 323.599 5.64858 330.599 10.0486C333.199 11.6486 334.999 14.1486 335.999 17.0486L338.499 24.6486L367.099 29.4486C364.199 69.1486 339.399 61.5486 325.299 57.3486C321.999 56.3486 318.299 56.7486 315.499 58.8486C315.499 58.8486 315.499 58.8486 315.399 58.9486C311.199 63.7486 308.199 69.5486 306.799 75.8486L301.399 99.1486C301.399 99.1486 298.799 124.649 294.699 131.949C294.199 132.749 293.799 133.549 293.499 134.449C292.099 137.949 289.999 145.549 296.199 148.249C296.199 148.249 321.199 161.349 353.799 166.449C355.399 166.749 356.999 166.849 358.599 166.849H371.099C383.899 168.449 383.599 179.149 383.599 179.149C352.299 181.649 338.199 179.149 338.199 179.149L321.499 177.149C318.399 176.749 315.199 176.849 312.099 177.249L278.099 181.949C278.099 181.949 231.999 213.149 169.099 183.049" fill="white"/>
<path d="M224.3 197.749C208.7 197.749 189.7 194.649 168.8 184.749C122.8 190.349 89.3002 181.549 86.3002 180.749C82.6002 180.649 79.4002 178.349 78.2002 174.949L78.1002 174.749C77.8002 173.849 74.7002 172.449 71.5002 171.649C71.3002 171.649 71.2002 171.649 71.0002 171.649C47.7002 171.649 31.6002 166.449 22.2002 162.149C15.5002 159.049 11.1002 152.849 10.6002 145.949C10.3002 141.949 11.4002 138.749 13.7002 136.149C18.0002 131.449 25.0002 131.249 25.3002 131.249C25.9002 131.249 26.3002 131.449 26.7002 131.949C27.0002 132.349 27.1002 132.949 26.9002 133.449C25.1002 138.449 25.3002 142.049 27.6002 144.649C34.1002 151.949 55.8002 149.049 65.1002 147.149C66.8002 125.849 82.4002 112.149 83.5002 111.249C99.7002 95.7487 132.6 92.9487 157.4 93.2487C192.9 93.7487 238.6 71.5486 259.2 43.8486C262.8 38.9486 264.8 35.6487 265.1 35.1487L272.8 19.5487C277.4 10.1487 285.5 3.44866 295 1.14866C306.7 -1.75134 318.9 0.848642 331.3 8.84864C334.1 10.6486 336.3 13.4487 337.3 16.7487L339.5 23.4486L367.1 28.1487C367.9 28.2487 368.5 29.0486 368.4 29.8486C367.3 44.3486 363.2 54.1486 356.2 58.9486C346.5 65.6486 333.4 61.7487 324.8 59.1487L324.6 59.0487C321.6 58.1487 318.6 58.6487 316.3 60.2487C312.3 64.8487 309.5 70.3486 308.1 76.3486L302.7 99.5487C302.5 101.549 300 125.549 295.9 132.849C295.4 133.749 295 134.449 294.8 135.149C293.4 138.649 291.8 144.749 296.6 146.849C296.6 146.849 296.7 146.849 296.7 146.949C296.9 147.049 321.8 159.949 353.8 164.949C355.2 165.149 356.8 165.249 358.4 165.249H370.9C371 165.249 371 165.249 371.1 165.249C385.1 167.049 385.1 179.049 385.1 179.149C385.1 179.949 384.4 180.649 383.6 180.749C352.5 183.249 338.4 180.849 337.8 180.749L321.2 178.749C318.2 178.349 315.2 178.449 312.2 178.849L278.6 183.549C276.6 184.849 265.4 191.649 247.4 195.449C241.1 196.749 233.3 197.749 224.3 197.749ZM170.7 181.949C231.6 210.549 276.8 180.849 277.2 180.549C277.4 180.449 277.6 180.349 277.9 180.249L311.9 175.549C315.1 175.049 318.4 175.049 321.7 175.449L338.4 177.449C338.6 177.449 352.3 179.749 381.8 177.549C381.3 174.949 379.3 169.549 370.9 168.349H358.5C356.7 168.349 355 168.249 353.4 167.949C321.7 162.949 296.8 150.349 295.4 149.649C290.1 147.349 288.8 141.549 291.9 133.849C292.2 133.049 292.6 132.249 293.2 131.149C297.1 124.249 299.6 99.2486 299.7 98.9486C299.7 98.8486 299.7 98.8487 299.7 98.7487L305.1 75.4486C306.6 68.9486 309.7 62.8486 314.1 57.8486C314.2 57.7486 314.3 57.6487 314.4 57.5487C317.5 55.2487 321.7 54.5487 325.7 55.7487L325.9 55.8486C334.4 58.3486 346.1 61.8487 354.5 56.0487C360.5 51.9487 364.1 43.4486 365.2 30.8486L338.1 26.2487C337.5 26.1487 337 25.7487 336.8 25.1487L334.3 17.5487C333.5 15.0487 331.8 12.8486 329.6 11.4486C317.9 3.94865 306.6 1.44866 295.8 4.14866C287.2 6.24866 279.9 12.3486 275.7 20.8486L268 36.5487C268 36.5487 268 36.6487 267.9 36.6487C267.8 36.7487 265.8 40.3487 261.8 45.6487C240.6 74.1487 193.8 96.8486 157.4 96.3486C133.2 96.0486 101.1 98.6486 85.7002 113.449C85.7002 113.449 85.7002 113.449 85.6002 113.549C85.4002 113.649 69.3002 127.549 68.2002 148.449C68.2002 149.149 67.7002 149.749 66.9002 149.949C65.6002 150.249 34.5002 157.349 25.1002 146.749C22.4002 143.749 21.7002 139.749 23.0002 134.749C21.0002 135.149 18.0002 136.049 16.0002 138.249C14.3002 140.049 13.6002 142.549 13.8002 145.649C14.2002 151.449 17.9002 156.549 23.5002 159.149C32.6002 163.349 48.2002 168.349 70.9002 168.349C71.1002 168.349 71.3002 168.349 71.6002 168.349C71.8002 168.349 71.8002 168.349 72.0002 168.349C73.9002 168.749 80.1002 170.449 81.2002 173.549V173.649C82.0002 175.849 84.1002 177.349 86.5002 177.349C86.7002 177.349 86.8002 177.349 87.0002 177.449C87.3002 177.549 120.7 186.949 167.4 181.549C166.9 178.949 165 173.449 156.5 172.349H146.6C143.1 172.349 139.5 172.049 135.9 171.549C125.5 169.849 106.2 166.349 94.9002 161.349C94.1002 160.949 93.7002 160.049 94.1002 159.249C94.5002 158.449 95.4002 158.049 96.2002 158.449C107.2 163.349 126.1 166.749 136.4 168.349C139.8 168.849 143.2 169.149 146.6 169.149H156.6C156.7 169.149 156.7 169.149 156.8 169.149C168.3 170.649 170.4 178.949 170.7 181.949Z" fill="#666666"/>
<path d="M358.2 30.0491C358.2 30.0491 357.5 37.7491 363.5 37.8491L364.7 31.3491L358.2 30.0491Z" fill="#666666"/>
<path d="M363.5 39.449C361.5 39.349 359.8 38.649 358.7 37.349C356.3 34.649 356.6 30.349 356.6 29.849C356.6 29.349 356.9 28.949 357.2 28.649C357.6 28.349 358 28.249 358.5 28.349L365 29.749C365.9 29.949 366.4 30.749 366.3 31.649L365.1 38.149C365 38.949 364.3 39.449 363.5 39.449ZM359.9 32.049C360 33.149 360.4 34.349 361.1 35.249C361.4 35.549 361.8 35.849 362.2 36.049L362.8 32.749L359.9 32.049Z" fill="#666666"/>
<path d="M309 1.84876C310.4 1.84876 311.1 3.54878 310.1 4.64878C307.5 7.14878 305.2 10.5488 304.4 12.5488C303 15.8488 302.8 19.4488 303.1 22.9488C305.5 46.6488 296.3 47.8488 296.3 47.8488C285.6 48.8488 277.1 36.4488 273.3 29.5488C271.5 26.3488 271.3 22.4488 272.9 19.0488C276.2 12.1488 285.2 1.64876 309 1.84876Z" fill="white"/>
<path d="M295.1 49.4488C284.3 49.4488 276 37.5488 271.9 30.2488C269.8 26.5488 269.7 22.0488 271.5 18.2488C274.8 11.4488 283.9 0.0488281 308.6 0.0488281C308.8 0.0488281 308.9 0.0488281 309.1 0.0488281C310.4 0.0488281 311.6 0.848828 312.1 2.04883C312.6 3.24883 312.3 4.64883 311.4 5.54883C308.9 8.04883 306.7 11.2488 306 12.9488C304.9 15.6488 304.5 18.9488 304.8 22.5488C307.3 47.1488 297.7 49.1488 296.6 49.2488C296 49.4488 295.6 49.4488 295.1 49.4488ZM308.5 3.44882C285.6 3.44882 277.3 13.6488 274.3 19.7488C272.9 22.5488 273.1 25.9488 274.6 28.7488C277.7 34.3488 286.1 47.1488 296.1 46.1488C296.1 46.1488 303.6 44.4488 301.4 22.9488C301 18.7488 301.5 15.0488 302.8 11.7488C303.8 9.34884 306.3 5.84882 308.9 3.34882C308.8 3.44882 308.7 3.44882 308.5 3.44882Z" fill="#666666"/>
</svg>
