<svg width="67" height="39" viewBox="0 0 67 39" fill="none" xmlns="http://www.w3.org/2000/svg">
<path d="M66.9726 27.417C66.9145 27.2764 66.8952 27.1158 66.8177 26.9953C66.7984 26.9752 66.7984 26.9551 66.779 26.935C66.7597 26.9149 66.7403 26.8948 66.7209 26.8748C66.6435 26.7744 66.6048 26.6539 66.5274 26.5535C66.4693 26.4731 66.4112 26.4129 66.3725 26.3125C66.3531 26.2723 66.3338 26.2321 66.3144 26.2121C66.295 26.1719 66.2563 26.1518 66.2176 26.1117C66.1595 26.0514 66.1015 25.9912 66.0627 25.9108C66.024 25.8305 66.0047 25.7301 66.0047 25.6498C66.0047 25.6096 66.0047 25.5694 66.024 25.5293C66.0434 25.4289 66.0821 25.3285 66.1015 25.228C66.1402 25.1075 66.1983 25.0071 66.2176 24.8866C66.237 24.8063 66.2563 24.7461 66.2757 24.6657C66.295 24.5653 66.3338 24.4649 66.3338 24.3444C66.3338 24.2039 66.2757 24.0834 66.2176 23.9629C66.1402 23.8022 66.1015 23.6014 66.0047 23.4608C65.9272 23.3403 65.8304 23.2198 65.753 23.0993C65.7143 23.019 65.6562 22.9588 65.5981 22.8985C65.5788 22.8784 65.5013 22.8182 65.5013 22.778C65.5013 22.7379 65.5013 22.7178 65.5013 22.6977C65.4045 22.6575 65.3271 22.537 65.269 22.4567C65.2109 22.3965 65.1335 22.3362 65.0561 22.276C64.9786 22.2157 64.9399 22.1555 64.8625 22.0952C64.8044 22.0551 64.7463 22.0149 64.6882 21.9547C64.5334 21.8342 64.3785 21.7137 64.2043 21.6133C64.0881 21.5329 63.972 21.4526 63.8364 21.4125C63.7396 21.3723 63.6235 21.3723 63.5267 21.312C63.488 21.292 63.4686 21.2719 63.4299 21.2719C63.4105 21.2719 63.3912 21.2518 63.3718 21.2518C63.275 21.2317 63.1589 21.2518 63.0621 21.2719C62.9653 21.292 62.8878 21.312 62.8104 21.312C62.6943 21.312 62.5975 21.3321 62.5007 21.292C62.4426 21.2719 62.4039 21.2518 62.3651 21.2116C62.3264 21.1715 62.3071 21.1313 62.249 21.1112C62.1135 21.051 61.9199 20.9706 61.7457 21.0108C61.6682 21.0309 61.6101 21.0309 61.5327 21.0309C61.3778 21.051 61.2036 21.0911 61.0487 21.1313C60.9713 21.1514 60.8745 21.1715 60.7971 21.2116C60.739 21.2317 60.6809 21.2719 60.6228 21.292C60.5841 21.312 60.526 21.292 60.4873 21.312C60.4292 21.312 60.4486 21.312 60.4486 21.3522C60.468 21.4125 60.468 21.4325 60.4099 21.4727C60.3131 21.5329 60.255 21.5932 60.1388 21.6334C60.0033 21.6735 59.8678 21.7137 59.7517 21.7739C59.6742 21.794 59.6161 21.8543 59.5387 21.8944C59.4806 21.9145 59.4032 21.9346 59.3451 21.9747C59.2677 22.0149 59.2096 22.0752 59.1322 22.1153C59.0741 22.1354 59.016 22.1555 58.9579 22.1756C58.9192 22.1756 58.8611 22.1555 58.8224 22.1957C58.8611 22.1957 58.8805 22.2157 58.8999 22.2559C58.9192 22.2961 58.8805 22.3362 58.8418 22.3563C58.745 22.4166 58.6676 22.4366 58.5708 22.4969C58.5127 22.517 58.4933 22.5571 58.4352 22.5772C58.3965 22.5973 58.3578 22.5973 58.3384 22.6174C58.4159 22.7178 58.1061 22.8784 58.0481 22.9186C57.99 22.9588 57.9513 22.9989 57.8932 23.0391C57.8545 23.0592 57.7964 23.0993 57.7383 23.1395C57.6996 23.1596 57.6802 23.1797 57.6609 23.1998C57.6222 23.2198 57.5834 23.2801 57.5447 23.3002C57.4866 23.3604 57.4866 23.4608 57.4866 23.5411C57.5254 23.5211 57.5447 23.4809 57.5641 23.4407C57.5834 23.4207 57.6028 23.4006 57.6222 23.3805C57.6415 23.3805 57.6609 23.3805 57.6802 23.3604C57.6996 23.4207 57.6415 23.4608 57.6222 23.5211C57.6028 23.5813 57.5834 23.6215 57.5834 23.6817C57.5834 23.7621 57.5641 23.8424 57.5834 23.9227C57.6028 23.9227 57.6609 23.8825 57.6802 23.9026C57.6996 23.9227 57.6996 23.9629 57.6996 23.983C57.719 24.0432 57.7964 24.0834 57.8351 24.1436C57.8738 24.1838 57.8932 24.244 57.9125 24.2842C58.0481 24.5453 58.0481 24.7662 57.7964 24.9469C57.6802 25.0071 57.5447 25.0473 57.4286 25.0674C57.3124 25.0875 57.2156 25.1477 57.0995 25.1879C56.9639 25.228 56.8478 25.228 56.7123 25.228C56.6348 25.228 56.5961 25.2481 56.5187 25.2682C56.4606 25.2883 56.3638 25.2682 56.2864 25.2682C56.1121 25.2682 55.9379 25.2481 55.7637 25.2682C55.512 25.2883 55.2216 25.3084 54.9893 25.3686C54.9119 25.3887 54.8344 25.4289 54.757 25.4289C54.2537 25.469 53.731 25.3887 53.2276 25.3887C52.7049 25.3887 52.1629 25.3485 51.6402 25.3485C51.3304 25.3485 51.0013 25.3485 50.7109 25.4489C50.5948 25.4891 50.4593 25.4891 50.3431 25.5293C50.2657 25.5494 50.1882 25.5694 50.1108 25.5895C50.0334 25.6096 49.9559 25.6498 49.8591 25.6498C49.743 25.6698 49.6462 25.6899 49.5494 25.7301C49.4526 25.7703 49.3945 25.7903 49.2977 25.8104C49.2009 25.8305 49.1041 25.8506 48.988 25.8707C48.8912 25.8907 48.775 25.8907 48.6782 25.9108C48.5814 25.9309 48.4846 25.9711 48.3878 26.0112C48.3298 26.0313 48.2717 26.0514 48.2136 26.0313C48.1749 26.0112 48.1362 25.9912 48.0975 25.9711C47.9232 25.8506 47.7296 25.71 47.5748 25.5494C47.4586 25.4489 47.3425 25.3485 47.2263 25.2481C47.1682 25.1879 47.1101 25.1477 47.0521 25.0875C46.994 25.0071 46.9166 24.9469 46.8778 24.8465C46.8585 24.8063 46.8198 24.7662 46.8004 24.726C46.781 24.6657 46.7423 24.6055 46.723 24.5453C46.6455 24.3444 46.5294 24.1436 46.4713 23.9428C46.4132 23.7621 46.3551 23.6014 46.3358 23.4207C46.3164 23.3202 46.2971 23.2198 46.2777 23.1194C46.2583 23.0793 46.2583 23.0391 46.239 22.9989C46.2196 22.9989 46.2196 22.9789 46.2196 22.9789C46.2196 22.9588 46.2196 22.9387 46.2196 22.9186C46.2196 22.8985 46.2003 22.8784 46.2003 22.8584C46.1809 22.8182 46.1809 22.778 46.1809 22.7379C46.1615 22.6575 46.1809 22.537 46.1035 22.4768C46.0648 22.4166 45.9486 22.3965 45.8905 22.3965C45.7356 22.3764 45.5808 22.517 45.4646 22.6174C45.3678 22.6977 45.3097 22.8383 45.271 22.9387C45.2129 23.0793 45.1549 23.2399 45.1162 23.4006C45.0968 23.4608 45.0774 23.5411 45.0581 23.6014C45.0387 23.6616 45.0581 23.7219 45.0387 23.7821C45.0194 23.8625 45 23.9227 45 24.003C45 24.2039 45.0774 24.4047 45.0387 24.5854C45 24.7662 45.0387 24.9469 45.0968 25.1075C45.1162 25.1678 45.1162 25.208 45.1355 25.2682C45.1355 25.3084 45.1549 25.3686 45.1742 25.4088C45.271 25.6096 45.4259 25.8707 45.4646 26.0916C45.4065 26.0715 45.3291 26.0313 45.3097 25.9711C45.3291 26.1719 45.4453 26.3326 45.5808 26.4731C45.7163 26.6137 45.8905 26.7141 46.0648 26.8145C45.9292 26.8547 45.7937 26.8346 45.6776 26.7744C45.6969 26.7744 45.7163 26.8748 45.7356 26.8948C45.7744 26.9551 45.8324 26.9752 45.8712 27.0354C45.8905 27.0555 45.9099 27.0756 45.9292 27.0957C45.9486 27.1358 45.9486 27.176 45.968 27.2162C46.0067 27.2563 46.0648 27.2764 46.1035 27.3367C46.1422 27.3969 46.2003 27.417 46.239 27.4772C46.2777 27.5375 46.3164 27.5977 46.3551 27.6379C46.3745 27.658 46.4326 27.6781 46.4519 27.7182C46.4713 27.7584 46.4519 27.7985 46.4519 27.8387C46.4326 27.9391 46.4132 28.0596 46.3939 28.16C46.3745 28.2604 46.4132 28.3608 46.3745 28.4613C46.3551 28.5617 46.3358 28.642 46.2971 28.7424C46.2777 28.8227 46.239 28.9031 46.2003 28.9834C46.1615 29.0838 46.1228 29.1842 46.1228 29.2846C46.0648 29.7063 45.9292 30.0879 45.9486 30.5096C45.9873 30.4695 46.026 30.4092 46.0648 30.369C46.1228 30.5498 46.0841 30.7305 46.0648 30.9313C46.0841 30.8912 46.1228 30.8711 46.1615 30.8711C46.239 30.9113 46.2583 31.0518 46.2583 31.1121C46.2777 31.2527 46.2971 31.3731 46.3164 31.5137C46.3358 31.6342 46.3358 31.7547 46.3745 31.8752C46.4132 31.9957 46.3939 32.0359 46.3551 32.1363C46.3358 32.1764 46.3358 32.2367 46.3164 32.2768C46.2777 32.3973 46.2196 32.5178 46.1422 32.6383C46.0841 32.7387 46.0067 32.8391 45.9292 32.9195C45.8712 32.9797 45.7937 33.04 45.7744 33.1203C45.7356 33.2006 45.755 33.2609 45.7356 33.3412C45.7356 33.4014 45.6969 33.4617 45.6969 33.5219C45.6969 33.6223 45.6969 33.7227 45.6969 33.8232C45.6969 34.024 45.755 34.2449 45.7163 34.4457C45.6776 34.5662 45.6389 34.6666 45.6389 34.8072C45.6389 34.8875 45.5808 34.9478 45.6195 35.0482C45.6582 35.0281 45.7356 34.9879 45.755 34.9478C45.7356 35.0682 45.755 35.1887 45.755 35.3092C45.755 35.4096 45.7163 35.51 45.7356 35.6305C45.7356 35.6908 45.7744 35.751 45.7937 35.8113C45.8518 35.992 45.8324 36.1728 45.8131 36.3535C45.7937 36.474 45.7744 36.5744 45.7744 36.6949C45.755 36.8957 45.7937 37.0564 45.8324 37.2572C45.8518 37.4178 45.9099 37.5785 46.0067 37.699C46.0841 37.7994 46.1615 37.8998 46.239 38.0002C46.3551 38.1408 46.51 38.3015 46.6842 38.3617C46.723 38.3818 46.7423 38.3818 46.8004 38.3617C46.9166 38.3416 47.0327 38.3015 47.1489 38.3215C47.2263 38.3416 47.2844 38.4019 47.3618 38.4219C47.4586 38.442 47.5748 38.442 47.6716 38.4219C47.8071 38.4019 48.02 38.4219 48.1168 38.3015C48.1749 38.2412 48.1749 38.1609 48.1749 38.0806C48.1943 37.9801 48.2136 37.8797 48.2136 37.7793C48.2136 37.699 48.233 37.5986 48.2136 37.5383C48.1943 37.4781 48.1749 37.4178 48.1943 37.3576C48.1943 37.1769 48.1362 36.976 48.0975 36.7953C48.0587 36.6146 47.9813 36.474 47.8845 36.3133C47.8458 36.2531 47.8071 36.2129 47.8071 36.1527C47.7877 36.0723 47.7877 36.0121 47.7877 35.9318C47.7877 35.8113 47.8071 35.6707 47.7877 35.5502C47.7877 35.49 47.7684 35.4297 47.749 35.3896C47.7296 35.2289 47.7296 35.0883 47.7296 34.9277C47.7296 34.8674 47.7296 34.8273 47.7684 34.7871C47.8071 34.7469 47.8264 34.7268 47.8652 34.6867C47.9426 34.6064 48.0394 34.5662 48.1362 34.526C48.2523 34.4859 48.3298 34.4055 48.4459 34.3453C48.5234 34.3051 48.6008 34.3051 48.6782 34.265C48.7557 34.2248 48.8137 34.2047 48.8912 34.1445C48.9299 34.1244 48.9493 34.0441 48.988 34.0441C48.9299 34.2449 48.8331 34.4457 48.775 34.6465C48.7363 34.767 48.6782 34.8875 48.6782 35.008C48.6976 35.249 48.8912 35.3896 48.9493 35.6305C48.9686 35.731 49.0073 35.8314 49.0073 35.9117C49.0073 35.9719 49.0073 36.0121 49.0267 36.0723C49.0461 36.1125 49.0267 36.1728 49.0267 36.233C49.0461 36.1928 49.0848 36.1527 49.1041 36.1527C49.1429 36.1326 49.1429 36.1326 49.1622 36.1928C49.1816 36.2933 49.1622 36.3736 49.1816 36.4539C49.2203 36.5744 49.2784 36.6748 49.2977 36.7953C49.3364 36.7953 49.3364 36.7752 49.3558 36.7551C49.4526 36.7551 49.3752 37.0363 49.53 37.0363C49.53 37.0965 49.5881 37.1769 49.6462 37.217C49.6656 37.2371 49.7043 37.2371 49.7236 37.2572C49.8204 37.3174 49.8591 37.4178 49.9559 37.4781C50.0334 37.5183 50.1108 37.5383 50.1689 37.6187C50.2657 37.7592 50.2657 37.9801 50.4012 38.1006C50.4593 38.1609 50.5754 38.1609 50.6529 38.181C50.7109 38.201 50.7497 38.2211 50.8077 38.2613C51.04 38.3617 51.3498 38.4019 51.6015 38.3617C51.7176 38.3416 51.8144 38.3617 51.9306 38.3617C52.0854 38.3617 52.221 38.3416 52.3758 38.3215C52.4339 38.3215 52.492 38.3416 52.5694 38.3416C52.6662 38.3416 52.763 38.3215 52.8405 38.2814C52.8985 38.2613 52.9566 38.2412 52.9953 38.2211C53.0534 38.201 53.1502 38.181 53.2083 38.1408C53.2664 38.0806 53.2276 37.94 53.2276 37.8797C53.2276 37.8396 53.2276 37.7994 53.2276 37.7392C53.2276 37.7191 53.2083 37.699 53.2083 37.6588C53.2083 37.6387 53.2083 37.6187 53.2083 37.5986C53.1889 37.5183 53.1502 37.458 53.1308 37.3978C53.0921 37.3174 53.0728 37.2572 53.0147 37.1969C52.9566 37.1367 52.9372 37.0564 52.8792 36.9961C52.8405 36.956 52.8017 36.9158 52.7437 36.8756C52.6856 36.8355 52.6275 36.8154 52.5501 36.8154C52.4726 36.8154 52.3952 36.8154 52.3178 36.8154C52.221 36.8154 52.1048 36.8355 52.008 36.8154C51.9306 36.8154 51.8919 36.7351 51.8338 36.6748C51.7951 36.6146 51.7757 36.5543 51.7176 36.5142C51.6789 36.474 51.6595 36.4539 51.6208 36.4137C51.5434 36.3133 51.5047 36.2129 51.4272 36.1125C51.3111 35.9719 51.253 35.8314 51.1949 35.6707C51.1756 35.6305 51.1562 35.5703 51.1368 35.5301C51.1175 35.4699 51.1175 35.4699 51.1368 35.4096C51.1368 35.3695 51.1368 35.3494 51.1368 35.3293C51.1368 35.3092 51.1562 35.2891 51.1562 35.2691C51.1756 35.1887 51.1949 35.1285 51.1949 35.0482C51.1949 35.008 51.2336 34.9277 51.2336 34.8875C51.2336 34.8473 51.2143 34.8473 51.2143 34.8072C51.2143 34.7871 51.2724 34.7269 51.2724 34.7068C51.2917 34.6867 51.3111 34.6465 51.3304 34.6264C51.4079 34.5461 51.4853 34.4457 51.5627 34.3654C51.6983 34.2047 51.8725 34.0441 51.9693 33.8633C51.9886 33.8232 52.0274 33.7629 52.0854 33.7629C52.1048 33.7629 52.1242 33.783 52.1435 33.783C52.1822 33.783 52.2016 33.783 52.221 33.8031C52.3371 33.8432 52.492 33.8232 52.6081 33.8633C52.6469 33.8834 52.6856 33.9035 52.7049 33.9436C52.7243 33.9637 52.763 33.9637 52.7824 33.9838C52.8404 34.024 52.9179 34.024 52.9953 34.0641C53.0728 34.1043 52.976 34.1244 52.9566 34.1445C53.0534 34.1445 53.1502 34.1445 53.247 34.1445C53.3438 34.1445 53.518 34.1445 53.6342 34.1846C53.6342 34.2047 53.5761 34.2248 53.5567 34.2248C53.4987 34.2449 53.4793 34.265 53.4406 34.3051C53.4793 34.3252 53.4987 34.285 53.5374 34.285C53.5761 34.285 53.6148 34.285 53.6535 34.285C53.731 34.265 53.8084 34.265 53.8858 34.265C53.9633 34.265 54.0407 34.265 54.1182 34.265C54.1569 34.265 54.1956 34.285 54.2537 34.285C54.3505 34.285 54.3698 34.265 54.4473 34.3453C54.5828 34.4658 54.5053 34.6666 54.486 34.8072C54.486 34.8473 54.486 34.9076 54.486 34.9478C54.4666 35.0482 54.4473 35.1486 54.3892 35.2289C54.3505 35.3092 54.2924 35.3896 54.2343 35.4498C54.1956 35.49 54.1569 35.5502 54.1182 35.5904C54.1762 35.6506 54.273 35.5703 54.3311 35.5502C54.3311 35.6105 54.273 35.7109 54.2537 35.751C54.215 35.8314 54.1956 35.8916 54.1762 35.9719C54.2537 35.8715 54.2537 36.0523 54.2537 36.0723C54.2343 36.1928 54.1956 36.2732 54.1956 36.3937C54.1956 36.4941 54.1762 36.6146 54.1762 36.715C54.1762 37.0162 54.2149 37.2974 54.2924 37.5986C54.3311 37.7793 54.3892 37.9601 54.4473 38.1408C54.486 38.2613 54.486 38.4219 54.5828 38.5023C54.6796 38.5826 54.7957 38.6428 54.9119 38.7031C55.0087 38.7633 55.1248 38.7433 55.2216 38.7633C55.3378 38.8035 55.4539 38.8638 55.5701 38.9039C55.783 38.9842 56.0347 39.0244 56.267 38.9842C56.5187 38.9441 56.7704 39.0043 57.022 38.9441C57.0607 38.9441 57.0995 38.924 57.1382 38.9039C57.1575 38.8838 57.1963 38.8638 57.2156 38.8638C57.3318 38.8035 57.4479 38.8638 57.5641 38.8437C57.7577 38.8035 57.8158 38.4822 57.7964 38.3215C57.777 38.181 57.6802 38.0806 57.6415 37.9601C57.6222 37.8998 57.6028 37.8396 57.5641 37.7793C57.5447 37.699 57.506 37.6187 57.4479 37.5584C57.4092 37.4982 57.3511 37.458 57.2931 37.4178C57.2543 37.3777 57.2156 37.3576 57.1769 37.3174C57.022 37.1769 56.8672 37.1969 56.6736 37.1969C56.5961 37.1969 56.4993 37.217 56.4219 37.1969C56.4025 37.1568 56.4219 37.0764 56.4219 37.0363C56.4412 36.976 56.4413 36.9158 56.4606 36.8555C56.4606 36.7752 56.4993 36.715 56.5187 36.6346C56.5574 36.5142 56.5768 36.3736 56.6155 36.2531C56.7704 35.751 56.9059 35.2289 57.0995 34.7268C57.1188 34.6666 57.1188 34.5662 57.1575 34.506C57.2156 34.4457 57.2737 34.4457 57.3318 34.4457C57.3898 34.4457 57.4286 34.4457 57.4866 34.4256C57.5447 34.4055 57.5834 34.4055 57.6415 34.4055C57.7577 34.4055 57.8545 34.3051 57.9706 34.3051C57.9319 34.3453 57.8738 34.3654 57.8545 34.4055C57.8932 34.4055 57.9319 34.4055 57.9513 34.3855C58.0481 34.3654 58.1255 34.3252 58.2223 34.3051C58.2997 34.285 58.3578 34.265 58.4352 34.2449C58.4546 34.2449 58.4933 34.2047 58.5127 34.2047C58.6095 34.2047 58.4933 34.3654 58.474 34.4256C58.4933 34.4457 58.5901 34.4055 58.6095 34.3855C58.6869 34.3252 58.745 34.2449 58.8418 34.2047C58.8805 34.1846 58.9192 34.1646 58.9773 34.1445C59.0354 34.1043 59.0935 34.0441 59.1709 34.024C59.229 34.0039 59.2677 34.024 59.3258 34.024C59.4032 34.024 59.4032 33.9838 59.4806 34.0441C59.5194 34.0842 59.5581 34.1445 59.5581 34.2047C59.5581 34.2449 59.5581 34.285 59.5581 34.3252C59.5581 34.5059 59.5774 34.6666 59.5774 34.8473C59.5774 34.9879 59.5581 35.1285 59.6161 35.2691C59.6549 35.1687 59.7129 35.0682 59.771 34.9879C59.7904 35.0682 59.7904 35.1486 59.8097 35.2088C59.8291 35.2691 59.8678 35.3494 59.8678 35.4297L59.8872 35.4096C59.9065 35.4699 59.9453 35.5301 59.9646 35.5904C59.984 35.6506 60.0033 35.751 60.0614 35.7912C60.1001 35.7711 60.1388 35.7109 60.1776 35.7109C60.1969 35.8715 60.2937 35.992 60.3131 36.1527C60.3131 36.1928 60.2937 36.2531 60.3324 36.2933C60.3712 36.3535 60.3905 36.3133 60.4486 36.3334C60.5067 36.3535 60.4873 36.3736 60.4873 36.4137C60.4873 36.474 60.526 36.5342 60.5454 36.6146C60.5647 36.715 60.5841 36.8154 60.6228 36.9158C60.6422 36.976 60.6809 37.0162 60.7196 37.0564C60.7971 37.1166 60.8745 37.1367 60.9326 37.217C60.9906 37.2974 61.0294 37.3777 61.0681 37.4781C61.1262 37.5986 61.1649 37.7191 61.281 37.7994C61.4165 37.8998 61.6101 37.8396 61.7457 37.9199C61.7844 37.94 61.8037 37.9801 61.8424 38.0203C61.9586 38.1408 62.0941 38.0605 62.2296 38.0605C62.2877 38.0605 62.3845 38.0404 62.4232 38.0605C62.4426 38.0605 62.4426 38.0806 62.4619 38.1006C62.52 38.1207 62.6362 38.1006 62.6943 38.1006H62.9266C62.9653 38.1006 63.0234 38.1006 63.0621 38.1006C63.1202 38.1006 63.1976 38.0806 63.2557 38.0806C63.3331 38.0806 63.4105 38.0605 63.488 38.0404C63.5461 38.0203 63.6041 38.0002 63.6622 37.9801C63.7396 37.94 63.8558 37.9601 63.9139 37.8797C63.9332 37.8396 63.9526 37.8195 63.9913 37.7994C64.03 37.7793 64.03 37.7392 64.03 37.699C64.0494 37.6588 64.0494 37.6387 64.03 37.5785C64.0107 37.4982 63.9913 37.4178 63.972 37.3375C63.9526 37.1969 63.8752 37.0564 63.8364 36.9359C63.8171 36.8756 63.8171 36.8154 63.7977 36.7551C63.7784 36.6949 63.7784 36.6346 63.7396 36.5744C63.7203 36.5142 63.7009 36.474 63.6622 36.4137C63.6428 36.3937 63.6428 36.3736 63.6235 36.3736C63.6041 36.3535 63.5848 36.3535 63.5654 36.3334C63.5267 36.3133 63.5073 36.2932 63.4686 36.2732C63.4299 36.2531 63.4105 36.2531 63.3718 36.233C63.3331 36.233 63.2944 36.1928 63.2363 36.1928C63.1008 36.1928 62.9653 36.2129 62.8298 36.1928C62.791 36.1928 62.7523 36.1728 62.733 36.1326C62.6943 36.0723 62.6555 36.0121 62.6362 35.9519C62.5975 35.8715 62.5587 35.8113 62.5394 35.731C62.52 35.6707 62.5007 35.6105 62.4813 35.5301C62.4232 35.3695 62.3651 35.2088 62.3264 35.0482C62.249 34.7871 62.1909 34.526 62.1522 34.265C62.1522 34.2248 62.1328 34.1646 62.1328 34.1244C62.1135 34.0641 62.0941 34.0039 62.0941 33.9436C62.0748 33.7629 62.1328 33.5822 62.1716 33.4215C62.1909 33.3613 62.1716 33.3211 62.1716 33.2609C62.1909 33.2006 62.1909 33.1805 62.1909 33.1203C62.1909 32.9797 62.2296 32.8391 62.2103 32.6986C62.2103 32.5982 62.2103 32.4977 62.2103 32.3773C62.2103 32.3973 62.1909 32.3973 62.1716 32.4174C62.1716 32.3572 62.1909 32.317 62.2103 32.2768C62.2296 32.2166 62.2296 32.1764 62.249 32.1162C62.2684 32.0359 62.2684 31.9555 62.2877 31.8752C62.2877 31.835 62.2877 31.7949 62.2877 31.7547C62.3651 31.7748 62.3651 31.8953 62.4039 31.9354C62.4426 31.835 62.4039 31.6744 62.4039 31.574C62.4039 31.4936 62.3845 31.3531 62.4039 31.2727C62.4426 31.2928 62.4619 31.333 62.4813 31.3731C62.4813 31.2326 62.4813 31.1121 62.4813 30.9715C62.4813 30.9113 62.4813 30.8309 62.4813 30.7707C62.4813 30.6301 62.5394 30.5096 62.5394 30.3891C62.5394 30.3088 62.5587 30.2084 62.5587 30.1281C62.5587 30.0879 62.5781 30.0477 62.5781 30.0076C62.5781 29.9473 62.5781 29.9072 62.5975 29.8469C62.5975 29.8268 62.6168 29.8067 62.6168 29.7666C62.6168 29.7264 62.6362 29.6863 62.6362 29.626C62.6362 29.5858 62.6555 29.5256 62.6555 29.4854C62.6555 29.4453 62.6555 29.4051 62.6555 29.3649C62.6943 29.2244 62.733 29.0838 62.7523 28.9432V28.9231L62.791 28.9633C62.8298 28.8629 62.9846 28.9231 63.0621 28.9432C63.1202 28.9432 63.1782 28.9633 63.2363 28.9834C63.2944 29.0035 63.3718 29.0035 63.4299 29.0235C63.4686 29.0436 63.5073 29.0637 63.5461 29.0637C63.5848 29.0637 63.6235 29.0838 63.6622 29.1039C63.7203 29.124 63.7784 29.124 63.8171 29.144C63.9332 29.1842 64.0687 29.2244 64.2043 29.2645C64.3011 29.2846 64.3979 29.3248 64.4947 29.3248C64.5527 29.3248 64.6108 29.3248 64.6689 29.3248C64.727 29.3248 64.7463 29.3047 64.8044 29.3047C64.9206 29.2846 65.0367 29.2445 65.1529 29.1842C65.1916 29.1641 65.2303 29.144 65.2884 29.124C65.3852 29.0637 65.482 28.9834 65.5594 28.9031C65.5788 28.883 65.6175 28.8629 65.6562 28.8428C65.6756 28.8428 65.7143 28.8428 65.7336 28.8428C65.8498 28.8428 65.9079 28.8026 65.9853 28.7223C66.024 28.6822 66.0627 28.6621 66.1015 28.642C66.1402 28.6219 66.1595 28.5817 66.1983 28.5617C66.2951 28.5014 66.3338 28.3809 66.4112 28.3006C66.4499 28.2604 66.508 28.2403 66.5467 28.2203C66.5854 28.2002 66.6048 28.1801 66.6435 28.16C66.6822 28.1199 66.7209 28.0998 66.7597 28.0596C66.779 28.0395 66.8177 28.0194 66.8371 27.9994C66.8758 27.9592 66.8758 27.919 66.8952 27.8789C66.9145 27.8387 66.9339 27.7985 66.9533 27.7383C66.9726 27.6781 66.992 27.6178 66.992 27.5375C67.0113 27.5174 66.992 27.4571 66.9726 27.417Z" fill="#D9ECFA"/>
<path d="M38.6189 5.26235C38.6189 5.19895 38.6189 5.16724 38.6189 5.10384C38.6189 5.07214 38.6189 5.04044 38.6189 5.00874C38.6189 4.97704 38.5871 4.94534 38.5871 4.91364C38.5871 4.88193 38.5871 4.81853 38.5871 4.78683L38.6189 4.81853C38.6189 4.78683 38.6189 4.75513 38.6189 4.72343C38.6189 4.69173 38.5871 4.66003 38.5871 4.62833C38.5871 4.56493 38.5236 4.46982 38.4919 4.40642C38.5236 4.37472 38.5554 4.46982 38.5871 4.50153C38.5871 4.53323 38.6507 4.56493 38.6507 4.59663C38.6507 4.50152 38.5871 4.43812 38.5554 4.37472C38.5554 4.34302 38.5554 4.31132 38.5236 4.27962C38.4919 4.24792 38.4601 4.21622 38.4283 4.18452C38.4283 4.15282 38.3966 4.15281 38.3966 4.12111C38.3966 4.08941 38.3648 4.08941 38.3648 4.05771C38.3648 4.02601 38.2695 3.96261 38.3013 3.93091C38.3331 3.89921 38.3966 3.96261 38.4283 3.96261C38.3966 3.89921 38.3648 3.86751 38.3648 3.8041C38.3331 3.7724 38.3331 3.7407 38.3013 3.7407C38.3013 3.709 38.2695 3.709 38.2695 3.6773C38.2378 3.6456 38.206 3.5822 38.1425 3.5505C38.0472 3.4554 37.9837 3.36029 37.8884 3.29689C37.8249 3.23349 37.7614 3.20179 37.6979 3.17009C37.6661 3.17009 37.5391 3.07499 37.5073 3.10669C37.5391 3.07499 37.6026 3.01158 37.6344 2.97988C37.5391 2.97988 37.4438 2.97988 37.3485 2.94818C37.285 2.94818 37.2215 2.91648 37.1262 2.91648C37.0627 2.91648 36.9992 2.88478 36.9357 2.88478C36.8404 2.85308 36.7769 2.82138 36.7134 2.78968C36.6498 2.75798 36.5546 2.72628 36.491 2.72628C36.4275 2.69458 36.364 2.69457 36.3005 2.69457C36.2687 2.69457 36.2687 2.69457 36.237 2.69457C36.2687 2.69457 36.2687 2.66287 36.3005 2.66287C36.3322 2.66287 36.3322 2.66287 36.364 2.63117C36.3005 2.59947 36.2687 2.59947 36.2052 2.56777C36.0782 2.53607 35.9829 2.50437 35.8559 2.47267C35.7923 2.44097 35.6971 2.44097 35.6335 2.44097C35.6018 2.44097 35.57 2.44097 35.57 2.44097C35.6018 2.40927 35.6653 2.40927 35.6653 2.37757C35.6336 2.37757 35.57 2.37757 35.5383 2.37757C35.4748 2.37757 35.443 2.37757 35.3795 2.37757C35.2842 2.37757 35.1889 2.34587 35.0619 2.34587C34.9666 2.34587 34.8396 2.31417 34.7443 2.28246C34.7125 2.25076 34.649 2.25076 34.6173 2.25076C34.5537 2.21906 34.4902 2.18736 34.4267 2.15566C34.3314 2.12396 34.2362 2.09226 34.1409 2.06056C34.0774 2.06056 34.0456 2.02886 33.9821 2.02886C33.9186 2.02886 33.855 2.02886 33.7598 2.02886C33.6963 2.02886 33.6327 2.06056 33.5692 2.06056C33.601 2.02886 33.6645 1.99716 33.6963 1.96546C33.5692 2.02886 33.4104 2.06056 33.2834 2.12396C33.2199 2.15566 33.1881 2.18736 33.1246 2.18736C33.0928 2.18736 33.0611 2.18736 33.0611 2.21906C32.934 2.28246 32.8388 2.40927 32.7117 2.50437C32.6482 2.56777 32.5847 2.66288 32.4894 2.72628C32.4259 2.75798 32.3624 2.72628 32.2989 2.72628C32.2671 2.72628 32.2353 2.72628 32.2036 2.72628C32.1083 2.72628 32.013 2.72628 31.9178 2.69457C31.9178 2.66287 31.9178 2.66287 31.9178 2.66287C31.886 2.66287 31.8542 2.66287 31.8542 2.66287C31.8225 2.66287 31.8225 2.69458 31.7907 2.72628C31.759 2.69458 31.8225 2.63117 31.7907 2.59947C31.7272 2.66287 31.6637 2.72628 31.6002 2.75798C31.6002 2.72628 31.6319 2.69457 31.6319 2.66287C31.6002 2.66287 31.5366 2.66287 31.5049 2.69457C31.4731 2.69457 31.4096 2.75798 31.3779 2.75798C31.3779 2.72628 31.4096 2.69457 31.4414 2.66287C31.4731 2.63117 31.5049 2.59947 31.5049 2.56777C31.4414 2.59947 31.3779 2.66287 31.3143 2.66287C31.2508 2.69457 31.1555 2.69458 31.092 2.72628C31.0603 2.72628 31.0285 2.72628 30.9967 2.72628C30.965 2.72628 30.9332 2.72628 30.8697 2.72628C30.8379 2.72628 30.7744 2.72628 30.7427 2.75798C30.7109 2.75798 30.7109 2.72628 30.6792 2.69457C30.6474 2.66287 30.5839 2.63117 30.5521 2.56777C30.5204 2.53607 30.5204 2.50437 30.4886 2.47267C30.4251 2.44097 30.3616 2.40927 30.298 2.37757C30.2345 2.34586 30.171 2.31417 30.0757 2.28246C29.9805 2.25076 29.9169 2.21906 29.8217 2.21906C29.5676 2.21906 29.3453 2.21906 29.0912 2.18736C29.0594 2.18736 28.9959 2.15566 28.9642 2.15566C28.9324 2.15566 28.9007 2.15566 28.8689 2.15566C28.7736 2.12396 28.7101 2.09226 28.6466 2.06056C28.6148 2.09226 28.6466 2.15566 28.6466 2.18736C28.6148 2.25076 28.456 2.21906 28.3925 2.21906C28.202 2.21906 28.0114 2.25076 27.8208 2.25076C27.7891 2.25076 27.7573 2.25076 27.6938 2.25076C27.6621 2.25076 27.6621 2.21906 27.6303 2.25076C27.6938 2.28246 27.7573 2.28246 27.8208 2.31416C27.8526 2.31416 27.8844 2.34586 27.9161 2.37757C27.8844 2.40927 27.7256 2.37757 27.6938 2.37757C27.6303 2.37757 27.5668 2.37757 27.5033 2.37757C27.5033 2.40927 27.5668 2.40927 27.5668 2.47267C27.4715 2.53607 27.3762 2.47267 27.2809 2.50437C27.2492 2.50437 27.2492 2.50437 27.2174 2.53607C27.1857 2.53607 27.1857 2.53607 27.1539 2.53607C27.0904 2.56777 27.0269 2.59947 26.9634 2.66287C26.8998 2.69457 26.8681 2.69458 26.8363 2.75798C26.8046 2.78968 26.7728 2.82138 26.741 2.82138C26.6458 2.82138 26.5505 2.82138 26.487 2.82138C26.3282 2.82138 26.2011 2.82138 26.0423 2.82138C26.0423 2.82138 26.0423 2.82138 26.0423 2.85308C26.0106 2.88478 25.8836 2.88478 25.8518 2.91648C25.82 2.91648 25.7565 2.91648 25.7248 2.94818C25.7248 2.97988 25.7565 2.97988 25.7565 2.97988C25.7565 3.01158 25.7248 3.04329 25.693 3.04329C25.5977 3.07499 25.4707 3.10669 25.3754 3.17009C25.3436 3.17009 25.3119 3.20179 25.2801 3.23349C25.2801 3.23349 25.2801 3.26519 25.2484 3.26519C25.2166 3.29689 25.1849 3.32859 25.1531 3.32859C25.0896 3.39199 24.9625 3.4237 24.8673 3.4237C24.8355 3.4237 24.8037 3.42369 24.772 3.4554C24.7402 3.4554 24.6767 3.4554 24.645 3.4554H24.3274C24.2321 3.4554 24.1686 3.4554 24.0733 3.4871C24.0098 3.4871 23.978 3.5188 23.9145 3.5505C23.8827 3.5505 23.8192 3.5822 23.8192 3.6139C23.8827 3.5822 23.9463 3.6139 24.0098 3.6139C23.978 3.6456 23.9463 3.6456 23.9145 3.6773C23.851 3.709 23.7557 3.7407 23.7239 3.8041C23.7875 3.83581 23.8192 3.80411 23.8827 3.83581C23.9145 3.86751 23.8192 3.93091 23.8192 3.96261C23.7875 4.02601 23.7875 4.05771 23.7875 4.08941C23.7557 4.18452 23.7875 4.31132 23.7875 4.40642C23.8192 4.34302 23.851 4.31132 23.9145 4.27962V4.31132C23.8827 4.34302 23.8827 4.40642 23.8827 4.43812C23.8827 4.50152 23.851 4.56493 23.8827 4.59663C23.8827 4.59663 23.8827 4.56493 23.9145 4.56493C23.9463 4.56493 23.9145 4.72343 23.9145 4.75513C23.9145 4.85023 24.0098 4.91364 24.105 4.91364C24.105 5.00874 24.1368 5.16724 24.1686 5.26235C24.2003 5.32575 24.2321 5.38915 24.2956 5.45255C24.3274 5.48425 24.4226 5.51595 24.4226 5.57936C24.4544 5.61106 24.4226 5.64276 24.4544 5.67446C24.4862 5.73786 24.5497 5.83296 24.5814 5.89636C24.6132 5.92807 24.6767 6.05487 24.7085 6.08657C24.6767 6.08657 24.772 5.89636 24.8037 5.86466C24.8673 5.95976 24.9308 6.11827 24.9308 6.24507C24.9308 6.34018 24.899 6.40358 24.9308 6.49868C25.0261 6.75229 25.2166 6.97419 25.3436 7.2278C25.4707 7.51311 25.5977 7.73501 25.82 7.92522C25.9153 7.98862 26.0106 8.05202 26.1376 8.08372C26.2964 8.11542 26.3282 8.02032 26.4235 7.92522C26.487 7.89352 26.5187 7.86182 26.5822 7.79842C26.614 7.73501 26.614 7.67161 26.6458 7.63991C26.7093 7.54481 26.8363 7.44971 26.9316 7.3863C26.9316 7.54481 26.8998 7.70331 26.8681 7.86182C26.8363 8.24223 26.6458 8.68604 26.3282 8.90795C26.0741 9.09815 25.8835 9.41516 25.7565 9.73217C25.6612 9.95407 25.6295 10.2394 25.4072 10.3345C25.2801 10.3979 25.2166 10.4296 25.1213 10.5564C25.0261 10.6832 24.899 10.81 24.8037 10.9368C24.7085 11.0319 24.6767 11.1587 24.6132 11.2538C24.4544 11.5074 24.1368 11.6025 23.9145 11.7293C23.4699 11.9512 23.0888 12.2999 22.6124 12.4584C22.3901 12.5218 22.1678 12.617 21.9772 12.7121C21.7549 12.8072 21.5326 12.8389 21.3103 12.8389C21.1832 12.8389 21.0562 12.9023 20.9292 12.9657C20.8656 13.0291 20.7704 13.0608 20.7068 13.0925C20.6433 13.1242 20.5798 13.1876 20.5163 13.251C20.421 13.3144 20.3257 13.3461 20.2305 13.4095C20.1669 13.4412 20.1034 13.5046 20.0399 13.5363C19.9764 13.568 19.9446 13.5363 19.8811 13.5363C19.8176 13.5363 19.7858 13.568 19.7541 13.5997C19.6588 13.6314 19.5318 13.5997 19.4365 13.5997C19.3094 13.5997 19.2142 13.5997 19.0871 13.5997C18.9919 13.5997 18.8966 13.5997 18.8013 13.5997C18.7378 13.5997 18.6743 13.568 18.6107 13.5363C18.3249 13.5046 18.0708 13.568 17.8168 13.5363C17.5945 13.5363 17.3722 13.5046 17.1181 13.4729C16.8958 13.4412 16.6735 13.4095 16.4511 13.3461C16.1971 13.2827 15.9112 13.2827 15.6572 13.1876C15.6572 13.1876 15.6889 13.1876 15.6889 13.2193C15.6254 13.2827 15.3396 13.2193 15.2761 13.2193C15.1173 13.1876 14.9585 13.1876 14.7997 13.1242C14.6409 13.0925 14.4821 13.0608 14.3233 13.0291C14.2598 13.0291 14.1645 12.9974 14.101 13.0291C14.101 13.0291 14.101 13.0608 14.1327 13.0608C14.0375 13.1242 13.9422 13.0925 13.8469 13.0925C13.6881 13.0925 13.4976 13.0925 13.3388 13.0925C13.2435 13.0925 13.18 13.0608 13.0847 13.0608C13.0529 13.0608 12.9894 13.0608 12.9259 13.0608C12.8941 13.0608 12.8624 12.9974 12.8306 13.0608C12.8624 13.0608 12.8941 13.0608 12.8941 13.0925C12.8306 13.1242 12.7353 13.1242 12.6401 13.1242C12.4178 13.1242 12.1954 13.0925 11.9731 13.0608C11.8143 13.0608 11.6238 13.0291 11.465 12.9974C11.465 13.0291 11.6555 13.0608 11.6873 13.1242C11.592 13.1876 11.3697 13.1559 11.2427 13.1559C11.1474 13.1559 11.0521 13.1242 10.9568 13.1242C10.8933 13.1242 10.798 13.0291 10.7028 13.0608C10.7028 13.0925 10.7028 13.0925 10.7028 13.1242C10.671 13.1242 10.6393 13.1242 10.5757 13.1242C10.5122 13.1242 10.5122 13.1559 10.4487 13.1559C10.3217 13.1876 10.2581 13.1876 10.1311 13.1559C10.0041 13.1242 9.87704 13.1559 9.78176 13.2193C9.78176 13.2193 9.81352 13.2193 9.81352 13.1876C9.75 13.1559 9.68648 13.1559 9.62296 13.1876C9.52769 13.1876 9.43241 13.1876 9.33713 13.1876C9.30538 13.1876 9.24186 13.1876 9.2101 13.1876C9.24186 13.1559 9.30538 13.1559 9.30538 13.1242C9.27362 13.1242 9.2101 13.1242 9.17834 13.1242C9.11482 13.1242 9.0513 13.1242 8.95603 13.1559C8.86075 13.1876 8.76547 13.1876 8.6702 13.1876C8.57492 13.1876 8.5114 13.1876 8.41612 13.1559C8.38437 13.1559 8.28909 13.1242 8.25733 13.0925H8.22557C8.16205 13.0925 8.13029 13.0608 8.09853 13.0291L8.06678 12.9974C8.06678 12.9974 8.03502 12.9657 8.03502 12.934C8.03502 12.9023 8.00326 12.8706 8.00326 12.8389C8.03502 12.8389 8.03502 12.8706 8.06678 12.9023L8.09853 12.934C8.09853 12.9023 8.09854 12.9023 8.06678 12.8706C8.06678 12.8389 8.03502 12.8072 8.03502 12.8072C8.00326 12.7438 7.9715 12.7121 7.93974 12.6486C7.90798 12.6169 7.87622 12.5852 7.84446 12.5218C7.84446 12.4901 7.8127 12.4901 7.8127 12.4901C7.8127 12.4584 7.78094 12.4584 7.78094 12.4267C7.74919 12.395 7.74919 12.3633 7.71743 12.3316C7.68567 12.2999 7.68567 12.2999 7.65391 12.2682C7.65391 12.2365 7.65391 12.2048 7.62215 12.1731C7.59039 12.1097 7.55863 12.0463 7.52687 12.0146C7.46335 11.8878 7.46336 11.7293 7.4316 11.6025C7.39984 11.4757 7.39984 11.3806 7.39984 11.2538C7.39984 11.1904 7.39984 11.0636 7.33632 11.0319C7.2728 11.0636 7.30456 11.1904 7.30456 11.2538C7.30456 11.2855 7.2728 11.3172 7.2728 11.3489C7.2728 11.3806 7.2728 11.4123 7.2728 11.444C7.20928 11.444 7.11401 11.3489 7.08225 11.2855C7.05049 11.2221 7.05049 11.1904 7.05049 11.127C7.05049 11.0636 7.01873 10.9685 6.98697 10.9051C6.95521 10.7466 6.92345 10.5881 6.85993 10.4613C6.82818 10.493 6.82818 10.5247 6.79642 10.5247C6.70114 10.3028 6.60586 10.1126 6.51059 9.89067C6.47883 9.82727 6.47883 9.70047 6.44707 9.63707C6.41531 9.47856 6.38355 9.38346 6.32003 9.25666C6.28827 9.16155 6.28827 9.06645 6.22476 9.00305C6.16124 8.84454 6.09772 8.68604 6.00244 8.52754C5.93893 8.40073 5.90717 8.30563 5.87541 8.17883C5.84365 8.11542 5.81189 8.05202 5.81189 7.98862C5.81189 7.95692 5.81189 7.86182 5.78013 7.86182C5.74837 7.95692 5.78013 8.21053 5.6531 8.02032C5.58958 7.92522 5.55782 7.79842 5.52606 7.70331C5.4943 7.60821 5.43078 7.48141 5.39902 7.3546C5.36726 7.2278 5.36726 7.06929 5.36726 6.94249C5.36726 6.72059 5.36726 6.49868 5.3355 6.24507C5.3355 6.18167 5.30375 6.08657 5.30375 6.02317C5.30375 5.99146 5.33551 5.89636 5.30375 5.89636C5.27199 5.86466 5.24023 5.89636 5.24023 5.89636C5.20847 5.86466 5.20847 5.73786 5.17671 5.70616C5.11319 5.48425 5.04967 5.23065 4.9544 5.00874C4.92264 5.00874 4.92264 5.04044 4.92264 5.07214C4.92264 4.94534 4.98616 4.81853 4.98616 4.66003C4.98616 4.59663 4.98616 4.53323 4.98616 4.46983C4.9544 4.31132 4.98616 4.18452 4.98616 4.02601C4.98616 3.93091 5.01792 3.83581 5.01792 3.7407C5.01792 3.6456 5.01792 3.5505 5.01792 3.4554C5.01792 3.39199 5.01792 3.29689 5.04967 3.23349C5.08143 3.17009 5.08143 3.10669 5.11319 3.01158C5.14495 2.91648 5.17671 2.85308 5.17671 2.75798C5.17671 2.72628 5.14495 2.69457 5.17671 2.66287C5.14495 2.66287 5.11319 2.69458 5.11319 2.72628C5.08143 2.75798 5.08143 2.82138 5.04967 2.82138C5.01792 2.69457 5.04967 2.53607 5.04967 2.40927C5.04967 2.31417 5.11319 2.18736 5.08143 2.09226C5.04967 2.09226 5.04967 2.12396 5.01792 2.12396C5.04967 1.93375 4.98616 1.74355 4.9544 1.55334C4.9544 1.45824 4.98616 1.36314 4.9544 1.29974C4.9544 1.26804 4.92264 1.20464 4.92264 1.14123C4.89088 0.982729 4.82736 0.855925 4.76384 0.729121C4.73208 0.665719 4.76384 0.602318 4.73209 0.538916C4.70033 0.570617 4.66857 0.66572 4.66857 0.697421C4.66857 0.66572 4.57329 0.570617 4.57329 0.570617C4.54153 0.538916 4.47801 0.538915 4.4145 0.475513C4.28746 0.38041 4.22394 0.190206 4.09691 0.0951036C4.06515 0.0634027 4.03339 0.0634032 4.00163 0.0634032C3.93811 0.0634032 3.90635 0.0317009 3.87459 0C3.96987 0.0634018 3.90635 0.31701 3.90635 0.380412C3.87459 0.507215 3.81108 0.634018 3.7158 0.760821C3.62052 0.887625 3.557 1.01443 3.46173 1.14123C3.36645 1.26804 3.27117 1.39484 3.14414 1.48994H3.11238C3.11238 1.48994 3.11238 1.52164 3.11238 1.55334C3.08062 1.58504 3.04886 1.64845 3.04886 1.68015C2.98534 1.77525 2.85831 1.87035 2.79479 1.96546C2.69951 2.12396 2.66775 2.31416 2.57248 2.47267C2.54072 2.53607 2.50896 2.59947 2.44544 2.66287C2.38192 2.75798 2.38192 2.85308 2.35016 2.94818C2.3184 3.01158 2.25489 3.07499 2.22313 3.13839C2.22313 3.10669 2.22313 3.10669 2.22313 3.07499C2.15961 3.10669 2.06433 3.20179 2.06433 3.36029C2.06433 3.4871 2.06433 3.6139 2.06433 3.709C2.03257 3.80411 2.03257 3.86751 2.03257 3.96261C2.03257 4.08941 2.03257 4.21622 2.03257 4.34302C2.03257 4.46982 2.00081 4.56493 2.00081 4.66003C1.96906 4.78683 1.96906 4.91364 1.96906 5.04044C1.96906 5.07214 1.9373 5.16724 1.87378 5.10384C1.87378 5.16724 1.90554 5.29405 1.9373 5.35745C1.9373 5.45255 2.00081 5.51595 2.00081 5.61106C2.03257 5.70616 2.00081 5.80126 2.00081 5.92806C2.00081 6.08657 2.00081 6.24507 2.00081 6.40358C2.00081 6.53038 2.03257 6.65718 2.00081 6.78399C1.96906 6.78399 1.9373 6.68888 1.90554 6.62548C1.87378 6.59378 1.90554 6.49868 1.84202 6.49868C1.7785 6.62548 1.84202 6.87909 1.84202 7.0059C1.84202 7.1961 1.84202 7.3863 1.84202 7.60821C1.84202 7.89352 1.84202 8.24223 1.96906 8.49584C2.00081 8.59094 2.06433 8.65434 2.06433 8.74944C2.09609 8.81285 2.09609 8.90795 2.09609 8.97135C2.15961 9.28836 2.35016 9.57366 2.38192 9.92237C2.38192 9.95408 2.38192 10.0175 2.38192 10.0492C2.38192 10.0175 2.35016 9.98577 2.3184 9.98577C2.28664 9.95407 2.28664 9.92238 2.25489 9.85897C2.22313 9.79557 2.15961 9.79557 2.12785 9.76387C2.06433 9.92237 2.22313 10.0809 2.28665 10.176C2.35016 10.2711 2.38192 10.3662 2.44544 10.4296C2.4772 10.4613 2.50896 10.5247 2.4772 10.5564C2.41368 10.493 2.38192 10.3979 2.28665 10.3662C2.25489 10.4296 2.3184 10.493 2.35016 10.5564C2.38192 10.6515 2.44544 10.7149 2.50896 10.7783C2.57248 10.8734 2.63599 10.9685 2.69951 11.0636C2.73127 11.127 2.76303 11.1587 2.79479 11.2221C2.82655 11.2855 2.85831 11.3806 2.89006 11.444C2.92182 11.5708 2.98534 11.6659 3.04886 11.761C3.08062 11.8561 3.11238 11.9512 3.14414 12.0463C3.1759 12.1731 3.27117 12.2365 3.36645 12.3316C3.39821 12.3633 3.42997 12.395 3.46173 12.4584C3.49349 12.5218 3.46173 12.6169 3.49349 12.6803C3.557 12.8706 3.65228 13.1242 3.81107 13.251C3.87459 13.2827 3.90635 13.3144 3.93811 13.3778C3.96987 13.4412 4.00163 13.568 4.06515 13.5997C4.03339 13.568 4.00163 13.568 3.96987 13.568C3.93811 13.568 3.90635 13.5363 3.87459 13.5046C3.81108 13.6948 3.96987 13.9167 4.12866 14.0435C4.19218 14.1069 4.2557 14.1386 4.31922 14.202C4.35098 14.2337 4.38274 14.2971 4.4145 14.3288C4.35098 14.3288 4.2557 14.2654 4.22394 14.3288C4.19218 14.3922 4.2557 14.4556 4.31922 14.4873C4.38274 14.5507 4.4145 14.6141 4.44625 14.7092C4.54153 14.836 4.70033 14.9311 4.82736 15.0579C4.73209 15.1847 4.66857 15.3115 4.60505 15.4066C4.54153 15.5017 4.47801 15.6285 4.4145 15.7236C4.35098 15.787 4.35098 15.8504 4.28746 15.9138C4.22394 16.0089 4.16042 16.104 4.09691 16.1674C4.00163 16.2943 3.87459 16.4211 3.77932 16.5479C3.68404 16.643 3.62052 16.7381 3.557 16.8332C3.49349 16.9283 3.42997 16.9917 3.36645 17.0551C3.30293 17.1502 3.23941 17.277 3.1759 17.4038C3.11238 17.5306 3.04886 17.6257 2.95358 17.7525C2.85831 17.911 2.82655 18.0695 2.73127 18.228C2.69951 18.2914 2.66775 18.3865 2.63599 18.4816C2.60423 18.5767 2.54072 18.6718 2.4772 18.7669C2.41368 18.862 2.35016 18.9888 2.3184 19.1156C2.25489 19.2107 2.22313 19.2741 2.19137 19.3692C2.12785 19.5277 2.09609 19.6862 2.03257 19.8447C2.00081 20.0033 1.96906 20.1301 2.00081 20.2886C2.00081 20.4471 2.03257 20.6373 1.96906 20.7958C1.9373 20.8592 1.90554 20.8909 1.90554 20.9543C1.84202 21.1445 1.87378 21.3664 1.84202 21.5566C1.84202 21.6834 1.81026 21.8419 1.81026 21.9687C1.81026 22.0955 1.81026 22.1906 1.81026 22.3174C1.81026 22.6978 1.81026 23.0782 1.81026 23.4586C1.81026 23.3952 1.84202 23.3635 1.84202 23.3001C1.84202 23.2367 1.87378 23.205 1.87378 23.1416C1.87378 23.0465 1.96906 22.888 2.06433 22.888C2.06433 22.9514 2.03257 22.9831 2.03257 23.0148C2.03257 23.0782 2.03257 23.1416 2.00081 23.205C2.00081 23.2684 2.00081 23.3318 2.00081 23.3635C2.00081 23.4269 1.96906 23.4586 1.96906 23.522C1.96906 23.7757 1.87378 23.9976 1.81026 24.2195C1.84202 24.1561 1.90554 24.1244 1.90554 24.0927C1.9373 24.0293 1.96906 23.9342 2.03257 23.9342C2.06433 24.0293 2.03257 24.1561 2.03257 24.2512C2.00081 24.4097 1.96906 24.5682 1.96906 24.7267C1.9373 24.9803 1.96906 25.2656 1.96906 25.5509C2.03257 25.5192 2.00081 25.3924 2.03257 25.329C2.06433 25.2973 2.09609 25.2339 2.09609 25.2022C2.09609 25.329 2.06433 25.4241 2.06433 25.5509C2.06433 25.7411 2.06433 25.8996 2.06433 26.0898C2.06433 26.2166 2.03257 26.3434 2.06433 26.4702C2.09609 26.5653 2.09609 26.6287 2.09609 26.7238C2.09609 26.8189 2.12785 26.8823 2.12785 26.9774C2.12785 27.1994 2.12785 27.4213 2.15961 27.6432C2.22313 27.9602 2.15961 28.2455 2.06433 28.5625C2.03257 28.7527 1.96906 28.9429 1.87378 29.1331C1.84202 29.2282 1.74674 29.2916 1.71498 29.3867C1.71498 29.4184 1.68322 29.4184 1.68322 29.4501C1.68322 29.4818 1.65147 29.5452 1.61971 29.5769C1.58795 29.6403 1.52443 29.7354 1.46091 29.7988C1.36563 29.9573 1.20684 30.0207 1.07981 30.1792C1.04805 30.2109 1.01629 30.2743 0.952769 30.3377C0.92101 30.3694 0.889251 30.4328 0.857492 30.4645C0.793974 30.5913 0.730456 30.7498 0.666938 30.9084C0.635179 31.0035 0.635179 31.0986 0.635179 31.1937C0.635179 31.2254 0.635179 31.2571 0.666938 31.2888C0.666938 31.3522 0.635179 31.4156 0.666938 31.4473C0.730456 31.479 0.762214 31.4473 0.825732 31.4473C0.88925 31.479 0.857492 31.479 0.857492 31.5424C0.857492 31.6058 0.889251 31.6375 0.889251 31.7009C0.889251 31.7643 0.857492 31.796 0.92101 31.8594C0.92101 31.8594 0.952768 31.8594 0.984527 31.8594C1.01629 31.8911 1.01629 31.9545 1.01629 31.9862C1.01629 32.113 1.01629 32.2398 1.04805 32.3983C1.0798 32.5885 1.04805 32.7787 1.01629 32.9689C0.92101 33.698 0.793974 34.4906 0.857492 35.2197C0.889251 35.6001 0.825732 35.9488 0.666938 36.2975C0.60342 36.4243 0.571661 36.4877 0.476384 36.5511C0.349349 36.6462 0.285831 36.8047 0.158795 36.8998C0.127036 36.9315 0.0952771 36.9632 0.0635182 36.9632C0.0317592 36.9632 0.031759 36.9949 0 36.9949C0.0635179 37.0266 0.222313 36.9949 0.285831 36.9632C0.31759 36.9632 0.381107 36.9632 0.412866 36.9315C0.349348 36.9949 0.317589 37.1534 0.254071 37.2168C0.28583 37.2168 0.349349 37.2168 0.381108 37.2168C0.412867 37.2168 0.476384 37.1534 0.508143 37.1851C0.508143 37.2485 0.349348 37.4387 0.412866 37.4704C0.444625 37.4704 0.476384 37.4704 0.476384 37.4704C0.508143 37.4704 0.508144 37.5021 0.539903 37.5021C0.60342 37.5338 0.635179 37.5338 0.666938 37.5972C0.698697 37.6289 0.698697 37.6923 0.730456 37.724C0.730456 37.7557 0.762215 37.7874 0.793974 37.8191C0.857492 37.8825 0.921009 37.9459 0.984527 38.0093C1.01629 38.041 1.04805 38.0728 1.07981 38.1045C1.11156 38.1362 1.0798 38.1679 1.11156 38.1996C1.14332 38.2947 1.2386 38.2313 1.30212 38.1996C1.33388 38.1679 1.33388 38.1679 1.36563 38.1996C1.39739 38.1996 1.39739 38.2313 1.39739 38.2313C1.42915 38.2313 1.46091 38.2313 1.46091 38.2313C1.61971 38.263 1.81026 38.263 1.96906 38.263C2.09609 38.263 2.25489 38.2313 2.38192 38.263C2.4772 38.2947 2.54072 38.3264 2.63599 38.3264C2.69951 38.3264 2.76303 38.3581 2.85831 38.3581C3.04886 38.3581 3.23941 38.3581 3.42997 38.3581C3.557 38.3581 3.7158 38.3581 3.84283 38.3264C4.00163 38.2947 4.16042 38.1362 4.2557 38.0093C4.31922 37.9142 4.38274 37.8191 4.47801 37.7557C4.47801 37.8508 4.50977 37.9459 4.50977 38.041C4.60505 37.9459 4.57329 37.7557 4.63681 37.6606C4.63681 37.724 4.63681 37.7557 4.66857 37.7874C4.66857 37.8508 4.66857 37.9142 4.66857 37.9776C4.70033 37.9776 4.70033 37.9142 4.73209 37.8825C4.76384 37.8508 4.76384 37.8191 4.76384 37.7874C4.76384 37.6606 4.76384 37.5655 4.76384 37.4387C4.76384 37.5021 4.7956 37.5338 4.7956 37.5972C4.7956 37.6606 4.82736 37.724 4.85912 37.7874C4.85912 37.724 4.89088 37.6923 4.89088 37.6289C4.89088 37.5655 4.89088 37.5021 4.89088 37.4387C4.89088 37.3436 4.85912 37.2485 4.85912 37.1534C4.85912 37.1217 4.85912 37.09 4.85912 37.0583C4.85912 36.9632 4.7956 36.8364 4.76384 36.773C4.66857 36.5828 4.50977 36.3292 4.50977 36.3292C4.4145 36.2341 4.35098 36.139 4.28746 36.0439C4.19218 35.9171 4.06515 35.7586 4.06515 35.6001C4.06515 35.5684 4.06515 35.5367 4.06515 35.505C4.06515 35.4733 4.03339 35.4099 4.03339 35.3782C4.03339 35.3148 4.03339 35.2514 4.03339 35.188C4.03339 35.1246 4.03339 35.0612 4.00163 34.9978C4.00163 34.9344 3.96987 34.9027 3.96987 34.8393C3.96987 34.8076 3.96987 34.7759 3.96987 34.7442C3.96987 34.7125 3.93811 34.6808 3.90635 34.6491C3.84283 34.5223 3.84283 34.3954 3.81107 34.3003C3.77932 34.2052 3.74756 34.1101 3.74756 34.015C3.74756 33.9199 3.68404 33.7931 3.74756 33.7297C3.74756 33.7931 3.77932 33.8565 3.81107 33.9199C3.81107 33.9516 3.84283 33.9833 3.84283 34.015C3.87459 34.0467 3.90635 34.0784 3.93811 34.1418C3.93811 34.1101 3.90635 34.0467 3.87459 33.9833C3.87459 33.9516 3.84283 33.9199 3.84283 33.8565C3.81107 33.7297 3.81107 33.6346 3.81107 33.5078C3.81107 33.2542 3.81107 33.0006 3.81107 32.7787C3.81107 32.8421 3.87459 32.9055 3.90635 32.9372C3.96987 33.064 4.03339 33.1908 4.12866 33.2859C4.16042 33.2542 4.12866 33.1908 4.09691 33.1274C4.09691 33.0957 4.09691 33.064 4.09691 33.0323C4.09691 33.0006 4.09691 32.9372 4.06515 32.9055C4.06515 32.8421 4.06515 32.7787 4.06515 32.747C4.06515 32.6519 4.06515 32.5251 4.06515 32.43C4.06515 32.3349 4.06515 32.2715 4.09691 32.2081C4.09691 32.1764 4.09691 32.1764 4.09691 32.1447C4.09691 32.2398 4.09691 32.3349 4.12866 32.43C4.12866 32.4934 4.16042 32.5568 4.16042 32.6202C4.19218 32.6836 4.22394 32.747 4.22394 32.8104C4.22394 32.7153 4.22394 32.6519 4.19218 32.5568C4.16042 32.43 4.19218 32.2715 4.19218 32.1447C4.19218 31.9862 4.19218 31.8277 4.22394 31.6692C4.22394 31.6058 4.2557 31.5107 4.28746 31.4473C4.31922 31.2888 4.38274 31.0986 4.47801 30.9401C4.60505 30.5913 4.70033 30.2426 4.7956 29.9256C4.82736 29.8305 4.85912 29.7354 4.89088 29.6403C4.89088 29.6086 4.89088 29.5769 4.89088 29.5769C4.89088 29.5452 4.92264 29.5452 4.92264 29.5452C4.9544 29.4184 5.08143 29.3233 5.14495 29.2282C5.17671 29.1965 5.17671 29.1648 5.20847 29.1331C5.24023 29.1014 5.27199 29.0697 5.30375 29.038C5.39902 28.9429 5.4943 28.8161 5.58958 28.6893C5.58958 28.6576 5.58958 28.6576 5.62133 28.6259C5.65309 28.6259 5.68485 28.5942 5.68485 28.5625C5.71661 28.4991 5.71661 28.4357 5.74837 28.404C5.78013 28.3406 5.87541 28.2455 5.90717 28.1504C5.87541 28.2772 5.84365 28.3406 5.78013 28.4674C5.87541 28.3723 5.97068 28.2772 6.0342 28.1821C6.09772 28.1187 6.16124 27.9919 6.25651 27.9285C6.28827 27.8968 6.35179 27.8651 6.38355 27.8334C6.44707 27.77 6.51059 27.6432 6.54235 27.5481C6.60586 27.4213 6.70114 27.2945 6.76466 27.1676C6.79642 27.1042 6.82818 27.0091 6.82818 26.9457C6.85993 26.8506 6.89169 26.7872 6.95521 26.6921C7.01873 26.597 7.01873 26.5019 7.08225 26.4068C7.11401 26.3117 7.14577 26.2166 7.17752 26.1215C7.33632 26.3434 7.49511 26.5336 7.65391 26.6921C7.71743 26.7555 7.78094 26.7872 7.84446 26.8506C7.90798 26.914 7.9715 26.9774 8.00326 27.0408C7.9715 27.1359 7.9715 27.2628 7.9715 27.3579C7.9715 27.4213 7.9715 27.4847 7.9715 27.5798C7.9715 27.6115 8.00326 27.6749 8.03502 27.7066C8.03502 27.7383 8.06678 27.7383 8.06678 27.77V27.8017C8.06678 27.8334 8.06678 27.8651 8.06678 27.8651C8.09854 27.8968 8.13029 27.9285 8.19381 27.9602H8.22557C8.28909 27.9602 8.28909 27.8968 8.32085 27.8651C8.3526 27.8651 8.38437 27.8651 8.41612 27.8651C8.44788 27.8651 8.47964 27.8334 8.5114 27.8334C8.54316 27.8334 8.54316 27.8334 8.57492 27.8334C8.63844 27.8017 8.70195 27.77 8.76547 27.7066C8.79723 27.6749 8.82899 27.6432 8.86075 27.5798C8.89251 27.5798 8.89251 27.6115 8.92427 27.6115C8.92427 27.6432 8.89251 27.6749 8.89251 27.7066C8.86075 27.8017 8.89251 27.8968 8.89251 27.9919C8.89251 27.9602 8.89251 27.9285 8.92427 27.9285C8.92427 28.0553 8.92427 28.1821 8.89251 28.3089C8.89251 28.3723 8.86075 28.4357 8.86075 28.4674C8.86075 28.4991 8.82899 28.5308 8.82899 28.5942C8.89251 28.4991 8.98779 28.404 9.0513 28.3089C9.08306 28.2772 9.11482 28.2455 9.14658 28.2138C9.17834 28.1821 9.2101 28.1821 9.2101 28.1187C9.2101 28.1821 9.17834 28.2455 9.17834 28.3089C9.17834 28.3723 9.14658 28.4357 9.14658 28.5308C9.14658 28.5942 9.11482 28.6576 9.11482 28.7527C9.11482 28.7844 9.08306 28.8795 9.08306 28.9112C9.11482 28.8795 9.14658 28.7844 9.2101 28.7527C9.24186 28.8161 9.17834 28.8795 9.17834 28.9429C9.17834 28.9746 9.17834 29.0063 9.14658 29.038C9.14658 29.0697 9.11482 29.1014 9.11482 29.1331C9.08306 29.1648 9.0513 29.1965 9.01954 29.2599C8.92427 29.3867 8.89251 29.5769 8.82899 29.7037C8.76547 29.7988 8.70196 29.8622 8.6702 29.9573C8.63844 30.0524 8.54316 30.1158 8.5114 30.2109C8.47964 30.306 8.41612 30.3694 8.38437 30.4328C8.35261 30.4962 8.28909 30.5913 8.25733 30.6864C8.25733 30.7181 8.25733 30.7498 8.25733 30.8132C8.25733 30.9083 8.22557 31.0352 8.22557 31.1303C8.22557 31.2571 8.19381 31.4156 8.19381 31.5424C8.25733 31.8594 8.28909 32.2081 8.28909 32.5251C8.32085 33.064 8.38437 33.5712 8.38437 34.1101C8.38437 34.2686 8.41612 34.4272 8.44788 34.5857C8.44788 34.7442 8.44788 34.871 8.47964 35.0295C8.5114 35.1563 8.41612 35.6318 8.54316 35.6952C8.60668 35.6001 8.63844 35.4099 8.76547 35.3782C8.79723 35.505 8.79723 35.6952 8.76547 35.822C8.82899 35.7586 8.89251 35.6952 8.95603 35.6001C9.01954 35.7269 8.95603 35.9488 8.98779 36.1073C9.01955 36.2024 9.01954 36.3609 9.11482 36.456C9.2101 36.4243 9.27362 36.2658 9.30538 36.2024C9.33714 36.1707 9.36889 36.0756 9.40065 36.0756C9.43241 36.1707 9.40065 36.2658 9.43241 36.3292C9.46417 36.456 9.49593 36.5511 9.52769 36.6779C9.55945 36.8364 9.68648 37.0583 9.68648 37.2168C9.65472 37.1217 9.71824 36.9949 9.84528 36.9949C9.90879 37.1534 9.81352 37.3753 9.87704 37.5338C9.94055 37.5655 10.0041 37.5338 10.0676 37.5021C10.0993 37.5655 10.0993 37.5972 10.1311 37.6606L10.2264 37.7874C10.2899 37.8191 10.3217 37.7874 10.3852 37.8508C10.4487 37.9142 10.4487 37.9459 10.5122 38.0093C10.5757 38.041 10.6393 38.0728 10.7028 38.1045C10.9886 38.1679 12.259 38.041 12.8624 38.041C13.18 38.041 13.5611 38.1045 13.8787 38.0093C14.0057 37.9776 13.9739 37.9142 14.0375 37.8191C14.0692 37.7557 14.1327 37.7557 14.101 37.6606C14.101 37.6289 14.0375 37.5021 14.0057 37.5021C14.0375 37.5021 14.101 37.5338 14.1327 37.5338C14.1327 37.4704 14.1327 37.4387 14.1327 37.3753C14.1327 37.3119 14.1963 37.2485 14.1963 37.1851C14.2598 37.2168 14.2598 37.2802 14.3233 37.3119C14.3868 37.1534 14.2915 36.9949 14.228 36.8681C14.1645 36.7096 14.101 36.5511 13.9422 36.456C13.5611 36.2658 13.1482 36.139 12.7353 35.9805C12.5765 35.9171 12.4178 35.7903 12.3225 35.6635C12.2907 35.6318 12.0684 35.4099 12.1954 35.3465C12.2272 35.3465 12.2907 35.3782 12.3225 35.3782C12.3542 35.3782 12.386 35.4099 12.4495 35.4416C12.386 35.3465 12.259 35.2831 12.1954 35.2197C12.1319 35.1563 12.0684 35.0612 12.0049 34.9978C11.9414 34.871 11.8461 34.7442 11.8143 34.5857C11.8143 34.5223 11.8143 34.4906 11.8143 34.4272C11.8143 34.332 11.7191 34.2369 11.6873 34.1418C11.6555 34.0784 11.6238 34.015 11.592 33.9516L11.5603 33.9199C11.5603 33.9199 11.7508 33.4444 11.6555 33.0957C11.592 32.9372 11.5285 32.7787 11.465 32.6202C11.4015 32.43 11.4332 32.2081 11.4967 32.0496H11.5285C11.5285 31.9862 11.5603 31.9545 11.5603 31.8911C11.5603 31.8277 11.5603 31.7326 11.5603 31.6692C11.5603 31.5741 11.5603 31.4473 11.592 31.3522C11.6238 31.2571 11.6238 31.1303 11.6873 31.0352C11.7826 31.0986 11.6873 31.3205 11.7508 31.3839C11.7508 31.2571 11.7191 31.1303 11.7508 31.0035C11.7826 30.9084 11.7508 30.8449 11.7826 30.7498C11.7826 30.6864 11.8143 30.5913 11.8461 30.5279C11.8779 30.5913 11.9096 30.6547 11.9096 30.7181C11.9414 30.7816 11.9731 30.845 12.0049 30.8767C12.0366 30.9401 12.0684 31.0035 12.1319 31.0669C12.1319 31.0352 12.1319 31.0035 12.1319 30.9718C12.1319 30.9401 12.1319 30.9401 12.1002 30.9084C12.1002 30.8132 12.1002 30.7498 12.1002 30.6547C12.1002 30.5913 12.1002 30.4645 12.1319 30.4011C12.1637 30.4011 12.1954 30.5279 12.2272 30.5596C12.259 30.623 12.2907 30.6864 12.2907 30.7498C12.2907 30.5913 12.2907 30.4645 12.3225 30.306C12.3542 30.2426 12.3542 30.1475 12.386 30.0841C12.4178 30.0207 12.4495 29.989 12.4495 29.9256C12.4495 29.8939 12.4813 29.8622 12.513 29.8305C12.513 29.8939 12.4813 29.989 12.4813 30.0524C12.4813 30.0841 12.513 30.0841 12.513 30.1158C12.513 30.1475 12.513 30.1792 12.513 30.2109C12.513 30.2743 12.5448 30.3377 12.5448 30.3694C12.5448 30.2109 12.5448 30.0841 12.5765 29.9256C12.5765 29.8622 12.6083 29.7671 12.6401 29.7037C12.6401 29.672 12.6718 29.6403 12.7036 29.6086C12.7036 29.5769 12.7036 29.5452 12.7353 29.5135C12.7353 29.5452 12.7353 29.5769 12.7353 29.6086C12.7353 29.6403 12.7353 29.6403 12.7671 29.672C12.7671 29.7037 12.7671 29.8305 12.8306 29.8305C12.8306 29.7671 12.8306 29.7354 12.8624 29.7037C12.8941 29.6403 12.8941 29.5769 12.9259 29.5135C12.9259 29.4818 12.9577 29.4184 12.9577 29.3867C13.0212 29.3867 13.0529 29.3867 13.1165 29.3867C13.1482 29.355 13.18 29.355 13.2435 29.355C13.307 29.355 13.3705 29.355 13.4658 29.355C13.4658 29.355 13.4658 29.355 13.4976 29.355C13.4976 29.355 13.5611 29.3233 13.5928 29.3233C13.6564 29.3233 13.6881 29.2916 13.7199 29.2599C13.6881 29.2916 13.6881 29.3233 13.6564 29.3867C13.6564 29.4184 13.6246 29.4818 13.6246 29.5135C13.6564 29.5135 13.6881 29.4501 13.7516 29.4501C13.8151 29.4184 13.8469 29.3867 13.9104 29.355C13.9739 29.3233 14.0375 29.3233 14.1327 29.2916C14.1645 29.2916 14.1963 29.2599 14.228 29.2599C14.3551 29.2599 14.5138 29.1965 14.6409 29.1965C14.6726 29.2916 14.7044 29.3867 14.7362 29.4818C14.7679 29.5452 14.7997 29.6403 14.8632 29.672C14.895 29.672 14.895 29.7037 14.9267 29.7037C14.9585 29.7354 14.9902 29.7354 15.022 29.7671C15.0537 29.7988 15.0855 29.7988 15.1173 29.7988C15.1808 29.8305 15.149 29.8939 15.2125 29.9256H15.2443C15.3078 29.9256 15.3713 29.9256 15.4031 29.8939C15.4349 29.8622 15.4349 29.8305 15.4349 29.8305V29.7988C15.4349 29.7671 15.4666 29.7671 15.4666 29.7354C15.4984 29.7037 15.5301 29.672 15.5619 29.6086C15.5936 29.5452 15.5936 29.4501 15.6254 29.3867C15.6572 29.2599 15.6572 29.1331 15.6889 28.9746C15.6889 28.9429 15.6889 28.9429 15.6889 28.9112H15.7524C15.7842 28.9112 15.816 28.8795 15.8477 28.8795C15.9112 28.8478 16.0065 28.7844 16.1018 28.7527C16.1336 28.721 16.1336 28.721 16.1336 28.7527C16.1336 28.8161 16.1336 28.8478 16.1336 28.9112C16.1653 28.9112 16.1653 28.8795 16.1971 28.8478C16.2288 28.8161 16.2288 28.8161 16.2606 28.7844C16.2923 28.721 16.3559 28.6893 16.3876 28.6576L16.4194 28.6259C16.4511 28.5942 16.4511 28.5942 16.4829 28.5625C16.4829 28.5942 16.4511 28.6259 16.4511 28.6576C16.4194 28.721 16.4194 28.7527 16.3876 28.8161C16.4194 28.7527 16.4511 28.6893 16.4829 28.6259C16.5147 28.5625 16.5782 28.4991 16.6417 28.4357C16.6735 28.404 16.737 28.3723 16.7687 28.3406C16.8005 28.3089 16.864 28.2772 16.8958 28.2455C16.9593 28.2138 17.0546 28.1821 17.1181 28.1187C17.1498 28.087 17.2134 28.087 17.2451 28.0553C17.2451 28.0553 17.2769 28.0553 17.2769 28.0236C17.3086 28.0236 17.3086 27.9919 17.3404 27.9919C17.4039 27.9602 17.4674 27.9602 17.5309 27.9285C17.6262 27.9285 17.7215 27.8968 17.785 27.8017C17.8168 27.8017 17.8168 27.8017 17.8485 27.77C17.8803 27.8334 17.785 27.8968 17.785 27.9602C17.7533 28.0236 17.6897 28.2138 17.7215 28.2455C17.8168 28.2138 17.8803 28.1187 17.9756 28.087C18.0073 28.0553 18.0391 28.0553 18.0708 28.0236C18.1026 28.0553 18.1344 28.087 18.1661 28.087C18.1979 28.087 18.1979 28.1187 18.2296 28.1187C18.2614 28.1504 18.2932 28.1504 18.3249 28.1821C18.3567 28.1821 18.3884 28.2138 18.4202 28.2138C18.4837 28.2455 18.4837 28.3089 18.5155 28.3406H18.5472C18.6108 28.3406 18.6743 28.3089 18.706 28.2772C18.7378 28.2455 18.7378 28.2138 18.7378 28.1821V28.1504C18.7378 28.1187 18.7695 28.1187 18.7695 28.087C18.8013 28.0553 18.8331 27.9919 18.8331 27.9602C18.8648 27.8968 18.8648 27.8017 18.8648 27.7383C18.8966 27.7383 18.8966 27.7383 18.9283 27.7383C18.9919 27.7383 19.0554 27.7383 19.1189 27.77C19.2777 27.8017 19.4365 27.8017 19.5953 27.8017C19.6906 27.8017 19.7858 27.8017 19.8811 27.8334C19.9764 27.8651 20.0717 27.8651 20.1669 27.8968C20.2622 27.9285 20.3892 27.9602 20.4845 28.0236C20.5798 28.087 20.548 28.1821 20.5163 28.2772C20.5798 28.2455 20.6433 28.2455 20.7068 28.2138C20.7386 28.1821 20.8021 28.1504 20.8656 28.1821C20.8021 28.2772 20.7068 28.3723 20.6433 28.4674C20.8656 28.404 21.0562 28.3406 21.215 28.1821C21.1515 28.3406 21.0244 28.4357 20.9292 28.5942C21.0562 28.5625 21.215 28.4991 21.342 28.4674C21.3738 28.4674 21.4055 28.4674 21.4373 28.4357C21.4373 28.4674 21.4055 28.4991 21.3738 28.5308C21.342 28.5625 21.342 28.5625 21.3738 28.6259C21.4055 28.6893 21.4691 28.7844 21.5008 28.8478C21.5008 28.8795 21.5008 28.9112 21.5008 28.9429C21.5326 29.038 21.5326 29.1014 21.5008 29.1965C21.4691 29.2916 21.5008 29.355 21.5008 29.4184C21.5326 29.6403 21.5008 29.8622 21.4373 30.0841C21.5643 29.989 21.6279 29.7988 21.7549 29.7037C21.7231 29.8622 21.5961 30.0841 21.6596 30.2426C21.7231 30.2109 21.7549 30.1475 21.8184 30.1792C21.7231 30.5596 21.6279 30.9083 21.7549 31.2888C21.8819 31.1303 22.009 30.9401 22.136 30.7815C22.1678 30.7498 22.1995 30.7181 22.2313 30.6864C22.263 30.6547 22.3265 30.6547 22.3583 30.623C22.3583 30.7498 22.2948 30.8766 22.2313 30.9718C22.1995 31.0035 22.009 31.2888 22.0407 31.3205C22.1042 31.2571 22.1678 31.1937 22.2313 31.1937C22.263 31.2888 22.1042 31.5741 22.1995 31.6375C22.2313 31.6692 22.2948 31.6375 22.3265 31.6375C22.3901 31.6692 22.3583 31.7009 22.3583 31.7643C22.3583 31.9862 22.2948 32.1764 22.2948 32.3983C22.263 32.5568 22.2313 32.5885 22.136 32.6836C22.3265 32.5885 22.4853 32.4617 22.6124 32.3349C22.5806 32.5568 22.3583 32.7153 22.4536 32.9689C22.4853 32.9689 22.5171 32.9689 22.5171 32.9689C22.5489 33.0957 22.4853 33.2225 22.4853 33.3493C22.4853 33.4444 22.4536 33.5395 22.4536 33.6663C22.4536 33.7297 22.4218 33.8565 22.3901 33.9199C22.3583 33.9833 22.263 34.015 22.2313 34.0784C22.2948 34.015 22.4218 33.9833 22.4853 34.015C22.4536 34.1101 22.3901 34.1735 22.3265 34.2369C22.2948 34.3003 22.263 34.3637 22.1995 34.3954C22.2313 34.3637 22.263 34.332 22.3265 34.3003C22.3901 34.2686 22.4218 34.2369 22.4853 34.2052C22.5171 34.1735 22.6759 34.1418 22.7077 34.1735C22.6759 34.2686 22.6124 34.3638 22.5806 34.4272C22.5489 34.4906 22.4536 34.5223 22.4853 34.5857C22.5489 34.554 22.5806 34.5223 22.6441 34.5223C22.6441 34.6491 22.5171 34.7125 22.5171 34.8076C22.6124 34.871 22.7077 34.7442 22.8347 34.7442C22.8347 34.8076 22.8029 34.8393 22.7712 34.871C22.7077 35.0612 22.7394 35.2197 22.7394 35.4099C22.7394 35.5367 22.7394 35.6635 22.7394 35.7586C22.7394 35.9171 22.7712 36.0756 22.7712 36.2341C22.7712 36.3926 22.7712 36.5194 22.7712 36.6779C22.7712 36.7413 22.8029 36.9315 22.7394 36.9632C22.8347 36.9949 22.9935 36.8364 23.0888 36.773C23.0888 36.8681 22.9617 36.9949 22.93 37.0583C22.8664 37.1851 22.7394 37.3753 22.7077 37.5021C22.6759 37.5972 22.6759 37.6606 22.6759 37.724C22.6759 37.7874 22.6441 37.8508 22.6441 37.9142C22.7077 37.7874 22.8347 37.6923 22.93 37.5972C22.9935 37.5021 23.057 37.3753 23.1523 37.3436C23.184 37.4387 23.0888 37.5655 23.1205 37.6289C23.1523 37.6289 23.1523 37.6289 23.1523 37.5972C23.1523 37.724 23.1523 37.8825 23.1523 38.0093C23.1523 38.0728 23.1523 38.1362 23.1523 38.1996C23.184 38.263 23.2158 38.2947 23.184 38.3898C23.2158 38.3264 23.3428 38.1362 23.4381 38.1362C23.4699 38.2313 23.3746 38.3264 23.4064 38.4215C23.4381 38.5166 23.5016 38.4849 23.5651 38.5483C23.6287 38.6117 23.5969 38.7068 23.6922 38.7702C23.8192 38.8653 24.0733 38.8019 24.2321 38.8336C24.7402 38.897 25.2801 38.9287 25.7883 38.9604C26.0423 38.9604 26.3282 38.9921 26.5822 38.9921C26.8046 38.9921 26.9634 39.0238 27.1539 38.9604C27.1857 38.9604 27.2492 38.9287 27.3127 38.9604C27.3445 38.9604 27.3445 38.9921 27.408 38.9921C27.4715 38.9921 27.535 38.9287 27.5985 38.9604C27.6303 38.9604 27.6621 38.9921 27.6938 38.9921C27.8208 38.9921 27.8208 38.8019 27.9479 38.8019V38.8336C27.9479 38.7068 27.9479 38.58 27.9479 38.4532C27.9479 38.4215 27.9796 38.4215 28.0114 38.3581C28.0114 38.2947 27.9796 38.2947 27.9796 38.2313C27.9796 38.1362 28.0114 38.1362 28.1067 38.1362C28.1384 38.041 28.1384 37.7874 28.0749 37.724C28.0749 37.6923 28.0749 37.6606 28.0749 37.6606C28.0749 37.5972 28.0432 37.5655 28.0114 37.5338C27.9796 37.407 27.9479 37.3436 27.9479 37.2168C27.9796 37.2802 27.9796 37.3436 28.0432 37.3436C28.1067 37.1851 28.0114 37.0266 27.9161 36.8681C27.8526 36.773 27.7891 36.7096 27.7256 36.6145C27.6938 36.5511 27.6621 36.456 27.6621 36.3926C27.5668 36.1073 27.3127 35.9488 27.2174 35.6952C27.1221 35.4733 27.0269 35.2514 26.9634 34.9978C26.9316 34.9027 26.8998 34.8076 26.8681 34.7442C26.8363 34.5857 26.8681 34.4272 26.8681 34.2686C26.8681 34.1735 26.8681 34.1101 26.8363 34.0467C26.8046 33.9833 26.8046 33.9516 26.8363 33.8882C26.8998 33.7931 27.1857 33.8248 27.1221 33.6346C27.0904 33.5712 26.9951 33.5078 26.9634 33.4761C26.8998 33.4127 26.8363 33.3493 26.8363 33.2859C26.8363 33.1591 27.0586 33.2542 27.1539 33.2225C27.1222 33.0957 26.9951 32.9372 26.9316 32.8104C26.8998 32.747 26.8681 32.6202 26.8998 32.5885C26.9316 32.5251 27.0586 32.5568 27.1221 32.5885C27.1539 32.5251 27.0904 32.5251 27.0904 32.4934C27.0586 32.43 27.0904 32.3349 27.0586 32.2398C27.0269 32.113 26.9951 32.0179 26.9634 31.8911C26.9634 31.8277 26.9634 31.7643 26.9316 31.7326C26.9951 31.7009 27.0269 31.796 27.0904 31.796C27.0904 31.7643 27.0586 31.6375 27.0586 31.6058C27.0269 31.5107 26.9634 31.4156 26.9316 31.2888C26.8998 31.2254 26.8681 31.1303 26.9316 31.0669C26.9951 31.0035 27.0586 31.0352 27.1221 31.0352C27.0904 30.845 26.8998 30.623 26.7728 30.4328C26.7093 30.3377 26.6458 30.2426 26.6775 30.1475C26.7093 29.989 26.8046 30.1475 26.8998 30.1475C26.9951 30.1475 26.9316 29.9573 26.8998 29.8939C26.8681 29.7671 26.8046 29.6086 26.8998 29.4818C26.9634 29.3867 27.1857 29.2599 27.2809 29.2599C27.2492 29.3233 27.1857 29.3867 27.2174 29.4501C27.3445 29.4501 27.3762 29.2599 27.5033 29.1965C27.4715 29.2282 27.4715 29.2916 27.4397 29.3233C27.5985 29.3233 27.5985 29.1331 27.7256 29.0697C27.7573 29.1331 27.6621 29.2282 27.6621 29.2916C27.6303 29.3867 27.6621 29.5135 27.6621 29.6086C27.6938 29.4501 27.8526 29.2599 27.9479 29.1331C28.1067 28.9429 28.2337 29.3233 28.2655 29.4818C28.2972 29.6086 28.2655 29.7671 28.2655 29.8939C28.2655 29.989 28.2972 30.0841 28.2655 30.1475C28.2337 30.2426 28.1702 30.306 28.1702 30.4011C28.2655 30.3377 28.2972 30.2109 28.3925 30.1475C28.329 30.2109 28.329 30.306 28.329 30.4011C28.2972 30.5596 28.2655 30.7498 28.202 30.9084C28.2337 30.8449 28.329 30.7498 28.3608 30.8132C28.329 31.0035 28.2972 31.2888 28.1384 31.4473C28.2655 31.3522 28.456 31.2254 28.5195 31.3522C28.5831 31.479 28.2972 31.7643 28.2972 31.8594C28.3925 31.796 28.456 31.7009 28.5513 31.7326C28.5513 31.7326 28.2655 32.113 28.2655 32.1764C28.2337 32.2715 28.2655 32.3349 28.2972 32.43C28.329 32.5251 28.329 32.5885 28.329 32.6836C28.329 32.8738 28.2655 33.064 28.329 33.2542C28.3925 33.2542 28.456 33.2225 28.5195 33.1908C28.6148 33.4761 28.456 33.7931 28.456 34.0784C28.456 34.2686 28.3925 34.3638 28.3925 34.5223C28.3607 34.8393 28.329 35.1246 28.4243 35.4416C28.456 35.5684 28.5195 35.6952 28.5195 35.8537C28.5195 35.9805 28.3607 36.3609 28.4243 36.456C28.456 36.4877 28.4878 36.5511 28.5195 36.5828C28.5513 36.6462 28.5831 36.7413 28.6148 36.8364C28.6148 36.8998 28.6148 36.9632 28.6466 37.0266C28.6783 37.2802 28.7419 37.5021 28.8054 37.7557C28.8054 37.7874 28.8371 37.8508 28.8371 37.8825C28.9007 38.0093 28.9959 38.0727 29.0277 38.1996C29.0912 38.1996 29.1547 38.2313 29.2182 38.263C29.2818 38.263 29.3453 38.2947 29.4088 38.3264C29.5676 38.4215 29.7264 38.4215 29.9169 38.3898C30.0122 38.3898 30.1075 38.3264 30.2028 38.3581C30.2663 38.3581 30.2663 38.3898 30.3298 38.4215C30.4251 38.4849 30.5521 38.4215 30.6474 38.3898C30.7427 38.3581 30.9967 38.263 31.1238 38.3264C31.092 38.3581 31.0603 38.4215 31.0603 38.4849C31.1555 38.5166 31.2508 38.4532 31.3143 38.4532C31.4096 38.4532 31.5049 38.4849 31.6002 38.4532C31.6954 38.4215 31.7272 38.4215 31.8225 38.4215C31.886 38.4215 31.9495 38.4215 32.013 38.4215C32.1083 38.4215 32.1718 38.4215 32.2671 38.3898C32.3306 38.3898 32.3624 38.3898 32.4259 38.3581C32.4894 38.3264 32.5212 38.2947 32.5847 38.2947C32.807 38.263 32.7435 38.4215 32.7752 38.5483C32.8705 38.5166 32.934 38.3264 33.0293 38.2947C33.1246 38.2313 33.1881 38.2947 33.1563 38.4215C33.2199 38.263 33.2834 38.1679 33.2834 37.9776C33.2834 37.7874 33.2834 37.5972 33.2516 37.407C33.2199 37.5338 33.3469 37.5338 33.4104 37.6289C33.4104 37.5021 33.3151 37.407 33.2516 37.2802C33.1564 37.1217 33.0928 36.9949 33.0293 36.8364C32.9976 36.7413 32.9658 36.6462 32.8705 36.6145C32.7435 36.5511 32.5529 36.4877 32.4577 36.3926C32.4259 36.3609 32.3941 36.3292 32.3941 36.2975C32.2671 36.1073 32.1401 35.9805 32.013 35.7903C31.8225 35.5684 31.6954 35.3782 31.6637 35.0929C31.6637 34.8393 31.6319 34.6174 31.5684 34.3638C31.5366 34.2052 31.5684 34.0784 31.6002 33.9516C31.6002 33.8248 31.6002 33.6663 31.5684 33.5395C31.5684 33.2542 31.759 33.064 31.8542 32.8104C31.9495 32.5885 31.9495 32.3032 31.9813 32.0813C32.0765 32.1447 32.0765 32.2398 32.1718 32.2715C32.2353 32.113 32.1083 31.9228 32.2671 31.796C32.2989 31.8594 32.3306 31.9228 32.3941 31.9545C32.4259 31.8277 32.3941 31.6058 32.3941 31.479C32.3941 31.2571 32.3941 31.0035 32.3941 30.7815C32.4894 30.7815 32.6482 30.0207 32.68 29.9256C32.7117 29.7988 32.7435 29.672 32.7435 29.5452C32.7435 29.4501 32.7752 29.355 32.7752 29.2599C32.7752 29.2282 32.807 29.1648 32.807 29.1331C32.807 29.1014 32.807 29.038 32.807 29.0063C32.807 28.9429 32.8705 28.8795 32.8705 28.8478C32.9023 28.7844 32.9023 28.721 32.934 28.6893C32.934 28.6259 32.934 28.5308 32.934 28.4674C32.9658 28.3089 32.9658 28.1187 32.9658 27.9285C32.9976 27.9602 33.0293 28.0236 33.0928 28.0236C33.1246 27.9602 33.0928 27.9285 33.0611 27.8334C33.0611 27.77 33.0611 27.7066 33.0611 27.6432C33.0928 27.4847 33.1564 27.5481 33.1881 27.6749C33.1881 27.5798 33.1881 27.4847 33.1881 27.3896C33.1881 27.3262 33.1564 27.0725 33.1881 27.0408C33.3151 27.1359 33.4104 27.2628 33.5375 27.3579C33.5692 27.2628 33.5692 27.1677 33.5692 27.0725C33.5692 26.9457 33.601 26.7872 33.601 26.6604C33.601 26.4702 33.6327 26.2483 33.728 26.0898C33.7598 26.0264 33.7915 25.9947 33.8233 25.9313C33.8868 25.8045 33.9186 25.646 33.9503 25.5192C33.9821 25.4241 33.9821 25.2973 34.0138 25.2022C34.0774 25.0754 34.1409 24.9803 34.2044 24.8852C34.2679 24.7584 34.5537 24.4731 34.4585 24.3146C34.5537 24.2829 34.7443 24.0927 34.8078 24.0293C34.6808 23.9342 34.5537 23.9659 34.395 23.9342C34.522 23.8074 34.9031 23.8708 34.9666 23.6806C34.7443 23.6489 34.6173 23.4586 34.6808 23.2367C34.7443 23.2684 34.8078 23.3001 34.8713 23.3318C34.9349 23.205 34.8396 23.1416 34.8078 23.0148C34.7761 22.9197 34.7761 22.7929 34.8078 22.6978C34.9666 22.6978 35.0936 22.9197 35.2207 22.9197C35.2842 22.7929 35.1254 22.6027 35.0936 22.4759C35.0619 22.3491 35.0619 22.1906 35.0619 22.0638C35.0619 21.7785 35.0936 21.5249 35.0936 21.2713C35.0936 21.1762 35.0936 21.0811 35.0619 21.0177C35.0301 20.8909 34.9666 20.6056 35.0301 20.4788C35.1572 20.4788 35.2524 20.6373 35.316 20.7641C35.316 20.7324 35.316 20.7007 35.316 20.669C35.316 20.6056 35.2842 20.5739 35.2842 20.5105C35.2524 20.4154 35.2524 20.3203 35.2524 20.2252C35.2524 20.035 35.1254 19.8447 35.1254 19.6545C35.1254 19.5277 35.0936 19.3692 35.0619 19.2424C35.0619 19.1473 35.0619 19.0522 35.0619 18.9571C35.0619 18.8937 35.0936 18.7986 35.0936 18.7352C35.0619 18.7986 35.1889 18.8937 35.2207 18.9254C35.316 19.0205 35.443 19.1473 35.4748 19.2741C35.443 18.9888 35.316 18.7352 35.2842 18.4816C35.2524 18.2597 35.1572 17.9744 35.2842 17.7525C35.3477 17.8476 35.4112 17.9427 35.4748 18.0378C35.4748 17.911 35.3795 17.8159 35.3477 17.6891C35.316 17.5306 35.2524 17.4038 35.2207 17.277C35.1889 17.0868 35.1254 16.9283 35.1254 16.7381C35.1254 16.643 35.0936 16.5479 35.0936 16.4528C35.1572 16.4845 35.1889 16.5479 35.2207 16.6113C35.2524 16.643 35.2842 16.6747 35.316 16.7381C35.3795 16.8332 35.443 16.8966 35.5383 16.96C35.57 16.8966 35.4748 16.7381 35.443 16.7064C35.4112 16.6113 35.4112 16.5479 35.3795 16.4528C35.3477 16.3577 35.3477 16.2625 35.3477 16.1674C35.3477 16.104 35.316 16.0406 35.2842 15.9772C35.2842 15.9455 35.2842 15.9138 35.2842 15.9138C35.2842 15.8821 35.1254 15.7553 35.1572 15.7553C35.2524 15.7236 35.3795 15.8821 35.4112 15.9455C35.4112 15.9138 35.3795 15.8187 35.3477 15.787C35.3477 15.7553 35.316 15.7236 35.316 15.6919C35.2842 15.6602 35.2524 15.6285 35.2207 15.5968C35.1572 15.5334 35.0301 15.4066 35.0619 15.3115C35.0936 15.3115 35.1254 15.3749 35.1572 15.4066C35.1254 15.3432 35.0936 15.2798 35.0619 15.2164C35.0619 15.1847 35.0301 15.153 35.0301 15.1213C35.0301 15.0896 35.0301 15.0579 35.0301 15.0579C35.0301 15.0262 34.9984 14.9945 34.9984 14.9628C34.9984 14.8677 34.9984 14.8043 34.9984 14.7092C35.0619 14.6775 35.1254 14.6458 35.1889 14.6458C35.316 14.6141 35.443 14.6141 35.57 14.6141C35.6336 14.6141 35.6653 14.5824 35.6971 14.5824C35.8559 14.5507 36.0464 14.6141 36.2052 14.5824C36.2687 14.5507 36.364 14.5507 36.4275 14.519C36.5228 14.4873 36.6181 14.3922 36.6816 14.3288C36.7134 14.2971 36.7134 14.2971 36.7451 14.2654C36.7769 14.2337 36.8404 14.202 36.9039 14.202C36.9674 14.2337 36.9992 14.3288 37.0309 14.3605C37.158 14.4873 37.158 14.2971 37.2533 14.202C37.3485 14.2654 37.285 14.4873 37.3168 14.5824C37.285 14.3605 37.6026 14.1703 37.5708 13.9484C37.5708 14.1069 37.5708 14.2654 37.5708 14.3922C37.5708 14.3288 37.6026 14.2337 37.6344 14.1703C37.6661 14.0435 37.8567 13.8216 37.9837 13.7582C37.9837 13.8216 38.0155 13.885 38.0472 13.9484C38.0472 14.0435 38.0472 14.1386 38.0472 14.2337C38.1108 14.0752 38.206 13.9484 38.2378 13.7582C38.2378 13.5363 38.2378 13.3778 38.2695 13.1559C38.2378 13.251 38.3331 13.3144 38.3331 13.4095C38.3648 13.5046 38.3331 13.5997 38.3331 13.6948C38.3966 13.6314 38.3648 13.5046 38.3648 13.4412C38.3648 13.251 38.3648 13.0925 38.3648 12.9023C38.4283 12.9657 38.4283 13.0925 38.4601 13.1559C38.5236 13.2827 38.5871 13.3778 38.6507 13.5046C38.7142 13.3461 38.7142 13.1242 38.6824 12.9657C38.6507 12.8072 38.6189 12.6169 38.5554 12.4584C38.5236 12.4267 38.4601 12.3316 38.4919 12.2999C38.4919 12.2365 38.5554 12.2365 38.5871 12.2048C38.6189 12.1731 38.6189 12.1097 38.6189 12.078C38.6189 12.0463 38.6189 12.0146 38.6189 12.0146C38.6189 11.9829 38.6507 11.9829 38.6507 11.9512C38.6507 11.9195 38.6507 11.8878 38.6507 11.8878C38.6507 11.8561 38.6824 11.8561 38.6824 11.8561C38.7142 11.761 38.6507 11.6659 38.6507 11.5391C38.6507 11.4757 38.6507 11.444 38.6507 11.3806C38.6507 11.3172 38.6189 11.2855 38.6189 11.2221C38.6189 11.1587 38.6189 11.1587 38.5871 11.0953C38.5871 11.0636 38.5871 11.0319 38.5554 10.9685C38.5236 10.9368 38.4919 10.9051 38.4919 10.8734C38.4601 10.8417 38.4919 10.81 38.4601 10.81C38.4283 10.7783 38.3966 10.7783 38.3648 10.7783C38.3013 10.7466 38.2378 10.7149 38.1743 10.6832C38.1425 10.6515 38.1107 10.493 38.079 10.5247C38.1425 10.493 38.1743 10.5247 38.2378 10.5247C38.1743 10.4296 38.079 10.3028 37.952 10.2711C37.9202 10.2711 37.8884 10.2394 37.8567 10.2394C37.7932 10.2077 37.7296 10.1443 37.6979 10.1126C37.6661 10.0809 37.6026 10.0809 37.5708 10.0492C37.5391 10.0175 37.5391 9.98578 37.5073 9.95407C37.5709 9.95407 37.6661 9.98578 37.7296 9.95407C37.7296 9.92237 37.6661 9.92237 37.6344 9.89067C37.6026 9.85897 37.5708 9.82727 37.5391 9.79557C37.4756 9.73217 37.412 9.70047 37.3803 9.63707C37.412 9.63707 37.4756 9.63707 37.5073 9.63707C37.5073 9.57366 37.412 9.51026 37.3803 9.47856C37.3485 9.44686 37.3168 9.38346 37.285 9.35176C37.2533 9.32006 37.2533 9.25666 37.2215 9.22496C37.1897 9.19326 37.2215 9.12985 37.2215 9.09815C37.2215 9.06645 37.1897 8.97135 37.1897 8.97135C37.2215 8.93965 37.2215 8.90795 37.2215 8.84454C37.2215 8.81284 37.2533 8.81284 37.2533 8.78114C37.2533 8.74944 37.2533 8.71774 37.2533 8.68604C37.2533 8.62264 37.285 8.59094 37.285 8.52754C37.3168 8.46413 37.3168 8.43243 37.3168 8.36903C37.3168 8.33733 37.3485 8.30563 37.3485 8.30563C37.3485 8.27393 37.3485 8.24223 37.3803 8.24223C37.3803 8.21053 37.4121 8.17883 37.4438 8.14713C37.4756 8.11543 37.5391 8.08372 37.5708 8.08372C37.6979 8.02032 37.8249 7.98862 37.952 7.92522C37.9837 7.89352 38.0155 7.89352 38.0155 7.86182C38.0155 7.83012 38.0472 7.83012 38.0472 7.79842C38.079 7.76672 38.1743 7.60821 38.1425 7.57651C38.1108 7.54481 38.1107 7.51311 38.1107 7.44971C38.1425 7.3863 38.1425 7.3546 38.1425 7.2912C38.1743 7.2912 38.1743 7.3229 38.1743 7.3229C38.1425 7.3229 38.1743 7.1961 38.1743 7.1644C38.1743 7.1327 38.1425 7.101 38.1425 7.0376C38.1425 7.0376 38.1425 7.00589 38.1425 6.97419C38.1743 6.97419 38.206 7.03759 38.2378 7.0693C38.2378 6.97419 38.206 6.91079 38.206 6.84739C38.206 6.81569 38.1743 6.75229 38.1743 6.72059C38.1743 6.68889 38.1425 6.65718 38.1107 6.62548C38.079 6.53038 38.0155 6.43528 37.9837 6.37188C37.9202 6.30848 37.8884 6.21337 37.8249 6.14997C37.7932 6.11827 37.7932 6.05487 37.8567 6.02317C37.8884 5.99146 37.9202 5.99147 37.9202 5.95976C37.9202 5.92806 37.9202 5.89636 37.952 5.86466C37.952 5.83296 37.9837 5.80126 37.9837 5.80126C38.0155 5.73786 38.1107 5.67446 38.1107 5.80126C38.1425 5.95977 38.1743 6.14997 38.2378 6.30847C38.2695 6.34018 38.2695 6.37188 38.3013 6.40358C38.3013 6.43528 38.3331 6.43528 38.3331 6.43528C38.3648 6.46698 38.3648 6.46698 38.3648 6.49868L38.3966 6.53038C38.3966 6.56208 38.4283 6.56208 38.4283 6.59378C38.4601 6.62548 38.4919 6.68889 38.5236 6.72059C38.5554 6.75229 38.5871 6.78399 38.5871 6.81569V6.84739L38.6189 6.87909C38.6507 6.91079 38.7459 6.91079 38.8094 6.87909C38.8412 6.87909 38.873 6.84739 38.873 6.81569C38.9047 6.72058 38.9365 6.62548 38.9682 6.53038C39 6.43528 39 6.34018 39 6.24507C39 6.08657 39 5.92806 38.9682 5.80126C38.9682 5.73786 38.9682 5.70616 38.9682 5.67446C38.9682 5.64276 38.9365 5.57935 38.9682 5.54765C39 5.54765 39 5.57935 39 5.61106C39 5.64276 39 5.67446 39 5.67446C38.6189 5.35745 38.6189 5.29405 38.6189 5.26235Z" fill="#005CA9"/>
</svg>
