<svg width="540" height="360" viewBox="0 0 540 360" fill="none" xmlns="http://www.w3.org/2000/svg">
<path d="M273.803 353.4C369.459 353.4 447.004 275.856 447.004 180.2C447.004 84.5444 369.459 7.00012 273.803 7.00012C178.148 7.00012 100.604 84.5444 100.604 180.2C100.604 275.856 178.148 353.4 273.803 353.4Z" fill="#D9ECFA"/>
<path d="M240.004 252.1H236.404C235.004 252.1 233.904 251 233.904 249.6V240.8C233.904 239.4 235.004 238.3 236.404 238.3H240.004C241.404 238.3 242.504 239.4 242.504 240.8V249.6C242.504 250.9 241.404 252.1 240.004 252.1ZM237.604 248.4H238.904V241.9H237.604V248.4Z" fill="#666666"/>
<path d="M259.804 258.6H256.204C254.804 258.6 253.704 257.5 253.704 256.1V247.3C253.704 245.9 254.804 244.8 256.204 244.8H259.804C261.204 244.8 262.304 245.9 262.304 247.3V256.1C262.304 257.5 261.204 258.6 259.804 258.6ZM257.404 254.9H258.704V248.4H257.404V254.9Z" fill="#666666"/>
<path d="M279.904 258.6H276.304C274.904 258.6 273.804 257.5 273.804 256.1V247.3C273.804 245.9 274.904 244.8 276.304 244.8H279.904C281.304 244.8 282.404 245.9 282.404 247.3V256.1C282.404 257.5 281.304 258.6 279.904 258.6ZM277.504 254.9H278.804V248.4H277.504V254.9Z" fill="#666666"/>
<path d="M300.604 254.5H297.004C295.604 254.5 294.504 253.4 294.504 252V243.2C294.504 241.8 295.604 240.7 297.004 240.7H300.604C302.004 240.7 303.104 241.8 303.104 243.2V252C303.204 253.4 302.004 254.5 300.604 254.5ZM298.204 250.8H299.504V244.3H298.204V250.8Z" fill="#666666"/>
<path d="M450.204 314.6H105.304C104.304 314.6 103.504 313.8 103.504 312.8C103.504 311.8 104.304 311 105.304 311H450.204C451.204 311 452.004 311.8 452.004 312.8C452.004 313.8 451.304 314.6 450.204 314.6Z" fill="#666666"/>
<path d="M333.104 312.7H357.804C357.804 302.2 344.204 301.1 344.204 301.1C344.204 301.1 327.204 288.3 347.404 219.9L315.904 220.3C316.004 220.3 317.704 299.4 333.104 312.7Z" fill="white"/>
<path d="M357.804 314.6H333.104C332.704 314.6 332.204 314.4 331.904 314.2C316.004 300.5 314.204 223.7 314.104 220.4C314.104 219.9 314.304 219.4 314.604 219.1C314.904 218.8 315.404 218.5 315.904 218.5L347.404 218.1C348.004 218.1 348.504 218.4 348.904 218.8C349.304 219.2 349.404 219.9 349.204 220.4C331.404 280.8 342.904 297 345.004 299.3C350.404 299.9 359.604 303.4 359.604 312.6C359.704 313.8 358.904 314.6 357.804 314.6ZM333.904 310.9H355.904C354.404 303.9 344.604 303 344.204 303C343.904 303 343.504 302.8 343.204 302.6C342.504 302.1 325.804 288.6 345.104 221.8L318.004 222.1C318.304 233.9 320.904 298.2 333.904 310.9Z" fill="#666666"/>
<path d="M230.804 218.3C225.304 244.9 185.904 268.8 185.904 268.8C180.004 280.1 182.204 301.1 182.204 301.1C182.204 301.1 195.804 302.2 195.804 312.7H171.104C171.104 312.7 166.604 286.3 167.904 263.7L177.204 239.9L198.804 211.1L227.504 211.3L230.804 218.3Z" fill="white"/>
<path d="M195.804 314.6H171.104C170.204 314.6 169.404 314 169.304 313.1C169.304 312.8 164.804 286.2 166.104 263.7C166.104 263.5 166.204 263.3 166.204 263.1L175.504 239.3C175.604 239.1 175.604 239 175.704 238.9L197.304 210.1C197.604 209.6 198.204 209.3 198.804 209.4L227.504 209.6C228.204 209.6 228.904 210 229.204 210.7L232.404 217.7C232.604 218.1 232.604 218.5 232.504 218.8C227.204 244.7 191.904 267.4 187.204 270.3C182.804 279.4 183.404 294.9 183.804 299.7C189.304 300.6 197.504 304.2 197.504 312.9C197.604 313.8 196.804 314.6 195.804 314.6ZM172.604 310.9H193.704C192.204 303.9 182.404 303 182.004 303C181.104 302.9 180.404 302.2 180.304 301.4C180.204 300.5 178.204 279.7 184.204 268.1C184.404 267.8 184.604 267.6 184.904 267.4C185.304 267.2 223.104 244 228.804 218.6L226.304 213.2L199.704 213.1L178.804 240.9L169.704 264.2C168.704 283.1 171.704 305 172.604 310.9Z" fill="#666666"/>
<path d="M343.304 224.3C344.604 275.2 360.104 312.7 360.104 312.7H384.804C384.804 302.2 371.204 301.1 371.204 301.1C364.504 289.4 366.304 271.9 366.304 271.9C367.404 256 377.504 209.5 381.104 193.5C381.904 189.9 383.004 186.5 384.304 183C392.604 160.9 396.404 137.8 398.004 127.9C398.504 124.8 400.004 122.6 401.804 121C404.704 118.4 408.804 117.7 412.604 118.5C428.604 122 456.904 128.5 456.904 84.1001L424.604 81.0001L421.204 72.7001C419.904 69.6001 417.604 67.0001 414.604 65.3001C406.404 60.9001 391.404 54.3001 374.604 59.9001C364.604 63.3001 356.804 71.3001 352.804 81.1001L345.504 99.1001C340.904 110.5 332.804 120.4 322.104 126.6C316.404 129.9 309.304 133.1 300.404 135.5C290.304 138.2 279.704 138.9 269.204 138.3C250.304 137.1 209.904 137.8 182.804 148.8C176.504 151.4 165.504 158.1 160.904 160.9C159.704 161.7 158.404 162.5 157.304 163.4C146.504 171.6 137.404 179.6 128.504 185.1C121.904 189.1 113.404 192.6 106.104 195.2C95.6037 198.9 87.1037 206.9 82.8037 217.2C118.704 217.2 155.604 189.5 155.604 189.5L163.304 185.2C164.004 194.7 160.404 212.3 160.404 212.3C160.404 212.3 157.004 245.3 140.104 259.4C139.504 259.9 139.004 260.5 138.604 261.2C125.804 286.3 129.204 312.6 129.204 312.6H153.904C153.904 302.1 140.304 301 140.304 301C140.304 301 142.504 282.7 152.204 272.2C186.604 255.7 196.804 235.3 199.504 227.7C200.304 225.4 201.804 223.4 203.904 222.1C204.104 222.3 259.404 285.9 343.304 224.3Z" fill="white"/>
<path d="M154.104 314.6H129.404C128.504 314.6 127.704 313.9 127.604 313C127.504 311.9 124.204 285.9 137.204 260.6C137.704 259.7 138.304 258.9 139.104 258.2C155.204 244.7 158.704 212.6 158.704 212.3C158.704 212.2 158.704 212.2 158.704 212.1C158.704 211.9 161.504 197.9 161.604 188.4L156.604 191.2C154.004 193.1 118.304 219.2 82.8041 219.2C82.2041 219.2 81.6041 218.9 81.3041 218.4C81.0041 217.9 80.9041 217.2 81.1041 216.7C85.6041 206 94.4041 197.6 105.504 193.7C114.704 190.5 122.104 187.1 127.604 183.8C133.504 180.2 139.704 175.3 146.204 170.1C149.404 167.6 152.704 164.9 156.204 162.2C157.404 161.3 158.604 160.4 159.904 159.6C164.404 156.8 175.604 149.9 182.104 147.3C209.204 136.3 249.704 135.4 269.304 136.6C280.404 137.3 290.704 136.4 299.904 133.9C307.704 131.8 314.804 128.9 321.104 125.2C331.104 119.4 339.104 109.9 343.704 98.6001L351.004 80.6001C355.304 69.9001 363.704 61.7001 373.904 58.3001C386.804 54.0001 400.704 55.9001 415.404 63.8001C418.704 65.6001 421.304 68.5001 422.804 72.1001L425.804 79.3001L457.004 82.3001C457.904 82.4001 458.704 83.2001 458.704 84.1001C458.704 100.3 454.904 111.6 447.404 117.6C437.104 125.9 422.304 122.6 412.404 120.4L412.104 120.3C408.704 119.5 405.204 120.3 402.904 122.4C401.204 123.9 400.104 125.9 399.704 128.2C398.204 137.2 394.404 161.1 385.904 183.7C384.504 187.5 383.504 190.8 382.804 193.9C379.604 208.2 369.204 256 368.104 272C368.104 272.2 366.504 288.3 372.404 299.3C377.904 300 386.704 303.5 386.704 312.6C386.704 313.6 385.904 314.4 384.904 314.4H360.204C359.504 314.4 358.804 314 358.504 313.3C358.304 312.9 343.604 276.6 341.704 227.7C299.004 257.9 263.904 255.5 241.804 248C221.004 241 207.904 228.6 204.004 224.6C202.904 225.6 202.104 226.9 201.604 228.3C198.704 236.4 188.204 257 153.704 273.7C146.404 281.8 143.604 294.8 142.804 299.5C148.304 300.5 156.104 304.1 156.104 312.6C155.904 313.8 155.104 314.6 154.104 314.6ZM131.004 310.9H152.004C150.504 303.9 140.704 303 140.304 303C139.804 303 139.304 302.7 139.004 302.3C138.704 301.9 138.504 301.4 138.604 300.9C138.704 300.1 141.004 281.9 151.004 271.1C151.204 270.9 151.304 270.8 151.604 270.7C185.204 254.6 195.204 235 198.004 227.2C199.004 224.4 200.804 222.2 203.104 220.7C203.904 220.2 204.904 220.4 205.504 221C205.604 221.2 219.404 236.7 243.004 244.7C274.204 255.2 308.504 247.6 342.204 222.8C342.804 222.4 343.504 222.3 344.104 222.6C344.704 222.9 345.104 223.5 345.104 224.2C346.304 269.3 358.804 304.2 361.304 310.8H382.704C381.204 303.8 371.404 302.9 371.004 302.9C370.404 302.9 369.904 302.5 369.604 302C362.704 289.9 364.404 272.5 364.404 271.7C365.504 256 375.104 211.5 379.204 193.1C379.904 189.8 381.004 186.4 382.504 182.4C390.804 160.1 394.704 136.5 396.104 127.6C396.604 124.4 398.104 121.7 400.504 119.6C403.704 116.8 408.404 115.7 412.904 116.7L413.204 116.8C422.904 118.9 436.204 121.9 445.104 114.7C451.404 109.6 454.704 99.9001 455.004 85.8001L424.404 82.9001C423.704 82.8001 423.104 82.4001 422.904 81.8001L419.504 73.5001C418.404 70.7001 416.304 68.5001 413.804 67.1001C400.104 59.6001 387.104 57.9001 375.204 61.8001C366.004 64.9001 358.504 72.2001 354.504 82.0001L347.204 100C342.304 112.1 333.704 122.2 323.104 128.4C316.504 132.2 309.104 135.3 301.004 137.5C291.504 140.1 280.804 141 269.304 140.3C250.004 139.1 210.204 140 183.704 150.7C177.504 153.2 166.504 159.9 162.104 162.7C160.904 163.5 159.704 164.3 158.604 165.1C155.104 167.8 151.804 170.4 148.604 172.9C142.004 178.2 135.704 183.1 129.604 186.9C123.904 190.4 116.304 193.8 106.804 197.1C97.6041 200.3 90.1041 206.9 85.8041 215.5C119.804 214.1 154.304 188.5 154.604 188.2C154.704 188.2 154.704 188.1 154.804 188.1L162.504 183.8C163.004 183.5 163.704 183.5 164.304 183.8C164.904 184.1 165.204 184.7 165.304 185.3C166.004 194.7 162.704 211.3 162.404 212.8C162.204 215.1 158.404 246.8 141.504 261C141.004 261.4 140.704 261.8 140.504 262.3C129.804 283 130.604 304.9 131.004 310.9Z" fill="#666666"/>
<path d="M447.004 85.3001C447.004 85.3001 446.904 93.9001 453.604 93.6001L454.404 86.3001L447.004 85.3001Z" fill="#666666"/>
<path d="M453.304 95.5001C451.304 95.5001 449.504 94.8001 448.204 93.5001C445.304 90.6001 445.204 85.9001 445.304 85.3001C445.304 84.8001 445.504 84.3001 445.904 83.9001C446.304 83.6001 446.804 83.4001 447.304 83.5001L454.704 84.5001C455.704 84.6001 456.404 85.5001 456.304 86.5001L455.504 93.8001C455.404 94.7001 454.704 95.4001 453.804 95.4001C453.504 95.5001 453.404 95.5001 453.304 95.5001ZM449.104 87.5001C449.304 88.7001 449.804 90.0001 450.704 90.9001C451.104 91.3001 451.504 91.5001 452.004 91.7001L452.404 88.0001L449.104 87.5001Z" fill="#666666"/>
<path d="M389.904 57.9002C391.504 57.8002 392.404 59.7002 391.404 60.9002C388.804 63.9002 386.404 67.9001 385.704 70.2001C384.504 73.9001 384.404 78.0002 385.104 81.9002C389.704 108.2 379.604 110.2 379.604 110.2C367.804 112.2 357.304 99.1001 352.504 91.7001C350.204 88.2001 349.704 83.9002 351.204 80.1002C354.304 72.1002 363.404 59.7002 389.904 57.9002Z" fill="white"/>
<path d="M377.104 112.2C365.604 112.2 355.904 100.2 350.904 92.7001C348.304 88.7001 347.704 83.7001 349.404 79.4001C352.504 71.5001 361.804 58.0001 389.804 56.1001C391.304 56.0001 392.604 56.8001 393.304 58.1001C394.004 59.4001 393.804 61.0001 392.804 62.1001C390.204 65.1001 388.104 68.8001 387.404 70.8001C386.404 73.9001 386.204 77.6001 386.904 81.6001C391.704 108.8 381.204 111.8 379.904 112C379.004 112.2 378.004 112.2 377.104 112.2ZM390.004 59.8001C364.204 61.6001 355.704 73.7001 352.904 80.8001C351.604 84.1001 352.004 87.8001 354.004 90.8001C357.904 96.7001 368.204 110.3 379.204 108.5C379.704 108.3 387.304 105.3 383.304 82.3001C382.504 77.7001 382.704 73.5001 384.004 69.8001C384.804 66.9001 387.404 62.8001 390.004 59.8001Z" fill="#666666"/>
</svg>
